G04*
G04 #@! TF.GenerationSoftware,Altium Limited,Altium Designer,21.4.1 (30)*
G04*
G04 Layer_Physical_Order=1*
G04 Layer_Color=255*
%FSLAX24Y24*%
%MOIN*%
G70*
G04*
G04 #@! TF.SameCoordinates,BB743824-BBF0-47B9-BD17-25F7BFA3378D*
G04*
G04*
G04 #@! TF.FilePolarity,Positive*
G04*
G01*
G75*
%ADD13C,0.0060*%
%ADD15R,0.0118X0.0106*%
G04:AMPARAMS|DCode=16|XSize=11.8mil|YSize=10.6mil|CornerRadius=2.7mil|HoleSize=0mil|Usage=FLASHONLY|Rotation=90.000|XOffset=0mil|YOffset=0mil|HoleType=Round|Shape=RoundedRectangle|*
%AMROUNDEDRECTD16*
21,1,0.0118,0.0053,0,0,90.0*
21,1,0.0065,0.0106,0,0,90.0*
1,1,0.0053,0.0027,0.0032*
1,1,0.0053,0.0027,-0.0032*
1,1,0.0053,-0.0027,-0.0032*
1,1,0.0053,-0.0027,0.0032*
%
%ADD16ROUNDEDRECTD16*%
G04:AMPARAMS|DCode=17|XSize=11.8mil|YSize=10.6mil|CornerRadius=2.7mil|HoleSize=0mil|Usage=FLASHONLY|Rotation=180.000|XOffset=0mil|YOffset=0mil|HoleType=Round|Shape=RoundedRectangle|*
%AMROUNDEDRECTD17*
21,1,0.0118,0.0053,0,0,180.0*
21,1,0.0065,0.0106,0,0,180.0*
1,1,0.0053,-0.0032,0.0027*
1,1,0.0053,0.0032,0.0027*
1,1,0.0053,0.0032,-0.0027*
1,1,0.0053,-0.0032,-0.0027*
%
%ADD17ROUNDEDRECTD17*%
%ADD18R,0.1043X0.1043*%
%ADD19O,0.0118X0.0315*%
%ADD20O,0.0315X0.0118*%
%ADD21R,0.0106X0.0118*%
%ADD22R,0.0295X0.0315*%
%ADD32C,0.0110*%
%ADD33C,0.0118*%
%ADD34C,0.0100*%
%ADD35C,0.0126*%
%ADD36C,0.0150*%
%ADD37C,0.0240*%
G36*
X203Y1995D02*
X193Y1981D01*
X156D01*
Y1981D01*
X-41D01*
Y1723D01*
Y1466D01*
X-15D01*
Y1400D01*
X138D01*
Y1300D01*
X-15D01*
Y1191D01*
X14D01*
X33Y1145D01*
X22Y1133D01*
X6Y1115D01*
X-6Y1095D01*
X-15Y1073D01*
X-20Y1055D01*
X-27Y1045D01*
X-68Y1025D01*
X-73Y1025D01*
X-79Y1028D01*
X-95Y1032D01*
X-870Y1806D01*
Y2035D01*
X175D01*
X203Y1995D01*
D02*
G37*
G36*
X2429Y839D02*
X2379Y829D01*
X2372Y844D01*
X2356Y874D01*
X2336Y902D01*
X2314Y927D01*
X2288Y950D01*
X2261Y969D01*
X2231Y986D01*
X2200Y999D01*
X2167Y1008D01*
X2134Y1014D01*
X2101Y1016D01*
X2100Y1016D01*
X2067Y1017D01*
X2035Y1016D01*
X2034Y1016D01*
X2001Y1014D01*
X1967Y1008D01*
X1935Y999D01*
X1903Y986D01*
X1874Y969D01*
X1846Y950D01*
X1821Y927D01*
X1772D01*
X1747Y950D01*
X1719Y969D01*
X1689Y986D01*
X1658Y999D01*
X1626Y1008D01*
X1592Y1014D01*
X1588Y1014D01*
X1558Y1018D01*
X1526Y1020D01*
X1493Y1018D01*
X1464Y1014D01*
X1459Y1014D01*
X1426Y1008D01*
X1393Y999D01*
X1362Y986D01*
X1332Y969D01*
X1304Y950D01*
X1279Y927D01*
X1257Y902D01*
X1237Y874D01*
X1221Y844D01*
X1208Y813D01*
X1205Y804D01*
X1179Y796D01*
X1148Y783D01*
X1118Y767D01*
X1115Y765D01*
X1065Y791D01*
Y879D01*
X1094D01*
Y1104D01*
Y1410D01*
X1065D01*
Y2035D01*
X2429D01*
Y839D01*
D02*
G37*
G36*
X805Y1410D02*
X776D01*
Y1104D01*
Y879D01*
X805D01*
Y595D01*
X753Y543D01*
X679D01*
X672Y543D01*
X634Y568D01*
X622Y585D01*
Y622D01*
X585D01*
X568Y634D01*
X543Y672D01*
X543Y679D01*
Y876D01*
X541Y901D01*
X536Y925D01*
X534Y928D01*
X534Y1311D01*
X532Y1334D01*
X527Y1357D01*
X522Y1370D01*
Y1466D01*
X688D01*
Y1981D01*
X672D01*
X670Y1985D01*
X706Y2035D01*
X805D01*
Y1410D01*
D02*
G37*
G36*
X-533Y931D02*
X-536Y925D01*
X-541Y901D01*
X-543Y876D01*
Y679D01*
X-543Y672D01*
X-568Y634D01*
X-585Y622D01*
X-622D01*
Y585D01*
X-634Y568D01*
X-672Y543D01*
X-679Y543D01*
X-876D01*
X-901Y541D01*
X-925Y536D01*
X-948Y526D01*
X-957Y521D01*
X-1110Y674D01*
Y1442D01*
X-1063Y1461D01*
X-533Y931D01*
D02*
G37*
G36*
X-1370Y620D02*
X-1369Y599D01*
X-1364Y579D01*
X-1356Y560D01*
X-1346Y543D01*
X-1332Y527D01*
X-1318Y513D01*
X-1337Y467D01*
X-1388D01*
X-1421Y465D01*
X-1439Y463D01*
X-1561D01*
X-1579Y465D01*
X-1612Y467D01*
X-1810D01*
X-1838Y494D01*
Y2035D01*
X-1370D01*
Y620D01*
D02*
G37*
G36*
X1915Y150D02*
X1948Y145D01*
X1982Y143D01*
X2035D01*
X2069Y145D01*
X2083Y147D01*
X2403D01*
X2429Y123D01*
Y-131D01*
X2412Y-147D01*
X2083D01*
X2069Y-145D01*
X2035Y-143D01*
X1982D01*
X1948Y-145D01*
X1915Y-150D01*
X1896Y-156D01*
X1878Y-150D01*
X1845Y-145D01*
X1811Y-143D01*
X1758D01*
X1724Y-145D01*
X1710Y-147D01*
X1604D01*
X1590Y-145D01*
X1557Y-143D01*
X1503D01*
X1469Y-145D01*
X1445Y-149D01*
X1330Y-35D01*
X1321Y-0D01*
X1330Y35D01*
X1445Y149D01*
X1469Y145D01*
X1503Y143D01*
X1557D01*
X1590Y145D01*
X1604Y147D01*
X1710D01*
X1724Y145D01*
X1758Y143D01*
X1811D01*
X1845Y145D01*
X1878Y150D01*
X1896Y156D01*
X1915Y150D01*
D02*
G37*
G36*
X1012Y-653D02*
X1023Y-671D01*
X1042Y-699D01*
X1065Y-724D01*
X1090Y-747D01*
X1118Y-767D01*
X1148Y-783D01*
X1179Y-796D01*
X1204Y-803D01*
X1208Y-816D01*
X1221Y-847D01*
X1237Y-877D01*
X1257Y-904D01*
X1279Y-930D01*
X1304Y-952D01*
X1332Y-972D01*
X1362Y-988D01*
X1393Y-1001D01*
X1426Y-1011D01*
X1459Y-1016D01*
X1492Y-1018D01*
X1493Y-1018D01*
X1526Y-1020D01*
X1558Y-1018D01*
X1559Y-1018D01*
X1592Y-1016D01*
X1626Y-1011D01*
X1658Y-1001D01*
X1689Y-988D01*
X1719Y-972D01*
X1747Y-952D01*
X1772Y-930D01*
X1821D01*
X1846Y-952D01*
X1874Y-972D01*
X1903Y-988D01*
X1935Y-1001D01*
X1967Y-1011D01*
X2001Y-1016D01*
X2034Y-1018D01*
X2035Y-1018D01*
X2067Y-1020D01*
X2100Y-1018D01*
X2101Y-1018D01*
X2134Y-1016D01*
X2167Y-1011D01*
X2200Y-1001D01*
X2231Y-988D01*
X2261Y-972D01*
X2288Y-952D01*
X2314Y-930D01*
X2336Y-904D01*
X2356Y-877D01*
X2372Y-847D01*
X2379Y-832D01*
X2429Y-842D01*
Y-1248D01*
X258D01*
Y-1043D01*
X263Y-1038D01*
X308Y-1016D01*
X311Y-1018D01*
X334Y-1027D01*
Y-778D01*
X384D01*
Y-728D01*
X543D01*
Y-679D01*
X543Y-672D01*
X568Y-634D01*
X585Y-622D01*
X622D01*
Y-585D01*
X634Y-568D01*
X672Y-543D01*
X679Y-543D01*
X876D01*
X901Y-541D01*
X901Y-541D01*
X1012Y-653D01*
D02*
G37*
G36*
X-948Y-526D02*
X-925Y-536D01*
X-901Y-541D01*
X-876Y-543D01*
X-679D01*
X-672Y-543D01*
X-634Y-568D01*
X-622Y-585D01*
Y-622D01*
X-585D01*
X-568Y-634D01*
X-543Y-672D01*
X-543Y-679D01*
Y-876D01*
X-541Y-901D01*
X-536Y-925D01*
X-526Y-948D01*
X-514Y-968D01*
Y-1248D01*
X-1110D01*
Y-674D01*
X-957Y-521D01*
X-948Y-526D01*
D02*
G37*
G36*
X-1421Y-209D02*
X-1388Y-211D01*
X-1251D01*
X-1232Y-257D01*
X-1452Y-478D01*
X-1465Y-493D01*
X-1476Y-511D01*
X-1484Y-530D01*
X-1489Y-550D01*
X-1490Y-570D01*
Y-1248D01*
X-1838D01*
Y-238D01*
X-1810Y-211D01*
X-1612D01*
X-1579Y-209D01*
X-1561Y-207D01*
X-1439D01*
X-1421Y-209D01*
D02*
G37*
%LPC*%
G36*
X-141Y1981D02*
X-339D01*
Y1773D01*
X-141D01*
Y1981D01*
D02*
G37*
G36*
Y1673D02*
X-339D01*
Y1466D01*
X-141D01*
Y1673D01*
D02*
G37*
G36*
X543Y-828D02*
X434D01*
Y-1027D01*
X456Y-1018D01*
X478Y-1005D01*
X497Y-989D01*
X513Y-970D01*
X526Y-948D01*
X536Y-925D01*
X541Y-901D01*
X543Y-876D01*
Y-828D01*
D02*
G37*
%LPD*%
D13*
X935Y541D02*
Y1033D01*
X778Y384D02*
X935Y541D01*
Y1257D02*
Y2040D01*
X-1000Y1752D02*
X-128Y880D01*
X-1000Y1752D02*
Y2040D01*
X-1120Y1702D02*
X-384Y966D01*
X-1120Y1702D02*
Y2040D01*
X-1240Y620D02*
X-1004Y384D01*
X-1240Y620D02*
Y2040D01*
X-1004Y384D02*
X-778D01*
X-384Y778D02*
Y966D01*
X-128Y778D02*
Y880D01*
X-1004Y-384D02*
X-778D01*
X-1240Y-1250D02*
Y-620D01*
X-1004Y-384D01*
X-918Y-128D02*
X-778D01*
X-1360Y-1250D02*
Y-570D01*
X-918Y-128D01*
X-384Y-1250D02*
Y-778D01*
X-128Y-1250D02*
Y-778D01*
X128Y-1250D02*
Y-778D01*
D15*
X935Y1033D02*
D03*
Y1257D02*
D03*
D16*
X1530Y-478D02*
D03*
X1306D02*
D03*
X1530Y478D02*
D03*
X1306D02*
D03*
X2009Y-478D02*
D03*
X1784D02*
D03*
X2009Y478D02*
D03*
X1784D02*
D03*
D17*
X2067Y-913D02*
D03*
Y-689D02*
D03*
X1526D02*
D03*
Y-913D02*
D03*
Y686D02*
D03*
Y911D02*
D03*
X2067D02*
D03*
Y686D02*
D03*
D18*
X0Y0D02*
D03*
D19*
X384Y-778D02*
D03*
X128D02*
D03*
X-128D02*
D03*
X-384D02*
D03*
X-384Y778D02*
D03*
X-128D02*
D03*
X128D02*
D03*
X384D02*
D03*
D20*
X-778Y-384D02*
D03*
Y-128D02*
D03*
Y128D02*
D03*
Y384D02*
D03*
X778D02*
D03*
Y128D02*
D03*
Y-128D02*
D03*
Y-384D02*
D03*
D21*
X-1612Y128D02*
D03*
X-1388D02*
D03*
X362Y1350D02*
D03*
X138D02*
D03*
D22*
X-91Y1723D02*
D03*
X440D02*
D03*
D32*
X1081Y-254D02*
G03*
X778Y-128I-304J-304D01*
G01*
Y128D02*
G03*
X1081Y254I0J430D01*
G01*
X1306Y478D01*
X1526Y482D02*
X1530Y478D01*
X1081Y-254D02*
X1306Y-478D01*
X1526Y-482D02*
X1530Y-478D01*
X1526Y-689D02*
Y-482D01*
X2067Y-689D02*
Y-478D01*
X1530D02*
X1777D01*
X1530Y478D02*
X1777D01*
X2067D02*
Y686D01*
X1526Y482D02*
Y686D01*
Y689D01*
X2067Y-478D02*
X2412D01*
X2009D02*
X2067D01*
X2009Y478D02*
X2067D01*
X2403D01*
D33*
X1526Y-1092D02*
X1528Y-1094D01*
X1526Y-1092D02*
Y-913D01*
Y911D02*
Y1089D01*
X2067Y911D02*
Y1089D01*
Y-1092D02*
Y-913D01*
D34*
X778Y-652D02*
Y-384D01*
X371Y1323D02*
Y1654D01*
X128Y778D02*
X128Y1027D01*
X371Y1270D01*
Y1323D01*
X384Y1311D02*
X384Y778D01*
X371Y1323D02*
X384Y1311D01*
X371Y1654D02*
X440Y1723D01*
X-624Y624D02*
X-217Y217D01*
X0Y0D01*
X-624Y-624D02*
X-217Y-217D01*
X217D02*
X624Y-624D01*
X217Y217D02*
X624Y624D01*
D35*
X-1810Y128D02*
X-1612D01*
X-1388D02*
X-778Y128D01*
D36*
X440Y1723D02*
Y2000D01*
D37*
X1171Y891D02*
D03*
X1102Y-957D02*
D03*
X1528Y-1094D02*
D03*
Y1088D02*
D03*
X1798D02*
D03*
X2067D02*
D03*
Y-1094D02*
D03*
X1798D02*
D03*
X2150Y-0D02*
D03*
X1429D02*
D03*
X1791D02*
D03*
X-217Y217D02*
D03*
X217D02*
D03*
X-217Y-217D02*
D03*
X217D02*
D03*
X-990Y1200D02*
D03*
X-1720Y1340D02*
D03*
Y1910D02*
D03*
X-980Y-1120D02*
D03*
X380Y-1140D02*
D03*
X1190Y1340D02*
D03*
Y1910D02*
D03*
X2307D02*
D03*
Y1340D02*
D03*
X670D02*
D03*
X-1720Y590D02*
D03*
X-709Y709D02*
D03*
X-100Y1350D02*
D03*
X-450Y1700D02*
D03*
X709Y709D02*
D03*
Y-709D02*
D03*
X-709D02*
D03*
X-1720Y-1130D02*
D03*
Y-330D02*
D03*
M02*
