G04*
G04 #@! TF.GenerationSoftware,Altium Limited,Altium Designer,21.4.1 (30)*
G04*
G04 Layer_Color=65535*
%FSLAX24Y24*%
%MOIN*%
G70*
G04*
G04 #@! TF.SameCoordinates,40046467-4DDE-4A08-9B10-DB9AC6100FD7*
G04*
G04*
G04 #@! TF.FilePolarity,Positive*
G04*
G01*
G75*
%ADD10C,0.0098*%
%ADD11C,0.0049*%
%ADD12C,0.0079*%
%ADD13C,0.0060*%
%ADD14C,0.0050*%
D10*
X1152Y-787D02*
G03*
X1152Y-787I-49J0D01*
G01*
D11*
X2089Y-565D02*
Y-391D01*
X1704Y-565D02*
Y-391D01*
X1828D01*
X1965D02*
X2089D01*
X1704Y-565D02*
X1828D01*
X1965D02*
X2089D01*
X1612Y-732D02*
Y-608D01*
Y-994D02*
Y-870D01*
X1439Y-732D02*
Y-608D01*
Y-994D02*
Y-870D01*
Y-994D02*
X1612D01*
X1439Y-608D02*
X1612D01*
X2154Y-732D02*
Y-608D01*
Y-994D02*
Y-870D01*
X1981Y-732D02*
Y-608D01*
Y-994D02*
Y-870D01*
Y-994D02*
X2154D01*
X1981Y-608D02*
X2154D01*
X1487Y-565D02*
X1611D01*
X1225D02*
X1349D01*
X1487Y-391D02*
X1611D01*
X1225D02*
X1349D01*
X1225Y-565D02*
Y-391D01*
X1611Y-565D02*
Y-391D01*
X-1307Y41D02*
Y215D01*
X-1693Y41D02*
Y215D01*
X-1569D01*
X-1431D02*
X-1307D01*
X-1693Y41D02*
X-1569D01*
X-1431D02*
X-1307D01*
X1266Y531D02*
Y656D01*
Y270D02*
Y394D01*
X1092Y531D02*
Y656D01*
Y270D02*
Y394D01*
Y270D02*
X1266D01*
X1092Y656D02*
X1266D01*
X848Y952D02*
X1022D01*
X848Y1338D02*
X1022D01*
Y1214D02*
Y1338D01*
Y952D02*
Y1076D01*
X848Y1214D02*
Y1338D01*
Y952D02*
Y1076D01*
X443Y1263D02*
Y1437D01*
X57Y1263D02*
Y1437D01*
X181D01*
X319D02*
X443D01*
X57Y1263D02*
X181D01*
X319D02*
X443D01*
D12*
X846Y-846D02*
Y-591D01*
X591Y-846D02*
X846D01*
X-846D02*
X-591D01*
X-846D02*
Y-591D01*
Y591D02*
Y846D01*
X-591D01*
X846Y591D02*
Y846D01*
X591D02*
X846D01*
X135Y1605D02*
X214D01*
X135Y1841D02*
X214D01*
D13*
X273Y1526D02*
X637Y1526D01*
X-288Y1526D02*
X76D01*
X273Y1920D02*
X637D01*
X-288D02*
X76D01*
X-288Y1526D02*
Y1920D01*
X637Y1526D02*
Y1920D01*
D14*
X1713Y-104D02*
Y-323D01*
X1860D01*
X2080D02*
X1933D01*
X2080Y-177D01*
Y-140D01*
X2043Y-104D01*
X1970D01*
X1933Y-140D01*
X1727Y-857D02*
X1690Y-894D01*
Y-967D01*
X1727Y-1004D01*
X1873D01*
X1910Y-967D01*
Y-894D01*
X1873Y-857D01*
X1910Y-637D02*
Y-784D01*
X1763Y-637D01*
X1727D01*
X1690Y-674D01*
Y-747D01*
X1727Y-784D01*
X2258Y-857D02*
X2222Y-894D01*
Y-967D01*
X2258Y-1004D01*
X2405D01*
X2442Y-967D01*
Y-894D01*
X2405Y-857D01*
X2258Y-784D02*
X2222Y-747D01*
Y-674D01*
X2258Y-637D01*
X2295D01*
X2332Y-674D01*
Y-710D01*
Y-674D01*
X2368Y-637D01*
X2405D01*
X2442Y-674D01*
Y-747D01*
X2405Y-784D01*
X1274Y-104D02*
Y-323D01*
X1421D01*
X1494D02*
X1567D01*
X1531D01*
Y-104D01*
X1494Y-140D01*
X1576Y272D02*
X1356D01*
Y382D01*
X1393Y419D01*
X1466D01*
X1503Y382D01*
Y272D01*
Y345D02*
X1576Y419D01*
Y639D02*
Y492D01*
X1430Y639D01*
X1393D01*
X1356Y602D01*
Y529D01*
X1393Y492D01*
X1331Y998D02*
X1111D01*
Y1108D01*
X1147Y1145D01*
X1221D01*
X1257Y1108D01*
Y998D01*
Y1071D02*
X1331Y1145D01*
Y1218D02*
Y1291D01*
Y1255D01*
X1111D01*
X1147Y1218D01*
X-1493Y-87D02*
X-1530Y-50D01*
X-1603D01*
X-1640Y-87D01*
Y-233D01*
X-1603Y-270D01*
X-1530D01*
X-1493Y-233D01*
X-1420Y-270D02*
X-1347D01*
X-1383D01*
Y-50D01*
X-1420Y-87D01*
X-793Y1793D02*
X-830Y1830D01*
X-903D01*
X-940Y1793D01*
Y1646D01*
X-903Y1610D01*
X-830D01*
X-793Y1646D01*
X-720Y1830D02*
X-573D01*
Y1793D01*
X-720Y1646D01*
Y1610D01*
X-433Y1423D02*
X-470Y1460D01*
X-543D01*
X-580Y1423D01*
Y1276D01*
X-543Y1240D01*
X-470D01*
X-433Y1276D01*
X-213Y1460D02*
X-286Y1423D01*
X-360Y1350D01*
Y1276D01*
X-323Y1240D01*
X-250D01*
X-213Y1276D01*
Y1313D01*
X-250Y1350D01*
X-360D01*
X-140Y-1050D02*
Y-1233D01*
X-103Y-1270D01*
X-30D01*
X7Y-1233D01*
Y-1050D01*
X80Y-1270D02*
X153D01*
X117D01*
Y-1050D01*
X80Y-1087D01*
M02*
