M48
;Layer_Color=9474304
;FILE_FORMAT=2:4
INCH,TZ
;TYPE=PLATED
T1F00S00C0.0120
%
T01
X-1720Y-1130
X-980Y-1120
X-709Y-709
X-217Y-217
Y217
X217
Y-217
X709Y-709
X1102Y-957
X1528Y-1094
X1798
X2067
X2150Y-0
X1791
X1429
X1171Y891
X1190Y1340
X670
X709Y709
X1528Y1088
X1798
X2067
X2307Y1340
Y1910
X1190
X-100Y1350
X-450Y1700
X-990Y1200
X-709Y709
X-1720Y590
Y1340
Y1910
Y-330
X380Y-1140
M30
