M48
;Layer_Color=9474304
;FILE_FORMAT=2:4
INCH,TZ
;TYPE=PLATED
T02F00S00C0.0098
T04F00S00C0.0354
;TYPE=NON_PLATED
T05F00S00C0.0236
T06F00S00C0.0354
T07F00S00C0.0390
T08F00S00C0.1260
%
T02
X366Y364
X1813Y307
X1638Y940
X1343Y1530
X1934
X2002Y1969
X1638Y2121
X1048
X753Y2711
X1343
X1934
X2358Y2795
X2229Y3302
X2820
X3228Y3120
X4019Y2717
X3943Y4060
X3462Y4147
X3012Y4763
X2524Y5074
X2820Y5664
X3430Y5572
X4001Y5664
X4145Y4764
X2524Y3893
X1934
X1343
X753
X307Y4094
X295Y3012
X1048Y3302
X1638
Y4483
Y5149
X2101Y5551
Y6570
X2229Y6845
X1467Y7042
X443Y6981
X307Y7777
X1085Y8144
X1343Y8617
X753
X307Y8980
X1048Y9207
X2301Y8582
X2822Y8237
X3063Y8238
X3358
Y7972
X3668
Y8284
X3353Y8556
X3358Y8813
X3353Y9219
X3455Y7628
X3759Y7304
X3453Y6979
X4001Y8026
X2101Y7783
X1048Y5664
X317Y5887
X335Y5236
X773Y4763
X753Y1530
X317Y1909
X2313Y1152
X3110Y827
X3327Y307
X3955Y1152
X4293Y1978
X4717Y2131
X5104Y1672
X5604
X6102Y1671
X6601Y1663
X7114Y1672
X7597Y2046
X8117Y1620
X8546Y2354
X8970Y1958
X9584Y2156
X9843
X10105
X10370
X10653
X10930Y1810
X11662Y1624
X12003Y1292
X12607Y1349
X12390Y797
X12414Y307
X11486Y778
X10613Y817
X10900Y307
X9370Y305
X9613Y817
X8613
X7544Y940
X7871Y307
X6102
X4842
X4466Y3209
X4754Y3829
X4872Y4429
X5128
X5384
X5640
X5907
X5778Y4695
Y5084
X5945Y5329
X6814Y5125
X7074Y5130
X7077Y4872
X7604Y4735
X7614Y4475
X7984Y4465
Y4735
X7795Y4272
X8496
X8494Y4535
X9007Y4535
X9788Y4537
X9783Y4281
X10055Y4272
Y4535
X10194Y5225
X10679Y5177
Y5463
X10945
X11437Y5659
X11594Y5886
X11437Y6325
X10954
Y6570
X11152Y6801
X10978Y7004
X11244Y7145
X11931Y7127
X12341Y7397
X12607
X12982
X13249
X13478Y7013
X13760Y7573
Y8253
X13287Y8258
X13091Y8506
X13287Y8760
X13091Y9002
X12361Y9195
X11631Y9378
X11083Y9222
X11122Y8645
X10856Y8085
X10506Y8067
X10280Y8372
X10172Y8641
X9827Y8657
X9354Y8625
Y8235
X9561Y8402
X9557Y9252
X9163
X8901
X8645
X8389
X8386Y8996
X8073Y8870
X8086Y8546
X7648Y8386
X7589Y8012
X8364Y7895
X8580Y6954
Y6482
Y6010
Y5537
X8055
Y6010
Y6482
Y6954
X7293Y6791
X7313Y7146
X7057Y7431
X6555Y7433
X6852Y7029
X6816Y6358
X7077Y6358
X7074Y5662
X6799Y5663
X6378Y4006
X6112Y4016
Y3642
Y3386
X6520Y3378
X7108Y3171
X7793Y3052
X9105Y5537
Y6010
Y6482
Y6954
X9630
Y6482
Y6010
Y5537
X10544Y6165
X10354Y7152
X10593Y7520
X10883
X10044Y7995
X10280Y9155
X11693Y8369
X11973Y8617
X12361Y7997
X12614Y7778
X12982Y7774
X12795Y6073
X12982Y5724
X13249Y5722
X12607Y5724
X12341
X12028Y5463
X11772
X11834Y4169
X11526Y4163
X12152Y4169
X12431Y4179
X12795Y4400
X14045Y4360
X14547Y4511
X15221Y4483
X15812
X16402
X16993
X17470Y4484
X17288Y5074
X16697
X16745Y5594
X16697Y6255
X17288
X17879
X18469
X19060
X19650
X19355Y6845
X18764
X18174
X17583
X16993
X16402
X16697Y7436
X17288
X17879
X18469
X19060
X19650
X18574Y8002
X18269Y7999
X19060Y8617
X17325Y8615
X16834Y9155
X16230Y9237
X15640Y9203
X15453Y8980
X16348Y8724
X16122Y8275
X15827Y8002
X16093Y7559
X16845Y8002
X15739Y6018
X15812Y5664
X15285Y5599
X15516Y5074
X16107
X14882Y5059
X14941Y3234
X14179Y3261
X13541Y3238
X13195Y2953
X13661Y2421
X13642Y1761
X14631Y2121
X15157Y2341
X15812Y2121
X16175Y1969
X16107Y1530
X16486Y1152
X15812Y940
X15157Y1197
X14631Y940
X13929Y307
X15443
X16958
X17283Y827
X18128Y1152
X18764Y940
X19236Y1219
X19734
X19478Y1772
X19236Y2332
X19734
X19060Y2711
X19217Y3060
X18770Y3445
X18407Y3261
X18192Y2717
X18467Y1978
X18764Y2121
X18472Y307
X17402Y3120
X16594Y3258
X16531Y2795
X16107Y2711
X15774Y3261
X12739Y2367
X11923Y2354
X13691Y6003
X14466Y6659
X18017Y5590
X17913Y5143
X18329Y4769
X18593
X18949
X19205
X19490Y4502
X19665Y3848
X19666Y3445
X19753Y5091
X19165Y5483
X5804Y6791
X5528
X5477Y7436
X4833Y7351
X4296Y7436
X4591Y8026
X4799Y8287
X4802Y8833
X4711Y9234
X4519Y9089
X5607Y8944
X6112Y9122
X6132Y8514
X6454Y8775
X6784Y9065
X7244Y9065
X6441Y8067
X5972Y7674
X5627Y8273
X5182Y8026
X5138Y6407
X4478Y6592
X4559Y5577
X4872Y4695
X20010Y5089
X20831Y5074
X20584Y4759
X20827Y4199
X20668Y3563
X20167Y3326
X20172Y2805
X20955Y2510
X21127Y2121
X21417Y1437
X21486Y837
X21826Y1004
X22326Y1005
X22826
Y1701
X23829
X23826Y1005
X24530Y307
X25326Y1004
X25826
X26326
X27032Y940
X27623
X28213
X28804
X29394
X29985
X30575
X31166
X31757
X32347
X32102Y307
X32052Y1530
X31461
X30871
X30280
X29690
X29099
X28509
X27918
X27327
X26737
X27032Y2121
X27623
X28213
X28804
X29394
X29985
X30575
X31166
X31757
X32347
X32052Y2711
X31461
X30871
X30280
X30226Y3034
X29690Y2711
X29099
X28509
X27918
X28159Y3040
X27918Y3893
X28509
X29099
X28992Y3450
X29690Y3893
X30280
X30871
X31461
X32052
X32347Y4483
X31757
X31166
X30575
X30070Y4690
X30280Y5074
X30871
X31461
X32052
X32347Y5664
X32382Y6285
X32888Y6322
X33312Y6761
X34119Y6845
X34709
X35088Y6058
X35300Y5664
X34709
X34119
X33297Y5667
X33284Y4747
X33233Y3893
X33147Y3464
X32663Y3040
X32888Y2582
X34045Y2339
X34709Y2121
X34647Y2815
X34635Y3464
X34414Y3893
X35005
X34709Y4483
X34119
X33823Y3893
X34414Y5074
X35005
Y1530
X34414
X34709Y940
X34119
X33284Y1008
X33617Y307
X35131
X30588
X29073
X27559
X26044
X26125Y1807
X25061Y1900
X24831Y2882
X25326
X25827
X26333
X26713Y3040
X26737Y2711
X27327
X27254Y3447
X27327Y3893
X26737
X27032Y4483
X27623
X27844Y4690
X27918Y5074
X28509
X29099
X29690
X29839Y5667
X31155
X31721Y6767
X31535Y7126
X31240Y8750
X30956Y8750
X30696Y8744
X30868Y8406
X30280Y8617
X29934Y8203
X28824Y8209
X27822
X26846Y8219
X26326Y8543
X25801Y8219
X25326Y8543
X24809Y8219
X24329Y8543
X23790Y8219
X23326Y8543
X22815Y8219
X22756Y7431
X22751Y7045
X22559Y7234
X22303Y7614
X22012Y7436
X21422
X20831
X20553Y7603
X20799Y8221
X20831Y8617
X20335Y9213
X19922Y9083
X20019Y8002
X21807Y8216
X21717Y6845
X22308
X21960Y6464
X21422Y6255
X21717Y5664
X22308
X22735Y5522
X22603Y6255
X23194
X23489Y6845
X23543Y7431
X23829
X24061Y7048
X24329Y7042
X24549Y6855
X24823
X25061Y6663
X25323Y6657
X25561Y6473
X25825Y6467
X26075Y6285
X26333
X26098Y5709
X25095
X25584Y4897
X24579
X23893Y4651
X23784Y5074
X23750Y5699
X24065Y6285
X23326Y7614
X21127Y6845
Y5664
X20551Y6196
X21500Y4897
X21717Y4483
X22120Y4262
X22510
Y4533
X22766
Y3904
X23194Y3893
X23784
X23825Y3444
X24575Y3447
X25071Y3444
X25575Y3449
X26075Y3464
X26101Y4332
X25098
X23489Y4483
X23038Y3444
X22136Y3435
X21584Y3450
X21500Y3976
X21247Y3110
X21826Y2697
X22326Y2884
X21812Y1784
X20525Y1390
X20241Y1530
X20536Y940
X19987Y307
X21486
X23016
X24326Y2882
X22012Y5074
X26737
X27327
X27224Y5709
X28563
X28804Y4483
X29394
X28213
X31186Y3450
X31751Y9354
X30477Y9350
X29325Y9125
X28804Y9207
X25851
X32805Y9113
X33463Y9111
X33995
X37272Y9244
X39434Y9207
X40024
X40593Y9200
X41084Y9334
X41660Y8973
X42386Y9207
X42700Y8713
X43200Y9065
X42977Y8026
X42386
X42091Y7436
X42682
X43200Y7539
X42977Y6845
X42386
X41796
X42091Y6255
X42682
X43200Y5965
X42977Y5664
X42386
X41796
X40972Y5667
X40910Y6255
X41476
X41498Y5108
X40910Y5074
X41008Y4518
X40980Y3809
X41501Y3893
X42091
X42682
X42386Y4483
X42179Y4837
X41796Y4483
X41811Y3120
X42386Y3302
X42601Y2717
X43191Y3140
Y4547
X42682Y5074
X39982Y4748
X40024Y5664
X39451Y5829
X38843Y5664
X38253
X37662
X37071
X36416Y5606
X35890Y5664
X35942Y4747
X36186Y3893
X36776
X37367
X37957
X38548
X38445Y3450
X38627Y2805
X38843Y2121
X38548Y1530
X39138
X38843Y940
X38253
X38160Y307
X39675
X39982Y1008
X40896Y1152
X41693Y827
X41363Y307
X43013
X43191Y1361
X42538Y1152
X42876Y1978
X40584Y1969
X39968Y2130
X40356Y2582
X40941Y2795
X41205Y3302
X40561Y3307
X39659Y3450
X39729Y3893
X39138
X38843Y4483
X38253
X38548Y5074
X39138
X38843Y6845
X38253
X37957Y7436
X38548
X39138
X39729
X39400Y7795
X38843Y8026
X39138Y8617
X39729
X40157Y8543
X40024Y8026
X40548Y7726
X41083Y7441
X41466Y7436
X40123Y7042
X40789Y8514
X36931Y6322
X37324Y4748
X37169Y3450
X36624Y3003
X35942Y3464
X35595Y3893
X35925Y2126
X35942Y1008
X37324
X37274Y1794
X38079Y2339
X36646Y307
X36999Y9622
X37490Y9551
X37510Y11010
X38041Y10950
X38309Y11615
X37664Y11631
X36812Y11380
X36437Y11158
X36435Y11604
X35733Y11724
X35738Y11220
Y10827
Y10433
Y10039
X35822Y9384
X36443Y10132
X36439Y10630
X36417Y13012
X36029Y13017
X35640Y13012
X36972Y13014
X37217
X36972Y13387
X38112Y13280
X38585
Y13752
X38112
Y14224
Y14697
X38585
Y14224
X39057
Y14697
X39530
Y14224
Y13752
X39057
Y13280
X39530
X39941Y12884
Y12628
Y12372
X39682Y12207
X39422
X39419Y11191
X40136Y11158
X40433Y11387
X40858Y11580
X41195Y11819
X41202Y12476
X40837Y12333
X40570Y12372
X40571Y12628
X40570Y12886
X41080Y13002
X40990Y13427
X40727
X40737Y13834
X41003Y13840
X41199Y13676
X41386Y13840
X41437Y13422
X41774Y13656
Y13157
X42144Y13381
X42522Y13157
X42896Y13381
X43224Y13280
X43224Y13527
X43002Y12697
X42236Y12696
X41585Y12707
Y12175
X42091Y12160
X42682
X42385Y11861
X42630Y11339
X42977Y11570
X43196Y11941
X43193Y10553
X42756Y10833
X42091Y10979
X41594Y11319
X41796Y11570
X41199Y10807
X40910Y10979
X40584Y10236
X40024Y10389
X39311Y10235
X39729Y9798
X40910
X41585Y10236
X42386Y10389
X42462Y9774
X43002Y9856
X42896Y14746
X43221Y14717
X42977Y15113
X42522Y15054
X42148Y14746
X41664Y14773
X41811Y14470
X41457Y14380
X40972
X40732Y14467
X40876Y14656
X40582Y14687
X41219Y14656
X41630Y15236
X41841Y15720
X42522Y15907
X42386Y16294
X41664Y16424
X41168Y16137
X40580
X40167Y15925
X40109Y16555
X40108Y16831
Y17096
Y17372
Y17638
X39729Y18066
X39434Y18656
X39138Y19247
X39729
X40024Y19837
X39434
X38843
X38253
X37662
X37071
X36481
X35890
X35595Y20428
X36186
X36776
X37367
X37957
X38548
X39138
X39729
X40024Y21018
X39434
X38843
X38253
X37662
X37071
X36481
X35890
X35595Y21609
X36186
X36776
X37367
X38069Y21673
X38065Y22353
X38323
X38313Y22944
X38573Y22933
X39141Y22944
X39545Y23412
Y23695
X39779Y24026
X40001Y23807
X40320Y23971
X40910
X41676Y23976
X42091Y23971
X42766Y24099
X43001Y24696
X43178Y23661
X42977Y23381
X43186Y23028
Y22382
Y21516
X42682Y21609
X42091
X42386Y22200
X42091Y22790
X42682
X42386Y23381
X41243Y22972
X40477
X40477Y22322
X40934
Y21673
X40025
X39729Y21609
X39549Y22219
X37662Y22200
X37071
X36481
X35890
X35829Y22586
X35890Y23381
X36481
X37071
X37662
X37742Y24054
X38444Y24656
X39114Y24016
X39958Y24656
X41473
X41205Y21018
X41796
X42386
X42977
X43194Y20748
X42682Y20428
X42091
X41501
X41796Y19837
X42386
X43194Y19823
X43196Y18752
X43204Y17984
X42682Y18066
X42091
X41336Y18002
X41333Y17638
X41796Y17475
X42386
X42977
X43204Y17118
X42810Y16739
X43212Y16350
Y15484
X42091Y16885
X41432Y17094
X40910Y16885
X40571Y16831
X39094Y16833
X39092Y16577
X38681Y16555
X38323Y16645
X37894Y16636
X38082Y16377
X37404Y16367
X37189Y16637
X37133Y16089
X36968Y15332
X37408Y15428
X37418Y15068
X37734Y15071
X37762Y15357
X38352Y15757
X38612
X38852Y15917
X39092Y15797
X40012Y15317
Y15057
X39518Y17372
X40636Y18593
X41796Y18656
X42386
X42091Y19247
X42682
X41501
X41205Y19837
X38548Y19247
X37957
X37367
X36776
X36186
X35595
X35890Y18656
X35595Y18066
X36585Y16644
X36637Y15616
X36309Y14596
X36013Y14470
Y14106
X36212Y24054
X36929Y24656
X35415
X34577Y24099
X34119Y23381
X34414Y22790
X34303Y22281
X33723Y21567
X33233Y21609
X32741Y21535
X32938Y22200
X32347
X31757
X31166
X30575
X29985
X29394
X28804
X28213
X27623
X27032
X27001Y21713
X27985
X29016
X29734Y21543
X30305
X31000
X31763
X32052Y20428
X31461
X31757Y19837
X32347
X32579Y19478
X32052Y19247
X31889Y18967
X31757Y18656
X32347
X32037Y17949
X31461Y18066
X30808Y17938
X30575Y18656
X31166
X30871Y19247
X31461
X31166Y19837
X30575
X30719Y20193
X30280Y20428
X29985Y19837
X29331Y19744
X29332Y19380
X28831Y19488
X28804Y19837
X28213
X27623
X27825Y19478
X27820Y20453
X26801
X27032Y19837
X26806Y19478
X26442Y19837
X25851
X25832Y19478
X25260Y19837
X24670
X24858Y19488
X24852Y20463
X25827Y20453
X26004Y21713
X25851Y22200
X26442
X26146Y22790
X26737
X27327
X27918
X28509
X29099
X29690
X30280
X30871
X31461
X32052
X32642
X32938Y23381
X32347
X31757
X31166
X30575
X29985
X29394
X28804
X28213
X27623
X27032
X26442
X25851
X25260
X24670
X24079
X23489
X22898
X22308
X21717
X21127
X20536
X20241Y22790
X20831
X21422
X22012
X22603
X23194
X23784
X24375
X24965
X25556
X25260Y22200
X24670
X24079
X23996Y21722
X24980
X23012
X22898Y22200
X23489
X22308
X21717
X21127
X20536
X19946
X20326Y21724
X20945Y21722
X22008Y21725
X21818Y20482
X21325Y19970
Y19282
X21703Y19094
X21909Y18907
X22333
X22687Y18720
X22913Y18533
X23327
X23326Y18100
X23489Y17475
X22898
X22584Y17469
X22829Y16713
X23194Y16885
X23829Y16713
X24375Y16885
X24837Y16734
X24670Y17475
X24134Y17460
X25260Y17475
X25801Y17460
X25815Y18100
X24872
X26801Y18110
X27842
X28804Y17966
X29045Y17736
X29332Y16376
Y16130
X29766Y16449
X30389Y16075
X30282Y15261
X29985Y15113
X29394
X29321Y14459
Y14202
X28804Y13932
X28821Y13436
X29786Y13418
X29985Y13932
X30280Y14522
X30787Y14587
X31155
Y14232
X31350Y14406
X31731Y14781
X31538Y14976
X33671Y14980
X34065Y14976
X33878Y14783
X33482Y15236
X33233Y15704
X33437Y16085
X32923Y16089
X32916Y16409
X33156
X32110Y16634
X34065Y16043
Y17953
X34547Y17943
X35005Y18066
X35300Y18656
X34709
X35005Y19247
X35300Y19837
X35005Y20428
X34490Y20297
X34547Y20030
X34065
X34118Y20297
X33351Y20030
X33260Y20824
X32429Y20671
X33356Y18907
Y17938
X30280Y19247
X29834Y18877
X29331Y20541
X29335Y20805
X28831Y20463
X28509Y24054
X27842Y24656
X27001Y24075
X26328Y24656
X25640Y24093
X24813Y24656
X24163Y24053
X23299Y24656
X22500Y24060
X21784Y24656
X21115Y24079
X20270Y24656
X19931Y20463
X20728
X20709Y19413
X20326Y19450
Y19178
X19963Y19356
Y18189
X20846Y18067
X21240Y17598
X21422Y16885
X21807Y16694
X21339Y16043
X21818Y15549
X21717Y15113
X22334Y15003
X22421Y15541
X22871Y15542
X22898Y15113
X23337Y15000
X23425Y15532
X23856Y15532
X24429Y15532
X24911Y15531
X25738Y15636
X26752Y15638
X27333Y15650
X27334Y15011
X27623Y15113
X28804Y15294
X27756Y16778
X27149Y17136
X26325Y15006
X25335
X24321Y15000
X24325Y13533
X23839
X23334
X22852
X22839Y13043
X22571Y13041
X21792Y13164
X20796Y13149
X19979Y13077
X19963Y14037
X20335Y14213
Y14459
X20831Y14522
X20699Y14213
X21319Y14459
X21125Y15261
X20326Y15585
X20335Y15876
X19946Y16000
X19979Y16902
X20846Y16914
X20739Y18907
X21909Y19478
X22913Y19488
X23814Y19488
X24079Y19837
X23489
X23809Y20463
X22839
X22490Y19972
X21909Y18100
X20041Y15097
X19979Y11785
X19948Y11004
X20334Y10791
Y10545
X20335Y9973
Y9459
X21043Y10275
X21946Y10332
X22334Y10120
X22421Y10541
X22800Y10323
X22810Y9557
X22334Y9459
X21848Y9551
X21709Y9959
X23425Y10541
X23820Y10320
Y9545
X24831Y9532
X24811Y10317
X24419Y10541
X25423Y10545
X25820Y10314
X25827Y9553
X26826Y9536
X26812Y10323
X27813
X27864Y9529
X28791
X29325Y9381
X29741Y9514
X29705Y10572
X29325Y11119
X29325Y11380
X29766Y11450
X30285
X30343Y11898
X30538Y12096
X32052Y12160
X32642
X32938Y12751
X32347
X32136Y12994
X32347Y11570
X31757
X32052Y10979
X31484Y10807
X31752Y10073
X32052Y9798
X32600Y9561
X33031Y9380
X33256Y9795
X33482Y9994
X32844Y9990
Y10404
X32688Y11236
X33337Y11024
X34256Y11126
X34257Y10633
Y10128
X34951Y10039
Y10433
Y10827
Y11220
X35344Y11220
Y10827
Y10433
Y10039
X34647Y9612
X34831Y9384
X34951Y11724
X34539Y12558
X34065Y13002
X31108Y9816
X30482Y9941
X28819Y10323
X28899Y11850
X27820Y11840
X26842Y11870
X25815
X25325Y12096
X25061Y12065
X24872Y12283
X24326Y12472
X24085Y12086
X23839Y12663
X23329Y12852
X22702Y12077
X21290Y12066
X20792Y11821
X24834Y13533
X25332
X25849Y13546
X25851Y13932
X26821Y13428
X27820
X29357Y24656
X30070Y24059
X30871Y24656
X31683Y24075
X32386Y24656
X33071Y24059
X33900Y24656
X34883Y21567
X35300Y21018
X19587Y21635
X19355Y22200
X18177Y22258
X17825Y21722
X18433Y21624
X16825Y21726
X16488Y22211
X16028Y21644
X15465Y22165
X15516Y22790
X15812Y23381
X16172Y23051
X16107Y23971
X16634Y23976
X15516Y23971
X15994Y24656
X14932Y24665
X13799Y24656
X12697Y24656
X12170Y24437
X12172Y24200
X11649Y23835
X11678Y23381
X11652Y22845
X11170Y23029
Y23284
X10663Y22992
X10170Y23031
Y23284
X9724Y23031
X9637Y22401
X9952Y21871
X9952Y21524
X9705Y21524
X9897Y21107
X9252Y21093
X9180Y21767
X8831Y22043
X8667Y21305
X8635Y20513
X8031Y20650
X8150Y19813
X8356Y19596
X8652
X9065Y19274
X9291Y19478
X9483Y19001
X9790Y19282
Y18601
X9790Y17951
X9505Y17951
X9367Y17124
X8760Y16791
Y16496
X8317
Y16791
X7775Y16741
X7544Y16294
X6975Y16380
X6927Y16949
X6732Y17156
X6679Y16760
X6658Y15704
X6068
X6363Y15113
X5772
X5477Y14522
X6068
X6658
X6975Y14812
X7544Y15113
X8134
X8725
X9316
X9637Y14935
X9611Y14522
X9020
X8430
X7839
X7414Y14094
X8134Y13932
X8725
X9316
X9020Y13341
X9611
X9316Y12751
X8725
X8134
X7839Y13341
X8430
Y12160
X9020
X9611
X9316Y11570
X8725
X8134
X7839Y10979
X7429Y10804
X7544Y10389
X8134
X9316
X9698Y10162
X9163Y9508
X8901
X7635Y9618
X6949Y10075
X6350Y10072
X5876Y9695
X5364Y9961
X4827Y9995
X4861Y10295
X4547Y10246
X5196Y10610
X5477Y10979
X4886
X5182Y11570
X5772
X6363
X6954Y11683
X6658Y12160
X6068
X5477
X5772Y12751
X6363
X6068Y13341
X6658
X6954Y13376
X6363Y13932
X5772
X5182
X5477Y13341
X5182Y12751
X4198Y11654
X5772Y10389
X7429Y12520
X7414Y15660
X7839Y15704
X8430
X8934Y15709
X9371Y16113
X9902Y15738
X9764Y15325
X9961Y15138
X10724Y14934
X11383Y14522
X11973
X12268Y13932
X12859
X13449
X14040
X13745Y14522
X13154
X13449Y15113
X14040
X13745Y15704
X13154
X13449Y16294
X14040
X13745Y16885
X13154
X12855Y17282
X13449Y17475
X14040
X14606Y17331
X15011Y17349
X15516Y18066
X15484Y18563
X15002Y18590
X14040Y18656
X13449
X13154Y19247
X13745
X13770Y19823
Y20482
X14586Y20473
X14620Y19798
X15207Y19704
X15516Y19247
X16107
X16204Y19527
X16348Y18720
X16831Y18799
Y18550
X17286Y18990
X17325Y19684
X17825Y20260
X16825
X15423Y20482
X15002Y21206
X14577Y21644
X13760Y21635
X12923Y21624
X12470Y21633
Y21211
X12657Y20797
X12933Y20482
X12923Y19820
X11900Y19665
Y19027
X11683Y18799
Y18287
X11866Y18061
X11878Y17286
X11063Y17047
Y16460
X11033Y15738
X11713Y16270
X12301Y15653
X11678Y13932
X11087
X11383Y13341
X11973
X12564
X13154
X13745
X12859Y12751
X12268
X11678
X11087
X11383Y12160
X11973
X12564
X12859Y11570
X12268
X11678
X11973Y10979
X12564
X12268Y10389
X11678
X11422Y9935
X11083
X10788
X10787Y10509
X11088Y10520
X12010Y9861
X13091Y10092
X13159Y10577
X15877Y10851
X16834Y10875
Y10586
X17288Y10979
X17313Y11329
X17834Y10875
X17828Y10585
X17441Y9980
X16834Y9427
X15837Y9449
X16043Y9980
X16233Y11785
X15892Y13132
X16358Y13720
X16330Y14416
X16834Y14397
Y14125
X17313Y13968
X17288Y14522
X16804Y14950
X16834Y15586
Y15875
X17288Y15704
X17828Y15585
X17834Y15875
Y15011
X18174Y15113
X19007Y14951
X19060Y14522
X19650
X19355Y15113
X19060Y15704
X19650
X19355Y16294
X19236Y17032
X19650Y16885
Y18066
X19236Y18189
X19355Y18656
X18841Y18526
X18575Y18526
X18834Y18807
X18827Y19200
Y19528
X18764Y19837
X19355
X19047Y20413
X19650Y19247
X18283Y18807
X18150Y18189
X17325Y18120
X16319
X16230Y16614
X16122Y15709
X15837Y14951
X17325Y16611
X18317Y16875
X18567Y13533
X18846
X19236Y13149
X19650Y13341
X19355Y13932
X18346Y13012
Y11782
X19236Y12032
X19355Y11570
X19650Y10979
X18876Y11013
X18834Y9977
X19355Y10389
X19650Y9798
X17216Y13143
X10718Y13347
X10733Y12160
X11063Y17688
X10630Y18602
X10368Y19000
X11024Y19807
X11017Y20482
X10292Y20491
X9574Y20532
X10969Y21220
X10843Y22009
X11850Y21626
X12254Y21940
X12439Y22451
X12172Y23037
X12170Y23284
X13465Y23381
X13745Y22790
X14335
X14380Y23310
X14226Y22155
X13308Y22156
X13154Y22790
X13012Y23864
X11652Y24656
X10699
X10658Y23864
X9463Y23878
X9020Y23971
X8430
X8081Y23878
X7249Y23971
X6658
X6068
X5830Y23780
X6104Y23041
X5766Y22215
X4921Y21890
X5039Y24183
X5392Y24656
X4306Y24657
X6489
X7575Y24656
X8673Y24657
X9759Y24656
X8430Y22790
X8062Y22441
X8011Y21846
X7250Y22107
X7169Y23178
X7177Y20974
X7169Y20491
X7441Y19813
X7756Y19665
X7943Y19478
X7566Y19470
X7576Y18522
Y18050
Y17577
X8048
X8520
Y18050
Y18522
X8048
Y18050
X6714Y18558
X6715Y18798
Y19037
X6714Y19311
X6860Y19816
X6211Y19037
Y18798
X6204Y18558
X5561Y18671
Y18933
X5354Y18290
X4953Y18089
X5525Y17836
X5358Y17617
Y17361
X4826Y17362
X5030Y16978
X4854Y16499
X5781Y16412
X13154Y18066
X13745
X14335
X14242Y19370
X11878Y20473
X18435Y23334
X18764Y23381
X19492Y23334
X19650Y23971
X19060
X18469
X17736Y24104
X17241Y24656
X18755
X4169Y23858
X3705Y23971
X3813Y23031
X3025Y23041
X2469Y22338
X2185Y21426
X2392Y20463
X1934Y20428
X1343
X1248Y19961
X1638Y19837
X2229Y19961
X2524Y19247
X1934
X1343
X753
X1048Y18656
X1737Y18847
X2229Y18656
X1934Y18066
X2524
X2820Y17475
X2229
X1638
X1048
X753Y18066
X307Y17971
X1343Y18066
Y16885
X1934
X2524
X3115
X2820Y16294
X2229
X1638
X1048
X753Y16885
Y15704
X1343
X1934
X1638Y15113
X1048
X753Y14522
X1343
X1048Y13932
X307Y13932
X753Y13341
X1343
X1048Y12751
X753Y12160
X1343
X307Y11963
Y10553
X1048Y10389
X991Y10825
X753Y9798
X1343
X2165Y9518
X2282Y10432
X2823Y10758
X3063Y10758
X3358
X3261Y11049
X3632Y10955
X3868Y11112
X4171Y11202
X3827Y11585
X3430Y11486
X3115Y12160
X2724Y11963
X2820Y12751
X2229
X2524Y13341
X3115
X3705
X4001Y13932
X3410
X2820
X2229
X2524Y14522
X3115
X3705
X3410Y15113
X2820
X3705Y15704
X4173Y18106
X4001Y18656
X3829Y19251
Y20182
X3386Y20460
X3839Y21421
X4124Y22215
X1780Y23348
X305Y23501
X307Y24656
X1464Y24665
X2953
X305Y21776
X817Y20915
X753Y20428
X305Y19961
X307Y15888
X2229Y11570
X2126Y11204
X3357Y9993
X3878Y9823
Y9567
T04
X41671Y8442
Y9442
X38711Y18356
X37711
X36711
T05
X2526Y8364
Y10639
T06
X1780Y21491
Y24169
T07
X8113Y1067
X11113Y1467
Y667
T08
X3151Y1969
X17325
X41734Y1969
X44529Y23031
X17325Y23031
X4962
M30
