M48
;Layer_Color=9474304
;FILE_FORMAT=2:4
INCH,TZ
;TYPE=PLATED
T01F00S00C0.0039
;TYPE=NON_PLATED
%
T01
X3455Y7304
X3056Y9207
X6231Y7314
X6142Y6451
X6357Y6451
X6356Y6226
X6356Y6044
X6115Y6038
X5597Y5869
X5097Y5568
X6701Y5449
X7662Y5458
Y5773
X7504Y5852
X7662Y6094
X8764Y5143
X8921
X9079
X9149Y4350
X8725Y4193
X8874Y4035
X10246Y4695
X10384Y4567
X11693Y4823
X11974Y4662
X12199
X11974Y6339
X9394Y7348
X9236
X9079Y7348
X8921Y7348
X8764
X8606Y7348
X9163Y9016
X9508Y8848
X9707Y9009
X10933Y9006
X6378Y4236
X19587Y4262
X19397Y4952
X19165Y5246
X20325Y4697
X20769Y3790
X21230Y3789
X23826Y2913
X36821Y10039
X37402
X37427Y10512
X38003Y10508
X37245Y11099
X36944Y10797
X33818Y10748
X33820Y10404
X33259Y10675
X32796
X32924Y11236
X33200Y11650
X33418Y11650
X33720
X33722Y11473
X34108Y11615
X34229Y9622
X33647
X19636Y12660
X19459Y12657
X18879Y12712
X18925Y12416
X18834Y12258
X18268Y12234
Y12411
X18085Y12416
X17736Y12352
X17904Y12165
X18435Y11988
X18882Y13166
X18879Y17278
X18876Y17469
X18879Y17727
X18889Y18167
X18397Y17940
X18296Y17416
X18130Y17062
X17982Y16876
X19469Y17567
X19661
X10083Y17754
X9281Y18345
X7130Y17157
X4559Y10019
Y9383
X9959Y9803
X4173Y10955
X3868Y10722
X3632Y10722
X2874Y9797
X3056Y9601
X2874Y9403
M30
