G04*
G04 #@! TF.GenerationSoftware,Altium Limited,Altium Designer,25.4.2 (15)*
G04*
G04 Layer_Physical_Order=2*
G04 Layer_Color=36540*
%FSLAX24Y24*%
%MOIN*%
G70*
G04*
G04 #@! TF.SameCoordinates,58243F55-B80C-4B6F-AF4D-97493F1C6FF7*
G04*
G04*
G04 #@! TF.FilePolarity,Positive*
G04*
G01*
G75*
%ADD12C,0.0079*%
%ADD15C,0.0050*%
%ADD18C,0.0049*%
%ADD124C,0.0118*%
%ADD179C,0.0591*%
%ADD180R,0.0591X0.0591*%
%ADD185C,0.0197*%
G36*
X43254Y24796D02*
X43323Y24726D01*
X43322Y14714D01*
X43322Y14616D01*
X43224Y14616D01*
X42097D01*
X41851Y14370D01*
X40463D01*
Y13907D01*
X40827D01*
Y13760D01*
X40834D01*
Y13712D01*
X41034Y13512D01*
X41364D01*
X41554Y13702D01*
Y13760D01*
X41851D01*
X42097Y13514D01*
X43224D01*
X43322Y13415D01*
X43321Y204D01*
X381D01*
X343Y211D01*
X307Y226D01*
X275Y248D01*
X248Y275D01*
X226Y307D01*
X211Y343D01*
X204Y381D01*
Y400D01*
Y24600D01*
Y24619D01*
X211Y24657D01*
X226Y24693D01*
X248Y24725D01*
X275Y24752D01*
X307Y24774D01*
X343Y24789D01*
X381Y24796D01*
X400D01*
X43254Y24796D01*
D02*
G37*
%LPC*%
G36*
X1811Y24405D02*
X1749D01*
X1689Y24389D01*
X1635Y24358D01*
X1591Y24314D01*
X1560Y24260D01*
X1544Y24200D01*
Y24137D01*
X1560Y24077D01*
X1591Y24024D01*
X1635Y23980D01*
X1689Y23948D01*
X1749Y23932D01*
X1811D01*
X1871Y23948D01*
X1925Y23980D01*
X1969Y24024D01*
X2000Y24077D01*
X2016Y24137D01*
Y24200D01*
X2000Y24260D01*
X1969Y24314D01*
X1925Y24358D01*
X1871Y24389D01*
X1811Y24405D01*
D02*
G37*
G36*
X39577Y23852D02*
X39514D01*
X39456Y23828D01*
X39412Y23784D01*
X39388Y23726D01*
Y23664D01*
X39412Y23606D01*
X39456Y23561D01*
X39514Y23537D01*
X39577D01*
X39635Y23561D01*
X39679Y23606D01*
X39703Y23664D01*
Y23726D01*
X39679Y23784D01*
X39635Y23828D01*
X39577Y23852D01*
D02*
G37*
G36*
X10201Y23441D02*
X10139D01*
X10081Y23417D01*
X10036Y23373D01*
X10013Y23315D01*
Y23252D01*
X10036Y23195D01*
X10073Y23158D01*
X10036Y23121D01*
X10013Y23063D01*
Y23000D01*
X10036Y22942D01*
X10081Y22898D01*
X10139Y22874D01*
X10201D01*
X10259Y22898D01*
X10304Y22942D01*
X10327Y23000D01*
Y23063D01*
X10304Y23121D01*
X10267Y23158D01*
X10304Y23195D01*
X10327Y23252D01*
Y23315D01*
X10304Y23373D01*
X10259Y23417D01*
X10201Y23441D01*
D02*
G37*
G36*
X11201D02*
X11139D01*
X11081Y23417D01*
X11036Y23373D01*
X11013Y23315D01*
Y23252D01*
X11036Y23195D01*
X11075Y23156D01*
X11036Y23118D01*
X11013Y23060D01*
Y22998D01*
X11036Y22940D01*
X11081Y22895D01*
X11139Y22871D01*
X11201D01*
X11259Y22895D01*
X11304Y22940D01*
X11327Y22998D01*
Y23060D01*
X11304Y23118D01*
X11265Y23156D01*
X11304Y23195D01*
X11327Y23252D01*
Y23315D01*
X11304Y23373D01*
X11259Y23417D01*
X11201Y23441D01*
D02*
G37*
G36*
X38345Y23101D02*
X38282D01*
X38224Y23077D01*
X38180Y23033D01*
X38156Y22975D01*
Y22912D01*
X38180Y22854D01*
X38224Y22810D01*
X38282Y22786D01*
X38345D01*
X38403Y22810D01*
X38447Y22854D01*
X38471Y22912D01*
Y22975D01*
X38447Y23033D01*
X38403Y23077D01*
X38345Y23101D01*
D02*
G37*
G36*
X38355Y22510D02*
X38292D01*
X38234Y22487D01*
X38190Y22442D01*
X38166Y22384D01*
Y22322D01*
X38190Y22264D01*
X38234Y22219D01*
X38292Y22196D01*
X38355D01*
X38412Y22219D01*
X38457Y22264D01*
X38481Y22322D01*
Y22384D01*
X38457Y22442D01*
X38412Y22487D01*
X38355Y22510D01*
D02*
G37*
G36*
X17325Y24069D02*
X17162Y24056D01*
X17004Y24018D01*
X16854Y23956D01*
X16715Y23871D01*
X16591Y23765D01*
X16485Y23641D01*
X16400Y23502D01*
X16338Y23352D01*
X16300Y23194D01*
X16287Y23031D01*
X16300Y22869D01*
X16338Y22711D01*
X16400Y22561D01*
X16485Y22422D01*
X16591Y22298D01*
X16715Y22192D01*
X16854Y22107D01*
X17004Y22045D01*
X17162Y22007D01*
X17325Y21994D01*
X17487Y22007D01*
X17645Y22045D01*
X17795Y22107D01*
X17934Y22192D01*
X18058Y22298D01*
X18164Y22422D01*
X18249Y22561D01*
X18311Y22711D01*
X18349Y22869D01*
X18362Y23031D01*
X18349Y23194D01*
X18311Y23352D01*
X18249Y23502D01*
X18164Y23641D01*
X18058Y23765D01*
X17934Y23871D01*
X17795Y23956D01*
X17645Y24018D01*
X17487Y24056D01*
X17325Y24069D01*
D02*
G37*
G36*
X4962D02*
X4800Y24056D01*
X4642Y24018D01*
X4491Y23956D01*
X4353Y23871D01*
X4229Y23765D01*
X4123Y23641D01*
X4038Y23502D01*
X3976Y23352D01*
X3938Y23194D01*
X3925Y23031D01*
X3938Y22869D01*
X3976Y22711D01*
X4038Y22561D01*
X4123Y22422D01*
X4229Y22298D01*
X4353Y22192D01*
X4491Y22107D01*
X4642Y22045D01*
X4800Y22007D01*
X4962Y21994D01*
X5125Y22007D01*
X5283Y22045D01*
X5433Y22107D01*
X5572Y22192D01*
X5696Y22298D01*
X5801Y22422D01*
X5886Y22561D01*
X5949Y22711D01*
X5987Y22869D01*
X5999Y23031D01*
X5987Y23194D01*
X5949Y23352D01*
X5886Y23502D01*
X5801Y23641D01*
X5696Y23765D01*
X5572Y23871D01*
X5433Y23956D01*
X5283Y24018D01*
X5125Y24056D01*
X4962Y24069D01*
D02*
G37*
G36*
X12285Y22097D02*
X12223D01*
X12165Y22073D01*
X12120Y22029D01*
X12096Y21971D01*
Y21908D01*
X12120Y21850D01*
X12165Y21806D01*
X12223Y21782D01*
X12285D01*
X12343Y21806D01*
X12387Y21850D01*
X12411Y21908D01*
Y21971D01*
X12387Y22029D01*
X12343Y22073D01*
X12285Y22097D01*
D02*
G37*
G36*
X9983Y21682D02*
X9921D01*
X9863Y21658D01*
X9828Y21623D01*
X9794Y21657D01*
X9736Y21681D01*
X9673D01*
X9615Y21657D01*
X9571Y21613D01*
X9547Y21555D01*
Y21492D01*
X9571Y21434D01*
X9615Y21390D01*
X9673Y21366D01*
X9736D01*
X9794Y21390D01*
X9829Y21425D01*
X9863Y21391D01*
X9921Y21367D01*
X9983D01*
X10041Y21391D01*
X10086Y21435D01*
X10110Y21493D01*
Y21556D01*
X10086Y21614D01*
X10041Y21658D01*
X9983Y21682D01*
D02*
G37*
G36*
X1811Y21728D02*
X1749D01*
X1689Y21712D01*
X1635Y21680D01*
X1591Y21636D01*
X1560Y21583D01*
X1544Y21523D01*
Y21460D01*
X1560Y21400D01*
X1591Y21346D01*
X1635Y21302D01*
X1689Y21271D01*
X1749Y21255D01*
X1811D01*
X1871Y21271D01*
X1925Y21302D01*
X1969Y21346D01*
X2000Y21400D01*
X2016Y21460D01*
Y21523D01*
X2000Y21583D01*
X1969Y21636D01*
X1925Y21680D01*
X1871Y21712D01*
X1811Y21728D01*
D02*
G37*
G36*
X11001Y21378D02*
X10938D01*
X10880Y21354D01*
X10836Y21310D01*
X10812Y21252D01*
Y21189D01*
X10836Y21131D01*
X10880Y21087D01*
X10938Y21063D01*
X11001D01*
X11058Y21087D01*
X11103Y21131D01*
X11127Y21189D01*
Y21252D01*
X11103Y21310D01*
X11058Y21354D01*
X11001Y21378D01*
D02*
G37*
G36*
X12502Y21368D02*
X12439D01*
X12381Y21344D01*
X12337Y21300D01*
X12313Y21242D01*
Y21179D01*
X12337Y21121D01*
X12381Y21077D01*
X12439Y21053D01*
X12502D01*
X12560Y21077D01*
X12604Y21121D01*
X12628Y21179D01*
Y21242D01*
X12604Y21300D01*
X12560Y21344D01*
X12502Y21368D01*
D02*
G37*
G36*
X15033Y21363D02*
X14970D01*
X14912Y21339D01*
X14868Y21295D01*
X14844Y21237D01*
Y21175D01*
X14868Y21117D01*
X14912Y21072D01*
X14970Y21049D01*
X15033D01*
X15091Y21072D01*
X15135Y21117D01*
X15159Y21175D01*
Y21237D01*
X15135Y21295D01*
X15091Y21339D01*
X15033Y21363D01*
D02*
G37*
G36*
X12689Y20955D02*
X12626D01*
X12568Y20931D01*
X12524Y20886D01*
X12500Y20829D01*
Y20766D01*
X12524Y20708D01*
X12568Y20664D01*
X12626Y20640D01*
X12689D01*
X12747Y20664D01*
X12791Y20708D01*
X12815Y20766D01*
Y20829D01*
X12791Y20886D01*
X12747Y20931D01*
X12689Y20955D01*
D02*
G37*
G36*
X34521Y20454D02*
X34458D01*
X34400Y20430D01*
X34356Y20386D01*
X34252D01*
X34208Y20430D01*
X34150Y20454D01*
X34087D01*
X34029Y20430D01*
X33985Y20386D01*
X33961Y20328D01*
Y20266D01*
X33985Y20208D01*
X34029Y20163D01*
X34087Y20139D01*
X34150D01*
X34208Y20163D01*
X34252Y20208D01*
X34356D01*
X34400Y20163D01*
X34458Y20139D01*
X34521D01*
X34579Y20163D01*
X34623Y20208D01*
X34647Y20266D01*
Y20328D01*
X34623Y20386D01*
X34579Y20430D01*
X34521Y20454D01*
D02*
G37*
G36*
X29366Y20963D02*
X29303D01*
X29245Y20939D01*
X29201Y20894D01*
X29177Y20837D01*
Y20774D01*
X29201Y20716D01*
X29242Y20676D01*
X29241Y20675D01*
X29197Y20631D01*
X29173Y20573D01*
Y20510D01*
X29197Y20452D01*
X29241Y20408D01*
X29299Y20384D01*
X29362D01*
X29420Y20408D01*
X29464Y20452D01*
X29488Y20510D01*
Y20573D01*
X29464Y20631D01*
X29424Y20671D01*
X29424Y20672D01*
X29468Y20716D01*
X29492Y20774D01*
Y20837D01*
X29468Y20894D01*
X29424Y20939D01*
X29366Y20963D01*
D02*
G37*
G36*
X2423Y20620D02*
X2360D01*
X2303Y20596D01*
X2258Y20552D01*
X2234Y20494D01*
Y20431D01*
X2258Y20373D01*
X2303Y20329D01*
X2360Y20305D01*
X2423D01*
X2481Y20329D01*
X2525Y20373D01*
X2549Y20431D01*
Y20494D01*
X2525Y20552D01*
X2481Y20596D01*
X2423Y20620D01*
D02*
G37*
G36*
X3417Y20618D02*
X3354D01*
X3297Y20594D01*
X3252Y20549D01*
X3228Y20491D01*
Y20429D01*
X3252Y20371D01*
X3297Y20327D01*
X3354Y20303D01*
X3417D01*
X3475Y20327D01*
X3519Y20371D01*
X3543Y20429D01*
Y20491D01*
X3519Y20549D01*
X3475Y20594D01*
X3417Y20618D01*
D02*
G37*
G36*
X8683Y19754D02*
X8620D01*
X8562Y19730D01*
X8518Y19686D01*
X8494Y19628D01*
Y19565D01*
X8518Y19507D01*
X8562Y19463D01*
X8620Y19439D01*
X8683D01*
X8741Y19463D01*
X8785Y19507D01*
X8809Y19565D01*
Y19628D01*
X8785Y19686D01*
X8741Y19730D01*
X8683Y19754D01*
D02*
G37*
G36*
X9323Y19636D02*
X9260D01*
X9202Y19612D01*
X9158Y19568D01*
X9134Y19510D01*
Y19447D01*
X9158Y19389D01*
X9202Y19345D01*
X9260Y19321D01*
X9323D01*
X9381Y19345D01*
X9425Y19389D01*
X9449Y19447D01*
Y19510D01*
X9425Y19568D01*
X9381Y19612D01*
X9323Y19636D01*
D02*
G37*
G36*
X7787Y19823D02*
X7725D01*
X7667Y19799D01*
X7622Y19755D01*
X7598Y19697D01*
Y19634D01*
X7622Y19576D01*
X7667Y19532D01*
X7725Y19508D01*
X7785D01*
Y19447D01*
X7809Y19389D01*
X7854Y19345D01*
X7912Y19321D01*
X7974D01*
X8032Y19345D01*
X8076Y19389D01*
X8100Y19447D01*
Y19510D01*
X8076Y19568D01*
X8032Y19612D01*
X7974Y19636D01*
X7913D01*
Y19697D01*
X7889Y19755D01*
X7845Y19799D01*
X7787Y19823D01*
D02*
G37*
G36*
X21356Y19439D02*
X21293D01*
X21235Y19415D01*
X21191Y19371D01*
X21167Y19313D01*
Y19250D01*
X21191Y19192D01*
X21235Y19148D01*
X21293Y19124D01*
X21356D01*
X21414Y19148D01*
X21458Y19192D01*
X21482Y19250D01*
Y19313D01*
X21458Y19371D01*
X21414Y19415D01*
X21356Y19439D01*
D02*
G37*
G36*
X18858Y19358D02*
X18795D01*
X18737Y19334D01*
X18693Y19290D01*
X18669Y19232D01*
Y19169D01*
X18693Y19111D01*
X18737Y19067D01*
X18795Y19043D01*
X18858D01*
X18916Y19067D01*
X18960Y19111D01*
X18984Y19169D01*
Y19232D01*
X18960Y19290D01*
X18916Y19334D01*
X18858Y19358D01*
D02*
G37*
G36*
X20358Y19608D02*
X20295D01*
X20237Y19584D01*
X20193Y19539D01*
X20169Y19481D01*
Y19419D01*
X20193Y19361D01*
X20235Y19314D01*
X20193Y19267D01*
X20169Y19209D01*
Y19147D01*
X20193Y19089D01*
X20237Y19045D01*
X20295Y19021D01*
X20358D01*
X20416Y19045D01*
X20460Y19089D01*
X20484Y19147D01*
Y19209D01*
X20460Y19267D01*
Y19361D01*
X20470Y19386D01*
X20484Y19419D01*
Y19481D01*
X20460Y19539D01*
X20416Y19584D01*
X20358Y19608D01*
D02*
G37*
G36*
X21734Y19252D02*
X21671D01*
X21614Y19228D01*
X21569Y19184D01*
X21545Y19126D01*
Y19063D01*
X21569Y19005D01*
X21614Y18961D01*
X21671Y18937D01*
X21734D01*
X21792Y18961D01*
X21836Y19005D01*
X21860Y19063D01*
Y19126D01*
X21836Y19184D01*
X21792Y19228D01*
X21734Y19252D01*
D02*
G37*
G36*
X10399Y19157D02*
X10336D01*
X10279Y19134D01*
X10234Y19089D01*
X10210Y19031D01*
Y18969D01*
X10234Y18911D01*
X10279Y18866D01*
X10336Y18843D01*
X10399D01*
X10457Y18866D01*
X10501Y18911D01*
X10525Y18969D01*
Y19031D01*
X10501Y19089D01*
X10457Y19134D01*
X10399Y19157D01*
D02*
G37*
G36*
X22364Y19065D02*
X22301D01*
X22243Y19041D01*
X22199Y18997D01*
X22175Y18939D01*
Y18876D01*
X22199Y18818D01*
X22243Y18774D01*
X22301Y18750D01*
X22364D01*
X22383Y18758D01*
X22474Y18776D01*
X22474Y18776D01*
Y18776D01*
X22505Y18763D01*
X22530Y18742D01*
Y18689D01*
X22554Y18631D01*
X22598Y18587D01*
X22656Y18563D01*
X22718D01*
X22776Y18587D01*
X22821Y18631D01*
X22844Y18689D01*
Y18752D01*
X22821Y18810D01*
X22776Y18854D01*
X22718Y18878D01*
X22656D01*
X22637Y18870D01*
X22546Y18852D01*
X22546Y18852D01*
Y18852D01*
X22515Y18865D01*
X22490Y18886D01*
Y18939D01*
X22466Y18997D01*
X22422Y19041D01*
X22364Y19065D01*
D02*
G37*
G36*
X15033Y18747D02*
X14970D01*
X14912Y18724D01*
X14868Y18679D01*
X14844Y18621D01*
Y18559D01*
X14868Y18501D01*
X14912Y18456D01*
X14970Y18433D01*
X15033D01*
X15091Y18456D01*
X15135Y18501D01*
X15159Y18559D01*
Y18621D01*
X15135Y18679D01*
X15091Y18724D01*
X15033Y18747D01*
D02*
G37*
G36*
X38761Y18710D02*
Y18406D01*
X39064D01*
X39041Y18493D01*
X38994Y18574D01*
X38928Y18640D01*
X38847Y18686D01*
X38761Y18710D01*
D02*
G37*
G36*
X38661D02*
X38574Y18686D01*
X38493Y18640D01*
X38427Y18574D01*
X38380Y18493D01*
X38357Y18406D01*
X38661D01*
Y18710D01*
D02*
G37*
G36*
X6746Y19195D02*
X6684D01*
X6626Y19171D01*
X6581Y19127D01*
X6557Y19069D01*
Y19006D01*
X6581Y18948D01*
X6612Y18918D01*
X6581Y18887D01*
X6557Y18829D01*
Y18766D01*
X6581Y18708D01*
X6612Y18678D01*
X6581Y18647D01*
X6557Y18589D01*
Y18527D01*
X6581Y18469D01*
X6625Y18424D01*
X6683Y18400D01*
X6746D01*
X6804Y18424D01*
X6848Y18469D01*
X6872Y18527D01*
Y18589D01*
X6848Y18647D01*
X6817Y18678D01*
X6848Y18708D01*
X6872Y18766D01*
Y18829D01*
X6848Y18887D01*
X6818Y18918D01*
X6848Y18948D01*
X6872Y19006D01*
Y19069D01*
X6848Y19127D01*
X6804Y19171D01*
X6746Y19195D01*
D02*
G37*
G36*
X6242D02*
X6179D01*
X6121Y19171D01*
X6077Y19127D01*
X6053Y19069D01*
Y19006D01*
X6077Y18948D01*
X6108Y18918D01*
X6077Y18887D01*
X6053Y18829D01*
Y18766D01*
X6077Y18708D01*
X6104Y18681D01*
X6070Y18647D01*
X6046Y18589D01*
Y18527D01*
X6070Y18469D01*
X6114Y18424D01*
X6172Y18400D01*
X6235D01*
X6293Y18424D01*
X6337Y18469D01*
X6361Y18527D01*
Y18589D01*
X6337Y18647D01*
X6310Y18674D01*
X6344Y18708D01*
X6368Y18766D01*
Y18829D01*
X6344Y18887D01*
X6313Y18918D01*
X6344Y18948D01*
X6368Y19006D01*
Y19069D01*
X6344Y19127D01*
X6300Y19171D01*
X6242Y19195D01*
D02*
G37*
G36*
X16862Y18957D02*
X16799D01*
X16741Y18933D01*
X16697Y18888D01*
X16673Y18831D01*
Y18768D01*
X16697Y18710D01*
X16733Y18674D01*
X16697Y18639D01*
X16673Y18581D01*
Y18518D01*
X16697Y18461D01*
X16741Y18416D01*
X16799Y18392D01*
X16862D01*
X16920Y18416D01*
X16964Y18461D01*
X16988Y18518D01*
Y18581D01*
X16964Y18639D01*
X16929Y18674D01*
X16964Y18710D01*
X16988Y18768D01*
Y18831D01*
X16964Y18888D01*
X16920Y18933D01*
X16862Y18957D01*
D02*
G37*
G36*
X23358Y18691D02*
X23295D01*
X23238Y18667D01*
X23193Y18623D01*
X23169Y18565D01*
Y18502D01*
X23193Y18444D01*
X23238Y18400D01*
X23295Y18376D01*
X23358D01*
X23416Y18400D01*
X23460Y18444D01*
X23484Y18502D01*
Y18565D01*
X23460Y18623D01*
X23416Y18667D01*
X23358Y18691D01*
D02*
G37*
G36*
X18607Y18684D02*
X18544D01*
X18486Y18660D01*
X18442Y18615D01*
X18418Y18557D01*
Y18495D01*
X18442Y18437D01*
X18486Y18393D01*
X18544Y18369D01*
X18607D01*
X18665Y18393D01*
X18709Y18437D01*
X18733Y18495D01*
Y18557D01*
X18709Y18615D01*
X18665Y18660D01*
X18607Y18684D01*
D02*
G37*
G36*
X18912Y18285D02*
X18865D01*
X18822Y18267D01*
X18807Y18252D01*
X18413D01*
X18380Y18246D01*
X18352Y18227D01*
X18351Y18226D01*
X18178Y18052D01*
X18159Y18025D01*
X18153Y17992D01*
Y17781D01*
X17922Y17550D01*
X17903Y17523D01*
X17897Y17490D01*
Y16958D01*
X17882Y16943D01*
X17864Y16899D01*
Y16852D01*
X17882Y16809D01*
X17915Y16776D01*
X17959Y16758D01*
X18006D01*
X18049Y16776D01*
X18082Y16809D01*
X18100Y16852D01*
Y16852D01*
X18104Y16902D01*
X18153Y16943D01*
X18197Y16961D01*
X18230Y16995D01*
X18248Y17038D01*
Y17085D01*
X18230Y17128D01*
X18215Y17143D01*
Y17215D01*
X18273Y17298D01*
X18320D01*
X18363Y17316D01*
X18377Y17331D01*
X18493D01*
X18758Y17065D01*
X18786Y17047D01*
X18819Y17040D01*
X18986D01*
X19019Y17047D01*
X19047Y17065D01*
X19307Y17326D01*
X19557D01*
X19590Y17332D01*
X19618Y17351D01*
X19708Y17442D01*
X19724Y17465D01*
X19728Y17466D01*
X19761Y17500D01*
X19779Y17543D01*
Y17590D01*
X19761Y17633D01*
X19728Y17667D01*
X19684Y17685D01*
X19637D01*
X19594Y17667D01*
X19565Y17637D01*
X19536Y17667D01*
X19492Y17685D01*
X19445D01*
X19402Y17667D01*
X19387Y17652D01*
X19250D01*
X19217Y17646D01*
X19189Y17627D01*
X19106Y17544D01*
X19001Y17558D01*
X18965Y17623D01*
X18979Y17661D01*
X18979Y17661D01*
X18997Y17704D01*
Y17751D01*
X18979Y17794D01*
X18946Y17828D01*
X18903Y17846D01*
X18882D01*
X18804Y17923D01*
X18804Y17925D01*
X18826Y18041D01*
X18854Y18053D01*
X18865Y18049D01*
X18912D01*
X18955Y18067D01*
X18989Y18100D01*
X19007Y18143D01*
Y18190D01*
X18989Y18234D01*
X18955Y18267D01*
X18912Y18285D01*
D02*
G37*
G36*
X39064Y18306D02*
X38761D01*
Y18003D01*
X38847Y18026D01*
X38928Y18073D01*
X38994Y18139D01*
X39041Y18220D01*
X39064Y18306D01*
D02*
G37*
G36*
X38661D02*
X38357D01*
X38380Y18220D01*
X38427Y18139D01*
X38493Y18073D01*
X38574Y18026D01*
X38661Y18003D01*
Y18306D01*
D02*
G37*
G36*
X37757Y18711D02*
X37664D01*
X37574Y18686D01*
X37493Y18640D01*
X37427Y18574D01*
X37380Y18493D01*
X37356Y18403D01*
Y18310D01*
X37380Y18220D01*
X37427Y18139D01*
X37493Y18073D01*
X37574Y18026D01*
X37664Y18002D01*
X37757D01*
X37847Y18026D01*
X37928Y18073D01*
X37994Y18139D01*
X38041Y18220D01*
X38065Y18310D01*
Y18403D01*
X38041Y18493D01*
X37994Y18574D01*
X37928Y18640D01*
X37847Y18686D01*
X37757Y18711D01*
D02*
G37*
G36*
X37065D02*
X36356D01*
Y18002D01*
X37065D01*
Y18711D01*
D02*
G37*
G36*
X9536Y18109D02*
X9473D01*
X9415Y18085D01*
X9371Y18040D01*
X9347Y17983D01*
Y17920D01*
X9371Y17862D01*
X9415Y17818D01*
X9473Y17794D01*
X9536D01*
X9594Y17818D01*
X9647Y17855D01*
X9701Y17818D01*
X9759Y17794D01*
X9821D01*
X9879Y17818D01*
X9924Y17862D01*
X9948Y17920D01*
Y17982D01*
X9924Y18040D01*
X9879Y18085D01*
X9821Y18109D01*
X9759D01*
X9701Y18085D01*
X9647Y18047D01*
X9594Y18085D01*
X9536Y18109D01*
D02*
G37*
G36*
X29077Y17894D02*
X29014D01*
X28956Y17870D01*
X28912Y17825D01*
X28888Y17768D01*
Y17705D01*
X28912Y17647D01*
X28956Y17603D01*
X29014Y17579D01*
X29077D01*
X29134Y17603D01*
X29179Y17647D01*
X29203Y17705D01*
Y17768D01*
X29179Y17825D01*
X29134Y17870D01*
X29077Y17894D01*
D02*
G37*
G36*
X40140Y17530D02*
X40077D01*
X40019Y17506D01*
X39975Y17461D01*
X39951Y17403D01*
Y17341D01*
X39975Y17283D01*
X40019Y17239D01*
X40077Y17215D01*
X40140D01*
X40197Y17239D01*
X40242Y17283D01*
X40266Y17341D01*
Y17403D01*
X40242Y17461D01*
X40197Y17506D01*
X40140Y17530D01*
D02*
G37*
G36*
X39549D02*
X39486D01*
X39429Y17506D01*
X39384Y17461D01*
X39360Y17403D01*
Y17341D01*
X39384Y17283D01*
X39429Y17239D01*
X39486Y17215D01*
X39549D01*
X39607Y17239D01*
X39651Y17283D01*
X39675Y17341D01*
Y17403D01*
X39651Y17461D01*
X39607Y17506D01*
X39549Y17530D01*
D02*
G37*
G36*
X5061Y17136D02*
X4998D01*
X4940Y17112D01*
X4896Y17068D01*
X4872Y17010D01*
Y16947D01*
X4896Y16889D01*
X4940Y16845D01*
X4998Y16821D01*
X5061D01*
X5119Y16845D01*
X5163Y16889D01*
X5187Y16947D01*
Y17010D01*
X5163Y17068D01*
X5119Y17112D01*
X5061Y17136D01*
D02*
G37*
G36*
X6764Y17313D02*
X6701D01*
X6643Y17289D01*
X6599Y17245D01*
X6575Y17187D01*
Y17124D01*
X6599Y17066D01*
X6643Y17022D01*
X6701Y16998D01*
X6765Y16981D01*
X6769Y16917D01*
X6793Y16860D01*
X6837Y16815D01*
X6895Y16791D01*
X6958D01*
X7016Y16815D01*
X7060Y16860D01*
X7084Y16917D01*
Y16980D01*
X7060Y17038D01*
X7016Y17082D01*
X6958Y17106D01*
X6894Y17123D01*
X6890Y17187D01*
X6866Y17245D01*
X6821Y17289D01*
X6764Y17313D01*
D02*
G37*
G36*
X39125Y16990D02*
X39062D01*
X39005Y16966D01*
X38960Y16922D01*
X38936Y16864D01*
Y16801D01*
X38960Y16743D01*
X39005Y16699D01*
X39062Y16675D01*
X39125D01*
X39183Y16699D01*
X39227Y16743D01*
X39251Y16801D01*
Y16864D01*
X39227Y16922D01*
X39183Y16966D01*
X39125Y16990D01*
D02*
G37*
G36*
X40140Y16988D02*
X40077D01*
X40019Y16964D01*
X39975Y16920D01*
X39951Y16862D01*
Y16799D01*
X39975Y16741D01*
X40019Y16697D01*
X40077Y16673D01*
X40140D01*
X40197Y16697D01*
X40242Y16741D01*
X40266Y16799D01*
Y16862D01*
X40242Y16920D01*
X40197Y16964D01*
X40140Y16988D01*
D02*
G37*
G36*
X8791Y16949D02*
X8729D01*
X8671Y16925D01*
X8626Y16881D01*
X8602Y16823D01*
Y16760D01*
X8626Y16702D01*
X8671Y16658D01*
X8729Y16634D01*
X8791D01*
X8849Y16658D01*
X8893Y16702D01*
X8917Y16760D01*
Y16823D01*
X8893Y16881D01*
X8849Y16925D01*
X8791Y16949D01*
D02*
G37*
G36*
X8348D02*
X8286D01*
X8228Y16925D01*
X8183Y16881D01*
X8159Y16823D01*
Y16760D01*
X8183Y16702D01*
X8228Y16658D01*
X8286Y16634D01*
X8348D01*
X8406Y16658D01*
X8450Y16702D01*
X8474Y16760D01*
Y16823D01*
X8450Y16881D01*
X8406Y16925D01*
X8348Y16949D01*
D02*
G37*
G36*
X33187Y16567D02*
X33125D01*
X33067Y16543D01*
X33036Y16512D01*
X33005Y16543D01*
X32947Y16567D01*
X32885D01*
X32827Y16543D01*
X32783Y16499D01*
X32759Y16441D01*
Y16378D01*
X32783Y16320D01*
X32827Y16276D01*
X32885Y16252D01*
X32947D01*
X33005Y16276D01*
X33036Y16307D01*
X33067Y16276D01*
X33125Y16252D01*
X33187D01*
X33245Y16276D01*
X33290Y16320D01*
X33314Y16378D01*
Y16441D01*
X33290Y16499D01*
X33245Y16543D01*
X33187Y16567D01*
D02*
G37*
G36*
X38712Y16713D02*
X38650D01*
X38592Y16689D01*
X38548Y16644D01*
X38524Y16586D01*
Y16524D01*
X38548Y16466D01*
X38592Y16422D01*
X38650Y16398D01*
X38712D01*
X38770Y16422D01*
X38815Y16466D01*
X38839Y16524D01*
Y16586D01*
X38815Y16644D01*
X38770Y16689D01*
X38712Y16713D01*
D02*
G37*
G36*
X29364Y16533D02*
X29301D01*
X29243Y16509D01*
X29199Y16465D01*
X29175Y16407D01*
Y16345D01*
X29199Y16287D01*
X29233Y16253D01*
X29199Y16219D01*
X29175Y16161D01*
Y16099D01*
X29199Y16041D01*
X29243Y15996D01*
X29301Y15972D01*
X29364D01*
X29422Y15996D01*
X29466Y16041D01*
X29490Y16099D01*
Y16161D01*
X29466Y16219D01*
X29432Y16253D01*
X29466Y16287D01*
X29490Y16345D01*
Y16407D01*
X29466Y16465D01*
X29422Y16509D01*
X29364Y16533D01*
D02*
G37*
G36*
X21370Y16201D02*
X21307D01*
X21249Y16177D01*
X21205Y16133D01*
X21181Y16075D01*
Y16012D01*
X21205Y15954D01*
X21249Y15910D01*
X21307Y15886D01*
X21370D01*
X21428Y15910D01*
X21472Y15954D01*
X21496Y16012D01*
Y16075D01*
X21472Y16133D01*
X21428Y16177D01*
X21370Y16201D01*
D02*
G37*
G36*
X39123Y15954D02*
X39061D01*
X39003Y15930D01*
X38958Y15886D01*
X38934Y15828D01*
Y15765D01*
X38958Y15707D01*
X39003Y15663D01*
X39061Y15639D01*
X39123D01*
X39181Y15663D01*
X39225Y15707D01*
X39249Y15765D01*
Y15828D01*
X39225Y15886D01*
X39181Y15930D01*
X39123Y15954D01*
D02*
G37*
G36*
X38383Y15914D02*
X38321D01*
X38263Y15890D01*
X38218Y15846D01*
X38194Y15788D01*
Y15725D01*
X38218Y15667D01*
X38263Y15623D01*
X38321Y15599D01*
X38383D01*
X38441Y15623D01*
X38485Y15667D01*
X38509Y15725D01*
Y15788D01*
X38485Y15846D01*
X38441Y15890D01*
X38383Y15914D01*
D02*
G37*
G36*
X27364Y15807D02*
X27301D01*
X27243Y15783D01*
X27199Y15739D01*
X27175Y15681D01*
Y15618D01*
X27199Y15560D01*
X27243Y15516D01*
X27301Y15492D01*
X27364D01*
X27422Y15516D01*
X27466Y15560D01*
X27490Y15618D01*
Y15681D01*
X27466Y15739D01*
X27422Y15783D01*
X27364Y15807D01*
D02*
G37*
G36*
X22453Y15699D02*
X22390D01*
X22332Y15675D01*
X22288Y15631D01*
X22264Y15573D01*
Y15510D01*
X22288Y15452D01*
X22332Y15408D01*
X22390Y15384D01*
X22453D01*
X22510Y15408D01*
X22555Y15452D01*
X22579Y15510D01*
Y15573D01*
X22555Y15631D01*
X22510Y15675D01*
X22453Y15699D01*
D02*
G37*
G36*
X24460Y15689D02*
X24398D01*
X24340Y15665D01*
X24296Y15621D01*
X24272Y15563D01*
Y15500D01*
X24296Y15442D01*
X24340Y15398D01*
X24398Y15374D01*
X24460D01*
X24518Y15398D01*
X24563Y15442D01*
X24587Y15500D01*
Y15563D01*
X24563Y15621D01*
X24518Y15665D01*
X24460Y15689D01*
D02*
G37*
G36*
X23457D02*
X23394D01*
X23336Y15665D01*
X23292Y15621D01*
X23268Y15563D01*
Y15500D01*
X23292Y15442D01*
X23336Y15398D01*
X23394Y15374D01*
X23457D01*
X23514Y15398D01*
X23559Y15442D01*
X23583Y15500D01*
Y15563D01*
X23559Y15621D01*
X23514Y15665D01*
X23457Y15689D01*
D02*
G37*
G36*
X37440Y15585D02*
X37377D01*
X37319Y15561D01*
X37275Y15517D01*
X37251Y15459D01*
Y15396D01*
X37275Y15339D01*
X37319Y15294D01*
X37377Y15270D01*
X37440D01*
X37498Y15294D01*
X37542Y15339D01*
X37566Y15396D01*
Y15459D01*
X37542Y15517D01*
X37498Y15561D01*
X37440Y15585D01*
D02*
G37*
G36*
X9795Y15482D02*
X9732D01*
X9675Y15458D01*
X9630Y15414D01*
X9606Y15356D01*
Y15293D01*
X9630Y15236D01*
X9675Y15191D01*
X9732Y15167D01*
X9795Y15167D01*
X9803Y15106D01*
X9827Y15049D01*
X9871Y15004D01*
X9929Y14980D01*
X9992D01*
X10050Y15004D01*
X10094Y15049D01*
X10118Y15106D01*
Y15169D01*
X10094Y15227D01*
X10050Y15271D01*
X9992Y15295D01*
X9929Y15295D01*
X9921Y15356D01*
X9897Y15414D01*
X9853Y15458D01*
X9795Y15482D01*
D02*
G37*
G36*
X40043Y15214D02*
X39981D01*
X39923Y15190D01*
X39878Y15146D01*
X39854Y15088D01*
Y15025D01*
X39878Y14967D01*
X39923Y14923D01*
X39981Y14899D01*
X40043D01*
X40101Y14923D01*
X40145Y14967D01*
X40169Y15025D01*
Y15088D01*
X40145Y15146D01*
X40101Y15190D01*
X40043Y15214D01*
D02*
G37*
G36*
X35882Y15991D02*
X35346D01*
Y15449D01*
X35346Y15351D01*
X35346Y15319D01*
Y14778D01*
X35882D01*
Y15319D01*
X35882Y15418D01*
X35882Y15449D01*
Y15991D01*
D02*
G37*
G36*
X33703Y15138D02*
X33640D01*
X33582Y15114D01*
X33538Y15070D01*
X33514Y15012D01*
Y14949D01*
X33538Y14891D01*
X33582Y14847D01*
X33640Y14823D01*
X33704Y14816D01*
X33720Y14752D01*
X33744Y14694D01*
X33789Y14650D01*
X33847Y14626D01*
X33909D01*
X33967Y14650D01*
X34011Y14694D01*
X34035Y14752D01*
Y14815D01*
X34011Y14873D01*
X33967Y14917D01*
X33909Y14941D01*
X33845Y14947D01*
X33829Y15012D01*
X33805Y15070D01*
X33760Y15114D01*
X33703Y15138D01*
D02*
G37*
G36*
X31569Y15134D02*
X31506D01*
X31449Y15110D01*
X31404Y15066D01*
X31380Y15008D01*
Y14945D01*
X31404Y14887D01*
X31449Y14843D01*
X31506Y14819D01*
X31570Y14813D01*
X31574Y14750D01*
X31598Y14692D01*
X31642Y14648D01*
X31700Y14624D01*
X31763D01*
X31821Y14648D01*
X31865Y14692D01*
X31889Y14750D01*
Y14813D01*
X31865Y14870D01*
X31821Y14915D01*
X31763Y14939D01*
X31700Y14945D01*
X31695Y15008D01*
X31671Y15066D01*
X31627Y15110D01*
X31569Y15134D01*
D02*
G37*
G36*
X40613Y14844D02*
X40551D01*
X40493Y14820D01*
X40448Y14776D01*
X40424Y14718D01*
Y14655D01*
X40448Y14597D01*
X40493Y14553D01*
X40551Y14529D01*
X40613D01*
X40671Y14553D01*
X40715Y14597D01*
X40739Y14655D01*
Y14718D01*
X40715Y14776D01*
X40671Y14820D01*
X40613Y14844D01*
D02*
G37*
G36*
X21350Y14616D02*
X21288D01*
X21230Y14592D01*
X21185Y14548D01*
X21161Y14490D01*
Y14427D01*
X21185Y14369D01*
X21230Y14325D01*
X21288Y14301D01*
X21350D01*
X21408Y14325D01*
X21452Y14369D01*
X21476Y14427D01*
Y14490D01*
X21452Y14548D01*
X21408Y14592D01*
X21350Y14616D01*
D02*
G37*
G36*
X31186Y14745D02*
X31124D01*
X31066Y14721D01*
X31022Y14677D01*
X30998Y14619D01*
Y14556D01*
X31022Y14498D01*
X31066Y14454D01*
X31124Y14430D01*
X31193Y14374D01*
X31217Y14317D01*
X31261Y14272D01*
X31319Y14248D01*
X31382D01*
X31439Y14272D01*
X31484Y14317D01*
X31508Y14374D01*
Y14437D01*
X31484Y14495D01*
X31439Y14539D01*
X31382Y14563D01*
X31313Y14619D01*
X31289Y14677D01*
X31244Y14721D01*
X31186Y14745D01*
D02*
G37*
G36*
X20366Y14616D02*
X20303D01*
X20245Y14592D01*
X20201Y14548D01*
X20177Y14490D01*
Y14427D01*
X20201Y14369D01*
X20235Y14336D01*
X20201Y14302D01*
X20177Y14244D01*
Y14181D01*
X20201Y14123D01*
X20245Y14079D01*
X20303Y14055D01*
X20366D01*
X20424Y14079D01*
X20468Y14123D01*
X20492Y14181D01*
Y14244D01*
X20468Y14302D01*
X20434Y14336D01*
X20468Y14369D01*
X20492Y14427D01*
Y14490D01*
X20468Y14548D01*
X20424Y14592D01*
X20366Y14616D01*
D02*
G37*
G36*
X16866Y14555D02*
X16803D01*
X16745Y14531D01*
X16701Y14486D01*
X16677Y14428D01*
Y14366D01*
X16701Y14308D01*
Y14214D01*
X16691Y14189D01*
X16677Y14156D01*
Y14094D01*
X16701Y14036D01*
X16745Y13991D01*
X16803Y13968D01*
X16866D01*
X16924Y13991D01*
X16968Y14036D01*
X16992Y14094D01*
Y14156D01*
X16968Y14214D01*
Y14308D01*
X16978Y14333D01*
X16992Y14366D01*
Y14428D01*
X16968Y14486D01*
X16924Y14531D01*
X16866Y14555D01*
D02*
G37*
G36*
X36045Y14628D02*
X35982D01*
X35924Y14604D01*
X35880Y14560D01*
X35856Y14502D01*
Y14439D01*
X35880Y14381D01*
X35917Y14344D01*
X35921Y14288D01*
X35917Y14233D01*
X35880Y14195D01*
X35856Y14138D01*
Y14075D01*
X35880Y14017D01*
X35924Y13973D01*
X35982Y13949D01*
X36045D01*
X36102Y13973D01*
X36147Y14017D01*
X36171Y14075D01*
Y14138D01*
X36147Y14195D01*
X36109Y14233D01*
X36106Y14288D01*
X36109Y14344D01*
X36147Y14381D01*
X36171Y14439D01*
Y14502D01*
X36147Y14560D01*
X36102Y14604D01*
X36045Y14628D01*
D02*
G37*
G36*
X25363Y13691D02*
X25300D01*
X25242Y13667D01*
X25198Y13623D01*
X25174Y13565D01*
Y13502D01*
X25198Y13444D01*
X25242Y13400D01*
X25300Y13376D01*
X25363D01*
X25421Y13400D01*
X25465Y13444D01*
X25489Y13502D01*
Y13565D01*
X25465Y13623D01*
X25421Y13667D01*
X25363Y13691D01*
D02*
G37*
G36*
X24356D02*
X24293D01*
X24235Y13667D01*
X24191Y13623D01*
X24167Y13565D01*
Y13502D01*
X24191Y13444D01*
X24235Y13400D01*
X24293Y13376D01*
X24356D01*
X24414Y13400D01*
X24458Y13444D01*
X24482Y13502D01*
Y13565D01*
X24458Y13623D01*
X24414Y13667D01*
X24356Y13691D01*
D02*
G37*
G36*
X23366D02*
X23303D01*
X23245Y13667D01*
X23201Y13623D01*
X23177Y13565D01*
Y13502D01*
X23201Y13444D01*
X23245Y13400D01*
X23303Y13376D01*
X23366D01*
X23424Y13400D01*
X23468Y13444D01*
X23492Y13502D01*
Y13565D01*
X23468Y13623D01*
X23424Y13667D01*
X23366Y13691D01*
D02*
G37*
G36*
X18598D02*
X18536D01*
X18478Y13667D01*
X18434Y13623D01*
X18410Y13565D01*
Y13502D01*
X18434Y13444D01*
X18478Y13400D01*
X18536Y13376D01*
X18598D01*
X18656Y13400D01*
X18701Y13444D01*
X18725Y13502D01*
Y13565D01*
X18701Y13623D01*
X18656Y13667D01*
X18598Y13691D01*
D02*
G37*
G36*
X37003Y13544D02*
X36941D01*
X36883Y13520D01*
X36838Y13476D01*
X36814Y13418D01*
Y13355D01*
X36838Y13297D01*
X36883Y13253D01*
X36941Y13229D01*
X37003D01*
X37061Y13253D01*
X37105Y13297D01*
X37129Y13355D01*
Y13418D01*
X37105Y13476D01*
X37061Y13520D01*
X37003Y13544D01*
D02*
G37*
G36*
X22871Y13200D02*
X22808D01*
X22750Y13176D01*
X22706Y13132D01*
X22682Y13074D01*
Y13011D01*
X22706Y12953D01*
X22750Y12909D01*
X22808Y12885D01*
X22871D01*
X22929Y12909D01*
X22973Y12953D01*
X22997Y13011D01*
Y13074D01*
X22973Y13132D01*
X22929Y13176D01*
X22871Y13200D01*
D02*
G37*
G36*
X23361Y13010D02*
X23298D01*
X23240Y12986D01*
X23196Y12942D01*
X23172Y12884D01*
Y12821D01*
X23196Y12763D01*
X23240Y12719D01*
X23298Y12695D01*
X23361D01*
X23419Y12719D01*
X23463Y12763D01*
X23487Y12821D01*
Y12884D01*
X23463Y12942D01*
X23419Y12986D01*
X23361Y13010D01*
D02*
G37*
G36*
X18905Y13284D02*
X18858D01*
X18815Y13266D01*
X18782Y13233D01*
X18764Y13190D01*
Y13143D01*
X18782Y13099D01*
X18796Y13085D01*
Y12963D01*
X18740Y12906D01*
X18612D01*
X18608Y12906D01*
X18106D01*
X18073Y12899D01*
X18045Y12881D01*
X17676Y12511D01*
X17657Y12483D01*
X17651Y12451D01*
Y12434D01*
X17636Y12419D01*
X17618Y12376D01*
Y12329D01*
X17636Y12285D01*
X17669Y12252D01*
X17713Y12234D01*
X17770Y12199D01*
X17785Y12143D01*
Y12142D01*
X17803Y12098D01*
X17837Y12065D01*
X17880Y12047D01*
X17927D01*
X17970Y12065D01*
X18004Y12098D01*
X18100Y12074D01*
X18247Y11928D01*
X18274Y11909D01*
X18307Y11903D01*
X18353D01*
X18368Y11888D01*
X18412Y11870D01*
X18459D01*
X18502Y11888D01*
X18535Y11921D01*
X18553Y11965D01*
Y12012D01*
X18535Y12055D01*
X18534Y12056D01*
X18532Y12087D01*
X18545Y12164D01*
X18549Y12170D01*
X18554Y12174D01*
X18618Y12237D01*
X18648Y12236D01*
X18727Y12208D01*
X18734Y12191D01*
X18767Y12158D01*
X18811Y12140D01*
X18858D01*
X18901Y12158D01*
X18916Y12173D01*
X19060D01*
X19092Y12180D01*
X19120Y12198D01*
X19461Y12539D01*
X19482D01*
X19526Y12557D01*
X19549Y12580D01*
X19569Y12560D01*
X19612Y12542D01*
X19659D01*
X19703Y12560D01*
X19736Y12593D01*
X19754Y12637D01*
Y12684D01*
X19736Y12727D01*
X19703Y12760D01*
X19702Y12760D01*
X19702Y12762D01*
X19683Y12790D01*
X19598Y12876D01*
X19570Y12894D01*
X19537Y12901D01*
X19311D01*
X19278Y12894D01*
X19250Y12876D01*
X19096Y12721D01*
X19056Y12727D01*
X18990Y12754D01*
X18979Y12779D01*
X18952Y12844D01*
X18961Y12894D01*
X18967Y12927D01*
Y13085D01*
X18982Y13099D01*
X19000Y13143D01*
Y13190D01*
X18982Y13233D01*
X18949Y13266D01*
X18905Y13284D01*
D02*
G37*
G36*
X23871Y12820D02*
X23808D01*
X23750Y12796D01*
X23706Y12752D01*
X23682Y12694D01*
Y12631D01*
X23706Y12573D01*
X23750Y12529D01*
X23808Y12505D01*
X23871D01*
X23929Y12529D01*
X23973Y12573D01*
X23997Y12631D01*
Y12694D01*
X23973Y12752D01*
X23929Y12796D01*
X23871Y12820D01*
D02*
G37*
G36*
X24357Y12630D02*
X24294D01*
X24236Y12606D01*
X24192Y12562D01*
X24168Y12504D01*
Y12441D01*
X24192Y12383D01*
X24236Y12339D01*
X24294Y12315D01*
X24357D01*
X24415Y12339D01*
X24459Y12383D01*
X24483Y12441D01*
Y12504D01*
X24459Y12562D01*
X24415Y12606D01*
X24357Y12630D01*
D02*
G37*
G36*
X40601Y13043D02*
X40538D01*
X40481Y13019D01*
X40436Y12975D01*
X40412Y12917D01*
Y12854D01*
X40436Y12797D01*
X40477Y12756D01*
X40437Y12717D01*
X40413Y12659D01*
Y12597D01*
X40437Y12539D01*
X40476Y12501D01*
X40436Y12461D01*
X40412Y12403D01*
Y12341D01*
X40436Y12283D01*
X40481Y12239D01*
X40538Y12215D01*
X40601D01*
X40659Y12239D01*
X40703Y12283D01*
X40727Y12341D01*
Y12403D01*
X40703Y12461D01*
X40665Y12499D01*
X40704Y12539D01*
X40728Y12597D01*
Y12659D01*
X40704Y12717D01*
X40664Y12757D01*
X40703Y12797D01*
X40727Y12854D01*
Y12917D01*
X40703Y12975D01*
X40659Y13019D01*
X40601Y13043D01*
D02*
G37*
G36*
X39972Y12785D02*
X39910D01*
X39852Y12761D01*
X39807Y12717D01*
X39783Y12659D01*
Y12597D01*
X39807Y12539D01*
X39846Y12500D01*
X39807Y12461D01*
X39783Y12403D01*
Y12341D01*
X39807Y12283D01*
X39852Y12239D01*
X39910Y12215D01*
X39972D01*
X40030Y12239D01*
X40074Y12283D01*
X40098Y12341D01*
Y12403D01*
X40074Y12461D01*
X40036Y12500D01*
X40074Y12539D01*
X40098Y12597D01*
Y12659D01*
X40074Y12717D01*
X40030Y12761D01*
X39972Y12785D01*
D02*
G37*
G36*
X24903Y12441D02*
X24841D01*
X24783Y12417D01*
X24739Y12373D01*
X24715Y12315D01*
Y12252D01*
X24739Y12194D01*
X24783Y12150D01*
X24841Y12126D01*
X24903D01*
X24961Y12150D01*
X25006Y12194D01*
X25030Y12252D01*
Y12315D01*
X25006Y12373D01*
X24961Y12417D01*
X24903Y12441D01*
D02*
G37*
G36*
X39453Y12364D02*
X39391D01*
X39333Y12340D01*
X39288Y12296D01*
X39264Y12238D01*
Y12175D01*
X39288Y12117D01*
X39333Y12073D01*
X39391Y12049D01*
X39453D01*
X39511Y12073D01*
X39555Y12117D01*
X39579Y12175D01*
Y12238D01*
X39555Y12296D01*
X39511Y12340D01*
X39453Y12364D01*
D02*
G37*
G36*
X30569Y12254D02*
X30507D01*
X30449Y12230D01*
X30405Y12186D01*
X30381Y12128D01*
Y12065D01*
X30405Y12007D01*
X30449Y11963D01*
X30507Y11939D01*
X30569D01*
X30627Y11963D01*
X30672Y12007D01*
X30696Y12065D01*
Y12128D01*
X30672Y12186D01*
X30627Y12230D01*
X30569Y12254D01*
D02*
G37*
G36*
X25356D02*
X25293D01*
X25236Y12230D01*
X25191Y12186D01*
X25167Y12128D01*
Y12065D01*
X25191Y12007D01*
X25236Y11963D01*
X25293Y11939D01*
X25356D01*
X25414Y11963D01*
X25458Y12007D01*
X25482Y12065D01*
Y12128D01*
X25458Y12186D01*
X25414Y12230D01*
X25356Y12254D01*
D02*
G37*
G36*
X33224Y11768D02*
X33177D01*
X33133Y11750D01*
X33100Y11717D01*
X33082Y11673D01*
Y11626D01*
X33100Y11583D01*
X33133Y11550D01*
X33177Y11532D01*
X33198D01*
X33317Y11412D01*
X33345Y11394D01*
X33377Y11387D01*
X33640D01*
X33655Y11372D01*
X33698Y11354D01*
X33745D01*
X33789Y11372D01*
X33822Y11406D01*
X33840Y11449D01*
Y11496D01*
X33822Y11539D01*
X33800Y11562D01*
X33821Y11583D01*
X33839Y11626D01*
Y11673D01*
X33821Y11717D01*
X33787Y11750D01*
X33744Y11768D01*
X33697D01*
X33654Y11750D01*
X33639Y11735D01*
X33500D01*
X33485Y11750D01*
X33442Y11768D01*
X33395D01*
X33351Y11750D01*
X33309Y11722D01*
X33267Y11750D01*
X33224Y11768D01*
D02*
G37*
G36*
X39451Y11348D02*
X39388D01*
X39330Y11324D01*
X39286Y11280D01*
X39262Y11222D01*
Y11160D01*
X39286Y11102D01*
X39330Y11057D01*
X39388Y11033D01*
X39451D01*
X39509Y11057D01*
X39553Y11102D01*
X39577Y11160D01*
Y11222D01*
X39553Y11280D01*
X39509Y11324D01*
X39451Y11348D01*
D02*
G37*
G36*
X2931Y11443D02*
X2498D01*
X2436Y11434D01*
X2379Y11411D01*
X2330Y11373D01*
X2292Y11323D01*
X2268Y11266D01*
X2260Y11204D01*
X2268Y11143D01*
X2292Y11085D01*
X2330Y11036D01*
X2379Y10998D01*
X2436Y10974D01*
X2498Y10966D01*
X2931D01*
X2993Y10974D01*
X3050Y10998D01*
X3100Y11036D01*
X3137Y11085D01*
X3161Y11143D01*
X3169Y11204D01*
X3161Y11266D01*
X3137Y11323D01*
X3100Y11373D01*
X3050Y11411D01*
X2993Y11434D01*
X2931Y11443D01*
D02*
G37*
G36*
X1226D02*
X911D01*
X850Y11434D01*
X792Y11411D01*
X743Y11373D01*
X705Y11323D01*
X681Y11266D01*
X673Y11204D01*
X681Y11143D01*
X705Y11085D01*
X743Y11036D01*
X792Y10998D01*
X850Y10974D01*
X911Y10966D01*
X1226D01*
X1288Y10974D01*
X1346Y10998D01*
X1395Y11036D01*
X1433Y11085D01*
X1457Y11143D01*
X1465Y11204D01*
X1457Y11266D01*
X1433Y11323D01*
X1395Y11373D01*
X1346Y11411D01*
X1288Y11434D01*
X1226Y11443D01*
D02*
G37*
G36*
X29356Y11538D02*
X29293D01*
X29235Y11514D01*
X29191Y11469D01*
X29167Y11411D01*
Y11349D01*
X29191Y11291D01*
X29232Y11250D01*
X29191Y11208D01*
X29167Y11151D01*
Y11088D01*
X29191Y11030D01*
X29236Y10986D01*
X29293Y10962D01*
X29356D01*
X29414Y10986D01*
X29458Y11030D01*
X29482Y11088D01*
Y11151D01*
X29458Y11208D01*
X29417Y11250D01*
X29458Y11291D01*
X29482Y11349D01*
Y11411D01*
X29458Y11469D01*
X29414Y11514D01*
X29356Y11538D01*
D02*
G37*
G36*
X37269Y11217D02*
X37222D01*
X37178Y11199D01*
X37145Y11165D01*
X37127Y11122D01*
Y11101D01*
X36941Y10916D01*
X36920D01*
X36877Y10898D01*
X36844Y10864D01*
X36826Y10821D01*
Y10774D01*
X36844Y10731D01*
X36877Y10697D01*
X36920Y10679D01*
X36967D01*
X37011Y10697D01*
X37044Y10731D01*
X37062Y10774D01*
Y10795D01*
X37248Y10980D01*
X37269D01*
X37312Y10998D01*
X37345Y11032D01*
X37363Y11075D01*
Y11122D01*
X37345Y11165D01*
X37312Y11199D01*
X37269Y11217D01*
D02*
G37*
G36*
X32948Y11354D02*
X32901D01*
X32858Y11337D01*
X32824Y11303D01*
X32806Y11260D01*
Y11213D01*
X32824Y11169D01*
X32839Y11155D01*
Y10923D01*
X32846Y10890D01*
X32850Y10884D01*
X32839Y10853D01*
X32818Y10817D01*
X32794Y10793D01*
X32773D01*
X32730Y10775D01*
X32696Y10742D01*
X32678Y10699D01*
Y10652D01*
X32696Y10608D01*
X32730Y10575D01*
X32773Y10557D01*
X32820D01*
X32863Y10575D01*
X32878Y10590D01*
X33177D01*
X33192Y10575D01*
X33236Y10557D01*
X33283D01*
X33326Y10575D01*
X33359Y10608D01*
X33377Y10652D01*
X33417Y10663D01*
X33736D01*
X33751Y10648D01*
X33795Y10630D01*
X33842D01*
X33885Y10648D01*
X33918Y10681D01*
X33936Y10725D01*
Y10772D01*
X33918Y10815D01*
X33885Y10848D01*
X33842Y10866D01*
X33795D01*
X33751Y10848D01*
X33736Y10833D01*
X33452D01*
X33398Y10887D01*
X33371Y10906D01*
X33338Y10912D01*
X33056D01*
X33010Y10958D01*
Y11155D01*
X33025Y11169D01*
X33043Y11213D01*
Y11260D01*
X33025Y11303D01*
X32991Y11337D01*
X32948Y11354D01*
D02*
G37*
G36*
X2561Y10817D02*
X2490D01*
X2425Y10790D01*
X2375Y10740D01*
X2348Y10675D01*
Y10604D01*
X2375Y10539D01*
X2425Y10489D01*
X2490Y10462D01*
X2561D01*
X2626Y10489D01*
X2676Y10539D01*
X2703Y10604D01*
Y10675D01*
X2676Y10740D01*
X2626Y10790D01*
X2561Y10817D01*
D02*
G37*
G36*
X37450Y10630D02*
X37403D01*
X37360Y10612D01*
X37327Y10579D01*
X37309Y10535D01*
Y10488D01*
X37327Y10445D01*
X37360Y10412D01*
X37403Y10394D01*
X37450D01*
X37494Y10412D01*
X37505Y10423D01*
X37921D01*
X37936Y10408D01*
X37980Y10390D01*
X38027D01*
X38070Y10408D01*
X38103Y10441D01*
X38121Y10485D01*
Y10532D01*
X38103Y10575D01*
X38070Y10608D01*
X38027Y10626D01*
X37980D01*
X37936Y10608D01*
X37921Y10593D01*
X37512D01*
X37494Y10612D01*
X37450Y10630D01*
D02*
G37*
G36*
X25455Y10703D02*
X25392D01*
X25334Y10679D01*
X25290Y10634D01*
X25266Y10576D01*
Y10514D01*
X25290Y10456D01*
X25334Y10412D01*
X25392Y10388D01*
X25455D01*
X25512Y10412D01*
X25557Y10456D01*
X25581Y10514D01*
Y10576D01*
X25557Y10634D01*
X25512Y10679D01*
X25455Y10703D01*
D02*
G37*
G36*
X24451Y10699D02*
X24388D01*
X24330Y10675D01*
X24286Y10631D01*
X24262Y10573D01*
Y10510D01*
X24286Y10452D01*
X24330Y10408D01*
X24388Y10384D01*
X24451D01*
X24509Y10408D01*
X24553Y10452D01*
X24577Y10510D01*
Y10573D01*
X24553Y10631D01*
X24509Y10675D01*
X24451Y10699D01*
D02*
G37*
G36*
X23457D02*
X23394D01*
X23336Y10675D01*
X23292Y10631D01*
X23268Y10573D01*
Y10510D01*
X23292Y10452D01*
X23336Y10408D01*
X23394Y10384D01*
X23457D01*
X23514Y10408D01*
X23559Y10452D01*
X23583Y10510D01*
Y10573D01*
X23559Y10631D01*
X23514Y10675D01*
X23457Y10699D01*
D02*
G37*
G36*
X22453D02*
X22390D01*
X22332Y10675D01*
X22288Y10631D01*
X22264Y10573D01*
Y10510D01*
X22288Y10452D01*
X22332Y10408D01*
X22390Y10384D01*
X22453D01*
X22510Y10408D01*
X22555Y10452D01*
X22579Y10510D01*
Y10573D01*
X22555Y10631D01*
X22510Y10675D01*
X22453Y10699D01*
D02*
G37*
G36*
X10819Y10667D02*
X10756D01*
X10698Y10643D01*
X10654Y10599D01*
X10630Y10541D01*
Y10478D01*
X10654Y10420D01*
X10698Y10376D01*
X10756Y10352D01*
X10819D01*
X10877Y10376D01*
X10921Y10420D01*
X10945Y10478D01*
Y10541D01*
X10921Y10599D01*
X10877Y10643D01*
X10819Y10667D01*
D02*
G37*
G36*
X37425Y10157D02*
X37378D01*
X37335Y10139D01*
X37320Y10125D01*
X36903D01*
X36888Y10139D01*
X36844Y10157D01*
X36797D01*
X36754Y10139D01*
X36721Y10106D01*
X36703Y10063D01*
Y10016D01*
X36721Y9972D01*
X36754Y9939D01*
X36797Y9921D01*
X36844D01*
X36888Y9939D01*
X36903Y9954D01*
X37320D01*
X37335Y9939D01*
X37378Y9921D01*
X37425D01*
X37468Y9939D01*
X37502Y9972D01*
X37520Y10016D01*
Y10063D01*
X37502Y10106D01*
X37468Y10139D01*
X37425Y10157D01*
D02*
G37*
G36*
X22366Y10277D02*
X22303D01*
X22245Y10253D01*
X22201Y10209D01*
X22177Y10151D01*
Y10089D01*
X22201Y10031D01*
X22245Y9986D01*
X22303Y9962D01*
X22366D01*
X22424Y9986D01*
X22468Y10031D01*
X22492Y10089D01*
Y10151D01*
X22468Y10209D01*
X22424Y10253D01*
X22366Y10277D01*
D02*
G37*
G36*
X13122Y10249D02*
X13059D01*
X13001Y10225D01*
X12957Y10181D01*
X12933Y10123D01*
Y10060D01*
X12930Y10055D01*
X12855D01*
Y9861D01*
X13327D01*
Y10055D01*
X13251D01*
X13248Y10060D01*
Y10123D01*
X13224Y10181D01*
X13180Y10225D01*
X13122Y10249D01*
D02*
G37*
G36*
X3388Y10151D02*
X3326D01*
X3268Y10127D01*
X3224Y10083D01*
X3200Y10025D01*
Y9962D01*
X3224Y9904D01*
X3268Y9860D01*
X3326Y9836D01*
X3388D01*
X3446Y9860D01*
X3491Y9904D01*
X3515Y9962D01*
Y10025D01*
X3491Y10083D01*
X3446Y10127D01*
X3388Y10151D01*
D02*
G37*
G36*
X11454Y10092D02*
X11391D01*
X11333Y10068D01*
X11289Y10024D01*
X11265Y9966D01*
Y9903D01*
X11289Y9845D01*
X11333Y9801D01*
X11391Y9777D01*
X11454D01*
X11511Y9801D01*
X11556Y9845D01*
X11580Y9903D01*
Y9966D01*
X11556Y10024D01*
X11511Y10068D01*
X11454Y10092D01*
D02*
G37*
G36*
X10819D02*
X10756D01*
X10699Y10068D01*
X10654Y10024D01*
X10630Y9966D01*
Y9903D01*
X10654Y9845D01*
X10699Y9801D01*
X10756Y9777D01*
X10819D01*
X10877Y9801D01*
X10921Y9845D01*
X10945Y9903D01*
Y9966D01*
X10921Y10024D01*
X10877Y10068D01*
X10819Y10092D01*
D02*
G37*
G36*
X31140Y9974D02*
X31077D01*
X31019Y9950D01*
X30975Y9906D01*
X30951Y9848D01*
Y9785D01*
X30975Y9727D01*
X31019Y9683D01*
X31077Y9659D01*
X31140D01*
X31198Y9683D01*
X31242Y9727D01*
X31266Y9785D01*
Y9848D01*
X31242Y9906D01*
X31198Y9950D01*
X31140Y9974D01*
D02*
G37*
G36*
X33513Y10152D02*
X33451D01*
X33393Y10128D01*
X33349Y10083D01*
X33325Y10026D01*
X33291Y9959D01*
X33234Y9952D01*
X33224D01*
X33167Y9928D01*
X33122Y9884D01*
X33098Y9826D01*
Y9763D01*
X33122Y9705D01*
X33167Y9661D01*
X33224Y9637D01*
X33287D01*
X33345Y9661D01*
X33389Y9705D01*
X33413Y9763D01*
X33447Y9830D01*
X33504Y9837D01*
X33513D01*
X33571Y9861D01*
X33616Y9905D01*
X33640Y9963D01*
Y10026D01*
X33616Y10083D01*
X33571Y10128D01*
X33513Y10152D01*
D02*
G37*
G36*
X9195Y9665D02*
X9132D01*
X9074Y9641D01*
X9032Y9599D01*
X8990Y9641D01*
X8932Y9665D01*
X8870D01*
X8812Y9641D01*
X8767Y9597D01*
X8743Y9539D01*
Y9488D01*
X8707Y9446D01*
X8665Y9409D01*
X8614D01*
X8556Y9385D01*
X8517Y9347D01*
X8478Y9385D01*
X8420Y9409D01*
X8358D01*
X8300Y9385D01*
X8256Y9341D01*
X8232Y9283D01*
Y9221D01*
X8256Y9163D01*
X8300Y9118D01*
X8358Y9094D01*
X8420D01*
X8423Y9096D01*
X8510Y9008D01*
Y7653D01*
X8517Y7620D01*
X8535Y7592D01*
X8569Y7559D01*
X8569Y7554D01*
X8540Y7448D01*
X8540Y7448D01*
X8506Y7415D01*
X8488Y7372D01*
Y7325D01*
X8506Y7281D01*
X8535Y7253D01*
X8538Y7236D01*
X8556Y7209D01*
X8611Y7154D01*
X8639Y7136D01*
X8671Y7129D01*
X9469D01*
X9501Y7136D01*
X9529Y7154D01*
X9588Y7213D01*
X9606Y7241D01*
X9613Y7274D01*
Y7510D01*
X9606Y7542D01*
X9588Y7570D01*
X9237Y7921D01*
X9243Y8023D01*
X9323Y8077D01*
X9385D01*
X9443Y8101D01*
X9488Y8145D01*
X9512Y8203D01*
Y8266D01*
X9488Y8324D01*
X9443Y8368D01*
X9385Y8392D01*
X9323D01*
X9226Y8458D01*
Y8751D01*
X9238Y8763D01*
X9426D01*
X9441Y8748D01*
X9484Y8730D01*
X9531D01*
X9575Y8748D01*
X9608Y8782D01*
X9626Y8825D01*
Y8872D01*
X9608Y8915D01*
X9575Y8949D01*
X9531Y8967D01*
X9484D01*
X9441Y8949D01*
X9426Y8934D01*
X9364D01*
X9281Y8992D01*
Y9039D01*
X9264Y9083D01*
X9248Y9098D01*
X9253Y9118D01*
X9297Y9163D01*
X9309Y9191D01*
X9412D01*
X9424Y9163D01*
X9468Y9118D01*
X9526Y9094D01*
X9588D01*
X9646Y9118D01*
X9691Y9163D01*
X9715Y9221D01*
Y9283D01*
X9691Y9341D01*
X9646Y9385D01*
X9588Y9409D01*
X9526D01*
X9468Y9385D01*
X9424Y9341D01*
X9419Y9331D01*
X9321Y9327D01*
X9276Y9398D01*
X9297Y9419D01*
X9321Y9477D01*
Y9539D01*
X9297Y9597D01*
X9253Y9641D01*
X9195Y9665D01*
D02*
G37*
G36*
X3909Y9980D02*
X3847D01*
X3789Y9956D01*
X3744Y9912D01*
X3720Y9854D01*
Y9792D01*
X3744Y9734D01*
X3783Y9695D01*
X3744Y9656D01*
X3720Y9598D01*
Y9536D01*
X3744Y9478D01*
X3789Y9433D01*
X3847Y9409D01*
X3909D01*
X3967Y9433D01*
X4011Y9478D01*
X4035Y9536D01*
Y9598D01*
X4011Y9656D01*
X3973Y9695D01*
X4011Y9734D01*
X4035Y9792D01*
Y9854D01*
X4011Y9912D01*
X3967Y9956D01*
X3909Y9980D01*
D02*
G37*
G36*
X22366Y9616D02*
X22303D01*
X22245Y9592D01*
X22201Y9548D01*
X22177Y9490D01*
Y9427D01*
X22201Y9369D01*
X22245Y9325D01*
X22303Y9301D01*
X22366D01*
X22424Y9325D01*
X22468Y9369D01*
X22492Y9427D01*
Y9490D01*
X22468Y9548D01*
X22424Y9592D01*
X22366Y9616D01*
D02*
G37*
G36*
X30508Y9508D02*
X30445D01*
X30387Y9484D01*
X30343Y9440D01*
X30319Y9382D01*
Y9319D01*
X30343Y9261D01*
X30387Y9217D01*
X30445Y9193D01*
X30508D01*
X30566Y9217D01*
X30610Y9261D01*
X30634Y9319D01*
Y9382D01*
X30610Y9440D01*
X30566Y9484D01*
X30508Y9508D01*
D02*
G37*
G36*
X2898Y9915D02*
X2851D01*
X2807Y9897D01*
X2774Y9864D01*
X2756Y9820D01*
Y9773D01*
X2774Y9730D01*
X2788Y9716D01*
Y9484D01*
X2774Y9470D01*
X2756Y9427D01*
Y9380D01*
X2774Y9336D01*
X2807Y9303D01*
X2851Y9285D01*
X2854D01*
X2916Y9245D01*
X2938Y9195D01*
Y9183D01*
X2956Y9140D01*
X2989Y9107D01*
X3033Y9089D01*
X3080D01*
X3123Y9107D01*
X3157Y9140D01*
X3174Y9183D01*
Y9230D01*
X3157Y9274D01*
X3142Y9288D01*
Y9519D01*
X3157Y9534D01*
X3174Y9577D01*
Y9624D01*
X3157Y9667D01*
X3123Y9701D01*
X3080Y9719D01*
X3076D01*
X3015Y9759D01*
X2992Y9808D01*
Y9820D01*
X2974Y9864D01*
X2941Y9897D01*
X2898Y9915D01*
D02*
G37*
G36*
X37521Y9708D02*
X37459D01*
X37401Y9685D01*
X37357Y9640D01*
X37333Y9582D01*
Y9520D01*
X37345Y9490D01*
X37326Y9450D01*
X37298Y9413D01*
X37283Y9401D01*
X37240D01*
X37182Y9377D01*
X37138Y9333D01*
X37114Y9275D01*
Y9212D01*
X37138Y9154D01*
X37182Y9110D01*
X37240Y9086D01*
X37303D01*
X37361Y9110D01*
X37405Y9154D01*
X37429Y9212D01*
Y9275D01*
X37417Y9304D01*
X37436Y9345D01*
X37464Y9381D01*
X37478Y9394D01*
X37521D01*
X37579Y9418D01*
X37624Y9462D01*
X37648Y9520D01*
Y9582D01*
X37624Y9640D01*
X37579Y9685D01*
X37521Y9708D01*
D02*
G37*
G36*
X11114Y9380D02*
X11051D01*
X10993Y9356D01*
X10949Y9312D01*
X10925Y9254D01*
Y9191D01*
X10949Y9133D01*
X10993Y9089D01*
X11051Y9065D01*
X11114D01*
X11172Y9089D01*
X11216Y9133D01*
X11240Y9191D01*
Y9254D01*
X11216Y9312D01*
X11172Y9356D01*
X11114Y9380D01*
D02*
G37*
G36*
X20366Y9616D02*
X20303D01*
X20245Y9592D01*
X20201Y9548D01*
X20177Y9490D01*
Y9427D01*
X20201Y9369D01*
X20235Y9336D01*
X20201Y9302D01*
X20177Y9244D01*
Y9181D01*
X20201Y9123D01*
X20245Y9079D01*
X20303Y9055D01*
X20366D01*
X20424Y9079D01*
X20468Y9123D01*
X20492Y9181D01*
Y9244D01*
X20468Y9302D01*
X20434Y9336D01*
X20468Y9369D01*
X20492Y9427D01*
Y9490D01*
X20468Y9548D01*
X20424Y9592D01*
X20366Y9616D01*
D02*
G37*
G36*
X16866Y9585D02*
X16803D01*
X16745Y9561D01*
X16701Y9516D01*
X16677Y9458D01*
Y9396D01*
X16701Y9338D01*
Y9244D01*
X16691Y9220D01*
X16677Y9186D01*
Y9124D01*
X16701Y9066D01*
X16745Y9022D01*
X16803Y8998D01*
X16866D01*
X16924Y9022D01*
X16968Y9066D01*
X16992Y9124D01*
Y9186D01*
X16968Y9244D01*
Y9338D01*
X16978Y9363D01*
X16992Y9396D01*
Y9458D01*
X16968Y9516D01*
X16924Y9561D01*
X16866Y9585D01*
D02*
G37*
G36*
X34026Y9269D02*
X33964D01*
X33906Y9245D01*
X33861Y9200D01*
X33837Y9142D01*
Y9080D01*
X33861Y9022D01*
X33906Y8978D01*
X33964Y8954D01*
X34026D01*
X34084Y8978D01*
X34128Y9022D01*
X34152Y9080D01*
Y9142D01*
X34128Y9200D01*
X34084Y9245D01*
X34026Y9269D01*
D02*
G37*
G36*
X33063Y9537D02*
X33000D01*
X32942Y9513D01*
X32898Y9469D01*
X32874Y9411D01*
Y9361D01*
X32865Y9339D01*
X32800Y9270D01*
X32774D01*
X32716Y9246D01*
X32672Y9202D01*
X32648Y9144D01*
Y9081D01*
X32672Y9023D01*
X32716Y8979D01*
X32774Y8955D01*
X32836D01*
X32894Y8979D01*
X32939Y9023D01*
X32963Y9081D01*
Y9132D01*
X32972Y9154D01*
X33037Y9222D01*
X33063D01*
X33121Y9246D01*
X33129Y9254D01*
X33227Y9214D01*
Y9158D01*
X33295D01*
X33306Y9142D01*
Y9080D01*
X33330Y9022D01*
X33374Y8978D01*
X33432Y8954D01*
X33495D01*
X33553Y8978D01*
X33597Y9022D01*
X33621Y9080D01*
Y9142D01*
X33631Y9158D01*
X33700D01*
Y9352D01*
X33258D01*
X33196Y9405D01*
X33181Y9431D01*
X33165Y9469D01*
X33121Y9513D01*
X33063Y9537D01*
D02*
G37*
G36*
X15868Y9606D02*
X15805D01*
X15747Y9582D01*
X15703Y9538D01*
X15679Y9480D01*
Y9451D01*
X15676Y9415D01*
X15608Y9360D01*
X15551Y9336D01*
X15506Y9292D01*
X15482Y9234D01*
Y9171D01*
X15421Y9138D01*
X15364Y9114D01*
X15319Y9069D01*
X15295Y9011D01*
Y8949D01*
X15319Y8891D01*
X15364Y8847D01*
X15421Y8823D01*
X15484D01*
X15542Y8847D01*
X15586Y8891D01*
X15610Y8949D01*
Y9011D01*
X15671Y9045D01*
X15729Y9069D01*
X15773Y9114D01*
X15797Y9171D01*
Y9200D01*
X15800Y9237D01*
X15868Y9291D01*
X15926Y9315D01*
X15970Y9360D01*
X15994Y9417D01*
Y9480D01*
X15970Y9538D01*
X15926Y9582D01*
X15868Y9606D01*
D02*
G37*
G36*
X6486Y8932D02*
X6423D01*
X6365Y8908D01*
X6321Y8864D01*
X6297Y8806D01*
Y8743D01*
X6321Y8685D01*
X6365Y8641D01*
X6423Y8617D01*
X6486D01*
X6544Y8641D01*
X6588Y8685D01*
X6612Y8743D01*
Y8806D01*
X6588Y8864D01*
X6544Y8908D01*
X6486Y8932D01*
D02*
G37*
G36*
X30987Y8908D02*
X30924D01*
X30866Y8884D01*
X30822Y8839D01*
X30798Y8782D01*
Y8719D01*
X30822Y8661D01*
X30866Y8617D01*
X30924Y8593D01*
X30987D01*
X31045Y8617D01*
X31098Y8655D01*
X31151Y8617D01*
X31209Y8593D01*
X31272D01*
X31329Y8617D01*
X31374Y8661D01*
X31398Y8719D01*
Y8782D01*
X31374Y8839D01*
X31329Y8884D01*
X31272Y8908D01*
X31209D01*
X31151Y8884D01*
X31098Y8846D01*
X31045Y8884D01*
X30987Y8908D01*
D02*
G37*
G36*
X41721Y8795D02*
Y8492D01*
X42025D01*
X42001Y8579D01*
X41955Y8660D01*
X41889Y8726D01*
X41808Y8772D01*
X41721Y8795D01*
D02*
G37*
G36*
X3389Y8970D02*
X3327D01*
X3269Y8946D01*
X3224Y8902D01*
X3201Y8844D01*
Y8781D01*
X3224Y8723D01*
X3261Y8687D01*
X3220Y8645D01*
X3196Y8587D01*
Y8525D01*
X3220Y8467D01*
X3264Y8422D01*
X3322Y8398D01*
X3384D01*
X3442Y8422D01*
X3487Y8467D01*
X3511Y8525D01*
Y8587D01*
X3487Y8645D01*
X3450Y8682D01*
X3491Y8723D01*
X3515Y8781D01*
Y8844D01*
X3491Y8902D01*
X3447Y8946D01*
X3389Y8970D01*
D02*
G37*
G36*
X26357Y8701D02*
X26295D01*
X26237Y8677D01*
X26193Y8633D01*
X26169Y8575D01*
Y8512D01*
X26193Y8454D01*
X26237Y8410D01*
X26295Y8386D01*
X26357D01*
X26415Y8410D01*
X26460Y8454D01*
X26484Y8512D01*
Y8575D01*
X26460Y8633D01*
X26415Y8677D01*
X26357Y8701D01*
D02*
G37*
G36*
X25357D02*
X25295D01*
X25237Y8677D01*
X25193Y8633D01*
X25169Y8575D01*
Y8512D01*
X25193Y8454D01*
X25237Y8410D01*
X25295Y8386D01*
X25357D01*
X25415Y8410D01*
X25460Y8454D01*
X25484Y8512D01*
Y8575D01*
X25460Y8633D01*
X25415Y8677D01*
X25357Y8701D01*
D02*
G37*
G36*
X24360D02*
X24297D01*
X24239Y8677D01*
X24195Y8633D01*
X24171Y8575D01*
Y8512D01*
X24195Y8454D01*
X24239Y8410D01*
X24297Y8386D01*
X24360D01*
X24418Y8410D01*
X24462Y8454D01*
X24486Y8512D01*
Y8575D01*
X24462Y8633D01*
X24418Y8677D01*
X24360Y8701D01*
D02*
G37*
G36*
X23357D02*
X23295D01*
X23237Y8677D01*
X23193Y8633D01*
X23169Y8575D01*
Y8512D01*
X23193Y8454D01*
X23237Y8410D01*
X23295Y8386D01*
X23357D01*
X23415Y8410D01*
X23460Y8454D01*
X23484Y8512D01*
Y8575D01*
X23460Y8633D01*
X23415Y8677D01*
X23357Y8701D01*
D02*
G37*
G36*
X2561Y8541D02*
X2490D01*
X2425Y8514D01*
X2375Y8464D01*
X2348Y8399D01*
Y8329D01*
X2375Y8263D01*
X2425Y8214D01*
X2490Y8187D01*
X2561D01*
X2626Y8214D01*
X2676Y8263D01*
X2703Y8329D01*
Y8399D01*
X2676Y8464D01*
X2626Y8514D01*
X2561Y8541D01*
D02*
G37*
G36*
X13122Y9159D02*
X13059D01*
X13001Y9135D01*
X12957Y9091D01*
X12933Y9033D01*
Y8970D01*
X12957Y8912D01*
X13001Y8868D01*
X13059Y8844D01*
X13101Y8813D01*
X13105Y8705D01*
X13059Y8663D01*
X13059Y8663D01*
X13052Y8660D01*
X13001Y8639D01*
X12957Y8595D01*
X12933Y8537D01*
Y8475D01*
X12957Y8417D01*
X13001Y8372D01*
X13059Y8348D01*
X13127Y8292D01*
X13130Y8257D01*
Y8227D01*
X13154Y8169D01*
X13198Y8125D01*
X13256Y8101D01*
X13319D01*
X13377Y8125D01*
X13421Y8169D01*
X13445Y8227D01*
Y8290D01*
X13421Y8348D01*
X13377Y8392D01*
X13319Y8416D01*
X13275Y8452D01*
X13273Y8560D01*
X13319Y8602D01*
X13319Y8602D01*
X13326Y8605D01*
X13377Y8626D01*
X13421Y8671D01*
X13445Y8729D01*
Y8791D01*
X13421Y8849D01*
X13377Y8893D01*
X13319Y8917D01*
X13252Y8968D01*
X13248Y9008D01*
Y9033D01*
X13224Y9091D01*
X13180Y9135D01*
X13122Y9159D01*
D02*
G37*
G36*
X13791Y8411D02*
X13729D01*
X13671Y8387D01*
X13626Y8343D01*
X13602Y8285D01*
Y8222D01*
X13626Y8164D01*
X13671Y8120D01*
X13729Y8096D01*
X13791D01*
X13849Y8120D01*
X13893Y8164D01*
X13917Y8222D01*
Y8285D01*
X13893Y8343D01*
X13849Y8387D01*
X13791Y8411D01*
D02*
G37*
G36*
X40759Y13584D02*
X40696D01*
X40638Y13561D01*
X40594Y13516D01*
X40570Y13458D01*
Y13396D01*
X40594Y13338D01*
X40638Y13293D01*
X40696Y13270D01*
X40744D01*
X40885Y13129D01*
X40912Y13110D01*
X40945Y13104D01*
X41126D01*
X41316Y12913D01*
Y9712D01*
X41317Y9708D01*
Y9208D01*
X41213Y9104D01*
X41195Y9077D01*
X41188Y9044D01*
Y4436D01*
X40081Y3329D01*
X24157D01*
X24124Y3323D01*
X24096Y3304D01*
X23826Y3034D01*
X23556Y3304D01*
X23528Y3323D01*
X23496Y3329D01*
X22101D01*
X21581Y3850D01*
X21553Y3868D01*
X21520Y3875D01*
X21312D01*
X21297Y3889D01*
X21254Y3907D01*
X21207D01*
X21163Y3889D01*
X21149Y3875D01*
X20850D01*
X20835Y3890D01*
X20792Y3908D01*
X20745D01*
X20702Y3890D01*
X20668Y3857D01*
X20650Y3813D01*
Y3766D01*
X20668Y3723D01*
X20702Y3690D01*
X20745Y3672D01*
X20792D01*
X20835Y3690D01*
X20850Y3705D01*
X21148D01*
X21163Y3689D01*
X21207Y3671D01*
X21254D01*
X21297Y3689D01*
X21312Y3704D01*
X21485D01*
X22006Y3184D01*
X22033Y3165D01*
X22066Y3159D01*
X23460D01*
X23708Y2911D01*
Y2890D01*
X23726Y2846D01*
X23759Y2813D01*
X23803Y2795D01*
X23850D01*
X23893Y2813D01*
X23926Y2846D01*
X23944Y2890D01*
Y2911D01*
X24192Y3159D01*
X40117D01*
X40149Y3165D01*
X40177Y3184D01*
X41334Y4340D01*
X41352Y4368D01*
X41359Y4401D01*
Y8114D01*
X41441Y8153D01*
X41457Y8156D01*
X41535Y8112D01*
X41621Y8089D01*
Y8442D01*
Y8795D01*
X41535Y8772D01*
X41457Y8727D01*
X41441Y8731D01*
X41359Y8770D01*
Y9009D01*
X41438Y9088D01*
X42026D01*
Y9796D01*
X41487D01*
Y12949D01*
X41480Y12981D01*
X41462Y13009D01*
X41222Y13249D01*
X41194Y13268D01*
X41161Y13274D01*
X40980D01*
X40877Y13377D01*
X40885Y13396D01*
Y13458D01*
X40861Y13516D01*
X40816Y13561D01*
X40759Y13584D01*
D02*
G37*
G36*
X42025Y8392D02*
X41721D01*
Y8089D01*
X41808Y8112D01*
X41889Y8158D01*
X41955Y8224D01*
X42001Y8305D01*
X42025Y8392D01*
D02*
G37*
G36*
X10537Y8224D02*
X10475D01*
X10417Y8200D01*
X10373Y8156D01*
X10349Y8098D01*
Y8036D01*
X10373Y7978D01*
X10417Y7933D01*
X10475Y7909D01*
X10537D01*
X10595Y7933D01*
X10640Y7978D01*
X10663Y8036D01*
Y8098D01*
X10640Y8156D01*
X10595Y8200D01*
X10537Y8224D01*
D02*
G37*
G36*
X7679Y8543D02*
X7616D01*
X7558Y8519D01*
X7514Y8475D01*
X7490Y8417D01*
Y8354D01*
X7514Y8297D01*
X7547Y8264D01*
X7549Y8247D01*
X7544Y8206D01*
X7529Y8158D01*
X7499Y8145D01*
X7455Y8101D01*
X7431Y8043D01*
Y7980D01*
X7455Y7923D01*
X7499Y7878D01*
X7557Y7854D01*
X7620D01*
X7678Y7878D01*
X7722Y7923D01*
X7746Y7980D01*
Y8043D01*
X7722Y8101D01*
X7689Y8134D01*
X7687Y8151D01*
X7692Y8191D01*
X7707Y8240D01*
X7737Y8252D01*
X7781Y8297D01*
X7805Y8354D01*
Y8417D01*
X7781Y8475D01*
X7737Y8519D01*
X7679Y8543D01*
D02*
G37*
G36*
X20050Y8159D02*
X19988D01*
X19930Y8135D01*
X19886Y8091D01*
X19862Y8033D01*
Y7971D01*
X19886Y7913D01*
X19930Y7868D01*
X19988Y7844D01*
X20050D01*
X20108Y7868D01*
X20153Y7913D01*
X20177Y7971D01*
Y8033D01*
X20153Y8091D01*
X20108Y8135D01*
X20050Y8159D01*
D02*
G37*
G36*
X18605D02*
X18543D01*
X18485Y8135D01*
X18440Y8091D01*
X18416Y8033D01*
Y7971D01*
X18440Y7913D01*
X18485Y7868D01*
X18543Y7844D01*
X18605D01*
X18663Y7868D01*
X18707Y7913D01*
X18731Y7971D01*
Y8033D01*
X18707Y8091D01*
X18663Y8135D01*
X18605Y8159D01*
D02*
G37*
G36*
X15858Y8159D02*
X15795D01*
X15738Y8135D01*
X15693Y8091D01*
X15669Y8033D01*
Y7971D01*
X15693Y7913D01*
X15738Y7868D01*
X15795Y7844D01*
X15858D01*
X15916Y7868D01*
X15960Y7913D01*
X15984Y7971D01*
Y8033D01*
X15960Y8091D01*
X15916Y8135D01*
X15858Y8159D01*
D02*
G37*
G36*
X10075Y8152D02*
X10013D01*
X9955Y8128D01*
X9911Y8084D01*
X9887Y8026D01*
Y7963D01*
X9911Y7905D01*
X9955Y7861D01*
X10013Y7837D01*
X10075D01*
X10133Y7861D01*
X10178Y7905D01*
X10202Y7963D01*
Y8026D01*
X10178Y8084D01*
X10133Y8128D01*
X10075Y8152D01*
D02*
G37*
G36*
X2931Y8037D02*
X2498D01*
X2436Y8029D01*
X2379Y8005D01*
X2330Y7967D01*
X2292Y7918D01*
X2268Y7860D01*
X2260Y7799D01*
X2268Y7737D01*
X2292Y7680D01*
X2330Y7630D01*
X2379Y7592D01*
X2436Y7569D01*
X2498Y7561D01*
X2931D01*
X2993Y7569D01*
X3050Y7592D01*
X3100Y7630D01*
X3137Y7680D01*
X3161Y7737D01*
X3169Y7799D01*
X3161Y7860D01*
X3137Y7918D01*
X3100Y7967D01*
X3050Y8005D01*
X2993Y8029D01*
X2931Y8037D01*
D02*
G37*
G36*
X1226D02*
X911D01*
X850Y8029D01*
X792Y8005D01*
X743Y7967D01*
X705Y7918D01*
X681Y7860D01*
X673Y7799D01*
X681Y7737D01*
X705Y7680D01*
X743Y7630D01*
X792Y7592D01*
X850Y7569D01*
X911Y7561D01*
X1226D01*
X1288Y7569D01*
X1346Y7592D01*
X1395Y7630D01*
X1433Y7680D01*
X1457Y7737D01*
X1465Y7799D01*
X1457Y7860D01*
X1433Y7918D01*
X1395Y7967D01*
X1346Y8005D01*
X1288Y8029D01*
X1226Y8037D01*
D02*
G37*
G36*
X23357Y7771D02*
X23295D01*
X23237Y7747D01*
X23193Y7703D01*
X23169Y7645D01*
Y7583D01*
X23193Y7525D01*
X23237Y7480D01*
X23295Y7456D01*
X23357D01*
X23415Y7480D01*
X23460Y7525D01*
X23484Y7583D01*
Y7645D01*
X23460Y7703D01*
X23415Y7747D01*
X23357Y7771D01*
D02*
G37*
G36*
X10625Y7678D02*
X10562D01*
X10504Y7654D01*
X10460Y7609D01*
X10436Y7551D01*
Y7489D01*
X10460Y7431D01*
X10504Y7387D01*
X10562Y7363D01*
X10625D01*
X10683Y7387D01*
X10727Y7431D01*
X10751Y7489D01*
Y7551D01*
X10727Y7609D01*
X10683Y7654D01*
X10625Y7678D01*
D02*
G37*
G36*
X23860Y7589D02*
X23797D01*
X23740Y7565D01*
X23695Y7520D01*
X23671Y7462D01*
Y7400D01*
X23695Y7342D01*
X23740Y7298D01*
X23797Y7274D01*
X23860D01*
X23918Y7298D01*
X23962Y7342D01*
X23986Y7400D01*
Y7462D01*
X23962Y7520D01*
X23918Y7565D01*
X23860Y7589D01*
D02*
G37*
G36*
X12645Y7935D02*
X12583D01*
X12525Y7911D01*
X12481Y7867D01*
X12457Y7809D01*
Y7747D01*
X12481Y7689D01*
X12525Y7644D01*
X12530Y7642D01*
Y7536D01*
X12518Y7531D01*
X12474Y7486D01*
X12450Y7428D01*
Y7366D01*
X12474Y7308D01*
X12518Y7264D01*
X12576Y7240D01*
X12639D01*
X12697Y7264D01*
X12741Y7308D01*
X12742Y7310D01*
X12848D01*
X12849Y7308D01*
X12893Y7264D01*
X12951Y7240D01*
X13014D01*
X13071Y7264D01*
X13116Y7308D01*
X13140Y7366D01*
Y7428D01*
X13116Y7486D01*
X13071Y7531D01*
X13067Y7533D01*
Y7639D01*
X13071Y7641D01*
X13116Y7685D01*
X13140Y7743D01*
Y7806D01*
X13116Y7864D01*
X13071Y7908D01*
X13014Y7932D01*
X12951D01*
X12893Y7908D01*
X12849Y7864D01*
X12748Y7867D01*
X12703Y7911D01*
X12645Y7935D01*
D02*
G37*
G36*
X22590Y7392D02*
X22528D01*
X22470Y7368D01*
X22426Y7323D01*
X22402Y7266D01*
Y7203D01*
X22426Y7145D01*
X22470Y7101D01*
X22528Y7077D01*
X22590D01*
X22648Y7101D01*
X22693Y7145D01*
X22717Y7203D01*
Y7266D01*
X22693Y7323D01*
X22648Y7368D01*
X22590Y7392D01*
D02*
G37*
G36*
X24360Y7200D02*
X24297D01*
X24239Y7176D01*
X24195Y7131D01*
X24171Y7073D01*
Y7011D01*
X24195Y6953D01*
X24239Y6909D01*
X24297Y6885D01*
X24360D01*
X24418Y6909D01*
X24462Y6953D01*
X24486Y7011D01*
Y7073D01*
X24462Y7131D01*
X24418Y7176D01*
X24360Y7200D01*
D02*
G37*
G36*
X5835Y6949D02*
X5772D01*
X5715Y6925D01*
X5666Y6884D01*
X5617Y6925D01*
X5559Y6949D01*
X5496D01*
X5438Y6925D01*
X5394Y6881D01*
X5370Y6823D01*
Y6760D01*
X5394Y6702D01*
X5438Y6658D01*
X5496Y6634D01*
X5559D01*
X5617Y6658D01*
X5666Y6698D01*
X5715Y6658D01*
X5772Y6634D01*
X5835D01*
X5893Y6658D01*
X5937Y6702D01*
X5961Y6760D01*
Y6823D01*
X5937Y6881D01*
X5893Y6925D01*
X5835Y6949D01*
D02*
G37*
G36*
X11010Y7161D02*
X10947D01*
X10889Y7137D01*
X10845Y7093D01*
X10821Y7035D01*
Y6973D01*
X10845Y6915D01*
X10889Y6870D01*
X10947Y6846D01*
X11010D01*
X11068Y6870D01*
X11112Y6915D01*
X11136Y6973D01*
Y7035D01*
X11112Y7093D01*
X11068Y7137D01*
X11010Y7161D01*
D02*
G37*
G36*
X24855Y7012D02*
X24792D01*
X24734Y6988D01*
X24690Y6944D01*
X24666Y6886D01*
Y6823D01*
X24690Y6766D01*
X24734Y6721D01*
X24792Y6697D01*
X24855D01*
X24912Y6721D01*
X24957Y6766D01*
X24981Y6823D01*
Y6886D01*
X24957Y6944D01*
X24912Y6988D01*
X24855Y7012D01*
D02*
G37*
G36*
X7088Y7589D02*
X7026D01*
X6968Y7565D01*
X6924Y7520D01*
X6900Y7462D01*
Y7400D01*
X6924Y7342D01*
X6968Y7298D01*
X7026Y7274D01*
X7088D01*
X7090Y7274D01*
X7164Y7199D01*
X7156Y7177D01*
Y7114D01*
X7179Y7056D01*
X7204Y7032D01*
X7204Y6944D01*
X7196Y6917D01*
X7160Y6881D01*
X7136Y6823D01*
Y6760D01*
X7160Y6702D01*
X7204Y6658D01*
X7262Y6634D01*
X7325D01*
X7383Y6658D01*
X7427Y6702D01*
X7451Y6760D01*
Y6823D01*
X7427Y6881D01*
X7402Y6905D01*
X7402Y6993D01*
X7410Y7020D01*
X7447Y7056D01*
X7470Y7114D01*
Y7177D01*
X7447Y7235D01*
X7402Y7279D01*
X7344Y7303D01*
X7282D01*
X7280Y7302D01*
X7206Y7378D01*
X7215Y7400D01*
Y7462D01*
X7191Y7520D01*
X7146Y7565D01*
X7088Y7589D01*
D02*
G37*
G36*
X31567Y7283D02*
X31504D01*
X31446Y7259D01*
X31402Y7215D01*
X31378Y7157D01*
Y7095D01*
X31402Y7037D01*
X31446Y6992D01*
X31504Y6969D01*
X31560D01*
X31576Y6951D01*
X31612Y6881D01*
X31607Y6876D01*
X31587Y6856D01*
X31563Y6798D01*
Y6735D01*
X31587Y6678D01*
X31631Y6633D01*
X31689Y6609D01*
X31752D01*
X31810Y6633D01*
X31854Y6678D01*
X31878Y6735D01*
Y6798D01*
X31854Y6856D01*
X31810Y6900D01*
X31752Y6924D01*
X31696D01*
X31680Y6942D01*
X31644Y7012D01*
X31649Y7017D01*
X31669Y7037D01*
X31693Y7095D01*
Y7157D01*
X31669Y7215D01*
X31625Y7259D01*
X31567Y7283D01*
D02*
G37*
G36*
X25355Y6814D02*
X25292D01*
X25234Y6790D01*
X25190Y6746D01*
X25166Y6688D01*
Y6625D01*
X25190Y6567D01*
X25234Y6523D01*
X25292Y6499D01*
X25355D01*
X25412Y6523D01*
X25457Y6567D01*
X25481Y6625D01*
Y6688D01*
X25457Y6746D01*
X25412Y6790D01*
X25355Y6814D01*
D02*
G37*
G36*
X25857Y6625D02*
X25794D01*
X25736Y6601D01*
X25692Y6557D01*
X25668Y6499D01*
Y6436D01*
X25692Y6378D01*
X25736Y6334D01*
X25794Y6310D01*
X25857D01*
X25915Y6334D01*
X25959Y6378D01*
X25983Y6436D01*
Y6499D01*
X25959Y6557D01*
X25915Y6601D01*
X25857Y6625D01*
D02*
G37*
G36*
X7108Y6516D02*
X7045D01*
X6988Y6492D01*
X6943Y6447D01*
X6919Y6390D01*
Y6327D01*
X6925Y6313D01*
X6873Y6216D01*
X6805Y6209D01*
X6728Y6287D01*
X6700Y6305D01*
X6667Y6312D01*
X6438D01*
X6423Y6327D01*
X6380Y6344D01*
X6333D01*
X6289Y6327D01*
X6256Y6293D01*
X6238Y6250D01*
Y6203D01*
X6256Y6159D01*
X6280Y6135D01*
X6256Y6111D01*
X6238Y6068D01*
Y6021D01*
X6256Y5977D01*
X6289Y5944D01*
X6333Y5926D01*
X6380D01*
X6423Y5944D01*
X6438Y5959D01*
X6637D01*
X6697Y5898D01*
X6709Y5797D01*
X6665Y5753D01*
X6641Y5695D01*
Y5632D01*
X6634Y5549D01*
X6601Y5516D01*
X6583Y5472D01*
Y5425D01*
X6601Y5382D01*
X6634Y5349D01*
X6677Y5331D01*
X6698D01*
X6777Y5252D01*
X6804Y5233D01*
X6837Y5227D01*
X6917Y5161D01*
Y5099D01*
X6941Y5041D01*
X6982Y5000D01*
X6943Y4961D01*
X6919Y4903D01*
Y4841D01*
X6943Y4783D01*
X6988Y4739D01*
X7045Y4715D01*
X7108D01*
X7166Y4739D01*
X7210Y4783D01*
X7234Y4841D01*
Y4903D01*
X7232Y4908D01*
X7665Y5340D01*
X7685D01*
X7728Y5358D01*
X7762Y5392D01*
X7780Y5435D01*
Y5482D01*
X7762Y5525D01*
X7728Y5559D01*
X7714Y5564D01*
Y5667D01*
X7728Y5673D01*
X7762Y5706D01*
X7780Y5750D01*
Y5797D01*
X7762Y5840D01*
X7728Y5874D01*
X7702Y5885D01*
X7700Y5893D01*
Y5975D01*
X7702Y5983D01*
X7728Y5994D01*
X7762Y6027D01*
X7780Y6071D01*
Y6118D01*
X7762Y6161D01*
X7728Y6194D01*
X7685Y6212D01*
X7638D01*
X7595Y6194D01*
X7580Y6180D01*
X7260D01*
X7230Y6234D01*
X7214Y6278D01*
X7234Y6327D01*
Y6390D01*
X7210Y6447D01*
X7166Y6492D01*
X7108Y6516D01*
D02*
G37*
G36*
X11468Y6482D02*
X11406D01*
X11348Y6458D01*
X11303Y6414D01*
X11280Y6356D01*
Y6293D01*
X11303Y6235D01*
X11348Y6191D01*
X11406Y6167D01*
X11468D01*
X11526Y6191D01*
X11571Y6235D01*
X11594Y6293D01*
Y6356D01*
X11571Y6414D01*
X11526Y6458D01*
X11468Y6482D01*
D02*
G37*
G36*
X36962Y6479D02*
X36899D01*
X36842Y6455D01*
X36797Y6411D01*
X36773Y6353D01*
Y6291D01*
X36797Y6233D01*
X36842Y6188D01*
X36899Y6164D01*
X36962D01*
X37020Y6188D01*
X37064Y6233D01*
X37088Y6291D01*
Y6353D01*
X37064Y6411D01*
X37020Y6455D01*
X36962Y6479D01*
D02*
G37*
G36*
X32919D02*
X32856D01*
X32798Y6455D01*
X32754Y6411D01*
X32730Y6353D01*
Y6291D01*
X32754Y6233D01*
X32798Y6188D01*
X32856Y6164D01*
X32919D01*
X32977Y6188D01*
X33021Y6233D01*
X33045Y6291D01*
Y6353D01*
X33021Y6411D01*
X32977Y6455D01*
X32919Y6479D01*
D02*
G37*
G36*
X26364Y6442D02*
X26302D01*
X26244Y6418D01*
X26200Y6374D01*
X26176Y6316D01*
Y6253D01*
X26200Y6195D01*
X26244Y6151D01*
X26302Y6127D01*
X26364D01*
X26422Y6151D01*
X26467Y6195D01*
X26491Y6253D01*
Y6316D01*
X26467Y6374D01*
X26422Y6418D01*
X26364Y6442D01*
D02*
G37*
G36*
X10576Y6322D02*
X10513D01*
X10455Y6298D01*
X10411Y6254D01*
X10387Y6196D01*
Y6134D01*
X10411Y6076D01*
X10455Y6031D01*
X10513Y6007D01*
X10576D01*
X10633Y6031D01*
X10678Y6076D01*
X10702Y6134D01*
Y6196D01*
X10678Y6254D01*
X10633Y6298D01*
X10576Y6322D01*
D02*
G37*
G36*
X13014Y5881D02*
X12951D01*
X12893Y5857D01*
X12849Y5813D01*
X12848Y5811D01*
X12742D01*
X12741Y5813D01*
X12697Y5857D01*
X12639Y5881D01*
X12576D01*
X12518Y5857D01*
X12474Y5813D01*
X12450Y5755D01*
Y5693D01*
X12474Y5635D01*
X12518Y5590D01*
X12576Y5566D01*
X12639D01*
X12697Y5590D01*
X12741Y5635D01*
X12742Y5636D01*
X12848D01*
X12849Y5635D01*
X12893Y5590D01*
X12951Y5566D01*
X13014D01*
X13071Y5590D01*
X13116Y5635D01*
X13140Y5693D01*
Y5755D01*
X13116Y5813D01*
X13071Y5857D01*
X13014Y5881D01*
D02*
G37*
G36*
X10976Y5620D02*
X10914D01*
X10856Y5596D01*
X10812Y5552D01*
X10768Y5596D01*
X10710Y5620D01*
X10648D01*
X10590Y5596D01*
X10546Y5552D01*
X10522Y5494D01*
Y5431D01*
X10546Y5373D01*
X10583Y5320D01*
X10546Y5266D01*
X10522Y5208D01*
Y5146D01*
X10546Y5088D01*
X10590Y5044D01*
X10648Y5020D01*
X10710D01*
X10768Y5044D01*
X10813Y5088D01*
X10837Y5146D01*
Y5208D01*
X10826Y5235D01*
X10895Y5313D01*
X10914Y5305D01*
X10976D01*
X11034Y5329D01*
X11078Y5373D01*
X11102Y5431D01*
Y5494D01*
X11078Y5552D01*
X11034Y5596D01*
X10976Y5620D01*
D02*
G37*
G36*
X11626Y6043D02*
X11563D01*
X11505Y6019D01*
X11461Y5975D01*
X11437Y5917D01*
Y5854D01*
X11355Y5796D01*
X11348Y5793D01*
X11303Y5749D01*
X11280Y5691D01*
Y5628D01*
X11303Y5570D01*
X11348Y5526D01*
X11406Y5502D01*
X11468D01*
X11523Y5525D01*
X11557Y5513D01*
X11614Y5475D01*
Y5431D01*
X11638Y5373D01*
X11682Y5329D01*
X11740Y5305D01*
X11803D01*
X11861Y5329D01*
X11900Y5368D01*
X11938Y5329D01*
X11996Y5305D01*
X12059D01*
X12117Y5329D01*
X12161Y5373D01*
X12185Y5431D01*
Y5494D01*
X12161Y5552D01*
X12117Y5596D01*
X12059Y5620D01*
X11996D01*
X11938Y5596D01*
X11900Y5557D01*
X11861Y5596D01*
X11803Y5620D01*
X11740D01*
X11649Y5689D01*
X11648Y5729D01*
X11677Y5749D01*
X11684Y5752D01*
X11728Y5797D01*
X11752Y5854D01*
Y5917D01*
X11728Y5975D01*
X11684Y6019D01*
X11626Y6043D01*
D02*
G37*
G36*
X5007Y5502D02*
X4813D01*
Y5030D01*
X5007D01*
Y5502D01*
D02*
G37*
G36*
X10225Y5382D02*
X10163D01*
X10105Y5358D01*
X10061Y5314D01*
X10037Y5256D01*
Y5193D01*
X10061Y5135D01*
X10081Y5115D01*
X10048Y5016D01*
X9400D01*
X9307Y5110D01*
Y5203D01*
X9307Y5204D01*
Y5213D01*
X9300Y5246D01*
X9282Y5273D01*
X9206Y5349D01*
X9178Y5368D01*
X9146Y5374D01*
X8827D01*
X8795Y5368D01*
X8767Y5349D01*
X8707Y5289D01*
X8689Y5262D01*
X8682Y5229D01*
Y5229D01*
X8664Y5210D01*
X8646Y5167D01*
Y5120D01*
X8664Y5077D01*
X8697Y5043D01*
X8688Y4940D01*
X8625Y4877D01*
X8607Y4849D01*
X8600Y4817D01*
Y4768D01*
X8525Y4692D01*
X8463D01*
X8405Y4668D01*
X8361Y4624D01*
X8337Y4566D01*
Y4503D01*
X8361Y4445D01*
X8405Y4401D01*
X8463Y4377D01*
X8525D01*
X8581Y4344D01*
X8625Y4260D01*
X8607Y4216D01*
Y4169D01*
X8625Y4126D01*
X8658Y4093D01*
X8702Y4075D01*
X8750Y4061D01*
X8756Y4012D01*
X8774Y3969D01*
X8807Y3935D01*
X8850Y3917D01*
X8897D01*
X8941Y3935D01*
X8974Y3969D01*
X8992Y4012D01*
Y4059D01*
X8974Y4102D01*
X8959Y4117D01*
Y4244D01*
X9015Y4269D01*
X9058Y4274D01*
X9082Y4250D01*
X9125Y4232D01*
X9172D01*
X9216Y4250D01*
X9249Y4283D01*
X9267Y4327D01*
Y4348D01*
X9297Y4378D01*
X9315Y4405D01*
X9322Y4438D01*
Y4624D01*
X9438Y4740D01*
X9629D01*
X9669Y4642D01*
X9654Y4626D01*
X9630Y4569D01*
Y4506D01*
X9654Y4448D01*
X9698Y4404D01*
X9756Y4380D01*
X9819D01*
X9877Y4404D01*
X9919Y4446D01*
X9922Y4445D01*
X9966Y4401D01*
X10024Y4377D01*
X10086D01*
X10144Y4401D01*
X10189Y4445D01*
X10195Y4460D01*
X10219Y4471D01*
X10303Y4480D01*
X10317Y4467D01*
X10360Y4449D01*
X10407D01*
X10451Y4467D01*
X10484Y4500D01*
X10502Y4543D01*
Y4590D01*
X10484Y4634D01*
X10469Y4649D01*
Y4734D01*
X10463Y4767D01*
X10444Y4795D01*
X10263Y4976D01*
X10263Y5042D01*
X10278Y5089D01*
X10283Y5091D01*
X10328Y5135D01*
X10352Y5193D01*
Y5256D01*
X10328Y5314D01*
X10283Y5358D01*
X10225Y5382D01*
D02*
G37*
G36*
X20041Y5246D02*
X19979D01*
X19921Y5222D01*
X19876Y5178D01*
X19852Y5120D01*
Y5057D01*
X19876Y4999D01*
X19921Y4955D01*
X19979Y4931D01*
X20041D01*
X20099Y4955D01*
X20143Y4999D01*
X20167Y5057D01*
Y5120D01*
X20143Y5178D01*
X20099Y5222D01*
X20041Y5246D01*
D02*
G37*
G36*
X5809Y5241D02*
X5746D01*
X5688Y5217D01*
X5644Y5173D01*
X5620Y5115D01*
Y5052D01*
X5644Y4994D01*
X5688Y4950D01*
X5746Y4926D01*
X5809D01*
X5867Y4950D01*
X5911Y4994D01*
X5935Y5052D01*
Y5115D01*
X5911Y5173D01*
X5867Y5217D01*
X5809Y5241D01*
D02*
G37*
G36*
X18980Y4927D02*
X18917D01*
X18860Y4903D01*
X18828Y4871D01*
X18771Y4864D01*
X18714Y4871D01*
X18682Y4903D01*
X18624Y4927D01*
X18562D01*
X18504Y4903D01*
X18459Y4858D01*
X18435Y4800D01*
Y4738D01*
X18459Y4680D01*
X18504Y4636D01*
X18562Y4612D01*
X18624D01*
X18682Y4636D01*
X18714Y4667D01*
X18771Y4674D01*
X18828Y4667D01*
X18860Y4636D01*
X18917Y4612D01*
X18980D01*
X19038Y4636D01*
X19082Y4680D01*
X19106Y4738D01*
Y4800D01*
X19082Y4858D01*
X19038Y4903D01*
X18980Y4927D01*
D02*
G37*
G36*
X19189Y5364D02*
X19142D01*
X19098Y5346D01*
X19065Y5313D01*
X19047Y5270D01*
Y5223D01*
X19065Y5179D01*
X19098Y5146D01*
X19142Y5128D01*
X19163D01*
X19289Y5001D01*
X19278Y4975D01*
Y4928D01*
X19296Y4885D01*
X19330Y4852D01*
X19373Y4834D01*
X19420D01*
X19463Y4852D01*
X19497Y4885D01*
X19515Y4928D01*
Y4975D01*
X19497Y5019D01*
X19464Y5051D01*
X19462Y5061D01*
X19444Y5088D01*
X19283Y5249D01*
Y5270D01*
X19265Y5313D01*
X19232Y5346D01*
X19189Y5364D01*
D02*
G37*
G36*
X8015Y4892D02*
X7953D01*
X7895Y4868D01*
X7851Y4824D01*
X7847Y4816D01*
X7741D01*
X7738Y4824D01*
X7693Y4868D01*
X7635Y4892D01*
X7573D01*
X7515Y4868D01*
X7471Y4824D01*
X7447Y4766D01*
Y4703D01*
X7471Y4645D01*
X7481Y4564D01*
X7457Y4506D01*
Y4444D01*
X7481Y4386D01*
X7525Y4341D01*
X7583Y4317D01*
X7646D01*
X7703Y4341D01*
X7748Y4386D01*
X7850Y4376D01*
X7851Y4375D01*
X7895Y4331D01*
X7953Y4307D01*
X8015D01*
X8073Y4331D01*
X8118Y4375D01*
X8142Y4433D01*
Y4496D01*
X8118Y4554D01*
Y4645D01*
X8128Y4672D01*
X8142Y4703D01*
Y4766D01*
X8118Y4824D01*
X8073Y4868D01*
X8015Y4892D01*
D02*
G37*
G36*
X11716Y4941D02*
X11669D01*
X11626Y4923D01*
X11593Y4890D01*
X11575Y4846D01*
Y4799D01*
X11593Y4756D01*
X11626Y4723D01*
X11669Y4705D01*
X11716D01*
X11760Y4723D01*
X11775Y4738D01*
X12002D01*
X12081Y4659D01*
Y4638D01*
X12099Y4595D01*
X12132Y4561D01*
X12175Y4543D01*
X12222D01*
X12266Y4561D01*
X12299Y4595D01*
X12317Y4638D01*
Y4685D01*
X12299Y4728D01*
X12266Y4762D01*
X12222Y4780D01*
X12201D01*
X12098Y4883D01*
X12070Y4902D01*
X12037Y4908D01*
X11775D01*
X11760Y4923D01*
X11716Y4941D01*
D02*
G37*
G36*
X5671Y4587D02*
X5608D01*
X5551Y4563D01*
X5512Y4524D01*
X5473Y4563D01*
X5415Y4587D01*
X5353D01*
X5295Y4563D01*
X5256Y4524D01*
X5217Y4563D01*
X5159Y4587D01*
X5097D01*
X5039Y4563D01*
X5000Y4524D01*
X4961Y4563D01*
X4903Y4587D01*
X4841D01*
X4783Y4563D01*
X4739Y4518D01*
X4715Y4460D01*
Y4398D01*
X4739Y4340D01*
X4783Y4296D01*
X4841Y4272D01*
X4903D01*
X4961Y4296D01*
X5000Y4334D01*
X5039Y4296D01*
X5097Y4272D01*
X5159D01*
X5217Y4296D01*
X5256Y4334D01*
X5295Y4296D01*
X5353Y4272D01*
X5415D01*
X5473Y4296D01*
X5512Y4334D01*
X5551Y4296D01*
X5608Y4272D01*
X5671D01*
X5729Y4296D01*
X5773Y4340D01*
X5797Y4398D01*
Y4460D01*
X5773Y4518D01*
X5729Y4563D01*
X5671Y4587D01*
D02*
G37*
G36*
X20348Y4815D02*
X20301D01*
X20258Y4797D01*
X20224Y4764D01*
X20206Y4721D01*
Y4700D01*
X19854Y4348D01*
X19668D01*
X19654Y4362D01*
X19610Y4380D01*
X19563D01*
X19520Y4362D01*
X19486Y4329D01*
X19468Y4285D01*
Y4238D01*
X19486Y4195D01*
X19520Y4162D01*
X19563Y4144D01*
X19610D01*
X19654Y4162D01*
X19668Y4176D01*
X19889D01*
X19922Y4183D01*
X19950Y4201D01*
X20328Y4579D01*
X20348D01*
X20391Y4597D01*
X20425Y4630D01*
X20443Y4674D01*
Y4721D01*
X20425Y4764D01*
X20391Y4797D01*
X20348Y4815D01*
D02*
G37*
G36*
X12462Y4336D02*
X12400D01*
X12342Y4312D01*
X12297Y4269D01*
X12241Y4302D01*
X12183Y4326D01*
X12120D01*
X12062Y4302D01*
X12018Y4258D01*
X11994Y4200D01*
Y4137D01*
X12018Y4079D01*
X12062Y4035D01*
X12120Y4011D01*
X12183D01*
X12241Y4035D01*
X12286Y4079D01*
X12342Y4045D01*
X12400Y4021D01*
X12462D01*
X12520Y4045D01*
X12565Y4090D01*
X12589Y4148D01*
Y4210D01*
X12565Y4268D01*
X12520Y4312D01*
X12462Y4336D01*
D02*
G37*
G36*
X22541Y4690D02*
X22479D01*
X22421Y4666D01*
X22376Y4622D01*
X22352Y4564D01*
Y4501D01*
X22376Y4443D01*
X22419Y4397D01*
X22376Y4351D01*
X22352Y4293D01*
Y4230D01*
X22376Y4173D01*
X22421Y4128D01*
X22479Y4104D01*
X22541D01*
X22599Y4128D01*
X22643Y4173D01*
X22667Y4230D01*
Y4293D01*
X22643Y4351D01*
X22601Y4397D01*
X22643Y4443D01*
X22667Y4501D01*
Y4564D01*
X22643Y4622D01*
X22599Y4666D01*
X22541Y4690D01*
D02*
G37*
G36*
X11557Y4321D02*
X11494D01*
X11436Y4297D01*
X11392Y4253D01*
X11368Y4195D01*
Y4132D01*
X11392Y4074D01*
X11436Y4030D01*
X11494Y4006D01*
X11557D01*
X11615Y4030D01*
X11659Y4074D01*
X11683Y4132D01*
Y4195D01*
X11659Y4253D01*
X11615Y4297D01*
X11557Y4321D01*
D02*
G37*
G36*
X6144Y4173D02*
X6081D01*
X6023Y4149D01*
X5979Y4105D01*
X5955Y4047D01*
Y3984D01*
X5979Y3927D01*
X6023Y3882D01*
X6024Y3882D01*
Y3775D01*
X6023Y3775D01*
X5979Y3731D01*
X5955Y3673D01*
Y3610D01*
X5979Y3553D01*
X6023Y3508D01*
X6081Y3484D01*
X6144D01*
X6201Y3508D01*
X6246Y3553D01*
X6270Y3610D01*
Y3673D01*
X6246Y3731D01*
X6242Y3735D01*
X6249Y3839D01*
X6255Y3852D01*
X6299Y3868D01*
X6347Y3848D01*
X6409D01*
X6467Y3872D01*
X6511Y3917D01*
X6535Y3975D01*
Y4037D01*
X6511Y4095D01*
X6467Y4139D01*
X6409Y4163D01*
X6347D01*
X6289Y4139D01*
X6201Y4149D01*
X6144Y4173D01*
D02*
G37*
G36*
X19697Y4006D02*
X19634D01*
X19576Y3982D01*
X19532Y3938D01*
X19508Y3880D01*
Y3817D01*
X19532Y3759D01*
X19576Y3715D01*
X19634Y3691D01*
X19697D01*
X19755Y3715D01*
X19799Y3759D01*
X19823Y3817D01*
Y3880D01*
X19799Y3938D01*
X19755Y3982D01*
X19697Y4006D01*
D02*
G37*
G36*
X20199Y3483D02*
X20136D01*
X20078Y3459D01*
X20034Y3415D01*
X20010Y3357D01*
Y3295D01*
X20034Y3237D01*
X20078Y3192D01*
X20136Y3168D01*
X20199D01*
X20256Y3192D01*
X20301Y3237D01*
X20325Y3295D01*
Y3357D01*
X20301Y3415D01*
X20256Y3459D01*
X20199Y3483D01*
D02*
G37*
G36*
X22357Y3041D02*
X22295D01*
X22237Y3017D01*
X22193Y2973D01*
X22169Y2915D01*
Y2853D01*
X22193Y2795D01*
X22237Y2750D01*
X22295Y2726D01*
X22357D01*
X22415Y2750D01*
X22460Y2795D01*
X22484Y2853D01*
Y2915D01*
X22460Y2973D01*
X22415Y3017D01*
X22357Y3041D01*
D02*
G37*
G36*
X26364Y3040D02*
X26302D01*
X26244Y3016D01*
X26200Y2971D01*
X26176Y2913D01*
Y2851D01*
X26200Y2793D01*
X26244Y2749D01*
X26302Y2725D01*
X26364D01*
X26422Y2749D01*
X26467Y2793D01*
X26491Y2851D01*
Y2913D01*
X26467Y2971D01*
X26422Y3016D01*
X26364Y3040D01*
D02*
G37*
G36*
X25859D02*
X25796D01*
X25738Y3016D01*
X25694Y2971D01*
X25670Y2913D01*
Y2851D01*
X25694Y2793D01*
X25738Y2749D01*
X25796Y2725D01*
X25859D01*
X25916Y2749D01*
X25961Y2793D01*
X25985Y2851D01*
Y2913D01*
X25961Y2971D01*
X25916Y3016D01*
X25859Y3040D01*
D02*
G37*
G36*
X25357D02*
X25295D01*
X25237Y3016D01*
X25193Y2971D01*
X25169Y2913D01*
Y2851D01*
X25193Y2793D01*
X25237Y2749D01*
X25295Y2725D01*
X25357D01*
X25415Y2749D01*
X25460Y2793D01*
X25484Y2851D01*
Y2913D01*
X25460Y2971D01*
X25415Y3016D01*
X25357Y3040D01*
D02*
G37*
G36*
X24862D02*
X24799D01*
X24741Y3016D01*
X24697Y2971D01*
X24673Y2913D01*
Y2851D01*
X24697Y2793D01*
X24741Y2749D01*
X24799Y2725D01*
X24862D01*
X24920Y2749D01*
X24964Y2793D01*
X24988Y2851D01*
Y2913D01*
X24964Y2971D01*
X24920Y3016D01*
X24862Y3040D01*
D02*
G37*
G36*
X24357D02*
X24294D01*
X24236Y3016D01*
X24192Y2971D01*
X24168Y2913D01*
Y2851D01*
X24192Y2793D01*
X24236Y2749D01*
X24294Y2725D01*
X24357D01*
X24415Y2749D01*
X24459Y2793D01*
X24483Y2851D01*
Y2913D01*
X24459Y2971D01*
X24415Y3016D01*
X24357Y3040D01*
D02*
G37*
G36*
X21857Y2854D02*
X21795D01*
X21737Y2830D01*
X21693Y2786D01*
X21669Y2728D01*
Y2666D01*
X21693Y2608D01*
X21737Y2563D01*
X21795Y2539D01*
X21857D01*
X21915Y2563D01*
X21960Y2608D01*
X21984Y2666D01*
Y2728D01*
X21960Y2786D01*
X21915Y2830D01*
X21857Y2854D01*
D02*
G37*
G36*
X40387Y2739D02*
X40325D01*
X40267Y2715D01*
X40223Y2671D01*
X40199Y2613D01*
Y2551D01*
X40223Y2493D01*
X40267Y2448D01*
X40325Y2424D01*
X40387D01*
X40445Y2448D01*
X40490Y2493D01*
X40513Y2551D01*
Y2613D01*
X40490Y2671D01*
X40445Y2715D01*
X40387Y2739D01*
D02*
G37*
G36*
X32919D02*
X32856D01*
X32798Y2715D01*
X32754Y2671D01*
X32730Y2613D01*
Y2551D01*
X32754Y2493D01*
X32798Y2448D01*
X32856Y2424D01*
X32919D01*
X32977Y2448D01*
X33021Y2493D01*
X33045Y2551D01*
Y2613D01*
X33021Y2671D01*
X32977Y2715D01*
X32919Y2739D01*
D02*
G37*
G36*
X10401Y2313D02*
X10339D01*
X10281Y2289D01*
X10237Y2246D01*
X10194Y2289D01*
X10136Y2313D01*
X10074D01*
X10016Y2289D01*
X9974Y2247D01*
X9932Y2289D01*
X9874Y2313D01*
X9812D01*
X9754Y2289D01*
X9710Y2245D01*
X9686Y2187D01*
Y2124D01*
X9710Y2066D01*
X9754Y2022D01*
X9812Y1998D01*
X9874D01*
X9932Y2022D01*
X9974Y2064D01*
X10016Y2022D01*
X10074Y1998D01*
X10136D01*
X10194Y2022D01*
X10237Y2065D01*
X10281Y2022D01*
X10339Y1998D01*
X10401D01*
X10459Y2022D01*
X10503Y2066D01*
X10527Y2124D01*
Y2187D01*
X10503Y2245D01*
X10459Y2289D01*
X10401Y2313D01*
D02*
G37*
G36*
X5635Y1829D02*
X5573D01*
X5515Y1805D01*
X5471Y1761D01*
X5447Y1703D01*
Y1640D01*
X5471Y1582D01*
X5515Y1538D01*
X5573Y1514D01*
X5635D01*
X5693Y1538D01*
X5738Y1582D01*
X5762Y1640D01*
Y1703D01*
X5738Y1761D01*
X5693Y1805D01*
X5635Y1829D01*
D02*
G37*
G36*
X5135D02*
X5073D01*
X5015Y1805D01*
X4971Y1761D01*
X4947Y1703D01*
Y1640D01*
X4971Y1582D01*
X5015Y1538D01*
X5073Y1514D01*
X5135D01*
X5193Y1538D01*
X5238Y1582D01*
X5262Y1640D01*
Y1703D01*
X5238Y1761D01*
X5193Y1805D01*
X5135Y1829D01*
D02*
G37*
G36*
X11693Y1781D02*
X11630D01*
X11572Y1758D01*
X11528Y1713D01*
X11504Y1655D01*
Y1593D01*
X11528Y1535D01*
X11572Y1491D01*
X11630Y1467D01*
X11693D01*
X11751Y1491D01*
X11795Y1535D01*
X11819Y1593D01*
Y1655D01*
X11795Y1713D01*
X11751Y1758D01*
X11693Y1781D01*
D02*
G37*
G36*
X8148Y1777D02*
X8085D01*
X8027Y1754D01*
X7983Y1709D01*
X7959Y1651D01*
Y1589D01*
X7983Y1531D01*
X8027Y1487D01*
X8085Y1463D01*
X8148D01*
X8206Y1487D01*
X8250Y1531D01*
X8274Y1589D01*
Y1651D01*
X8250Y1709D01*
X8206Y1754D01*
X8148Y1777D01*
D02*
G37*
G36*
X11147Y1721D02*
X11080D01*
X11015Y1703D01*
X10957Y1670D01*
X10910Y1623D01*
X10877Y1565D01*
X10859Y1500D01*
Y1433D01*
X10877Y1369D01*
X10910Y1311D01*
X10957Y1263D01*
X11015Y1230D01*
X11080Y1213D01*
X11147D01*
X11211Y1230D01*
X11269Y1263D01*
X11317Y1311D01*
X11350Y1369D01*
X11367Y1433D01*
Y1500D01*
X11350Y1565D01*
X11317Y1623D01*
X11269Y1670D01*
X11211Y1703D01*
X11147Y1721D01*
D02*
G37*
G36*
X17325Y3006D02*
X17162Y2993D01*
X17004Y2955D01*
X16854Y2893D01*
X16715Y2808D01*
X16591Y2702D01*
X16485Y2578D01*
X16400Y2439D01*
X16338Y2289D01*
X16300Y2131D01*
X16287Y1969D01*
X16300Y1806D01*
X16338Y1648D01*
X16400Y1498D01*
X16485Y1359D01*
X16591Y1235D01*
X16715Y1129D01*
X16854Y1044D01*
X17004Y982D01*
X17162Y944D01*
X17325Y931D01*
X17487Y944D01*
X17645Y982D01*
X17795Y1044D01*
X17934Y1129D01*
X18058Y1235D01*
X18164Y1359D01*
X18249Y1498D01*
X18311Y1648D01*
X18349Y1806D01*
X18362Y1969D01*
X18349Y2131D01*
X18311Y2289D01*
X18249Y2439D01*
X18164Y2578D01*
X18058Y2702D01*
X17934Y2808D01*
X17795Y2893D01*
X17645Y2955D01*
X17487Y2993D01*
X17325Y3006D01*
D02*
G37*
G36*
X3151D02*
X2989Y2993D01*
X2831Y2955D01*
X2680Y2893D01*
X2542Y2808D01*
X2418Y2702D01*
X2312Y2578D01*
X2227Y2439D01*
X2165Y2289D01*
X2127Y2131D01*
X2114Y1969D01*
X2127Y1806D01*
X2165Y1648D01*
X2227Y1498D01*
X2312Y1359D01*
X2418Y1235D01*
X2542Y1129D01*
X2680Y1044D01*
X2831Y982D01*
X2989Y944D01*
X3151Y931D01*
X3314Y944D01*
X3472Y982D01*
X3622Y1044D01*
X3761Y1129D01*
X3885Y1235D01*
X3990Y1359D01*
X4075Y1498D01*
X4138Y1648D01*
X4176Y1806D01*
X4188Y1969D01*
X4176Y2131D01*
X4138Y2289D01*
X4075Y2439D01*
X3990Y2578D01*
X3885Y2702D01*
X3761Y2808D01*
X3622Y2893D01*
X3472Y2955D01*
X3314Y2993D01*
X3151Y3006D01*
D02*
G37*
G36*
X41734Y3006D02*
X41572Y2993D01*
X41413Y2955D01*
X41263Y2893D01*
X41124Y2808D01*
X41001Y2702D01*
X40895Y2578D01*
X40810Y2439D01*
X40748Y2289D01*
X40710Y2131D01*
X40697Y1969D01*
X40710Y1806D01*
X40748Y1648D01*
X40810Y1498D01*
X40895Y1359D01*
X41001Y1235D01*
X41124Y1129D01*
X41263Y1044D01*
X41413Y982D01*
X41572Y944D01*
X41734Y931D01*
X41896Y944D01*
X42054Y982D01*
X42205Y1044D01*
X42344Y1129D01*
X42467Y1235D01*
X42573Y1359D01*
X42658Y1498D01*
X42720Y1648D01*
X42758Y1806D01*
X42771Y1969D01*
X42758Y2131D01*
X42720Y2289D01*
X42658Y2439D01*
X42573Y2578D01*
X42467Y2702D01*
X42344Y2808D01*
X42205Y2893D01*
X42054Y2955D01*
X41896Y2993D01*
X41734Y3006D01*
D02*
G37*
G36*
X21857Y1161D02*
X21795D01*
X21737Y1137D01*
X21693Y1093D01*
X21669Y1035D01*
Y973D01*
X21693Y915D01*
X21737Y870D01*
X21795Y846D01*
X21857D01*
X21915Y870D01*
X21960Y915D01*
X21984Y973D01*
Y1035D01*
X21960Y1093D01*
X21915Y1137D01*
X21857Y1161D01*
D02*
G37*
G36*
X8147Y1321D02*
X8080D01*
X8015Y1303D01*
X7957Y1270D01*
X7910Y1223D01*
X7877Y1165D01*
X7859Y1100D01*
Y1033D01*
X7877Y969D01*
X7910Y911D01*
X7957Y863D01*
X8015Y830D01*
X8080Y813D01*
X8147D01*
X8211Y830D01*
X8269Y863D01*
X8317Y911D01*
X8350Y969D01*
X8367Y1033D01*
Y1100D01*
X8350Y1165D01*
X8317Y1223D01*
X8269Y1270D01*
X8211Y1303D01*
X8147Y1321D01*
D02*
G37*
G36*
X10645Y974D02*
X10582D01*
X10524Y950D01*
X10480Y906D01*
X10456Y848D01*
Y785D01*
X10480Y727D01*
X10524Y683D01*
X10582Y659D01*
X10645D01*
X10703Y683D01*
X10747Y727D01*
X10771Y785D01*
Y848D01*
X10747Y906D01*
X10703Y950D01*
X10645Y974D01*
D02*
G37*
G36*
X8645D02*
X8582D01*
X8524Y950D01*
X8480Y906D01*
X8456Y848D01*
Y785D01*
X8480Y727D01*
X8524Y683D01*
X8582Y659D01*
X8645D01*
X8703Y683D01*
X8747Y727D01*
X8771Y785D01*
Y848D01*
X8747Y906D01*
X8703Y950D01*
X8645Y974D01*
D02*
G37*
G36*
X11147Y921D02*
X11080D01*
X11015Y903D01*
X10957Y870D01*
X10910Y823D01*
X10877Y765D01*
X10859Y700D01*
Y633D01*
X10877Y569D01*
X10910Y511D01*
X10957Y463D01*
X11015Y430D01*
X11080Y413D01*
X11147D01*
X11211Y430D01*
X11269Y463D01*
X11317Y511D01*
X11350Y569D01*
X11367Y633D01*
Y700D01*
X11350Y765D01*
X11317Y823D01*
X11269Y870D01*
X11211Y903D01*
X11147Y921D01*
D02*
G37*
%LPD*%
D12*
X8481Y4521D02*
X8494Y4535D01*
X8517Y4512D01*
D15*
X19587Y4262D02*
X19889D01*
X20325Y4697D01*
X18413Y18167D02*
X18889D01*
X19648Y17553D02*
X19661Y17567D01*
X19272Y17411D02*
X19557D01*
X19648Y17502D02*
Y17553D01*
X19557Y17411D02*
X19648Y17502D01*
X19250Y17567D02*
X19469D01*
X18965Y17282D02*
X19250Y17567D01*
X19623Y12673D02*
X19636Y12660D01*
X19537Y12815D02*
X19623Y12730D01*
X19311Y12815D02*
X19537D01*
X19623Y12673D02*
Y12730D01*
X18429Y12569D02*
X19065D01*
X19311Y12815D01*
X18882Y12927D02*
Y13166D01*
X18612Y12821D02*
X18775D01*
X18882Y12927D01*
X18272Y12411D02*
X18429Y12569D01*
X18268Y12411D02*
X18272D01*
X18529Y17416D02*
X18819Y17126D01*
X18986D01*
X19272Y17411D01*
X18296Y17416D02*
X18529D01*
X18883Y17282D02*
X18965D01*
X18879Y17278D02*
X18883Y17282D01*
X3056Y9207D02*
Y9596D01*
X2874Y9403D02*
Y9797D01*
X6837Y5312D02*
X7201D01*
X6701Y5449D02*
X6837Y5312D01*
X7201D02*
X7662Y5773D01*
D18*
X19383Y4965D02*
X19397Y4952D01*
X19383Y4965D02*
Y5028D01*
X19165Y5246D02*
X19383Y5028D01*
X18106Y12820D02*
X18612D01*
X17904Y12459D02*
X18156Y12712D01*
X18879D01*
X17736Y12451D02*
X18106Y12820D01*
X18238Y17992D02*
X18413Y18167D01*
X18238Y17746D02*
Y17992D01*
X18397Y17940D02*
X18667D01*
X18879Y17727D01*
X17982Y16876D02*
Y17490D01*
X18238Y17746D01*
X18130Y17062D02*
Y17461D01*
X18245Y17575D02*
X18770D01*
X18130Y17461D02*
X18245Y17575D01*
X18834Y12258D02*
X19060D01*
X19459Y12657D01*
X18085Y12210D02*
Y12416D01*
Y12210D02*
X18307Y11988D01*
X18435D01*
X18494Y12234D02*
X18676Y12416D01*
X18268Y12234D02*
X18494D01*
X18676Y12416D02*
X18925D01*
X17736Y12352D02*
Y12451D01*
X18612Y12820D02*
X18612Y12821D01*
X17904Y12165D02*
Y12459D01*
X18770Y17575D02*
X18876Y17469D01*
X9236Y4438D02*
Y4659D01*
X9149Y4350D02*
X9236Y4438D01*
X10384Y4567D02*
Y4734D01*
X10187Y4931D02*
X10384Y4734D01*
X9365Y4931D02*
X10187D01*
X10115Y4825D02*
X10246Y4695D01*
X9403Y4825D02*
X10115D01*
X12037Y4823D02*
X12199Y4662D01*
X11693Y4823D02*
X12037D01*
X6672Y6044D02*
X6864Y5852D01*
X7504D01*
X6799Y6094D02*
X7662D01*
X6667Y6226D02*
X6799Y6094D01*
X6356Y6226D02*
X6667D01*
X6356Y6044D02*
X6672D01*
X7077Y4873D02*
X7659Y5455D01*
X7077Y4872D02*
Y4873D01*
X8815Y7738D02*
Y9091D01*
X8873Y9224D02*
X8901Y9252D01*
X8873Y9148D02*
Y9224D01*
X8815Y9091D02*
X8873Y9148D01*
X8707Y7666D02*
Y9093D01*
X8669Y9131D02*
X8707Y9093D01*
X8669Y9131D02*
Y9228D01*
X8645Y9252D02*
X8669Y9228D01*
X8389Y9250D02*
X8596Y9044D01*
Y7653D02*
Y9044D01*
X8924Y7800D02*
Y9012D01*
X9140Y8786D02*
X9203Y8848D01*
X9508D01*
X9032Y7852D02*
Y8884D01*
X9163Y9016D01*
X8924Y9012D02*
X9163Y9252D01*
X8389Y9250D02*
Y9252D01*
X9140Y7897D02*
Y8786D01*
X8924Y7800D02*
X9236Y7487D01*
X8671Y7215D02*
X9469D01*
X9528Y7274D02*
Y7510D01*
X9140Y7897D02*
X9528Y7510D01*
X9469Y7215D02*
X9528Y7274D01*
X37427Y10512D02*
X37431Y10508D01*
X38003D01*
X37245Y11099D02*
X37245D01*
X36944Y10797D02*
X37245Y11099D01*
X32924Y10923D02*
Y11236D01*
X33021Y10827D02*
X33338D01*
X32924Y10923D02*
X33021Y10827D01*
X33417Y10748D02*
X33818D01*
X33338Y10827D02*
X33417Y10748D01*
X32796Y10675D02*
X33259D01*
X33377Y11473D02*
X33722D01*
X33200Y11650D02*
X33377Y11473D01*
X36821Y10039D02*
X37402D01*
X33418Y11650D02*
X33720D01*
X40117Y3244D02*
X41273Y4401D01*
X24157Y3244D02*
X40117D01*
X41273Y4401D02*
Y9044D01*
X41671Y9442D01*
X40727Y13407D02*
X40945Y13189D01*
X40727Y13407D02*
Y13427D01*
X41402Y9712D02*
Y12949D01*
Y9712D02*
X41671Y9442D01*
X41161Y13189D02*
X41402Y12949D01*
X40945Y13189D02*
X41161D01*
X8596Y7653D02*
X8764Y7484D01*
X8815Y7738D02*
X9079Y7475D01*
X9032Y7852D02*
X9384Y7500D01*
X8707Y7666D02*
X8921Y7452D01*
X8617Y7269D02*
Y7338D01*
X8606Y7348D02*
X8617Y7338D01*
Y7269D02*
X8671Y7215D01*
X23826Y2913D02*
X24157Y3244D01*
X23817Y2904D02*
X23826Y2913D01*
X21230Y3789D02*
X21520D01*
X22066Y3244D01*
X23496D01*
X23826Y2913D01*
X21230Y3790D02*
X21230Y3789D01*
X8686Y4361D02*
Y4817D01*
Y4361D02*
X8718Y4329D01*
X8686Y4817D02*
X8921Y5053D01*
X8718Y4201D02*
Y4329D01*
X8819Y4390D02*
Y4788D01*
X8874Y4035D02*
Y4335D01*
X8819Y4390D02*
X8874Y4335D01*
X8819Y4788D02*
X9079Y5048D01*
X8718Y4201D02*
X8725Y4193D01*
X9222Y5075D02*
X9365Y4931D01*
X9236Y4659D02*
X9403Y4825D01*
X8764Y7348D02*
Y7484D01*
X20769Y3790D02*
X21230D01*
X9079Y5048D02*
Y5143D01*
X8921Y5053D02*
Y5143D01*
X9222Y5075D02*
Y5203D01*
X9146Y5289D02*
X9221Y5213D01*
Y5203D02*
Y5213D01*
Y5203D02*
X9222Y5203D01*
X8827Y5289D02*
X9146D01*
X8768Y5229D02*
X8827Y5289D01*
X8768Y5147D02*
Y5229D01*
X8764Y5143D02*
X8768Y5147D01*
X9384Y7358D02*
Y7500D01*
X8921Y7348D02*
Y7452D01*
X9079Y7348D02*
Y7475D01*
X9236Y7348D02*
Y7487D01*
X9384Y7358D02*
X9394Y7348D01*
D124*
X34108Y11615D02*
D03*
X33820Y10404D02*
D03*
X33647Y9622D02*
D03*
X34229D02*
D03*
X3455Y7304D02*
D03*
X4559Y9383D02*
D03*
Y10019D02*
D03*
X3632Y10722D02*
D03*
X4173Y10955D02*
D03*
X3868Y10722D02*
D03*
X9281Y18345D02*
D03*
X10083Y17754D02*
D03*
X7130Y17157D02*
D03*
X9959Y9803D02*
D03*
X10933Y9006D02*
D03*
X9707Y9009D02*
D03*
X5597Y5869D02*
D03*
X6115Y6038D02*
D03*
X5097Y5568D02*
D03*
X6378Y4236D02*
D03*
X19397Y4952D02*
D03*
X19165Y5246D02*
D03*
X19587Y4262D02*
D03*
X19661Y17567D02*
D03*
X19469D02*
D03*
X19636Y12660D02*
D03*
X19459Y12657D02*
D03*
X18435Y11988D02*
D03*
X18268Y12234D02*
D03*
X18834Y12258D02*
D03*
X18925Y12416D02*
D03*
X18879Y12712D02*
D03*
X17736Y12352D02*
D03*
X17904Y12165D02*
D03*
X18085Y12416D02*
D03*
X18268Y12411D02*
D03*
X18879Y17278D02*
D03*
X18876Y17469D02*
D03*
X18879Y17727D02*
D03*
X17982Y16876D02*
D03*
X18130Y17062D02*
D03*
X18397Y17940D02*
D03*
X9149Y4350D02*
D03*
X10384Y4567D02*
D03*
X10246Y4695D02*
D03*
X11693Y4823D02*
D03*
X12199Y4662D02*
D03*
X11974Y6339D02*
D03*
Y4662D02*
D03*
X18296Y17416D02*
D03*
X6231Y7314D02*
D03*
X6142Y6451D02*
D03*
X6357Y6451D02*
D03*
X7662Y6094D02*
D03*
X6356Y6226D02*
D03*
X9508Y8848D02*
D03*
X9163Y9016D02*
D03*
X38003Y10508D02*
D03*
X37245Y11099D02*
D03*
X36944Y10797D02*
D03*
X33818Y10748D02*
D03*
X33259Y10675D02*
D03*
X32796D02*
D03*
X33200Y11650D02*
D03*
X33722Y11473D02*
D03*
X32924Y11236D02*
D03*
X37402Y10039D02*
D03*
X36821D02*
D03*
X37427Y10512D02*
D03*
X33418Y11650D02*
D03*
X33720D02*
D03*
X8606Y7348D02*
D03*
X3056Y9601D02*
D03*
X2874Y9403D02*
D03*
X3056Y9207D02*
D03*
X18889Y18167D02*
D03*
X18882Y13166D02*
D03*
X23826Y2913D02*
D03*
X20325Y4697D02*
D03*
X6356Y6044D02*
D03*
X7504Y5852D02*
D03*
X6701Y5449D02*
D03*
X8874Y4035D02*
D03*
X8725Y4193D02*
D03*
X21230Y3789D02*
D03*
X20769Y3790D02*
D03*
X2874Y9797D02*
D03*
X7662Y5458D02*
D03*
X9079Y5143D02*
D03*
X8921D02*
D03*
X8764D02*
D03*
X8921Y7348D02*
D03*
X8764D02*
D03*
X9079Y7348D02*
D03*
X9236Y7348D02*
D03*
X9394D02*
D03*
X7662Y5773D02*
D03*
D179*
X41671Y8442D02*
D03*
X38711Y18356D02*
D03*
D180*
X41671Y9442D02*
D03*
D185*
X8667Y21305D02*
D03*
X8831Y22043D02*
D03*
X8011Y21846D02*
D03*
X7250Y22107D02*
D03*
X30305Y21543D02*
D03*
X14380Y23310D02*
D03*
X9180Y21767D02*
D03*
X5561Y18933D02*
D03*
Y18671D02*
D03*
X16845Y8002D02*
D03*
X18269Y7999D02*
D03*
X19922Y9083D02*
D03*
X7597Y2046D02*
D03*
X12003Y1292D02*
D03*
X12390Y797D02*
D03*
X13661Y2421D02*
D03*
X13541Y3238D02*
D03*
X16594Y3258D02*
D03*
X14941Y3234D02*
D03*
X15285Y5599D02*
D03*
X14547Y4511D02*
D03*
X443Y6981D02*
D03*
X1467Y7042D02*
D03*
X1638Y5149D02*
D03*
X3462Y4147D02*
D03*
X6350Y10072D02*
D03*
X11631Y9378D02*
D03*
X11088Y10520D02*
D03*
X10733Y12160D02*
D03*
X10718Y13347D02*
D03*
X18433Y21624D02*
D03*
X21115Y24079D02*
D03*
X22500Y24060D02*
D03*
X24163Y24053D02*
D03*
X25640Y24093D02*
D03*
X27001Y24075D02*
D03*
X28509Y24054D02*
D03*
X30070Y24059D02*
D03*
X31683Y24075D02*
D03*
X33071Y24059D02*
D03*
X34577Y24099D02*
D03*
X36212Y24054D02*
D03*
X39114Y24016D02*
D03*
X37742Y24054D02*
D03*
X41664Y14773D02*
D03*
X40858Y11580D02*
D03*
X42630Y11339D02*
D03*
X43002Y9856D02*
D03*
X42700Y8713D02*
D03*
X40593Y9200D02*
D03*
X40548Y7726D02*
D03*
X32382Y6285D02*
D03*
X41466Y7436D02*
D03*
X42977Y23381D02*
D03*
X42682Y22790D02*
D03*
Y21609D02*
D03*
X42977Y21018D02*
D03*
X42682Y20428D02*
D03*
Y19247D02*
D03*
Y18066D02*
D03*
X42977Y17475D02*
D03*
Y15113D02*
D03*
X42682Y12160D02*
D03*
X42977Y11570D02*
D03*
Y8026D02*
D03*
X42682Y7436D02*
D03*
X42977Y6845D02*
D03*
X42682Y6255D02*
D03*
X42977Y5664D02*
D03*
X42682Y5074D02*
D03*
Y3893D02*
D03*
X42091Y23971D02*
D03*
X42386Y23381D02*
D03*
X42091Y22790D02*
D03*
X42386Y22200D02*
D03*
X42091Y21609D02*
D03*
X42386Y21018D02*
D03*
X42091Y20428D02*
D03*
X42386Y19837D02*
D03*
X42091Y19247D02*
D03*
X42386Y18656D02*
D03*
X42091Y18066D02*
D03*
X42386Y17475D02*
D03*
X42091Y16885D02*
D03*
X42386Y16294D02*
D03*
X42091Y12160D02*
D03*
Y10979D02*
D03*
X42386Y10389D02*
D03*
Y9207D02*
D03*
Y8026D02*
D03*
X42091Y7436D02*
D03*
X42386Y6845D02*
D03*
X42091Y6255D02*
D03*
X42386Y5664D02*
D03*
Y4483D02*
D03*
X42091Y3893D02*
D03*
X42386Y3302D02*
D03*
X41796Y21018D02*
D03*
X41501Y20428D02*
D03*
X41796Y19837D02*
D03*
X41501Y19247D02*
D03*
X41796Y18656D02*
D03*
Y17475D02*
D03*
Y11570D02*
D03*
Y6845D02*
D03*
Y5664D02*
D03*
Y4483D02*
D03*
X41501Y3893D02*
D03*
X40910Y23971D02*
D03*
X41205Y21018D02*
D03*
Y19837D02*
D03*
X40910Y16885D02*
D03*
Y10979D02*
D03*
Y9798D02*
D03*
Y6255D02*
D03*
Y5074D02*
D03*
X41205Y3302D02*
D03*
X40320Y23971D02*
D03*
X39729Y21609D02*
D03*
X40024Y21018D02*
D03*
X39729Y20428D02*
D03*
X40024Y19837D02*
D03*
X39729Y19247D02*
D03*
Y18066D02*
D03*
X40024Y10389D02*
D03*
X39729Y9798D02*
D03*
X40024Y9207D02*
D03*
X39729Y8617D02*
D03*
X40024Y8026D02*
D03*
X39729Y7436D02*
D03*
X40024Y5664D02*
D03*
X39729Y3893D02*
D03*
X39434Y21018D02*
D03*
X39138Y20428D02*
D03*
X39434Y19837D02*
D03*
X39138Y19247D02*
D03*
X39434Y18656D02*
D03*
Y9207D02*
D03*
X39138Y8617D02*
D03*
Y7436D02*
D03*
Y5074D02*
D03*
Y3893D02*
D03*
Y1530D02*
D03*
X38843Y21018D02*
D03*
X38548Y20428D02*
D03*
X38843Y19837D02*
D03*
X38548Y19247D02*
D03*
X38843Y8026D02*
D03*
X38548Y7436D02*
D03*
X38843Y6845D02*
D03*
Y5664D02*
D03*
X38548Y5074D02*
D03*
X38843Y4483D02*
D03*
X38548Y3893D02*
D03*
X38843Y2121D02*
D03*
X38548Y1530D02*
D03*
X38843Y940D02*
D03*
X38253Y21018D02*
D03*
X37957Y20428D02*
D03*
X38253Y19837D02*
D03*
X37957Y19247D02*
D03*
Y7436D02*
D03*
X38253Y6845D02*
D03*
Y5664D02*
D03*
Y4483D02*
D03*
X37957Y3893D02*
D03*
X38253Y940D02*
D03*
X37662Y23381D02*
D03*
Y22200D02*
D03*
X37367Y21609D02*
D03*
X37662Y21018D02*
D03*
X37367Y20428D02*
D03*
X37662Y19837D02*
D03*
X37367Y19247D02*
D03*
X37662Y5664D02*
D03*
X37367Y3893D02*
D03*
X37071Y23381D02*
D03*
Y22200D02*
D03*
X36776Y21609D02*
D03*
X37071Y21018D02*
D03*
X36776Y20428D02*
D03*
X37071Y19837D02*
D03*
X36776Y19247D02*
D03*
X37071Y5664D02*
D03*
X36776Y3893D02*
D03*
X36481Y23381D02*
D03*
Y22200D02*
D03*
X36186Y21609D02*
D03*
X36481Y21018D02*
D03*
X36186Y20428D02*
D03*
X36481Y19837D02*
D03*
X36186Y19247D02*
D03*
Y3893D02*
D03*
X35890Y23381D02*
D03*
Y22200D02*
D03*
X35595Y21609D02*
D03*
X35890Y21018D02*
D03*
X35595Y20428D02*
D03*
X35890Y19837D02*
D03*
X35595Y19247D02*
D03*
X35890Y18656D02*
D03*
X35595Y18066D02*
D03*
X35890Y5664D02*
D03*
X35595Y3893D02*
D03*
X35300Y21018D02*
D03*
X35005Y20428D02*
D03*
X35300Y19837D02*
D03*
X35005Y19247D02*
D03*
X35300Y18656D02*
D03*
X35005Y18066D02*
D03*
X35300Y5664D02*
D03*
X35005Y5074D02*
D03*
Y3893D02*
D03*
Y1530D02*
D03*
X34414Y22790D02*
D03*
X34709Y18656D02*
D03*
Y6845D02*
D03*
Y5664D02*
D03*
X34414Y5074D02*
D03*
X34709Y4483D02*
D03*
X34414Y3893D02*
D03*
X34709Y2121D02*
D03*
X34414Y1530D02*
D03*
X34709Y940D02*
D03*
X34119Y23381D02*
D03*
Y6845D02*
D03*
Y5664D02*
D03*
Y4483D02*
D03*
X33823Y3893D02*
D03*
X34119Y940D02*
D03*
X33233Y21609D02*
D03*
Y15704D02*
D03*
Y3893D02*
D03*
X32938Y23381D02*
D03*
X32642Y22790D02*
D03*
X32938Y22200D02*
D03*
Y12751D02*
D03*
X32642Y12160D02*
D03*
X32347Y23381D02*
D03*
X32052Y22790D02*
D03*
X32347Y22200D02*
D03*
X32052Y20428D02*
D03*
X32347Y19837D02*
D03*
X32052Y19247D02*
D03*
X32347Y18656D02*
D03*
Y12751D02*
D03*
X32052Y12160D02*
D03*
X32347Y11570D02*
D03*
X32052Y10979D02*
D03*
Y9798D02*
D03*
X32347Y5664D02*
D03*
X32052Y5074D02*
D03*
X32347Y4483D02*
D03*
X32052Y3893D02*
D03*
Y2711D02*
D03*
X32347Y2121D02*
D03*
X32052Y1530D02*
D03*
X32347Y940D02*
D03*
X31757Y23381D02*
D03*
X31461Y22790D02*
D03*
X31757Y22200D02*
D03*
X31461Y20428D02*
D03*
X31757Y19837D02*
D03*
X31461Y19247D02*
D03*
X31757Y18656D02*
D03*
X31461Y18066D02*
D03*
X31757Y11570D02*
D03*
X31461Y5074D02*
D03*
X31757Y4483D02*
D03*
X31461Y3893D02*
D03*
Y2711D02*
D03*
X31757Y2121D02*
D03*
X31461Y1530D02*
D03*
X31757Y940D02*
D03*
X31166Y23381D02*
D03*
X30871Y22790D02*
D03*
X31166Y22200D02*
D03*
Y19837D02*
D03*
X30871Y19247D02*
D03*
X31166Y18656D02*
D03*
X30871Y5074D02*
D03*
X31166Y4483D02*
D03*
X30871Y3893D02*
D03*
Y2711D02*
D03*
X31166Y2121D02*
D03*
X30871Y1530D02*
D03*
X31166Y940D02*
D03*
X30575Y23381D02*
D03*
X30280Y22790D02*
D03*
X30575Y22200D02*
D03*
X30280Y20428D02*
D03*
X30575Y19837D02*
D03*
X30280Y19247D02*
D03*
X30575Y18656D02*
D03*
X30280Y14522D02*
D03*
Y8617D02*
D03*
Y5074D02*
D03*
X30575Y4483D02*
D03*
X30280Y3893D02*
D03*
Y2711D02*
D03*
X30575Y2121D02*
D03*
X30280Y1530D02*
D03*
X30575Y940D02*
D03*
X29985Y23381D02*
D03*
X29690Y22790D02*
D03*
X29985Y22200D02*
D03*
Y19837D02*
D03*
Y15113D02*
D03*
Y13932D02*
D03*
X29690Y5074D02*
D03*
Y3893D02*
D03*
Y2711D02*
D03*
X29985Y2121D02*
D03*
X29690Y1530D02*
D03*
X29985Y940D02*
D03*
X29394Y23381D02*
D03*
X29099Y22790D02*
D03*
X29394Y22200D02*
D03*
Y15113D02*
D03*
X29099Y5074D02*
D03*
X29394Y4483D02*
D03*
X29099Y3893D02*
D03*
Y2711D02*
D03*
X29394Y2121D02*
D03*
X29099Y1530D02*
D03*
X29394Y940D02*
D03*
X28804Y23381D02*
D03*
X28509Y22790D02*
D03*
X28804Y22200D02*
D03*
Y19837D02*
D03*
Y13932D02*
D03*
Y9207D02*
D03*
X28509Y5074D02*
D03*
X28804Y4483D02*
D03*
X28509Y3893D02*
D03*
Y2711D02*
D03*
X28804Y2121D02*
D03*
X28509Y1530D02*
D03*
X28804Y940D02*
D03*
X28213Y23381D02*
D03*
X27918Y22790D02*
D03*
X28213Y22200D02*
D03*
Y19837D02*
D03*
X27918Y5074D02*
D03*
X28213Y4483D02*
D03*
X27918Y3893D02*
D03*
Y2711D02*
D03*
X28213Y2121D02*
D03*
X27918Y1530D02*
D03*
X28213Y940D02*
D03*
X27623Y23381D02*
D03*
X27327Y22790D02*
D03*
X27623Y22200D02*
D03*
Y19837D02*
D03*
Y15113D02*
D03*
X27327Y5074D02*
D03*
X27623Y4483D02*
D03*
X27327Y3893D02*
D03*
Y2711D02*
D03*
X27623Y2121D02*
D03*
X27327Y1530D02*
D03*
X27623Y940D02*
D03*
X27032Y23381D02*
D03*
X26737Y22790D02*
D03*
X27032Y22200D02*
D03*
Y19837D02*
D03*
X26737Y5074D02*
D03*
X27032Y4483D02*
D03*
X26737Y3893D02*
D03*
Y2711D02*
D03*
X27032Y2121D02*
D03*
X26737Y1530D02*
D03*
X27032Y940D02*
D03*
X26442Y23381D02*
D03*
X26146Y22790D02*
D03*
X26442Y22200D02*
D03*
Y19837D02*
D03*
X25851Y23381D02*
D03*
X25556Y22790D02*
D03*
X25851Y22200D02*
D03*
Y19837D02*
D03*
Y13932D02*
D03*
Y9207D02*
D03*
X25260Y23381D02*
D03*
X24965Y22790D02*
D03*
X25260Y22200D02*
D03*
Y19837D02*
D03*
Y17475D02*
D03*
X24670Y23381D02*
D03*
X24375Y22790D02*
D03*
X24670Y22200D02*
D03*
Y19837D02*
D03*
Y17475D02*
D03*
X24375Y16885D02*
D03*
X24079Y23381D02*
D03*
X23784Y22790D02*
D03*
X24079Y22200D02*
D03*
Y19837D02*
D03*
X23784Y5074D02*
D03*
Y3893D02*
D03*
X23489Y23381D02*
D03*
X23194Y22790D02*
D03*
X23489Y22200D02*
D03*
Y19837D02*
D03*
Y17475D02*
D03*
X23194Y16885D02*
D03*
X23489Y6845D02*
D03*
X23194Y6255D02*
D03*
X23489Y4483D02*
D03*
X23194Y3893D02*
D03*
X22898Y23381D02*
D03*
X22603Y22790D02*
D03*
X22898Y22200D02*
D03*
Y17475D02*
D03*
Y15113D02*
D03*
X22603Y6255D02*
D03*
X22308Y23381D02*
D03*
X22012Y22790D02*
D03*
X22308Y22200D02*
D03*
X22012Y7436D02*
D03*
X22308Y6845D02*
D03*
Y5664D02*
D03*
X22012Y5074D02*
D03*
X21717Y23381D02*
D03*
X21422Y22790D02*
D03*
X21717Y22200D02*
D03*
X21422Y16885D02*
D03*
X21717Y15113D02*
D03*
X21422Y7436D02*
D03*
X21717Y6845D02*
D03*
X21422Y6255D02*
D03*
X21717Y5664D02*
D03*
Y4483D02*
D03*
X21127Y23381D02*
D03*
X20831Y22790D02*
D03*
X21127Y22200D02*
D03*
X20831Y14522D02*
D03*
Y8617D02*
D03*
Y7436D02*
D03*
X21127Y6845D02*
D03*
Y5664D02*
D03*
X20831Y5074D02*
D03*
X21127Y2121D02*
D03*
X20536Y23381D02*
D03*
X20241Y22790D02*
D03*
X20536Y22200D02*
D03*
X20241Y1530D02*
D03*
X20536Y940D02*
D03*
X19650Y23971D02*
D03*
X19946Y22200D02*
D03*
X19650Y19247D02*
D03*
Y18066D02*
D03*
Y16885D02*
D03*
Y15704D02*
D03*
Y14522D02*
D03*
Y13341D02*
D03*
Y10979D02*
D03*
Y9798D02*
D03*
Y7436D02*
D03*
Y6255D02*
D03*
X19060Y23971D02*
D03*
X19355Y22200D02*
D03*
Y19837D02*
D03*
Y18656D02*
D03*
Y16294D02*
D03*
X19060Y15704D02*
D03*
X19355Y15113D02*
D03*
X19060Y14522D02*
D03*
X19355Y13932D02*
D03*
Y11570D02*
D03*
Y10389D02*
D03*
X19060Y8617D02*
D03*
Y7436D02*
D03*
X19355Y6845D02*
D03*
X19060Y6255D02*
D03*
Y2711D02*
D03*
X18469Y23971D02*
D03*
X18764Y23381D02*
D03*
Y19837D02*
D03*
X18469Y7436D02*
D03*
X18764Y6845D02*
D03*
X18469Y6255D02*
D03*
X18764Y2121D02*
D03*
Y940D02*
D03*
X18174Y15113D02*
D03*
X17879Y7436D02*
D03*
X18174Y6845D02*
D03*
X17879Y6255D02*
D03*
X17288Y15704D02*
D03*
Y14522D02*
D03*
Y10979D02*
D03*
Y7436D02*
D03*
X17583Y6845D02*
D03*
X17288Y6255D02*
D03*
Y5074D02*
D03*
X16697Y7436D02*
D03*
X16993Y6845D02*
D03*
X16697Y6255D02*
D03*
Y5074D02*
D03*
X16993Y4483D02*
D03*
X16107Y23971D02*
D03*
Y19247D02*
D03*
X16402Y6845D02*
D03*
X16107Y5074D02*
D03*
X16402Y4483D02*
D03*
X16107Y2711D02*
D03*
Y1530D02*
D03*
X15516Y23971D02*
D03*
X15812Y23381D02*
D03*
X15516Y22790D02*
D03*
Y19247D02*
D03*
Y18066D02*
D03*
X15812Y5664D02*
D03*
X15516Y5074D02*
D03*
X15812Y4483D02*
D03*
Y2121D02*
D03*
Y940D02*
D03*
X15221Y4483D02*
D03*
X14335Y22790D02*
D03*
Y18066D02*
D03*
X14631Y2121D02*
D03*
Y940D02*
D03*
X13745Y22790D02*
D03*
Y19247D02*
D03*
X14040Y18656D02*
D03*
X13745Y18066D02*
D03*
X14040Y17475D02*
D03*
X13745Y16885D02*
D03*
X14040Y16294D02*
D03*
X13745Y15704D02*
D03*
X14040Y15113D02*
D03*
X13745Y14522D02*
D03*
X14040Y13932D02*
D03*
X13745Y13341D02*
D03*
X13154Y22790D02*
D03*
Y19247D02*
D03*
X13449Y18656D02*
D03*
X13154Y18066D02*
D03*
X13449Y17475D02*
D03*
X13154Y16885D02*
D03*
X13449Y16294D02*
D03*
X13154Y15704D02*
D03*
X13449Y15113D02*
D03*
X13154Y14522D02*
D03*
X13449Y13932D02*
D03*
X13154Y13341D02*
D03*
X12859Y13932D02*
D03*
X12564Y13341D02*
D03*
X12859Y12751D02*
D03*
X12564Y12160D02*
D03*
X12859Y11570D02*
D03*
X12564Y10979D02*
D03*
X11973Y14522D02*
D03*
X12268Y13932D02*
D03*
X11973Y13341D02*
D03*
X12268Y12751D02*
D03*
X11973Y12160D02*
D03*
X12268Y11570D02*
D03*
X11973Y10979D02*
D03*
X12268Y10389D02*
D03*
X11973Y8617D02*
D03*
X11678Y23381D02*
D03*
X11383Y14522D02*
D03*
X11678Y13932D02*
D03*
X11383Y13341D02*
D03*
X11678Y12751D02*
D03*
X11383Y12160D02*
D03*
X11678Y11570D02*
D03*
Y10389D02*
D03*
X11087Y13932D02*
D03*
Y12751D02*
D03*
X9611Y14522D02*
D03*
Y13341D02*
D03*
Y12160D02*
D03*
X9020Y23971D02*
D03*
X9316Y15113D02*
D03*
X9020Y14522D02*
D03*
X9316Y13932D02*
D03*
X9020Y13341D02*
D03*
X9316Y12751D02*
D03*
X9020Y12160D02*
D03*
X9316Y11570D02*
D03*
Y10389D02*
D03*
X8430Y23971D02*
D03*
Y22790D02*
D03*
Y15704D02*
D03*
X8725Y15113D02*
D03*
X8430Y14522D02*
D03*
X8725Y13932D02*
D03*
X8430Y13341D02*
D03*
X8725Y12751D02*
D03*
X8430Y12160D02*
D03*
X8725Y11570D02*
D03*
X7839Y15704D02*
D03*
X8134Y15113D02*
D03*
X7839Y14522D02*
D03*
X8134Y13932D02*
D03*
X7839Y13341D02*
D03*
X8134Y12751D02*
D03*
Y11570D02*
D03*
X7839Y10979D02*
D03*
X8134Y10389D02*
D03*
X7249Y23971D02*
D03*
X7544Y16294D02*
D03*
Y15113D02*
D03*
Y10389D02*
D03*
Y940D02*
D03*
X6658Y23971D02*
D03*
Y15704D02*
D03*
Y14522D02*
D03*
Y13341D02*
D03*
Y12160D02*
D03*
X6068Y23971D02*
D03*
Y15704D02*
D03*
X6363Y15113D02*
D03*
X6068Y14522D02*
D03*
X6363Y13932D02*
D03*
X6068Y13341D02*
D03*
X6363Y12751D02*
D03*
X6068Y12160D02*
D03*
X6363Y11570D02*
D03*
X5772Y15113D02*
D03*
X5477Y14522D02*
D03*
X5772Y13932D02*
D03*
X5477Y13341D02*
D03*
X5772Y12751D02*
D03*
X5477Y12160D02*
D03*
X5772Y11570D02*
D03*
X5477Y10979D02*
D03*
X5772Y10389D02*
D03*
X5477Y7436D02*
D03*
X5182Y13932D02*
D03*
Y12751D02*
D03*
Y11570D02*
D03*
X4886Y10979D02*
D03*
X5182Y8026D02*
D03*
X4591D02*
D03*
X4296Y7436D02*
D03*
X3705Y23971D02*
D03*
X4001Y18656D02*
D03*
X3705Y15704D02*
D03*
Y14522D02*
D03*
X4001Y13932D02*
D03*
X3705Y13341D02*
D03*
X4001Y8026D02*
D03*
Y5664D02*
D03*
X3115Y16885D02*
D03*
X3410Y15113D02*
D03*
X3115Y14522D02*
D03*
X3410Y13932D02*
D03*
X3115Y13341D02*
D03*
Y12160D02*
D03*
X2524Y19247D02*
D03*
Y18066D02*
D03*
X2820Y17475D02*
D03*
X2524Y16885D02*
D03*
X2820Y16294D02*
D03*
Y15113D02*
D03*
X2524Y14522D02*
D03*
X2820Y13932D02*
D03*
X2524Y13341D02*
D03*
X2820Y12751D02*
D03*
Y5664D02*
D03*
X2524Y5074D02*
D03*
Y3893D02*
D03*
X2820Y3302D02*
D03*
X1934Y20428D02*
D03*
Y19247D02*
D03*
X2229Y18656D02*
D03*
X1934Y18066D02*
D03*
X2229Y17475D02*
D03*
X1934Y16885D02*
D03*
X2229Y16294D02*
D03*
X1934Y15704D02*
D03*
X2229Y13932D02*
D03*
Y12751D02*
D03*
Y11570D02*
D03*
Y6845D02*
D03*
X1934Y3893D02*
D03*
X2229Y3302D02*
D03*
X1934Y2711D02*
D03*
Y1530D02*
D03*
X1343Y20428D02*
D03*
X1638Y19837D02*
D03*
X1343Y19247D02*
D03*
Y18066D02*
D03*
X1638Y17475D02*
D03*
X1343Y16885D02*
D03*
X1638Y16294D02*
D03*
X1343Y15704D02*
D03*
X1638Y15113D02*
D03*
X1343Y14522D02*
D03*
Y13341D02*
D03*
Y12160D02*
D03*
Y9798D02*
D03*
Y8617D02*
D03*
X1638Y4483D02*
D03*
X1343Y3893D02*
D03*
X1638Y3302D02*
D03*
X1343Y2711D02*
D03*
X1638Y2121D02*
D03*
X1343Y1530D02*
D03*
X1638Y940D02*
D03*
X753Y20428D02*
D03*
Y19247D02*
D03*
X1048Y18656D02*
D03*
X753Y18066D02*
D03*
X1048Y17475D02*
D03*
X753Y16885D02*
D03*
X1048Y16294D02*
D03*
X753Y15704D02*
D03*
X1048Y15113D02*
D03*
X753Y14522D02*
D03*
X1048Y13932D02*
D03*
X753Y13341D02*
D03*
X1048Y12751D02*
D03*
X753Y12160D02*
D03*
X1048Y10389D02*
D03*
X753Y9798D02*
D03*
X1048Y9207D02*
D03*
X753Y8617D02*
D03*
X1048Y5664D02*
D03*
X753Y3893D02*
D03*
X1048Y3302D02*
D03*
X753Y2711D02*
D03*
X1048Y2121D02*
D03*
X753Y1530D02*
D03*
X6975Y16380D02*
D03*
X7414Y15660D02*
D03*
X6975Y14812D02*
D03*
X7414Y14094D02*
D03*
X6954Y13376D02*
D03*
X7429Y12520D02*
D03*
X6954Y11683D02*
D03*
X7429Y10804D02*
D03*
X16804Y14950D02*
D03*
X16122Y15709D02*
D03*
X42179Y4837D02*
D03*
X42756Y10833D02*
D03*
X36029Y13017D02*
D03*
X30285Y11450D02*
D03*
X29934Y8203D02*
D03*
X30868Y8406D02*
D03*
X31155Y5667D02*
D03*
X29839D02*
D03*
X30070Y4690D02*
D03*
X27844D02*
D03*
X23893Y4651D02*
D03*
X21960Y6464D02*
D03*
X22303Y7614D02*
D03*
X20551Y6196D02*
D03*
X20553Y7603D02*
D03*
X22735Y5522D02*
D03*
X22751Y7045D02*
D03*
X18017Y5590D02*
D03*
X19217Y3060D02*
D03*
X20827Y4199D02*
D03*
X19165Y5483D02*
D03*
X16745Y5594D02*
D03*
X16093Y7559D02*
D03*
X16230Y9237D02*
D03*
X16122Y8275D02*
D03*
X12361Y9195D02*
D03*
X12010Y9861D02*
D03*
X13159Y10577D02*
D03*
X6949Y10075D02*
D03*
X7635Y9618D02*
D03*
X8073Y8870D02*
D03*
X9698Y10162D02*
D03*
X10172Y8641D02*
D03*
X11122Y8645D02*
D03*
X12361Y7997D02*
D03*
X11931Y7127D02*
D03*
X13478Y7013D02*
D03*
X13760Y7573D02*
D03*
X13691Y6003D02*
D03*
X14466Y6659D02*
D03*
X14882Y5059D02*
D03*
X17470Y4484D02*
D03*
X20525Y1390D02*
D03*
X18407Y3261D02*
D03*
X15774D02*
D03*
X14179D02*
D03*
X12607Y1349D02*
D03*
X13195Y2953D02*
D03*
X13642Y1761D02*
D03*
X12739Y2367D02*
D03*
X3943Y4060D02*
D03*
X4466Y3209D02*
D03*
X5945Y5329D02*
D03*
X4145Y4764D02*
D03*
X3430Y11486D02*
D03*
X307Y17971D02*
D03*
X9483Y19001D02*
D03*
X11024Y19807D02*
D03*
X11017Y20482D02*
D03*
X10843Y22009D02*
D03*
X9952Y21871D02*
D03*
X9637Y22401D02*
D03*
X7169Y23178D02*
D03*
Y20491D02*
D03*
X8635Y20513D02*
D03*
X9574Y20532D02*
D03*
X7177Y20974D02*
D03*
X4953Y18089D02*
D03*
X6679Y16760D02*
D03*
X10724Y14934D02*
D03*
X9637Y14935D02*
D03*
X12301Y15653D02*
D03*
X12855Y17282D02*
D03*
X11878Y17286D02*
D03*
X12923Y19820D02*
D03*
X13770Y19823D02*
D03*
X14620Y19798D02*
D03*
X14606Y17331D02*
D03*
X19492Y23334D02*
D03*
X15465Y22165D02*
D03*
X12439Y22451D02*
D03*
X13465Y23381D02*
D03*
X14226Y22155D02*
D03*
X13308Y22156D02*
D03*
X13012Y23864D02*
D03*
X11649Y23835D02*
D03*
X11850Y21626D02*
D03*
X12470Y21633D02*
D03*
X12923Y21624D02*
D03*
X13760Y21635D02*
D03*
X14577Y21644D02*
D03*
X13770Y20482D02*
D03*
X14586Y20473D02*
D03*
X12933Y20482D02*
D03*
X11878Y20473D02*
D03*
X10292Y20491D02*
D03*
X9897Y21107D02*
D03*
X22490Y19972D02*
D03*
X19587Y21635D02*
D03*
X19047Y20413D02*
D03*
X15484Y18563D02*
D03*
X15011Y17349D02*
D03*
X16204Y19527D02*
D03*
X17286Y18990D02*
D03*
X17313Y13968D02*
D03*
X16330Y14416D02*
D03*
X15892Y13132D02*
D03*
X17216Y13143D02*
D03*
X17313Y11329D02*
D03*
X15877Y10851D02*
D03*
X16233Y11785D02*
D03*
X18876Y11013D02*
D03*
X21043Y10275D02*
D03*
X20792Y11821D02*
D03*
X20041Y15097D02*
D03*
X20699Y14213D02*
D03*
X19963Y14037D02*
D03*
X25801Y17460D02*
D03*
X24134D02*
D03*
X22584Y17469D02*
D03*
X20846Y18067D02*
D03*
X20709Y19413D02*
D03*
X19963Y19356D02*
D03*
X30282Y15261D02*
D03*
X33260Y20824D02*
D03*
X30719Y20193D02*
D03*
X31889Y18967D02*
D03*
X32579Y19478D02*
D03*
X33351Y20030D02*
D03*
X33356Y18907D02*
D03*
X32429Y20671D02*
D03*
X4173Y18106D02*
D03*
X3839Y21421D02*
D03*
X3829Y20182D02*
D03*
Y19251D02*
D03*
X19666Y3445D02*
D03*
X22826Y1701D02*
D03*
X19490Y4502D02*
D03*
X10930Y1810D02*
D03*
X19236Y17032D02*
D03*
Y12032D02*
D03*
X18346Y11782D02*
D03*
Y13012D02*
D03*
X18150Y18189D02*
D03*
X18317Y16875D02*
D03*
X19236Y18189D02*
D03*
X28831Y20463D02*
D03*
Y19488D02*
D03*
X26801Y18110D02*
D03*
X24872Y18100D02*
D03*
X23326D02*
D03*
X21909D02*
D03*
Y19478D02*
D03*
X22913Y19488D02*
D03*
X23814Y19488D02*
D03*
X24858D02*
D03*
X25832Y19478D02*
D03*
X26806D02*
D03*
X27825D02*
D03*
X9252Y21093D02*
D03*
X11152Y6801D02*
D03*
X13249Y7397D02*
D03*
X12341D02*
D03*
X5972Y7674D02*
D03*
X6555Y7433D02*
D03*
X19205Y4769D02*
D03*
X18329D02*
D03*
X18770Y3445D02*
D03*
X11900Y19665D02*
D03*
X10280Y9155D02*
D03*
X39311Y10235D02*
D03*
X41432Y17094D02*
D03*
X37894Y16636D02*
D03*
X37189Y16637D02*
D03*
X32136Y12994D02*
D03*
X36968Y15332D02*
D03*
X37734Y15071D02*
D03*
X35733Y11724D02*
D03*
X7566Y19470D02*
D03*
X9065Y19274D02*
D03*
X7793Y3052D02*
D03*
X6601Y1663D02*
D03*
X7108Y3171D02*
D03*
X6520Y3378D02*
D03*
X5781Y16412D02*
D03*
X10630Y18602D02*
D03*
X15157Y2341D02*
D03*
Y1197D02*
D03*
X7077Y4872D02*
D03*
X8496Y4272D02*
D03*
X9783Y4281D02*
D03*
X12795Y4400D02*
D03*
X12341Y5724D02*
D03*
X13249Y5722D02*
D03*
X12795Y6073D02*
D03*
X4717Y2131D02*
D03*
X9163Y9252D02*
D03*
X8901D02*
D03*
X8645D02*
D03*
X8389D02*
D03*
X5778Y4695D02*
D03*
X6112Y3386D02*
D03*
X5907Y4429D02*
D03*
X4754Y3829D02*
D03*
X6132Y8514D02*
D03*
X5138Y6407D02*
D03*
X22756Y7431D02*
D03*
X31752Y10073D02*
D03*
X30696Y8744D02*
D03*
X33312Y6761D02*
D03*
X32600Y9561D02*
D03*
X31484Y10807D02*
D03*
X34539Y12558D02*
D03*
X34951Y11724D02*
D03*
X36812Y11380D02*
D03*
X37664Y11631D02*
D03*
X38041Y10950D02*
D03*
X38309Y11615D02*
D03*
X40136Y11158D02*
D03*
X40109Y16555D02*
D03*
X35829Y22586D02*
D03*
X40571Y16831D02*
D03*
X40108Y17096D02*
D03*
X41333Y17638D02*
D03*
X40108D02*
D03*
X36309Y14596D02*
D03*
X35640Y13012D02*
D03*
X34065Y13002D02*
D03*
X36417Y13012D02*
D03*
X32844Y10404D02*
D03*
X33337Y11024D02*
D03*
X8062Y22441D02*
D03*
X8031Y20650D02*
D03*
X34951Y11220D02*
D03*
X35344Y11220D02*
D03*
X35738Y11220D02*
D03*
X34951Y10827D02*
D03*
X35344D02*
D03*
X35738D02*
D03*
X34951Y10433D02*
D03*
X35344D02*
D03*
X35738D02*
D03*
X34951Y10039D02*
D03*
X35344Y10039D02*
D03*
X35738Y10039D02*
D03*
X34647Y9612D02*
D03*
X35822Y9384D02*
D03*
X34831D02*
D03*
X36999Y9622D02*
D03*
X36435Y11604D02*
D03*
X37510Y11010D02*
D03*
X32688Y11236D02*
D03*
X32844Y9990D02*
D03*
X36443Y10132D02*
D03*
X34257Y10128D02*
D03*
X36437Y11158D02*
D03*
X36439Y10630D02*
D03*
X34256Y11126D02*
D03*
X34257Y10633D02*
D03*
X817Y20915D02*
D03*
X2185Y21426D02*
D03*
X1780Y23348D02*
D03*
X3025Y23041D02*
D03*
X2469Y22338D02*
D03*
X26125Y1807D02*
D03*
X2101Y6570D02*
D03*
X3430Y5572D02*
D03*
X4559Y5577D02*
D03*
X2229Y19961D02*
D03*
X1248D02*
D03*
X1737Y18847D02*
D03*
X21417Y1437D02*
D03*
X26101Y4332D02*
D03*
X25584Y4897D02*
D03*
X25098Y4332D02*
D03*
X24579Y4897D02*
D03*
X42385Y11861D02*
D03*
X19948Y11004D02*
D03*
X19946Y16000D02*
D03*
X24911Y15531D02*
D03*
X23856Y15532D02*
D03*
X22871Y15542D02*
D03*
X21818Y15549D02*
D03*
X40580Y16137D02*
D03*
X40157Y8543D02*
D03*
X39400Y7795D02*
D03*
X14045Y4360D02*
D03*
X15739Y6018D02*
D03*
X23750Y5699D02*
D03*
X27224Y5709D02*
D03*
X28563D02*
D03*
X29741Y9514D02*
D03*
X17325Y19684D02*
D03*
X8150Y19813D02*
D03*
X1085Y8144D02*
D03*
X4861Y10295D02*
D03*
X4799Y8287D02*
D03*
X4802Y8833D02*
D03*
X20846Y16914D02*
D03*
X21807Y16694D02*
D03*
X24837Y16734D02*
D03*
X23829Y16713D02*
D03*
X22829D02*
D03*
X34065Y14976D02*
D03*
X40727Y13427D02*
D03*
X40433Y11387D02*
D03*
X41594Y11319D02*
D03*
X39941Y12884D02*
D03*
X40001Y23807D02*
D03*
X38069Y21673D02*
D03*
X40025D02*
D03*
X38065Y22353D02*
D03*
X40837Y12333D02*
D03*
X38323Y16645D02*
D03*
X36585Y16644D02*
D03*
X28791Y9529D02*
D03*
X27864D02*
D03*
X26826Y9536D02*
D03*
X25827Y9553D02*
D03*
X24831Y9532D02*
D03*
X23820Y9545D02*
D03*
X21807Y8216D02*
D03*
X20799Y8221D02*
D03*
X21709Y9959D02*
D03*
X21848Y9551D02*
D03*
X22810Y9557D02*
D03*
X21946Y10332D02*
D03*
X22800Y10323D02*
D03*
X23820Y10320D02*
D03*
X24811Y10317D02*
D03*
X25820Y10314D02*
D03*
X26812Y10323D02*
D03*
X27813D02*
D03*
X28819D02*
D03*
X29705Y10572D02*
D03*
X11693Y8369D02*
D03*
X10658Y23864D02*
D03*
X6816Y6358D02*
D03*
X37274Y1794D02*
D03*
X27254Y3447D02*
D03*
X2953Y24665D02*
D03*
X4306Y24657D02*
D03*
X5392Y24656D02*
D03*
X6489Y24657D02*
D03*
X4169Y23858D02*
D03*
X5766Y22215D02*
D03*
X5830Y23780D02*
D03*
X4124Y22215D02*
D03*
X6104Y23041D02*
D03*
X3813Y23031D02*
D03*
X5039Y24183D02*
D03*
X4921Y21890D02*
D03*
X2358Y2795D02*
D03*
X3955Y1152D02*
D03*
X4019Y2717D02*
D03*
X2313Y1152D02*
D03*
X4293Y1978D02*
D03*
X2002Y1969D02*
D03*
X3228Y3120D02*
D03*
X3110Y827D02*
D03*
X16531Y2795D02*
D03*
X18128Y1152D02*
D03*
X18192Y2717D02*
D03*
X16486Y1152D02*
D03*
X18467Y1978D02*
D03*
X16175Y1969D02*
D03*
X17402Y3120D02*
D03*
X17283Y827D02*
D03*
X41693Y827D02*
D03*
X41811Y3120D02*
D03*
X40584Y1969D02*
D03*
X42876Y1978D02*
D03*
X41008Y4518D02*
D03*
X40980Y3809D02*
D03*
X36624Y3003D02*
D03*
X35925Y2126D02*
D03*
X39968Y2130D02*
D03*
X38079Y2339D02*
D03*
X34045D02*
D03*
X38627Y2805D02*
D03*
X34635Y3464D02*
D03*
X14932Y24665D02*
D03*
X11923Y2354D02*
D03*
X19753Y5091D02*
D03*
X8081Y23878D02*
D03*
X9463D02*
D03*
X9724Y23031D02*
D03*
X6860Y19816D02*
D03*
X26821Y13428D02*
D03*
X27820D02*
D03*
X2282Y10432D02*
D03*
X2301Y8582D02*
D03*
X3827Y11585D02*
D03*
X11033Y15738D02*
D03*
X4854Y16499D02*
D03*
X4826Y17362D02*
D03*
X5358Y17617D02*
D03*
X16488Y22211D02*
D03*
X18435Y23334D02*
D03*
X17736Y24104D02*
D03*
X16634Y23976D02*
D03*
X16028Y21644D02*
D03*
X15423Y20482D02*
D03*
X15837Y14951D02*
D03*
X40896Y1152D02*
D03*
X42601Y2717D02*
D03*
X42538Y1152D02*
D03*
X40941Y2795D02*
D03*
X43194Y19823D02*
D03*
X30787Y14587D02*
D03*
X32923Y16089D02*
D03*
X24065Y6285D02*
D03*
X21500Y4897D02*
D03*
X22766Y4533D02*
D03*
X307Y8980D02*
D03*
X317Y5887D02*
D03*
X335Y5236D02*
D03*
X2101Y5551D02*
D03*
X3668Y7972D02*
D03*
X1464Y24665D02*
D03*
X305Y23501D02*
D03*
Y21776D02*
D03*
X6714Y19311D02*
D03*
X7775Y16741D02*
D03*
X8934Y15709D02*
D03*
X9371Y16113D02*
D03*
X9902Y15738D02*
D03*
X11713Y16270D02*
D03*
X19979Y11785D02*
D03*
X21290Y12066D02*
D03*
X17913Y5143D02*
D03*
X41660Y8973D02*
D03*
X34303Y22281D02*
D03*
X38573Y22933D02*
D03*
X41676Y23976D02*
D03*
X40934Y21673D02*
D03*
X40477Y22322D02*
D03*
X39141Y22944D02*
D03*
X39549Y22219D02*
D03*
X39545Y23412D02*
D03*
X41243Y22972D02*
D03*
X11652Y22845D02*
D03*
X39779Y24026D02*
D03*
X11063Y17688D02*
D03*
Y17047D02*
D03*
Y16460D02*
D03*
X11900Y19027D02*
D03*
X11683Y18799D02*
D03*
Y18287D02*
D03*
X11866Y18061D02*
D03*
X41498Y5108D02*
D03*
X41476Y6255D02*
D03*
X19236Y13149D02*
D03*
X41202Y12476D02*
D03*
X18846Y13533D02*
D03*
X18841Y18526D02*
D03*
X18834Y18807D02*
D03*
X3012Y4763D02*
D03*
X773D02*
D03*
X21486Y837D02*
D03*
X16348Y8724D02*
D03*
X16358Y13720D02*
D03*
X29766Y11450D02*
D03*
X29734Y21543D02*
D03*
X16348Y18720D02*
D03*
X4872Y4695D02*
D03*
X5358Y17361D02*
D03*
X8317Y16496D02*
D03*
X8760D02*
D03*
X9790Y19282D02*
D03*
X5196Y10610D02*
D03*
X3668Y8284D02*
D03*
X21247Y3110D02*
D03*
X10055Y4272D02*
D03*
X8546Y2354D02*
D03*
X8970Y1958D02*
D03*
X6441Y8067D02*
D03*
X20172Y2805D02*
D03*
X20955Y2510D02*
D03*
X21584Y3450D02*
D03*
X20584Y4759D02*
D03*
X21500Y3976D02*
D03*
X22136Y3435D02*
D03*
X22120Y4262D02*
D03*
X22766Y3904D02*
D03*
X10653Y2156D02*
D03*
X9584D02*
D03*
X6814Y5125D02*
D03*
X9354Y8625D02*
D03*
X9827Y8657D02*
D03*
X7795Y4272D02*
D03*
X4519Y9089D02*
D03*
X4711Y9234D02*
D03*
X3358Y8238D02*
D03*
X5364Y9961D02*
D03*
X8386Y8996D02*
D03*
X6852Y7029D02*
D03*
X8086Y8546D02*
D03*
X7244Y9065D02*
D03*
X36637Y15616D02*
D03*
X20668Y3563D02*
D03*
X8356Y19596D02*
D03*
X31751Y9354D02*
D03*
X40584Y10236D02*
D03*
X30482Y9941D02*
D03*
X7576Y17577D02*
D03*
Y18050D02*
D03*
Y18522D02*
D03*
X8048D02*
D03*
X8520D02*
D03*
Y18050D02*
D03*
Y17577D02*
D03*
X8048D02*
D03*
Y18050D02*
D03*
X5525Y17836D02*
D03*
X5354Y18290D02*
D03*
X9367Y17124D02*
D03*
X7441Y19813D02*
D03*
X9790Y18601D02*
D03*
X40737Y13834D02*
D03*
X41219Y14656D02*
D03*
X41811Y14470D02*
D03*
X41774Y13656D02*
D03*
X41457Y14380D02*
D03*
X40972D02*
D03*
X40990Y13427D02*
D03*
X10663Y22992D02*
D03*
X3453Y6979D02*
D03*
X3455Y7628D02*
D03*
X3759Y7304D02*
D03*
X2724Y11963D02*
D03*
X5876Y9695D02*
D03*
X3261Y11049D02*
D03*
X4198Y11654D02*
D03*
X3632Y10955D02*
D03*
X3868Y11112D02*
D03*
X4827Y9995D02*
D03*
X4171Y11202D02*
D03*
X2822Y8237D02*
D03*
X2823Y10758D02*
D03*
X26752Y15638D02*
D03*
X25738Y15636D02*
D03*
X27149Y17136D02*
D03*
X27756Y16778D02*
D03*
X25801Y8219D02*
D03*
X24809D02*
D03*
X23790D02*
D03*
X22815D02*
D03*
X24834Y13533D02*
D03*
X23839D02*
D03*
X22852D02*
D03*
X27334Y15011D02*
D03*
X21909Y18907D02*
D03*
X21240Y17598D02*
D03*
X20728Y20463D02*
D03*
X18283Y18807D02*
D03*
X20335Y15876D02*
D03*
X20326Y15585D02*
D03*
X29331Y19744D02*
D03*
X20335Y9973D02*
D03*
X20334Y10791D02*
D03*
Y10545D02*
D03*
X29321Y14202D02*
D03*
Y14459D02*
D03*
X41437Y13422D02*
D03*
X8055Y6954D02*
D03*
X8580D02*
D03*
X9105D02*
D03*
X9630D02*
D03*
X8055Y6482D02*
D03*
X8580D02*
D03*
X9105D02*
D03*
X9630D02*
D03*
X8055Y6010D02*
D03*
X8580D02*
D03*
X9105D02*
D03*
X9630D02*
D03*
X8055Y5537D02*
D03*
X8580D02*
D03*
X9105D02*
D03*
X9630D02*
D03*
X38112Y14697D02*
D03*
X38585D02*
D03*
X39057D02*
D03*
X39530D02*
D03*
X38112Y14224D02*
D03*
X38585D02*
D03*
X39057D02*
D03*
X39530D02*
D03*
X38112Y13752D02*
D03*
X38585D02*
D03*
X39057D02*
D03*
X39530D02*
D03*
X38112Y13280D02*
D03*
X38585D02*
D03*
X39057D02*
D03*
X39530D02*
D03*
X34547Y20030D02*
D03*
X34065Y16043D02*
D03*
Y20030D02*
D03*
Y17953D02*
D03*
X11083Y9935D02*
D03*
X33482Y15236D02*
D03*
X31155Y14232D02*
D03*
X32037Y17949D02*
D03*
X28899Y11850D02*
D03*
X34547Y17943D02*
D03*
X33356Y17938D02*
D03*
X25815Y11870D02*
D03*
X27820Y11840D02*
D03*
X20796Y13149D02*
D03*
X21792Y13164D02*
D03*
X30389Y16075D02*
D03*
X25815Y18100D02*
D03*
X27842Y18110D02*
D03*
X28804Y17966D02*
D03*
X30808Y17938D02*
D03*
X29834Y18877D02*
D03*
X32741Y21535D02*
D03*
X31763Y21543D02*
D03*
X31000D02*
D03*
X29016Y21713D02*
D03*
X27985D02*
D03*
X27001D02*
D03*
X26004D02*
D03*
X24980Y21722D02*
D03*
X23996D02*
D03*
X23012D02*
D03*
X22008Y21725D02*
D03*
X20945Y21722D02*
D03*
X19963Y18189D02*
D03*
X19007Y14951D02*
D03*
X17325Y18120D02*
D03*
X18827Y19528D02*
D03*
X17825Y20260D02*
D03*
X19931Y20463D02*
D03*
X16172Y23051D02*
D03*
X18177Y22258D02*
D03*
X20326Y21724D02*
D03*
X16825Y21726D02*
D03*
X17834Y15011D02*
D03*
X17325Y16611D02*
D03*
X16230Y16614D02*
D03*
X18834Y9977D02*
D03*
X17325Y8615D02*
D03*
X17441Y9980D02*
D03*
X16043D02*
D03*
X305Y19961D02*
D03*
X307Y15888D02*
D03*
Y13932D02*
D03*
Y11963D02*
D03*
Y7777D02*
D03*
Y10553D02*
D03*
Y4094D02*
D03*
X11486Y778D02*
D03*
X25095Y5709D02*
D03*
X26098D02*
D03*
X39659Y3450D02*
D03*
X38445D02*
D03*
X35942Y3464D02*
D03*
X40972Y5667D02*
D03*
X36416Y5606D02*
D03*
X33297Y5667D02*
D03*
X35088Y6058D02*
D03*
X40561Y3307D02*
D03*
X41473Y24656D02*
D03*
X36929D02*
D03*
X38444D02*
D03*
X39958D02*
D03*
X32386D02*
D03*
X33900D02*
D03*
X35415D02*
D03*
X27842D02*
D03*
X29357D02*
D03*
X30871D02*
D03*
X23299D02*
D03*
X24813D02*
D03*
X26328D02*
D03*
X18755D02*
D03*
X20270D02*
D03*
X21784D02*
D03*
X13799Y24656D02*
D03*
X15994D02*
D03*
X17241Y24656D02*
D03*
X39675Y307D02*
D03*
X41363D02*
D03*
X43013D02*
D03*
X35131D02*
D03*
X36646D02*
D03*
X38160D02*
D03*
X30588D02*
D03*
X32102D02*
D03*
X33617D02*
D03*
X26044D02*
D03*
X27559D02*
D03*
X29073D02*
D03*
X21486D02*
D03*
X23016D02*
D03*
X24530D02*
D03*
X16958D02*
D03*
X18472D02*
D03*
X19987D02*
D03*
X12414D02*
D03*
X13929D02*
D03*
X15443D02*
D03*
X7871D02*
D03*
X9370Y305D02*
D03*
X10900Y307D02*
D03*
X6102D02*
D03*
X4842D02*
D03*
X43224Y13527D02*
D03*
X33284Y4747D02*
D03*
X41083Y7441D02*
D03*
X295Y3012D02*
D03*
X29786Y13418D02*
D03*
X32110Y16634D02*
D03*
X41774Y13157D02*
D03*
X43196Y11941D02*
D03*
X39682Y12207D02*
D03*
X41080Y13002D02*
D03*
X42236Y12696D02*
D03*
X41585Y12175D02*
D03*
Y12707D02*
D03*
X41195Y11819D02*
D03*
X41585Y10236D02*
D03*
X43002Y12697D02*
D03*
X43193Y10553D02*
D03*
X41199Y10807D02*
D03*
X43212Y15484D02*
D03*
X42522Y15907D02*
D03*
X43212Y16350D02*
D03*
X43204Y17118D02*
D03*
Y17984D02*
D03*
X43196Y18752D02*
D03*
X41664Y16424D02*
D03*
X42810Y16739D02*
D03*
X42896Y13381D02*
D03*
X42144D02*
D03*
X42522Y13157D02*
D03*
X43224Y13280D02*
D03*
X43221Y14717D02*
D03*
X42148Y14746D02*
D03*
X42896D02*
D03*
X41630Y15236D02*
D03*
X40012Y15317D02*
D03*
X42522Y15054D02*
D03*
X41841Y15720D02*
D03*
X40732Y14467D02*
D03*
X40876Y14656D02*
D03*
X40167Y15925D02*
D03*
X41168Y16137D02*
D03*
X41336Y18002D02*
D03*
X40636Y18593D02*
D03*
X33437Y16085D02*
D03*
X36972Y13014D02*
D03*
X37418Y15068D02*
D03*
X37217Y13014D02*
D03*
X37762Y15357D02*
D03*
X37133Y16089D02*
D03*
X37404Y16367D02*
D03*
X38082Y16377D02*
D03*
X38612Y15757D02*
D03*
X38852Y15917D02*
D03*
X39092Y16577D02*
D03*
X41084Y9334D02*
D03*
X40789Y8514D02*
D03*
X42766Y24099D02*
D03*
X43178Y23661D02*
D03*
X43001Y24696D02*
D03*
X26842Y11870D02*
D03*
X22702Y12077D02*
D03*
X24085Y12086D02*
D03*
X28824Y8209D02*
D03*
X27822D02*
D03*
X26846Y8219D02*
D03*
X16319Y18120D02*
D03*
X19979Y16902D02*
D03*
X26325Y15006D02*
D03*
X28821Y13436D02*
D03*
X28804Y15294D02*
D03*
X29325Y9381D02*
D03*
Y9125D02*
D03*
X43191Y1361D02*
D03*
X23038Y3444D02*
D03*
X23829Y1701D02*
D03*
X25061Y1900D02*
D03*
X24575Y3447D02*
D03*
X25071Y3444D02*
D03*
X25575Y3449D02*
D03*
X23825Y3444D02*
D03*
X26713Y3040D02*
D03*
X26075Y3464D02*
D03*
X28159Y3040D02*
D03*
X28992Y3450D02*
D03*
X30226Y3034D02*
D03*
X31186Y3450D02*
D03*
X32663Y3040D02*
D03*
X33147Y3464D02*
D03*
X34647Y2815D02*
D03*
X37169Y3450D02*
D03*
X39451Y5829D02*
D03*
X40123Y7042D02*
D03*
X21812Y1784D02*
D03*
X10699Y24656D02*
D03*
X12697D02*
D03*
X11652D02*
D03*
X9759D02*
D03*
X12172Y24200D02*
D03*
Y23037D02*
D03*
X12170Y23284D02*
D03*
Y24437D02*
D03*
X3353Y9219D02*
D03*
X2165Y9518D02*
D03*
X2126Y11204D02*
D03*
X2101Y7783D02*
D03*
X5627Y8273D02*
D03*
X19979Y13077D02*
D03*
X17825Y21722D02*
D03*
X16825Y20260D02*
D03*
X43186Y23028D02*
D03*
Y21516D02*
D03*
Y22382D02*
D03*
X43194Y20748D02*
D03*
X9613Y817D02*
D03*
X11834Y4169D02*
D03*
X15207Y19704D02*
D03*
X317Y1909D02*
D03*
X11244Y7145D02*
D03*
X10354Y7152D02*
D03*
X6784Y9065D02*
D03*
X14242Y19370D02*
D03*
X8494Y4535D02*
D03*
X26075Y6285D02*
D03*
X25561Y6473D02*
D03*
X25061Y6663D02*
D03*
X24549Y6855D02*
D03*
X24061Y7048D02*
D03*
X23543Y7431D02*
D03*
X3358Y10758D02*
D03*
Y7972D02*
D03*
X4833Y7351D02*
D03*
X33723Y21567D02*
D03*
X21125Y15261D02*
D03*
X5607Y8944D02*
D03*
X9561Y8402D02*
D03*
X8364Y7895D02*
D03*
X10954Y6570D02*
D03*
Y6325D02*
D03*
X10883Y7520D02*
D03*
X6112Y9122D02*
D03*
X10856Y8085D02*
D03*
X10280Y8372D02*
D03*
X4478Y6592D02*
D03*
X3063Y8238D02*
D03*
Y10758D02*
D03*
X30343Y11898D02*
D03*
X29766Y16449D02*
D03*
X25849Y13546D02*
D03*
X22334Y15003D02*
D03*
X23337Y15000D02*
D03*
X24321D02*
D03*
X25335Y15006D02*
D03*
X27820Y20453D02*
D03*
X26801D02*
D03*
X25827D02*
D03*
X24852Y20463D02*
D03*
X23809D02*
D03*
X22913Y18533D02*
D03*
X20739Y18907D02*
D03*
X22839Y20463D02*
D03*
X21818Y20482D02*
D03*
X21325Y19970D02*
D03*
X19478Y1772D02*
D03*
X19236Y2332D02*
D03*
X19734D02*
D03*
X19236Y1219D02*
D03*
X19734D02*
D03*
X22571Y13041D02*
D03*
X29332Y19380D02*
D03*
X4547Y10246D02*
D03*
X991Y10825D02*
D03*
X33284Y1008D02*
D03*
X35942D02*
D03*
X37324D02*
D03*
X39982D02*
D03*
Y4748D02*
D03*
X37324D02*
D03*
X23826Y1005D02*
D03*
X22326Y1005D02*
D03*
X22826D02*
D03*
X16834Y10875D02*
D03*
X17834D02*
D03*
X16834Y10586D02*
D03*
X17828Y10585D02*
D03*
X16834Y15875D02*
D03*
X17834D02*
D03*
X16834Y15586D02*
D03*
X17828Y15585D02*
D03*
X25061Y12065D02*
D03*
X26326Y1004D02*
D03*
X25826D02*
D03*
X25326D02*
D03*
X35942Y4747D02*
D03*
X1813Y307D02*
D03*
X42462Y9774D02*
D03*
X43200Y9065D02*
D03*
Y7539D02*
D03*
Y5965D02*
D03*
X43191Y4547D02*
D03*
Y3140D02*
D03*
X366Y364D02*
D03*
X40477Y22972D02*
D03*
X8673Y24657D02*
D03*
X7575Y24656D02*
D03*
X3327Y307D02*
D03*
X40934Y22322D02*
D03*
X307Y24656D02*
D03*
X7114Y1672D02*
D03*
X34883Y21567D02*
D03*
X6102Y1671D02*
D03*
M02*
