G04*
G04 #@! TF.GenerationSoftware,Altium Limited,Altium Designer,25.4.2 (15)*
G04*
G04 Layer_Color=8421504*
%FSLAX24Y24*%
%MOIN*%
G70*
G04*
G04 #@! TF.SameCoordinates,58243F55-B80C-4B6F-AF4D-97493F1C6FF7*
G04*
G04*
G04 #@! TF.FilePolarity,Positive*
G04*
G01*
G75*
%ADD20C,0.0433*%
%ADD21O,0.0669X0.0354*%
%ADD22O,0.0787X0.0354*%
G04:AMPARAMS|DCode=23|XSize=43.3mil|YSize=39.4mil|CornerRadius=3mil|HoleSize=0mil|Usage=FLASHONLY|Rotation=180.000|XOffset=0mil|YOffset=0mil|HoleType=Round|Shape=RoundedRectangle|*
%AMROUNDEDRECTD23*
21,1,0.0433,0.0335,0,0,180.0*
21,1,0.0374,0.0394,0,0,180.0*
1,1,0.0059,-0.0187,0.0167*
1,1,0.0059,0.0187,0.0167*
1,1,0.0059,0.0187,-0.0167*
1,1,0.0059,-0.0187,-0.0167*
%
%ADD23ROUNDEDRECTD23*%
%ADD24R,0.0366X0.0445*%
%ADD25R,0.0106X0.0118*%
%ADD26R,0.0118X0.0106*%
%ADD27R,0.0236X0.0217*%
%ADD28R,0.0197X0.0236*%
%ADD29R,0.0717X0.0445*%
%ADD30R,0.0197X0.0197*%
%ADD31R,0.0630X0.0394*%
G04:AMPARAMS|DCode=32|XSize=9.8mil|YSize=28.3mil|CornerRadius=2.5mil|HoleSize=0mil|Usage=FLASHONLY|Rotation=0.000|XOffset=0mil|YOffset=0mil|HoleType=Round|Shape=RoundedRectangle|*
%AMROUNDEDRECTD32*
21,1,0.0098,0.0234,0,0,0.0*
21,1,0.0049,0.0283,0,0,0.0*
1,1,0.0049,0.0025,-0.0117*
1,1,0.0049,-0.0025,-0.0117*
1,1,0.0049,-0.0025,0.0117*
1,1,0.0049,0.0025,0.0117*
%
%ADD32ROUNDEDRECTD32*%
G04:AMPARAMS|DCode=33|XSize=9.8mil|YSize=28.3mil|CornerRadius=2.5mil|HoleSize=0mil|Usage=FLASHONLY|Rotation=90.000|XOffset=0mil|YOffset=0mil|HoleType=Round|Shape=RoundedRectangle|*
%AMROUNDEDRECTD33*
21,1,0.0098,0.0234,0,0,90.0*
21,1,0.0049,0.0283,0,0,90.0*
1,1,0.0049,0.0117,0.0025*
1,1,0.0049,0.0117,-0.0025*
1,1,0.0049,-0.0117,-0.0025*
1,1,0.0049,-0.0117,0.0025*
%
%ADD33ROUNDEDRECTD33*%
%ADD34R,0.0236X0.0197*%
%ADD35R,0.0315X0.0295*%
%ADD36R,0.0071X0.0201*%
%ADD37R,0.0201X0.0071*%
%ADD38R,0.0240X0.0071*%
%ADD39R,0.0197X0.0157*%
%ADD40R,0.0433X0.0630*%
%ADD41R,0.0236X0.0394*%
%ADD42R,0.0453X0.0177*%
%ADD43R,0.0402X0.0862*%
%ADD44R,0.0300X0.0320*%
%ADD45R,0.0236X0.0236*%
%ADD46R,0.0157X0.0236*%
%ADD47R,0.0236X0.0236*%
%ADD48R,0.0236X0.0157*%
%ADD49R,0.1378X0.1378*%
%ADD50O,0.0335X0.0118*%
%ADD51O,0.0118X0.0335*%
%ADD52R,0.0295X0.0315*%
%ADD53O,0.0256X0.0079*%
%ADD54R,0.0400X0.1130*%
%ADD55R,0.0449X0.0236*%
%ADD56R,0.0449X0.0118*%
%ADD57R,0.0236X0.0079*%
%ADD58R,0.0197X0.0256*%
%ADD59R,0.0335X0.0374*%
%ADD60R,0.0551X0.0295*%
%ADD61C,0.0167*%
%ADD62C,0.0098*%
%ADD63O,0.0079X0.0256*%
%ADD64R,0.1850X0.1850*%
%ADD65R,0.0728X0.1358*%
%ADD66R,0.1083X0.0551*%
%ADD67R,0.0217X0.0236*%
%ADD68R,0.0299X0.0945*%
%ADD69R,0.0236X0.1024*%
%ADD70R,0.0118X0.0315*%
%ADD71R,0.0315X0.0295*%
%ADD72R,0.0228X0.0197*%
G36*
X4283Y9285D02*
X4204D01*
Y9363D01*
X4047D01*
Y9442D01*
X4283D01*
Y9285D01*
D02*
G37*
G36*
X4677Y9363D02*
X4519D01*
Y9285D01*
X4441D01*
Y9442D01*
X4677D01*
Y9363D01*
D02*
G37*
G36*
X4283Y9954D02*
X4047D01*
Y10033D01*
X4204D01*
Y10111D01*
X4283D01*
Y9954D01*
D02*
G37*
G36*
X4519Y10033D02*
X4677D01*
Y9954D01*
X4441D01*
Y10111D01*
X4519D01*
Y10033D01*
D02*
G37*
G36*
X1623Y21713D02*
X1559Y21649D01*
X993Y21649D01*
Y22043D01*
X1623D01*
X1623Y21713D01*
D02*
G37*
G36*
X2567Y21649D02*
X2001Y21649D01*
X1937Y21713D01*
X1937Y22043D01*
X2567D01*
Y21649D01*
D02*
G37*
G36*
X1559Y24011D02*
X1623Y23947D01*
X1623Y23617D01*
X993D01*
Y24011D01*
X1559Y24011D01*
D02*
G37*
G36*
X2567Y23617D02*
X1937D01*
X1937Y23947D01*
X2001Y24011D01*
X2567Y24011D01*
Y23617D01*
D02*
G37*
D20*
X31978Y11919D02*
G03*
X31978Y11919I-98J0D01*
G01*
D21*
X1069Y11202D02*
D03*
Y7801D02*
D03*
D22*
X2715D02*
D03*
Y11202D02*
D03*
D23*
X9610Y5537D02*
D03*
X9099D02*
D03*
X8587D02*
D03*
X8075D02*
D03*
Y6010D02*
D03*
X8587D02*
D03*
X9099D02*
D03*
X9610D02*
D03*
X8075Y6482D02*
D03*
X8587D02*
D03*
X9099D02*
D03*
X9610D02*
D03*
X8075Y6954D02*
D03*
X8587D02*
D03*
X9099D02*
D03*
X9610D02*
D03*
D24*
X34900Y11154D02*
D03*
X34900Y10630D02*
D03*
X34900Y10106D02*
D03*
X35344Y11154D02*
D03*
Y10630D02*
D03*
X35344Y10106D02*
D03*
X35789Y11154D02*
D03*
X35789Y10630D02*
D03*
X35789Y10106D02*
D03*
D25*
X9292Y21525D02*
D03*
X9068D02*
D03*
X12614Y9002D02*
D03*
X12839D02*
D03*
X12839Y8002D02*
D03*
X12614D02*
D03*
X12839Y8506D02*
D03*
X12614D02*
D03*
X12839Y8755D02*
D03*
X12614D02*
D03*
X12839Y8253D02*
D03*
X12614D02*
D03*
X18941Y4598D02*
D03*
X19165D02*
D03*
X18592D02*
D03*
X18368D02*
D03*
Y5246D02*
D03*
X18592D02*
D03*
X12972Y7226D02*
D03*
X13196D02*
D03*
X12394D02*
D03*
X12618D02*
D03*
X13196Y5549D02*
D03*
X12972D02*
D03*
X12394Y5553D02*
D03*
X12618D02*
D03*
X5754Y18671D02*
D03*
X5978D02*
D03*
X8799Y21093D02*
D03*
X9024Y21093D02*
D03*
X8799Y20876D02*
D03*
X9024D02*
D03*
X7657Y22441D02*
D03*
X7882D02*
D03*
X37272Y9437D02*
D03*
X37047D02*
D03*
X36038Y9384D02*
D03*
X36263D02*
D03*
X33259Y9986D02*
D03*
X33035D02*
D03*
X34643Y9387D02*
D03*
X34418D02*
D03*
X18562Y13347D02*
D03*
X18787D02*
D03*
X18575Y18349D02*
D03*
X18800D02*
D03*
X20010Y4870D02*
D03*
X19785D02*
D03*
X19165Y5246D02*
D03*
X18941D02*
D03*
X12199Y6339D02*
D03*
X11974D02*
D03*
X11425Y19024D02*
D03*
X11649D02*
D03*
X41610Y14067D02*
D03*
X41386D02*
D03*
X40350Y14272D02*
D03*
X40574D02*
D03*
Y13838D02*
D03*
X40350D02*
D03*
X40498Y13612D02*
D03*
X40722D02*
D03*
X5754Y18933D02*
D03*
X5978D02*
D03*
X11425Y18061D02*
D03*
X11649D02*
D03*
X40350Y14067D02*
D03*
X40574D02*
D03*
X12199Y4662D02*
D03*
X11974D02*
D03*
X40862Y17623D02*
D03*
X41087D02*
D03*
X30953Y8973D02*
D03*
X30729D02*
D03*
X40583Y17623D02*
D03*
X40359D02*
D03*
X31242Y8976D02*
D03*
X31466D02*
D03*
X10541Y6570D02*
D03*
X10766D02*
D03*
X40766Y14067D02*
D03*
X40990D02*
D03*
X4423Y11427D02*
D03*
X4199D02*
D03*
X9496Y7935D02*
D03*
X9272D02*
D03*
X10769Y6330D02*
D03*
X10544D02*
D03*
X6852Y5315D02*
D03*
X7076D02*
D03*
X6852Y6165D02*
D03*
X7076D02*
D03*
X6852Y7245D02*
D03*
X7076D02*
D03*
X37795Y15527D02*
D03*
X38020D02*
D03*
X39610Y12431D02*
D03*
X39386D02*
D03*
X40350Y14468D02*
D03*
X40574D02*
D03*
X38360Y15527D02*
D03*
X38585D02*
D03*
D26*
X9505Y21750D02*
D03*
Y21526D02*
D03*
X6142Y6226D02*
D03*
X6142Y6450D02*
D03*
X6356Y6226D02*
D03*
Y6451D02*
D03*
X5926Y6450D02*
D03*
Y6226D02*
D03*
X6454Y8565D02*
D03*
Y8340D02*
D03*
X4598Y1896D02*
D03*
Y1672D02*
D03*
X39779Y23583D02*
D03*
Y23807D02*
D03*
X16122Y13724D02*
D03*
Y13500D02*
D03*
X21260Y606D02*
D03*
Y831D02*
D03*
X10142Y10246D02*
D03*
Y10022D02*
D03*
X16122Y18500D02*
D03*
Y18724D02*
D03*
X7076Y19588D02*
D03*
Y19363D02*
D03*
X8150Y19366D02*
D03*
Y19591D02*
D03*
X9790Y18398D02*
D03*
Y18174D02*
D03*
X16122Y8500D02*
D03*
Y8724D02*
D03*
X41811Y14067D02*
D03*
Y14291D02*
D03*
X11244Y3912D02*
D03*
X8852Y21750D02*
D03*
Y21526D02*
D03*
X2392Y20900D02*
D03*
Y20675D02*
D03*
X5709Y6226D02*
D03*
X5709Y6451D02*
D03*
X41410Y23412D02*
D03*
Y23187D02*
D03*
X39310Y23412D02*
D03*
Y23187D02*
D03*
X6325Y3422D02*
D03*
Y3646D02*
D03*
X10417Y5337D02*
D03*
Y5112D02*
D03*
X11244Y3688D02*
D03*
X41410Y22112D02*
D03*
Y21887D02*
D03*
X39310Y22112D02*
D03*
Y21887D02*
D03*
X38832Y16379D02*
D03*
Y16154D02*
D03*
X5907Y4006D02*
D03*
Y4230D02*
D03*
X3868Y10498D02*
D03*
Y10722D02*
D03*
X43260Y13923D02*
D03*
Y13699D02*
D03*
X10274Y8167D02*
D03*
Y7942D02*
D03*
X10594Y7122D02*
D03*
Y7347D02*
D03*
X9584Y4312D02*
D03*
Y4537D02*
D03*
X10811Y7347D02*
D03*
Y7122D02*
D03*
X3632Y10722D02*
D03*
Y10498D02*
D03*
X8304Y4312D02*
D03*
Y4537D02*
D03*
X5907Y3428D02*
D03*
Y3652D02*
D03*
X38832Y15749D02*
D03*
Y15524D02*
D03*
X41195Y14067D02*
D03*
Y13843D02*
D03*
X37212Y13214D02*
D03*
Y13439D02*
D03*
X40222Y15279D02*
D03*
Y15054D02*
D03*
X39092Y16154D02*
D03*
Y16379D02*
D03*
D27*
X14380Y23555D02*
D03*
X13986D02*
D03*
X14380Y23957D02*
D03*
X13986D02*
D03*
X15165Y23555D02*
D03*
X14771D02*
D03*
X15167Y23957D02*
D03*
X14774D02*
D03*
X35619Y14106D02*
D03*
X36013D02*
D03*
X35619Y14470D02*
D03*
X36013D02*
D03*
D28*
X30030Y11053D02*
D03*
Y11447D02*
D03*
Y21043D02*
D03*
Y21437D02*
D03*
Y16053D02*
D03*
Y16447D02*
D03*
X18563Y18807D02*
D03*
Y19200D02*
D03*
X4173Y10561D02*
D03*
Y10955D02*
D03*
X36688Y13447D02*
D03*
Y13053D02*
D03*
X9824Y8008D02*
D03*
Y8401D02*
D03*
X9134Y8632D02*
D03*
Y8238D02*
D03*
X37408Y15696D02*
D03*
Y16089D02*
D03*
D29*
X10531Y16713D02*
D03*
Y17410D02*
D03*
D30*
X1308Y23814D02*
D03*
Y21846D02*
D03*
X2252Y23814D02*
D03*
Y21846D02*
D03*
D31*
X1308Y22830D02*
D03*
X2252D02*
D03*
D32*
X12795Y5315D02*
D03*
Y4646D02*
D03*
Y6988D02*
D03*
Y6319D02*
D03*
X18770Y4360D02*
D03*
Y3691D02*
D03*
X5650Y4081D02*
D03*
X5492D02*
D03*
X5335D02*
D03*
X5177D02*
D03*
X5020D02*
D03*
Y3577D02*
D03*
X5177D02*
D03*
X5335D02*
D03*
X5492D02*
D03*
X5650D02*
D03*
D33*
X13047Y5295D02*
D03*
Y5138D02*
D03*
Y4980D02*
D03*
Y4823D02*
D03*
Y4665D02*
D03*
X12543D02*
D03*
Y4823D02*
D03*
Y4980D02*
D03*
Y5138D02*
D03*
Y5295D02*
D03*
X13047Y6969D02*
D03*
Y6811D02*
D03*
Y6654D02*
D03*
Y6496D02*
D03*
Y6339D02*
D03*
X12543D02*
D03*
Y6496D02*
D03*
Y6654D02*
D03*
Y6811D02*
D03*
Y6969D02*
D03*
X19022Y4341D02*
D03*
Y4183D02*
D03*
Y4026D02*
D03*
Y3868D02*
D03*
Y3711D02*
D03*
X18518D02*
D03*
Y3868D02*
D03*
Y4026D02*
D03*
Y4183D02*
D03*
Y4341D02*
D03*
X5000Y3829D02*
D03*
X5669D02*
D03*
D34*
X5781Y16644D02*
D03*
X6175D02*
D03*
X5781Y17840D02*
D03*
X6175D02*
D03*
X8541Y8225D02*
D03*
X8147D02*
D03*
X8721Y8565D02*
D03*
X8327D02*
D03*
X34115Y21308D02*
D03*
X33721D02*
D03*
X34883D02*
D03*
X34490D02*
D03*
D35*
X6230Y6781D02*
D03*
Y7313D02*
D03*
X9790Y17705D02*
D03*
Y17174D02*
D03*
X7244Y8780D02*
D03*
Y8249D02*
D03*
X6784Y8780D02*
D03*
Y8249D02*
D03*
D36*
X20010Y4488D02*
D03*
X20167Y4488D02*
D03*
X20325Y4488D02*
D03*
X20482Y4488D02*
D03*
Y3563D02*
D03*
X20325Y3563D02*
D03*
X20167Y3563D02*
D03*
X20010Y3563D02*
D03*
X33100Y11289D02*
D03*
X33573Y11289D02*
D03*
X33415Y11289D02*
D03*
X33258Y11289D02*
D03*
X33100Y10364D02*
D03*
X33258Y10364D02*
D03*
X33415Y10364D02*
D03*
X33573Y10364D02*
D03*
X37589Y9813D02*
D03*
X37431Y9813D02*
D03*
X37274Y9813D02*
D03*
X37116Y9813D02*
D03*
X37274Y10738D02*
D03*
X37431Y10738D02*
D03*
X37589Y10738D02*
D03*
X37116Y10738D02*
D03*
X18567Y12957D02*
D03*
X18725D02*
D03*
X18882D02*
D03*
X19040D02*
D03*
Y12032D02*
D03*
X18882D02*
D03*
X18725D02*
D03*
X18567D02*
D03*
X18574Y17958D02*
D03*
X18731D02*
D03*
X18889D02*
D03*
X19046D02*
D03*
Y17032D02*
D03*
X18889D02*
D03*
X18731D02*
D03*
X18574D02*
D03*
D37*
X20551Y4262D02*
D03*
Y4104D02*
D03*
Y3947D02*
D03*
Y3789D02*
D03*
X19941D02*
D03*
Y3947D02*
D03*
Y4104D02*
D03*
X33642Y11063D02*
D03*
Y10748D02*
D03*
Y10906D02*
D03*
X33031Y11063D02*
D03*
Y10906D02*
D03*
Y10748D02*
D03*
Y10591D02*
D03*
X37047Y10039D02*
D03*
Y10354D02*
D03*
Y10512D02*
D03*
X37657D02*
D03*
Y10354D02*
D03*
Y10197D02*
D03*
X37047Y10197D02*
D03*
X19108Y12731D02*
D03*
Y12573D02*
D03*
Y12416D02*
D03*
Y12258D02*
D03*
X18498D02*
D03*
Y12416D02*
D03*
Y12573D02*
D03*
X19115Y17731D02*
D03*
Y17574D02*
D03*
Y17416D02*
D03*
Y17259D02*
D03*
X18505D02*
D03*
Y17416D02*
D03*
Y17574D02*
D03*
D38*
X19961Y4262D02*
D03*
X33622Y10591D02*
D03*
X37638Y10039D02*
D03*
X18518Y12731D02*
D03*
X18525Y17731D02*
D03*
D39*
X7146Y21270D02*
D03*
Y21781D02*
D03*
D40*
X6732Y21526D02*
D03*
D41*
X7657Y22057D02*
D03*
X8406D02*
D03*
X8406Y20994D02*
D03*
X8031Y20994D02*
D03*
X7657Y20994D02*
D03*
D42*
X34254Y9880D02*
D03*
X36435Y11380D02*
D03*
Y9880D02*
D03*
Y10380D02*
D03*
Y10880D02*
D03*
X34254Y11380D02*
D03*
Y10880D02*
D03*
Y10380D02*
D03*
D43*
X15157Y2348D02*
D03*
Y1195D02*
D03*
X13157D02*
D03*
Y2348D02*
D03*
X14157D02*
D03*
Y1195D02*
D03*
X12170Y24437D02*
D03*
Y23284D02*
D03*
X10170D02*
D03*
Y24437D02*
D03*
X11170D02*
D03*
Y23284D02*
D03*
D44*
X12127Y3800D02*
D03*
X11577D02*
D03*
X40435Y21999D02*
D03*
X40985D02*
D03*
X38335D02*
D03*
X38885D02*
D03*
X40435Y23299D02*
D03*
X40985D02*
D03*
X38335D02*
D03*
X38885D02*
D03*
D45*
X11083Y9482D02*
D03*
X10492D02*
D03*
Y10190D02*
D03*
X11083D02*
D03*
D46*
X10788Y9482D02*
D03*
Y10190D02*
D03*
D47*
X30748Y9350D02*
D03*
Y9941D02*
D03*
X31457D02*
D03*
Y9350D02*
D03*
X40354Y18593D02*
D03*
Y18002D02*
D03*
X41063D02*
D03*
Y18593D02*
D03*
D48*
X30748Y9646D02*
D03*
X31457D02*
D03*
X40354Y18297D02*
D03*
X41063D02*
D03*
D49*
X8048Y18050D02*
D03*
D50*
X9013Y17361D02*
D03*
Y17557D02*
D03*
Y17754D02*
D03*
Y18148D02*
D03*
Y18345D02*
D03*
Y18542D02*
D03*
Y18739D02*
D03*
X7083D02*
D03*
Y18542D02*
D03*
Y18345D02*
D03*
Y17951D02*
D03*
Y17754D02*
D03*
Y17557D02*
D03*
Y17361D02*
D03*
Y18148D02*
D03*
X9013Y17951D02*
D03*
D51*
X8737Y19014D02*
D03*
X8540D02*
D03*
X8343D02*
D03*
X8146D02*
D03*
X7950D02*
D03*
X7753D02*
D03*
X7556D02*
D03*
X7359D02*
D03*
Y17085D02*
D03*
X7556D02*
D03*
X7753D02*
D03*
X7950D02*
D03*
X8146D02*
D03*
X8343D02*
D03*
X8540D02*
D03*
X8737D02*
D03*
D52*
X6211Y17362D02*
D03*
X5679D02*
D03*
X5672Y18290D02*
D03*
X6204D02*
D03*
X9813Y16609D02*
D03*
X9281D02*
D03*
X3455Y7304D02*
D03*
X2923D02*
D03*
X11900Y19346D02*
D03*
X11368Y19346D02*
D03*
X38348Y16047D02*
D03*
X37816D02*
D03*
D53*
X40012Y13909D02*
D03*
X37630Y14854D02*
D03*
Y14697D02*
D03*
Y14539D02*
D03*
Y14382D02*
D03*
Y14224D02*
D03*
Y14067D02*
D03*
Y13909D02*
D03*
Y13752D02*
D03*
Y13594D02*
D03*
Y13437D02*
D03*
Y13280D02*
D03*
Y13122D02*
D03*
X40012D02*
D03*
Y13280D02*
D03*
Y13437D02*
D03*
Y13594D02*
D03*
Y13752D02*
D03*
Y14067D02*
D03*
Y14224D02*
D03*
Y14382D02*
D03*
Y14539D02*
D03*
Y14697D02*
D03*
Y14854D02*
D03*
D54*
X16825Y19000D02*
D03*
Y14000D02*
D03*
Y9000D02*
D03*
Y11000D02*
D03*
X17825D02*
D03*
Y9000D02*
D03*
X16825Y16000D02*
D03*
X17825D02*
D03*
Y14000D02*
D03*
X16825Y21000D02*
D03*
X17825D02*
D03*
Y19000D02*
D03*
X24325Y11000D02*
D03*
Y9000D02*
D03*
X23325Y11000D02*
D03*
Y9000D02*
D03*
X22325Y11000D02*
D03*
Y9000D02*
D03*
X20325Y11000D02*
D03*
X21325D02*
D03*
Y9000D02*
D03*
X20325D02*
D03*
X25325Y11000D02*
D03*
Y9000D02*
D03*
X26325Y11000D02*
D03*
Y9000D02*
D03*
X27325Y11000D02*
D03*
Y9000D02*
D03*
X28325Y11000D02*
D03*
Y9000D02*
D03*
X29325Y11000D02*
D03*
Y9000D02*
D03*
X24325Y16000D02*
D03*
Y14000D02*
D03*
X23325Y16000D02*
D03*
Y14000D02*
D03*
X22325Y16000D02*
D03*
Y14000D02*
D03*
X20325Y16000D02*
D03*
X21325D02*
D03*
Y14000D02*
D03*
X20325D02*
D03*
X25325Y16000D02*
D03*
Y14000D02*
D03*
X26325Y16000D02*
D03*
Y14000D02*
D03*
X27325Y16000D02*
D03*
Y14000D02*
D03*
X28325Y16000D02*
D03*
Y14000D02*
D03*
X29325Y16000D02*
D03*
Y14000D02*
D03*
X24325Y21000D02*
D03*
Y19000D02*
D03*
X23325Y21000D02*
D03*
Y19000D02*
D03*
X22325Y21000D02*
D03*
Y19000D02*
D03*
X20325Y21000D02*
D03*
X21325D02*
D03*
Y19000D02*
D03*
X20325D02*
D03*
X25325Y21000D02*
D03*
Y19000D02*
D03*
X26325Y21000D02*
D03*
Y19000D02*
D03*
X27325Y21000D02*
D03*
Y19000D02*
D03*
X28325Y21000D02*
D03*
Y19000D02*
D03*
X29325Y21000D02*
D03*
Y19000D02*
D03*
D55*
X2947Y8242D02*
D03*
Y8557D02*
D03*
Y10761D02*
D03*
Y10446D02*
D03*
D56*
Y8813D02*
D03*
Y9009D02*
D03*
Y9206D02*
D03*
Y9403D02*
D03*
Y9600D02*
D03*
Y9797D02*
D03*
Y9994D02*
D03*
Y10191D02*
D03*
D57*
X4165Y9797D02*
D03*
X4559D02*
D03*
X4165Y9600D02*
D03*
X4559D02*
D03*
D58*
X11380Y18355D02*
D03*
Y18729D02*
D03*
X4518Y10571D02*
D03*
Y10945D02*
D03*
D59*
X11233Y8049D02*
D03*
X11685D02*
D03*
Y7478D02*
D03*
X11233D02*
D03*
X40716Y15732D02*
D03*
X41168D02*
D03*
Y15161D02*
D03*
X40716D02*
D03*
D60*
X34936Y15667D02*
D03*
Y15096D02*
D03*
D61*
X7504Y7506D02*
D03*
Y4986D02*
D03*
X10024D02*
D03*
Y7506D02*
D03*
D62*
X9630D02*
D03*
X9788Y4986D02*
D03*
X9630D02*
D03*
X9866Y5143D02*
D03*
Y7348D02*
D03*
X7504Y5222D02*
D03*
X9473Y4986D02*
D03*
X9315D02*
D03*
X9158D02*
D03*
X9000D02*
D03*
X8843D02*
D03*
X8685D02*
D03*
X8528D02*
D03*
X8370D02*
D03*
X8213D02*
D03*
X8055D02*
D03*
X7898D02*
D03*
X7740D02*
D03*
X9709Y5143D02*
D03*
X9551D02*
D03*
X9394D02*
D03*
X9236D02*
D03*
X9079D02*
D03*
X8921D02*
D03*
X8764D02*
D03*
X8606D02*
D03*
X8449D02*
D03*
X8291D02*
D03*
X8134D02*
D03*
X7976D02*
D03*
X7819D02*
D03*
X7662D02*
D03*
Y5301D02*
D03*
Y5458D02*
D03*
X7504Y5380D02*
D03*
Y5537D02*
D03*
X7662Y5616D02*
D03*
X10024Y5695D02*
D03*
X7504D02*
D03*
X7662Y5773D02*
D03*
X10024Y5852D02*
D03*
X7504D02*
D03*
X7662Y5931D02*
D03*
X10024Y6010D02*
D03*
X7504D02*
D03*
X7662Y6088D02*
D03*
X10024Y6167D02*
D03*
X7504D02*
D03*
X7662Y6246D02*
D03*
X10024Y6325D02*
D03*
X7504D02*
D03*
X7662Y6403D02*
D03*
X10024Y6482D02*
D03*
X7504D02*
D03*
X7662Y6561D02*
D03*
X10024Y6640D02*
D03*
X7504D02*
D03*
X7662Y6718D02*
D03*
X10024Y6797D02*
D03*
X7504D02*
D03*
X7662Y6876D02*
D03*
X10024Y6954D02*
D03*
X7504D02*
D03*
X7662Y7033D02*
D03*
X10024Y7112D02*
D03*
X7504D02*
D03*
X7662Y7191D02*
D03*
X10024Y7269D02*
D03*
X7504D02*
D03*
X9236Y7348D02*
D03*
X9079D02*
D03*
X8921D02*
D03*
X8764D02*
D03*
X8606D02*
D03*
X8449D02*
D03*
X8291D02*
D03*
X8134D02*
D03*
X7976D02*
D03*
X7819D02*
D03*
X7662D02*
D03*
X9473Y7506D02*
D03*
X9315D02*
D03*
X9158D02*
D03*
X9000D02*
D03*
X8843D02*
D03*
X8685D02*
D03*
X8528D02*
D03*
X7898D02*
D03*
X9394Y7348D02*
D03*
X9551D02*
D03*
X9709D02*
D03*
X10024Y5537D02*
D03*
Y5380D02*
D03*
Y5222D02*
D03*
D63*
X37955Y12797D02*
D03*
X38112D02*
D03*
X38270D02*
D03*
X38427D02*
D03*
X38585D02*
D03*
X38742D02*
D03*
X38900D02*
D03*
X39057D02*
D03*
X39215D02*
D03*
X39372D02*
D03*
X39530D02*
D03*
X39687D02*
D03*
Y15179D02*
D03*
X39530D02*
D03*
X39372D02*
D03*
X39215D02*
D03*
X39057D02*
D03*
X38900D02*
D03*
X38742D02*
D03*
X38585D02*
D03*
X38427D02*
D03*
X38270D02*
D03*
X38112D02*
D03*
X37955D02*
D03*
D64*
X38821Y13988D02*
D03*
D65*
X19478Y1772D02*
D03*
D66*
X37324Y2582D02*
D03*
Y1007D02*
D03*
X39982Y2582D02*
D03*
Y1007D02*
D03*
X33284Y2582D02*
D03*
Y1007D02*
D03*
X35942Y2582D02*
D03*
Y1007D02*
D03*
X37324Y6322D02*
D03*
Y4747D02*
D03*
X39982Y6322D02*
D03*
Y4747D02*
D03*
X33284Y6322D02*
D03*
Y4747D02*
D03*
X35942Y6322D02*
D03*
Y4747D02*
D03*
X773Y6337D02*
D03*
Y4763D02*
D03*
X3430Y6337D02*
D03*
Y4763D02*
D03*
D67*
X34118Y20946D02*
D03*
Y20553D02*
D03*
X34490Y20946D02*
D03*
Y20553D02*
D03*
D68*
X5104Y2539D02*
D03*
X5604D02*
D03*
X6104D02*
D03*
X6604D02*
D03*
X7104D02*
D03*
X5104Y1004D02*
D03*
X5604D02*
D03*
X6104D02*
D03*
X6604D02*
D03*
X7104D02*
D03*
X23826Y1004D02*
D03*
X23326D02*
D03*
X22826D02*
D03*
X22326D02*
D03*
X21826D02*
D03*
X23826Y2539D02*
D03*
X23326D02*
D03*
X22826D02*
D03*
X22326D02*
D03*
X21826D02*
D03*
X24326D02*
D03*
X24826D02*
D03*
X25326D02*
D03*
X25826D02*
D03*
X26326D02*
D03*
X24326Y1004D02*
D03*
X24826D02*
D03*
X25326D02*
D03*
X25826D02*
D03*
X26326D02*
D03*
X21826Y2539D02*
D03*
X22326D02*
D03*
X22826D02*
D03*
X23326D02*
D03*
X23826D02*
D03*
X21826Y1004D02*
D03*
X22326D02*
D03*
X22826D02*
D03*
X23326D02*
D03*
X23826D02*
D03*
D69*
X33555Y22817D02*
D03*
X35051D02*
D03*
D70*
X34106Y21911D02*
D03*
X34303D02*
D03*
X34500D02*
D03*
X34697D02*
D03*
X33909D02*
D03*
D71*
X42148Y13663D02*
D03*
Y14470D02*
D03*
X42896D02*
D03*
Y13663D02*
D03*
D72*
X42065Y14067D02*
D03*
X42978D02*
D03*
M02*
