G04*
G04 #@! TF.GenerationSoftware,Altium Limited,Altium Designer,25.4.2 (15)*
G04*
G04 Layer_Color=8388736*
%FSLAX24Y24*%
%MOIN*%
G70*
G04*
G04 #@! TF.SameCoordinates,58243F55-B80C-4B6F-AF4D-97493F1C6FF7*
G04*
G04*
G04 #@! TF.FilePolarity,Negative*
G04*
G01*
G75*
%ADD34R,0.0236X0.0197*%
%ADD47R,0.0236X0.0236*%
%ADD73C,0.0240*%
%ADD74C,0.0551*%
%ADD75R,0.0472X0.0079*%
%ADD76R,0.0079X0.0472*%
%ADD77R,0.0146X0.0157*%
%ADD78R,0.0157X0.0146*%
%ADD79R,0.0276X0.0256*%
%ADD80R,0.0236X0.0276*%
%ADD81R,0.0756X0.0484*%
%ADD82R,0.0669X0.0433*%
G04:AMPARAMS|DCode=83|XSize=12.2mil|YSize=30.7mil|CornerRadius=3.6mil|HoleSize=0mil|Usage=FLASHONLY|Rotation=0.000|XOffset=0mil|YOffset=0mil|HoleType=Round|Shape=RoundedRectangle|*
%AMROUNDEDRECTD83*
21,1,0.0122,0.0234,0,0,0.0*
21,1,0.0049,0.0307,0,0,0.0*
1,1,0.0073,0.0025,-0.0117*
1,1,0.0073,-0.0025,-0.0117*
1,1,0.0073,-0.0025,0.0117*
1,1,0.0073,0.0025,0.0117*
%
%ADD83ROUNDEDRECTD83*%
G04:AMPARAMS|DCode=84|XSize=12.2mil|YSize=30.7mil|CornerRadius=3.6mil|HoleSize=0mil|Usage=FLASHONLY|Rotation=90.000|XOffset=0mil|YOffset=0mil|HoleType=Round|Shape=RoundedRectangle|*
%AMROUNDEDRECTD84*
21,1,0.0122,0.0234,0,0,90.0*
21,1,0.0049,0.0307,0,0,90.0*
1,1,0.0073,0.0117,0.0025*
1,1,0.0073,0.0117,-0.0025*
1,1,0.0073,-0.0117,-0.0025*
1,1,0.0073,-0.0117,0.0025*
%
%ADD84ROUNDEDRECTD84*%
%ADD85R,0.0276X0.0236*%
%ADD86R,0.0354X0.0335*%
%ADD87R,0.0110X0.0240*%
%ADD88R,0.0240X0.0110*%
%ADD89R,0.0295X0.0126*%
%ADD90R,0.0283X0.0114*%
%ADD91R,0.0244X0.0114*%
%ADD92R,0.0114X0.0244*%
%ADD93R,0.0472X0.0669*%
%ADD94R,0.0276X0.0433*%
%ADD95C,0.0315*%
%ADD96R,0.1378X0.1614*%
%ADD97R,0.0492X0.0217*%
%ADD98R,0.0441X0.0902*%
%ADD99R,0.0339X0.0359*%
%ADD100R,0.0276X0.0276*%
%ADD101R,0.0197X0.0276*%
%ADD102R,0.0276X0.0276*%
%ADD103R,0.0276X0.0197*%
%ADD104R,0.1402X0.1402*%
%ADD105O,0.0358X0.0142*%
%ADD106O,0.0142X0.0358*%
%ADD107R,0.0335X0.0354*%
%ADD108O,0.0295X0.0118*%
%ADD109R,0.0439X0.1169*%
%ADD110C,0.0349*%
%ADD111R,0.0488X0.0276*%
%ADD112R,0.0488X0.0157*%
%ADD113R,0.0276X0.0118*%
%ADD114R,0.0236X0.0295*%
%ADD115R,0.0374X0.0413*%
%ADD116R,0.0591X0.0335*%
%ADD117C,0.0181*%
%ADD118C,0.0112*%
%ADD119R,0.2150X0.1992*%
%ADD120O,0.0118X0.0295*%
%ADD121R,0.1890X0.1890*%
%ADD122R,0.0768X0.1398*%
%ADD123R,0.1122X0.0591*%
%ADD124C,0.0118*%
%ADD125R,0.0256X0.0276*%
%ADD126R,0.0339X0.0984*%
%ADD127R,0.0276X0.1063*%
%ADD128R,0.0157X0.0354*%
%ADD129R,0.0354X0.0335*%
%ADD130R,0.0268X0.0236*%
%ADD131C,0.0787*%
%ADD132R,0.0197X0.0197*%
%ADD133C,0.0354*%
%ADD134C,0.0630*%
%ADD135R,0.0630X0.0630*%
%ADD136R,0.0630X0.0630*%
%ADD137C,0.0276*%
%ADD138O,0.0709X0.0394*%
%ADD139O,0.0827X0.0394*%
%ADD140C,0.0406*%
%ADD141C,0.1299*%
G36*
X2571Y24031D02*
X2575Y24029D01*
X2578Y24028D01*
X2581Y24025D01*
X2584Y24022D01*
X2586Y24019D01*
X2587Y24015D01*
X2587Y24011D01*
Y24011D01*
D01*
Y23617D01*
X2587Y23614D01*
X2586Y23610D01*
X2584Y23606D01*
X2581Y23603D01*
X2578Y23601D01*
X2575Y23599D01*
X2571Y23598D01*
X2567Y23598D01*
X1937D01*
D01*
X1937D01*
X1934Y23598D01*
X1930Y23599D01*
X1928Y23600D01*
X1926Y23601D01*
X1924Y23603D01*
Y23603D01*
X1924D01*
X1921Y23606D01*
X1920Y23608D01*
X1919Y23610D01*
X1918Y23614D01*
X1918Y23617D01*
D01*
Y23617D01*
X1918Y23947D01*
X1918Y23947D01*
X1918Y23949D01*
X1918Y23951D01*
X1919Y23955D01*
X1921Y23958D01*
X1924Y23961D01*
X1987Y24025D01*
X1990Y24028D01*
X1994Y24029D01*
X1997Y24030D01*
X1999Y24031D01*
X2001Y24031D01*
X2001Y24031D01*
X2567Y24031D01*
X2567D01*
D01*
X2571Y24031D01*
D02*
G37*
G36*
X1559Y24031D02*
X1559Y24031D01*
X1561Y24031D01*
X1563Y24030D01*
X1566Y24029D01*
X1570Y24028D01*
X1573Y24025D01*
X1636Y23961D01*
X1639Y23958D01*
X1641Y23955D01*
X1642Y23951D01*
X1642Y23949D01*
X1642Y23947D01*
X1642Y23947D01*
X1642Y23617D01*
Y23617D01*
D01*
X1642Y23614D01*
X1641Y23610D01*
X1640Y23608D01*
X1639Y23606D01*
X1637Y23603D01*
X1637D01*
Y23603D01*
X1634Y23601D01*
X1632Y23600D01*
X1630Y23599D01*
X1626Y23598D01*
X1623Y23598D01*
X1623D01*
D01*
X993D01*
X989Y23598D01*
X985Y23599D01*
X982Y23601D01*
X979Y23603D01*
X976Y23606D01*
X974Y23610D01*
X973Y23614D01*
X973Y23617D01*
Y24011D01*
D01*
Y24011D01*
X973Y24015D01*
X974Y24019D01*
X976Y24022D01*
X979Y24025D01*
X982Y24028D01*
X985Y24029D01*
X989Y24031D01*
X993Y24031D01*
D01*
X993D01*
X1559Y24031D01*
D02*
G37*
G36*
X2571Y22062D02*
X2575Y22061D01*
X2578Y22059D01*
X2581Y22057D01*
X2584Y22054D01*
X2586Y22050D01*
X2587Y22046D01*
X2587Y22043D01*
Y21649D01*
D01*
Y21649D01*
X2587Y21645D01*
X2586Y21641D01*
X2584Y21638D01*
X2581Y21635D01*
X2578Y21632D01*
X2575Y21631D01*
X2571Y21630D01*
X2567Y21629D01*
D01*
X2567D01*
X2001Y21629D01*
X2001Y21629D01*
X1999Y21629D01*
X1997Y21630D01*
X1994Y21631D01*
X1990Y21632D01*
X1987Y21635D01*
X1924Y21699D01*
X1921Y21702D01*
X1919Y21705D01*
X1918Y21709D01*
X1918Y21711D01*
X1918Y21713D01*
X1918Y21713D01*
X1918Y22043D01*
Y22043D01*
D01*
X1918Y22046D01*
X1919Y22050D01*
X1920Y22052D01*
X1921Y22054D01*
X1924Y22057D01*
X1924D01*
Y22057D01*
X1926Y22059D01*
X1928Y22060D01*
X1930Y22061D01*
X1934Y22062D01*
X1937Y22062D01*
X1937D01*
D01*
X2567D01*
X2571Y22062D01*
D02*
G37*
G36*
X1626D02*
X1630Y22061D01*
X1632Y22060D01*
X1634Y22059D01*
X1637Y22057D01*
Y22057D01*
X1637D01*
X1639Y22054D01*
X1640Y22052D01*
X1641Y22050D01*
X1642Y22046D01*
X1642Y22043D01*
D01*
Y22043D01*
X1642Y21713D01*
X1642Y21713D01*
X1642Y21711D01*
X1642Y21709D01*
X1641Y21705D01*
X1639Y21702D01*
X1636Y21699D01*
X1573Y21635D01*
X1570Y21632D01*
X1566Y21631D01*
X1563Y21630D01*
X1561Y21629D01*
X1559Y21629D01*
X1559Y21629D01*
X993Y21629D01*
X993D01*
D01*
X989Y21630D01*
X985Y21631D01*
X982Y21632D01*
X979Y21635D01*
X976Y21638D01*
X974Y21641D01*
X973Y21645D01*
X973Y21649D01*
Y21649D01*
D01*
Y22043D01*
X973Y22046D01*
X974Y22050D01*
X976Y22054D01*
X979Y22057D01*
X982Y22059D01*
X985Y22061D01*
X989Y22062D01*
X993Y22062D01*
X1623D01*
D01*
X1623D01*
X1626Y22062D01*
D02*
G37*
G36*
X4523Y10131D02*
X4527Y10130D01*
X4530Y10128D01*
X4533Y10125D01*
X4536Y10122D01*
X4538Y10119D01*
X4539Y10115D01*
X4539Y10111D01*
Y10053D01*
X4677D01*
X4681Y10052D01*
X4684Y10051D01*
X4688Y10049D01*
X4691Y10047D01*
X4693Y10044D01*
X4695Y10040D01*
X4696Y10037D01*
X4697Y10033D01*
Y9954D01*
X4696Y9950D01*
X4695Y9946D01*
X4693Y9943D01*
X4691Y9940D01*
X4688Y9938D01*
X4684Y9936D01*
X4681Y9935D01*
X4677Y9934D01*
X4441D01*
X4437Y9935D01*
X4433Y9936D01*
X4430Y9938D01*
X4427Y9940D01*
X4424Y9943D01*
X4422Y9946D01*
X4421Y9950D01*
X4421Y9954D01*
Y10111D01*
X4421Y10115D01*
X4422Y10119D01*
X4424Y10122D01*
X4427Y10125D01*
X4430Y10128D01*
X4433Y10130D01*
X4437Y10131D01*
X4441Y10131D01*
X4519D01*
X4523Y10131D01*
D02*
G37*
G36*
X4287D02*
X4291Y10130D01*
X4294Y10128D01*
X4297Y10125D01*
X4300Y10122D01*
X4301Y10119D01*
X4303Y10115D01*
X4303Y10111D01*
Y9954D01*
X4303Y9950D01*
X4301Y9946D01*
X4300Y9943D01*
X4297Y9940D01*
X4294Y9938D01*
X4291Y9936D01*
X4287Y9935D01*
X4283Y9934D01*
X4047D01*
X4043Y9935D01*
X4039Y9936D01*
X4036Y9938D01*
X4033Y9940D01*
X4031Y9943D01*
X4029Y9946D01*
X4028Y9950D01*
X4027Y9954D01*
Y10033D01*
X4028Y10037D01*
X4029Y10040D01*
X4031Y10044D01*
X4033Y10047D01*
X4036Y10049D01*
X4039Y10051D01*
X4043Y10052D01*
X4047Y10053D01*
X4185D01*
Y10111D01*
X4185Y10115D01*
X4186Y10119D01*
X4188Y10122D01*
X4190Y10125D01*
X4193Y10128D01*
X4197Y10130D01*
X4201Y10131D01*
X4204Y10131D01*
X4283D01*
X4287Y10131D01*
D02*
G37*
G36*
X4681Y9462D02*
X4684Y9460D01*
X4688Y9459D01*
X4691Y9456D01*
X4693Y9453D01*
X4695Y9450D01*
X4696Y9446D01*
X4697Y9442D01*
Y9363D01*
X4696Y9360D01*
X4695Y9356D01*
X4693Y9352D01*
X4691Y9349D01*
X4688Y9347D01*
X4684Y9345D01*
X4681Y9344D01*
X4677Y9344D01*
X4539D01*
Y9285D01*
X4539Y9281D01*
X4538Y9277D01*
X4536Y9274D01*
X4533Y9271D01*
X4530Y9268D01*
X4527Y9266D01*
X4523Y9265D01*
X4519Y9265D01*
X4441D01*
X4437Y9265D01*
X4433Y9266D01*
X4430Y9268D01*
X4427Y9271D01*
X4424Y9274D01*
X4422Y9277D01*
X4421Y9281D01*
X4421Y9285D01*
Y9442D01*
X4421Y9446D01*
X4422Y9450D01*
X4424Y9453D01*
X4427Y9456D01*
X4430Y9459D01*
X4433Y9460D01*
X4437Y9462D01*
X4441Y9462D01*
X4677D01*
X4681Y9462D01*
D02*
G37*
G36*
X4287D02*
X4291Y9460D01*
X4294Y9459D01*
X4297Y9456D01*
X4300Y9453D01*
X4301Y9450D01*
X4303Y9446D01*
X4303Y9442D01*
Y9285D01*
X4303Y9281D01*
X4301Y9277D01*
X4300Y9274D01*
X4297Y9271D01*
X4294Y9268D01*
X4291Y9266D01*
X4287Y9265D01*
X4283Y9265D01*
X4204D01*
X4201Y9265D01*
X4197Y9266D01*
X4193Y9268D01*
X4190Y9271D01*
X4188Y9274D01*
X4186Y9277D01*
X4185Y9281D01*
X4185Y9285D01*
Y9344D01*
X4047D01*
X4043Y9344D01*
X4039Y9345D01*
X4036Y9347D01*
X4033Y9349D01*
X4031Y9352D01*
X4029Y9356D01*
X4028Y9360D01*
X4027Y9363D01*
Y9442D01*
X4028Y9446D01*
X4029Y9450D01*
X4031Y9453D01*
X4033Y9456D01*
X4036Y9459D01*
X4039Y9460D01*
X4043Y9462D01*
X4047Y9462D01*
X4283D01*
X4287Y9462D01*
D02*
G37*
G36*
X4834Y6085D02*
X4835Y6085D01*
X4836Y6084D01*
X4838Y6084D01*
X4838Y6084D01*
X4838Y6084D01*
X4851Y6081D01*
X4852Y6080D01*
X4852Y6080D01*
X4854Y6080D01*
X4855Y6079D01*
X4855Y6079D01*
X4856Y6079D01*
X4857Y6078D01*
X4858Y6077D01*
X4859Y6077D01*
X4859Y6077D01*
X4869Y6068D01*
X4870Y6068D01*
X4870Y6068D01*
X4871Y6066D01*
X4872Y6065D01*
X4872Y6065D01*
X4873Y6065D01*
X4873Y6063D01*
X4874Y6062D01*
X4874Y6062D01*
X4875Y6061D01*
X4880Y6049D01*
X4880Y6049D01*
X4881Y6048D01*
X4881Y6047D01*
X4882Y6046D01*
X4882Y6045D01*
X4882Y6045D01*
X4882Y6043D01*
X4882Y6042D01*
X4882Y6041D01*
X4882Y6041D01*
X4882Y6034D01*
X4882Y5706D01*
X4882Y5706D01*
X4882Y5699D01*
X4882Y5699D01*
X4882Y5698D01*
X4882Y5697D01*
X4882Y5695D01*
X4882Y5695D01*
X4882Y5695D01*
X4881Y5693D01*
X4881Y5692D01*
X4880Y5691D01*
X4880Y5691D01*
X4875Y5679D01*
X4874Y5678D01*
X4874Y5678D01*
X4873Y5677D01*
X4873Y5676D01*
X4872Y5675D01*
X4872Y5675D01*
X4871Y5674D01*
X4870Y5673D01*
X4870Y5672D01*
X4869Y5672D01*
X4859Y5663D01*
X4859Y5663D01*
X4858Y5663D01*
X4857Y5662D01*
X4856Y5661D01*
X4855Y5661D01*
X4855Y5661D01*
X4854Y5660D01*
X4852Y5660D01*
X4852Y5660D01*
X4851Y5660D01*
X4838Y5656D01*
X4838Y5656D01*
X4838Y5656D01*
X4836Y5656D01*
X4835Y5656D01*
X4834Y5656D01*
X4834Y5655D01*
X4832Y5656D01*
X4831Y5656D01*
X4830Y5656D01*
X4830Y5656D01*
X4823Y5657D01*
X4823D01*
X4806Y5660D01*
X4805Y5661D01*
X4803Y5661D01*
X4771Y5673D01*
X4769Y5674D01*
X4768Y5674D01*
X4738Y5692D01*
X4737Y5693D01*
X4735Y5694D01*
X4709Y5716D01*
X4708Y5717D01*
X4707Y5718D01*
X4685Y5745D01*
X4684Y5746D01*
X4683Y5747D01*
X4666Y5777D01*
X4665Y5779D01*
X4664Y5780D01*
X4653Y5812D01*
X4652Y5814D01*
X4652Y5816D01*
X4646Y5850D01*
X4646Y5851D01*
X4646Y5853D01*
X4646Y5870D01*
X4646Y5887D01*
X4646Y5889D01*
X4646Y5891D01*
X4652Y5924D01*
X4652Y5926D01*
X4653Y5928D01*
X4664Y5960D01*
X4665Y5962D01*
X4666Y5963D01*
X4683Y5993D01*
X4684Y5994D01*
X4685Y5996D01*
X4707Y6022D01*
X4708Y6023D01*
X4709Y6024D01*
X4735Y6047D01*
X4737Y6047D01*
X4738Y6048D01*
X4768Y6066D01*
X4769Y6066D01*
X4771Y6067D01*
X4803Y6079D01*
X4805Y6080D01*
X4806Y6080D01*
X4823Y6083D01*
X4823Y6083D01*
X4830Y6084D01*
X4830Y6084D01*
X4831Y6085D01*
X4832Y6085D01*
X4834Y6085D01*
X4834Y6085D01*
D02*
G37*
G36*
Y5476D02*
X4835Y5476D01*
X4836Y5476D01*
X4838Y5476D01*
X4838Y5476D01*
X4838Y5476D01*
X4851Y5472D01*
X4852Y5472D01*
X4852Y5472D01*
X4854Y5471D01*
X4855Y5471D01*
X4855Y5471D01*
X4856Y5470D01*
X4857Y5470D01*
X4858Y5469D01*
X4859Y5468D01*
X4859Y5468D01*
X4869Y5460D01*
X4870Y5459D01*
X4870Y5459D01*
X4871Y5458D01*
X4872Y5457D01*
X4872Y5456D01*
X4873Y5456D01*
X4873Y5455D01*
X4874Y5454D01*
X4874Y5453D01*
X4875Y5453D01*
X4880Y5441D01*
X4880Y5440D01*
X4881Y5440D01*
X4881Y5438D01*
X4882Y5437D01*
X4882Y5437D01*
X4882Y5436D01*
X4882Y5435D01*
X4882Y5433D01*
X4882Y5433D01*
X4882Y5432D01*
X4882Y5426D01*
X4882Y5098D01*
X4882Y5098D01*
X4882Y5091D01*
X4882Y5090D01*
X4882Y5090D01*
X4882Y5088D01*
X4882Y5087D01*
X4882Y5087D01*
X4882Y5086D01*
X4881Y5085D01*
X4881Y5083D01*
X4880Y5083D01*
X4880Y5082D01*
X4875Y5070D01*
X4874Y5070D01*
X4874Y5070D01*
X4873Y5068D01*
X4873Y5067D01*
X4872Y5067D01*
X4872Y5066D01*
X4871Y5065D01*
X4870Y5064D01*
X4870Y5064D01*
X4869Y5064D01*
X4859Y5055D01*
X4859Y5055D01*
X4858Y5054D01*
X4857Y5054D01*
X4856Y5053D01*
X4855Y5053D01*
X4855Y5052D01*
X4854Y5052D01*
X4852Y5051D01*
X4852Y5051D01*
X4851Y5051D01*
X4838Y5048D01*
X4838Y5048D01*
X4838Y5047D01*
X4836Y5047D01*
X4835Y5047D01*
X4834Y5047D01*
X4834Y5047D01*
X4832Y5047D01*
X4831Y5047D01*
X4830Y5047D01*
X4830Y5047D01*
X4823Y5048D01*
X4823D01*
X4806Y5052D01*
X4805Y5052D01*
X4803Y5052D01*
X4771Y5064D01*
X4769Y5065D01*
X4768Y5066D01*
X4738Y5083D01*
X4737Y5084D01*
X4735Y5085D01*
X4709Y5107D01*
X4708Y5109D01*
X4707Y5110D01*
X4685Y5136D01*
X4684Y5137D01*
X4683Y5139D01*
X4666Y5169D01*
X4665Y5170D01*
X4664Y5172D01*
X4653Y5204D01*
X4652Y5206D01*
X4652Y5207D01*
X4646Y5241D01*
X4646Y5243D01*
X4646Y5244D01*
X4646Y5262D01*
X4646Y5279D01*
X4646Y5280D01*
X4646Y5282D01*
X4652Y5316D01*
X4652Y5318D01*
X4653Y5319D01*
X4664Y5351D01*
X4665Y5353D01*
X4666Y5355D01*
X4683Y5384D01*
X4684Y5386D01*
X4685Y5387D01*
X4707Y5413D01*
X4708Y5415D01*
X4709Y5416D01*
X4735Y5438D01*
X4737Y5439D01*
X4738Y5440D01*
X4768Y5457D01*
X4769Y5458D01*
X4771Y5459D01*
X4803Y5471D01*
X4805Y5471D01*
X4806Y5472D01*
X4823Y5475D01*
X4823Y5475D01*
X4830Y5476D01*
X4830Y5476D01*
X4831Y5476D01*
X4832Y5476D01*
X4834Y5476D01*
X4834Y5476D01*
D02*
G37*
G36*
X13109Y10210D02*
X13111Y10210D01*
X13145Y10204D01*
X13147Y10203D01*
X13148Y10203D01*
X13180Y10191D01*
X13182Y10190D01*
X13184Y10190D01*
X13213Y10173D01*
X13215Y10172D01*
X13216Y10171D01*
X13242Y10149D01*
X13244Y10148D01*
X13245Y10146D01*
X13267Y10120D01*
X13268Y10119D01*
X13269Y10117D01*
X13286Y10088D01*
X13287Y10086D01*
X13288Y10085D01*
X13300Y10053D01*
X13300Y10051D01*
X13301Y10049D01*
X13304Y10032D01*
X13304Y10032D01*
X13305Y10026D01*
X13305Y10025D01*
X13305Y10025D01*
X13305Y10023D01*
X13305Y10022D01*
X13305Y10022D01*
X13305Y10021D01*
X13305Y10020D01*
X13305Y10018D01*
X13305Y10018D01*
X13305Y10017D01*
X13301Y10004D01*
X13301Y10004D01*
X13301Y10003D01*
X13300Y10002D01*
X13300Y10001D01*
X13300Y10000D01*
X13299Y10000D01*
X13299Y9999D01*
X13298Y9997D01*
X13297Y9997D01*
X13297Y9997D01*
X13289Y9986D01*
X13288Y9986D01*
X13288Y9986D01*
X13287Y9985D01*
X13286Y9984D01*
X13285Y9983D01*
X13285Y9983D01*
X13284Y9982D01*
X13283Y9982D01*
X13282Y9981D01*
X13282Y9981D01*
X13270Y9975D01*
X13269Y9975D01*
X13269Y9975D01*
X13267Y9975D01*
X13266Y9974D01*
X13266Y9974D01*
X13265Y9974D01*
X13264Y9974D01*
X13262Y9974D01*
X13262Y9974D01*
X13261Y9974D01*
X13255Y9974D01*
X12927Y9974D01*
X12926Y9974D01*
X12920Y9974D01*
X12919Y9974D01*
X12919Y9974D01*
X12917Y9974D01*
X12916Y9974D01*
X12916Y9974D01*
X12915Y9974D01*
X12914Y9975D01*
X12912Y9975D01*
X12912Y9975D01*
X12911Y9975D01*
X12899Y9981D01*
X12899Y9981D01*
X12898Y9982D01*
X12897Y9982D01*
X12896Y9983D01*
X12896Y9983D01*
X12895Y9984D01*
X12894Y9985D01*
X12893Y9986D01*
X12893Y9986D01*
X12893Y9986D01*
X12884Y9997D01*
X12884Y9997D01*
X12883Y9997D01*
X12883Y9999D01*
X12882Y10000D01*
X12882Y10000D01*
X12881Y10001D01*
X12881Y10002D01*
X12880Y10003D01*
X12880Y10004D01*
X12880Y10004D01*
X12877Y10017D01*
X12877Y10018D01*
X12876Y10018D01*
X12876Y10020D01*
X12876Y10021D01*
X12876Y10022D01*
X12876Y10022D01*
X12876Y10023D01*
X12876Y10025D01*
X12876Y10025D01*
X12876Y10026D01*
X12877Y10032D01*
Y10032D01*
X12881Y10049D01*
X12881Y10051D01*
X12881Y10053D01*
X12893Y10085D01*
X12894Y10086D01*
X12895Y10088D01*
X12912Y10117D01*
X12913Y10119D01*
X12914Y10120D01*
X12936Y10146D01*
X12938Y10148D01*
X12939Y10149D01*
X12965Y10171D01*
X12966Y10172D01*
X12968Y10173D01*
X12998Y10190D01*
X12999Y10190D01*
X13001Y10191D01*
X13033Y10203D01*
X13035Y10203D01*
X13036Y10204D01*
X13070Y10210D01*
X13072Y10210D01*
X13073Y10210D01*
X13091Y10210D01*
X13108Y10210D01*
X13109Y10210D01*
D02*
G37*
G36*
X13255Y9934D02*
X13261Y9934D01*
X13262Y9934D01*
X13262Y9934D01*
X13264Y9934D01*
X13265Y9934D01*
X13266Y9934D01*
X13266Y9934D01*
X13267Y9933D01*
X13269Y9933D01*
X13269Y9933D01*
X13270Y9933D01*
X13282Y9927D01*
X13282Y9927D01*
X13283Y9926D01*
X13284Y9926D01*
X13285Y9925D01*
X13285Y9925D01*
X13286Y9924D01*
X13287Y9923D01*
X13288Y9922D01*
X13288Y9922D01*
X13289Y9922D01*
X13297Y9911D01*
X13297Y9911D01*
X13298Y9911D01*
X13299Y9909D01*
X13299Y9908D01*
X13300Y9908D01*
X13300Y9907D01*
X13300Y9906D01*
X13301Y9905D01*
X13301Y9904D01*
X13301Y9904D01*
X13305Y9891D01*
X13305Y9890D01*
X13305Y9890D01*
X13305Y9888D01*
X13305Y9887D01*
X13305Y9886D01*
X13305Y9886D01*
X13305Y9885D01*
X13305Y9883D01*
X13305Y9883D01*
X13305Y9882D01*
X13304Y9876D01*
Y9876D01*
X13301Y9859D01*
X13300Y9857D01*
X13300Y9855D01*
X13288Y9823D01*
X13287Y9822D01*
X13286Y9820D01*
X13269Y9791D01*
X13268Y9789D01*
X13267Y9788D01*
X13245Y9762D01*
X13244Y9760D01*
X13242Y9759D01*
X13216Y9737D01*
X13215Y9736D01*
X13213Y9735D01*
X13184Y9718D01*
X13182Y9718D01*
X13180Y9717D01*
X13148Y9705D01*
X13146Y9705D01*
X13145Y9704D01*
X13111Y9698D01*
X13109Y9698D01*
X13108Y9698D01*
X13091Y9698D01*
X13073Y9698D01*
X13072Y9698D01*
X13070Y9698D01*
X13036Y9704D01*
X13035Y9705D01*
X13033Y9705D01*
X13001Y9717D01*
X12999Y9718D01*
X12998Y9718D01*
X12968Y9735D01*
X12966Y9736D01*
X12965Y9737D01*
X12939Y9759D01*
X12937Y9760D01*
X12936Y9762D01*
X12914Y9788D01*
X12913Y9789D01*
X12912Y9791D01*
X12895Y9820D01*
X12894Y9822D01*
X12893Y9823D01*
X12881Y9855D01*
X12881Y9857D01*
X12881Y9859D01*
X12877Y9876D01*
X12877Y9876D01*
X12876Y9882D01*
X12876Y9883D01*
X12876Y9883D01*
X12876Y9885D01*
X12876Y9886D01*
X12876Y9886D01*
X12876Y9887D01*
X12876Y9888D01*
X12876Y9890D01*
X12877Y9890D01*
X12877Y9891D01*
X12880Y9904D01*
X12880Y9904D01*
X12880Y9905D01*
X12881Y9906D01*
X12881Y9907D01*
X12882Y9908D01*
X12882Y9908D01*
X12883Y9909D01*
X12883Y9911D01*
X12884Y9911D01*
X12884Y9911D01*
X12892Y9922D01*
X12893Y9922D01*
X12893Y9922D01*
X12894Y9923D01*
X12895Y9924D01*
X12896Y9925D01*
X12896Y9925D01*
X12897Y9926D01*
X12898Y9926D01*
X12899Y9927D01*
X12899Y9927D01*
X12911Y9933D01*
X12912Y9933D01*
X12912Y9933D01*
X12914Y9933D01*
X12915Y9934D01*
X12916Y9934D01*
X12916Y9934D01*
X12917Y9934D01*
X12919Y9934D01*
X12919Y9934D01*
X12920Y9934D01*
X12927Y9934D01*
X13255Y9934D01*
X13255Y9934D01*
D02*
G37*
G36*
X34014Y9505D02*
X34015Y9505D01*
X34049Y9499D01*
X34051Y9498D01*
X34053Y9498D01*
X34085Y9486D01*
X34086Y9485D01*
X34088Y9485D01*
X34118Y9468D01*
X34119Y9467D01*
X34120Y9466D01*
X34147Y9444D01*
X34148Y9442D01*
X34149Y9441D01*
X34171Y9415D01*
X34172Y9414D01*
X34173Y9412D01*
X34191Y9383D01*
X34191Y9381D01*
X34192Y9380D01*
X34204Y9348D01*
X34204Y9346D01*
X34205Y9344D01*
X34208Y9327D01*
X34208Y9327D01*
X34209Y9321D01*
X34209Y9320D01*
X34209Y9320D01*
X34209Y9318D01*
X34209Y9317D01*
X34209Y9316D01*
X34209Y9316D01*
X34209Y9315D01*
X34209Y9313D01*
X34209Y9313D01*
X34209Y9312D01*
X34205Y9299D01*
X34205Y9299D01*
X34205Y9298D01*
X34205Y9297D01*
X34204Y9296D01*
X34204Y9295D01*
X34204Y9295D01*
X34203Y9294D01*
X34202Y9292D01*
X34202Y9292D01*
X34201Y9292D01*
X34193Y9281D01*
X34193Y9281D01*
X34192Y9281D01*
X34191Y9280D01*
X34190Y9279D01*
X34190Y9278D01*
X34189Y9278D01*
X34188Y9277D01*
X34187Y9276D01*
X34186Y9276D01*
X34186Y9276D01*
X34174Y9270D01*
X34174Y9270D01*
X34173Y9270D01*
X34172Y9270D01*
X34170Y9269D01*
X34170Y9269D01*
X34169Y9269D01*
X34168Y9269D01*
X34167Y9269D01*
X34166Y9269D01*
X34166Y9268D01*
X34159Y9268D01*
X33831Y9268D01*
X33831Y9269D01*
X33824Y9268D01*
X33824Y9269D01*
X33823Y9269D01*
X33822Y9269D01*
X33820Y9269D01*
X33820Y9269D01*
X33819Y9269D01*
X33818Y9270D01*
X33817Y9270D01*
X33816Y9270D01*
X33816Y9270D01*
X33804Y9276D01*
X33803Y9276D01*
X33803Y9276D01*
X33802Y9277D01*
X33800Y9278D01*
X33800Y9278D01*
X33800Y9279D01*
X33798Y9280D01*
X33797Y9281D01*
X33797Y9281D01*
X33797Y9281D01*
X33788Y9292D01*
X33788Y9292D01*
X33788Y9292D01*
X33787Y9294D01*
X33786Y9295D01*
X33786Y9295D01*
X33786Y9296D01*
X33785Y9297D01*
X33785Y9298D01*
X33784Y9299D01*
X33784Y9299D01*
X33781Y9312D01*
X33781Y9313D01*
X33781Y9313D01*
X33781Y9315D01*
X33780Y9316D01*
X33780Y9316D01*
X33780Y9317D01*
X33780Y9318D01*
X33780Y9320D01*
X33781Y9320D01*
X33781Y9321D01*
X33782Y9327D01*
Y9327D01*
X33785Y9344D01*
X33785Y9346D01*
X33786Y9348D01*
X33798Y9380D01*
X33798Y9381D01*
X33799Y9383D01*
X33816Y9412D01*
X33817Y9414D01*
X33818Y9415D01*
X33841Y9441D01*
X33842Y9442D01*
X33843Y9444D01*
X33869Y9466D01*
X33871Y9467D01*
X33872Y9468D01*
X33902Y9485D01*
X33903Y9485D01*
X33905Y9486D01*
X33937Y9498D01*
X33939Y9498D01*
X33941Y9499D01*
X33974Y9505D01*
X33976Y9505D01*
X33978Y9505D01*
X33995Y9505D01*
X34012Y9505D01*
X34014Y9505D01*
D02*
G37*
G36*
X33482D02*
X33484Y9505D01*
X33518Y9499D01*
X33519Y9498D01*
X33521Y9498D01*
X33553Y9486D01*
X33555Y9485D01*
X33556Y9485D01*
X33586Y9468D01*
X33587Y9467D01*
X33589Y9466D01*
X33615Y9444D01*
X33616Y9442D01*
X33618Y9441D01*
X33640Y9415D01*
X33641Y9414D01*
X33642Y9412D01*
X33659Y9383D01*
X33660Y9381D01*
X33661Y9380D01*
X33672Y9348D01*
X33673Y9346D01*
X33673Y9344D01*
X33676Y9327D01*
X33676Y9327D01*
X33678Y9321D01*
X33678Y9320D01*
X33678Y9320D01*
X33678Y9318D01*
X33678Y9317D01*
X33678Y9316D01*
X33678Y9316D01*
X33678Y9315D01*
X33678Y9313D01*
X33677Y9313D01*
X33677Y9312D01*
X33674Y9299D01*
X33674Y9299D01*
X33674Y9298D01*
X33673Y9297D01*
X33673Y9296D01*
X33672Y9295D01*
X33672Y9295D01*
X33671Y9294D01*
X33671Y9292D01*
X33670Y9292D01*
X33670Y9292D01*
X33661Y9281D01*
X33661Y9281D01*
X33661Y9281D01*
X33660Y9280D01*
X33659Y9279D01*
X33658Y9278D01*
X33658Y9278D01*
X33657Y9277D01*
X33655Y9276D01*
X33655Y9276D01*
X33655Y9276D01*
X33642Y9270D01*
X33642Y9270D01*
X33642Y9270D01*
X33640Y9270D01*
X33639Y9269D01*
X33638Y9269D01*
X33638Y9269D01*
X33636Y9269D01*
X33635Y9269D01*
X33635Y9269D01*
X33634Y9268D01*
X33627Y9268D01*
X33299Y9268D01*
X33299Y9269D01*
X33293Y9268D01*
X33292Y9269D01*
X33292Y9269D01*
X33290Y9269D01*
X33289Y9269D01*
X33288Y9269D01*
X33288Y9269D01*
X33286Y9270D01*
X33285Y9270D01*
X33285Y9270D01*
X33284Y9270D01*
X33272Y9276D01*
X33272Y9276D01*
X33271Y9276D01*
X33270Y9277D01*
X33269Y9278D01*
X33268Y9278D01*
X33268Y9279D01*
X33267Y9280D01*
X33266Y9281D01*
X33266Y9281D01*
X33265Y9281D01*
X33257Y9292D01*
X33256Y9292D01*
X33256Y9292D01*
X33255Y9294D01*
X33255Y9295D01*
X33254Y9295D01*
X33254Y9296D01*
X33254Y9297D01*
X33253Y9298D01*
X33253Y9299D01*
X33253Y9299D01*
X33249Y9312D01*
X33249Y9313D01*
X33249Y9313D01*
X33249Y9315D01*
X33249Y9316D01*
X33249Y9316D01*
X33249Y9317D01*
X33249Y9318D01*
X33249Y9320D01*
X33249Y9320D01*
X33249Y9321D01*
X33250Y9327D01*
Y9327D01*
X33253Y9344D01*
X33254Y9346D01*
X33254Y9348D01*
X33266Y9380D01*
X33267Y9381D01*
X33268Y9383D01*
X33285Y9412D01*
X33286Y9414D01*
X33287Y9415D01*
X33309Y9441D01*
X33310Y9442D01*
X33312Y9444D01*
X33338Y9466D01*
X33339Y9467D01*
X33341Y9468D01*
X33370Y9485D01*
X33372Y9485D01*
X33374Y9486D01*
X33406Y9498D01*
X33407Y9498D01*
X33409Y9499D01*
X33443Y9505D01*
X33445Y9505D01*
X33446Y9505D01*
X33463Y9505D01*
X33481Y9505D01*
X33482Y9505D01*
D02*
G37*
G36*
X34159Y9229D02*
X34166Y9229D01*
X34166Y9229D01*
X34166Y9229D01*
X34168Y9229D01*
X34169Y9229D01*
X34170Y9229D01*
X34170Y9229D01*
X34172Y9228D01*
X34173Y9228D01*
X34174Y9228D01*
X34174Y9227D01*
X34186Y9222D01*
X34187Y9222D01*
X34187Y9221D01*
X34188Y9221D01*
X34189Y9220D01*
X34190Y9219D01*
X34190Y9219D01*
X34191Y9218D01*
X34192Y9217D01*
X34193Y9217D01*
X34193Y9217D01*
X34201Y9206D01*
X34202Y9206D01*
X34202Y9206D01*
X34203Y9204D01*
X34204Y9203D01*
X34204Y9203D01*
X34204Y9202D01*
X34205Y9201D01*
X34205Y9199D01*
X34205Y9199D01*
X34205Y9199D01*
X34209Y9186D01*
X34209Y9185D01*
X34209Y9185D01*
X34209Y9183D01*
X34209Y9182D01*
X34209Y9181D01*
X34209Y9181D01*
X34209Y9179D01*
X34209Y9178D01*
X34209Y9178D01*
X34209Y9177D01*
X34208Y9170D01*
Y9170D01*
X34205Y9154D01*
X34204Y9152D01*
X34204Y9150D01*
X34192Y9118D01*
X34191Y9117D01*
X34191Y9115D01*
X34173Y9085D01*
X34172Y9084D01*
X34171Y9083D01*
X34149Y9057D01*
X34148Y9055D01*
X34147Y9054D01*
X34120Y9032D01*
X34119Y9031D01*
X34118Y9030D01*
X34088Y9013D01*
X34086Y9012D01*
X34085Y9012D01*
X34052Y9000D01*
X34051Y9000D01*
X34049Y8999D01*
X34015Y8993D01*
X34014Y8993D01*
X34012Y8993D01*
X33995Y8993D01*
X33978Y8993D01*
X33976Y8993D01*
X33974Y8993D01*
X33941Y8999D01*
X33939Y9000D01*
X33937Y9000D01*
X33905Y9012D01*
X33903Y9012D01*
X33902Y9013D01*
X33872Y9030D01*
X33871Y9031D01*
X33869Y9032D01*
X33843Y9054D01*
X33842Y9055D01*
X33841Y9057D01*
X33818Y9083D01*
X33817Y9084D01*
X33816Y9085D01*
X33799Y9115D01*
X33798Y9117D01*
X33798Y9118D01*
X33786Y9150D01*
X33785Y9152D01*
X33785Y9154D01*
X33782Y9170D01*
X33782Y9171D01*
X33781Y9177D01*
X33781Y9178D01*
X33780Y9178D01*
X33780Y9179D01*
X33780Y9181D01*
X33780Y9181D01*
X33780Y9182D01*
X33781Y9183D01*
X33781Y9185D01*
X33781Y9185D01*
X33781Y9186D01*
X33784Y9199D01*
X33784Y9199D01*
X33785Y9199D01*
X33785Y9201D01*
X33786Y9202D01*
X33786Y9203D01*
X33786Y9203D01*
X33787Y9204D01*
X33788Y9206D01*
X33788Y9206D01*
X33788Y9206D01*
X33797Y9217D01*
X33797Y9217D01*
X33797Y9217D01*
X33798Y9218D01*
X33800Y9219D01*
X33800Y9219D01*
X33800Y9220D01*
X33802Y9221D01*
X33803Y9221D01*
X33803Y9222D01*
X33804Y9222D01*
X33816Y9227D01*
X33816Y9228D01*
X33817Y9228D01*
X33818Y9228D01*
X33819Y9229D01*
X33820Y9229D01*
X33820Y9229D01*
X33822Y9229D01*
X33823Y9229D01*
X33824Y9229D01*
X33824Y9229D01*
X33831Y9229D01*
X34159Y9229D01*
X34159Y9229D01*
D02*
G37*
G36*
X33627D02*
X33634Y9229D01*
X33635Y9229D01*
X33635Y9229D01*
X33636Y9229D01*
X33638Y9229D01*
X33638Y9229D01*
X33639Y9229D01*
X33640Y9228D01*
X33642Y9228D01*
X33642Y9228D01*
X33642Y9227D01*
X33655Y9222D01*
X33655Y9222D01*
X33655Y9221D01*
X33657Y9221D01*
X33658Y9220D01*
X33658Y9219D01*
X33659Y9219D01*
X33660Y9218D01*
X33661Y9217D01*
X33661Y9217D01*
X33661Y9217D01*
X33670Y9206D01*
X33670Y9206D01*
X33671Y9206D01*
X33671Y9204D01*
X33672Y9203D01*
X33672Y9203D01*
X33673Y9202D01*
X33673Y9201D01*
X33674Y9199D01*
X33674Y9199D01*
X33674Y9199D01*
X33677Y9186D01*
X33677Y9185D01*
X33678Y9185D01*
X33678Y9183D01*
X33678Y9182D01*
X33678Y9181D01*
X33678Y9181D01*
X33678Y9179D01*
X33678Y9178D01*
X33678Y9178D01*
X33678Y9177D01*
X33676Y9170D01*
Y9170D01*
X33673Y9154D01*
X33673Y9152D01*
X33672Y9150D01*
X33661Y9118D01*
X33660Y9117D01*
X33659Y9115D01*
X33642Y9085D01*
X33641Y9084D01*
X33640Y9083D01*
X33618Y9057D01*
X33616Y9055D01*
X33615Y9054D01*
X33589Y9032D01*
X33587Y9031D01*
X33586Y9030D01*
X33556Y9013D01*
X33555Y9012D01*
X33553Y9012D01*
X33521Y9000D01*
X33519Y9000D01*
X33518Y8999D01*
X33484Y8993D01*
X33482Y8993D01*
X33481Y8993D01*
X33463Y8993D01*
X33446Y8993D01*
X33445Y8993D01*
X33443Y8993D01*
X33409Y8999D01*
X33407Y9000D01*
X33406Y9000D01*
X33374Y9012D01*
X33372Y9012D01*
X33370Y9013D01*
X33341Y9030D01*
X33339Y9031D01*
X33338Y9032D01*
X33312Y9054D01*
X33310Y9055D01*
X33309Y9057D01*
X33287Y9083D01*
X33286Y9084D01*
X33285Y9085D01*
X33268Y9115D01*
X33267Y9117D01*
X33266Y9118D01*
X33254Y9150D01*
X33254Y9152D01*
X33253Y9154D01*
X33250Y9170D01*
X33250Y9171D01*
X33249Y9177D01*
X33249Y9178D01*
X33249Y9178D01*
X33249Y9179D01*
X33249Y9181D01*
X33249Y9181D01*
X33249Y9182D01*
X33249Y9183D01*
X33249Y9185D01*
X33249Y9185D01*
X33249Y9186D01*
X33253Y9199D01*
X33253Y9199D01*
X33253Y9199D01*
X33254Y9201D01*
X33254Y9202D01*
X33254Y9203D01*
X33255Y9203D01*
X33255Y9204D01*
X33256Y9206D01*
X33256Y9206D01*
X33257Y9206D01*
X33265Y9217D01*
X33266Y9217D01*
X33266Y9217D01*
X33267Y9218D01*
X33268Y9219D01*
X33268Y9219D01*
X33269Y9220D01*
X33270Y9221D01*
X33271Y9221D01*
X33272Y9222D01*
X33272Y9222D01*
X33284Y9227D01*
X33285Y9228D01*
X33285Y9228D01*
X33286Y9228D01*
X33288Y9229D01*
X33288Y9229D01*
X33289Y9229D01*
X33290Y9229D01*
X33292Y9229D01*
X33292Y9229D01*
X33293Y9229D01*
X33299Y9229D01*
X33627Y9229D01*
X33627Y9229D01*
D02*
G37*
G36*
X4971Y6085D02*
X4973Y6085D01*
X4973Y6084D01*
X4974Y6084D01*
X4980Y6083D01*
X4980D01*
X4997Y6080D01*
X4999Y6080D01*
X5000Y6079D01*
X5032Y6067D01*
X5034Y6066D01*
X5036Y6066D01*
X5065Y6048D01*
X5066Y6047D01*
X5068Y6047D01*
X5094Y6024D01*
X5095Y6023D01*
X5096Y6022D01*
X5118Y5996D01*
X5119Y5994D01*
X5120Y5993D01*
X5137Y5963D01*
X5138Y5961D01*
X5139Y5960D01*
X5151Y5928D01*
X5151Y5926D01*
X5151Y5924D01*
X5157Y5891D01*
X5158Y5889D01*
X5158Y5887D01*
X5158Y5870D01*
X5158Y5853D01*
X5158Y5851D01*
X5157Y5850D01*
X5151Y5816D01*
X5151Y5814D01*
X5151Y5812D01*
X5139Y5780D01*
X5138Y5779D01*
X5137Y5777D01*
X5120Y5747D01*
X5119Y5746D01*
X5118Y5745D01*
X5096Y5718D01*
X5095Y5717D01*
X5094Y5716D01*
X5068Y5694D01*
X5067Y5693D01*
X5065Y5692D01*
X5036Y5674D01*
X5034Y5674D01*
X5032Y5673D01*
X5000Y5661D01*
X4999Y5661D01*
X4997Y5660D01*
X4980Y5657D01*
X4980Y5657D01*
X4974Y5656D01*
X4973Y5656D01*
X4973Y5656D01*
X4971Y5656D01*
X4970Y5655D01*
X4969Y5656D01*
X4969Y5656D01*
X4967Y5656D01*
X4966Y5656D01*
X4965Y5656D01*
X4965Y5656D01*
X4952Y5660D01*
X4952Y5660D01*
X4951Y5660D01*
X4950Y5660D01*
X4948Y5661D01*
X4948Y5661D01*
X4948Y5661D01*
X4946Y5662D01*
X4945Y5663D01*
X4945Y5663D01*
X4944Y5663D01*
X4934Y5672D01*
X4934Y5672D01*
X4933Y5673D01*
X4932Y5674D01*
X4931Y5675D01*
X4931Y5675D01*
X4931Y5676D01*
X4930Y5677D01*
X4929Y5678D01*
X4929Y5678D01*
X4929Y5679D01*
X4923Y5691D01*
X4923Y5691D01*
X4923Y5692D01*
X4922Y5693D01*
X4922Y5695D01*
X4922Y5695D01*
X4922Y5695D01*
X4922Y5697D01*
X4921Y5698D01*
X4921Y5699D01*
X4921Y5699D01*
X4921Y5706D01*
X4921Y6034D01*
X4921Y6034D01*
X4921Y6041D01*
X4921Y6041D01*
X4921Y6042D01*
X4922Y6043D01*
X4922Y6045D01*
X4922Y6045D01*
X4922Y6046D01*
X4922Y6047D01*
X4923Y6048D01*
X4923Y6049D01*
X4923Y6049D01*
X4929Y6061D01*
X4929Y6062D01*
X4929Y6062D01*
X4930Y6063D01*
X4931Y6065D01*
X4931Y6065D01*
X4931Y6065D01*
X4932Y6066D01*
X4933Y6068D01*
X4934Y6068D01*
X4934Y6068D01*
X4944Y6077D01*
X4945Y6077D01*
X4945Y6077D01*
X4946Y6078D01*
X4948Y6079D01*
X4948Y6079D01*
X4948Y6079D01*
X4950Y6080D01*
X4951Y6080D01*
X4952Y6080D01*
X4952Y6081D01*
X4965Y6084D01*
X4965Y6084D01*
X4966Y6084D01*
X4967Y6084D01*
X4969Y6085D01*
X4969Y6085D01*
X4970Y6085D01*
X4971Y6085D01*
D02*
G37*
G36*
Y5476D02*
X4973Y5476D01*
X4973Y5476D01*
X4974Y5476D01*
X4980Y5475D01*
X4980D01*
X4997Y5472D01*
X4999Y5471D01*
X5000Y5471D01*
X5032Y5459D01*
X5034Y5458D01*
X5036Y5457D01*
X5065Y5440D01*
X5066Y5439D01*
X5068Y5438D01*
X5094Y5416D01*
X5095Y5415D01*
X5096Y5413D01*
X5118Y5387D01*
X5119Y5386D01*
X5120Y5384D01*
X5137Y5355D01*
X5138Y5353D01*
X5139Y5351D01*
X5151Y5319D01*
X5151Y5318D01*
X5151Y5316D01*
X5157Y5282D01*
X5158Y5280D01*
X5158Y5279D01*
X5158Y5262D01*
X5158Y5244D01*
X5158Y5243D01*
X5157Y5241D01*
X5151Y5207D01*
X5151Y5206D01*
X5151Y5204D01*
X5139Y5172D01*
X5138Y5170D01*
X5137Y5169D01*
X5120Y5139D01*
X5119Y5137D01*
X5118Y5136D01*
X5096Y5110D01*
X5095Y5109D01*
X5094Y5107D01*
X5068Y5085D01*
X5067Y5084D01*
X5065Y5083D01*
X5036Y5066D01*
X5034Y5065D01*
X5032Y5064D01*
X5000Y5052D01*
X4999Y5052D01*
X4997Y5052D01*
X4980Y5048D01*
X4980Y5048D01*
X4974Y5047D01*
X4973Y5047D01*
X4973Y5047D01*
X4971Y5047D01*
X4970Y5047D01*
X4969Y5047D01*
X4969Y5047D01*
X4967Y5047D01*
X4966Y5047D01*
X4965Y5048D01*
X4965Y5048D01*
X4952Y5051D01*
X4952Y5051D01*
X4951Y5051D01*
X4950Y5052D01*
X4948Y5052D01*
X4948Y5053D01*
X4948Y5053D01*
X4946Y5054D01*
X4945Y5054D01*
X4945Y5055D01*
X4944Y5055D01*
X4934Y5064D01*
X4934Y5064D01*
X4933Y5064D01*
X4932Y5065D01*
X4931Y5066D01*
X4931Y5067D01*
X4931Y5067D01*
X4930Y5068D01*
X4929Y5070D01*
X4929Y5070D01*
X4929Y5070D01*
X4923Y5082D01*
X4923Y5083D01*
X4923Y5083D01*
X4922Y5085D01*
X4922Y5086D01*
X4922Y5087D01*
X4922Y5087D01*
X4922Y5088D01*
X4921Y5090D01*
X4921Y5090D01*
X4921Y5091D01*
X4921Y5098D01*
X4921Y5426D01*
X4921Y5426D01*
X4921Y5432D01*
X4921Y5433D01*
X4921Y5433D01*
X4922Y5435D01*
X4922Y5436D01*
X4922Y5437D01*
X4922Y5437D01*
X4922Y5438D01*
X4923Y5440D01*
X4923Y5440D01*
X4923Y5441D01*
X4929Y5453D01*
X4929Y5453D01*
X4929Y5454D01*
X4930Y5455D01*
X4931Y5456D01*
X4931Y5456D01*
X4931Y5457D01*
X4932Y5458D01*
X4933Y5459D01*
X4934Y5459D01*
X4934Y5460D01*
X4944Y5468D01*
X4945Y5468D01*
X4945Y5469D01*
X4946Y5470D01*
X4948Y5470D01*
X4948Y5471D01*
X4948Y5471D01*
X4950Y5471D01*
X4951Y5472D01*
X4952Y5472D01*
X4952Y5472D01*
X4965Y5476D01*
X4965Y5476D01*
X4966Y5476D01*
X4967Y5476D01*
X4969Y5476D01*
X4969Y5476D01*
X4970Y5476D01*
X4971Y5476D01*
D02*
G37*
G36*
X21249Y3907D02*
X21251Y3907D01*
X21285Y3901D01*
X21286Y3901D01*
X21288Y3900D01*
X21320Y3889D01*
X21322Y3888D01*
X21323Y3887D01*
X21353Y3870D01*
X21354Y3869D01*
X21356Y3868D01*
X21382Y3846D01*
X21383Y3845D01*
X21385Y3844D01*
X21407Y3818D01*
X21408Y3816D01*
X21409Y3815D01*
X21426Y3785D01*
X21427Y3784D01*
X21427Y3782D01*
X21439Y3750D01*
X21440Y3749D01*
X21440Y3747D01*
X21443Y3730D01*
X21443Y3730D01*
X21445Y3723D01*
X21445Y3723D01*
X21445Y3723D01*
X21445Y3721D01*
X21445Y3720D01*
X21445Y3719D01*
X21445Y3719D01*
X21445Y3717D01*
X21444Y3716D01*
X21444Y3715D01*
X21444Y3715D01*
X21441Y3702D01*
X21441Y3701D01*
X21441Y3701D01*
X21440Y3700D01*
X21440Y3698D01*
X21439Y3698D01*
X21439Y3697D01*
X21438Y3696D01*
X21437Y3695D01*
X21437Y3695D01*
X21437Y3694D01*
X21428Y3684D01*
X21428Y3684D01*
X21428Y3683D01*
X21427Y3682D01*
X21426Y3681D01*
X21425Y3681D01*
X21425Y3681D01*
X21424Y3680D01*
X21422Y3679D01*
X21422Y3679D01*
X21422Y3679D01*
X21409Y3673D01*
X21409Y3673D01*
X21409Y3673D01*
X21407Y3672D01*
X21406Y3672D01*
X21405Y3672D01*
X21405Y3672D01*
X21403Y3671D01*
X21402Y3671D01*
X21402Y3671D01*
X21401Y3671D01*
X21394Y3671D01*
X21066Y3671D01*
X21066Y3671D01*
X21060Y3671D01*
X21059Y3671D01*
X21059Y3671D01*
X21057Y3671D01*
X21056Y3672D01*
X21055Y3672D01*
X21055Y3672D01*
X21053Y3672D01*
X21052Y3673D01*
X21052Y3673D01*
X21051Y3673D01*
X21039Y3679D01*
X21039Y3679D01*
X21038Y3679D01*
X21037Y3680D01*
X21036Y3681D01*
X21035Y3681D01*
X21035Y3681D01*
X21034Y3682D01*
X21033Y3683D01*
X21033Y3684D01*
X21032Y3684D01*
X21024Y3694D01*
X21023Y3695D01*
X21023Y3695D01*
X21022Y3696D01*
X21022Y3697D01*
X21021Y3698D01*
X21021Y3698D01*
X21021Y3700D01*
X21020Y3701D01*
X21020Y3701D01*
X21020Y3702D01*
X21016Y3715D01*
X21016Y3715D01*
X21016Y3716D01*
X21016Y3717D01*
X21016Y3719D01*
X21016Y3719D01*
X21016Y3720D01*
X21016Y3721D01*
X21016Y3723D01*
X21016Y3723D01*
X21016Y3723D01*
X21017Y3730D01*
Y3730D01*
X21020Y3747D01*
X21021Y3749D01*
X21021Y3750D01*
X21033Y3782D01*
X21034Y3784D01*
X21035Y3785D01*
X21052Y3815D01*
X21053Y3816D01*
X21054Y3818D01*
X21076Y3844D01*
X21077Y3845D01*
X21078Y3846D01*
X21105Y3868D01*
X21106Y3869D01*
X21108Y3870D01*
X21137Y3887D01*
X21139Y3888D01*
X21140Y3889D01*
X21173Y3900D01*
X21174Y3901D01*
X21176Y3901D01*
X21210Y3907D01*
X21211Y3907D01*
X21213Y3908D01*
X21230Y3908D01*
X21247Y3908D01*
X21249Y3907D01*
D02*
G37*
G36*
X21394Y3632D02*
X21401Y3632D01*
X21402Y3632D01*
X21402Y3632D01*
X21403Y3632D01*
X21405Y3632D01*
X21405Y3631D01*
X21406Y3631D01*
X21407Y3631D01*
X21409Y3630D01*
X21409Y3630D01*
X21409Y3630D01*
X21422Y3624D01*
X21422Y3624D01*
X21422Y3624D01*
X21424Y3623D01*
X21425Y3622D01*
X21425Y3622D01*
X21426Y3622D01*
X21427Y3621D01*
X21428Y3620D01*
X21428Y3620D01*
X21428Y3619D01*
X21437Y3609D01*
X21437Y3609D01*
X21437Y3608D01*
X21438Y3607D01*
X21439Y3606D01*
X21439Y3605D01*
X21440Y3605D01*
X21440Y3603D01*
X21441Y3602D01*
X21441Y3602D01*
X21441Y3601D01*
X21444Y3588D01*
X21444Y3588D01*
X21444Y3587D01*
X21445Y3586D01*
X21445Y3584D01*
X21445Y3584D01*
X21445Y3584D01*
X21445Y3582D01*
X21445Y3581D01*
X21445Y3580D01*
X21445Y3580D01*
X21443Y3573D01*
Y3573D01*
X21440Y3556D01*
X21440Y3555D01*
X21439Y3553D01*
X21427Y3521D01*
X21427Y3519D01*
X21426Y3518D01*
X21409Y3488D01*
X21408Y3487D01*
X21407Y3485D01*
X21385Y3459D01*
X21383Y3458D01*
X21382Y3457D01*
X21356Y3435D01*
X21354Y3434D01*
X21353Y3433D01*
X21323Y3416D01*
X21322Y3415D01*
X21320Y3414D01*
X21288Y3403D01*
X21286Y3402D01*
X21285Y3402D01*
X21251Y3396D01*
X21249Y3396D01*
X21247Y3396D01*
X21230Y3396D01*
X21213Y3396D01*
X21211Y3396D01*
X21210Y3396D01*
X21176Y3402D01*
X21174Y3402D01*
X21173Y3403D01*
X21140Y3414D01*
X21139Y3415D01*
X21137Y3416D01*
X21108Y3433D01*
X21106Y3434D01*
X21105Y3435D01*
X21078Y3457D01*
X21077Y3458D01*
X21076Y3459D01*
X21054Y3485D01*
X21053Y3487D01*
X21052Y3488D01*
X21035Y3518D01*
X21034Y3519D01*
X21033Y3521D01*
X21021Y3553D01*
X21021Y3555D01*
X21020Y3556D01*
X21017Y3573D01*
X21017Y3573D01*
X21016Y3580D01*
X21016Y3580D01*
X21016Y3581D01*
X21016Y3582D01*
X21016Y3584D01*
X21016Y3584D01*
X21016Y3584D01*
X21016Y3586D01*
X21016Y3587D01*
X21016Y3588D01*
X21016Y3588D01*
X21020Y3601D01*
X21020Y3602D01*
X21020Y3602D01*
X21021Y3604D01*
X21021Y3605D01*
X21021Y3605D01*
X21022Y3606D01*
X21022Y3607D01*
X21023Y3608D01*
X21023Y3609D01*
X21024Y3609D01*
X21032Y3619D01*
X21033Y3620D01*
X21033Y3620D01*
X21034Y3621D01*
X21035Y3622D01*
X21035Y3622D01*
X21036Y3622D01*
X21037Y3623D01*
X21038Y3624D01*
X21039Y3624D01*
X21039Y3624D01*
X21051Y3630D01*
X21052Y3630D01*
X21052Y3630D01*
X21053Y3631D01*
X21055Y3631D01*
X21055Y3631D01*
X21056Y3632D01*
X21057Y3632D01*
X21059Y3632D01*
X21059Y3632D01*
X21060Y3632D01*
X21066Y3632D01*
X21394Y3632D01*
X21394Y3632D01*
D02*
G37*
D34*
X7146Y21270D02*
D03*
Y21781D02*
D03*
D47*
X1308Y23814D02*
D03*
Y21846D02*
D03*
X2252Y23814D02*
D03*
Y21846D02*
D03*
D73*
X13207Y9915D02*
G03*
X13207Y9915I-116J0D01*
G01*
Y9993D02*
G03*
X13207Y9993I-116J0D01*
G01*
X34111Y9210D02*
G03*
X34111Y9210I-116J0D01*
G01*
Y9288D02*
G03*
X34111Y9288I-116J0D01*
G01*
X33580Y9210D02*
G03*
X33580Y9210I-116J0D01*
G01*
Y9288D02*
G03*
X33580Y9288I-116J0D01*
G01*
X21346Y3691D02*
G03*
X21346Y3691I-116J0D01*
G01*
Y3612D02*
G03*
X21346Y3612I-116J0D01*
G01*
X4978Y5870D02*
G03*
X4978Y5870I-116J0D01*
G01*
X5057D02*
G03*
X5057Y5870I-116J0D01*
G01*
X36371Y15065D02*
G03*
X36371Y15065I-157J0D01*
G01*
X36292D02*
G03*
X36292Y15065I-79J0D01*
G01*
X36371Y15703D02*
G03*
X36371Y15703I-157J0D01*
G01*
X36292D02*
G03*
X36292Y15703I-79J0D01*
G01*
X35693Y15064D02*
G03*
X35693Y15064I-79J0D01*
G01*
X35772D02*
G03*
X35772Y15064I-157J0D01*
G01*
X35693Y15704D02*
G03*
X35693Y15704I-79J0D01*
G01*
X35772D02*
G03*
X35772Y15704I-157J0D01*
G01*
X4978Y5262D02*
G03*
X4978Y5262I-116J0D01*
G01*
X5057D02*
G03*
X5057Y5262I-116J0D01*
G01*
D74*
X31978Y11919D02*
G03*
X31978Y11919I-98J0D01*
G01*
D75*
X13091Y9954D02*
D03*
X33995Y9249D02*
D03*
X33463Y9249D02*
D03*
X21230Y3652D02*
D03*
D76*
X4902Y5870D02*
D03*
Y5262D02*
D03*
D77*
X9292Y21525D02*
D03*
X9068D02*
D03*
X12614Y9002D02*
D03*
X12839D02*
D03*
X12839Y8002D02*
D03*
X12614D02*
D03*
X12839Y8506D02*
D03*
X12614D02*
D03*
X12839Y8755D02*
D03*
X12614D02*
D03*
X12839Y8253D02*
D03*
X12614D02*
D03*
X18941Y4598D02*
D03*
X19165D02*
D03*
X18592D02*
D03*
X18368D02*
D03*
Y5246D02*
D03*
X18592D02*
D03*
X12972Y7226D02*
D03*
X13196D02*
D03*
X12394D02*
D03*
X12618D02*
D03*
X13196Y5549D02*
D03*
X12972D02*
D03*
X12394Y5553D02*
D03*
X12618D02*
D03*
X5754Y18671D02*
D03*
X5978D02*
D03*
X8799Y21093D02*
D03*
X9024Y21093D02*
D03*
X8799Y20876D02*
D03*
X9024D02*
D03*
X7657Y22441D02*
D03*
X7882D02*
D03*
X37272Y9437D02*
D03*
X37047D02*
D03*
X36038Y9384D02*
D03*
X36263D02*
D03*
X33259Y9986D02*
D03*
X33035D02*
D03*
X34643Y9387D02*
D03*
X34418D02*
D03*
X18562Y13347D02*
D03*
X18787D02*
D03*
X18575Y18349D02*
D03*
X18800D02*
D03*
X20010Y4870D02*
D03*
X19785D02*
D03*
X19165Y5246D02*
D03*
X18941D02*
D03*
X12199Y6339D02*
D03*
X11974D02*
D03*
X11425Y19024D02*
D03*
X11649D02*
D03*
X41610Y14067D02*
D03*
X41386D02*
D03*
X40350Y14272D02*
D03*
X40574D02*
D03*
Y13838D02*
D03*
X40350D02*
D03*
X40498Y13612D02*
D03*
X40722D02*
D03*
X5754Y18933D02*
D03*
X5978D02*
D03*
X11425Y18061D02*
D03*
X11649D02*
D03*
X40350Y14067D02*
D03*
X40574D02*
D03*
X12199Y4662D02*
D03*
X11974D02*
D03*
X40862Y17623D02*
D03*
X41087D02*
D03*
X30953Y8973D02*
D03*
X30729D02*
D03*
X40583Y17623D02*
D03*
X40359D02*
D03*
X31242Y8976D02*
D03*
X31466D02*
D03*
X10541Y6570D02*
D03*
X10766D02*
D03*
X40766Y14067D02*
D03*
X40990D02*
D03*
X4423Y11427D02*
D03*
X4199D02*
D03*
X9496Y7935D02*
D03*
X9272D02*
D03*
X10769Y6330D02*
D03*
X10544D02*
D03*
X6852Y5315D02*
D03*
X7076D02*
D03*
X6852Y6165D02*
D03*
X7076D02*
D03*
X6852Y7245D02*
D03*
X7076D02*
D03*
X37795Y15527D02*
D03*
X38020D02*
D03*
X39610Y12431D02*
D03*
X39386D02*
D03*
X40350Y14468D02*
D03*
X40574D02*
D03*
X38360Y15527D02*
D03*
X38585D02*
D03*
D78*
X9505Y21750D02*
D03*
Y21526D02*
D03*
X6142Y6226D02*
D03*
X6142Y6450D02*
D03*
X6356Y6226D02*
D03*
Y6451D02*
D03*
X5926Y6450D02*
D03*
Y6226D02*
D03*
X6454Y8565D02*
D03*
Y8340D02*
D03*
X4598Y1896D02*
D03*
Y1672D02*
D03*
X39779Y23583D02*
D03*
Y23807D02*
D03*
X16122Y13724D02*
D03*
Y13500D02*
D03*
X21260Y606D02*
D03*
Y831D02*
D03*
X10142Y10246D02*
D03*
Y10022D02*
D03*
X16122Y18500D02*
D03*
Y18724D02*
D03*
X7076Y19588D02*
D03*
Y19363D02*
D03*
X8150Y19366D02*
D03*
Y19591D02*
D03*
X9790Y18398D02*
D03*
Y18174D02*
D03*
X16122Y8500D02*
D03*
Y8724D02*
D03*
X41811Y14067D02*
D03*
Y14291D02*
D03*
X11244Y3912D02*
D03*
X8852Y21750D02*
D03*
Y21526D02*
D03*
X2392Y20900D02*
D03*
Y20675D02*
D03*
X5709Y6226D02*
D03*
X5709Y6451D02*
D03*
X41410Y23412D02*
D03*
Y23187D02*
D03*
X39310Y23412D02*
D03*
Y23187D02*
D03*
X6325Y3422D02*
D03*
Y3646D02*
D03*
X10417Y5337D02*
D03*
Y5112D02*
D03*
X11244Y3688D02*
D03*
X41410Y22112D02*
D03*
Y21887D02*
D03*
X39310Y22112D02*
D03*
Y21887D02*
D03*
X38832Y16379D02*
D03*
Y16154D02*
D03*
X5907Y4006D02*
D03*
Y4230D02*
D03*
X3868Y10498D02*
D03*
Y10722D02*
D03*
X43260Y13923D02*
D03*
Y13699D02*
D03*
X10274Y8167D02*
D03*
Y7942D02*
D03*
X10594Y7122D02*
D03*
Y7347D02*
D03*
X9584Y4312D02*
D03*
Y4537D02*
D03*
X10811Y7347D02*
D03*
Y7122D02*
D03*
X3632Y10722D02*
D03*
Y10498D02*
D03*
X8304Y4312D02*
D03*
Y4537D02*
D03*
X5907Y3428D02*
D03*
Y3652D02*
D03*
X38832Y15749D02*
D03*
Y15524D02*
D03*
X41195Y14067D02*
D03*
Y13843D02*
D03*
X37212Y13214D02*
D03*
Y13439D02*
D03*
X40222Y15279D02*
D03*
Y15054D02*
D03*
X39092Y16154D02*
D03*
Y16379D02*
D03*
D79*
X14380Y23555D02*
D03*
X13986D02*
D03*
X14380Y23957D02*
D03*
X13986D02*
D03*
X15165Y23555D02*
D03*
X14771D02*
D03*
X15167Y23957D02*
D03*
X14774D02*
D03*
X35619Y14106D02*
D03*
X36013D02*
D03*
X35619Y14470D02*
D03*
X36013D02*
D03*
D80*
X30030Y11053D02*
D03*
Y11447D02*
D03*
Y21043D02*
D03*
Y21437D02*
D03*
Y16053D02*
D03*
Y16447D02*
D03*
X18563Y18807D02*
D03*
Y19200D02*
D03*
X4173Y10561D02*
D03*
Y10955D02*
D03*
X36688Y13447D02*
D03*
Y13053D02*
D03*
X9824Y8008D02*
D03*
Y8401D02*
D03*
X9134Y8632D02*
D03*
Y8238D02*
D03*
X37408Y15696D02*
D03*
Y16089D02*
D03*
D81*
X10531Y16713D02*
D03*
Y17410D02*
D03*
D82*
X1308Y22830D02*
D03*
X2252D02*
D03*
D83*
X12795Y5315D02*
D03*
Y4646D02*
D03*
Y6988D02*
D03*
Y6319D02*
D03*
X18770Y4360D02*
D03*
Y3691D02*
D03*
X5650Y4081D02*
D03*
X5492D02*
D03*
X5335D02*
D03*
X5177D02*
D03*
X5020D02*
D03*
Y3577D02*
D03*
X5177D02*
D03*
X5335D02*
D03*
X5492D02*
D03*
X5650D02*
D03*
D84*
X13047Y5295D02*
D03*
Y5138D02*
D03*
Y4980D02*
D03*
Y4823D02*
D03*
Y4665D02*
D03*
X12543D02*
D03*
Y4823D02*
D03*
Y4980D02*
D03*
Y5138D02*
D03*
Y5295D02*
D03*
X13047Y6969D02*
D03*
Y6811D02*
D03*
Y6654D02*
D03*
Y6496D02*
D03*
Y6339D02*
D03*
X12543D02*
D03*
Y6496D02*
D03*
Y6654D02*
D03*
Y6811D02*
D03*
Y6969D02*
D03*
X19022Y4341D02*
D03*
Y4183D02*
D03*
Y4026D02*
D03*
Y3868D02*
D03*
Y3711D02*
D03*
X18518D02*
D03*
Y3868D02*
D03*
Y4026D02*
D03*
Y4183D02*
D03*
Y4341D02*
D03*
X5000Y3829D02*
D03*
X5669D02*
D03*
D85*
X5781Y16644D02*
D03*
X6175D02*
D03*
X5781Y17840D02*
D03*
X6175D02*
D03*
X8541Y8225D02*
D03*
X8147D02*
D03*
X8721Y8565D02*
D03*
X8327D02*
D03*
X34115Y21308D02*
D03*
X33721D02*
D03*
X34883D02*
D03*
X34490D02*
D03*
D86*
X6230Y6781D02*
D03*
Y7313D02*
D03*
X9790Y17705D02*
D03*
Y17174D02*
D03*
X7244Y8780D02*
D03*
Y8249D02*
D03*
X6784Y8780D02*
D03*
Y8249D02*
D03*
D87*
X20010Y4488D02*
D03*
X20167Y4488D02*
D03*
X20325Y4488D02*
D03*
X20482Y4488D02*
D03*
Y3563D02*
D03*
X20325Y3563D02*
D03*
X20167Y3563D02*
D03*
X20010Y3563D02*
D03*
X18567Y12957D02*
D03*
X18725D02*
D03*
X18882D02*
D03*
X19040D02*
D03*
Y12032D02*
D03*
X18882D02*
D03*
X18725D02*
D03*
X18567D02*
D03*
X18574Y17958D02*
D03*
X18731D02*
D03*
X18889D02*
D03*
X19046D02*
D03*
Y17032D02*
D03*
X18889D02*
D03*
X18731D02*
D03*
X18574D02*
D03*
D88*
X20551Y4262D02*
D03*
Y4104D02*
D03*
Y3947D02*
D03*
Y3789D02*
D03*
X19941D02*
D03*
Y3947D02*
D03*
Y4104D02*
D03*
X19108Y12731D02*
D03*
Y12573D02*
D03*
Y12416D02*
D03*
Y12258D02*
D03*
X18498D02*
D03*
Y12416D02*
D03*
Y12573D02*
D03*
X19115Y17731D02*
D03*
Y17574D02*
D03*
Y17416D02*
D03*
Y17259D02*
D03*
X18505D02*
D03*
Y17416D02*
D03*
Y17574D02*
D03*
D89*
X19961Y4262D02*
D03*
X18518Y12731D02*
D03*
X18525Y17731D02*
D03*
D90*
X33622Y10591D02*
D03*
X37638Y10039D02*
D03*
D91*
X33642Y11063D02*
D03*
Y10748D02*
D03*
Y10906D02*
D03*
X33031Y11063D02*
D03*
Y10906D02*
D03*
Y10748D02*
D03*
Y10591D02*
D03*
X37047Y10039D02*
D03*
Y10354D02*
D03*
Y10512D02*
D03*
X37657D02*
D03*
Y10354D02*
D03*
Y10197D02*
D03*
X37047Y10197D02*
D03*
D92*
X33100Y11289D02*
D03*
X33573Y11289D02*
D03*
X33415Y11289D02*
D03*
X33258Y11289D02*
D03*
X33100Y10364D02*
D03*
X33258Y10364D02*
D03*
X33415Y10364D02*
D03*
X33573Y10364D02*
D03*
X37589Y9813D02*
D03*
X37431Y9813D02*
D03*
X37274Y9813D02*
D03*
X37116Y9813D02*
D03*
X37274Y10738D02*
D03*
X37431Y10738D02*
D03*
X37589Y10738D02*
D03*
X37116Y10738D02*
D03*
D93*
X6732Y21526D02*
D03*
D94*
X7657Y22057D02*
D03*
X8406D02*
D03*
X8406Y20994D02*
D03*
X8031Y20994D02*
D03*
X7657Y20994D02*
D03*
D95*
X38091Y11909D02*
D03*
X13091Y9363D02*
D03*
X34213Y11919D02*
D03*
X37014Y11916D02*
D03*
X37556Y11909D02*
D03*
X33170Y11916D02*
D03*
X33712D02*
D03*
D96*
X35344Y10630D02*
D03*
D97*
X34254Y9880D02*
D03*
X36435Y11380D02*
D03*
Y9880D02*
D03*
Y10380D02*
D03*
Y10880D02*
D03*
X34254Y11380D02*
D03*
Y10880D02*
D03*
Y10380D02*
D03*
D98*
X15157Y2348D02*
D03*
Y1195D02*
D03*
X13157D02*
D03*
Y2348D02*
D03*
X14157D02*
D03*
Y1195D02*
D03*
X12170Y24437D02*
D03*
Y23284D02*
D03*
X10170D02*
D03*
Y24437D02*
D03*
X11170D02*
D03*
Y23284D02*
D03*
D99*
X12127Y3800D02*
D03*
X11577D02*
D03*
X40435Y21999D02*
D03*
X40985D02*
D03*
X38335D02*
D03*
X38885D02*
D03*
X40435Y23299D02*
D03*
X40985D02*
D03*
X38335D02*
D03*
X38885D02*
D03*
D100*
X11083Y9482D02*
D03*
X10492D02*
D03*
Y10190D02*
D03*
X11083D02*
D03*
D101*
X10788Y9482D02*
D03*
Y10190D02*
D03*
D102*
X30748Y9350D02*
D03*
Y9941D02*
D03*
X31457D02*
D03*
Y9350D02*
D03*
X40354Y18593D02*
D03*
Y18002D02*
D03*
X41063D02*
D03*
Y18593D02*
D03*
D103*
X30748Y9646D02*
D03*
X31457D02*
D03*
X40354Y18297D02*
D03*
X41063D02*
D03*
D104*
X8048Y18050D02*
D03*
D105*
X9013Y17361D02*
D03*
Y17557D02*
D03*
Y17754D02*
D03*
Y18148D02*
D03*
Y18345D02*
D03*
Y18542D02*
D03*
Y18739D02*
D03*
X7083D02*
D03*
Y18542D02*
D03*
Y18345D02*
D03*
Y17951D02*
D03*
Y17754D02*
D03*
Y17557D02*
D03*
Y17361D02*
D03*
Y18148D02*
D03*
X9013Y17951D02*
D03*
D106*
X8737Y19014D02*
D03*
X8540D02*
D03*
X8343D02*
D03*
X8146D02*
D03*
X7950D02*
D03*
X7753D02*
D03*
X7556D02*
D03*
X7359D02*
D03*
Y17085D02*
D03*
X7556D02*
D03*
X7753D02*
D03*
X7950D02*
D03*
X8146D02*
D03*
X8343D02*
D03*
X8540D02*
D03*
X8737D02*
D03*
D107*
X6211Y17362D02*
D03*
X5679D02*
D03*
X5672Y18290D02*
D03*
X6204D02*
D03*
X9813Y16609D02*
D03*
X9281D02*
D03*
X3455Y7304D02*
D03*
X2923D02*
D03*
X11900Y19346D02*
D03*
X11368Y19346D02*
D03*
X38348Y16047D02*
D03*
X37816D02*
D03*
D108*
X40012Y13909D02*
D03*
X37630Y14854D02*
D03*
Y14697D02*
D03*
Y14539D02*
D03*
Y14382D02*
D03*
Y14224D02*
D03*
Y14067D02*
D03*
Y13909D02*
D03*
Y13752D02*
D03*
Y13594D02*
D03*
Y13437D02*
D03*
Y13280D02*
D03*
Y13122D02*
D03*
X40012D02*
D03*
Y13280D02*
D03*
Y13437D02*
D03*
Y13594D02*
D03*
Y13752D02*
D03*
Y14067D02*
D03*
Y14224D02*
D03*
Y14382D02*
D03*
Y14539D02*
D03*
Y14697D02*
D03*
Y14854D02*
D03*
D109*
X16825Y19000D02*
D03*
Y14000D02*
D03*
Y9000D02*
D03*
Y11000D02*
D03*
X17825D02*
D03*
Y9000D02*
D03*
X16825Y16000D02*
D03*
X17825D02*
D03*
Y14000D02*
D03*
X16825Y21000D02*
D03*
X17825D02*
D03*
Y19000D02*
D03*
X24325Y11000D02*
D03*
Y9000D02*
D03*
X23325Y11000D02*
D03*
Y9000D02*
D03*
X22325Y11000D02*
D03*
Y9000D02*
D03*
X20325Y11000D02*
D03*
X21325D02*
D03*
Y9000D02*
D03*
X20325D02*
D03*
X25325Y11000D02*
D03*
Y9000D02*
D03*
X26325Y11000D02*
D03*
Y9000D02*
D03*
X27325Y11000D02*
D03*
Y9000D02*
D03*
X28325Y11000D02*
D03*
Y9000D02*
D03*
X29325Y11000D02*
D03*
Y9000D02*
D03*
X24325Y16000D02*
D03*
Y14000D02*
D03*
X23325Y16000D02*
D03*
Y14000D02*
D03*
X22325Y16000D02*
D03*
Y14000D02*
D03*
X20325Y16000D02*
D03*
X21325D02*
D03*
Y14000D02*
D03*
X20325D02*
D03*
X25325Y16000D02*
D03*
Y14000D02*
D03*
X26325Y16000D02*
D03*
Y14000D02*
D03*
X27325Y16000D02*
D03*
Y14000D02*
D03*
X28325Y16000D02*
D03*
Y14000D02*
D03*
X29325Y16000D02*
D03*
Y14000D02*
D03*
X24325Y21000D02*
D03*
Y19000D02*
D03*
X23325Y21000D02*
D03*
Y19000D02*
D03*
X22325Y21000D02*
D03*
Y19000D02*
D03*
X20325Y21000D02*
D03*
X21325D02*
D03*
Y19000D02*
D03*
X20325D02*
D03*
X25325Y21000D02*
D03*
Y19000D02*
D03*
X26325Y21000D02*
D03*
Y19000D02*
D03*
X27325Y21000D02*
D03*
Y19000D02*
D03*
X28325Y21000D02*
D03*
Y19000D02*
D03*
X29325Y21000D02*
D03*
Y19000D02*
D03*
D110*
X10613Y817D02*
D03*
X8613D02*
D03*
X9113D02*
D03*
X9613D02*
D03*
X10113D02*
D03*
X10613Y1317D02*
D03*
X10113D02*
D03*
X9613D02*
D03*
X9113D02*
D03*
X8613D02*
D03*
D111*
X2947Y8242D02*
D03*
Y8557D02*
D03*
Y10761D02*
D03*
Y10446D02*
D03*
D112*
Y8813D02*
D03*
Y9009D02*
D03*
Y9206D02*
D03*
Y9403D02*
D03*
Y9600D02*
D03*
Y9797D02*
D03*
Y9994D02*
D03*
Y10191D02*
D03*
D113*
X4165Y9797D02*
D03*
X4559D02*
D03*
X4165Y9600D02*
D03*
X4559D02*
D03*
D114*
X11380Y18355D02*
D03*
Y18729D02*
D03*
X4518Y10571D02*
D03*
Y10945D02*
D03*
D115*
X11233Y8049D02*
D03*
X11685D02*
D03*
Y7478D02*
D03*
X11233D02*
D03*
X40716Y15732D02*
D03*
X41168D02*
D03*
Y15161D02*
D03*
X40716D02*
D03*
D116*
X34936Y15667D02*
D03*
Y15096D02*
D03*
D117*
X7504Y7506D02*
D03*
Y4986D02*
D03*
X10024D02*
D03*
Y7506D02*
D03*
D118*
X9630D02*
D03*
X9788Y4986D02*
D03*
X9630D02*
D03*
X9866Y5143D02*
D03*
Y7348D02*
D03*
X7504Y5222D02*
D03*
X9473Y4986D02*
D03*
X9315D02*
D03*
X9158D02*
D03*
X9000D02*
D03*
X8843D02*
D03*
X8685D02*
D03*
X8528D02*
D03*
X8370D02*
D03*
X8213D02*
D03*
X8055D02*
D03*
X7898D02*
D03*
X7740D02*
D03*
X9709Y5143D02*
D03*
X9551D02*
D03*
X9394D02*
D03*
X9236D02*
D03*
X9079D02*
D03*
X8921D02*
D03*
X8764D02*
D03*
X8606D02*
D03*
X8449D02*
D03*
X8291D02*
D03*
X8134D02*
D03*
X7976D02*
D03*
X7819D02*
D03*
X7662D02*
D03*
Y5301D02*
D03*
Y5458D02*
D03*
X7504Y5380D02*
D03*
Y5537D02*
D03*
X7662Y5616D02*
D03*
X10024Y5695D02*
D03*
X7504D02*
D03*
X7662Y5773D02*
D03*
X10024Y5852D02*
D03*
X7504D02*
D03*
X7662Y5931D02*
D03*
X10024Y6010D02*
D03*
X7504D02*
D03*
X7662Y6088D02*
D03*
X10024Y6167D02*
D03*
X7504D02*
D03*
X7662Y6246D02*
D03*
X10024Y6325D02*
D03*
X7504D02*
D03*
X7662Y6403D02*
D03*
X10024Y6482D02*
D03*
X7504D02*
D03*
X7662Y6561D02*
D03*
X10024Y6640D02*
D03*
X7504D02*
D03*
X7662Y6718D02*
D03*
X10024Y6797D02*
D03*
X7504D02*
D03*
X7662Y6876D02*
D03*
X10024Y6954D02*
D03*
X7504D02*
D03*
X7662Y7033D02*
D03*
X10024Y7112D02*
D03*
X7504D02*
D03*
X7662Y7191D02*
D03*
X10024Y7269D02*
D03*
X7504D02*
D03*
X9236Y7348D02*
D03*
X9079D02*
D03*
X8921D02*
D03*
X8764D02*
D03*
X8606D02*
D03*
X8449D02*
D03*
X8291D02*
D03*
X8134D02*
D03*
X7976D02*
D03*
X7819D02*
D03*
X7662D02*
D03*
X9473Y7506D02*
D03*
X9315D02*
D03*
X9158D02*
D03*
X9000D02*
D03*
X8843D02*
D03*
X8685D02*
D03*
X8528D02*
D03*
X7898D02*
D03*
X9394Y7348D02*
D03*
X9551D02*
D03*
X9709D02*
D03*
X10024Y5537D02*
D03*
Y5380D02*
D03*
Y5222D02*
D03*
D119*
X8843Y6246D02*
D03*
D120*
X37955Y12797D02*
D03*
X38112D02*
D03*
X38270D02*
D03*
X38427D02*
D03*
X38585D02*
D03*
X38742D02*
D03*
X38900D02*
D03*
X39057D02*
D03*
X39215D02*
D03*
X39372D02*
D03*
X39530D02*
D03*
X39687D02*
D03*
Y15179D02*
D03*
X39530D02*
D03*
X39372D02*
D03*
X39215D02*
D03*
X39057D02*
D03*
X38900D02*
D03*
X38742D02*
D03*
X38585D02*
D03*
X38427D02*
D03*
X38270D02*
D03*
X38112D02*
D03*
X37955D02*
D03*
D121*
X38821Y13988D02*
D03*
D122*
X19478Y1772D02*
D03*
D123*
X37324Y2582D02*
D03*
Y1007D02*
D03*
X39982Y2582D02*
D03*
Y1007D02*
D03*
X33284Y2582D02*
D03*
Y1007D02*
D03*
X35942Y2582D02*
D03*
Y1007D02*
D03*
X37324Y6322D02*
D03*
Y4747D02*
D03*
X39982Y6322D02*
D03*
Y4747D02*
D03*
X33284Y6322D02*
D03*
Y4747D02*
D03*
X35942Y6322D02*
D03*
Y4747D02*
D03*
X773Y6337D02*
D03*
Y4763D02*
D03*
X3430Y6337D02*
D03*
Y4763D02*
D03*
D124*
X36213Y15187D02*
D03*
Y14941D02*
D03*
Y15581D02*
D03*
Y15827D02*
D03*
X35490Y15064D02*
D03*
X35736D02*
D03*
X35490Y15704D02*
D03*
X35736D02*
D03*
D125*
X34118Y20946D02*
D03*
Y20553D02*
D03*
X34490Y20946D02*
D03*
Y20553D02*
D03*
D126*
X5104Y2539D02*
D03*
X5604D02*
D03*
X6104D02*
D03*
X6604D02*
D03*
X7104D02*
D03*
X5104Y1004D02*
D03*
X5604D02*
D03*
X6104D02*
D03*
X6604D02*
D03*
X7104D02*
D03*
X23826Y1004D02*
D03*
X23326D02*
D03*
X22826D02*
D03*
X22326D02*
D03*
X21826D02*
D03*
X23826Y2539D02*
D03*
X23326D02*
D03*
X22826D02*
D03*
X22326D02*
D03*
X21826D02*
D03*
X24326D02*
D03*
X24826D02*
D03*
X25326D02*
D03*
X25826D02*
D03*
X26326D02*
D03*
X24326Y1004D02*
D03*
X24826D02*
D03*
X25326D02*
D03*
X25826D02*
D03*
X26326D02*
D03*
X21826Y2539D02*
D03*
X22326D02*
D03*
X22826D02*
D03*
X23326D02*
D03*
X23826D02*
D03*
X21826Y1004D02*
D03*
X22326D02*
D03*
X22826D02*
D03*
X23326D02*
D03*
X23826D02*
D03*
D127*
X33555Y22817D02*
D03*
X35051D02*
D03*
D128*
X34106Y21911D02*
D03*
X34303D02*
D03*
X34500D02*
D03*
X34697D02*
D03*
X33909D02*
D03*
D129*
X42148Y13663D02*
D03*
Y14470D02*
D03*
X42896D02*
D03*
Y13663D02*
D03*
D130*
X42065Y14067D02*
D03*
X42978D02*
D03*
D131*
X43307Y24213D02*
D03*
Y787D02*
D03*
X787Y787D02*
D03*
D132*
X6496Y21526D02*
D03*
D133*
X1780Y21491D02*
D03*
Y24169D02*
D03*
D134*
X41671Y8442D02*
D03*
X37711Y18356D02*
D03*
X38711D02*
D03*
D135*
X41671Y9442D02*
D03*
D136*
X36711Y18356D02*
D03*
D137*
X2526Y8364D02*
D03*
Y10639D02*
D03*
D138*
X1069Y7799D02*
D03*
Y11204D02*
D03*
D139*
X2715D02*
D03*
Y7799D02*
D03*
D140*
X8113Y1067D02*
D03*
X11113Y1467D02*
D03*
Y667D02*
D03*
D141*
X44529Y23031D02*
D03*
X41734Y1969D02*
D03*
X17325Y1969D02*
D03*
X4962Y23031D02*
D03*
X3151Y1969D02*
D03*
X17325Y23031D02*
D03*
M02*
