G04*
G04 #@! TF.GenerationSoftware,Altium Limited,Altium Designer,25.4.2 (15)*
G04*
G04 Layer_Color=16711935*
%FSLAX24Y24*%
%MOIN*%
G70*
G04*
G04 #@! TF.SameCoordinates,58243F55-B80C-4B6F-AF4D-97493F1C6FF7*
G04*
G04*
G04 #@! TF.FilePolarity,Negative*
G04*
G01*
G75*
%ADD79R,0.0276X0.0256*%
%ADD131C,0.0787*%
%ADD133C,0.0354*%
%ADD134C,0.0630*%
%ADD135R,0.0630X0.0630*%
%ADD136R,0.0630X0.0630*%
%ADD137C,0.0276*%
%ADD138O,0.0709X0.0394*%
%ADD139O,0.0827X0.0394*%
%ADD140C,0.0406*%
%ADD141C,0.1299*%
D79*
X10866Y23284D02*
D03*
X10472D02*
D03*
D131*
X43307Y24213D02*
D03*
Y787D02*
D03*
X787Y787D02*
D03*
D133*
X1780Y21491D02*
D03*
Y24169D02*
D03*
D134*
X7332Y22670D02*
D03*
X8117Y1624D02*
D03*
X9298D02*
D03*
X10479D02*
D03*
X11662D02*
D03*
X4032Y9100D02*
D03*
Y10282D02*
D03*
X5222Y9280D02*
D03*
X14242Y19370D02*
D03*
X3642Y12500D02*
D03*
X17912Y5140D02*
D03*
X4210Y19260D02*
D03*
X10368Y19000D02*
D03*
X10582Y21620D02*
D03*
X9202Y22850D02*
D03*
X39504Y15785D02*
D03*
X15002Y18590D02*
D03*
X41671Y8442D02*
D03*
X37711Y18356D02*
D03*
X38711D02*
D03*
D135*
X41671Y9442D02*
D03*
D136*
X36711Y18356D02*
D03*
D137*
X2526Y8364D02*
D03*
Y10639D02*
D03*
D138*
X1069Y7799D02*
D03*
Y11204D02*
D03*
D139*
X2715D02*
D03*
Y7799D02*
D03*
D140*
X8113Y1067D02*
D03*
X11113Y1467D02*
D03*
Y667D02*
D03*
D141*
X44529Y23031D02*
D03*
X41734Y1969D02*
D03*
X17325Y1969D02*
D03*
X4962Y23031D02*
D03*
X3151Y1969D02*
D03*
X17325Y23031D02*
D03*
M02*
