%TF.GenerationSoftware,KiCad,Pcbnew,9.0.7*%
%TF.CreationDate,2026-05-07T13:12:39-05:00*%
%TF.ProjectId,power_management_test,706f7765-725f-46d6-916e-6167656d656e,rev?*%
%TF.SameCoordinates,Original*%
%TF.FileFunction,Drillmap*%
%TF.FilePolarity,Positive*%
%FSLAX45Y45*%
G04 Gerber Fmt 4.5, Leading zero omitted, Abs format (unit mm)*
G04 Created by KiCad (PCBNEW 9.0.7) date 2026-05-07 13:12:39*
%MOMM*%
%LPD*%
G01*
G04 APERTURE LIST*
%ADD10C,0.038100*%
%ADD11C,0.200000*%
%ADD12C,0.100000*%
%ADD13C,0.160000*%
%ADD14C,0.440000*%
G04 APERTURE END LIST*
D10*
X17582000Y-4175000D02*
G75*
G02*
X17272000Y-4175000I-155000J0D01*
G01*
X17272000Y-4175000D02*
G75*
G02*
X17582000Y-4175000I155000J0D01*
G01*
X17582000Y-10202000D02*
G75*
G02*
X17272000Y-10202000I-155000J0D01*
G01*
X17272000Y-10202000D02*
G75*
G02*
X17582000Y-10202000I155000J0D01*
G01*
X11791000Y-4175000D02*
G75*
G02*
X11481000Y-4175000I-155000J0D01*
G01*
X11481000Y-4175000D02*
G75*
G02*
X11791000Y-4175000I155000J0D01*
G01*
X11791000Y-10202000D02*
G75*
G02*
X11481000Y-10202000I-155000J0D01*
G01*
X11481000Y-10202000D02*
G75*
G02*
X11791000Y-10202000I155000J0D01*
G01*
X11281000Y-3820000D02*
X17782500Y-3820000D01*
X17782500Y-10557500D01*
X11281000Y-10557500D01*
X11281000Y-3820000D01*
D11*
D12*
X13637300Y-5972300D02*
X13662700Y-5997700D01*
X13662700Y-5972300D02*
X13637300Y-5997700D01*
X13732300Y-6199800D02*
X13757700Y-6225200D01*
X13757700Y-6199800D02*
X13732300Y-6225200D01*
X13767300Y-5601050D02*
X13792700Y-5626450D01*
X13792700Y-5601050D02*
X13767300Y-5626450D01*
X14348550Y-4658550D02*
X14373950Y-4683950D01*
X14373950Y-4658550D02*
X14348550Y-4683950D01*
X14356050Y-7153550D02*
X14381450Y-7178950D01*
X14381450Y-7153550D02*
X14356050Y-7178950D01*
X14597300Y-5228550D02*
X14622700Y-5253950D01*
X14622700Y-5228550D02*
X14597300Y-5253950D01*
X14604800Y-7723550D02*
X14630200Y-7748950D01*
X14630200Y-7723550D02*
X14604800Y-7748950D01*
X14827300Y-4658550D02*
X14852700Y-4683950D01*
X14852700Y-4658550D02*
X14827300Y-4683950D01*
X14834800Y-7153550D02*
X14860200Y-7178950D01*
X14860200Y-7153550D02*
X14834800Y-7178950D01*
X14907300Y-4658550D02*
X14932700Y-4683950D01*
X14932700Y-4658550D02*
X14907300Y-4683950D01*
X14914800Y-7153550D02*
X14940200Y-7178950D01*
X14940200Y-7153550D02*
X14914800Y-7178950D01*
X14977300Y-4663550D02*
X15002700Y-4688950D01*
X15002700Y-4663550D02*
X14977300Y-4688950D01*
X14984800Y-7158550D02*
X15010200Y-7183950D01*
X15010200Y-7158550D02*
X14984800Y-7183950D01*
X15123550Y-5499800D02*
X15148950Y-5525200D01*
X15148950Y-5499800D02*
X15123550Y-5525200D01*
X15123550Y-5689800D02*
X15148950Y-5715200D01*
X15148950Y-5689800D02*
X15123550Y-5715200D01*
X15127300Y-5889800D02*
X15152700Y-5915200D01*
X15152700Y-5889800D02*
X15127300Y-5915200D01*
X15131050Y-7994800D02*
X15156450Y-8020200D01*
X15156450Y-7994800D02*
X15131050Y-8020200D01*
X15131050Y-8184800D02*
X15156450Y-8210200D01*
X15156450Y-8184800D02*
X15131050Y-8210200D01*
X15134800Y-8384800D02*
X15160200Y-8410200D01*
X15160200Y-8384800D02*
X15134800Y-8410200D01*
X15147800Y-6869300D02*
X15173200Y-6894700D01*
X15173200Y-6869300D02*
X15147800Y-6894700D01*
X15149800Y-7029800D02*
X15175200Y-7055200D01*
X15175200Y-7029800D02*
X15149800Y-7055200D01*
X15150300Y-6954300D02*
X15175700Y-6979700D01*
X15175700Y-6954300D02*
X15150300Y-6979700D01*
X15152300Y-7114800D02*
X15177700Y-7140200D01*
X15177700Y-7114800D02*
X15152300Y-7140200D01*
X15237300Y-5499800D02*
X15262700Y-5525200D01*
X15262700Y-5499800D02*
X15237300Y-5525200D01*
X15237300Y-5689800D02*
X15262700Y-5715200D01*
X15262700Y-5689800D02*
X15237300Y-5715200D01*
X15237300Y-5889800D02*
X15262700Y-5915200D01*
X15262700Y-5889800D02*
X15237300Y-5915200D01*
X15244800Y-7994800D02*
X15270200Y-8020200D01*
X15270200Y-7994800D02*
X15244800Y-8020200D01*
X15244800Y-8184800D02*
X15270200Y-8210200D01*
X15270200Y-8184800D02*
X15244800Y-8210200D01*
X15244800Y-8384800D02*
X15270200Y-8410200D01*
X15270200Y-8384800D02*
X15244800Y-8410200D01*
X15247800Y-6869300D02*
X15273200Y-6894700D01*
X15273200Y-6869300D02*
X15247800Y-6894700D01*
X15247800Y-6954300D02*
X15273200Y-6979700D01*
X15273200Y-6954300D02*
X15247800Y-6979700D01*
X15249800Y-7029800D02*
X15275200Y-7055200D01*
X15275200Y-7029800D02*
X15249800Y-7055200D01*
X15249800Y-7114800D02*
X15275200Y-7140200D01*
X15275200Y-7114800D02*
X15249800Y-7140200D01*
X15342800Y-6869300D02*
X15368200Y-6894700D01*
X15368200Y-6869300D02*
X15342800Y-6894700D01*
X15342800Y-6954300D02*
X15368200Y-6979700D01*
X15368200Y-6954300D02*
X15342800Y-6979700D01*
X15344800Y-7029800D02*
X15370200Y-7055200D01*
X15370200Y-7029800D02*
X15344800Y-7055200D01*
X15344800Y-7114800D02*
X15370200Y-7140200D01*
X15370200Y-7114800D02*
X15344800Y-7140200D01*
X15357300Y-5499800D02*
X15382700Y-5525200D01*
X15382700Y-5499800D02*
X15357300Y-5525200D01*
X15357300Y-5691300D02*
X15382700Y-5716700D01*
X15382700Y-5691300D02*
X15357300Y-5716700D01*
X15357300Y-5889800D02*
X15382700Y-5915200D01*
X15382700Y-5889800D02*
X15357300Y-5915200D01*
X15364800Y-7994800D02*
X15390200Y-8020200D01*
X15390200Y-7994800D02*
X15364800Y-8020200D01*
X15364800Y-8384800D02*
X15390200Y-8410200D01*
X15390200Y-8384800D02*
X15364800Y-8410200D01*
X15367300Y-8187300D02*
X15392700Y-8212700D01*
X15392700Y-8187300D02*
X15367300Y-8212700D01*
X15430300Y-6869300D02*
X15455700Y-6894700D01*
X15455700Y-6869300D02*
X15430300Y-6894700D01*
X15430300Y-6954300D02*
X15455700Y-6979700D01*
X15455700Y-6954300D02*
X15430300Y-6979700D01*
X15432300Y-7029800D02*
X15457700Y-7055200D01*
X15457700Y-7029800D02*
X15432300Y-7055200D01*
X15432300Y-7114800D02*
X15457700Y-7140200D01*
X15457700Y-7114800D02*
X15432300Y-7140200D01*
X15482300Y-7999800D02*
X15507700Y-8025200D01*
X15507700Y-7999800D02*
X15482300Y-8025200D01*
X15484800Y-5504800D02*
X15510200Y-5530200D01*
X15510200Y-5504800D02*
X15484800Y-5530200D01*
X15484800Y-5692300D02*
X15510200Y-5717700D01*
X15510200Y-5692300D02*
X15484800Y-5717700D01*
X15484800Y-5889800D02*
X15510200Y-5915200D01*
X15510200Y-5889800D02*
X15484800Y-5915200D01*
X15487300Y-8187300D02*
X15512700Y-8212700D01*
X15512700Y-8187300D02*
X15487300Y-8212700D01*
X15492300Y-8384800D02*
X15517700Y-8410200D01*
X15517700Y-8384800D02*
X15492300Y-8410200D01*
X15524800Y-7114800D02*
X15550200Y-7140200D01*
X15550200Y-7114800D02*
X15524800Y-7140200D01*
X15526300Y-6953300D02*
X15551700Y-6978700D01*
X15551700Y-6953300D02*
X15526300Y-6978700D01*
X15527300Y-7029800D02*
X15552700Y-7055200D01*
X15552700Y-7029800D02*
X15527300Y-7055200D01*
X15619800Y-7114800D02*
X15645200Y-7140200D01*
X15645200Y-7114800D02*
X15619800Y-7140200D01*
X15622300Y-7029800D02*
X15647700Y-7055200D01*
X15647700Y-7029800D02*
X15622300Y-7055200D01*
X15714800Y-7112300D02*
X15740200Y-7137700D01*
X15740200Y-7112300D02*
X15714800Y-7137700D01*
X16147300Y-6059800D02*
X16172700Y-6085200D01*
X16172700Y-6059800D02*
X16147300Y-6085200D01*
X16154800Y-8554800D02*
X16180200Y-8580200D01*
X16180200Y-8554800D02*
X16154800Y-8580200D01*
X16785000Y-6392500D02*
G75*
G02*
X16725000Y-6392500I-30000J0D01*
G01*
X16725000Y-6392500D02*
G75*
G02*
X16785000Y-6392500I30000J0D01*
G01*
X16785000Y-6517500D02*
G75*
G02*
X16725000Y-6517500I-30000J0D01*
G01*
X16725000Y-6517500D02*
G75*
G02*
X16785000Y-6517500I30000J0D01*
G01*
X16785000Y-6642500D02*
G75*
G02*
X16725000Y-6642500I-30000J0D01*
G01*
X16725000Y-6642500D02*
G75*
G02*
X16785000Y-6642500I30000J0D01*
G01*
X16785000Y-6767500D02*
G75*
G02*
X16725000Y-6767500I-30000J0D01*
G01*
X16725000Y-6767500D02*
G75*
G02*
X16785000Y-6767500I30000J0D01*
G01*
X16785000Y-6892500D02*
G75*
G02*
X16725000Y-6892500I-30000J0D01*
G01*
X16725000Y-6892500D02*
G75*
G02*
X16785000Y-6892500I30000J0D01*
G01*
X16785000Y-7017500D02*
G75*
G02*
X16725000Y-7017500I-30000J0D01*
G01*
X16725000Y-7017500D02*
G75*
G02*
X16785000Y-7017500I30000J0D01*
G01*
X12978000Y-6680000D02*
X12978000Y-6760000D01*
X12938000Y-6720000D02*
X13018000Y-6720000D01*
X12978000Y-6934000D02*
X12978000Y-7014000D01*
X12938000Y-6974000D02*
X13018000Y-6974000D01*
X12978000Y-7188000D02*
X12978000Y-7268000D01*
X12938000Y-7228000D02*
X13018000Y-7228000D01*
X12978000Y-7442000D02*
X12978000Y-7522000D01*
X12938000Y-7482000D02*
X13018000Y-7482000D01*
X13740000Y-6680000D02*
X13740000Y-6760000D01*
X13700000Y-6720000D02*
X13780000Y-6720000D01*
X13740000Y-6934000D02*
X13740000Y-7014000D01*
X13700000Y-6974000D02*
X13780000Y-6974000D01*
X13740000Y-7188000D02*
X13740000Y-7268000D01*
X13700000Y-7228000D02*
X13780000Y-7228000D01*
X13740000Y-7442000D02*
X13740000Y-7522000D01*
X13700000Y-7482000D02*
X13780000Y-7482000D01*
D13*
X13264069Y-8241569D02*
X13264069Y-8128431D01*
X13150931Y-8128431D01*
X13150931Y-8241569D01*
X13264069Y-8241569D01*
X13264069Y-8941569D02*
X13264069Y-8828431D01*
X13150931Y-8828431D01*
X13150931Y-8941569D01*
X13264069Y-8941569D01*
X13871569Y-8241569D02*
X13871569Y-8128431D01*
X13758431Y-8128431D01*
X13758431Y-8241569D01*
X13871569Y-8241569D01*
X13871569Y-8941569D02*
X13871569Y-8828431D01*
X13758431Y-8828431D01*
X13758431Y-8941569D01*
X13871569Y-8941569D01*
X16756569Y-5199069D02*
X16756569Y-5085931D01*
X16643431Y-5085931D01*
X16643431Y-5199069D01*
X16756569Y-5199069D01*
X16756569Y-5899069D02*
X16756569Y-5785931D01*
X16643431Y-5785931D01*
X16643431Y-5899069D01*
X16756569Y-5899069D01*
X16764069Y-4426569D02*
X16764069Y-4313431D01*
X16650931Y-4313431D01*
X16650931Y-4426569D01*
X16764069Y-4426569D01*
X16764069Y-7694069D02*
X16764069Y-7580931D01*
X16650931Y-7580931D01*
X16650931Y-7694069D01*
X16764069Y-7694069D01*
X16764069Y-8394069D02*
X16764069Y-8280931D01*
X16650931Y-8280931D01*
X16650931Y-8394069D01*
X16764069Y-8394069D01*
D14*
X12427500Y-8455000D02*
X12647500Y-8235000D01*
X12427500Y-8015000D01*
X12207500Y-8235000D01*
X12427500Y-8455000D01*
X12427500Y-9855000D02*
X12647500Y-9635000D01*
X12427500Y-9415000D01*
X12207500Y-9635000D01*
X12427500Y-9855000D01*
X12480000Y-4747500D02*
X12700000Y-4527500D01*
X12480000Y-4307500D01*
X12260000Y-4527500D01*
X12480000Y-4747500D01*
X12480000Y-6147500D02*
X12700000Y-5927500D01*
X12480000Y-5707500D01*
X12260000Y-5927500D01*
X12480000Y-6147500D01*
D11*
X11539872Y-10870889D02*
X11539872Y-10670889D01*
X11539872Y-10670889D02*
X11587491Y-10670889D01*
X11587491Y-10670889D02*
X11616062Y-10680413D01*
X11616062Y-10680413D02*
X11635110Y-10699460D01*
X11635110Y-10699460D02*
X11644634Y-10718508D01*
X11644634Y-10718508D02*
X11654157Y-10756603D01*
X11654157Y-10756603D02*
X11654157Y-10785175D01*
X11654157Y-10785175D02*
X11644634Y-10823270D01*
X11644634Y-10823270D02*
X11635110Y-10842317D01*
X11635110Y-10842317D02*
X11616062Y-10861365D01*
X11616062Y-10861365D02*
X11587491Y-10870889D01*
X11587491Y-10870889D02*
X11539872Y-10870889D01*
X11739872Y-10870889D02*
X11739872Y-10737555D01*
X11739872Y-10775651D02*
X11749396Y-10756603D01*
X11749396Y-10756603D02*
X11758919Y-10747079D01*
X11758919Y-10747079D02*
X11777967Y-10737555D01*
X11777967Y-10737555D02*
X11797015Y-10737555D01*
X11863681Y-10870889D02*
X11863681Y-10737555D01*
X11863681Y-10670889D02*
X11854157Y-10680413D01*
X11854157Y-10680413D02*
X11863681Y-10689936D01*
X11863681Y-10689936D02*
X11873205Y-10680413D01*
X11873205Y-10680413D02*
X11863681Y-10670889D01*
X11863681Y-10670889D02*
X11863681Y-10689936D01*
X11987491Y-10870889D02*
X11968443Y-10861365D01*
X11968443Y-10861365D02*
X11958919Y-10842317D01*
X11958919Y-10842317D02*
X11958919Y-10670889D01*
X12092253Y-10870889D02*
X12073205Y-10861365D01*
X12073205Y-10861365D02*
X12063681Y-10842317D01*
X12063681Y-10842317D02*
X12063681Y-10670889D01*
X12320824Y-10870889D02*
X12320824Y-10670889D01*
X12320824Y-10670889D02*
X12387491Y-10813746D01*
X12387491Y-10813746D02*
X12454157Y-10670889D01*
X12454157Y-10670889D02*
X12454157Y-10870889D01*
X12635110Y-10870889D02*
X12635110Y-10766127D01*
X12635110Y-10766127D02*
X12625586Y-10747079D01*
X12625586Y-10747079D02*
X12606538Y-10737555D01*
X12606538Y-10737555D02*
X12568443Y-10737555D01*
X12568443Y-10737555D02*
X12549396Y-10747079D01*
X12635110Y-10861365D02*
X12616062Y-10870889D01*
X12616062Y-10870889D02*
X12568443Y-10870889D01*
X12568443Y-10870889D02*
X12549396Y-10861365D01*
X12549396Y-10861365D02*
X12539872Y-10842317D01*
X12539872Y-10842317D02*
X12539872Y-10823270D01*
X12539872Y-10823270D02*
X12549396Y-10804222D01*
X12549396Y-10804222D02*
X12568443Y-10794698D01*
X12568443Y-10794698D02*
X12616062Y-10794698D01*
X12616062Y-10794698D02*
X12635110Y-10785175D01*
X12730348Y-10737555D02*
X12730348Y-10937555D01*
X12730348Y-10747079D02*
X12749396Y-10737555D01*
X12749396Y-10737555D02*
X12787491Y-10737555D01*
X12787491Y-10737555D02*
X12806538Y-10747079D01*
X12806538Y-10747079D02*
X12816062Y-10756603D01*
X12816062Y-10756603D02*
X12825586Y-10775651D01*
X12825586Y-10775651D02*
X12825586Y-10832794D01*
X12825586Y-10832794D02*
X12816062Y-10851841D01*
X12816062Y-10851841D02*
X12806538Y-10861365D01*
X12806538Y-10861365D02*
X12787491Y-10870889D01*
X12787491Y-10870889D02*
X12749396Y-10870889D01*
X12749396Y-10870889D02*
X12730348Y-10861365D01*
X12911300Y-10851841D02*
X12920824Y-10861365D01*
X12920824Y-10861365D02*
X12911300Y-10870889D01*
X12911300Y-10870889D02*
X12901777Y-10861365D01*
X12901777Y-10861365D02*
X12911300Y-10851841D01*
X12911300Y-10851841D02*
X12911300Y-10870889D01*
X12911300Y-10747079D02*
X12920824Y-10756603D01*
X12920824Y-10756603D02*
X12911300Y-10766127D01*
X12911300Y-10766127D02*
X12901777Y-10756603D01*
X12901777Y-10756603D02*
X12911300Y-10747079D01*
X12911300Y-10747079D02*
X12911300Y-10766127D01*
D12*
X11253695Y-11186705D02*
X11279095Y-11212105D01*
X11279095Y-11186705D02*
X11253695Y-11212105D01*
D11*
X11577967Y-11090889D02*
X11597015Y-11090889D01*
X11597015Y-11090889D02*
X11616062Y-11100413D01*
X11616062Y-11100413D02*
X11625586Y-11109936D01*
X11625586Y-11109936D02*
X11635110Y-11128984D01*
X11635110Y-11128984D02*
X11644634Y-11167079D01*
X11644634Y-11167079D02*
X11644634Y-11214698D01*
X11644634Y-11214698D02*
X11635110Y-11252793D01*
X11635110Y-11252793D02*
X11625586Y-11271841D01*
X11625586Y-11271841D02*
X11616062Y-11281365D01*
X11616062Y-11281365D02*
X11597015Y-11290889D01*
X11597015Y-11290889D02*
X11577967Y-11290889D01*
X11577967Y-11290889D02*
X11558919Y-11281365D01*
X11558919Y-11281365D02*
X11549396Y-11271841D01*
X11549396Y-11271841D02*
X11539872Y-11252793D01*
X11539872Y-11252793D02*
X11530348Y-11214698D01*
X11530348Y-11214698D02*
X11530348Y-11167079D01*
X11530348Y-11167079D02*
X11539872Y-11128984D01*
X11539872Y-11128984D02*
X11549396Y-11109936D01*
X11549396Y-11109936D02*
X11558919Y-11100413D01*
X11558919Y-11100413D02*
X11577967Y-11090889D01*
X11730348Y-11271841D02*
X11739872Y-11281365D01*
X11739872Y-11281365D02*
X11730348Y-11290889D01*
X11730348Y-11290889D02*
X11720824Y-11281365D01*
X11720824Y-11281365D02*
X11730348Y-11271841D01*
X11730348Y-11271841D02*
X11730348Y-11290889D01*
X11816062Y-11109936D02*
X11825586Y-11100413D01*
X11825586Y-11100413D02*
X11844634Y-11090889D01*
X11844634Y-11090889D02*
X11892253Y-11090889D01*
X11892253Y-11090889D02*
X11911300Y-11100413D01*
X11911300Y-11100413D02*
X11920824Y-11109936D01*
X11920824Y-11109936D02*
X11930348Y-11128984D01*
X11930348Y-11128984D02*
X11930348Y-11148032D01*
X11930348Y-11148032D02*
X11920824Y-11176603D01*
X11920824Y-11176603D02*
X11806538Y-11290889D01*
X11806538Y-11290889D02*
X11930348Y-11290889D01*
X12111300Y-11090889D02*
X12016062Y-11090889D01*
X12016062Y-11090889D02*
X12006538Y-11186127D01*
X12006538Y-11186127D02*
X12016062Y-11176603D01*
X12016062Y-11176603D02*
X12035110Y-11167079D01*
X12035110Y-11167079D02*
X12082729Y-11167079D01*
X12082729Y-11167079D02*
X12101777Y-11176603D01*
X12101777Y-11176603D02*
X12111300Y-11186127D01*
X12111300Y-11186127D02*
X12120824Y-11205174D01*
X12120824Y-11205174D02*
X12120824Y-11252793D01*
X12120824Y-11252793D02*
X12111300Y-11271841D01*
X12111300Y-11271841D02*
X12101777Y-11281365D01*
X12101777Y-11281365D02*
X12082729Y-11290889D01*
X12082729Y-11290889D02*
X12035110Y-11290889D01*
X12035110Y-11290889D02*
X12016062Y-11281365D01*
X12016062Y-11281365D02*
X12006538Y-11271841D01*
X12292253Y-11157555D02*
X12292253Y-11290889D01*
X12244634Y-11081365D02*
X12197015Y-11224222D01*
X12197015Y-11224222D02*
X12320824Y-11224222D01*
X12397015Y-11290889D02*
X12397015Y-11157555D01*
X12397015Y-11176603D02*
X12406538Y-11167079D01*
X12406538Y-11167079D02*
X12425586Y-11157555D01*
X12425586Y-11157555D02*
X12454158Y-11157555D01*
X12454158Y-11157555D02*
X12473205Y-11167079D01*
X12473205Y-11167079D02*
X12482729Y-11186127D01*
X12482729Y-11186127D02*
X12482729Y-11290889D01*
X12482729Y-11186127D02*
X12492253Y-11167079D01*
X12492253Y-11167079D02*
X12511300Y-11157555D01*
X12511300Y-11157555D02*
X12539872Y-11157555D01*
X12539872Y-11157555D02*
X12558919Y-11167079D01*
X12558919Y-11167079D02*
X12568443Y-11186127D01*
X12568443Y-11186127D02*
X12568443Y-11290889D01*
X12663681Y-11290889D02*
X12663681Y-11157555D01*
X12663681Y-11176603D02*
X12673205Y-11167079D01*
X12673205Y-11167079D02*
X12692253Y-11157555D01*
X12692253Y-11157555D02*
X12720824Y-11157555D01*
X12720824Y-11157555D02*
X12739872Y-11167079D01*
X12739872Y-11167079D02*
X12749396Y-11186127D01*
X12749396Y-11186127D02*
X12749396Y-11290889D01*
X12749396Y-11186127D02*
X12758919Y-11167079D01*
X12758919Y-11167079D02*
X12777967Y-11157555D01*
X12777967Y-11157555D02*
X12806538Y-11157555D01*
X12806538Y-11157555D02*
X12825586Y-11167079D01*
X12825586Y-11167079D02*
X12835110Y-11186127D01*
X12835110Y-11186127D02*
X12835110Y-11290889D01*
X13225586Y-11081365D02*
X13054158Y-11338508D01*
X13482729Y-11090889D02*
X13501777Y-11090889D01*
X13501777Y-11090889D02*
X13520824Y-11100413D01*
X13520824Y-11100413D02*
X13530348Y-11109936D01*
X13530348Y-11109936D02*
X13539872Y-11128984D01*
X13539872Y-11128984D02*
X13549396Y-11167079D01*
X13549396Y-11167079D02*
X13549396Y-11214698D01*
X13549396Y-11214698D02*
X13539872Y-11252793D01*
X13539872Y-11252793D02*
X13530348Y-11271841D01*
X13530348Y-11271841D02*
X13520824Y-11281365D01*
X13520824Y-11281365D02*
X13501777Y-11290889D01*
X13501777Y-11290889D02*
X13482729Y-11290889D01*
X13482729Y-11290889D02*
X13463681Y-11281365D01*
X13463681Y-11281365D02*
X13454158Y-11271841D01*
X13454158Y-11271841D02*
X13444634Y-11252793D01*
X13444634Y-11252793D02*
X13435110Y-11214698D01*
X13435110Y-11214698D02*
X13435110Y-11167079D01*
X13435110Y-11167079D02*
X13444634Y-11128984D01*
X13444634Y-11128984D02*
X13454158Y-11109936D01*
X13454158Y-11109936D02*
X13463681Y-11100413D01*
X13463681Y-11100413D02*
X13482729Y-11090889D01*
X13635110Y-11271841D02*
X13644634Y-11281365D01*
X13644634Y-11281365D02*
X13635110Y-11290889D01*
X13635110Y-11290889D02*
X13625586Y-11281365D01*
X13625586Y-11281365D02*
X13635110Y-11271841D01*
X13635110Y-11271841D02*
X13635110Y-11290889D01*
X13768443Y-11090889D02*
X13787491Y-11090889D01*
X13787491Y-11090889D02*
X13806539Y-11100413D01*
X13806539Y-11100413D02*
X13816062Y-11109936D01*
X13816062Y-11109936D02*
X13825586Y-11128984D01*
X13825586Y-11128984D02*
X13835110Y-11167079D01*
X13835110Y-11167079D02*
X13835110Y-11214698D01*
X13835110Y-11214698D02*
X13825586Y-11252793D01*
X13825586Y-11252793D02*
X13816062Y-11271841D01*
X13816062Y-11271841D02*
X13806539Y-11281365D01*
X13806539Y-11281365D02*
X13787491Y-11290889D01*
X13787491Y-11290889D02*
X13768443Y-11290889D01*
X13768443Y-11290889D02*
X13749396Y-11281365D01*
X13749396Y-11281365D02*
X13739872Y-11271841D01*
X13739872Y-11271841D02*
X13730348Y-11252793D01*
X13730348Y-11252793D02*
X13720824Y-11214698D01*
X13720824Y-11214698D02*
X13720824Y-11167079D01*
X13720824Y-11167079D02*
X13730348Y-11128984D01*
X13730348Y-11128984D02*
X13739872Y-11109936D01*
X13739872Y-11109936D02*
X13749396Y-11100413D01*
X13749396Y-11100413D02*
X13768443Y-11090889D01*
X14025586Y-11290889D02*
X13911301Y-11290889D01*
X13968443Y-11290889D02*
X13968443Y-11090889D01*
X13968443Y-11090889D02*
X13949396Y-11119460D01*
X13949396Y-11119460D02*
X13930348Y-11138508D01*
X13930348Y-11138508D02*
X13911301Y-11148032D01*
X14149396Y-11090889D02*
X14168443Y-11090889D01*
X14168443Y-11090889D02*
X14187491Y-11100413D01*
X14187491Y-11100413D02*
X14197015Y-11109936D01*
X14197015Y-11109936D02*
X14206539Y-11128984D01*
X14206539Y-11128984D02*
X14216062Y-11167079D01*
X14216062Y-11167079D02*
X14216062Y-11214698D01*
X14216062Y-11214698D02*
X14206539Y-11252793D01*
X14206539Y-11252793D02*
X14197015Y-11271841D01*
X14197015Y-11271841D02*
X14187491Y-11281365D01*
X14187491Y-11281365D02*
X14168443Y-11290889D01*
X14168443Y-11290889D02*
X14149396Y-11290889D01*
X14149396Y-11290889D02*
X14130348Y-11281365D01*
X14130348Y-11281365D02*
X14120824Y-11271841D01*
X14120824Y-11271841D02*
X14111301Y-11252793D01*
X14111301Y-11252793D02*
X14101777Y-11214698D01*
X14101777Y-11214698D02*
X14101777Y-11167079D01*
X14101777Y-11167079D02*
X14111301Y-11128984D01*
X14111301Y-11128984D02*
X14120824Y-11109936D01*
X14120824Y-11109936D02*
X14130348Y-11100413D01*
X14130348Y-11100413D02*
X14149396Y-11090889D01*
X14339872Y-11090889D02*
X14358920Y-11090889D01*
X14358920Y-11090889D02*
X14377967Y-11100413D01*
X14377967Y-11100413D02*
X14387491Y-11109936D01*
X14387491Y-11109936D02*
X14397015Y-11128984D01*
X14397015Y-11128984D02*
X14406539Y-11167079D01*
X14406539Y-11167079D02*
X14406539Y-11214698D01*
X14406539Y-11214698D02*
X14397015Y-11252793D01*
X14397015Y-11252793D02*
X14387491Y-11271841D01*
X14387491Y-11271841D02*
X14377967Y-11281365D01*
X14377967Y-11281365D02*
X14358920Y-11290889D01*
X14358920Y-11290889D02*
X14339872Y-11290889D01*
X14339872Y-11290889D02*
X14320824Y-11281365D01*
X14320824Y-11281365D02*
X14311301Y-11271841D01*
X14311301Y-11271841D02*
X14301777Y-11252793D01*
X14301777Y-11252793D02*
X14292253Y-11214698D01*
X14292253Y-11214698D02*
X14292253Y-11167079D01*
X14292253Y-11167079D02*
X14301777Y-11128984D01*
X14301777Y-11128984D02*
X14311301Y-11109936D01*
X14311301Y-11109936D02*
X14320824Y-11100413D01*
X14320824Y-11100413D02*
X14339872Y-11090889D01*
X14482729Y-11090889D02*
X14482729Y-11128984D01*
X14558920Y-11090889D02*
X14558920Y-11128984D01*
X14854158Y-11367079D02*
X14844634Y-11357555D01*
X14844634Y-11357555D02*
X14825586Y-11328984D01*
X14825586Y-11328984D02*
X14816063Y-11309936D01*
X14816063Y-11309936D02*
X14806539Y-11281365D01*
X14806539Y-11281365D02*
X14797015Y-11233746D01*
X14797015Y-11233746D02*
X14797015Y-11195651D01*
X14797015Y-11195651D02*
X14806539Y-11148032D01*
X14806539Y-11148032D02*
X14816063Y-11119460D01*
X14816063Y-11119460D02*
X14825586Y-11100413D01*
X14825586Y-11100413D02*
X14844634Y-11071841D01*
X14844634Y-11071841D02*
X14854158Y-11062317D01*
X15016063Y-11090889D02*
X14977967Y-11090889D01*
X14977967Y-11090889D02*
X14958920Y-11100413D01*
X14958920Y-11100413D02*
X14949396Y-11109936D01*
X14949396Y-11109936D02*
X14930348Y-11138508D01*
X14930348Y-11138508D02*
X14920824Y-11176603D01*
X14920824Y-11176603D02*
X14920824Y-11252793D01*
X14920824Y-11252793D02*
X14930348Y-11271841D01*
X14930348Y-11271841D02*
X14939872Y-11281365D01*
X14939872Y-11281365D02*
X14958920Y-11290889D01*
X14958920Y-11290889D02*
X14997015Y-11290889D01*
X14997015Y-11290889D02*
X15016063Y-11281365D01*
X15016063Y-11281365D02*
X15025586Y-11271841D01*
X15025586Y-11271841D02*
X15035110Y-11252793D01*
X15035110Y-11252793D02*
X15035110Y-11205174D01*
X15035110Y-11205174D02*
X15025586Y-11186127D01*
X15025586Y-11186127D02*
X15016063Y-11176603D01*
X15016063Y-11176603D02*
X14997015Y-11167079D01*
X14997015Y-11167079D02*
X14958920Y-11167079D01*
X14958920Y-11167079D02*
X14939872Y-11176603D01*
X14939872Y-11176603D02*
X14930348Y-11186127D01*
X14930348Y-11186127D02*
X14920824Y-11205174D01*
X15225586Y-11290889D02*
X15111301Y-11290889D01*
X15168443Y-11290889D02*
X15168443Y-11090889D01*
X15168443Y-11090889D02*
X15149396Y-11119460D01*
X15149396Y-11119460D02*
X15130348Y-11138508D01*
X15130348Y-11138508D02*
X15111301Y-11148032D01*
X15463682Y-11290889D02*
X15463682Y-11090889D01*
X15549396Y-11290889D02*
X15549396Y-11186127D01*
X15549396Y-11186127D02*
X15539872Y-11167079D01*
X15539872Y-11167079D02*
X15520825Y-11157555D01*
X15520825Y-11157555D02*
X15492253Y-11157555D01*
X15492253Y-11157555D02*
X15473205Y-11167079D01*
X15473205Y-11167079D02*
X15463682Y-11176603D01*
X15673205Y-11290889D02*
X15654158Y-11281365D01*
X15654158Y-11281365D02*
X15644634Y-11271841D01*
X15644634Y-11271841D02*
X15635110Y-11252793D01*
X15635110Y-11252793D02*
X15635110Y-11195651D01*
X15635110Y-11195651D02*
X15644634Y-11176603D01*
X15644634Y-11176603D02*
X15654158Y-11167079D01*
X15654158Y-11167079D02*
X15673205Y-11157555D01*
X15673205Y-11157555D02*
X15701777Y-11157555D01*
X15701777Y-11157555D02*
X15720825Y-11167079D01*
X15720825Y-11167079D02*
X15730348Y-11176603D01*
X15730348Y-11176603D02*
X15739872Y-11195651D01*
X15739872Y-11195651D02*
X15739872Y-11252793D01*
X15739872Y-11252793D02*
X15730348Y-11271841D01*
X15730348Y-11271841D02*
X15720825Y-11281365D01*
X15720825Y-11281365D02*
X15701777Y-11290889D01*
X15701777Y-11290889D02*
X15673205Y-11290889D01*
X15854158Y-11290889D02*
X15835110Y-11281365D01*
X15835110Y-11281365D02*
X15825586Y-11262317D01*
X15825586Y-11262317D02*
X15825586Y-11090889D01*
X16006539Y-11281365D02*
X15987491Y-11290889D01*
X15987491Y-11290889D02*
X15949396Y-11290889D01*
X15949396Y-11290889D02*
X15930348Y-11281365D01*
X15930348Y-11281365D02*
X15920825Y-11262317D01*
X15920825Y-11262317D02*
X15920825Y-11186127D01*
X15920825Y-11186127D02*
X15930348Y-11167079D01*
X15930348Y-11167079D02*
X15949396Y-11157555D01*
X15949396Y-11157555D02*
X15987491Y-11157555D01*
X15987491Y-11157555D02*
X16006539Y-11167079D01*
X16006539Y-11167079D02*
X16016063Y-11186127D01*
X16016063Y-11186127D02*
X16016063Y-11205174D01*
X16016063Y-11205174D02*
X15920825Y-11224222D01*
X16092253Y-11281365D02*
X16111301Y-11290889D01*
X16111301Y-11290889D02*
X16149396Y-11290889D01*
X16149396Y-11290889D02*
X16168444Y-11281365D01*
X16168444Y-11281365D02*
X16177967Y-11262317D01*
X16177967Y-11262317D02*
X16177967Y-11252793D01*
X16177967Y-11252793D02*
X16168444Y-11233746D01*
X16168444Y-11233746D02*
X16149396Y-11224222D01*
X16149396Y-11224222D02*
X16120825Y-11224222D01*
X16120825Y-11224222D02*
X16101777Y-11214698D01*
X16101777Y-11214698D02*
X16092253Y-11195651D01*
X16092253Y-11195651D02*
X16092253Y-11186127D01*
X16092253Y-11186127D02*
X16101777Y-11167079D01*
X16101777Y-11167079D02*
X16120825Y-11157555D01*
X16120825Y-11157555D02*
X16149396Y-11157555D01*
X16149396Y-11157555D02*
X16168444Y-11167079D01*
X16244634Y-11367079D02*
X16254158Y-11357555D01*
X16254158Y-11357555D02*
X16273206Y-11328984D01*
X16273206Y-11328984D02*
X16282729Y-11309936D01*
X16282729Y-11309936D02*
X16292253Y-11281365D01*
X16292253Y-11281365D02*
X16301777Y-11233746D01*
X16301777Y-11233746D02*
X16301777Y-11195651D01*
X16301777Y-11195651D02*
X16292253Y-11148032D01*
X16292253Y-11148032D02*
X16282729Y-11119460D01*
X16282729Y-11119460D02*
X16273206Y-11100413D01*
X16273206Y-11100413D02*
X16254158Y-11071841D01*
X16254158Y-11071841D02*
X16244634Y-11062317D01*
D12*
X11279095Y-11463405D02*
G75*
G02*
X11219095Y-11463405I-30000J0D01*
G01*
X11219095Y-11463405D02*
G75*
G02*
X11279095Y-11463405I30000J0D01*
G01*
D11*
X11577967Y-11354889D02*
X11597015Y-11354889D01*
X11597015Y-11354889D02*
X11616062Y-11364413D01*
X11616062Y-11364413D02*
X11625586Y-11373936D01*
X11625586Y-11373936D02*
X11635110Y-11392984D01*
X11635110Y-11392984D02*
X11644634Y-11431079D01*
X11644634Y-11431079D02*
X11644634Y-11478698D01*
X11644634Y-11478698D02*
X11635110Y-11516793D01*
X11635110Y-11516793D02*
X11625586Y-11535841D01*
X11625586Y-11535841D02*
X11616062Y-11545365D01*
X11616062Y-11545365D02*
X11597015Y-11554889D01*
X11597015Y-11554889D02*
X11577967Y-11554889D01*
X11577967Y-11554889D02*
X11558919Y-11545365D01*
X11558919Y-11545365D02*
X11549396Y-11535841D01*
X11549396Y-11535841D02*
X11539872Y-11516793D01*
X11539872Y-11516793D02*
X11530348Y-11478698D01*
X11530348Y-11478698D02*
X11530348Y-11431079D01*
X11530348Y-11431079D02*
X11539872Y-11392984D01*
X11539872Y-11392984D02*
X11549396Y-11373936D01*
X11549396Y-11373936D02*
X11558919Y-11364413D01*
X11558919Y-11364413D02*
X11577967Y-11354889D01*
X11730348Y-11535841D02*
X11739872Y-11545365D01*
X11739872Y-11545365D02*
X11730348Y-11554889D01*
X11730348Y-11554889D02*
X11720824Y-11545365D01*
X11720824Y-11545365D02*
X11730348Y-11535841D01*
X11730348Y-11535841D02*
X11730348Y-11554889D01*
X11911300Y-11354889D02*
X11873205Y-11354889D01*
X11873205Y-11354889D02*
X11854157Y-11364413D01*
X11854157Y-11364413D02*
X11844634Y-11373936D01*
X11844634Y-11373936D02*
X11825586Y-11402508D01*
X11825586Y-11402508D02*
X11816062Y-11440603D01*
X11816062Y-11440603D02*
X11816062Y-11516793D01*
X11816062Y-11516793D02*
X11825586Y-11535841D01*
X11825586Y-11535841D02*
X11835110Y-11545365D01*
X11835110Y-11545365D02*
X11854157Y-11554889D01*
X11854157Y-11554889D02*
X11892253Y-11554889D01*
X11892253Y-11554889D02*
X11911300Y-11545365D01*
X11911300Y-11545365D02*
X11920824Y-11535841D01*
X11920824Y-11535841D02*
X11930348Y-11516793D01*
X11930348Y-11516793D02*
X11930348Y-11469174D01*
X11930348Y-11469174D02*
X11920824Y-11450127D01*
X11920824Y-11450127D02*
X11911300Y-11440603D01*
X11911300Y-11440603D02*
X11892253Y-11431079D01*
X11892253Y-11431079D02*
X11854157Y-11431079D01*
X11854157Y-11431079D02*
X11835110Y-11440603D01*
X11835110Y-11440603D02*
X11825586Y-11450127D01*
X11825586Y-11450127D02*
X11816062Y-11469174D01*
X12054157Y-11354889D02*
X12073205Y-11354889D01*
X12073205Y-11354889D02*
X12092253Y-11364413D01*
X12092253Y-11364413D02*
X12101777Y-11373936D01*
X12101777Y-11373936D02*
X12111300Y-11392984D01*
X12111300Y-11392984D02*
X12120824Y-11431079D01*
X12120824Y-11431079D02*
X12120824Y-11478698D01*
X12120824Y-11478698D02*
X12111300Y-11516793D01*
X12111300Y-11516793D02*
X12101777Y-11535841D01*
X12101777Y-11535841D02*
X12092253Y-11545365D01*
X12092253Y-11545365D02*
X12073205Y-11554889D01*
X12073205Y-11554889D02*
X12054157Y-11554889D01*
X12054157Y-11554889D02*
X12035110Y-11545365D01*
X12035110Y-11545365D02*
X12025586Y-11535841D01*
X12025586Y-11535841D02*
X12016062Y-11516793D01*
X12016062Y-11516793D02*
X12006538Y-11478698D01*
X12006538Y-11478698D02*
X12006538Y-11431079D01*
X12006538Y-11431079D02*
X12016062Y-11392984D01*
X12016062Y-11392984D02*
X12025586Y-11373936D01*
X12025586Y-11373936D02*
X12035110Y-11364413D01*
X12035110Y-11364413D02*
X12054157Y-11354889D01*
X12244634Y-11354889D02*
X12263681Y-11354889D01*
X12263681Y-11354889D02*
X12282729Y-11364413D01*
X12282729Y-11364413D02*
X12292253Y-11373936D01*
X12292253Y-11373936D02*
X12301777Y-11392984D01*
X12301777Y-11392984D02*
X12311300Y-11431079D01*
X12311300Y-11431079D02*
X12311300Y-11478698D01*
X12311300Y-11478698D02*
X12301777Y-11516793D01*
X12301777Y-11516793D02*
X12292253Y-11535841D01*
X12292253Y-11535841D02*
X12282729Y-11545365D01*
X12282729Y-11545365D02*
X12263681Y-11554889D01*
X12263681Y-11554889D02*
X12244634Y-11554889D01*
X12244634Y-11554889D02*
X12225586Y-11545365D01*
X12225586Y-11545365D02*
X12216062Y-11535841D01*
X12216062Y-11535841D02*
X12206538Y-11516793D01*
X12206538Y-11516793D02*
X12197015Y-11478698D01*
X12197015Y-11478698D02*
X12197015Y-11431079D01*
X12197015Y-11431079D02*
X12206538Y-11392984D01*
X12206538Y-11392984D02*
X12216062Y-11373936D01*
X12216062Y-11373936D02*
X12225586Y-11364413D01*
X12225586Y-11364413D02*
X12244634Y-11354889D01*
X12397015Y-11554889D02*
X12397015Y-11421555D01*
X12397015Y-11440603D02*
X12406538Y-11431079D01*
X12406538Y-11431079D02*
X12425586Y-11421555D01*
X12425586Y-11421555D02*
X12454158Y-11421555D01*
X12454158Y-11421555D02*
X12473205Y-11431079D01*
X12473205Y-11431079D02*
X12482729Y-11450127D01*
X12482729Y-11450127D02*
X12482729Y-11554889D01*
X12482729Y-11450127D02*
X12492253Y-11431079D01*
X12492253Y-11431079D02*
X12511300Y-11421555D01*
X12511300Y-11421555D02*
X12539872Y-11421555D01*
X12539872Y-11421555D02*
X12558919Y-11431079D01*
X12558919Y-11431079D02*
X12568443Y-11450127D01*
X12568443Y-11450127D02*
X12568443Y-11554889D01*
X12663681Y-11554889D02*
X12663681Y-11421555D01*
X12663681Y-11440603D02*
X12673205Y-11431079D01*
X12673205Y-11431079D02*
X12692253Y-11421555D01*
X12692253Y-11421555D02*
X12720824Y-11421555D01*
X12720824Y-11421555D02*
X12739872Y-11431079D01*
X12739872Y-11431079D02*
X12749396Y-11450127D01*
X12749396Y-11450127D02*
X12749396Y-11554889D01*
X12749396Y-11450127D02*
X12758919Y-11431079D01*
X12758919Y-11431079D02*
X12777967Y-11421555D01*
X12777967Y-11421555D02*
X12806538Y-11421555D01*
X12806538Y-11421555D02*
X12825586Y-11431079D01*
X12825586Y-11431079D02*
X12835110Y-11450127D01*
X12835110Y-11450127D02*
X12835110Y-11554889D01*
X13225586Y-11345365D02*
X13054158Y-11602508D01*
X13482729Y-11354889D02*
X13501777Y-11354889D01*
X13501777Y-11354889D02*
X13520824Y-11364413D01*
X13520824Y-11364413D02*
X13530348Y-11373936D01*
X13530348Y-11373936D02*
X13539872Y-11392984D01*
X13539872Y-11392984D02*
X13549396Y-11431079D01*
X13549396Y-11431079D02*
X13549396Y-11478698D01*
X13549396Y-11478698D02*
X13539872Y-11516793D01*
X13539872Y-11516793D02*
X13530348Y-11535841D01*
X13530348Y-11535841D02*
X13520824Y-11545365D01*
X13520824Y-11545365D02*
X13501777Y-11554889D01*
X13501777Y-11554889D02*
X13482729Y-11554889D01*
X13482729Y-11554889D02*
X13463681Y-11545365D01*
X13463681Y-11545365D02*
X13454158Y-11535841D01*
X13454158Y-11535841D02*
X13444634Y-11516793D01*
X13444634Y-11516793D02*
X13435110Y-11478698D01*
X13435110Y-11478698D02*
X13435110Y-11431079D01*
X13435110Y-11431079D02*
X13444634Y-11392984D01*
X13444634Y-11392984D02*
X13454158Y-11373936D01*
X13454158Y-11373936D02*
X13463681Y-11364413D01*
X13463681Y-11364413D02*
X13482729Y-11354889D01*
X13635110Y-11535841D02*
X13644634Y-11545365D01*
X13644634Y-11545365D02*
X13635110Y-11554889D01*
X13635110Y-11554889D02*
X13625586Y-11545365D01*
X13625586Y-11545365D02*
X13635110Y-11535841D01*
X13635110Y-11535841D02*
X13635110Y-11554889D01*
X13768443Y-11354889D02*
X13787491Y-11354889D01*
X13787491Y-11354889D02*
X13806539Y-11364413D01*
X13806539Y-11364413D02*
X13816062Y-11373936D01*
X13816062Y-11373936D02*
X13825586Y-11392984D01*
X13825586Y-11392984D02*
X13835110Y-11431079D01*
X13835110Y-11431079D02*
X13835110Y-11478698D01*
X13835110Y-11478698D02*
X13825586Y-11516793D01*
X13825586Y-11516793D02*
X13816062Y-11535841D01*
X13816062Y-11535841D02*
X13806539Y-11545365D01*
X13806539Y-11545365D02*
X13787491Y-11554889D01*
X13787491Y-11554889D02*
X13768443Y-11554889D01*
X13768443Y-11554889D02*
X13749396Y-11545365D01*
X13749396Y-11545365D02*
X13739872Y-11535841D01*
X13739872Y-11535841D02*
X13730348Y-11516793D01*
X13730348Y-11516793D02*
X13720824Y-11478698D01*
X13720824Y-11478698D02*
X13720824Y-11431079D01*
X13720824Y-11431079D02*
X13730348Y-11392984D01*
X13730348Y-11392984D02*
X13739872Y-11373936D01*
X13739872Y-11373936D02*
X13749396Y-11364413D01*
X13749396Y-11364413D02*
X13768443Y-11354889D01*
X13911301Y-11373936D02*
X13920824Y-11364413D01*
X13920824Y-11364413D02*
X13939872Y-11354889D01*
X13939872Y-11354889D02*
X13987491Y-11354889D01*
X13987491Y-11354889D02*
X14006539Y-11364413D01*
X14006539Y-11364413D02*
X14016062Y-11373936D01*
X14016062Y-11373936D02*
X14025586Y-11392984D01*
X14025586Y-11392984D02*
X14025586Y-11412032D01*
X14025586Y-11412032D02*
X14016062Y-11440603D01*
X14016062Y-11440603D02*
X13901777Y-11554889D01*
X13901777Y-11554889D02*
X14025586Y-11554889D01*
X14092253Y-11354889D02*
X14216062Y-11354889D01*
X14216062Y-11354889D02*
X14149396Y-11431079D01*
X14149396Y-11431079D02*
X14177967Y-11431079D01*
X14177967Y-11431079D02*
X14197015Y-11440603D01*
X14197015Y-11440603D02*
X14206539Y-11450127D01*
X14206539Y-11450127D02*
X14216062Y-11469174D01*
X14216062Y-11469174D02*
X14216062Y-11516793D01*
X14216062Y-11516793D02*
X14206539Y-11535841D01*
X14206539Y-11535841D02*
X14197015Y-11545365D01*
X14197015Y-11545365D02*
X14177967Y-11554889D01*
X14177967Y-11554889D02*
X14120824Y-11554889D01*
X14120824Y-11554889D02*
X14101777Y-11545365D01*
X14101777Y-11545365D02*
X14092253Y-11535841D01*
X14387491Y-11354889D02*
X14349396Y-11354889D01*
X14349396Y-11354889D02*
X14330348Y-11364413D01*
X14330348Y-11364413D02*
X14320824Y-11373936D01*
X14320824Y-11373936D02*
X14301777Y-11402508D01*
X14301777Y-11402508D02*
X14292253Y-11440603D01*
X14292253Y-11440603D02*
X14292253Y-11516793D01*
X14292253Y-11516793D02*
X14301777Y-11535841D01*
X14301777Y-11535841D02*
X14311301Y-11545365D01*
X14311301Y-11545365D02*
X14330348Y-11554889D01*
X14330348Y-11554889D02*
X14368443Y-11554889D01*
X14368443Y-11554889D02*
X14387491Y-11545365D01*
X14387491Y-11545365D02*
X14397015Y-11535841D01*
X14397015Y-11535841D02*
X14406539Y-11516793D01*
X14406539Y-11516793D02*
X14406539Y-11469174D01*
X14406539Y-11469174D02*
X14397015Y-11450127D01*
X14397015Y-11450127D02*
X14387491Y-11440603D01*
X14387491Y-11440603D02*
X14368443Y-11431079D01*
X14368443Y-11431079D02*
X14330348Y-11431079D01*
X14330348Y-11431079D02*
X14311301Y-11440603D01*
X14311301Y-11440603D02*
X14301777Y-11450127D01*
X14301777Y-11450127D02*
X14292253Y-11469174D01*
X14482729Y-11354889D02*
X14482729Y-11392984D01*
X14558920Y-11354889D02*
X14558920Y-11392984D01*
X14854158Y-11631079D02*
X14844634Y-11621555D01*
X14844634Y-11621555D02*
X14825586Y-11592984D01*
X14825586Y-11592984D02*
X14816063Y-11573936D01*
X14816063Y-11573936D02*
X14806539Y-11545365D01*
X14806539Y-11545365D02*
X14797015Y-11497746D01*
X14797015Y-11497746D02*
X14797015Y-11459651D01*
X14797015Y-11459651D02*
X14806539Y-11412032D01*
X14806539Y-11412032D02*
X14816063Y-11383460D01*
X14816063Y-11383460D02*
X14825586Y-11364413D01*
X14825586Y-11364413D02*
X14844634Y-11335841D01*
X14844634Y-11335841D02*
X14854158Y-11326317D01*
X15016063Y-11354889D02*
X14977967Y-11354889D01*
X14977967Y-11354889D02*
X14958920Y-11364413D01*
X14958920Y-11364413D02*
X14949396Y-11373936D01*
X14949396Y-11373936D02*
X14930348Y-11402508D01*
X14930348Y-11402508D02*
X14920824Y-11440603D01*
X14920824Y-11440603D02*
X14920824Y-11516793D01*
X14920824Y-11516793D02*
X14930348Y-11535841D01*
X14930348Y-11535841D02*
X14939872Y-11545365D01*
X14939872Y-11545365D02*
X14958920Y-11554889D01*
X14958920Y-11554889D02*
X14997015Y-11554889D01*
X14997015Y-11554889D02*
X15016063Y-11545365D01*
X15016063Y-11545365D02*
X15025586Y-11535841D01*
X15025586Y-11535841D02*
X15035110Y-11516793D01*
X15035110Y-11516793D02*
X15035110Y-11469174D01*
X15035110Y-11469174D02*
X15025586Y-11450127D01*
X15025586Y-11450127D02*
X15016063Y-11440603D01*
X15016063Y-11440603D02*
X14997015Y-11431079D01*
X14997015Y-11431079D02*
X14958920Y-11431079D01*
X14958920Y-11431079D02*
X14939872Y-11440603D01*
X14939872Y-11440603D02*
X14930348Y-11450127D01*
X14930348Y-11450127D02*
X14920824Y-11469174D01*
X15273205Y-11554889D02*
X15273205Y-11354889D01*
X15358920Y-11554889D02*
X15358920Y-11450127D01*
X15358920Y-11450127D02*
X15349396Y-11431079D01*
X15349396Y-11431079D02*
X15330348Y-11421555D01*
X15330348Y-11421555D02*
X15301777Y-11421555D01*
X15301777Y-11421555D02*
X15282729Y-11431079D01*
X15282729Y-11431079D02*
X15273205Y-11440603D01*
X15482729Y-11554889D02*
X15463682Y-11545365D01*
X15463682Y-11545365D02*
X15454158Y-11535841D01*
X15454158Y-11535841D02*
X15444634Y-11516793D01*
X15444634Y-11516793D02*
X15444634Y-11459651D01*
X15444634Y-11459651D02*
X15454158Y-11440603D01*
X15454158Y-11440603D02*
X15463682Y-11431079D01*
X15463682Y-11431079D02*
X15482729Y-11421555D01*
X15482729Y-11421555D02*
X15511301Y-11421555D01*
X15511301Y-11421555D02*
X15530348Y-11431079D01*
X15530348Y-11431079D02*
X15539872Y-11440603D01*
X15539872Y-11440603D02*
X15549396Y-11459651D01*
X15549396Y-11459651D02*
X15549396Y-11516793D01*
X15549396Y-11516793D02*
X15539872Y-11535841D01*
X15539872Y-11535841D02*
X15530348Y-11545365D01*
X15530348Y-11545365D02*
X15511301Y-11554889D01*
X15511301Y-11554889D02*
X15482729Y-11554889D01*
X15663682Y-11554889D02*
X15644634Y-11545365D01*
X15644634Y-11545365D02*
X15635110Y-11526317D01*
X15635110Y-11526317D02*
X15635110Y-11354889D01*
X15816063Y-11545365D02*
X15797015Y-11554889D01*
X15797015Y-11554889D02*
X15758920Y-11554889D01*
X15758920Y-11554889D02*
X15739872Y-11545365D01*
X15739872Y-11545365D02*
X15730348Y-11526317D01*
X15730348Y-11526317D02*
X15730348Y-11450127D01*
X15730348Y-11450127D02*
X15739872Y-11431079D01*
X15739872Y-11431079D02*
X15758920Y-11421555D01*
X15758920Y-11421555D02*
X15797015Y-11421555D01*
X15797015Y-11421555D02*
X15816063Y-11431079D01*
X15816063Y-11431079D02*
X15825586Y-11450127D01*
X15825586Y-11450127D02*
X15825586Y-11469174D01*
X15825586Y-11469174D02*
X15730348Y-11488222D01*
X15901777Y-11545365D02*
X15920825Y-11554889D01*
X15920825Y-11554889D02*
X15958920Y-11554889D01*
X15958920Y-11554889D02*
X15977967Y-11545365D01*
X15977967Y-11545365D02*
X15987491Y-11526317D01*
X15987491Y-11526317D02*
X15987491Y-11516793D01*
X15987491Y-11516793D02*
X15977967Y-11497746D01*
X15977967Y-11497746D02*
X15958920Y-11488222D01*
X15958920Y-11488222D02*
X15930348Y-11488222D01*
X15930348Y-11488222D02*
X15911301Y-11478698D01*
X15911301Y-11478698D02*
X15901777Y-11459651D01*
X15901777Y-11459651D02*
X15901777Y-11450127D01*
X15901777Y-11450127D02*
X15911301Y-11431079D01*
X15911301Y-11431079D02*
X15930348Y-11421555D01*
X15930348Y-11421555D02*
X15958920Y-11421555D01*
X15958920Y-11421555D02*
X15977967Y-11431079D01*
X16054158Y-11631079D02*
X16063682Y-11621555D01*
X16063682Y-11621555D02*
X16082729Y-11592984D01*
X16082729Y-11592984D02*
X16092253Y-11573936D01*
X16092253Y-11573936D02*
X16101777Y-11545365D01*
X16101777Y-11545365D02*
X16111301Y-11497746D01*
X16111301Y-11497746D02*
X16111301Y-11459651D01*
X16111301Y-11459651D02*
X16101777Y-11412032D01*
X16101777Y-11412032D02*
X16092253Y-11383460D01*
X16092253Y-11383460D02*
X16082729Y-11364413D01*
X16082729Y-11364413D02*
X16063682Y-11335841D01*
X16063682Y-11335841D02*
X16054158Y-11326317D01*
D12*
X11239095Y-11687405D02*
X11239095Y-11767405D01*
X11199095Y-11727405D02*
X11279095Y-11727405D01*
D11*
X11577967Y-11618889D02*
X11597015Y-11618889D01*
X11597015Y-11618889D02*
X11616062Y-11628413D01*
X11616062Y-11628413D02*
X11625586Y-11637936D01*
X11625586Y-11637936D02*
X11635110Y-11656984D01*
X11635110Y-11656984D02*
X11644634Y-11695079D01*
X11644634Y-11695079D02*
X11644634Y-11742698D01*
X11644634Y-11742698D02*
X11635110Y-11780793D01*
X11635110Y-11780793D02*
X11625586Y-11799841D01*
X11625586Y-11799841D02*
X11616062Y-11809365D01*
X11616062Y-11809365D02*
X11597015Y-11818889D01*
X11597015Y-11818889D02*
X11577967Y-11818889D01*
X11577967Y-11818889D02*
X11558919Y-11809365D01*
X11558919Y-11809365D02*
X11549396Y-11799841D01*
X11549396Y-11799841D02*
X11539872Y-11780793D01*
X11539872Y-11780793D02*
X11530348Y-11742698D01*
X11530348Y-11742698D02*
X11530348Y-11695079D01*
X11530348Y-11695079D02*
X11539872Y-11656984D01*
X11539872Y-11656984D02*
X11549396Y-11637936D01*
X11549396Y-11637936D02*
X11558919Y-11628413D01*
X11558919Y-11628413D02*
X11577967Y-11618889D01*
X11730348Y-11799841D02*
X11739872Y-11809365D01*
X11739872Y-11809365D02*
X11730348Y-11818889D01*
X11730348Y-11818889D02*
X11720824Y-11809365D01*
X11720824Y-11809365D02*
X11730348Y-11799841D01*
X11730348Y-11799841D02*
X11730348Y-11818889D01*
X11854157Y-11704603D02*
X11835110Y-11695079D01*
X11835110Y-11695079D02*
X11825586Y-11685555D01*
X11825586Y-11685555D02*
X11816062Y-11666508D01*
X11816062Y-11666508D02*
X11816062Y-11656984D01*
X11816062Y-11656984D02*
X11825586Y-11637936D01*
X11825586Y-11637936D02*
X11835110Y-11628413D01*
X11835110Y-11628413D02*
X11854157Y-11618889D01*
X11854157Y-11618889D02*
X11892253Y-11618889D01*
X11892253Y-11618889D02*
X11911300Y-11628413D01*
X11911300Y-11628413D02*
X11920824Y-11637936D01*
X11920824Y-11637936D02*
X11930348Y-11656984D01*
X11930348Y-11656984D02*
X11930348Y-11666508D01*
X11930348Y-11666508D02*
X11920824Y-11685555D01*
X11920824Y-11685555D02*
X11911300Y-11695079D01*
X11911300Y-11695079D02*
X11892253Y-11704603D01*
X11892253Y-11704603D02*
X11854157Y-11704603D01*
X11854157Y-11704603D02*
X11835110Y-11714127D01*
X11835110Y-11714127D02*
X11825586Y-11723651D01*
X11825586Y-11723651D02*
X11816062Y-11742698D01*
X11816062Y-11742698D02*
X11816062Y-11780793D01*
X11816062Y-11780793D02*
X11825586Y-11799841D01*
X11825586Y-11799841D02*
X11835110Y-11809365D01*
X11835110Y-11809365D02*
X11854157Y-11818889D01*
X11854157Y-11818889D02*
X11892253Y-11818889D01*
X11892253Y-11818889D02*
X11911300Y-11809365D01*
X11911300Y-11809365D02*
X11920824Y-11799841D01*
X11920824Y-11799841D02*
X11930348Y-11780793D01*
X11930348Y-11780793D02*
X11930348Y-11742698D01*
X11930348Y-11742698D02*
X11920824Y-11723651D01*
X11920824Y-11723651D02*
X11911300Y-11714127D01*
X11911300Y-11714127D02*
X11892253Y-11704603D01*
X12054157Y-11618889D02*
X12073205Y-11618889D01*
X12073205Y-11618889D02*
X12092253Y-11628413D01*
X12092253Y-11628413D02*
X12101777Y-11637936D01*
X12101777Y-11637936D02*
X12111300Y-11656984D01*
X12111300Y-11656984D02*
X12120824Y-11695079D01*
X12120824Y-11695079D02*
X12120824Y-11742698D01*
X12120824Y-11742698D02*
X12111300Y-11780793D01*
X12111300Y-11780793D02*
X12101777Y-11799841D01*
X12101777Y-11799841D02*
X12092253Y-11809365D01*
X12092253Y-11809365D02*
X12073205Y-11818889D01*
X12073205Y-11818889D02*
X12054157Y-11818889D01*
X12054157Y-11818889D02*
X12035110Y-11809365D01*
X12035110Y-11809365D02*
X12025586Y-11799841D01*
X12025586Y-11799841D02*
X12016062Y-11780793D01*
X12016062Y-11780793D02*
X12006538Y-11742698D01*
X12006538Y-11742698D02*
X12006538Y-11695079D01*
X12006538Y-11695079D02*
X12016062Y-11656984D01*
X12016062Y-11656984D02*
X12025586Y-11637936D01*
X12025586Y-11637936D02*
X12035110Y-11628413D01*
X12035110Y-11628413D02*
X12054157Y-11618889D01*
X12244634Y-11618889D02*
X12263681Y-11618889D01*
X12263681Y-11618889D02*
X12282729Y-11628413D01*
X12282729Y-11628413D02*
X12292253Y-11637936D01*
X12292253Y-11637936D02*
X12301777Y-11656984D01*
X12301777Y-11656984D02*
X12311300Y-11695079D01*
X12311300Y-11695079D02*
X12311300Y-11742698D01*
X12311300Y-11742698D02*
X12301777Y-11780793D01*
X12301777Y-11780793D02*
X12292253Y-11799841D01*
X12292253Y-11799841D02*
X12282729Y-11809365D01*
X12282729Y-11809365D02*
X12263681Y-11818889D01*
X12263681Y-11818889D02*
X12244634Y-11818889D01*
X12244634Y-11818889D02*
X12225586Y-11809365D01*
X12225586Y-11809365D02*
X12216062Y-11799841D01*
X12216062Y-11799841D02*
X12206538Y-11780793D01*
X12206538Y-11780793D02*
X12197015Y-11742698D01*
X12197015Y-11742698D02*
X12197015Y-11695079D01*
X12197015Y-11695079D02*
X12206538Y-11656984D01*
X12206538Y-11656984D02*
X12216062Y-11637936D01*
X12216062Y-11637936D02*
X12225586Y-11628413D01*
X12225586Y-11628413D02*
X12244634Y-11618889D01*
X12397015Y-11818889D02*
X12397015Y-11685555D01*
X12397015Y-11704603D02*
X12406538Y-11695079D01*
X12406538Y-11695079D02*
X12425586Y-11685555D01*
X12425586Y-11685555D02*
X12454158Y-11685555D01*
X12454158Y-11685555D02*
X12473205Y-11695079D01*
X12473205Y-11695079D02*
X12482729Y-11714127D01*
X12482729Y-11714127D02*
X12482729Y-11818889D01*
X12482729Y-11714127D02*
X12492253Y-11695079D01*
X12492253Y-11695079D02*
X12511300Y-11685555D01*
X12511300Y-11685555D02*
X12539872Y-11685555D01*
X12539872Y-11685555D02*
X12558919Y-11695079D01*
X12558919Y-11695079D02*
X12568443Y-11714127D01*
X12568443Y-11714127D02*
X12568443Y-11818889D01*
X12663681Y-11818889D02*
X12663681Y-11685555D01*
X12663681Y-11704603D02*
X12673205Y-11695079D01*
X12673205Y-11695079D02*
X12692253Y-11685555D01*
X12692253Y-11685555D02*
X12720824Y-11685555D01*
X12720824Y-11685555D02*
X12739872Y-11695079D01*
X12739872Y-11695079D02*
X12749396Y-11714127D01*
X12749396Y-11714127D02*
X12749396Y-11818889D01*
X12749396Y-11714127D02*
X12758919Y-11695079D01*
X12758919Y-11695079D02*
X12777967Y-11685555D01*
X12777967Y-11685555D02*
X12806538Y-11685555D01*
X12806538Y-11685555D02*
X12825586Y-11695079D01*
X12825586Y-11695079D02*
X12835110Y-11714127D01*
X12835110Y-11714127D02*
X12835110Y-11818889D01*
X13225586Y-11609365D02*
X13054158Y-11866508D01*
X13482729Y-11618889D02*
X13501777Y-11618889D01*
X13501777Y-11618889D02*
X13520824Y-11628413D01*
X13520824Y-11628413D02*
X13530348Y-11637936D01*
X13530348Y-11637936D02*
X13539872Y-11656984D01*
X13539872Y-11656984D02*
X13549396Y-11695079D01*
X13549396Y-11695079D02*
X13549396Y-11742698D01*
X13549396Y-11742698D02*
X13539872Y-11780793D01*
X13539872Y-11780793D02*
X13530348Y-11799841D01*
X13530348Y-11799841D02*
X13520824Y-11809365D01*
X13520824Y-11809365D02*
X13501777Y-11818889D01*
X13501777Y-11818889D02*
X13482729Y-11818889D01*
X13482729Y-11818889D02*
X13463681Y-11809365D01*
X13463681Y-11809365D02*
X13454158Y-11799841D01*
X13454158Y-11799841D02*
X13444634Y-11780793D01*
X13444634Y-11780793D02*
X13435110Y-11742698D01*
X13435110Y-11742698D02*
X13435110Y-11695079D01*
X13435110Y-11695079D02*
X13444634Y-11656984D01*
X13444634Y-11656984D02*
X13454158Y-11637936D01*
X13454158Y-11637936D02*
X13463681Y-11628413D01*
X13463681Y-11628413D02*
X13482729Y-11618889D01*
X13635110Y-11799841D02*
X13644634Y-11809365D01*
X13644634Y-11809365D02*
X13635110Y-11818889D01*
X13635110Y-11818889D02*
X13625586Y-11809365D01*
X13625586Y-11809365D02*
X13635110Y-11799841D01*
X13635110Y-11799841D02*
X13635110Y-11818889D01*
X13768443Y-11618889D02*
X13787491Y-11618889D01*
X13787491Y-11618889D02*
X13806539Y-11628413D01*
X13806539Y-11628413D02*
X13816062Y-11637936D01*
X13816062Y-11637936D02*
X13825586Y-11656984D01*
X13825586Y-11656984D02*
X13835110Y-11695079D01*
X13835110Y-11695079D02*
X13835110Y-11742698D01*
X13835110Y-11742698D02*
X13825586Y-11780793D01*
X13825586Y-11780793D02*
X13816062Y-11799841D01*
X13816062Y-11799841D02*
X13806539Y-11809365D01*
X13806539Y-11809365D02*
X13787491Y-11818889D01*
X13787491Y-11818889D02*
X13768443Y-11818889D01*
X13768443Y-11818889D02*
X13749396Y-11809365D01*
X13749396Y-11809365D02*
X13739872Y-11799841D01*
X13739872Y-11799841D02*
X13730348Y-11780793D01*
X13730348Y-11780793D02*
X13720824Y-11742698D01*
X13720824Y-11742698D02*
X13720824Y-11695079D01*
X13720824Y-11695079D02*
X13730348Y-11656984D01*
X13730348Y-11656984D02*
X13739872Y-11637936D01*
X13739872Y-11637936D02*
X13749396Y-11628413D01*
X13749396Y-11628413D02*
X13768443Y-11618889D01*
X13901777Y-11618889D02*
X14025586Y-11618889D01*
X14025586Y-11618889D02*
X13958920Y-11695079D01*
X13958920Y-11695079D02*
X13987491Y-11695079D01*
X13987491Y-11695079D02*
X14006539Y-11704603D01*
X14006539Y-11704603D02*
X14016062Y-11714127D01*
X14016062Y-11714127D02*
X14025586Y-11733174D01*
X14025586Y-11733174D02*
X14025586Y-11780793D01*
X14025586Y-11780793D02*
X14016062Y-11799841D01*
X14016062Y-11799841D02*
X14006539Y-11809365D01*
X14006539Y-11809365D02*
X13987491Y-11818889D01*
X13987491Y-11818889D02*
X13930348Y-11818889D01*
X13930348Y-11818889D02*
X13911301Y-11809365D01*
X13911301Y-11809365D02*
X13901777Y-11799841D01*
X14216062Y-11818889D02*
X14101777Y-11818889D01*
X14158920Y-11818889D02*
X14158920Y-11618889D01*
X14158920Y-11618889D02*
X14139872Y-11647460D01*
X14139872Y-11647460D02*
X14120824Y-11666508D01*
X14120824Y-11666508D02*
X14101777Y-11676032D01*
X14397015Y-11618889D02*
X14301777Y-11618889D01*
X14301777Y-11618889D02*
X14292253Y-11714127D01*
X14292253Y-11714127D02*
X14301777Y-11704603D01*
X14301777Y-11704603D02*
X14320824Y-11695079D01*
X14320824Y-11695079D02*
X14368443Y-11695079D01*
X14368443Y-11695079D02*
X14387491Y-11704603D01*
X14387491Y-11704603D02*
X14397015Y-11714127D01*
X14397015Y-11714127D02*
X14406539Y-11733174D01*
X14406539Y-11733174D02*
X14406539Y-11780793D01*
X14406539Y-11780793D02*
X14397015Y-11799841D01*
X14397015Y-11799841D02*
X14387491Y-11809365D01*
X14387491Y-11809365D02*
X14368443Y-11818889D01*
X14368443Y-11818889D02*
X14320824Y-11818889D01*
X14320824Y-11818889D02*
X14301777Y-11809365D01*
X14301777Y-11809365D02*
X14292253Y-11799841D01*
X14482729Y-11618889D02*
X14482729Y-11656984D01*
X14558920Y-11618889D02*
X14558920Y-11656984D01*
X14854158Y-11895079D02*
X14844634Y-11885555D01*
X14844634Y-11885555D02*
X14825586Y-11856984D01*
X14825586Y-11856984D02*
X14816063Y-11837936D01*
X14816063Y-11837936D02*
X14806539Y-11809365D01*
X14806539Y-11809365D02*
X14797015Y-11761746D01*
X14797015Y-11761746D02*
X14797015Y-11723651D01*
X14797015Y-11723651D02*
X14806539Y-11676032D01*
X14806539Y-11676032D02*
X14816063Y-11647460D01*
X14816063Y-11647460D02*
X14825586Y-11628413D01*
X14825586Y-11628413D02*
X14844634Y-11599841D01*
X14844634Y-11599841D02*
X14854158Y-11590317D01*
X14958920Y-11704603D02*
X14939872Y-11695079D01*
X14939872Y-11695079D02*
X14930348Y-11685555D01*
X14930348Y-11685555D02*
X14920824Y-11666508D01*
X14920824Y-11666508D02*
X14920824Y-11656984D01*
X14920824Y-11656984D02*
X14930348Y-11637936D01*
X14930348Y-11637936D02*
X14939872Y-11628413D01*
X14939872Y-11628413D02*
X14958920Y-11618889D01*
X14958920Y-11618889D02*
X14997015Y-11618889D01*
X14997015Y-11618889D02*
X15016063Y-11628413D01*
X15016063Y-11628413D02*
X15025586Y-11637936D01*
X15025586Y-11637936D02*
X15035110Y-11656984D01*
X15035110Y-11656984D02*
X15035110Y-11666508D01*
X15035110Y-11666508D02*
X15025586Y-11685555D01*
X15025586Y-11685555D02*
X15016063Y-11695079D01*
X15016063Y-11695079D02*
X14997015Y-11704603D01*
X14997015Y-11704603D02*
X14958920Y-11704603D01*
X14958920Y-11704603D02*
X14939872Y-11714127D01*
X14939872Y-11714127D02*
X14930348Y-11723651D01*
X14930348Y-11723651D02*
X14920824Y-11742698D01*
X14920824Y-11742698D02*
X14920824Y-11780793D01*
X14920824Y-11780793D02*
X14930348Y-11799841D01*
X14930348Y-11799841D02*
X14939872Y-11809365D01*
X14939872Y-11809365D02*
X14958920Y-11818889D01*
X14958920Y-11818889D02*
X14997015Y-11818889D01*
X14997015Y-11818889D02*
X15016063Y-11809365D01*
X15016063Y-11809365D02*
X15025586Y-11799841D01*
X15025586Y-11799841D02*
X15035110Y-11780793D01*
X15035110Y-11780793D02*
X15035110Y-11742698D01*
X15035110Y-11742698D02*
X15025586Y-11723651D01*
X15025586Y-11723651D02*
X15016063Y-11714127D01*
X15016063Y-11714127D02*
X14997015Y-11704603D01*
X15273205Y-11818889D02*
X15273205Y-11618889D01*
X15358920Y-11818889D02*
X15358920Y-11714127D01*
X15358920Y-11714127D02*
X15349396Y-11695079D01*
X15349396Y-11695079D02*
X15330348Y-11685555D01*
X15330348Y-11685555D02*
X15301777Y-11685555D01*
X15301777Y-11685555D02*
X15282729Y-11695079D01*
X15282729Y-11695079D02*
X15273205Y-11704603D01*
X15482729Y-11818889D02*
X15463682Y-11809365D01*
X15463682Y-11809365D02*
X15454158Y-11799841D01*
X15454158Y-11799841D02*
X15444634Y-11780793D01*
X15444634Y-11780793D02*
X15444634Y-11723651D01*
X15444634Y-11723651D02*
X15454158Y-11704603D01*
X15454158Y-11704603D02*
X15463682Y-11695079D01*
X15463682Y-11695079D02*
X15482729Y-11685555D01*
X15482729Y-11685555D02*
X15511301Y-11685555D01*
X15511301Y-11685555D02*
X15530348Y-11695079D01*
X15530348Y-11695079D02*
X15539872Y-11704603D01*
X15539872Y-11704603D02*
X15549396Y-11723651D01*
X15549396Y-11723651D02*
X15549396Y-11780793D01*
X15549396Y-11780793D02*
X15539872Y-11799841D01*
X15539872Y-11799841D02*
X15530348Y-11809365D01*
X15530348Y-11809365D02*
X15511301Y-11818889D01*
X15511301Y-11818889D02*
X15482729Y-11818889D01*
X15663682Y-11818889D02*
X15644634Y-11809365D01*
X15644634Y-11809365D02*
X15635110Y-11790317D01*
X15635110Y-11790317D02*
X15635110Y-11618889D01*
X15816063Y-11809365D02*
X15797015Y-11818889D01*
X15797015Y-11818889D02*
X15758920Y-11818889D01*
X15758920Y-11818889D02*
X15739872Y-11809365D01*
X15739872Y-11809365D02*
X15730348Y-11790317D01*
X15730348Y-11790317D02*
X15730348Y-11714127D01*
X15730348Y-11714127D02*
X15739872Y-11695079D01*
X15739872Y-11695079D02*
X15758920Y-11685555D01*
X15758920Y-11685555D02*
X15797015Y-11685555D01*
X15797015Y-11685555D02*
X15816063Y-11695079D01*
X15816063Y-11695079D02*
X15825586Y-11714127D01*
X15825586Y-11714127D02*
X15825586Y-11733174D01*
X15825586Y-11733174D02*
X15730348Y-11752222D01*
X15901777Y-11809365D02*
X15920825Y-11818889D01*
X15920825Y-11818889D02*
X15958920Y-11818889D01*
X15958920Y-11818889D02*
X15977967Y-11809365D01*
X15977967Y-11809365D02*
X15987491Y-11790317D01*
X15987491Y-11790317D02*
X15987491Y-11780793D01*
X15987491Y-11780793D02*
X15977967Y-11761746D01*
X15977967Y-11761746D02*
X15958920Y-11752222D01*
X15958920Y-11752222D02*
X15930348Y-11752222D01*
X15930348Y-11752222D02*
X15911301Y-11742698D01*
X15911301Y-11742698D02*
X15901777Y-11723651D01*
X15901777Y-11723651D02*
X15901777Y-11714127D01*
X15901777Y-11714127D02*
X15911301Y-11695079D01*
X15911301Y-11695079D02*
X15930348Y-11685555D01*
X15930348Y-11685555D02*
X15958920Y-11685555D01*
X15958920Y-11685555D02*
X15977967Y-11695079D01*
X16054158Y-11895079D02*
X16063682Y-11885555D01*
X16063682Y-11885555D02*
X16082729Y-11856984D01*
X16082729Y-11856984D02*
X16092253Y-11837936D01*
X16092253Y-11837936D02*
X16101777Y-11809365D01*
X16101777Y-11809365D02*
X16111301Y-11761746D01*
X16111301Y-11761746D02*
X16111301Y-11723651D01*
X16111301Y-11723651D02*
X16101777Y-11676032D01*
X16101777Y-11676032D02*
X16092253Y-11647460D01*
X16092253Y-11647460D02*
X16082729Y-11628413D01*
X16082729Y-11628413D02*
X16063682Y-11599841D01*
X16063682Y-11599841D02*
X16054158Y-11590317D01*
D13*
X11255664Y-12047974D02*
X11255664Y-11934836D01*
X11142526Y-11934836D01*
X11142526Y-12047974D01*
X11255664Y-12047974D01*
D11*
X11644634Y-12082889D02*
X11530348Y-12082889D01*
X11587491Y-12082889D02*
X11587491Y-11882889D01*
X11587491Y-11882889D02*
X11568443Y-11911460D01*
X11568443Y-11911460D02*
X11549396Y-11930508D01*
X11549396Y-11930508D02*
X11530348Y-11940032D01*
X11730348Y-12063841D02*
X11739872Y-12073365D01*
X11739872Y-12073365D02*
X11730348Y-12082889D01*
X11730348Y-12082889D02*
X11720824Y-12073365D01*
X11720824Y-12073365D02*
X11730348Y-12063841D01*
X11730348Y-12063841D02*
X11730348Y-12082889D01*
X11911300Y-11882889D02*
X11873205Y-11882889D01*
X11873205Y-11882889D02*
X11854157Y-11892413D01*
X11854157Y-11892413D02*
X11844634Y-11901936D01*
X11844634Y-11901936D02*
X11825586Y-11930508D01*
X11825586Y-11930508D02*
X11816062Y-11968603D01*
X11816062Y-11968603D02*
X11816062Y-12044793D01*
X11816062Y-12044793D02*
X11825586Y-12063841D01*
X11825586Y-12063841D02*
X11835110Y-12073365D01*
X11835110Y-12073365D02*
X11854157Y-12082889D01*
X11854157Y-12082889D02*
X11892253Y-12082889D01*
X11892253Y-12082889D02*
X11911300Y-12073365D01*
X11911300Y-12073365D02*
X11920824Y-12063841D01*
X11920824Y-12063841D02*
X11930348Y-12044793D01*
X11930348Y-12044793D02*
X11930348Y-11997174D01*
X11930348Y-11997174D02*
X11920824Y-11978127D01*
X11920824Y-11978127D02*
X11911300Y-11968603D01*
X11911300Y-11968603D02*
X11892253Y-11959079D01*
X11892253Y-11959079D02*
X11854157Y-11959079D01*
X11854157Y-11959079D02*
X11835110Y-11968603D01*
X11835110Y-11968603D02*
X11825586Y-11978127D01*
X11825586Y-11978127D02*
X11816062Y-11997174D01*
X12054157Y-11882889D02*
X12073205Y-11882889D01*
X12073205Y-11882889D02*
X12092253Y-11892413D01*
X12092253Y-11892413D02*
X12101777Y-11901936D01*
X12101777Y-11901936D02*
X12111300Y-11920984D01*
X12111300Y-11920984D02*
X12120824Y-11959079D01*
X12120824Y-11959079D02*
X12120824Y-12006698D01*
X12120824Y-12006698D02*
X12111300Y-12044793D01*
X12111300Y-12044793D02*
X12101777Y-12063841D01*
X12101777Y-12063841D02*
X12092253Y-12073365D01*
X12092253Y-12073365D02*
X12073205Y-12082889D01*
X12073205Y-12082889D02*
X12054157Y-12082889D01*
X12054157Y-12082889D02*
X12035110Y-12073365D01*
X12035110Y-12073365D02*
X12025586Y-12063841D01*
X12025586Y-12063841D02*
X12016062Y-12044793D01*
X12016062Y-12044793D02*
X12006538Y-12006698D01*
X12006538Y-12006698D02*
X12006538Y-11959079D01*
X12006538Y-11959079D02*
X12016062Y-11920984D01*
X12016062Y-11920984D02*
X12025586Y-11901936D01*
X12025586Y-11901936D02*
X12035110Y-11892413D01*
X12035110Y-11892413D02*
X12054157Y-11882889D01*
X12244634Y-11882889D02*
X12263681Y-11882889D01*
X12263681Y-11882889D02*
X12282729Y-11892413D01*
X12282729Y-11892413D02*
X12292253Y-11901936D01*
X12292253Y-11901936D02*
X12301777Y-11920984D01*
X12301777Y-11920984D02*
X12311300Y-11959079D01*
X12311300Y-11959079D02*
X12311300Y-12006698D01*
X12311300Y-12006698D02*
X12301777Y-12044793D01*
X12301777Y-12044793D02*
X12292253Y-12063841D01*
X12292253Y-12063841D02*
X12282729Y-12073365D01*
X12282729Y-12073365D02*
X12263681Y-12082889D01*
X12263681Y-12082889D02*
X12244634Y-12082889D01*
X12244634Y-12082889D02*
X12225586Y-12073365D01*
X12225586Y-12073365D02*
X12216062Y-12063841D01*
X12216062Y-12063841D02*
X12206538Y-12044793D01*
X12206538Y-12044793D02*
X12197015Y-12006698D01*
X12197015Y-12006698D02*
X12197015Y-11959079D01*
X12197015Y-11959079D02*
X12206538Y-11920984D01*
X12206538Y-11920984D02*
X12216062Y-11901936D01*
X12216062Y-11901936D02*
X12225586Y-11892413D01*
X12225586Y-11892413D02*
X12244634Y-11882889D01*
X12397015Y-12082889D02*
X12397015Y-11949555D01*
X12397015Y-11968603D02*
X12406538Y-11959079D01*
X12406538Y-11959079D02*
X12425586Y-11949555D01*
X12425586Y-11949555D02*
X12454158Y-11949555D01*
X12454158Y-11949555D02*
X12473205Y-11959079D01*
X12473205Y-11959079D02*
X12482729Y-11978127D01*
X12482729Y-11978127D02*
X12482729Y-12082889D01*
X12482729Y-11978127D02*
X12492253Y-11959079D01*
X12492253Y-11959079D02*
X12511300Y-11949555D01*
X12511300Y-11949555D02*
X12539872Y-11949555D01*
X12539872Y-11949555D02*
X12558919Y-11959079D01*
X12558919Y-11959079D02*
X12568443Y-11978127D01*
X12568443Y-11978127D02*
X12568443Y-12082889D01*
X12663681Y-12082889D02*
X12663681Y-11949555D01*
X12663681Y-11968603D02*
X12673205Y-11959079D01*
X12673205Y-11959079D02*
X12692253Y-11949555D01*
X12692253Y-11949555D02*
X12720824Y-11949555D01*
X12720824Y-11949555D02*
X12739872Y-11959079D01*
X12739872Y-11959079D02*
X12749396Y-11978127D01*
X12749396Y-11978127D02*
X12749396Y-12082889D01*
X12749396Y-11978127D02*
X12758919Y-11959079D01*
X12758919Y-11959079D02*
X12777967Y-11949555D01*
X12777967Y-11949555D02*
X12806538Y-11949555D01*
X12806538Y-11949555D02*
X12825586Y-11959079D01*
X12825586Y-11959079D02*
X12835110Y-11978127D01*
X12835110Y-11978127D02*
X12835110Y-12082889D01*
X13225586Y-11873365D02*
X13054158Y-12130508D01*
X13482729Y-11882889D02*
X13501777Y-11882889D01*
X13501777Y-11882889D02*
X13520824Y-11892413D01*
X13520824Y-11892413D02*
X13530348Y-11901936D01*
X13530348Y-11901936D02*
X13539872Y-11920984D01*
X13539872Y-11920984D02*
X13549396Y-11959079D01*
X13549396Y-11959079D02*
X13549396Y-12006698D01*
X13549396Y-12006698D02*
X13539872Y-12044793D01*
X13539872Y-12044793D02*
X13530348Y-12063841D01*
X13530348Y-12063841D02*
X13520824Y-12073365D01*
X13520824Y-12073365D02*
X13501777Y-12082889D01*
X13501777Y-12082889D02*
X13482729Y-12082889D01*
X13482729Y-12082889D02*
X13463681Y-12073365D01*
X13463681Y-12073365D02*
X13454158Y-12063841D01*
X13454158Y-12063841D02*
X13444634Y-12044793D01*
X13444634Y-12044793D02*
X13435110Y-12006698D01*
X13435110Y-12006698D02*
X13435110Y-11959079D01*
X13435110Y-11959079D02*
X13444634Y-11920984D01*
X13444634Y-11920984D02*
X13454158Y-11901936D01*
X13454158Y-11901936D02*
X13463681Y-11892413D01*
X13463681Y-11892413D02*
X13482729Y-11882889D01*
X13635110Y-12063841D02*
X13644634Y-12073365D01*
X13644634Y-12073365D02*
X13635110Y-12082889D01*
X13635110Y-12082889D02*
X13625586Y-12073365D01*
X13625586Y-12073365D02*
X13635110Y-12063841D01*
X13635110Y-12063841D02*
X13635110Y-12082889D01*
X13768443Y-11882889D02*
X13787491Y-11882889D01*
X13787491Y-11882889D02*
X13806539Y-11892413D01*
X13806539Y-11892413D02*
X13816062Y-11901936D01*
X13816062Y-11901936D02*
X13825586Y-11920984D01*
X13825586Y-11920984D02*
X13835110Y-11959079D01*
X13835110Y-11959079D02*
X13835110Y-12006698D01*
X13835110Y-12006698D02*
X13825586Y-12044793D01*
X13825586Y-12044793D02*
X13816062Y-12063841D01*
X13816062Y-12063841D02*
X13806539Y-12073365D01*
X13806539Y-12073365D02*
X13787491Y-12082889D01*
X13787491Y-12082889D02*
X13768443Y-12082889D01*
X13768443Y-12082889D02*
X13749396Y-12073365D01*
X13749396Y-12073365D02*
X13739872Y-12063841D01*
X13739872Y-12063841D02*
X13730348Y-12044793D01*
X13730348Y-12044793D02*
X13720824Y-12006698D01*
X13720824Y-12006698D02*
X13720824Y-11959079D01*
X13720824Y-11959079D02*
X13730348Y-11920984D01*
X13730348Y-11920984D02*
X13739872Y-11901936D01*
X13739872Y-11901936D02*
X13749396Y-11892413D01*
X13749396Y-11892413D02*
X13768443Y-11882889D01*
X14006539Y-11882889D02*
X13968443Y-11882889D01*
X13968443Y-11882889D02*
X13949396Y-11892413D01*
X13949396Y-11892413D02*
X13939872Y-11901936D01*
X13939872Y-11901936D02*
X13920824Y-11930508D01*
X13920824Y-11930508D02*
X13911301Y-11968603D01*
X13911301Y-11968603D02*
X13911301Y-12044793D01*
X13911301Y-12044793D02*
X13920824Y-12063841D01*
X13920824Y-12063841D02*
X13930348Y-12073365D01*
X13930348Y-12073365D02*
X13949396Y-12082889D01*
X13949396Y-12082889D02*
X13987491Y-12082889D01*
X13987491Y-12082889D02*
X14006539Y-12073365D01*
X14006539Y-12073365D02*
X14016062Y-12063841D01*
X14016062Y-12063841D02*
X14025586Y-12044793D01*
X14025586Y-12044793D02*
X14025586Y-11997174D01*
X14025586Y-11997174D02*
X14016062Y-11978127D01*
X14016062Y-11978127D02*
X14006539Y-11968603D01*
X14006539Y-11968603D02*
X13987491Y-11959079D01*
X13987491Y-11959079D02*
X13949396Y-11959079D01*
X13949396Y-11959079D02*
X13930348Y-11968603D01*
X13930348Y-11968603D02*
X13920824Y-11978127D01*
X13920824Y-11978127D02*
X13911301Y-11997174D01*
X14092253Y-11882889D02*
X14216062Y-11882889D01*
X14216062Y-11882889D02*
X14149396Y-11959079D01*
X14149396Y-11959079D02*
X14177967Y-11959079D01*
X14177967Y-11959079D02*
X14197015Y-11968603D01*
X14197015Y-11968603D02*
X14206539Y-11978127D01*
X14206539Y-11978127D02*
X14216062Y-11997174D01*
X14216062Y-11997174D02*
X14216062Y-12044793D01*
X14216062Y-12044793D02*
X14206539Y-12063841D01*
X14206539Y-12063841D02*
X14197015Y-12073365D01*
X14197015Y-12073365D02*
X14177967Y-12082889D01*
X14177967Y-12082889D02*
X14120824Y-12082889D01*
X14120824Y-12082889D02*
X14101777Y-12073365D01*
X14101777Y-12073365D02*
X14092253Y-12063841D01*
X14339872Y-11882889D02*
X14358920Y-11882889D01*
X14358920Y-11882889D02*
X14377967Y-11892413D01*
X14377967Y-11892413D02*
X14387491Y-11901936D01*
X14387491Y-11901936D02*
X14397015Y-11920984D01*
X14397015Y-11920984D02*
X14406539Y-11959079D01*
X14406539Y-11959079D02*
X14406539Y-12006698D01*
X14406539Y-12006698D02*
X14397015Y-12044793D01*
X14397015Y-12044793D02*
X14387491Y-12063841D01*
X14387491Y-12063841D02*
X14377967Y-12073365D01*
X14377967Y-12073365D02*
X14358920Y-12082889D01*
X14358920Y-12082889D02*
X14339872Y-12082889D01*
X14339872Y-12082889D02*
X14320824Y-12073365D01*
X14320824Y-12073365D02*
X14311301Y-12063841D01*
X14311301Y-12063841D02*
X14301777Y-12044793D01*
X14301777Y-12044793D02*
X14292253Y-12006698D01*
X14292253Y-12006698D02*
X14292253Y-11959079D01*
X14292253Y-11959079D02*
X14301777Y-11920984D01*
X14301777Y-11920984D02*
X14311301Y-11901936D01*
X14311301Y-11901936D02*
X14320824Y-11892413D01*
X14320824Y-11892413D02*
X14339872Y-11882889D01*
X14482729Y-11882889D02*
X14482729Y-11920984D01*
X14558920Y-11882889D02*
X14558920Y-11920984D01*
X14854158Y-12159079D02*
X14844634Y-12149555D01*
X14844634Y-12149555D02*
X14825586Y-12120984D01*
X14825586Y-12120984D02*
X14816063Y-12101936D01*
X14816063Y-12101936D02*
X14806539Y-12073365D01*
X14806539Y-12073365D02*
X14797015Y-12025746D01*
X14797015Y-12025746D02*
X14797015Y-11987651D01*
X14797015Y-11987651D02*
X14806539Y-11940032D01*
X14806539Y-11940032D02*
X14816063Y-11911460D01*
X14816063Y-11911460D02*
X14825586Y-11892413D01*
X14825586Y-11892413D02*
X14844634Y-11863841D01*
X14844634Y-11863841D02*
X14854158Y-11854317D01*
X14939872Y-12082889D02*
X14977967Y-12082889D01*
X14977967Y-12082889D02*
X14997015Y-12073365D01*
X14997015Y-12073365D02*
X15006539Y-12063841D01*
X15006539Y-12063841D02*
X15025586Y-12035270D01*
X15025586Y-12035270D02*
X15035110Y-11997174D01*
X15035110Y-11997174D02*
X15035110Y-11920984D01*
X15035110Y-11920984D02*
X15025586Y-11901936D01*
X15025586Y-11901936D02*
X15016063Y-11892413D01*
X15016063Y-11892413D02*
X14997015Y-11882889D01*
X14997015Y-11882889D02*
X14958920Y-11882889D01*
X14958920Y-11882889D02*
X14939872Y-11892413D01*
X14939872Y-11892413D02*
X14930348Y-11901936D01*
X14930348Y-11901936D02*
X14920824Y-11920984D01*
X14920824Y-11920984D02*
X14920824Y-11968603D01*
X14920824Y-11968603D02*
X14930348Y-11987651D01*
X14930348Y-11987651D02*
X14939872Y-11997174D01*
X14939872Y-11997174D02*
X14958920Y-12006698D01*
X14958920Y-12006698D02*
X14997015Y-12006698D01*
X14997015Y-12006698D02*
X15016063Y-11997174D01*
X15016063Y-11997174D02*
X15025586Y-11987651D01*
X15025586Y-11987651D02*
X15035110Y-11968603D01*
X15273205Y-12082889D02*
X15273205Y-11882889D01*
X15358920Y-12082889D02*
X15358920Y-11978127D01*
X15358920Y-11978127D02*
X15349396Y-11959079D01*
X15349396Y-11959079D02*
X15330348Y-11949555D01*
X15330348Y-11949555D02*
X15301777Y-11949555D01*
X15301777Y-11949555D02*
X15282729Y-11959079D01*
X15282729Y-11959079D02*
X15273205Y-11968603D01*
X15482729Y-12082889D02*
X15463682Y-12073365D01*
X15463682Y-12073365D02*
X15454158Y-12063841D01*
X15454158Y-12063841D02*
X15444634Y-12044793D01*
X15444634Y-12044793D02*
X15444634Y-11987651D01*
X15444634Y-11987651D02*
X15454158Y-11968603D01*
X15454158Y-11968603D02*
X15463682Y-11959079D01*
X15463682Y-11959079D02*
X15482729Y-11949555D01*
X15482729Y-11949555D02*
X15511301Y-11949555D01*
X15511301Y-11949555D02*
X15530348Y-11959079D01*
X15530348Y-11959079D02*
X15539872Y-11968603D01*
X15539872Y-11968603D02*
X15549396Y-11987651D01*
X15549396Y-11987651D02*
X15549396Y-12044793D01*
X15549396Y-12044793D02*
X15539872Y-12063841D01*
X15539872Y-12063841D02*
X15530348Y-12073365D01*
X15530348Y-12073365D02*
X15511301Y-12082889D01*
X15511301Y-12082889D02*
X15482729Y-12082889D01*
X15663682Y-12082889D02*
X15644634Y-12073365D01*
X15644634Y-12073365D02*
X15635110Y-12054317D01*
X15635110Y-12054317D02*
X15635110Y-11882889D01*
X15816063Y-12073365D02*
X15797015Y-12082889D01*
X15797015Y-12082889D02*
X15758920Y-12082889D01*
X15758920Y-12082889D02*
X15739872Y-12073365D01*
X15739872Y-12073365D02*
X15730348Y-12054317D01*
X15730348Y-12054317D02*
X15730348Y-11978127D01*
X15730348Y-11978127D02*
X15739872Y-11959079D01*
X15739872Y-11959079D02*
X15758920Y-11949555D01*
X15758920Y-11949555D02*
X15797015Y-11949555D01*
X15797015Y-11949555D02*
X15816063Y-11959079D01*
X15816063Y-11959079D02*
X15825586Y-11978127D01*
X15825586Y-11978127D02*
X15825586Y-11997174D01*
X15825586Y-11997174D02*
X15730348Y-12016222D01*
X15901777Y-12073365D02*
X15920825Y-12082889D01*
X15920825Y-12082889D02*
X15958920Y-12082889D01*
X15958920Y-12082889D02*
X15977967Y-12073365D01*
X15977967Y-12073365D02*
X15987491Y-12054317D01*
X15987491Y-12054317D02*
X15987491Y-12044793D01*
X15987491Y-12044793D02*
X15977967Y-12025746D01*
X15977967Y-12025746D02*
X15958920Y-12016222D01*
X15958920Y-12016222D02*
X15930348Y-12016222D01*
X15930348Y-12016222D02*
X15911301Y-12006698D01*
X15911301Y-12006698D02*
X15901777Y-11987651D01*
X15901777Y-11987651D02*
X15901777Y-11978127D01*
X15901777Y-11978127D02*
X15911301Y-11959079D01*
X15911301Y-11959079D02*
X15930348Y-11949555D01*
X15930348Y-11949555D02*
X15958920Y-11949555D01*
X15958920Y-11949555D02*
X15977967Y-11959079D01*
X16054158Y-12159079D02*
X16063682Y-12149555D01*
X16063682Y-12149555D02*
X16082729Y-12120984D01*
X16082729Y-12120984D02*
X16092253Y-12101936D01*
X16092253Y-12101936D02*
X16101777Y-12073365D01*
X16101777Y-12073365D02*
X16111301Y-12025746D01*
X16111301Y-12025746D02*
X16111301Y-11987651D01*
X16111301Y-11987651D02*
X16101777Y-11940032D01*
X16101777Y-11940032D02*
X16092253Y-11911460D01*
X16092253Y-11911460D02*
X16082729Y-11892413D01*
X16082729Y-11892413D02*
X16063682Y-11863841D01*
X16063682Y-11863841D02*
X16054158Y-11854317D01*
X11179095Y-12371405D02*
X11279095Y-12271405D01*
X11179095Y-12171405D01*
X11079095Y-12271405D01*
X11179095Y-12371405D01*
X11625586Y-12229555D02*
X11625586Y-12362889D01*
X11577967Y-12153365D02*
X11530348Y-12296222D01*
X11530348Y-12296222D02*
X11654157Y-12296222D01*
X11730348Y-12343841D02*
X11739872Y-12353365D01*
X11739872Y-12353365D02*
X11730348Y-12362889D01*
X11730348Y-12362889D02*
X11720824Y-12353365D01*
X11720824Y-12353365D02*
X11730348Y-12343841D01*
X11730348Y-12343841D02*
X11730348Y-12362889D01*
X11911300Y-12229555D02*
X11911300Y-12362889D01*
X11863681Y-12153365D02*
X11816062Y-12296222D01*
X11816062Y-12296222D02*
X11939872Y-12296222D01*
X12054157Y-12162889D02*
X12073205Y-12162889D01*
X12073205Y-12162889D02*
X12092253Y-12172413D01*
X12092253Y-12172413D02*
X12101777Y-12181936D01*
X12101777Y-12181936D02*
X12111300Y-12200984D01*
X12111300Y-12200984D02*
X12120824Y-12239079D01*
X12120824Y-12239079D02*
X12120824Y-12286698D01*
X12120824Y-12286698D02*
X12111300Y-12324793D01*
X12111300Y-12324793D02*
X12101777Y-12343841D01*
X12101777Y-12343841D02*
X12092253Y-12353365D01*
X12092253Y-12353365D02*
X12073205Y-12362889D01*
X12073205Y-12362889D02*
X12054157Y-12362889D01*
X12054157Y-12362889D02*
X12035110Y-12353365D01*
X12035110Y-12353365D02*
X12025586Y-12343841D01*
X12025586Y-12343841D02*
X12016062Y-12324793D01*
X12016062Y-12324793D02*
X12006538Y-12286698D01*
X12006538Y-12286698D02*
X12006538Y-12239079D01*
X12006538Y-12239079D02*
X12016062Y-12200984D01*
X12016062Y-12200984D02*
X12025586Y-12181936D01*
X12025586Y-12181936D02*
X12035110Y-12172413D01*
X12035110Y-12172413D02*
X12054157Y-12162889D01*
X12244634Y-12162889D02*
X12263681Y-12162889D01*
X12263681Y-12162889D02*
X12282729Y-12172413D01*
X12282729Y-12172413D02*
X12292253Y-12181936D01*
X12292253Y-12181936D02*
X12301777Y-12200984D01*
X12301777Y-12200984D02*
X12311300Y-12239079D01*
X12311300Y-12239079D02*
X12311300Y-12286698D01*
X12311300Y-12286698D02*
X12301777Y-12324793D01*
X12301777Y-12324793D02*
X12292253Y-12343841D01*
X12292253Y-12343841D02*
X12282729Y-12353365D01*
X12282729Y-12353365D02*
X12263681Y-12362889D01*
X12263681Y-12362889D02*
X12244634Y-12362889D01*
X12244634Y-12362889D02*
X12225586Y-12353365D01*
X12225586Y-12353365D02*
X12216062Y-12343841D01*
X12216062Y-12343841D02*
X12206538Y-12324793D01*
X12206538Y-12324793D02*
X12197015Y-12286698D01*
X12197015Y-12286698D02*
X12197015Y-12239079D01*
X12197015Y-12239079D02*
X12206538Y-12200984D01*
X12206538Y-12200984D02*
X12216062Y-12181936D01*
X12216062Y-12181936D02*
X12225586Y-12172413D01*
X12225586Y-12172413D02*
X12244634Y-12162889D01*
X12397015Y-12362889D02*
X12397015Y-12229555D01*
X12397015Y-12248603D02*
X12406538Y-12239079D01*
X12406538Y-12239079D02*
X12425586Y-12229555D01*
X12425586Y-12229555D02*
X12454158Y-12229555D01*
X12454158Y-12229555D02*
X12473205Y-12239079D01*
X12473205Y-12239079D02*
X12482729Y-12258127D01*
X12482729Y-12258127D02*
X12482729Y-12362889D01*
X12482729Y-12258127D02*
X12492253Y-12239079D01*
X12492253Y-12239079D02*
X12511300Y-12229555D01*
X12511300Y-12229555D02*
X12539872Y-12229555D01*
X12539872Y-12229555D02*
X12558919Y-12239079D01*
X12558919Y-12239079D02*
X12568443Y-12258127D01*
X12568443Y-12258127D02*
X12568443Y-12362889D01*
X12663681Y-12362889D02*
X12663681Y-12229555D01*
X12663681Y-12248603D02*
X12673205Y-12239079D01*
X12673205Y-12239079D02*
X12692253Y-12229555D01*
X12692253Y-12229555D02*
X12720824Y-12229555D01*
X12720824Y-12229555D02*
X12739872Y-12239079D01*
X12739872Y-12239079D02*
X12749396Y-12258127D01*
X12749396Y-12258127D02*
X12749396Y-12362889D01*
X12749396Y-12258127D02*
X12758919Y-12239079D01*
X12758919Y-12239079D02*
X12777967Y-12229555D01*
X12777967Y-12229555D02*
X12806538Y-12229555D01*
X12806538Y-12229555D02*
X12825586Y-12239079D01*
X12825586Y-12239079D02*
X12835110Y-12258127D01*
X12835110Y-12258127D02*
X12835110Y-12362889D01*
X13225586Y-12153365D02*
X13054158Y-12410508D01*
X13482729Y-12162889D02*
X13501777Y-12162889D01*
X13501777Y-12162889D02*
X13520824Y-12172413D01*
X13520824Y-12172413D02*
X13530348Y-12181936D01*
X13530348Y-12181936D02*
X13539872Y-12200984D01*
X13539872Y-12200984D02*
X13549396Y-12239079D01*
X13549396Y-12239079D02*
X13549396Y-12286698D01*
X13549396Y-12286698D02*
X13539872Y-12324793D01*
X13539872Y-12324793D02*
X13530348Y-12343841D01*
X13530348Y-12343841D02*
X13520824Y-12353365D01*
X13520824Y-12353365D02*
X13501777Y-12362889D01*
X13501777Y-12362889D02*
X13482729Y-12362889D01*
X13482729Y-12362889D02*
X13463681Y-12353365D01*
X13463681Y-12353365D02*
X13454158Y-12343841D01*
X13454158Y-12343841D02*
X13444634Y-12324793D01*
X13444634Y-12324793D02*
X13435110Y-12286698D01*
X13435110Y-12286698D02*
X13435110Y-12239079D01*
X13435110Y-12239079D02*
X13444634Y-12200984D01*
X13444634Y-12200984D02*
X13454158Y-12181936D01*
X13454158Y-12181936D02*
X13463681Y-12172413D01*
X13463681Y-12172413D02*
X13482729Y-12162889D01*
X13635110Y-12343841D02*
X13644634Y-12353365D01*
X13644634Y-12353365D02*
X13635110Y-12362889D01*
X13635110Y-12362889D02*
X13625586Y-12353365D01*
X13625586Y-12353365D02*
X13635110Y-12343841D01*
X13635110Y-12343841D02*
X13635110Y-12362889D01*
X13835110Y-12362889D02*
X13720824Y-12362889D01*
X13777967Y-12362889D02*
X13777967Y-12162889D01*
X13777967Y-12162889D02*
X13758920Y-12191460D01*
X13758920Y-12191460D02*
X13739872Y-12210508D01*
X13739872Y-12210508D02*
X13720824Y-12220032D01*
X13901777Y-12162889D02*
X14035110Y-12162889D01*
X14035110Y-12162889D02*
X13949396Y-12362889D01*
X14092253Y-12162889D02*
X14216062Y-12162889D01*
X14216062Y-12162889D02*
X14149396Y-12239079D01*
X14149396Y-12239079D02*
X14177967Y-12239079D01*
X14177967Y-12239079D02*
X14197015Y-12248603D01*
X14197015Y-12248603D02*
X14206539Y-12258127D01*
X14206539Y-12258127D02*
X14216062Y-12277174D01*
X14216062Y-12277174D02*
X14216062Y-12324793D01*
X14216062Y-12324793D02*
X14206539Y-12343841D01*
X14206539Y-12343841D02*
X14197015Y-12353365D01*
X14197015Y-12353365D02*
X14177967Y-12362889D01*
X14177967Y-12362889D02*
X14120824Y-12362889D01*
X14120824Y-12362889D02*
X14101777Y-12353365D01*
X14101777Y-12353365D02*
X14092253Y-12343841D01*
X14292253Y-12181936D02*
X14301777Y-12172413D01*
X14301777Y-12172413D02*
X14320824Y-12162889D01*
X14320824Y-12162889D02*
X14368443Y-12162889D01*
X14368443Y-12162889D02*
X14387491Y-12172413D01*
X14387491Y-12172413D02*
X14397015Y-12181936D01*
X14397015Y-12181936D02*
X14406539Y-12200984D01*
X14406539Y-12200984D02*
X14406539Y-12220032D01*
X14406539Y-12220032D02*
X14397015Y-12248603D01*
X14397015Y-12248603D02*
X14282729Y-12362889D01*
X14282729Y-12362889D02*
X14406539Y-12362889D01*
X14482729Y-12162889D02*
X14482729Y-12200984D01*
X14558920Y-12162889D02*
X14558920Y-12200984D01*
X14854158Y-12439079D02*
X14844634Y-12429555D01*
X14844634Y-12429555D02*
X14825586Y-12400984D01*
X14825586Y-12400984D02*
X14816063Y-12381936D01*
X14816063Y-12381936D02*
X14806539Y-12353365D01*
X14806539Y-12353365D02*
X14797015Y-12305746D01*
X14797015Y-12305746D02*
X14797015Y-12267651D01*
X14797015Y-12267651D02*
X14806539Y-12220032D01*
X14806539Y-12220032D02*
X14816063Y-12191460D01*
X14816063Y-12191460D02*
X14825586Y-12172413D01*
X14825586Y-12172413D02*
X14844634Y-12143841D01*
X14844634Y-12143841D02*
X14854158Y-12134317D01*
X15016063Y-12229555D02*
X15016063Y-12362889D01*
X14968443Y-12153365D02*
X14920824Y-12296222D01*
X14920824Y-12296222D02*
X15044634Y-12296222D01*
X15273205Y-12362889D02*
X15273205Y-12162889D01*
X15358920Y-12362889D02*
X15358920Y-12258127D01*
X15358920Y-12258127D02*
X15349396Y-12239079D01*
X15349396Y-12239079D02*
X15330348Y-12229555D01*
X15330348Y-12229555D02*
X15301777Y-12229555D01*
X15301777Y-12229555D02*
X15282729Y-12239079D01*
X15282729Y-12239079D02*
X15273205Y-12248603D01*
X15482729Y-12362889D02*
X15463682Y-12353365D01*
X15463682Y-12353365D02*
X15454158Y-12343841D01*
X15454158Y-12343841D02*
X15444634Y-12324793D01*
X15444634Y-12324793D02*
X15444634Y-12267651D01*
X15444634Y-12267651D02*
X15454158Y-12248603D01*
X15454158Y-12248603D02*
X15463682Y-12239079D01*
X15463682Y-12239079D02*
X15482729Y-12229555D01*
X15482729Y-12229555D02*
X15511301Y-12229555D01*
X15511301Y-12229555D02*
X15530348Y-12239079D01*
X15530348Y-12239079D02*
X15539872Y-12248603D01*
X15539872Y-12248603D02*
X15549396Y-12267651D01*
X15549396Y-12267651D02*
X15549396Y-12324793D01*
X15549396Y-12324793D02*
X15539872Y-12343841D01*
X15539872Y-12343841D02*
X15530348Y-12353365D01*
X15530348Y-12353365D02*
X15511301Y-12362889D01*
X15511301Y-12362889D02*
X15482729Y-12362889D01*
X15663682Y-12362889D02*
X15644634Y-12353365D01*
X15644634Y-12353365D02*
X15635110Y-12334317D01*
X15635110Y-12334317D02*
X15635110Y-12162889D01*
X15816063Y-12353365D02*
X15797015Y-12362889D01*
X15797015Y-12362889D02*
X15758920Y-12362889D01*
X15758920Y-12362889D02*
X15739872Y-12353365D01*
X15739872Y-12353365D02*
X15730348Y-12334317D01*
X15730348Y-12334317D02*
X15730348Y-12258127D01*
X15730348Y-12258127D02*
X15739872Y-12239079D01*
X15739872Y-12239079D02*
X15758920Y-12229555D01*
X15758920Y-12229555D02*
X15797015Y-12229555D01*
X15797015Y-12229555D02*
X15816063Y-12239079D01*
X15816063Y-12239079D02*
X15825586Y-12258127D01*
X15825586Y-12258127D02*
X15825586Y-12277174D01*
X15825586Y-12277174D02*
X15730348Y-12296222D01*
X15901777Y-12353365D02*
X15920825Y-12362889D01*
X15920825Y-12362889D02*
X15958920Y-12362889D01*
X15958920Y-12362889D02*
X15977967Y-12353365D01*
X15977967Y-12353365D02*
X15987491Y-12334317D01*
X15987491Y-12334317D02*
X15987491Y-12324793D01*
X15987491Y-12324793D02*
X15977967Y-12305746D01*
X15977967Y-12305746D02*
X15958920Y-12296222D01*
X15958920Y-12296222D02*
X15930348Y-12296222D01*
X15930348Y-12296222D02*
X15911301Y-12286698D01*
X15911301Y-12286698D02*
X15901777Y-12267651D01*
X15901777Y-12267651D02*
X15901777Y-12258127D01*
X15901777Y-12258127D02*
X15911301Y-12239079D01*
X15911301Y-12239079D02*
X15930348Y-12229555D01*
X15930348Y-12229555D02*
X15958920Y-12229555D01*
X15958920Y-12229555D02*
X15977967Y-12239079D01*
X16054158Y-12439079D02*
X16063682Y-12429555D01*
X16063682Y-12429555D02*
X16082729Y-12400984D01*
X16082729Y-12400984D02*
X16092253Y-12381936D01*
X16092253Y-12381936D02*
X16101777Y-12353365D01*
X16101777Y-12353365D02*
X16111301Y-12305746D01*
X16111301Y-12305746D02*
X16111301Y-12267651D01*
X16111301Y-12267651D02*
X16101777Y-12220032D01*
X16101777Y-12220032D02*
X16092253Y-12191460D01*
X16092253Y-12191460D02*
X16082729Y-12172413D01*
X16082729Y-12172413D02*
X16063682Y-12143841D01*
X16063682Y-12143841D02*
X16054158Y-12134317D01*
M02*
