%TF.GenerationSoftware,KiCad,Pcbnew,9.0.7*%
%TF.CreationDate,2026-05-07T13:12:25-05:00*%
%TF.ProjectId,power_management_test,706f7765-725f-46d6-916e-6167656d656e,rev?*%
%TF.SameCoordinates,Original*%
%TF.FileFunction,Copper,L1,Top*%
%TF.FilePolarity,Positive*%
%FSLAX46Y46*%
G04 Gerber Fmt 4.6, Leading zero omitted, Abs format (unit mm)*
G04 Created by KiCad (PCBNEW 9.0.7) date 2026-05-07 13:12:25*
%MOMM*%
%LPD*%
G01*
G04 APERTURE LIST*
G04 Aperture macros list*
%AMRoundRect*
0 Rectangle with rounded corners*
0 $1 Rounding radius*
0 $2 $3 $4 $5 $6 $7 $8 $9 X,Y pos of 4 corners*
0 Add a 4 corners polygon primitive as box body*
4,1,4,$2,$3,$4,$5,$6,$7,$8,$9,$2,$3,0*
0 Add four circle primitives for the rounded corners*
1,1,$1+$1,$2,$3*
1,1,$1+$1,$4,$5*
1,1,$1+$1,$6,$7*
1,1,$1+$1,$8,$9*
0 Add four rect primitives between the rounded corners*
20,1,$1+$1,$2,$3,$4,$5,0*
20,1,$1+$1,$4,$5,$6,$7,0*
20,1,$1+$1,$6,$7,$8,$9,0*
20,1,$1+$1,$8,$9,$2,$3,0*%
G04 Aperture macros list end*
%TA.AperFunction,Conductor*%
%ADD10C,0.254000*%
%TD*%
%TA.AperFunction,ComponentPad*%
%ADD11O,2.400000X1.600000*%
%TD*%
%TA.AperFunction,ComponentPad*%
%ADD12RoundRect,0.250000X-0.950000X-0.550000X0.950000X-0.550000X0.950000X0.550000X-0.950000X0.550000X0*%
%TD*%
%TA.AperFunction,SMDPad,CuDef*%
%ADD13RoundRect,0.237500X0.237500X-0.300000X0.237500X0.300000X-0.237500X0.300000X-0.237500X-0.300000X0*%
%TD*%
%TA.AperFunction,SMDPad,CuDef*%
%ADD14RoundRect,0.237500X0.237500X-0.250000X0.237500X0.250000X-0.237500X0.250000X-0.237500X-0.250000X0*%
%TD*%
%TA.AperFunction,SMDPad,CuDef*%
%ADD15RoundRect,0.237500X-0.287500X-0.237500X0.287500X-0.237500X0.287500X0.237500X-0.287500X0.237500X0*%
%TD*%
%TA.AperFunction,ComponentPad*%
%ADD16RoundRect,0.250002X-1.499998X1.499998X-1.499998X-1.499998X1.499998X-1.499998X1.499998X1.499998X0*%
%TD*%
%TA.AperFunction,ComponentPad*%
%ADD17C,3.500000*%
%TD*%
%TA.AperFunction,SMDPad,CuDef*%
%ADD18RoundRect,0.237500X-0.237500X0.250000X-0.237500X-0.250000X0.237500X-0.250000X0.237500X0.250000X0*%
%TD*%
%TA.AperFunction,SMDPad,CuDef*%
%ADD19RoundRect,0.237500X-0.300000X-0.237500X0.300000X-0.237500X0.300000X0.237500X-0.300000X0.237500X0*%
%TD*%
%TA.AperFunction,SMDPad,CuDef*%
%ADD20RoundRect,0.249999X-1.425001X0.450001X-1.425001X-0.450001X1.425001X-0.450001X1.425001X0.450001X0*%
%TD*%
%TA.AperFunction,SMDPad,CuDef*%
%ADD21RoundRect,0.250000X0.337500X0.475000X-0.337500X0.475000X-0.337500X-0.475000X0.337500X-0.475000X0*%
%TD*%
%TA.AperFunction,SMDPad,CuDef*%
%ADD22RoundRect,0.237500X0.250000X0.237500X-0.250000X0.237500X-0.250000X-0.237500X0.250000X-0.237500X0*%
%TD*%
%TA.AperFunction,SMDPad,CuDef*%
%ADD23RoundRect,0.250000X-0.337500X-0.475000X0.337500X-0.475000X0.337500X0.475000X-0.337500X0.475000X0*%
%TD*%
%TA.AperFunction,SMDPad,CuDef*%
%ADD24RoundRect,0.250000X-0.275000X-0.350000X0.275000X-0.350000X0.275000X0.350000X-0.275000X0.350000X0*%
%TD*%
%TA.AperFunction,SMDPad,CuDef*%
%ADD25RoundRect,0.050000X0.100000X-0.285000X0.100000X0.285000X-0.100000X0.285000X-0.100000X-0.285000X0*%
%TD*%
%TA.AperFunction,SMDPad,CuDef*%
%ADD26RoundRect,0.237500X-0.237500X0.300000X-0.237500X-0.300000X0.237500X-0.300000X0.237500X0.300000X0*%
%TD*%
%TA.AperFunction,ComponentPad*%
%ADD27RoundRect,0.250002X-1.499998X-1.499998X1.499998X-1.499998X1.499998X1.499998X-1.499998X1.499998X0*%
%TD*%
%TA.AperFunction,SMDPad,CuDef*%
%ADD28RoundRect,0.250000X-0.450000X0.350000X-0.450000X-0.350000X0.450000X-0.350000X0.450000X0.350000X0*%
%TD*%
%TA.AperFunction,ComponentPad*%
%ADD29RoundRect,0.249998X-3.250002X3.250002X-3.250002X-3.250002X3.250002X-3.250002X3.250002X3.250002X0*%
%TD*%
%TA.AperFunction,ComponentPad*%
%ADD30C,7.000000*%
%TD*%
%TA.AperFunction,SMDPad,CuDef*%
%ADD31RoundRect,0.150000X-0.150000X0.512500X-0.150000X-0.512500X0.150000X-0.512500X0.150000X0.512500X0*%
%TD*%
%TA.AperFunction,ComponentPad*%
%ADD32RoundRect,0.250002X1.499998X-1.499998X1.499998X1.499998X-1.499998X1.499998X-1.499998X-1.499998X0*%
%TD*%
%TA.AperFunction,ComponentPad*%
%ADD33RoundRect,0.225000X0.475000X-0.225000X0.475000X0.225000X-0.475000X0.225000X-0.475000X-0.225000X0*%
%TD*%
%TA.AperFunction,ComponentPad*%
%ADD34O,1.400000X0.900000*%
%TD*%
%TA.AperFunction,ComponentPad*%
%ADD35RoundRect,0.249998X3.250002X-3.250002X3.250002X3.250002X-3.250002X3.250002X-3.250002X-3.250002X0*%
%TD*%
%TA.AperFunction,ViaPad*%
%ADD36C,0.457200*%
%TD*%
%TA.AperFunction,Conductor*%
%ADD37C,0.152400*%
%TD*%
%TA.AperFunction,Conductor*%
%ADD38C,0.762000*%
%TD*%
%TA.AperFunction,Profile*%
%ADD39C,0.038100*%
%TD*%
G04 APERTURE END LIST*
D10*
%TO.N,/V_bat*%
X126790000Y-64298665D02*
X123640000Y-67448665D01*
X123640000Y-67463669D01*
X123650000Y-67473669D01*
X118630319Y-67473669D01*
X118630319Y-65049681D01*
X118648908Y-63737581D01*
X126198606Y-63707271D01*
X126790000Y-64298665D01*
%TA.AperFunction,Conductor*%
G36*
X126790000Y-64298665D02*
G01*
X123640000Y-67448665D01*
X123640000Y-67463669D01*
X123650000Y-67473669D01*
X118630319Y-67473669D01*
X118630319Y-65049681D01*
X118648908Y-63737581D01*
X126198606Y-63707271D01*
X126790000Y-64298665D01*
G37*
%TD.AperFunction*%
%TO.N,/V_bat_in*%
X121972731Y-62650000D02*
X121920000Y-62650000D01*
X119450221Y-62650000D01*
X119297053Y-62505431D01*
X119329663Y-54940266D01*
X121238196Y-53050000D01*
X121922731Y-53050000D01*
X121972731Y-62650000D01*
%TA.AperFunction,Conductor*%
G36*
X121972731Y-62650000D02*
G01*
X121920000Y-62650000D01*
X119450221Y-62650000D01*
X119297053Y-62505431D01*
X119329663Y-54940266D01*
X121238196Y-53050000D01*
X121922731Y-53050000D01*
X121972731Y-62650000D01*
G37*
%TD.AperFunction*%
X134951261Y-53051261D02*
X121139454Y-53148868D01*
X122015789Y-52250000D01*
X134150000Y-52250000D01*
X134951261Y-53051261D01*
%TA.AperFunction,Conductor*%
G36*
X134951261Y-53051261D02*
G01*
X121139454Y-53148868D01*
X122015789Y-52250000D01*
X134150000Y-52250000D01*
X134951261Y-53051261D01*
G37*
%TD.AperFunction*%
X135880000Y-53980000D02*
X135880000Y-60470000D01*
X135400000Y-60950000D01*
X128440000Y-60950000D01*
X127480000Y-59990000D01*
X127480000Y-58250000D01*
X125250000Y-56020000D01*
X122120000Y-56020000D01*
X122070000Y-55970000D01*
X122070000Y-53050000D01*
X122170000Y-53050000D01*
X134950000Y-53050000D01*
X135880000Y-53980000D01*
%TA.AperFunction,Conductor*%
G36*
X135880000Y-53980000D02*
G01*
X135880000Y-60470000D01*
X135400000Y-60950000D01*
X128440000Y-60950000D01*
X127480000Y-59990000D01*
X127480000Y-58250000D01*
X125250000Y-56020000D01*
X122120000Y-56020000D01*
X122070000Y-55970000D01*
X122070000Y-53050000D01*
X122170000Y-53050000D01*
X134950000Y-53050000D01*
X135880000Y-53980000D01*
G37*
%TD.AperFunction*%
%TO.N,GND*%
X157825000Y-56700000D02*
X157800000Y-58400000D01*
X157702347Y-71875000D01*
X151269266Y-71875000D01*
X151300000Y-55125000D01*
X156125000Y-55025000D01*
X157825000Y-56700000D01*
%TA.AperFunction,Conductor*%
G36*
X157825000Y-56700000D02*
G01*
X157800000Y-58400000D01*
X157702347Y-71875000D01*
X151269266Y-71875000D01*
X151300000Y-55125000D01*
X156125000Y-55025000D01*
X157825000Y-56700000D01*
G37*
%TD.AperFunction*%
%TO.N,/V_bat_in*%
X128523010Y-62650000D02*
X128054934Y-62650000D01*
X128054934Y-60724344D01*
X128094934Y-60684344D01*
X130327124Y-60684344D01*
X128523010Y-62650000D01*
%TA.AperFunction,Conductor*%
G36*
X128523010Y-62650000D02*
G01*
X128054934Y-62650000D01*
X128054934Y-60724344D01*
X128094934Y-60684344D01*
X130327124Y-60684344D01*
X128523010Y-62650000D01*
G37*
%TD.AperFunction*%
%TO.N,/V_bat*%
X135880000Y-62080000D02*
X135880000Y-64110000D01*
X134500000Y-65490000D01*
X126320000Y-65490000D01*
X125691335Y-64861335D01*
X125691335Y-63710000D01*
X128890000Y-63710000D01*
X130730000Y-61870000D01*
X135670000Y-61870000D01*
X135880000Y-62080000D01*
%TA.AperFunction,Conductor*%
G36*
X135880000Y-62080000D02*
G01*
X135880000Y-64110000D01*
X134500000Y-65490000D01*
X126320000Y-65490000D01*
X125691335Y-64861335D01*
X125691335Y-63710000D01*
X128890000Y-63710000D01*
X130730000Y-61870000D01*
X135670000Y-61870000D01*
X135880000Y-62080000D01*
G37*
%TD.AperFunction*%
X118441089Y-78940000D02*
X115452407Y-75951318D01*
X115550000Y-54550000D01*
X117040000Y-54530000D01*
X118540000Y-54510000D01*
X118441089Y-78940000D01*
%TA.AperFunction,Conductor*%
G36*
X118441089Y-78940000D02*
G01*
X115452407Y-75951318D01*
X115550000Y-54550000D01*
X117040000Y-54530000D01*
X118540000Y-54510000D01*
X118441089Y-78940000D01*
G37*
%TD.AperFunction*%
X121300000Y-81730000D02*
X121260000Y-81770000D01*
X118430000Y-78940000D01*
X121300000Y-78940000D01*
X121300000Y-81730000D01*
%TA.AperFunction,Conductor*%
G36*
X121300000Y-81730000D02*
G01*
X121260000Y-81770000D01*
X118430000Y-78940000D01*
X121300000Y-78940000D01*
X121300000Y-81730000D01*
G37*
%TD.AperFunction*%
X149900000Y-59025000D02*
X147400000Y-58235526D01*
X147400000Y-56525000D01*
X149900000Y-54025000D01*
X149900000Y-59025000D01*
%TA.AperFunction,Conductor*%
G36*
X149900000Y-59025000D02*
G01*
X147400000Y-58235526D01*
X147400000Y-56525000D01*
X149900000Y-54025000D01*
X149900000Y-59025000D01*
G37*
%TD.AperFunction*%
%TO.N,Net-(U502-SW)*%
X157375000Y-76075000D02*
X157375000Y-77675000D01*
X157275000Y-77975000D01*
X151575000Y-77975000D01*
X152375000Y-77175000D01*
X154275000Y-77175000D01*
X155275000Y-75975000D01*
X157275000Y-75975000D01*
X157375000Y-76075000D01*
%TA.AperFunction,Conductor*%
G36*
X157375000Y-76075000D02*
G01*
X157375000Y-77675000D01*
X157275000Y-77975000D01*
X151575000Y-77975000D01*
X152375000Y-77175000D01*
X154275000Y-77175000D01*
X155275000Y-75975000D01*
X157275000Y-75975000D01*
X157375000Y-76075000D01*
G37*
%TD.AperFunction*%
%TO.N,3V3*%
X166700000Y-52825000D02*
X166700000Y-57025000D01*
X162400000Y-61325000D01*
X160340000Y-61325000D01*
X159200000Y-60185000D01*
X159200000Y-52725000D01*
X160400000Y-51525000D01*
X165400000Y-51525000D01*
X166700000Y-52825000D01*
%TA.AperFunction,Conductor*%
G36*
X166700000Y-52825000D02*
G01*
X166700000Y-57025000D01*
X162400000Y-61325000D01*
X160340000Y-61325000D01*
X159200000Y-60185000D01*
X159200000Y-52725000D01*
X160400000Y-51525000D01*
X165400000Y-51525000D01*
X166700000Y-52825000D01*
G37*
%TD.AperFunction*%
%TO.N,/V_bat*%
X149330000Y-83650000D02*
X149330000Y-83945000D01*
X147555000Y-85720000D01*
X127510000Y-85720000D01*
X127350000Y-85560000D01*
X127350000Y-85120000D01*
X127980000Y-84490000D01*
X128000000Y-84510000D01*
X145910000Y-84510000D01*
X147240000Y-83180000D01*
X148860000Y-83180000D01*
X149330000Y-83650000D01*
%TA.AperFunction,Conductor*%
G36*
X149330000Y-83650000D02*
G01*
X149330000Y-83945000D01*
X147555000Y-85720000D01*
X127510000Y-85720000D01*
X127350000Y-85560000D01*
X127350000Y-85120000D01*
X127980000Y-84490000D01*
X128000000Y-84510000D01*
X145910000Y-84510000D01*
X147240000Y-83180000D01*
X148860000Y-83180000D01*
X149330000Y-83650000D01*
G37*
%TD.AperFunction*%
%TO.N,GND*%
X157850000Y-89325000D02*
X152412500Y-94762500D01*
X141987500Y-94762500D01*
X151500000Y-85250000D01*
X153775000Y-85250000D01*
X157850000Y-89325000D01*
%TA.AperFunction,Conductor*%
G36*
X157850000Y-89325000D02*
G01*
X152412500Y-94762500D01*
X141987500Y-94762500D01*
X151500000Y-85250000D01*
X153775000Y-85250000D01*
X157850000Y-89325000D01*
G37*
%TD.AperFunction*%
X150600000Y-45925000D02*
X150600000Y-47025000D01*
X150300000Y-47325000D01*
X148000000Y-47325000D01*
X147700000Y-47025000D01*
X147700000Y-45925000D01*
X147900000Y-45725000D01*
X150400000Y-45725000D01*
X150600000Y-45925000D01*
%TA.AperFunction,Conductor*%
G36*
X150600000Y-45925000D02*
G01*
X150600000Y-47025000D01*
X150300000Y-47325000D01*
X148000000Y-47325000D01*
X147700000Y-47025000D01*
X147700000Y-45925000D01*
X147900000Y-45725000D01*
X150400000Y-45725000D01*
X150600000Y-45925000D01*
G37*
%TD.AperFunction*%
X157900000Y-81650000D02*
X157875000Y-83350000D01*
X157850000Y-89325000D01*
X151500000Y-89325000D01*
X151375000Y-80075000D01*
X156200000Y-79975000D01*
X157900000Y-81650000D01*
%TA.AperFunction,Conductor*%
G36*
X157900000Y-81650000D02*
G01*
X157875000Y-83350000D01*
X157850000Y-89325000D01*
X151500000Y-89325000D01*
X151375000Y-80075000D01*
X156200000Y-79975000D01*
X157900000Y-81650000D01*
G37*
%TD.AperFunction*%
%TO.N,/V_bat*%
X124075000Y-78950000D02*
X118484440Y-78937273D01*
X118434801Y-67480444D01*
X124050165Y-67448665D01*
X124075000Y-78950000D01*
%TA.AperFunction,Conductor*%
G36*
X124075000Y-78950000D02*
G01*
X118484440Y-78937273D01*
X118434801Y-67480444D01*
X124050165Y-67448665D01*
X124075000Y-78950000D01*
G37*
%TD.AperFunction*%
X143070000Y-58680000D02*
X143220000Y-59410000D01*
X142950000Y-59680000D01*
X142770000Y-59680000D01*
X141280000Y-58190000D01*
X141280000Y-58090000D01*
X141420000Y-57950000D01*
X143070000Y-57950000D01*
X143070000Y-58680000D01*
%TA.AperFunction,Conductor*%
G36*
X143070000Y-58680000D02*
G01*
X143220000Y-59410000D01*
X142950000Y-59680000D01*
X142770000Y-59680000D01*
X141280000Y-58190000D01*
X141280000Y-58090000D01*
X141420000Y-57950000D01*
X143070000Y-57950000D01*
X143070000Y-58680000D01*
G37*
%TD.AperFunction*%
%TO.N,GND*%
X145975000Y-65925000D02*
X145675000Y-65925000D01*
X142425000Y-69175000D01*
X142425000Y-69625000D01*
X142125000Y-69925000D01*
X140650000Y-69925000D01*
X140525000Y-69800000D01*
X140525000Y-66325000D01*
X145800000Y-61050000D01*
X150850000Y-61050000D01*
X145975000Y-65925000D01*
%TA.AperFunction,Conductor*%
G36*
X145975000Y-65925000D02*
G01*
X145675000Y-65925000D01*
X142425000Y-69175000D01*
X142425000Y-69625000D01*
X142125000Y-69925000D01*
X140650000Y-69925000D01*
X140525000Y-69800000D01*
X140525000Y-66325000D01*
X145800000Y-61050000D01*
X150850000Y-61050000D01*
X145975000Y-65925000D01*
G37*
%TD.AperFunction*%
%TO.N,/V_bat*%
X125540000Y-78950000D02*
X124760000Y-79730000D01*
X124075000Y-79730000D01*
X123710000Y-79365000D01*
X123710000Y-77120000D01*
X125540000Y-78950000D01*
%TA.AperFunction,Conductor*%
G36*
X125540000Y-78950000D02*
G01*
X124760000Y-79730000D01*
X124075000Y-79730000D01*
X123710000Y-79365000D01*
X123710000Y-77120000D01*
X125540000Y-78950000D01*
G37*
%TD.AperFunction*%
X143070000Y-57125000D02*
X143070000Y-57950000D01*
X142640000Y-58380000D01*
X141480000Y-58380000D01*
X134510000Y-51410000D01*
X121640000Y-51410000D01*
X118500000Y-54550000D01*
X115550000Y-54550000D01*
X115550000Y-51800000D01*
X117610000Y-49740000D01*
X135685000Y-49740000D01*
X143070000Y-57125000D01*
%TA.AperFunction,Conductor*%
G36*
X143070000Y-57125000D02*
G01*
X143070000Y-57950000D01*
X142640000Y-58380000D01*
X141480000Y-58380000D01*
X134510000Y-51410000D01*
X121640000Y-51410000D01*
X118500000Y-54550000D01*
X115550000Y-54550000D01*
X115550000Y-51800000D01*
X117610000Y-49740000D01*
X135685000Y-49740000D01*
X143070000Y-57125000D01*
G37*
%TD.AperFunction*%
X150145000Y-84028691D02*
X147475000Y-83185526D01*
X147475000Y-81475000D01*
X150130000Y-80030000D01*
X150145000Y-84028691D01*
%TA.AperFunction,Conductor*%
G36*
X150145000Y-84028691D02*
G01*
X147475000Y-83185526D01*
X147475000Y-81475000D01*
X150130000Y-80030000D01*
X150145000Y-84028691D01*
G37*
%TD.AperFunction*%
%TO.N,GND*%
X140525000Y-66325000D02*
X140500000Y-66325000D01*
X140500000Y-62700000D01*
X142150000Y-61050000D01*
X145800000Y-61050000D01*
X140525000Y-66325000D01*
%TA.AperFunction,Conductor*%
G36*
X140525000Y-66325000D02*
G01*
X140500000Y-66325000D01*
X140500000Y-62700000D01*
X142150000Y-61050000D01*
X145800000Y-61050000D01*
X140525000Y-66325000D01*
G37*
%TD.AperFunction*%
X152942500Y-94232500D02*
X148885000Y-98290000D01*
X126895858Y-98290000D01*
X126930000Y-94210000D01*
X152942500Y-94232500D01*
%TA.AperFunction,Conductor*%
G36*
X152942500Y-94232500D02*
G01*
X148885000Y-98290000D01*
X126895858Y-98290000D01*
X126930000Y-94210000D01*
X152942500Y-94232500D01*
G37*
%TD.AperFunction*%
X150675000Y-70875000D02*
X150675000Y-71975000D01*
X150375000Y-72275000D01*
X148075000Y-72275000D01*
X147775000Y-71975000D01*
X147775000Y-70875000D01*
X147975000Y-70675000D01*
X150475000Y-70675000D01*
X150675000Y-70875000D01*
%TA.AperFunction,Conductor*%
G36*
X150675000Y-70875000D02*
G01*
X150675000Y-71975000D01*
X150375000Y-72275000D01*
X148075000Y-72275000D01*
X147775000Y-71975000D01*
X147775000Y-70875000D01*
X147975000Y-70675000D01*
X150475000Y-70675000D01*
X150675000Y-70875000D01*
G37*
%TD.AperFunction*%
%TO.N,/V_bat*%
X150230000Y-58650000D02*
X150230000Y-59460000D01*
X149733499Y-59956501D01*
X143130000Y-60040000D01*
X142430608Y-59340000D01*
X146140000Y-59340000D01*
X147244474Y-58235526D01*
X149815526Y-58235526D01*
X150230000Y-58650000D01*
%TA.AperFunction,Conductor*%
G36*
X150230000Y-58650000D02*
G01*
X150230000Y-59460000D01*
X149733499Y-59956501D01*
X143130000Y-60040000D01*
X142430608Y-59340000D01*
X146140000Y-59340000D01*
X147244474Y-58235526D01*
X149815526Y-58235526D01*
X150230000Y-58650000D01*
G37*
%TD.AperFunction*%
%TO.N,GND*%
X157425000Y-66200000D02*
X146100158Y-66175329D01*
X145375000Y-66175329D01*
X145375000Y-66175000D01*
X151250000Y-60300000D01*
X151250000Y-60275000D01*
X151500000Y-60275000D01*
X157425000Y-66200000D01*
%TA.AperFunction,Conductor*%
G36*
X157425000Y-66200000D02*
G01*
X146100158Y-66175329D01*
X145375000Y-66175329D01*
X145375000Y-66175000D01*
X151250000Y-60300000D01*
X151250000Y-60275000D01*
X151500000Y-60275000D01*
X157425000Y-66200000D01*
G37*
%TD.AperFunction*%
%TO.N,Net-(U501-SW)*%
X157300000Y-51125000D02*
X157300000Y-52725000D01*
X157200000Y-53025000D01*
X151500000Y-53025000D01*
X152300000Y-52225000D01*
X154200000Y-52225000D01*
X155200000Y-51025000D01*
X157200000Y-51025000D01*
X157300000Y-51125000D01*
%TA.AperFunction,Conductor*%
G36*
X157300000Y-51125000D02*
G01*
X157300000Y-52725000D01*
X157200000Y-53025000D01*
X151500000Y-53025000D01*
X152300000Y-52225000D01*
X154200000Y-52225000D01*
X155200000Y-51025000D01*
X157200000Y-51025000D01*
X157300000Y-51125000D01*
G37*
%TD.AperFunction*%
%TO.N,GND*%
X158050000Y-68525000D02*
X158050000Y-69350000D01*
X157762500Y-69637500D01*
X156625000Y-68500000D01*
X157125000Y-68500000D01*
X158025000Y-68500000D01*
X158050000Y-68525000D01*
%TA.AperFunction,Conductor*%
G36*
X158050000Y-68525000D02*
G01*
X158050000Y-69350000D01*
X157762500Y-69637500D01*
X156625000Y-68500000D01*
X157125000Y-68500000D01*
X158025000Y-68500000D01*
X158050000Y-68525000D01*
G37*
%TD.AperFunction*%
%TO.N,5V*%
X166775000Y-77775000D02*
X166775000Y-81975000D01*
X162650000Y-86100000D01*
X160220000Y-86100000D01*
X159275000Y-85155000D01*
X159275000Y-77675000D01*
X160475000Y-76475000D01*
X165475000Y-76475000D01*
X166775000Y-77775000D01*
%TA.AperFunction,Conductor*%
G36*
X166775000Y-77775000D02*
G01*
X166775000Y-81975000D01*
X162650000Y-86100000D01*
X160220000Y-86100000D01*
X159275000Y-85155000D01*
X159275000Y-77675000D01*
X160475000Y-76475000D01*
X165475000Y-76475000D01*
X166775000Y-77775000D01*
G37*
%TD.AperFunction*%
%TD*%
D11*
%TO.P,U504,8,V+*%
%TO.N,3V3*%
X137400000Y-67200000D03*
%TO.P,U504,7*%
%TO.N,/CURRENT_SENSE*%
X137400000Y-69740000D03*
%TO.P,U504,6,-*%
X137400000Y-72280000D03*
%TO.P,U504,5,+*%
%TO.N,Net-(U504B-+)*%
X137400000Y-74820000D03*
%TO.P,U504,4,V-*%
%TO.N,GND*%
X129780000Y-74820000D03*
%TO.P,U504,3,+*%
%TO.N,Net-(U504A-+)*%
X129780000Y-72280000D03*
%TO.P,U504,2,-*%
%TO.N,/VOLTAGE_SENSE*%
X129780000Y-69740000D03*
D12*
%TO.P,U504,1*%
X129780000Y-67200000D03*
%TD*%
D13*
%TO.P,C508,1*%
%TO.N,Net-(C508-Pad1)*%
X146400000Y-48487500D03*
%TO.P,C508,2*%
%TO.N,3V3*%
X146400000Y-46762500D03*
%TD*%
%TO.P,C511,1*%
%TO.N,Net-(U502-SS)*%
X149975000Y-73437500D03*
%TO.P,C511,2*%
%TO.N,GND*%
X149975000Y-71712500D03*
%TD*%
D14*
%TO.P,R506,1*%
%TO.N,Net-(C508-Pad1)*%
X144800000Y-48537500D03*
%TO.P,R506,2*%
%TO.N,3V3*%
X144800000Y-46712500D03*
%TD*%
D15*
%TO.P,D2,1,K*%
%TO.N,GND*%
X157175000Y-63975000D03*
%TO.P,D2,2,A*%
%TO.N,Net-(D2-A)*%
X158925000Y-63975000D03*
%TD*%
D16*
%TO.P,J6,1,Pin_1*%
%TO.N,/VOLTAGE_SENSE*%
X132075000Y-81850000D03*
D17*
%TO.P,J6,2,Pin_2*%
X132075000Y-88850000D03*
%TD*%
D16*
%TO.P,J7,1,Pin_1*%
%TO.N,/CURRENT_SENSE*%
X138150000Y-81850000D03*
D17*
%TO.P,J7,2,Pin_2*%
X138150000Y-88850000D03*
%TD*%
D18*
%TO.P,R511,1*%
%TO.N,GND*%
X148475000Y-71662500D03*
%TO.P,R511,2*%
%TO.N,Net-(C515-Pad1)*%
X148475000Y-73487500D03*
%TD*%
D15*
%TO.P,D1,1,K*%
%TO.N,GND*%
X157375000Y-88950000D03*
%TO.P,D1,2,A*%
%TO.N,Net-(D1-A)*%
X159125000Y-88950000D03*
%TD*%
D19*
%TO.P,C510,1*%
%TO.N,/V_bat*%
X149712500Y-83975000D03*
%TO.P,C510,2*%
%TO.N,GND*%
X151437500Y-83975000D03*
%TD*%
D20*
%TO.P,R515,1*%
%TO.N,/V_bat_in*%
X132310000Y-56770000D03*
%TO.P,R515,2*%
%TO.N,/V_bat*%
X132310000Y-62870000D03*
%TD*%
D21*
%TO.P,C513,1*%
%TO.N,5V*%
X159262500Y-82425000D03*
%TO.P,C513,2*%
%TO.N,GND*%
X157187500Y-82425000D03*
%TD*%
D14*
%TO.P,R508,1*%
%TO.N,Net-(U502-EN)*%
X146175000Y-79187500D03*
%TO.P,R508,2*%
%TO.N,GND*%
X146175000Y-77362500D03*
%TD*%
%TO.P,R516,1*%
%TO.N,Net-(U504B-+)*%
X137800000Y-57962500D03*
%TO.P,R516,2*%
%TO.N,GND*%
X137800000Y-56137500D03*
%TD*%
D22*
%TO.P,R510,1*%
%TO.N,Net-(U502-FB)*%
X147387500Y-75775000D03*
%TO.P,R510,2*%
%TO.N,Net-(C515-Pad1)*%
X145562500Y-75775000D03*
%TD*%
D23*
%TO.P,C509,1*%
%TO.N,/V_bat*%
X149672500Y-80590000D03*
%TO.P,C509,2*%
%TO.N,GND*%
X151747500Y-80590000D03*
%TD*%
D14*
%TO.P,R512,1*%
%TO.N,Net-(C515-Pad1)*%
X144875000Y-73487500D03*
%TO.P,R512,2*%
%TO.N,5V*%
X144875000Y-71662500D03*
%TD*%
D21*
%TO.P,C514,1*%
%TO.N,5V*%
X159262500Y-84510000D03*
%TO.P,C514,2*%
%TO.N,GND*%
X157187500Y-84510000D03*
%TD*%
D19*
%TO.P,C518,1*%
%TO.N,3V3*%
X139662500Y-69125000D03*
%TO.P,C518,2*%
%TO.N,GND*%
X141387500Y-69125000D03*
%TD*%
D14*
%TO.P,R503,1*%
%TO.N,Net-(U501-PG)*%
X144300000Y-58037500D03*
%TO.P,R503,2*%
%TO.N,3V3*%
X144300000Y-56212500D03*
%TD*%
D13*
%TO.P,C515,1*%
%TO.N,Net-(C515-Pad1)*%
X146475000Y-73437500D03*
%TO.P,C515,2*%
%TO.N,5V*%
X146475000Y-71712500D03*
%TD*%
D24*
%TO.P,L502,1,1*%
%TO.N,Net-(U502-SW)*%
X156775000Y-76975000D03*
%TO.P,L502,2,2*%
%TO.N,5V*%
X159075000Y-76975000D03*
%TD*%
D25*
%TO.P,U502,1,PG*%
%TO.N,Net-(U502-PG)*%
X149475000Y-78605000D03*
%TO.P,U502,2,VIN*%
%TO.N,/V_bat*%
X149975000Y-78605000D03*
%TO.P,U502,3,SW*%
%TO.N,Net-(U502-SW)*%
X150475000Y-78605000D03*
%TO.P,U502,4,GND*%
%TO.N,GND*%
X150975000Y-78605000D03*
%TO.P,U502,5,BST*%
%TO.N,Net-(U502-BST)*%
X150975000Y-77125000D03*
%TO.P,U502,6,EN*%
%TO.N,Net-(U502-EN)*%
X150475000Y-77125000D03*
%TO.P,U502,7,SS*%
%TO.N,Net-(U502-SS)*%
X149975000Y-77125000D03*
%TO.P,U502,8,FB*%
%TO.N,Net-(U502-FB)*%
X149475000Y-77125000D03*
%TD*%
D19*
%TO.P,C503,1*%
%TO.N,/V_bat*%
X149637500Y-59025000D03*
%TO.P,C503,2*%
%TO.N,GND*%
X151362500Y-59025000D03*
%TD*%
D26*
%TO.P,C505,1*%
%TO.N,Net-(U501-BST)*%
X153580000Y-50962500D03*
%TO.P,C505,2*%
%TO.N,Net-(U501-SW)*%
X153580000Y-52687500D03*
%TD*%
D19*
%TO.P,C502,1*%
%TO.N,/V_bat*%
X149637500Y-57025000D03*
%TO.P,C502,2*%
%TO.N,GND*%
X151362500Y-57025000D03*
%TD*%
D14*
%TO.P,R517,1,1*%
%TO.N,Net-(D1-A)*%
X161700000Y-88962500D03*
%TO.P,R517,2,2*%
%TO.N,5V*%
X161700000Y-87137500D03*
%TD*%
D19*
%TO.P,C517,1*%
%TO.N,3V3*%
X139662500Y-66615000D03*
%TO.P,C517,2*%
%TO.N,GND*%
X141387500Y-66615000D03*
%TD*%
D22*
%TO.P,R504,1*%
%TO.N,Net-(U501-FB)*%
X147312500Y-50825000D03*
%TO.P,R504,2*%
%TO.N,Net-(C508-Pad1)*%
X145487500Y-50825000D03*
%TD*%
D27*
%TO.P,J505,1,Pin_1*%
%TO.N,GND*%
X167075000Y-43700000D03*
%TD*%
D14*
%TO.P,R518,1,1*%
%TO.N,Net-(D2-A)*%
X161800000Y-63987500D03*
%TO.P,R518,2,2*%
%TO.N,3V3*%
X161800000Y-62162500D03*
%TD*%
%TO.P,R502,1*%
%TO.N,Net-(U501-EN)*%
X146100000Y-54237500D03*
%TO.P,R502,2*%
%TO.N,GND*%
X146100000Y-52412500D03*
%TD*%
D21*
%TO.P,C506,1*%
%TO.N,3V3*%
X159187500Y-57475000D03*
%TO.P,C506,2*%
%TO.N,GND*%
X157112500Y-57475000D03*
%TD*%
D28*
%TO.P,R505,1*%
%TO.N,GND*%
X148400000Y-46625000D03*
%TO.P,R505,2*%
%TO.N,Net-(C508-Pad1)*%
X148400000Y-48625000D03*
%TD*%
D29*
%TO.P,J1,1,Pin_1*%
%TO.N,/V_bat*%
X124275000Y-82350000D03*
D30*
%TO.P,J1,2,Pin_2*%
%TO.N,GND*%
X124275000Y-96350000D03*
%TD*%
D26*
%TO.P,C512,1*%
%TO.N,Net-(U502-BST)*%
X153655000Y-75912500D03*
%TO.P,C512,2*%
%TO.N,Net-(U502-SW)*%
X153655000Y-77637500D03*
%TD*%
D18*
%TO.P,R514,1*%
%TO.N,Net-(U504A-+)*%
X125375000Y-69622500D03*
%TO.P,R514,2*%
%TO.N,GND*%
X125375000Y-71447500D03*
%TD*%
D22*
%TO.P,R507,1*%
%TO.N,/V_bat*%
X147987500Y-81975000D03*
%TO.P,R507,2*%
%TO.N,Net-(U502-EN)*%
X146162500Y-81975000D03*
%TD*%
D31*
%TO.P,U503,1*%
%TO.N,Net-(U504B-+)*%
X137450000Y-59850000D03*
%TO.P,U503,2,GND*%
%TO.N,GND*%
X136500000Y-59850000D03*
%TO.P,U503,3,+*%
%TO.N,/V_bat_in*%
X135550000Y-59850000D03*
%TO.P,U503,4,-*%
%TO.N,/V_bat*%
X135550000Y-62125000D03*
%TO.P,U503,5,V+*%
%TO.N,3V3*%
X137450000Y-62125000D03*
%TD*%
D18*
%TO.P,R513,1*%
%TO.N,/V_bat*%
X125375000Y-66012500D03*
%TO.P,R513,2*%
%TO.N,Net-(U504A-+)*%
X125375000Y-67837500D03*
%TD*%
D32*
%TO.P,J2,1,Pin_1*%
%TO.N,3V3*%
X167000000Y-58425000D03*
D17*
%TO.P,J2,2,Pin_2*%
X167000000Y-51425000D03*
%TD*%
D19*
%TO.P,C516,1*%
%TO.N,3V3*%
X138787500Y-62775000D03*
%TO.P,C516,2*%
%TO.N,GND*%
X140512500Y-62775000D03*
%TD*%
D24*
%TO.P,L501,1,1*%
%TO.N,Net-(U501-SW)*%
X156700000Y-52025000D03*
%TO.P,L501,2,2*%
%TO.N,3V3*%
X159000000Y-52025000D03*
%TD*%
D25*
%TO.P,U501,1,PG*%
%TO.N,Net-(U501-PG)*%
X149400000Y-53655000D03*
%TO.P,U501,2,VIN*%
%TO.N,/V_bat*%
X149900000Y-53655000D03*
%TO.P,U501,3,SW*%
%TO.N,Net-(U501-SW)*%
X150400000Y-53655000D03*
%TO.P,U501,4,GND*%
%TO.N,GND*%
X150900000Y-53655000D03*
%TO.P,U501,5,BST*%
%TO.N,Net-(U501-BST)*%
X150900000Y-52175000D03*
%TO.P,U501,6,EN*%
%TO.N,Net-(U501-EN)*%
X150400000Y-52175000D03*
%TO.P,U501,7,SS*%
%TO.N,Net-(U501-SS)*%
X149900000Y-52175000D03*
%TO.P,U501,8,FB*%
%TO.N,Net-(U501-FB)*%
X149400000Y-52175000D03*
%TD*%
D32*
%TO.P,J3,1,Pin_1*%
%TO.N,5V*%
X167075000Y-83375000D03*
D17*
%TO.P,J3,2,Pin_2*%
X167075000Y-76375000D03*
%TD*%
D19*
%TO.P,C501,1*%
%TO.N,/V_bat*%
X149637500Y-55125000D03*
%TO.P,C501,2*%
%TO.N,GND*%
X151362500Y-55125000D03*
%TD*%
D22*
%TO.P,R501,1*%
%TO.N,/V_bat*%
X147912500Y-57025000D03*
%TO.P,R501,2*%
%TO.N,Net-(U501-EN)*%
X146087500Y-57025000D03*
%TD*%
D14*
%TO.P,R509,1*%
%TO.N,Net-(U502-PG)*%
X144375000Y-82987500D03*
%TO.P,R509,2*%
%TO.N,5V*%
X144375000Y-81162500D03*
%TD*%
D33*
%TO.P,J5,1,Pin_1*%
%TO.N,GND*%
X167550000Y-70175000D03*
D34*
%TO.P,J5,2,Pin_2*%
X167550000Y-68925000D03*
%TO.P,J5,3,Pin_3*%
%TO.N,/VOLTAGE_SENSE*%
X167550000Y-67675000D03*
%TO.P,J5,4,Pin_4*%
%TO.N,/CURRENT_SENSE*%
X167550000Y-66425000D03*
%TO.P,J5,5,Pin_5*%
%TO.N,5V*%
X167550000Y-65175000D03*
%TO.P,J5,6,Pin_6*%
X167550000Y-63925000D03*
%TD*%
D35*
%TO.P,J4,1,Pin_1*%
%TO.N,/V_bat_in*%
X124800000Y-59275000D03*
D30*
%TO.P,J4,2,Pin_2*%
%TO.N,GND*%
X124800000Y-45275000D03*
%TD*%
D13*
%TO.P,C504,1*%
%TO.N,Net-(U501-SS)*%
X150080000Y-48487500D03*
%TO.P,C504,2*%
%TO.N,GND*%
X150080000Y-46762500D03*
%TD*%
D21*
%TO.P,C507,1*%
%TO.N,3V3*%
X159187500Y-59540000D03*
%TO.P,C507,2*%
%TO.N,GND*%
X157112500Y-59540000D03*
%TD*%
D36*
%TO.N,GND*%
X151437500Y-80075000D03*
X153575000Y-71275000D03*
X153775000Y-80075000D03*
X156325000Y-71275000D03*
X152500000Y-59025000D03*
X154975000Y-55175000D03*
X155050000Y-83975000D03*
X146100000Y-52412500D03*
X149200000Y-46712500D03*
X152625000Y-70425000D03*
X153555000Y-69670000D03*
X151625000Y-70425000D03*
X148400000Y-46712500D03*
X153775000Y-83975000D03*
X153575000Y-70425000D03*
X154450000Y-70425000D03*
X151475000Y-83975000D03*
X151362500Y-55125000D03*
X152605000Y-68820000D03*
X136500000Y-59850000D03*
X155390000Y-69660000D03*
X151650000Y-71275000D03*
X157275000Y-71250000D03*
X155000000Y-82000000D03*
X152500000Y-55125000D03*
X154450000Y-71275000D03*
X153700000Y-57040000D03*
X156350000Y-70425000D03*
X149900000Y-46762500D03*
X151400000Y-59025000D03*
X153700000Y-59025000D03*
X153555000Y-68820000D03*
X154975000Y-57050000D03*
X152605000Y-69670000D03*
X151605000Y-68820000D03*
X155375000Y-71275000D03*
X154975000Y-59025000D03*
X153800000Y-82000000D03*
X137800000Y-56137500D03*
X154430000Y-68820000D03*
X149975000Y-71712500D03*
X154430000Y-69670000D03*
X151362500Y-57025000D03*
X151630000Y-69670000D03*
X152575000Y-81975000D03*
X151437500Y-81975000D03*
X146175000Y-77362500D03*
X153700000Y-55125000D03*
X154950000Y-80125000D03*
X155400000Y-70425000D03*
X152575000Y-80075000D03*
X152625000Y-71275000D03*
X148475000Y-71662500D03*
X149275000Y-71662500D03*
X152500000Y-57025000D03*
X152575000Y-83975000D03*
%TO.N,3V3*%
X161600000Y-60725000D03*
X137450000Y-62125000D03*
X143612500Y-46712500D03*
%TO.N,5V*%
X161675000Y-85675000D03*
X143687500Y-71662500D03*
%TD*%
D37*
%TO.N,Net-(U504B-+)*%
X137450000Y-59850000D02*
X137450000Y-60921508D01*
X135800000Y-66800000D02*
X135800000Y-73220000D01*
X137450000Y-60921508D02*
X136350000Y-62021508D01*
X136350000Y-62021508D02*
X136350000Y-66250000D01*
X136350000Y-66250000D02*
X135800000Y-66800000D01*
X135800000Y-73220000D02*
X137400000Y-74820000D01*
D38*
%TO.N,/V_bat*%
X134485000Y-50010000D02*
X120600000Y-50010000D01*
X146173683Y-59425000D02*
X143900000Y-59425000D01*
X148650000Y-56948683D02*
X146173683Y-59425000D01*
X143900000Y-59425000D02*
X134485000Y-50010000D01*
X148650000Y-56525000D02*
X148650000Y-56948683D01*
X120600000Y-50010000D02*
X116991748Y-53618252D01*
X116991748Y-53618252D02*
X116991748Y-65691748D01*
X149637500Y-59025000D02*
X149637500Y-57025000D01*
X133200000Y-64475000D02*
X135550000Y-62125000D01*
X148725000Y-81898683D02*
X148725000Y-81475000D01*
X121225000Y-70162500D02*
X121225000Y-75625000D01*
X146063683Y-84560000D02*
X148725000Y-81898683D01*
X121343750Y-70043750D02*
X121225000Y-70162500D01*
X126485000Y-84560000D02*
X146063683Y-84560000D01*
X135550000Y-62125000D02*
X131380000Y-62125000D01*
X131380000Y-62125000D02*
X131225000Y-62280000D01*
X124275000Y-82350000D02*
X126485000Y-84560000D01*
X149637500Y-57025000D02*
X149637500Y-55125000D01*
D10*
X149975000Y-80287500D02*
X149672500Y-80590000D01*
X149900000Y-54862500D02*
X149637500Y-55125000D01*
D38*
X126912500Y-64475000D02*
X133200000Y-64475000D01*
D10*
X149900000Y-53655000D02*
X149900000Y-54862500D01*
X149975000Y-78605000D02*
X149975000Y-80287500D01*
D38*
%TO.N,GND*%
X129150000Y-96350000D02*
X131000000Y-94500000D01*
X142359600Y-69165400D02*
X152500000Y-59025000D01*
X154537500Y-61875000D02*
X154537500Y-60612500D01*
X157362500Y-82425000D02*
X157362500Y-81462500D01*
X167550000Y-70175000D02*
X167550000Y-68925000D01*
X153700000Y-59025000D02*
X157237500Y-59025000D01*
X157237500Y-59025000D02*
X157287500Y-58975000D01*
X125375000Y-71447500D02*
X125375000Y-71850000D01*
X155975000Y-80075000D02*
X153775000Y-80075000D01*
X144787500Y-94500000D02*
X154637500Y-84650000D01*
X131000000Y-94500000D02*
X144787500Y-94500000D01*
X152575000Y-83975000D02*
X153775000Y-83975000D01*
X137757127Y-76750000D02*
X142359600Y-72147527D01*
X157287500Y-57475000D02*
X157287500Y-58975000D01*
X151362500Y-59025000D02*
X151400000Y-59025000D01*
X129780000Y-74820000D02*
X131710000Y-76750000D01*
X158700000Y-70175000D02*
X158075000Y-69550000D01*
X152500000Y-59025000D02*
X153700000Y-59025000D01*
X152500000Y-55125000D02*
X151362500Y-55125000D01*
X151400000Y-59025000D02*
X152500000Y-59025000D01*
X125375000Y-71850000D02*
X128345000Y-74820000D01*
X153775000Y-83975000D02*
X157312500Y-83975000D01*
X151362500Y-55125000D02*
X151362500Y-53933100D01*
X167550000Y-70175000D02*
X158700000Y-70175000D01*
X157312500Y-83975000D02*
X157362500Y-83925000D01*
X149925000Y-71662500D02*
X149975000Y-71712500D01*
X157287500Y-57475000D02*
X157287500Y-56512500D01*
X148475000Y-71662500D02*
X149275000Y-71662500D01*
X152575000Y-80075000D02*
X151437500Y-80075000D01*
X153700000Y-55125000D02*
X152500000Y-55125000D01*
X158075000Y-69550000D02*
X158075000Y-65412500D01*
X149850000Y-46712500D02*
X149900000Y-46762500D01*
X157362500Y-82425000D02*
X157362500Y-83925000D01*
X157362500Y-81462500D02*
X155975000Y-80075000D01*
X142359600Y-72147527D02*
X142359600Y-69165400D01*
X149275000Y-71662500D02*
X149925000Y-71662500D01*
X149200000Y-46712500D02*
X149850000Y-46712500D01*
X128345000Y-74820000D02*
X129780000Y-74820000D01*
X151437500Y-83975000D02*
X151475000Y-83975000D01*
X157287500Y-56512500D02*
X155900000Y-55125000D01*
X151362500Y-55125000D02*
X151362500Y-57025000D01*
X131710000Y-76750000D02*
X137757127Y-76750000D01*
X155900000Y-55125000D02*
X153700000Y-55125000D01*
X151437500Y-80075000D02*
X151437500Y-78883100D01*
X148400000Y-46712500D02*
X149200000Y-46712500D01*
X151437500Y-81975000D02*
X151437500Y-83975000D01*
X158075000Y-65412500D02*
X154537500Y-61875000D01*
X151437500Y-80075000D02*
X151437500Y-81975000D01*
X153775000Y-80075000D02*
X152575000Y-80075000D01*
X151362500Y-53933100D02*
X151084400Y-53655000D01*
X151437500Y-78883100D02*
X151159400Y-78605000D01*
X151475000Y-83975000D02*
X152575000Y-83975000D01*
X124275000Y-96350000D02*
X129150000Y-96350000D01*
X151362500Y-57025000D02*
X151362500Y-59025000D01*
D37*
%TO.N,Net-(U501-SS)*%
X149900000Y-52175000D02*
X149900000Y-48487500D01*
%TO.N,Net-(U501-SW)*%
X150400000Y-53373200D02*
X150728800Y-53044400D01*
X152928100Y-53044400D02*
X153580000Y-52392500D01*
X150728800Y-53044400D02*
X152928100Y-53044400D01*
X150400000Y-53655000D02*
X150400000Y-53373200D01*
%TO.N,Net-(U501-BST)*%
X151817500Y-51257500D02*
X150900000Y-52175000D01*
X153580000Y-51257500D02*
X151817500Y-51257500D01*
D38*
%TO.N,3V3*%
X138787500Y-62775000D02*
X138100000Y-62775000D01*
X139662500Y-69125000D02*
X139662500Y-66615000D01*
X159012500Y-57475000D02*
X159012500Y-52037500D01*
X160100000Y-51425000D02*
X167000000Y-51425000D01*
X137400000Y-67200000D02*
X139077500Y-67200000D01*
X143200000Y-47125000D02*
X143612500Y-46712500D01*
D37*
X161800000Y-60925000D02*
X161600000Y-60725000D01*
D38*
X144300000Y-56212500D02*
X143200000Y-55112500D01*
X144850000Y-46762500D02*
X146400000Y-46762500D01*
X143612500Y-46712500D02*
X144800000Y-46712500D01*
D37*
X161800000Y-62162500D02*
X161800000Y-60925000D01*
D38*
X159012500Y-52037500D02*
X159000000Y-52025000D01*
X139662500Y-69125000D02*
X139662500Y-67785000D01*
X143200000Y-55112500D02*
X143200000Y-47125000D01*
X159012500Y-58975000D02*
X159012500Y-57475000D01*
X159500000Y-52025000D02*
X160100000Y-51425000D01*
X167000000Y-51425000D02*
X167000000Y-58425000D01*
X139662500Y-67785000D02*
X139077500Y-67200000D01*
X138100000Y-62775000D02*
X137450000Y-62125000D01*
X159000000Y-52025000D02*
X159500000Y-52025000D01*
X144800000Y-46712500D02*
X144850000Y-46762500D01*
X139077500Y-67200000D02*
X139662500Y-66615000D01*
X166450000Y-58975000D02*
X167000000Y-58425000D01*
X159012500Y-58975000D02*
X166450000Y-58975000D01*
D37*
%TO.N,Net-(C508-Pad1)*%
X144800000Y-48537500D02*
X146350000Y-48537500D01*
X146400000Y-48487500D02*
X148350000Y-48487500D01*
X146350000Y-48537500D02*
X146400000Y-48487500D01*
X145487500Y-50825000D02*
X145487500Y-49225000D01*
X145487500Y-49225000D02*
X144800000Y-48537500D01*
X148350000Y-48487500D02*
X148400000Y-48537500D01*
%TO.N,Net-(U502-SS)*%
X149975000Y-77125000D02*
X149975000Y-73437500D01*
%TO.N,Net-(U502-BST)*%
X151892500Y-76207500D02*
X150975000Y-77125000D01*
X153655000Y-76207500D02*
X151892500Y-76207500D01*
%TO.N,Net-(U502-SW)*%
X153003100Y-77994400D02*
X153655000Y-77342500D01*
X150475000Y-78323200D02*
X150803800Y-77994400D01*
X150475000Y-78605000D02*
X150475000Y-78323200D01*
X150803800Y-77994400D02*
X153003100Y-77994400D01*
D38*
%TO.N,5V*%
X169740000Y-72560000D02*
X169740000Y-66865000D01*
X144875000Y-71662500D02*
X144925000Y-71712500D01*
X143687500Y-71662500D02*
X144875000Y-71662500D01*
X169740000Y-66865000D02*
X168050000Y-65175000D01*
X144375000Y-81162500D02*
X143275000Y-80062500D01*
X160175000Y-76375000D02*
X167075000Y-76375000D01*
X167550000Y-65175000D02*
X167550000Y-63925000D01*
X144925000Y-71712500D02*
X146475000Y-71712500D01*
X159087500Y-83925000D02*
X166525000Y-83925000D01*
X159087500Y-76987500D02*
X159075000Y-76975000D01*
X143275000Y-72075000D02*
X143687500Y-71662500D01*
X159075000Y-76975000D02*
X159575000Y-76975000D01*
X143275000Y-80062500D02*
X143275000Y-72075000D01*
D37*
X161700000Y-87137500D02*
X161700000Y-85700000D01*
D38*
X167075000Y-76375000D02*
X167075000Y-83375000D01*
D37*
X161700000Y-85700000D02*
X161675000Y-85675000D01*
D38*
X168050000Y-65175000D02*
X167550000Y-65175000D01*
X159087500Y-82425000D02*
X159087500Y-76987500D01*
X167075000Y-76375000D02*
X167075000Y-75225000D01*
X159575000Y-76975000D02*
X160175000Y-76375000D01*
X166525000Y-83925000D02*
X167075000Y-83375000D01*
X159087500Y-83925000D02*
X159087500Y-82425000D01*
X167075000Y-75225000D02*
X169740000Y-72560000D01*
D37*
%TO.N,Net-(C515-Pad1)*%
X148425000Y-73437500D02*
X148475000Y-73487500D01*
X146425000Y-73487500D02*
X146475000Y-73437500D01*
X145562500Y-74175000D02*
X144875000Y-73487500D01*
X145562500Y-75775000D02*
X145562500Y-74175000D01*
X144875000Y-73487500D02*
X146425000Y-73487500D01*
X146475000Y-73437500D02*
X148425000Y-73437500D01*
D38*
%TO.N,/V_bat_in*%
X131880000Y-56180000D02*
X135550000Y-59850000D01*
X131225000Y-56180000D02*
X131880000Y-56180000D01*
X125412500Y-59887500D02*
X124800000Y-59275000D01*
X127895000Y-56180000D02*
X124800000Y-59275000D01*
X131225000Y-56180000D02*
X127895000Y-56180000D01*
D37*
%TO.N,/CURRENT_SENSE*%
X137400000Y-72280000D02*
X137400000Y-69740000D01*
%TO.N,/VOLTAGE_SENSE*%
X129780000Y-69740000D02*
X129780000Y-67200000D01*
%TO.N,Net-(U501-EN)*%
X150400000Y-52510000D02*
X150400000Y-52175000D01*
X146087500Y-54250000D02*
X146100000Y-54237500D01*
X146087500Y-57025000D02*
X146087500Y-54250000D01*
X147597900Y-52739600D02*
X150170400Y-52739600D01*
X146100000Y-54237500D02*
X147597900Y-52739600D01*
X150170400Y-52739600D02*
X150400000Y-52510000D01*
%TO.N,Net-(U501-PG)*%
X144300000Y-58037500D02*
X146697665Y-58037500D01*
X147043400Y-56011600D02*
X149400000Y-53655000D01*
X147043400Y-57691765D02*
X147043400Y-56011600D01*
X146697665Y-58037500D02*
X147043400Y-57691765D01*
%TO.N,Net-(U501-FB)*%
X147312500Y-50825000D02*
X148050000Y-50825000D01*
X148050000Y-50825000D02*
X149400000Y-52175000D01*
%TO.N,Net-(U502-EN)*%
X147672900Y-77689600D02*
X150245400Y-77689600D01*
X146162500Y-81975000D02*
X146162500Y-79200000D01*
X146162500Y-79200000D02*
X146175000Y-79187500D01*
X146175000Y-79187500D02*
X147672900Y-77689600D01*
X150475000Y-77460000D02*
X150475000Y-77125000D01*
X150245400Y-77689600D02*
X150475000Y-77460000D01*
%TO.N,Net-(U502-PG)*%
X147118400Y-82641765D02*
X147118400Y-80961600D01*
X146772665Y-82987500D02*
X147118400Y-82641765D01*
X144375000Y-82987500D02*
X146772665Y-82987500D01*
X147118400Y-80961600D02*
X149475000Y-78605000D01*
%TO.N,Net-(U502-FB)*%
X147387500Y-75775000D02*
X148125000Y-75775000D01*
X148125000Y-75775000D02*
X149475000Y-77125000D01*
%TO.N,Net-(U504A-+)*%
X125375000Y-69622500D02*
X125375000Y-67837500D01*
X127122500Y-69622500D02*
X129780000Y-72280000D01*
X125375000Y-69622500D02*
X127122500Y-69622500D01*
%TO.N,Net-(U504B-+)*%
X137450000Y-58312500D02*
X137800000Y-57962500D01*
X137450000Y-59850000D02*
X137450000Y-58312500D01*
%TO.N,Net-(D1-A)*%
X161700000Y-88962500D02*
X159137500Y-88962500D01*
X159137500Y-88962500D02*
X159125000Y-88950000D01*
%TO.N,Net-(D2-A)*%
X158937500Y-63987500D02*
X158925000Y-63975000D01*
X161800000Y-63987500D02*
X158937500Y-63987500D01*
D38*
%TO.N,/V_bat*%
X125375000Y-66012500D02*
X126912500Y-64475000D01*
X125375000Y-66012500D02*
X121343750Y-70043750D01*
%TD*%
D39*
X175820000Y-41750000D02*
G75*
G02*
X172720000Y-41750000I-1550000J0D01*
G01*
X172720000Y-41750000D02*
G75*
G02*
X175820000Y-41750000I1550000J0D01*
G01*
X175820000Y-102020000D02*
G75*
G02*
X172720000Y-102020000I-1550000J0D01*
G01*
X172720000Y-102020000D02*
G75*
G02*
X175820000Y-102020000I1550000J0D01*
G01*
X117910000Y-41750000D02*
G75*
G02*
X114810000Y-41750000I-1550000J0D01*
G01*
X114810000Y-41750000D02*
G75*
G02*
X117910000Y-41750000I1550000J0D01*
G01*
X117910000Y-102020000D02*
G75*
G02*
X114810000Y-102020000I-1550000J0D01*
G01*
X114810000Y-102020000D02*
G75*
G02*
X117910000Y-102020000I1550000J0D01*
G01*
X112810000Y-38200000D02*
X177825000Y-38200000D01*
X177825000Y-105575000D01*
X112810000Y-105575000D01*
X112810000Y-38200000D01*
M02*
