%TF.GenerationSoftware,KiCad,Pcbnew,9.0.7*%
%TF.CreationDate,2026-05-07T13:12:25-05:00*%
%TF.ProjectId,power_management_test,706f7765-725f-46d6-916e-6167656d656e,rev?*%
%TF.SameCoordinates,Original*%
%TF.FileFunction,Soldermask,Top*%
%TF.FilePolarity,Negative*%
%FSLAX46Y46*%
G04 Gerber Fmt 4.6, Leading zero omitted, Abs format (unit mm)*
G04 Created by KiCad (PCBNEW 9.0.7) date 2026-05-07 13:12:25*
%MOMM*%
%LPD*%
G01*
G04 APERTURE LIST*
%TA.AperFunction,Profile*%
%ADD10C,0.038100*%
%TD*%
G04 APERTURE END LIST*
G36*
X124788557Y-92887882D02*
G01*
X125125431Y-92954891D01*
X125454114Y-93054596D01*
X125771443Y-93186037D01*
X126074360Y-93347950D01*
X126359948Y-93538774D01*
X126625456Y-93756671D01*
X126868329Y-93999544D01*
X127086226Y-94265052D01*
X127277050Y-94550640D01*
X127438963Y-94853557D01*
X127570404Y-95170886D01*
X127670109Y-95499569D01*
X127737118Y-95836443D01*
X127770784Y-96178263D01*
X127770784Y-96521737D01*
X127737118Y-96863557D01*
X127670109Y-97200431D01*
X127570404Y-97529114D01*
X127438963Y-97846443D01*
X127277050Y-98149360D01*
X127086226Y-98434948D01*
X126868329Y-98700456D01*
X126625456Y-98943329D01*
X126359948Y-99161226D01*
X126074360Y-99352050D01*
X125771443Y-99513963D01*
X125454114Y-99645404D01*
X125125431Y-99745109D01*
X124788557Y-99812118D01*
X124446737Y-99845784D01*
X124103263Y-99845784D01*
X123761443Y-99812118D01*
X123424569Y-99745109D01*
X123095886Y-99645404D01*
X122778557Y-99513963D01*
X122475640Y-99352050D01*
X122190052Y-99161226D01*
X121924544Y-98943329D01*
X121681671Y-98700456D01*
X121463774Y-98434948D01*
X121272950Y-98149360D01*
X121111037Y-97846443D01*
X120979596Y-97529114D01*
X120879891Y-97200431D01*
X120812882Y-96863557D01*
X120779216Y-96521737D01*
X120779216Y-96178263D01*
X120812882Y-95836443D01*
X120879891Y-95499569D01*
X120979596Y-95170886D01*
X121111037Y-94853557D01*
X121272950Y-94550640D01*
X121463774Y-94265052D01*
X121681671Y-93999544D01*
X121924544Y-93756671D01*
X122190052Y-93538774D01*
X122475640Y-93347950D01*
X122778557Y-93186037D01*
X123095886Y-93054596D01*
X123424569Y-92954891D01*
X123761443Y-92887882D01*
X124103263Y-92854216D01*
X124446737Y-92854216D01*
X124788557Y-92887882D01*
G37*
G36*
X132416408Y-87133626D02*
G01*
X132637519Y-87192872D01*
X132849005Y-87280473D01*
X133047248Y-87394928D01*
X133228855Y-87534280D01*
X133390720Y-87696145D01*
X133530072Y-87877752D01*
X133644527Y-88075995D01*
X133732128Y-88287481D01*
X133791374Y-88508592D01*
X133821253Y-88735545D01*
X133821253Y-88964455D01*
X133791374Y-89191408D01*
X133732128Y-89412519D01*
X133644527Y-89624005D01*
X133530072Y-89822248D01*
X133390720Y-90003855D01*
X133228855Y-90165720D01*
X133047248Y-90305072D01*
X132849005Y-90419527D01*
X132637519Y-90507128D01*
X132416408Y-90566374D01*
X132189455Y-90596253D01*
X131960545Y-90596253D01*
X131733592Y-90566374D01*
X131512481Y-90507128D01*
X131300995Y-90419527D01*
X131102752Y-90305072D01*
X130921145Y-90165720D01*
X130759280Y-90003855D01*
X130619928Y-89822248D01*
X130505473Y-89624005D01*
X130417872Y-89412519D01*
X130358626Y-89191408D01*
X130328747Y-88964455D01*
X130328747Y-88735545D01*
X130358626Y-88508592D01*
X130417872Y-88287481D01*
X130505473Y-88075995D01*
X130619928Y-87877752D01*
X130759280Y-87696145D01*
X130921145Y-87534280D01*
X131102752Y-87394928D01*
X131300995Y-87280473D01*
X131512481Y-87192872D01*
X131733592Y-87133626D01*
X131960545Y-87103747D01*
X132189455Y-87103747D01*
X132416408Y-87133626D01*
G37*
G36*
X138491408Y-87133626D02*
G01*
X138712519Y-87192872D01*
X138924005Y-87280473D01*
X139122248Y-87394928D01*
X139303855Y-87534280D01*
X139465720Y-87696145D01*
X139605072Y-87877752D01*
X139719527Y-88075995D01*
X139807128Y-88287481D01*
X139866374Y-88508592D01*
X139896253Y-88735545D01*
X139896253Y-88964455D01*
X139866374Y-89191408D01*
X139807128Y-89412519D01*
X139719527Y-89624005D01*
X139605072Y-89822248D01*
X139465720Y-90003855D01*
X139303855Y-90165720D01*
X139122248Y-90305072D01*
X138924005Y-90419527D01*
X138712519Y-90507128D01*
X138491408Y-90566374D01*
X138264455Y-90596253D01*
X138035545Y-90596253D01*
X137808592Y-90566374D01*
X137587481Y-90507128D01*
X137375995Y-90419527D01*
X137177752Y-90305072D01*
X136996145Y-90165720D01*
X136834280Y-90003855D01*
X136694928Y-89822248D01*
X136580473Y-89624005D01*
X136492872Y-89412519D01*
X136433626Y-89191408D01*
X136403747Y-88964455D01*
X136403747Y-88735545D01*
X136433626Y-88508592D01*
X136492872Y-88287481D01*
X136580473Y-88075995D01*
X136694928Y-87877752D01*
X136834280Y-87696145D01*
X136996145Y-87534280D01*
X137177752Y-87394928D01*
X137375995Y-87280473D01*
X137587481Y-87192872D01*
X137808592Y-87133626D01*
X138035545Y-87103747D01*
X138264455Y-87103747D01*
X138491408Y-87133626D01*
G37*
G36*
X161941615Y-88475818D02*
G01*
X161990017Y-88481434D01*
X162006555Y-88488736D01*
X162028387Y-88493079D01*
X162051759Y-88508695D01*
X162071224Y-88517290D01*
X162084517Y-88530583D01*
X162105438Y-88544562D01*
X162119416Y-88565482D01*
X162132709Y-88578775D01*
X162141302Y-88598238D01*
X162156921Y-88621613D01*
X162161264Y-88643446D01*
X162168565Y-88659982D01*
X162174178Y-88708372D01*
X162175000Y-88712500D01*
X162175000Y-89212500D01*
X162174178Y-89216627D01*
X162168565Y-89265017D01*
X162161264Y-89281551D01*
X162156921Y-89303387D01*
X162141301Y-89326763D01*
X162132709Y-89346224D01*
X162119418Y-89359514D01*
X162105438Y-89380438D01*
X162084514Y-89394418D01*
X162071224Y-89407709D01*
X162051763Y-89416301D01*
X162028387Y-89431921D01*
X162006551Y-89436264D01*
X161990017Y-89443565D01*
X161941629Y-89449178D01*
X161937500Y-89450000D01*
X161462500Y-89450000D01*
X161458373Y-89449179D01*
X161409982Y-89443565D01*
X161393446Y-89436264D01*
X161371613Y-89431921D01*
X161348238Y-89416302D01*
X161328775Y-89407709D01*
X161315482Y-89394416D01*
X161294562Y-89380438D01*
X161280583Y-89359517D01*
X161267290Y-89346224D01*
X161258695Y-89326759D01*
X161243079Y-89303387D01*
X161238736Y-89281555D01*
X161231434Y-89265017D01*
X161225818Y-89216616D01*
X161225000Y-89212500D01*
X161225000Y-88712500D01*
X161225818Y-88708385D01*
X161231434Y-88659982D01*
X161238736Y-88643442D01*
X161243079Y-88621613D01*
X161258694Y-88598242D01*
X161267290Y-88578775D01*
X161280585Y-88565479D01*
X161294562Y-88544562D01*
X161315479Y-88530585D01*
X161328775Y-88517290D01*
X161348242Y-88508694D01*
X161371613Y-88493079D01*
X161393442Y-88488736D01*
X161409982Y-88481434D01*
X161458384Y-88475818D01*
X161462500Y-88475000D01*
X161937500Y-88475000D01*
X161941615Y-88475818D01*
G37*
G36*
X157666615Y-88475818D02*
G01*
X157715017Y-88481434D01*
X157731555Y-88488736D01*
X157753387Y-88493079D01*
X157776759Y-88508695D01*
X157796224Y-88517290D01*
X157809517Y-88530583D01*
X157830438Y-88544562D01*
X157844416Y-88565482D01*
X157857709Y-88578775D01*
X157866302Y-88598238D01*
X157881921Y-88621613D01*
X157886264Y-88643446D01*
X157893565Y-88659982D01*
X157899178Y-88708372D01*
X157900000Y-88712500D01*
X157900000Y-89187500D01*
X157899178Y-89191627D01*
X157893565Y-89240017D01*
X157886264Y-89256551D01*
X157881921Y-89278387D01*
X157866301Y-89301763D01*
X157857709Y-89321224D01*
X157844418Y-89334514D01*
X157830438Y-89355438D01*
X157809514Y-89369418D01*
X157796224Y-89382709D01*
X157776763Y-89391301D01*
X157753387Y-89406921D01*
X157731551Y-89411264D01*
X157715017Y-89418565D01*
X157666629Y-89424178D01*
X157662500Y-89425000D01*
X157087500Y-89425000D01*
X157083373Y-89424179D01*
X157034982Y-89418565D01*
X157018446Y-89411264D01*
X156996613Y-89406921D01*
X156973238Y-89391302D01*
X156953775Y-89382709D01*
X156940482Y-89369416D01*
X156919562Y-89355438D01*
X156905583Y-89334517D01*
X156892290Y-89321224D01*
X156883695Y-89301759D01*
X156868079Y-89278387D01*
X156863736Y-89256555D01*
X156856434Y-89240017D01*
X156850818Y-89191616D01*
X156850000Y-89187500D01*
X156850000Y-88712500D01*
X156850818Y-88708385D01*
X156856434Y-88659982D01*
X156863736Y-88643442D01*
X156868079Y-88621613D01*
X156883694Y-88598242D01*
X156892290Y-88578775D01*
X156905585Y-88565479D01*
X156919562Y-88544562D01*
X156940479Y-88530585D01*
X156953775Y-88517290D01*
X156973242Y-88508694D01*
X156996613Y-88493079D01*
X157018442Y-88488736D01*
X157034982Y-88481434D01*
X157083384Y-88475818D01*
X157087500Y-88475000D01*
X157662500Y-88475000D01*
X157666615Y-88475818D01*
G37*
G36*
X159416615Y-88475818D02*
G01*
X159465017Y-88481434D01*
X159481555Y-88488736D01*
X159503387Y-88493079D01*
X159526759Y-88508695D01*
X159546224Y-88517290D01*
X159559517Y-88530583D01*
X159580438Y-88544562D01*
X159594416Y-88565482D01*
X159607709Y-88578775D01*
X159616302Y-88598238D01*
X159631921Y-88621613D01*
X159636264Y-88643446D01*
X159643565Y-88659982D01*
X159649178Y-88708372D01*
X159650000Y-88712500D01*
X159650000Y-89187500D01*
X159649178Y-89191627D01*
X159643565Y-89240017D01*
X159636264Y-89256551D01*
X159631921Y-89278387D01*
X159616301Y-89301763D01*
X159607709Y-89321224D01*
X159594418Y-89334514D01*
X159580438Y-89355438D01*
X159559514Y-89369418D01*
X159546224Y-89382709D01*
X159526763Y-89391301D01*
X159503387Y-89406921D01*
X159481551Y-89411264D01*
X159465017Y-89418565D01*
X159416629Y-89424178D01*
X159412500Y-89425000D01*
X158837500Y-89425000D01*
X158833373Y-89424179D01*
X158784982Y-89418565D01*
X158768446Y-89411264D01*
X158746613Y-89406921D01*
X158723238Y-89391302D01*
X158703775Y-89382709D01*
X158690482Y-89369416D01*
X158669562Y-89355438D01*
X158655583Y-89334517D01*
X158642290Y-89321224D01*
X158633695Y-89301759D01*
X158618079Y-89278387D01*
X158613736Y-89256555D01*
X158606434Y-89240017D01*
X158600818Y-89191616D01*
X158600000Y-89187500D01*
X158600000Y-88712500D01*
X158600818Y-88708385D01*
X158606434Y-88659982D01*
X158613736Y-88643442D01*
X158618079Y-88621613D01*
X158633694Y-88598242D01*
X158642290Y-88578775D01*
X158655585Y-88565479D01*
X158669562Y-88544562D01*
X158690479Y-88530585D01*
X158703775Y-88517290D01*
X158723242Y-88508694D01*
X158746613Y-88493079D01*
X158768442Y-88488736D01*
X158784982Y-88481434D01*
X158833384Y-88475818D01*
X158837500Y-88475000D01*
X159412500Y-88475000D01*
X159416615Y-88475818D01*
G37*
G36*
X161941615Y-86650818D02*
G01*
X161990017Y-86656434D01*
X162006555Y-86663736D01*
X162028387Y-86668079D01*
X162051759Y-86683695D01*
X162071224Y-86692290D01*
X162084517Y-86705583D01*
X162105438Y-86719562D01*
X162119416Y-86740482D01*
X162132709Y-86753775D01*
X162141302Y-86773238D01*
X162156921Y-86796613D01*
X162161264Y-86818446D01*
X162168565Y-86834982D01*
X162174178Y-86883372D01*
X162175000Y-86887500D01*
X162175000Y-87387500D01*
X162174178Y-87391627D01*
X162168565Y-87440017D01*
X162161264Y-87456551D01*
X162156921Y-87478387D01*
X162141301Y-87501763D01*
X162132709Y-87521224D01*
X162119418Y-87534514D01*
X162105438Y-87555438D01*
X162084514Y-87569418D01*
X162071224Y-87582709D01*
X162051763Y-87591301D01*
X162028387Y-87606921D01*
X162006551Y-87611264D01*
X161990017Y-87618565D01*
X161941629Y-87624178D01*
X161937500Y-87625000D01*
X161462500Y-87625000D01*
X161458373Y-87624179D01*
X161409982Y-87618565D01*
X161393446Y-87611264D01*
X161371613Y-87606921D01*
X161348238Y-87591302D01*
X161328775Y-87582709D01*
X161315482Y-87569416D01*
X161294562Y-87555438D01*
X161280583Y-87534517D01*
X161267290Y-87521224D01*
X161258695Y-87501759D01*
X161243079Y-87478387D01*
X161238736Y-87456555D01*
X161231434Y-87440017D01*
X161225818Y-87391616D01*
X161225000Y-87387500D01*
X161225000Y-86887500D01*
X161225818Y-86883385D01*
X161231434Y-86834982D01*
X161238736Y-86818442D01*
X161243079Y-86796613D01*
X161258694Y-86773242D01*
X161267290Y-86753775D01*
X161280585Y-86740479D01*
X161294562Y-86719562D01*
X161315479Y-86705585D01*
X161328775Y-86692290D01*
X161348242Y-86683694D01*
X161371613Y-86668079D01*
X161393442Y-86663736D01*
X161409982Y-86656434D01*
X161458384Y-86650818D01*
X161462500Y-86650000D01*
X161937500Y-86650000D01*
X161941615Y-86650818D01*
G37*
G36*
X127529117Y-78850818D02*
G01*
X127580381Y-78856766D01*
X127597895Y-78864499D01*
X127620672Y-78869030D01*
X127645054Y-78885321D01*
X127665789Y-78894477D01*
X127679951Y-78908639D01*
X127701777Y-78923223D01*
X127716360Y-78945048D01*
X127730522Y-78959210D01*
X127739676Y-78979943D01*
X127755970Y-79004328D01*
X127760500Y-79027106D01*
X127768233Y-79044618D01*
X127774178Y-79095870D01*
X127775000Y-79099998D01*
X127775000Y-85600002D01*
X127774178Y-85604129D01*
X127768233Y-85655381D01*
X127760501Y-85672891D01*
X127755970Y-85695672D01*
X127739675Y-85720058D01*
X127730522Y-85740789D01*
X127716362Y-85754948D01*
X127701777Y-85776777D01*
X127679948Y-85791362D01*
X127665789Y-85805522D01*
X127645058Y-85814675D01*
X127620672Y-85830970D01*
X127597891Y-85835501D01*
X127580381Y-85843233D01*
X127529131Y-85849178D01*
X127525002Y-85850000D01*
X121024998Y-85850000D01*
X121020871Y-85849179D01*
X120969618Y-85843233D01*
X120952106Y-85835500D01*
X120929328Y-85830970D01*
X120904943Y-85814676D01*
X120884210Y-85805522D01*
X120870048Y-85791360D01*
X120848223Y-85776777D01*
X120833639Y-85754951D01*
X120819477Y-85740789D01*
X120810321Y-85720054D01*
X120794030Y-85695672D01*
X120789499Y-85672895D01*
X120781766Y-85655381D01*
X120775818Y-85604119D01*
X120775000Y-85600002D01*
X120775000Y-79099998D01*
X120775818Y-79095883D01*
X120781766Y-79044618D01*
X120789499Y-79027102D01*
X120794030Y-79004328D01*
X120810320Y-78979947D01*
X120819477Y-78959210D01*
X120833641Y-78945045D01*
X120848223Y-78923223D01*
X120870045Y-78908641D01*
X120884210Y-78894477D01*
X120904947Y-78885320D01*
X120929328Y-78869030D01*
X120952102Y-78864499D01*
X120969618Y-78856766D01*
X121020882Y-78850818D01*
X121024998Y-78850000D01*
X127525002Y-78850000D01*
X127529117Y-78850818D01*
G37*
G36*
X157529116Y-83785818D02*
G01*
X157580379Y-83791766D01*
X157597892Y-83799499D01*
X157620671Y-83804030D01*
X157645057Y-83820324D01*
X157665788Y-83829478D01*
X157679946Y-83843636D01*
X157701777Y-83858223D01*
X157716363Y-83880053D01*
X157730521Y-83894211D01*
X157739673Y-83914939D01*
X157755970Y-83939329D01*
X157760501Y-83962109D01*
X157768233Y-83979620D01*
X157774178Y-84030872D01*
X157775000Y-84035000D01*
X157775000Y-84985000D01*
X157774178Y-84989128D01*
X157768233Y-85040379D01*
X157760501Y-85057888D01*
X157755970Y-85080671D01*
X157739672Y-85105062D01*
X157730521Y-85125788D01*
X157716365Y-85139943D01*
X157701777Y-85161777D01*
X157679943Y-85176365D01*
X157665788Y-85190521D01*
X157645062Y-85199672D01*
X157620671Y-85215970D01*
X157597888Y-85220501D01*
X157580379Y-85228233D01*
X157529129Y-85234178D01*
X157525000Y-85235000D01*
X156850000Y-85235000D01*
X156845873Y-85234179D01*
X156794620Y-85228233D01*
X156777109Y-85220501D01*
X156754329Y-85215970D01*
X156729939Y-85199673D01*
X156709211Y-85190521D01*
X156695053Y-85176363D01*
X156673223Y-85161777D01*
X156658636Y-85139946D01*
X156644478Y-85125788D01*
X156635324Y-85105057D01*
X156619030Y-85080671D01*
X156614499Y-85057892D01*
X156606766Y-85040379D01*
X156600818Y-84989117D01*
X156600000Y-84985000D01*
X156600000Y-84035000D01*
X156600818Y-84030885D01*
X156606766Y-83979620D01*
X156614499Y-83962105D01*
X156619030Y-83939329D01*
X156635323Y-83914944D01*
X156644478Y-83894211D01*
X156658638Y-83880050D01*
X156673223Y-83858223D01*
X156695050Y-83843638D01*
X156709211Y-83829478D01*
X156729944Y-83820323D01*
X156754329Y-83804030D01*
X156777105Y-83799499D01*
X156794620Y-83791766D01*
X156845884Y-83785818D01*
X156850000Y-83785000D01*
X157525000Y-83785000D01*
X157529116Y-83785818D01*
G37*
G36*
X159604116Y-83785818D02*
G01*
X159655379Y-83791766D01*
X159672892Y-83799499D01*
X159695671Y-83804030D01*
X159720057Y-83820324D01*
X159740788Y-83829478D01*
X159754946Y-83843636D01*
X159776777Y-83858223D01*
X159791363Y-83880053D01*
X159805521Y-83894211D01*
X159814673Y-83914939D01*
X159830970Y-83939329D01*
X159835501Y-83962109D01*
X159843233Y-83979620D01*
X159849178Y-84030872D01*
X159850000Y-84035000D01*
X159850000Y-84985000D01*
X159849178Y-84989128D01*
X159843233Y-85040379D01*
X159835501Y-85057888D01*
X159830970Y-85080671D01*
X159814672Y-85105062D01*
X159805521Y-85125788D01*
X159791365Y-85139943D01*
X159776777Y-85161777D01*
X159754943Y-85176365D01*
X159740788Y-85190521D01*
X159720062Y-85199672D01*
X159695671Y-85215970D01*
X159672888Y-85220501D01*
X159655379Y-85228233D01*
X159604129Y-85234178D01*
X159600000Y-85235000D01*
X158925000Y-85235000D01*
X158920873Y-85234179D01*
X158869620Y-85228233D01*
X158852109Y-85220501D01*
X158829329Y-85215970D01*
X158804939Y-85199673D01*
X158784211Y-85190521D01*
X158770053Y-85176363D01*
X158748223Y-85161777D01*
X158733636Y-85139946D01*
X158719478Y-85125788D01*
X158710324Y-85105057D01*
X158694030Y-85080671D01*
X158689499Y-85057892D01*
X158681766Y-85040379D01*
X158675818Y-84989117D01*
X158675000Y-84985000D01*
X158675000Y-84035000D01*
X158675818Y-84030885D01*
X158681766Y-83979620D01*
X158689499Y-83962105D01*
X158694030Y-83939329D01*
X158710323Y-83914944D01*
X158719478Y-83894211D01*
X158733638Y-83880050D01*
X158748223Y-83858223D01*
X158770050Y-83843638D01*
X158784211Y-83829478D01*
X158804944Y-83820323D01*
X158829329Y-83804030D01*
X158852105Y-83799499D01*
X158869620Y-83791766D01*
X158920884Y-83785818D01*
X158925000Y-83785000D01*
X159600000Y-83785000D01*
X159604116Y-83785818D01*
G37*
G36*
X168579113Y-81625818D02*
G01*
X168630378Y-81631766D01*
X168647892Y-81639499D01*
X168670670Y-81644030D01*
X168695054Y-81660323D01*
X168715788Y-81669478D01*
X168729950Y-81683640D01*
X168751776Y-81698224D01*
X168766359Y-81720049D01*
X168780521Y-81734211D01*
X168789675Y-81754943D01*
X168805970Y-81779330D01*
X168810501Y-81802109D01*
X168818233Y-81819621D01*
X168824179Y-81870875D01*
X168825000Y-81875002D01*
X168825000Y-84874998D01*
X168824178Y-84879126D01*
X168818233Y-84930378D01*
X168810501Y-84947888D01*
X168805970Y-84970670D01*
X168789673Y-84995058D01*
X168780521Y-85015788D01*
X168766361Y-85029947D01*
X168751776Y-85051776D01*
X168729947Y-85066361D01*
X168715788Y-85080521D01*
X168695058Y-85089673D01*
X168670670Y-85105970D01*
X168647888Y-85110501D01*
X168630378Y-85118233D01*
X168579126Y-85124178D01*
X168574998Y-85125000D01*
X165575002Y-85125000D01*
X165570875Y-85124179D01*
X165519621Y-85118233D01*
X165502109Y-85110501D01*
X165479330Y-85105970D01*
X165454943Y-85089675D01*
X165434211Y-85080521D01*
X165420049Y-85066359D01*
X165398224Y-85051776D01*
X165383640Y-85029950D01*
X165369478Y-85015788D01*
X165360323Y-84995054D01*
X165344030Y-84970670D01*
X165339499Y-84947892D01*
X165331766Y-84930378D01*
X165325818Y-84879113D01*
X165325000Y-84874998D01*
X165325000Y-81875002D01*
X165325818Y-81870887D01*
X165331766Y-81819621D01*
X165339499Y-81802105D01*
X165344030Y-81779330D01*
X165360321Y-81754947D01*
X165369478Y-81734211D01*
X165383642Y-81720046D01*
X165398224Y-81698224D01*
X165420046Y-81683642D01*
X165434211Y-81669478D01*
X165454947Y-81660321D01*
X165479330Y-81644030D01*
X165502105Y-81639499D01*
X165519621Y-81631766D01*
X165570887Y-81625818D01*
X165575002Y-81625000D01*
X168574998Y-81625000D01*
X168579113Y-81625818D01*
G37*
G36*
X150016615Y-83500818D02*
G01*
X150065017Y-83506434D01*
X150081555Y-83513736D01*
X150103387Y-83518079D01*
X150126759Y-83533695D01*
X150146224Y-83542290D01*
X150159517Y-83555583D01*
X150180438Y-83569562D01*
X150194416Y-83590482D01*
X150207709Y-83603775D01*
X150216302Y-83623238D01*
X150231921Y-83646613D01*
X150236264Y-83668446D01*
X150243565Y-83684982D01*
X150249178Y-83733372D01*
X150250000Y-83737500D01*
X150250000Y-84212500D01*
X150249178Y-84216627D01*
X150243565Y-84265017D01*
X150236264Y-84281551D01*
X150231921Y-84303387D01*
X150216301Y-84326763D01*
X150207709Y-84346224D01*
X150194418Y-84359514D01*
X150180438Y-84380438D01*
X150159514Y-84394418D01*
X150146224Y-84407709D01*
X150126763Y-84416301D01*
X150103387Y-84431921D01*
X150081551Y-84436264D01*
X150065017Y-84443565D01*
X150016629Y-84449178D01*
X150012500Y-84450000D01*
X149412500Y-84450000D01*
X149408373Y-84449179D01*
X149359982Y-84443565D01*
X149343446Y-84436264D01*
X149321613Y-84431921D01*
X149298238Y-84416302D01*
X149278775Y-84407709D01*
X149265482Y-84394416D01*
X149244562Y-84380438D01*
X149230583Y-84359517D01*
X149217290Y-84346224D01*
X149208695Y-84326759D01*
X149193079Y-84303387D01*
X149188736Y-84281555D01*
X149181434Y-84265017D01*
X149175818Y-84216616D01*
X149175000Y-84212500D01*
X149175000Y-83737500D01*
X149175818Y-83733385D01*
X149181434Y-83684982D01*
X149188736Y-83668442D01*
X149193079Y-83646613D01*
X149208694Y-83623242D01*
X149217290Y-83603775D01*
X149230585Y-83590479D01*
X149244562Y-83569562D01*
X149265479Y-83555585D01*
X149278775Y-83542290D01*
X149298242Y-83533694D01*
X149321613Y-83518079D01*
X149343442Y-83513736D01*
X149359982Y-83506434D01*
X149408384Y-83500818D01*
X149412500Y-83500000D01*
X150012500Y-83500000D01*
X150016615Y-83500818D01*
G37*
G36*
X151741615Y-83500818D02*
G01*
X151790017Y-83506434D01*
X151806555Y-83513736D01*
X151828387Y-83518079D01*
X151851759Y-83533695D01*
X151871224Y-83542290D01*
X151884517Y-83555583D01*
X151905438Y-83569562D01*
X151919416Y-83590482D01*
X151932709Y-83603775D01*
X151941302Y-83623238D01*
X151956921Y-83646613D01*
X151961264Y-83668446D01*
X151968565Y-83684982D01*
X151974178Y-83733372D01*
X151975000Y-83737500D01*
X151975000Y-84212500D01*
X151974178Y-84216627D01*
X151968565Y-84265017D01*
X151961264Y-84281551D01*
X151956921Y-84303387D01*
X151941301Y-84326763D01*
X151932709Y-84346224D01*
X151919418Y-84359514D01*
X151905438Y-84380438D01*
X151884514Y-84394418D01*
X151871224Y-84407709D01*
X151851763Y-84416301D01*
X151828387Y-84431921D01*
X151806551Y-84436264D01*
X151790017Y-84443565D01*
X151741629Y-84449178D01*
X151737500Y-84450000D01*
X151137500Y-84450000D01*
X151133373Y-84449179D01*
X151084982Y-84443565D01*
X151068446Y-84436264D01*
X151046613Y-84431921D01*
X151023238Y-84416302D01*
X151003775Y-84407709D01*
X150990482Y-84394416D01*
X150969562Y-84380438D01*
X150955583Y-84359517D01*
X150942290Y-84346224D01*
X150933695Y-84326759D01*
X150918079Y-84303387D01*
X150913736Y-84281555D01*
X150906434Y-84265017D01*
X150900818Y-84216616D01*
X150900000Y-84212500D01*
X150900000Y-83737500D01*
X150900818Y-83733385D01*
X150906434Y-83684982D01*
X150913736Y-83668442D01*
X150918079Y-83646613D01*
X150933694Y-83623242D01*
X150942290Y-83603775D01*
X150955585Y-83590479D01*
X150969562Y-83569562D01*
X150990479Y-83555585D01*
X151003775Y-83542290D01*
X151023242Y-83533694D01*
X151046613Y-83518079D01*
X151068442Y-83513736D01*
X151084982Y-83506434D01*
X151133384Y-83500818D01*
X151137500Y-83500000D01*
X151737500Y-83500000D01*
X151741615Y-83500818D01*
G37*
G36*
X133579113Y-80100818D02*
G01*
X133630378Y-80106766D01*
X133647892Y-80114499D01*
X133670670Y-80119030D01*
X133695054Y-80135323D01*
X133715788Y-80144478D01*
X133729950Y-80158640D01*
X133751776Y-80173224D01*
X133766359Y-80195049D01*
X133780521Y-80209211D01*
X133789675Y-80229943D01*
X133805970Y-80254330D01*
X133810501Y-80277109D01*
X133818233Y-80294621D01*
X133824179Y-80345875D01*
X133825000Y-80350002D01*
X133825000Y-83349998D01*
X133824178Y-83354126D01*
X133818233Y-83405378D01*
X133810501Y-83422888D01*
X133805970Y-83445670D01*
X133789673Y-83470058D01*
X133780521Y-83490788D01*
X133766361Y-83504947D01*
X133751776Y-83526776D01*
X133729947Y-83541361D01*
X133715788Y-83555521D01*
X133695058Y-83564673D01*
X133670670Y-83580970D01*
X133647888Y-83585501D01*
X133630378Y-83593233D01*
X133579126Y-83599178D01*
X133574998Y-83600000D01*
X130575002Y-83600000D01*
X130570875Y-83599179D01*
X130519621Y-83593233D01*
X130502109Y-83585501D01*
X130479330Y-83580970D01*
X130454943Y-83564675D01*
X130434211Y-83555521D01*
X130420049Y-83541359D01*
X130398224Y-83526776D01*
X130383640Y-83504950D01*
X130369478Y-83490788D01*
X130360323Y-83470054D01*
X130344030Y-83445670D01*
X130339499Y-83422892D01*
X130331766Y-83405378D01*
X130325818Y-83354113D01*
X130325000Y-83349998D01*
X130325000Y-80350002D01*
X130325818Y-80345887D01*
X130331766Y-80294621D01*
X130339499Y-80277105D01*
X130344030Y-80254330D01*
X130360321Y-80229947D01*
X130369478Y-80209211D01*
X130383642Y-80195046D01*
X130398224Y-80173224D01*
X130420046Y-80158642D01*
X130434211Y-80144478D01*
X130454947Y-80135321D01*
X130479330Y-80119030D01*
X130502105Y-80114499D01*
X130519621Y-80106766D01*
X130570887Y-80100818D01*
X130575002Y-80100000D01*
X133574998Y-80100000D01*
X133579113Y-80100818D01*
G37*
G36*
X139654113Y-80100818D02*
G01*
X139705378Y-80106766D01*
X139722892Y-80114499D01*
X139745670Y-80119030D01*
X139770054Y-80135323D01*
X139790788Y-80144478D01*
X139804950Y-80158640D01*
X139826776Y-80173224D01*
X139841359Y-80195049D01*
X139855521Y-80209211D01*
X139864675Y-80229943D01*
X139880970Y-80254330D01*
X139885501Y-80277109D01*
X139893233Y-80294621D01*
X139899179Y-80345875D01*
X139900000Y-80350002D01*
X139900000Y-83349998D01*
X139899178Y-83354126D01*
X139893233Y-83405378D01*
X139885501Y-83422888D01*
X139880970Y-83445670D01*
X139864673Y-83470058D01*
X139855521Y-83490788D01*
X139841361Y-83504947D01*
X139826776Y-83526776D01*
X139804947Y-83541361D01*
X139790788Y-83555521D01*
X139770058Y-83564673D01*
X139745670Y-83580970D01*
X139722888Y-83585501D01*
X139705378Y-83593233D01*
X139654126Y-83599178D01*
X139649998Y-83600000D01*
X136650002Y-83600000D01*
X136645875Y-83599179D01*
X136594621Y-83593233D01*
X136577109Y-83585501D01*
X136554330Y-83580970D01*
X136529943Y-83564675D01*
X136509211Y-83555521D01*
X136495049Y-83541359D01*
X136473224Y-83526776D01*
X136458640Y-83504950D01*
X136444478Y-83490788D01*
X136435323Y-83470054D01*
X136419030Y-83445670D01*
X136414499Y-83422892D01*
X136406766Y-83405378D01*
X136400818Y-83354113D01*
X136400000Y-83349998D01*
X136400000Y-80350002D01*
X136400818Y-80345887D01*
X136406766Y-80294621D01*
X136414499Y-80277105D01*
X136419030Y-80254330D01*
X136435321Y-80229947D01*
X136444478Y-80209211D01*
X136458642Y-80195046D01*
X136473224Y-80173224D01*
X136495046Y-80158642D01*
X136509211Y-80144478D01*
X136529947Y-80135321D01*
X136554330Y-80119030D01*
X136577105Y-80114499D01*
X136594621Y-80106766D01*
X136645887Y-80100818D01*
X136650002Y-80100000D01*
X139649998Y-80100000D01*
X139654113Y-80100818D01*
G37*
G36*
X144616615Y-82500818D02*
G01*
X144665017Y-82506434D01*
X144681555Y-82513736D01*
X144703387Y-82518079D01*
X144726759Y-82533695D01*
X144746224Y-82542290D01*
X144759517Y-82555583D01*
X144780438Y-82569562D01*
X144794416Y-82590482D01*
X144807709Y-82603775D01*
X144816302Y-82623238D01*
X144831921Y-82646613D01*
X144836264Y-82668446D01*
X144843565Y-82684982D01*
X144849178Y-82733372D01*
X144850000Y-82737500D01*
X144850000Y-83237500D01*
X144849178Y-83241627D01*
X144843565Y-83290017D01*
X144836264Y-83306551D01*
X144831921Y-83328387D01*
X144816301Y-83351763D01*
X144807709Y-83371224D01*
X144794418Y-83384514D01*
X144780438Y-83405438D01*
X144759514Y-83419418D01*
X144746224Y-83432709D01*
X144726763Y-83441301D01*
X144703387Y-83456921D01*
X144681551Y-83461264D01*
X144665017Y-83468565D01*
X144616629Y-83474178D01*
X144612500Y-83475000D01*
X144137500Y-83475000D01*
X144133373Y-83474179D01*
X144084982Y-83468565D01*
X144068446Y-83461264D01*
X144046613Y-83456921D01*
X144023238Y-83441302D01*
X144003775Y-83432709D01*
X143990482Y-83419416D01*
X143969562Y-83405438D01*
X143955583Y-83384517D01*
X143942290Y-83371224D01*
X143933695Y-83351759D01*
X143918079Y-83328387D01*
X143913736Y-83306555D01*
X143906434Y-83290017D01*
X143900818Y-83241616D01*
X143900000Y-83237500D01*
X143900000Y-82737500D01*
X143900818Y-82733385D01*
X143906434Y-82684982D01*
X143913736Y-82668442D01*
X143918079Y-82646613D01*
X143933694Y-82623242D01*
X143942290Y-82603775D01*
X143955585Y-82590479D01*
X143969562Y-82569562D01*
X143990479Y-82555585D01*
X144003775Y-82542290D01*
X144023242Y-82533694D01*
X144046613Y-82518079D01*
X144068442Y-82513736D01*
X144084982Y-82506434D01*
X144133384Y-82500818D01*
X144137500Y-82500000D01*
X144612500Y-82500000D01*
X144616615Y-82500818D01*
G37*
G36*
X157529116Y-81700818D02*
G01*
X157580379Y-81706766D01*
X157597892Y-81714499D01*
X157620671Y-81719030D01*
X157645057Y-81735324D01*
X157665788Y-81744478D01*
X157679946Y-81758636D01*
X157701777Y-81773223D01*
X157716363Y-81795053D01*
X157730521Y-81809211D01*
X157739673Y-81829939D01*
X157755970Y-81854329D01*
X157760501Y-81877109D01*
X157768233Y-81894620D01*
X157774178Y-81945872D01*
X157775000Y-81950000D01*
X157775000Y-82900000D01*
X157774178Y-82904128D01*
X157768233Y-82955379D01*
X157760501Y-82972888D01*
X157755970Y-82995671D01*
X157739672Y-83020062D01*
X157730521Y-83040788D01*
X157716365Y-83054943D01*
X157701777Y-83076777D01*
X157679943Y-83091365D01*
X157665788Y-83105521D01*
X157645062Y-83114672D01*
X157620671Y-83130970D01*
X157597888Y-83135501D01*
X157580379Y-83143233D01*
X157529129Y-83149178D01*
X157525000Y-83150000D01*
X156850000Y-83150000D01*
X156845873Y-83149179D01*
X156794620Y-83143233D01*
X156777109Y-83135501D01*
X156754329Y-83130970D01*
X156729939Y-83114673D01*
X156709211Y-83105521D01*
X156695053Y-83091363D01*
X156673223Y-83076777D01*
X156658636Y-83054946D01*
X156644478Y-83040788D01*
X156635324Y-83020057D01*
X156619030Y-82995671D01*
X156614499Y-82972892D01*
X156606766Y-82955379D01*
X156600818Y-82904117D01*
X156600000Y-82900000D01*
X156600000Y-81950000D01*
X156600818Y-81945885D01*
X156606766Y-81894620D01*
X156614499Y-81877105D01*
X156619030Y-81854329D01*
X156635323Y-81829944D01*
X156644478Y-81809211D01*
X156658638Y-81795050D01*
X156673223Y-81773223D01*
X156695050Y-81758638D01*
X156709211Y-81744478D01*
X156729944Y-81735323D01*
X156754329Y-81719030D01*
X156777105Y-81714499D01*
X156794620Y-81706766D01*
X156845884Y-81700818D01*
X156850000Y-81700000D01*
X157525000Y-81700000D01*
X157529116Y-81700818D01*
G37*
G36*
X159604116Y-81700818D02*
G01*
X159655379Y-81706766D01*
X159672892Y-81714499D01*
X159695671Y-81719030D01*
X159720057Y-81735324D01*
X159740788Y-81744478D01*
X159754946Y-81758636D01*
X159776777Y-81773223D01*
X159791363Y-81795053D01*
X159805521Y-81809211D01*
X159814673Y-81829939D01*
X159830970Y-81854329D01*
X159835501Y-81877109D01*
X159843233Y-81894620D01*
X159849178Y-81945872D01*
X159850000Y-81950000D01*
X159850000Y-82900000D01*
X159849178Y-82904128D01*
X159843233Y-82955379D01*
X159835501Y-82972888D01*
X159830970Y-82995671D01*
X159814672Y-83020062D01*
X159805521Y-83040788D01*
X159791365Y-83054943D01*
X159776777Y-83076777D01*
X159754943Y-83091365D01*
X159740788Y-83105521D01*
X159720062Y-83114672D01*
X159695671Y-83130970D01*
X159672888Y-83135501D01*
X159655379Y-83143233D01*
X159604129Y-83149178D01*
X159600000Y-83150000D01*
X158925000Y-83150000D01*
X158920873Y-83149179D01*
X158869620Y-83143233D01*
X158852109Y-83135501D01*
X158829329Y-83130970D01*
X158804939Y-83114673D01*
X158784211Y-83105521D01*
X158770053Y-83091363D01*
X158748223Y-83076777D01*
X158733636Y-83054946D01*
X158719478Y-83040788D01*
X158710324Y-83020057D01*
X158694030Y-82995671D01*
X158689499Y-82972892D01*
X158681766Y-82955379D01*
X158675818Y-82904117D01*
X158675000Y-82900000D01*
X158675000Y-81950000D01*
X158675818Y-81945885D01*
X158681766Y-81894620D01*
X158689499Y-81877105D01*
X158694030Y-81854329D01*
X158710323Y-81829944D01*
X158719478Y-81809211D01*
X158733638Y-81795050D01*
X158748223Y-81773223D01*
X158770050Y-81758638D01*
X158784211Y-81744478D01*
X158804944Y-81735323D01*
X158829329Y-81719030D01*
X158852105Y-81714499D01*
X158869620Y-81706766D01*
X158920884Y-81700818D01*
X158925000Y-81700000D01*
X159600000Y-81700000D01*
X159604116Y-81700818D01*
G37*
G36*
X146416615Y-81500818D02*
G01*
X146465017Y-81506434D01*
X146481555Y-81513736D01*
X146503387Y-81518079D01*
X146526759Y-81533695D01*
X146546224Y-81542290D01*
X146559517Y-81555583D01*
X146580438Y-81569562D01*
X146594416Y-81590482D01*
X146607709Y-81603775D01*
X146616302Y-81623238D01*
X146631921Y-81646613D01*
X146636264Y-81668446D01*
X146643565Y-81684982D01*
X146649178Y-81733372D01*
X146650000Y-81737500D01*
X146650000Y-82212500D01*
X146649178Y-82216627D01*
X146643565Y-82265017D01*
X146636264Y-82281551D01*
X146631921Y-82303387D01*
X146616301Y-82326763D01*
X146607709Y-82346224D01*
X146594418Y-82359514D01*
X146580438Y-82380438D01*
X146559514Y-82394418D01*
X146546224Y-82407709D01*
X146526763Y-82416301D01*
X146503387Y-82431921D01*
X146481551Y-82436264D01*
X146465017Y-82443565D01*
X146416629Y-82449178D01*
X146412500Y-82450000D01*
X145912500Y-82450000D01*
X145908373Y-82449179D01*
X145859982Y-82443565D01*
X145843446Y-82436264D01*
X145821613Y-82431921D01*
X145798238Y-82416302D01*
X145778775Y-82407709D01*
X145765482Y-82394416D01*
X145744562Y-82380438D01*
X145730583Y-82359517D01*
X145717290Y-82346224D01*
X145708695Y-82326759D01*
X145693079Y-82303387D01*
X145688736Y-82281555D01*
X145681434Y-82265017D01*
X145675818Y-82216616D01*
X145675000Y-82212500D01*
X145675000Y-81737500D01*
X145675818Y-81733385D01*
X145681434Y-81684982D01*
X145688736Y-81668442D01*
X145693079Y-81646613D01*
X145708694Y-81623242D01*
X145717290Y-81603775D01*
X145730585Y-81590479D01*
X145744562Y-81569562D01*
X145765479Y-81555585D01*
X145778775Y-81542290D01*
X145798242Y-81533694D01*
X145821613Y-81518079D01*
X145843442Y-81513736D01*
X145859982Y-81506434D01*
X145908384Y-81500818D01*
X145912500Y-81500000D01*
X146412500Y-81500000D01*
X146416615Y-81500818D01*
G37*
G36*
X148241615Y-81500818D02*
G01*
X148290017Y-81506434D01*
X148306555Y-81513736D01*
X148328387Y-81518079D01*
X148351759Y-81533695D01*
X148371224Y-81542290D01*
X148384517Y-81555583D01*
X148405438Y-81569562D01*
X148419416Y-81590482D01*
X148432709Y-81603775D01*
X148441302Y-81623238D01*
X148456921Y-81646613D01*
X148461264Y-81668446D01*
X148468565Y-81684982D01*
X148474178Y-81733372D01*
X148475000Y-81737500D01*
X148475000Y-82212500D01*
X148474178Y-82216627D01*
X148468565Y-82265017D01*
X148461264Y-82281551D01*
X148456921Y-82303387D01*
X148441301Y-82326763D01*
X148432709Y-82346224D01*
X148419418Y-82359514D01*
X148405438Y-82380438D01*
X148384514Y-82394418D01*
X148371224Y-82407709D01*
X148351763Y-82416301D01*
X148328387Y-82431921D01*
X148306551Y-82436264D01*
X148290017Y-82443565D01*
X148241629Y-82449178D01*
X148237500Y-82450000D01*
X147737500Y-82450000D01*
X147733373Y-82449179D01*
X147684982Y-82443565D01*
X147668446Y-82436264D01*
X147646613Y-82431921D01*
X147623238Y-82416302D01*
X147603775Y-82407709D01*
X147590482Y-82394416D01*
X147569562Y-82380438D01*
X147555583Y-82359517D01*
X147542290Y-82346224D01*
X147533695Y-82326759D01*
X147518079Y-82303387D01*
X147513736Y-82281555D01*
X147506434Y-82265017D01*
X147500818Y-82216616D01*
X147500000Y-82212500D01*
X147500000Y-81737500D01*
X147500818Y-81733385D01*
X147506434Y-81684982D01*
X147513736Y-81668442D01*
X147518079Y-81646613D01*
X147533694Y-81623242D01*
X147542290Y-81603775D01*
X147555585Y-81590479D01*
X147569562Y-81569562D01*
X147590479Y-81555585D01*
X147603775Y-81542290D01*
X147623242Y-81533694D01*
X147646613Y-81518079D01*
X147668442Y-81513736D01*
X147684982Y-81506434D01*
X147733384Y-81500818D01*
X147737500Y-81500000D01*
X148237500Y-81500000D01*
X148241615Y-81500818D01*
G37*
G36*
X144616615Y-80675818D02*
G01*
X144665017Y-80681434D01*
X144681555Y-80688736D01*
X144703387Y-80693079D01*
X144726759Y-80708695D01*
X144746224Y-80717290D01*
X144759517Y-80730583D01*
X144780438Y-80744562D01*
X144794416Y-80765482D01*
X144807709Y-80778775D01*
X144816302Y-80798238D01*
X144831921Y-80821613D01*
X144836264Y-80843446D01*
X144843565Y-80859982D01*
X144849178Y-80908372D01*
X144850000Y-80912500D01*
X144850000Y-81412500D01*
X144849178Y-81416627D01*
X144843565Y-81465017D01*
X144836264Y-81481551D01*
X144831921Y-81503387D01*
X144816301Y-81526763D01*
X144807709Y-81546224D01*
X144794418Y-81559514D01*
X144780438Y-81580438D01*
X144759514Y-81594418D01*
X144746224Y-81607709D01*
X144726763Y-81616301D01*
X144703387Y-81631921D01*
X144681551Y-81636264D01*
X144665017Y-81643565D01*
X144616629Y-81649178D01*
X144612500Y-81650000D01*
X144137500Y-81650000D01*
X144133373Y-81649179D01*
X144084982Y-81643565D01*
X144068446Y-81636264D01*
X144046613Y-81631921D01*
X144023238Y-81616302D01*
X144003775Y-81607709D01*
X143990482Y-81594416D01*
X143969562Y-81580438D01*
X143955583Y-81559517D01*
X143942290Y-81546224D01*
X143933695Y-81526759D01*
X143918079Y-81503387D01*
X143913736Y-81481555D01*
X143906434Y-81465017D01*
X143900818Y-81416616D01*
X143900000Y-81412500D01*
X143900000Y-80912500D01*
X143900818Y-80908385D01*
X143906434Y-80859982D01*
X143913736Y-80843442D01*
X143918079Y-80821613D01*
X143933694Y-80798242D01*
X143942290Y-80778775D01*
X143955585Y-80765479D01*
X143969562Y-80744562D01*
X143990479Y-80730585D01*
X144003775Y-80717290D01*
X144023242Y-80708694D01*
X144046613Y-80693079D01*
X144068442Y-80688736D01*
X144084982Y-80681434D01*
X144133384Y-80675818D01*
X144137500Y-80675000D01*
X144612500Y-80675000D01*
X144616615Y-80675818D01*
G37*
G36*
X150014116Y-79865818D02*
G01*
X150065379Y-79871766D01*
X150082892Y-79879499D01*
X150105671Y-79884030D01*
X150130057Y-79900324D01*
X150150788Y-79909478D01*
X150164946Y-79923636D01*
X150186777Y-79938223D01*
X150201363Y-79960053D01*
X150215521Y-79974211D01*
X150224673Y-79994939D01*
X150240970Y-80019329D01*
X150245501Y-80042109D01*
X150253233Y-80059620D01*
X150259178Y-80110872D01*
X150260000Y-80115000D01*
X150260000Y-81065000D01*
X150259178Y-81069128D01*
X150253233Y-81120379D01*
X150245501Y-81137888D01*
X150240970Y-81160671D01*
X150224672Y-81185062D01*
X150215521Y-81205788D01*
X150201365Y-81219943D01*
X150186777Y-81241777D01*
X150164943Y-81256365D01*
X150150788Y-81270521D01*
X150130062Y-81279672D01*
X150105671Y-81295970D01*
X150082888Y-81300501D01*
X150065379Y-81308233D01*
X150014129Y-81314178D01*
X150010000Y-81315000D01*
X149335000Y-81315000D01*
X149330873Y-81314179D01*
X149279620Y-81308233D01*
X149262109Y-81300501D01*
X149239329Y-81295970D01*
X149214939Y-81279673D01*
X149194211Y-81270521D01*
X149180053Y-81256363D01*
X149158223Y-81241777D01*
X149143636Y-81219946D01*
X149129478Y-81205788D01*
X149120324Y-81185057D01*
X149104030Y-81160671D01*
X149099499Y-81137892D01*
X149091766Y-81120379D01*
X149085818Y-81069117D01*
X149085000Y-81065000D01*
X149085000Y-80115000D01*
X149085818Y-80110885D01*
X149091766Y-80059620D01*
X149099499Y-80042105D01*
X149104030Y-80019329D01*
X149120323Y-79994944D01*
X149129478Y-79974211D01*
X149143638Y-79960050D01*
X149158223Y-79938223D01*
X149180050Y-79923638D01*
X149194211Y-79909478D01*
X149214944Y-79900323D01*
X149239329Y-79884030D01*
X149262105Y-79879499D01*
X149279620Y-79871766D01*
X149330884Y-79865818D01*
X149335000Y-79865000D01*
X150010000Y-79865000D01*
X150014116Y-79865818D01*
G37*
G36*
X152089116Y-79865818D02*
G01*
X152140379Y-79871766D01*
X152157892Y-79879499D01*
X152180671Y-79884030D01*
X152205057Y-79900324D01*
X152225788Y-79909478D01*
X152239946Y-79923636D01*
X152261777Y-79938223D01*
X152276363Y-79960053D01*
X152290521Y-79974211D01*
X152299673Y-79994939D01*
X152315970Y-80019329D01*
X152320501Y-80042109D01*
X152328233Y-80059620D01*
X152334178Y-80110872D01*
X152335000Y-80115000D01*
X152335000Y-81065000D01*
X152334178Y-81069128D01*
X152328233Y-81120379D01*
X152320501Y-81137888D01*
X152315970Y-81160671D01*
X152299672Y-81185062D01*
X152290521Y-81205788D01*
X152276365Y-81219943D01*
X152261777Y-81241777D01*
X152239943Y-81256365D01*
X152225788Y-81270521D01*
X152205062Y-81279672D01*
X152180671Y-81295970D01*
X152157888Y-81300501D01*
X152140379Y-81308233D01*
X152089129Y-81314178D01*
X152085000Y-81315000D01*
X151410000Y-81315000D01*
X151405873Y-81314179D01*
X151354620Y-81308233D01*
X151337109Y-81300501D01*
X151314329Y-81295970D01*
X151289939Y-81279673D01*
X151269211Y-81270521D01*
X151255053Y-81256363D01*
X151233223Y-81241777D01*
X151218636Y-81219946D01*
X151204478Y-81205788D01*
X151195324Y-81185057D01*
X151179030Y-81160671D01*
X151174499Y-81137892D01*
X151166766Y-81120379D01*
X151160818Y-81069117D01*
X151160000Y-81065000D01*
X151160000Y-80115000D01*
X151160818Y-80110885D01*
X151166766Y-80059620D01*
X151174499Y-80042105D01*
X151179030Y-80019329D01*
X151195323Y-79994944D01*
X151204478Y-79974211D01*
X151218638Y-79960050D01*
X151233223Y-79938223D01*
X151255050Y-79923638D01*
X151269211Y-79909478D01*
X151289944Y-79900323D01*
X151314329Y-79884030D01*
X151337105Y-79879499D01*
X151354620Y-79871766D01*
X151405884Y-79865818D01*
X151410000Y-79865000D01*
X152085000Y-79865000D01*
X152089116Y-79865818D01*
G37*
G36*
X146416615Y-78700818D02*
G01*
X146465017Y-78706434D01*
X146481555Y-78713736D01*
X146503387Y-78718079D01*
X146526759Y-78733695D01*
X146546224Y-78742290D01*
X146559517Y-78755583D01*
X146580438Y-78769562D01*
X146594416Y-78790482D01*
X146607709Y-78803775D01*
X146616302Y-78823238D01*
X146631921Y-78846613D01*
X146636264Y-78868446D01*
X146643565Y-78884982D01*
X146649178Y-78933372D01*
X146650000Y-78937500D01*
X146650000Y-79437500D01*
X146649178Y-79441627D01*
X146643565Y-79490017D01*
X146636264Y-79506551D01*
X146631921Y-79528387D01*
X146616301Y-79551763D01*
X146607709Y-79571224D01*
X146594418Y-79584514D01*
X146580438Y-79605438D01*
X146559514Y-79619418D01*
X146546224Y-79632709D01*
X146526763Y-79641301D01*
X146503387Y-79656921D01*
X146481551Y-79661264D01*
X146465017Y-79668565D01*
X146416629Y-79674178D01*
X146412500Y-79675000D01*
X145937500Y-79675000D01*
X145933373Y-79674179D01*
X145884982Y-79668565D01*
X145868446Y-79661264D01*
X145846613Y-79656921D01*
X145823238Y-79641302D01*
X145803775Y-79632709D01*
X145790482Y-79619416D01*
X145769562Y-79605438D01*
X145755583Y-79584517D01*
X145742290Y-79571224D01*
X145733695Y-79551759D01*
X145718079Y-79528387D01*
X145713736Y-79506555D01*
X145706434Y-79490017D01*
X145700818Y-79441616D01*
X145700000Y-79437500D01*
X145700000Y-78937500D01*
X145700818Y-78933385D01*
X145706434Y-78884982D01*
X145713736Y-78868442D01*
X145718079Y-78846613D01*
X145733694Y-78823242D01*
X145742290Y-78803775D01*
X145755585Y-78790479D01*
X145769562Y-78769562D01*
X145790479Y-78755585D01*
X145803775Y-78742290D01*
X145823242Y-78733694D01*
X145846613Y-78718079D01*
X145868442Y-78713736D01*
X145884982Y-78706434D01*
X145933384Y-78700818D01*
X145937500Y-78700000D01*
X146412500Y-78700000D01*
X146416615Y-78700818D01*
G37*
G36*
X149594134Y-78273806D02*
G01*
X149610355Y-78284645D01*
X149621194Y-78300866D01*
X149625000Y-78320000D01*
X149625000Y-78890000D01*
X149621194Y-78909134D01*
X149610355Y-78925355D01*
X149594134Y-78936194D01*
X149575000Y-78940000D01*
X149375000Y-78940000D01*
X149355866Y-78936194D01*
X149339645Y-78925355D01*
X149328806Y-78909134D01*
X149325000Y-78890000D01*
X149325000Y-78320000D01*
X149328806Y-78300866D01*
X149339645Y-78284645D01*
X149355866Y-78273806D01*
X149375000Y-78270000D01*
X149575000Y-78270000D01*
X149594134Y-78273806D01*
G37*
G36*
X150094134Y-78273806D02*
G01*
X150110355Y-78284645D01*
X150121194Y-78300866D01*
X150125000Y-78320000D01*
X150125000Y-78890000D01*
X150121194Y-78909134D01*
X150110355Y-78925355D01*
X150094134Y-78936194D01*
X150075000Y-78940000D01*
X149875000Y-78940000D01*
X149855866Y-78936194D01*
X149839645Y-78925355D01*
X149828806Y-78909134D01*
X149825000Y-78890000D01*
X149825000Y-78320000D01*
X149828806Y-78300866D01*
X149839645Y-78284645D01*
X149855866Y-78273806D01*
X149875000Y-78270000D01*
X150075000Y-78270000D01*
X150094134Y-78273806D01*
G37*
G36*
X150594134Y-78273806D02*
G01*
X150610355Y-78284645D01*
X150621194Y-78300866D01*
X150625000Y-78320000D01*
X150625000Y-78890000D01*
X150621194Y-78909134D01*
X150610355Y-78925355D01*
X150594134Y-78936194D01*
X150575000Y-78940000D01*
X150375000Y-78940000D01*
X150355866Y-78936194D01*
X150339645Y-78925355D01*
X150328806Y-78909134D01*
X150325000Y-78890000D01*
X150325000Y-78320000D01*
X150328806Y-78300866D01*
X150339645Y-78284645D01*
X150355866Y-78273806D01*
X150375000Y-78270000D01*
X150575000Y-78270000D01*
X150594134Y-78273806D01*
G37*
G36*
X151094134Y-78273806D02*
G01*
X151110355Y-78284645D01*
X151121194Y-78300866D01*
X151125000Y-78320000D01*
X151125000Y-78890000D01*
X151121194Y-78909134D01*
X151110355Y-78925355D01*
X151094134Y-78936194D01*
X151075000Y-78940000D01*
X150875000Y-78940000D01*
X150855866Y-78936194D01*
X150839645Y-78925355D01*
X150828806Y-78909134D01*
X150825000Y-78890000D01*
X150825000Y-78320000D01*
X150828806Y-78300866D01*
X150839645Y-78284645D01*
X150855866Y-78273806D01*
X150875000Y-78270000D01*
X151075000Y-78270000D01*
X151094134Y-78273806D01*
G37*
G36*
X153896615Y-77100818D02*
G01*
X153945017Y-77106434D01*
X153961555Y-77113736D01*
X153983387Y-77118079D01*
X154006759Y-77133695D01*
X154026224Y-77142290D01*
X154039517Y-77155583D01*
X154060438Y-77169562D01*
X154074416Y-77190482D01*
X154087709Y-77203775D01*
X154096302Y-77223238D01*
X154111921Y-77246613D01*
X154116264Y-77268446D01*
X154123565Y-77284982D01*
X154129178Y-77333372D01*
X154130000Y-77337500D01*
X154130000Y-77937500D01*
X154129178Y-77941627D01*
X154123565Y-77990017D01*
X154116264Y-78006551D01*
X154111921Y-78028387D01*
X154096301Y-78051763D01*
X154087709Y-78071224D01*
X154074418Y-78084514D01*
X154060438Y-78105438D01*
X154039514Y-78119418D01*
X154026224Y-78132709D01*
X154006763Y-78141301D01*
X153983387Y-78156921D01*
X153961551Y-78161264D01*
X153945017Y-78168565D01*
X153896629Y-78174178D01*
X153892500Y-78175000D01*
X153417500Y-78175000D01*
X153413373Y-78174179D01*
X153364982Y-78168565D01*
X153348446Y-78161264D01*
X153326613Y-78156921D01*
X153303238Y-78141302D01*
X153283775Y-78132709D01*
X153270482Y-78119416D01*
X153249562Y-78105438D01*
X153235583Y-78084517D01*
X153222290Y-78071224D01*
X153213695Y-78051759D01*
X153198079Y-78028387D01*
X153193736Y-78006555D01*
X153186434Y-77990017D01*
X153180818Y-77941616D01*
X153180000Y-77937500D01*
X153180000Y-77337500D01*
X153180818Y-77333385D01*
X153186434Y-77284982D01*
X153193736Y-77268442D01*
X153198079Y-77246613D01*
X153213694Y-77223242D01*
X153222290Y-77203775D01*
X153235585Y-77190479D01*
X153249562Y-77169562D01*
X153270479Y-77155585D01*
X153283775Y-77142290D01*
X153303242Y-77133694D01*
X153326613Y-77118079D01*
X153348442Y-77113736D01*
X153364982Y-77106434D01*
X153413384Y-77100818D01*
X153417500Y-77100000D01*
X153892500Y-77100000D01*
X153896615Y-77100818D01*
G37*
G36*
X167416408Y-74658626D02*
G01*
X167637519Y-74717872D01*
X167849005Y-74805473D01*
X168047248Y-74919928D01*
X168228855Y-75059280D01*
X168390720Y-75221145D01*
X168530072Y-75402752D01*
X168644527Y-75600995D01*
X168732128Y-75812481D01*
X168791374Y-76033592D01*
X168821253Y-76260545D01*
X168821253Y-76489455D01*
X168791374Y-76716408D01*
X168732128Y-76937519D01*
X168644527Y-77149005D01*
X168530072Y-77347248D01*
X168390720Y-77528855D01*
X168228855Y-77690720D01*
X168047248Y-77830072D01*
X167849005Y-77944527D01*
X167637519Y-78032128D01*
X167416408Y-78091374D01*
X167189455Y-78121253D01*
X166960545Y-78121253D01*
X166733592Y-78091374D01*
X166512481Y-78032128D01*
X166300995Y-77944527D01*
X166102752Y-77830072D01*
X165921145Y-77690720D01*
X165759280Y-77528855D01*
X165619928Y-77347248D01*
X165505473Y-77149005D01*
X165417872Y-76937519D01*
X165358626Y-76716408D01*
X165328747Y-76489455D01*
X165328747Y-76260545D01*
X165358626Y-76033592D01*
X165417872Y-75812481D01*
X165505473Y-75600995D01*
X165619928Y-75402752D01*
X165759280Y-75221145D01*
X165921145Y-75059280D01*
X166102752Y-74919928D01*
X166300995Y-74805473D01*
X166512481Y-74717872D01*
X166733592Y-74658626D01*
X166960545Y-74628747D01*
X167189455Y-74628747D01*
X167416408Y-74658626D01*
G37*
G36*
X146416615Y-76875818D02*
G01*
X146465017Y-76881434D01*
X146481555Y-76888736D01*
X146503387Y-76893079D01*
X146526759Y-76908695D01*
X146546224Y-76917290D01*
X146559517Y-76930583D01*
X146580438Y-76944562D01*
X146594416Y-76965482D01*
X146607709Y-76978775D01*
X146616302Y-76998238D01*
X146631921Y-77021613D01*
X146636264Y-77043446D01*
X146643565Y-77059982D01*
X146649178Y-77108372D01*
X146650000Y-77112500D01*
X146650000Y-77612500D01*
X146649178Y-77616627D01*
X146643565Y-77665017D01*
X146636264Y-77681551D01*
X146631921Y-77703387D01*
X146616301Y-77726763D01*
X146607709Y-77746224D01*
X146594418Y-77759514D01*
X146580438Y-77780438D01*
X146559514Y-77794418D01*
X146546224Y-77807709D01*
X146526763Y-77816301D01*
X146503387Y-77831921D01*
X146481551Y-77836264D01*
X146465017Y-77843565D01*
X146416629Y-77849178D01*
X146412500Y-77850000D01*
X145937500Y-77850000D01*
X145933373Y-77849179D01*
X145884982Y-77843565D01*
X145868446Y-77836264D01*
X145846613Y-77831921D01*
X145823238Y-77816302D01*
X145803775Y-77807709D01*
X145790482Y-77794416D01*
X145769562Y-77780438D01*
X145755583Y-77759517D01*
X145742290Y-77746224D01*
X145733695Y-77726759D01*
X145718079Y-77703387D01*
X145713736Y-77681555D01*
X145706434Y-77665017D01*
X145700818Y-77616616D01*
X145700000Y-77612500D01*
X145700000Y-77112500D01*
X145700818Y-77108385D01*
X145706434Y-77059982D01*
X145713736Y-77043442D01*
X145718079Y-77021613D01*
X145733694Y-76998242D01*
X145742290Y-76978775D01*
X145755585Y-76965479D01*
X145769562Y-76944562D01*
X145790479Y-76930585D01*
X145803775Y-76917290D01*
X145823242Y-76908694D01*
X145846613Y-76893079D01*
X145868442Y-76888736D01*
X145884982Y-76881434D01*
X145933384Y-76875818D01*
X145937500Y-76875000D01*
X146412500Y-76875000D01*
X146416615Y-76875818D01*
G37*
G36*
X157054116Y-76375818D02*
G01*
X157105379Y-76381766D01*
X157122892Y-76389499D01*
X157145671Y-76394030D01*
X157170057Y-76410324D01*
X157190788Y-76419478D01*
X157204946Y-76433636D01*
X157226777Y-76448223D01*
X157241363Y-76470053D01*
X157255521Y-76484211D01*
X157264673Y-76504939D01*
X157280970Y-76529329D01*
X157285501Y-76552109D01*
X157293233Y-76569620D01*
X157299178Y-76620872D01*
X157300000Y-76625000D01*
X157300000Y-77325000D01*
X157299178Y-77329128D01*
X157293233Y-77380379D01*
X157285501Y-77397888D01*
X157280970Y-77420671D01*
X157264672Y-77445062D01*
X157255521Y-77465788D01*
X157241365Y-77479943D01*
X157226777Y-77501777D01*
X157204943Y-77516365D01*
X157190788Y-77530521D01*
X157170062Y-77539672D01*
X157145671Y-77555970D01*
X157122888Y-77560501D01*
X157105379Y-77568233D01*
X157054129Y-77574178D01*
X157050000Y-77575000D01*
X156500000Y-77575000D01*
X156495873Y-77574179D01*
X156444620Y-77568233D01*
X156427109Y-77560501D01*
X156404329Y-77555970D01*
X156379939Y-77539673D01*
X156359211Y-77530521D01*
X156345053Y-77516363D01*
X156323223Y-77501777D01*
X156308636Y-77479946D01*
X156294478Y-77465788D01*
X156285324Y-77445057D01*
X156269030Y-77420671D01*
X156264499Y-77397892D01*
X156256766Y-77380379D01*
X156250818Y-77329117D01*
X156250000Y-77325000D01*
X156250000Y-76625000D01*
X156250818Y-76620885D01*
X156256766Y-76569620D01*
X156264499Y-76552105D01*
X156269030Y-76529329D01*
X156285323Y-76504944D01*
X156294478Y-76484211D01*
X156308638Y-76470050D01*
X156323223Y-76448223D01*
X156345050Y-76433638D01*
X156359211Y-76419478D01*
X156379944Y-76410323D01*
X156404329Y-76394030D01*
X156427105Y-76389499D01*
X156444620Y-76381766D01*
X156495884Y-76375818D01*
X156500000Y-76375000D01*
X157050000Y-76375000D01*
X157054116Y-76375818D01*
G37*
G36*
X159354116Y-76375818D02*
G01*
X159405379Y-76381766D01*
X159422892Y-76389499D01*
X159445671Y-76394030D01*
X159470057Y-76410324D01*
X159490788Y-76419478D01*
X159504946Y-76433636D01*
X159526777Y-76448223D01*
X159541363Y-76470053D01*
X159555521Y-76484211D01*
X159564673Y-76504939D01*
X159580970Y-76529329D01*
X159585501Y-76552109D01*
X159593233Y-76569620D01*
X159599178Y-76620872D01*
X159600000Y-76625000D01*
X159600000Y-77325000D01*
X159599178Y-77329128D01*
X159593233Y-77380379D01*
X159585501Y-77397888D01*
X159580970Y-77420671D01*
X159564672Y-77445062D01*
X159555521Y-77465788D01*
X159541365Y-77479943D01*
X159526777Y-77501777D01*
X159504943Y-77516365D01*
X159490788Y-77530521D01*
X159470062Y-77539672D01*
X159445671Y-77555970D01*
X159422888Y-77560501D01*
X159405379Y-77568233D01*
X159354129Y-77574178D01*
X159350000Y-77575000D01*
X158800000Y-77575000D01*
X158795873Y-77574179D01*
X158744620Y-77568233D01*
X158727109Y-77560501D01*
X158704329Y-77555970D01*
X158679939Y-77539673D01*
X158659211Y-77530521D01*
X158645053Y-77516363D01*
X158623223Y-77501777D01*
X158608636Y-77479946D01*
X158594478Y-77465788D01*
X158585324Y-77445057D01*
X158569030Y-77420671D01*
X158564499Y-77397892D01*
X158556766Y-77380379D01*
X158550818Y-77329117D01*
X158550000Y-77325000D01*
X158550000Y-76625000D01*
X158550818Y-76620885D01*
X158556766Y-76569620D01*
X158564499Y-76552105D01*
X158569030Y-76529329D01*
X158585323Y-76504944D01*
X158594478Y-76484211D01*
X158608638Y-76470050D01*
X158623223Y-76448223D01*
X158645050Y-76433638D01*
X158659211Y-76419478D01*
X158679944Y-76410323D01*
X158704329Y-76394030D01*
X158727105Y-76389499D01*
X158744620Y-76381766D01*
X158795884Y-76375818D01*
X158800000Y-76375000D01*
X159350000Y-76375000D01*
X159354116Y-76375818D01*
G37*
G36*
X149594134Y-76793806D02*
G01*
X149610355Y-76804645D01*
X149621194Y-76820866D01*
X149625000Y-76840000D01*
X149625000Y-77410000D01*
X149621194Y-77429134D01*
X149610355Y-77445355D01*
X149594134Y-77456194D01*
X149575000Y-77460000D01*
X149375000Y-77460000D01*
X149355866Y-77456194D01*
X149339645Y-77445355D01*
X149328806Y-77429134D01*
X149325000Y-77410000D01*
X149325000Y-76840000D01*
X149328806Y-76820866D01*
X149339645Y-76804645D01*
X149355866Y-76793806D01*
X149375000Y-76790000D01*
X149575000Y-76790000D01*
X149594134Y-76793806D01*
G37*
G36*
X150094134Y-76793806D02*
G01*
X150110355Y-76804645D01*
X150121194Y-76820866D01*
X150125000Y-76840000D01*
X150125000Y-77410000D01*
X150121194Y-77429134D01*
X150110355Y-77445355D01*
X150094134Y-77456194D01*
X150075000Y-77460000D01*
X149875000Y-77460000D01*
X149855866Y-77456194D01*
X149839645Y-77445355D01*
X149828806Y-77429134D01*
X149825000Y-77410000D01*
X149825000Y-76840000D01*
X149828806Y-76820866D01*
X149839645Y-76804645D01*
X149855866Y-76793806D01*
X149875000Y-76790000D01*
X150075000Y-76790000D01*
X150094134Y-76793806D01*
G37*
G36*
X150594134Y-76793806D02*
G01*
X150610355Y-76804645D01*
X150621194Y-76820866D01*
X150625000Y-76840000D01*
X150625000Y-77410000D01*
X150621194Y-77429134D01*
X150610355Y-77445355D01*
X150594134Y-77456194D01*
X150575000Y-77460000D01*
X150375000Y-77460000D01*
X150355866Y-77456194D01*
X150339645Y-77445355D01*
X150328806Y-77429134D01*
X150325000Y-77410000D01*
X150325000Y-76840000D01*
X150328806Y-76820866D01*
X150339645Y-76804645D01*
X150355866Y-76793806D01*
X150375000Y-76790000D01*
X150575000Y-76790000D01*
X150594134Y-76793806D01*
G37*
G36*
X151094134Y-76793806D02*
G01*
X151110355Y-76804645D01*
X151121194Y-76820866D01*
X151125000Y-76840000D01*
X151125000Y-77410000D01*
X151121194Y-77429134D01*
X151110355Y-77445355D01*
X151094134Y-77456194D01*
X151075000Y-77460000D01*
X150875000Y-77460000D01*
X150855866Y-77456194D01*
X150839645Y-77445355D01*
X150828806Y-77429134D01*
X150825000Y-77410000D01*
X150825000Y-76840000D01*
X150828806Y-76820866D01*
X150839645Y-76804645D01*
X150855866Y-76793806D01*
X150875000Y-76790000D01*
X151075000Y-76790000D01*
X151094134Y-76793806D01*
G37*
G36*
X153896615Y-75375818D02*
G01*
X153945017Y-75381434D01*
X153961555Y-75388736D01*
X153983387Y-75393079D01*
X154006759Y-75408695D01*
X154026224Y-75417290D01*
X154039517Y-75430583D01*
X154060438Y-75444562D01*
X154074416Y-75465482D01*
X154087709Y-75478775D01*
X154096302Y-75498238D01*
X154111921Y-75521613D01*
X154116264Y-75543446D01*
X154123565Y-75559982D01*
X154129178Y-75608372D01*
X154130000Y-75612500D01*
X154130000Y-76212500D01*
X154129178Y-76216627D01*
X154123565Y-76265017D01*
X154116264Y-76281551D01*
X154111921Y-76303387D01*
X154096301Y-76326763D01*
X154087709Y-76346224D01*
X154074418Y-76359514D01*
X154060438Y-76380438D01*
X154039514Y-76394418D01*
X154026224Y-76407709D01*
X154006763Y-76416301D01*
X153983387Y-76431921D01*
X153961551Y-76436264D01*
X153945017Y-76443565D01*
X153896629Y-76449178D01*
X153892500Y-76450000D01*
X153417500Y-76450000D01*
X153413373Y-76449179D01*
X153364982Y-76443565D01*
X153348446Y-76436264D01*
X153326613Y-76431921D01*
X153303238Y-76416302D01*
X153283775Y-76407709D01*
X153270482Y-76394416D01*
X153249562Y-76380438D01*
X153235583Y-76359517D01*
X153222290Y-76346224D01*
X153213695Y-76326759D01*
X153198079Y-76303387D01*
X153193736Y-76281555D01*
X153186434Y-76265017D01*
X153180818Y-76216616D01*
X153180000Y-76212500D01*
X153180000Y-75612500D01*
X153180818Y-75608385D01*
X153186434Y-75559982D01*
X153193736Y-75543442D01*
X153198079Y-75521613D01*
X153213694Y-75498242D01*
X153222290Y-75478775D01*
X153235585Y-75465479D01*
X153249562Y-75444562D01*
X153270479Y-75430585D01*
X153283775Y-75417290D01*
X153303242Y-75408694D01*
X153326613Y-75393079D01*
X153348442Y-75388736D01*
X153364982Y-75381434D01*
X153413384Y-75375818D01*
X153417500Y-75375000D01*
X153892500Y-75375000D01*
X153896615Y-75375818D01*
G37*
G36*
X145816615Y-75300818D02*
G01*
X145865017Y-75306434D01*
X145881555Y-75313736D01*
X145903387Y-75318079D01*
X145926759Y-75333695D01*
X145946224Y-75342290D01*
X145959517Y-75355583D01*
X145980438Y-75369562D01*
X145994416Y-75390482D01*
X146007709Y-75403775D01*
X146016302Y-75423238D01*
X146031921Y-75446613D01*
X146036264Y-75468446D01*
X146043565Y-75484982D01*
X146049178Y-75533372D01*
X146050000Y-75537500D01*
X146050000Y-76012500D01*
X146049178Y-76016627D01*
X146043565Y-76065017D01*
X146036264Y-76081551D01*
X146031921Y-76103387D01*
X146016301Y-76126763D01*
X146007709Y-76146224D01*
X145994418Y-76159514D01*
X145980438Y-76180438D01*
X145959514Y-76194418D01*
X145946224Y-76207709D01*
X145926763Y-76216301D01*
X145903387Y-76231921D01*
X145881551Y-76236264D01*
X145865017Y-76243565D01*
X145816629Y-76249178D01*
X145812500Y-76250000D01*
X145312500Y-76250000D01*
X145308373Y-76249179D01*
X145259982Y-76243565D01*
X145243446Y-76236264D01*
X145221613Y-76231921D01*
X145198238Y-76216302D01*
X145178775Y-76207709D01*
X145165482Y-76194416D01*
X145144562Y-76180438D01*
X145130583Y-76159517D01*
X145117290Y-76146224D01*
X145108695Y-76126759D01*
X145093079Y-76103387D01*
X145088736Y-76081555D01*
X145081434Y-76065017D01*
X145075818Y-76016616D01*
X145075000Y-76012500D01*
X145075000Y-75537500D01*
X145075818Y-75533385D01*
X145081434Y-75484982D01*
X145088736Y-75468442D01*
X145093079Y-75446613D01*
X145108694Y-75423242D01*
X145117290Y-75403775D01*
X145130585Y-75390479D01*
X145144562Y-75369562D01*
X145165479Y-75355585D01*
X145178775Y-75342290D01*
X145198242Y-75333694D01*
X145221613Y-75318079D01*
X145243442Y-75313736D01*
X145259982Y-75306434D01*
X145308384Y-75300818D01*
X145312500Y-75300000D01*
X145812500Y-75300000D01*
X145816615Y-75300818D01*
G37*
G36*
X147641615Y-75300818D02*
G01*
X147690017Y-75306434D01*
X147706555Y-75313736D01*
X147728387Y-75318079D01*
X147751759Y-75333695D01*
X147771224Y-75342290D01*
X147784517Y-75355583D01*
X147805438Y-75369562D01*
X147819416Y-75390482D01*
X147832709Y-75403775D01*
X147841302Y-75423238D01*
X147856921Y-75446613D01*
X147861264Y-75468446D01*
X147868565Y-75484982D01*
X147874178Y-75533372D01*
X147875000Y-75537500D01*
X147875000Y-76012500D01*
X147874178Y-76016627D01*
X147868565Y-76065017D01*
X147861264Y-76081551D01*
X147856921Y-76103387D01*
X147841301Y-76126763D01*
X147832709Y-76146224D01*
X147819418Y-76159514D01*
X147805438Y-76180438D01*
X147784514Y-76194418D01*
X147771224Y-76207709D01*
X147751763Y-76216301D01*
X147728387Y-76231921D01*
X147706551Y-76236264D01*
X147690017Y-76243565D01*
X147641629Y-76249178D01*
X147637500Y-76250000D01*
X147137500Y-76250000D01*
X147133373Y-76249179D01*
X147084982Y-76243565D01*
X147068446Y-76236264D01*
X147046613Y-76231921D01*
X147023238Y-76216302D01*
X147003775Y-76207709D01*
X146990482Y-76194416D01*
X146969562Y-76180438D01*
X146955583Y-76159517D01*
X146942290Y-76146224D01*
X146933695Y-76126759D01*
X146918079Y-76103387D01*
X146913736Y-76081555D01*
X146906434Y-76065017D01*
X146900818Y-76016616D01*
X146900000Y-76012500D01*
X146900000Y-75537500D01*
X146900818Y-75533385D01*
X146906434Y-75484982D01*
X146913736Y-75468442D01*
X146918079Y-75446613D01*
X146933694Y-75423242D01*
X146942290Y-75403775D01*
X146955585Y-75390479D01*
X146969562Y-75369562D01*
X146990479Y-75355585D01*
X147003775Y-75342290D01*
X147023242Y-75333694D01*
X147046613Y-75318079D01*
X147068442Y-75313736D01*
X147084982Y-75306434D01*
X147133384Y-75300818D01*
X147137500Y-75300000D01*
X147637500Y-75300000D01*
X147641615Y-75300818D01*
G37*
G36*
X130258414Y-74023852D02*
G01*
X130412228Y-74054448D01*
X130557117Y-74114463D01*
X130687515Y-74201592D01*
X130798408Y-74312485D01*
X130885537Y-74442883D01*
X130945552Y-74587772D01*
X130976148Y-74741586D01*
X130976148Y-74898414D01*
X130945552Y-75052228D01*
X130885537Y-75197117D01*
X130798408Y-75327515D01*
X130687515Y-75438408D01*
X130557117Y-75525537D01*
X130412228Y-75585552D01*
X130258414Y-75616148D01*
X130180000Y-75620000D01*
X130178749Y-75620000D01*
X129381251Y-75620000D01*
X129380000Y-75620000D01*
X129301586Y-75616148D01*
X129147772Y-75585552D01*
X129002883Y-75525537D01*
X128872485Y-75438408D01*
X128761592Y-75327515D01*
X128674463Y-75197117D01*
X128614448Y-75052228D01*
X128583852Y-74898414D01*
X128583852Y-74741586D01*
X128614448Y-74587772D01*
X128674463Y-74442883D01*
X128761592Y-74312485D01*
X128872485Y-74201592D01*
X129002883Y-74114463D01*
X129147772Y-74054448D01*
X129301586Y-74023852D01*
X129380000Y-74020000D01*
X130180000Y-74020000D01*
X130258414Y-74023852D01*
G37*
G36*
X137878414Y-74023852D02*
G01*
X138032228Y-74054448D01*
X138177117Y-74114463D01*
X138307515Y-74201592D01*
X138418408Y-74312485D01*
X138505537Y-74442883D01*
X138565552Y-74587772D01*
X138596148Y-74741586D01*
X138596148Y-74898414D01*
X138565552Y-75052228D01*
X138505537Y-75197117D01*
X138418408Y-75327515D01*
X138307515Y-75438408D01*
X138177117Y-75525537D01*
X138032228Y-75585552D01*
X137878414Y-75616148D01*
X137800000Y-75620000D01*
X137798749Y-75620000D01*
X137001251Y-75620000D01*
X137000000Y-75620000D01*
X136921586Y-75616148D01*
X136767772Y-75585552D01*
X136622883Y-75525537D01*
X136492485Y-75438408D01*
X136381592Y-75327515D01*
X136294463Y-75197117D01*
X136234448Y-75052228D01*
X136203852Y-74898414D01*
X136203852Y-74741586D01*
X136234448Y-74587772D01*
X136294463Y-74442883D01*
X136381592Y-74312485D01*
X136492485Y-74201592D01*
X136622883Y-74114463D01*
X136767772Y-74054448D01*
X136921586Y-74023852D01*
X137000000Y-74020000D01*
X137800000Y-74020000D01*
X137878414Y-74023852D01*
G37*
G36*
X145116615Y-73000818D02*
G01*
X145165017Y-73006434D01*
X145181555Y-73013736D01*
X145203387Y-73018079D01*
X145226759Y-73033695D01*
X145246224Y-73042290D01*
X145259517Y-73055583D01*
X145280438Y-73069562D01*
X145294416Y-73090482D01*
X145307709Y-73103775D01*
X145316302Y-73123238D01*
X145331921Y-73146613D01*
X145336264Y-73168446D01*
X145343565Y-73184982D01*
X145349178Y-73233372D01*
X145350000Y-73237500D01*
X145350000Y-73737500D01*
X145349178Y-73741627D01*
X145343565Y-73790017D01*
X145336264Y-73806551D01*
X145331921Y-73828387D01*
X145316301Y-73851763D01*
X145307709Y-73871224D01*
X145294418Y-73884514D01*
X145280438Y-73905438D01*
X145259514Y-73919418D01*
X145246224Y-73932709D01*
X145226763Y-73941301D01*
X145203387Y-73956921D01*
X145181551Y-73961264D01*
X145165017Y-73968565D01*
X145116629Y-73974178D01*
X145112500Y-73975000D01*
X144637500Y-73975000D01*
X144633373Y-73974179D01*
X144584982Y-73968565D01*
X144568446Y-73961264D01*
X144546613Y-73956921D01*
X144523238Y-73941302D01*
X144503775Y-73932709D01*
X144490482Y-73919416D01*
X144469562Y-73905438D01*
X144455583Y-73884517D01*
X144442290Y-73871224D01*
X144433695Y-73851759D01*
X144418079Y-73828387D01*
X144413736Y-73806555D01*
X144406434Y-73790017D01*
X144400818Y-73741616D01*
X144400000Y-73737500D01*
X144400000Y-73237500D01*
X144400818Y-73233385D01*
X144406434Y-73184982D01*
X144413736Y-73168442D01*
X144418079Y-73146613D01*
X144433694Y-73123242D01*
X144442290Y-73103775D01*
X144455585Y-73090479D01*
X144469562Y-73069562D01*
X144490479Y-73055585D01*
X144503775Y-73042290D01*
X144523242Y-73033694D01*
X144546613Y-73018079D01*
X144568442Y-73013736D01*
X144584982Y-73006434D01*
X144633384Y-73000818D01*
X144637500Y-73000000D01*
X145112500Y-73000000D01*
X145116615Y-73000818D01*
G37*
G36*
X146716615Y-72900818D02*
G01*
X146765017Y-72906434D01*
X146781555Y-72913736D01*
X146803387Y-72918079D01*
X146826759Y-72933695D01*
X146846224Y-72942290D01*
X146859517Y-72955583D01*
X146880438Y-72969562D01*
X146894416Y-72990482D01*
X146907709Y-73003775D01*
X146916302Y-73023238D01*
X146931921Y-73046613D01*
X146936264Y-73068446D01*
X146943565Y-73084982D01*
X146949178Y-73133372D01*
X146950000Y-73137500D01*
X146950000Y-73737500D01*
X146949178Y-73741627D01*
X146943565Y-73790017D01*
X146936264Y-73806551D01*
X146931921Y-73828387D01*
X146916301Y-73851763D01*
X146907709Y-73871224D01*
X146894418Y-73884514D01*
X146880438Y-73905438D01*
X146859514Y-73919418D01*
X146846224Y-73932709D01*
X146826763Y-73941301D01*
X146803387Y-73956921D01*
X146781551Y-73961264D01*
X146765017Y-73968565D01*
X146716629Y-73974178D01*
X146712500Y-73975000D01*
X146237500Y-73975000D01*
X146233373Y-73974179D01*
X146184982Y-73968565D01*
X146168446Y-73961264D01*
X146146613Y-73956921D01*
X146123238Y-73941302D01*
X146103775Y-73932709D01*
X146090482Y-73919416D01*
X146069562Y-73905438D01*
X146055583Y-73884517D01*
X146042290Y-73871224D01*
X146033695Y-73851759D01*
X146018079Y-73828387D01*
X146013736Y-73806555D01*
X146006434Y-73790017D01*
X146000818Y-73741616D01*
X146000000Y-73737500D01*
X146000000Y-73137500D01*
X146000818Y-73133385D01*
X146006434Y-73084982D01*
X146013736Y-73068442D01*
X146018079Y-73046613D01*
X146033694Y-73023242D01*
X146042290Y-73003775D01*
X146055585Y-72990479D01*
X146069562Y-72969562D01*
X146090479Y-72955585D01*
X146103775Y-72942290D01*
X146123242Y-72933694D01*
X146146613Y-72918079D01*
X146168442Y-72913736D01*
X146184982Y-72906434D01*
X146233384Y-72900818D01*
X146237500Y-72900000D01*
X146712500Y-72900000D01*
X146716615Y-72900818D01*
G37*
G36*
X148716615Y-73000818D02*
G01*
X148765017Y-73006434D01*
X148781555Y-73013736D01*
X148803387Y-73018079D01*
X148826759Y-73033695D01*
X148846224Y-73042290D01*
X148859517Y-73055583D01*
X148880438Y-73069562D01*
X148894416Y-73090482D01*
X148907709Y-73103775D01*
X148916302Y-73123238D01*
X148931921Y-73146613D01*
X148936264Y-73168446D01*
X148943565Y-73184982D01*
X148949178Y-73233372D01*
X148950000Y-73237500D01*
X148950000Y-73737500D01*
X148949178Y-73741627D01*
X148943565Y-73790017D01*
X148936264Y-73806551D01*
X148931921Y-73828387D01*
X148916301Y-73851763D01*
X148907709Y-73871224D01*
X148894418Y-73884514D01*
X148880438Y-73905438D01*
X148859514Y-73919418D01*
X148846224Y-73932709D01*
X148826763Y-73941301D01*
X148803387Y-73956921D01*
X148781551Y-73961264D01*
X148765017Y-73968565D01*
X148716629Y-73974178D01*
X148712500Y-73975000D01*
X148237500Y-73975000D01*
X148233373Y-73974179D01*
X148184982Y-73968565D01*
X148168446Y-73961264D01*
X148146613Y-73956921D01*
X148123238Y-73941302D01*
X148103775Y-73932709D01*
X148090482Y-73919416D01*
X148069562Y-73905438D01*
X148055583Y-73884517D01*
X148042290Y-73871224D01*
X148033695Y-73851759D01*
X148018079Y-73828387D01*
X148013736Y-73806555D01*
X148006434Y-73790017D01*
X148000818Y-73741616D01*
X148000000Y-73737500D01*
X148000000Y-73237500D01*
X148000818Y-73233385D01*
X148006434Y-73184982D01*
X148013736Y-73168442D01*
X148018079Y-73146613D01*
X148033694Y-73123242D01*
X148042290Y-73103775D01*
X148055585Y-73090479D01*
X148069562Y-73069562D01*
X148090479Y-73055585D01*
X148103775Y-73042290D01*
X148123242Y-73033694D01*
X148146613Y-73018079D01*
X148168442Y-73013736D01*
X148184982Y-73006434D01*
X148233384Y-73000818D01*
X148237500Y-73000000D01*
X148712500Y-73000000D01*
X148716615Y-73000818D01*
G37*
G36*
X150216615Y-72900818D02*
G01*
X150265017Y-72906434D01*
X150281555Y-72913736D01*
X150303387Y-72918079D01*
X150326759Y-72933695D01*
X150346224Y-72942290D01*
X150359517Y-72955583D01*
X150380438Y-72969562D01*
X150394416Y-72990482D01*
X150407709Y-73003775D01*
X150416302Y-73023238D01*
X150431921Y-73046613D01*
X150436264Y-73068446D01*
X150443565Y-73084982D01*
X150449178Y-73133372D01*
X150450000Y-73137500D01*
X150450000Y-73737500D01*
X150449178Y-73741627D01*
X150443565Y-73790017D01*
X150436264Y-73806551D01*
X150431921Y-73828387D01*
X150416301Y-73851763D01*
X150407709Y-73871224D01*
X150394418Y-73884514D01*
X150380438Y-73905438D01*
X150359514Y-73919418D01*
X150346224Y-73932709D01*
X150326763Y-73941301D01*
X150303387Y-73956921D01*
X150281551Y-73961264D01*
X150265017Y-73968565D01*
X150216629Y-73974178D01*
X150212500Y-73975000D01*
X149737500Y-73975000D01*
X149733373Y-73974179D01*
X149684982Y-73968565D01*
X149668446Y-73961264D01*
X149646613Y-73956921D01*
X149623238Y-73941302D01*
X149603775Y-73932709D01*
X149590482Y-73919416D01*
X149569562Y-73905438D01*
X149555583Y-73884517D01*
X149542290Y-73871224D01*
X149533695Y-73851759D01*
X149518079Y-73828387D01*
X149513736Y-73806555D01*
X149506434Y-73790017D01*
X149500818Y-73741616D01*
X149500000Y-73737500D01*
X149500000Y-73137500D01*
X149500818Y-73133385D01*
X149506434Y-73084982D01*
X149513736Y-73068442D01*
X149518079Y-73046613D01*
X149533694Y-73023242D01*
X149542290Y-73003775D01*
X149555585Y-72990479D01*
X149569562Y-72969562D01*
X149590479Y-72955585D01*
X149603775Y-72942290D01*
X149623242Y-72933694D01*
X149646613Y-72918079D01*
X149668442Y-72913736D01*
X149684982Y-72906434D01*
X149733384Y-72900818D01*
X149737500Y-72900000D01*
X150212500Y-72900000D01*
X150216615Y-72900818D01*
G37*
G36*
X130258414Y-71483852D02*
G01*
X130412228Y-71514448D01*
X130557117Y-71574463D01*
X130687515Y-71661592D01*
X130798408Y-71772485D01*
X130885537Y-71902883D01*
X130945552Y-72047772D01*
X130976148Y-72201586D01*
X130976148Y-72358414D01*
X130945552Y-72512228D01*
X130885537Y-72657117D01*
X130798408Y-72787515D01*
X130687515Y-72898408D01*
X130557117Y-72985537D01*
X130412228Y-73045552D01*
X130258414Y-73076148D01*
X130180000Y-73080000D01*
X130178749Y-73080000D01*
X129381251Y-73080000D01*
X129380000Y-73080000D01*
X129301586Y-73076148D01*
X129147772Y-73045552D01*
X129002883Y-72985537D01*
X128872485Y-72898408D01*
X128761592Y-72787515D01*
X128674463Y-72657117D01*
X128614448Y-72512228D01*
X128583852Y-72358414D01*
X128583852Y-72201586D01*
X128614448Y-72047772D01*
X128674463Y-71902883D01*
X128761592Y-71772485D01*
X128872485Y-71661592D01*
X129002883Y-71574463D01*
X129147772Y-71514448D01*
X129301586Y-71483852D01*
X129380000Y-71480000D01*
X130180000Y-71480000D01*
X130258414Y-71483852D01*
G37*
G36*
X137878414Y-71483852D02*
G01*
X138032228Y-71514448D01*
X138177117Y-71574463D01*
X138307515Y-71661592D01*
X138418408Y-71772485D01*
X138505537Y-71902883D01*
X138565552Y-72047772D01*
X138596148Y-72201586D01*
X138596148Y-72358414D01*
X138565552Y-72512228D01*
X138505537Y-72657117D01*
X138418408Y-72787515D01*
X138307515Y-72898408D01*
X138177117Y-72985537D01*
X138032228Y-73045552D01*
X137878414Y-73076148D01*
X137800000Y-73080000D01*
X137798749Y-73080000D01*
X137001251Y-73080000D01*
X137000000Y-73080000D01*
X136921586Y-73076148D01*
X136767772Y-73045552D01*
X136622883Y-72985537D01*
X136492485Y-72898408D01*
X136381592Y-72787515D01*
X136294463Y-72657117D01*
X136234448Y-72512228D01*
X136203852Y-72358414D01*
X136203852Y-72201586D01*
X136234448Y-72047772D01*
X136294463Y-71902883D01*
X136381592Y-71772485D01*
X136492485Y-71661592D01*
X136622883Y-71574463D01*
X136767772Y-71514448D01*
X136921586Y-71483852D01*
X137000000Y-71480000D01*
X137800000Y-71480000D01*
X137878414Y-71483852D01*
G37*
G36*
X146716615Y-71175818D02*
G01*
X146765017Y-71181434D01*
X146781555Y-71188736D01*
X146803387Y-71193079D01*
X146826759Y-71208695D01*
X146846224Y-71217290D01*
X146859517Y-71230583D01*
X146880438Y-71244562D01*
X146894416Y-71265482D01*
X146907709Y-71278775D01*
X146916302Y-71298238D01*
X146931921Y-71321613D01*
X146936264Y-71343446D01*
X146943565Y-71359982D01*
X146949178Y-71408372D01*
X146950000Y-71412500D01*
X146950000Y-72012500D01*
X146949178Y-72016627D01*
X146943565Y-72065017D01*
X146936264Y-72081551D01*
X146931921Y-72103387D01*
X146916301Y-72126763D01*
X146907709Y-72146224D01*
X146894418Y-72159514D01*
X146880438Y-72180438D01*
X146859514Y-72194418D01*
X146846224Y-72207709D01*
X146826763Y-72216301D01*
X146803387Y-72231921D01*
X146781551Y-72236264D01*
X146765017Y-72243565D01*
X146716629Y-72249178D01*
X146712500Y-72250000D01*
X146237500Y-72250000D01*
X146233373Y-72249179D01*
X146184982Y-72243565D01*
X146168446Y-72236264D01*
X146146613Y-72231921D01*
X146123238Y-72216302D01*
X146103775Y-72207709D01*
X146090482Y-72194416D01*
X146069562Y-72180438D01*
X146055583Y-72159517D01*
X146042290Y-72146224D01*
X146033695Y-72126759D01*
X146018079Y-72103387D01*
X146013736Y-72081555D01*
X146006434Y-72065017D01*
X146000818Y-72016616D01*
X146000000Y-72012500D01*
X146000000Y-71412500D01*
X146000818Y-71408385D01*
X146006434Y-71359982D01*
X146013736Y-71343442D01*
X146018079Y-71321613D01*
X146033694Y-71298242D01*
X146042290Y-71278775D01*
X146055585Y-71265479D01*
X146069562Y-71244562D01*
X146090479Y-71230585D01*
X146103775Y-71217290D01*
X146123242Y-71208694D01*
X146146613Y-71193079D01*
X146168442Y-71188736D01*
X146184982Y-71181434D01*
X146233384Y-71175818D01*
X146237500Y-71175000D01*
X146712500Y-71175000D01*
X146716615Y-71175818D01*
G37*
G36*
X150216615Y-71175818D02*
G01*
X150265017Y-71181434D01*
X150281555Y-71188736D01*
X150303387Y-71193079D01*
X150326759Y-71208695D01*
X150346224Y-71217290D01*
X150359517Y-71230583D01*
X150380438Y-71244562D01*
X150394416Y-71265482D01*
X150407709Y-71278775D01*
X150416302Y-71298238D01*
X150431921Y-71321613D01*
X150436264Y-71343446D01*
X150443565Y-71359982D01*
X150449178Y-71408372D01*
X150450000Y-71412500D01*
X150450000Y-72012500D01*
X150449178Y-72016627D01*
X150443565Y-72065017D01*
X150436264Y-72081551D01*
X150431921Y-72103387D01*
X150416301Y-72126763D01*
X150407709Y-72146224D01*
X150394418Y-72159514D01*
X150380438Y-72180438D01*
X150359514Y-72194418D01*
X150346224Y-72207709D01*
X150326763Y-72216301D01*
X150303387Y-72231921D01*
X150281551Y-72236264D01*
X150265017Y-72243565D01*
X150216629Y-72249178D01*
X150212500Y-72250000D01*
X149737500Y-72250000D01*
X149733373Y-72249179D01*
X149684982Y-72243565D01*
X149668446Y-72236264D01*
X149646613Y-72231921D01*
X149623238Y-72216302D01*
X149603775Y-72207709D01*
X149590482Y-72194416D01*
X149569562Y-72180438D01*
X149555583Y-72159517D01*
X149542290Y-72146224D01*
X149533695Y-72126759D01*
X149518079Y-72103387D01*
X149513736Y-72081555D01*
X149506434Y-72065017D01*
X149500818Y-72016616D01*
X149500000Y-72012500D01*
X149500000Y-71412500D01*
X149500818Y-71408385D01*
X149506434Y-71359982D01*
X149513736Y-71343442D01*
X149518079Y-71321613D01*
X149533694Y-71298242D01*
X149542290Y-71278775D01*
X149555585Y-71265479D01*
X149569562Y-71244562D01*
X149590479Y-71230585D01*
X149603775Y-71217290D01*
X149623242Y-71208694D01*
X149646613Y-71193079D01*
X149668442Y-71188736D01*
X149684982Y-71181434D01*
X149733384Y-71175818D01*
X149737500Y-71175000D01*
X150212500Y-71175000D01*
X150216615Y-71175818D01*
G37*
G36*
X145116615Y-71175818D02*
G01*
X145165017Y-71181434D01*
X145181555Y-71188736D01*
X145203387Y-71193079D01*
X145226759Y-71208695D01*
X145246224Y-71217290D01*
X145259517Y-71230583D01*
X145280438Y-71244562D01*
X145294416Y-71265482D01*
X145307709Y-71278775D01*
X145316302Y-71298238D01*
X145331921Y-71321613D01*
X145336264Y-71343446D01*
X145343565Y-71359982D01*
X145349178Y-71408372D01*
X145350000Y-71412500D01*
X145350000Y-71912500D01*
X145349178Y-71916627D01*
X145343565Y-71965017D01*
X145336264Y-71981551D01*
X145331921Y-72003387D01*
X145316301Y-72026763D01*
X145307709Y-72046224D01*
X145294418Y-72059514D01*
X145280438Y-72080438D01*
X145259514Y-72094418D01*
X145246224Y-72107709D01*
X145226763Y-72116301D01*
X145203387Y-72131921D01*
X145181551Y-72136264D01*
X145165017Y-72143565D01*
X145116629Y-72149178D01*
X145112500Y-72150000D01*
X144637500Y-72150000D01*
X144633373Y-72149179D01*
X144584982Y-72143565D01*
X144568446Y-72136264D01*
X144546613Y-72131921D01*
X144523238Y-72116302D01*
X144503775Y-72107709D01*
X144490482Y-72094416D01*
X144469562Y-72080438D01*
X144455583Y-72059517D01*
X144442290Y-72046224D01*
X144433695Y-72026759D01*
X144418079Y-72003387D01*
X144413736Y-71981555D01*
X144406434Y-71965017D01*
X144400818Y-71916616D01*
X144400000Y-71912500D01*
X144400000Y-71412500D01*
X144400818Y-71408385D01*
X144406434Y-71359982D01*
X144413736Y-71343442D01*
X144418079Y-71321613D01*
X144433694Y-71298242D01*
X144442290Y-71278775D01*
X144455585Y-71265479D01*
X144469562Y-71244562D01*
X144490479Y-71230585D01*
X144503775Y-71217290D01*
X144523242Y-71208694D01*
X144546613Y-71193079D01*
X144568442Y-71188736D01*
X144584982Y-71181434D01*
X144633384Y-71175818D01*
X144637500Y-71175000D01*
X145112500Y-71175000D01*
X145116615Y-71175818D01*
G37*
G36*
X148716615Y-71175818D02*
G01*
X148765017Y-71181434D01*
X148781555Y-71188736D01*
X148803387Y-71193079D01*
X148826759Y-71208695D01*
X148846224Y-71217290D01*
X148859517Y-71230583D01*
X148880438Y-71244562D01*
X148894416Y-71265482D01*
X148907709Y-71278775D01*
X148916302Y-71298238D01*
X148931921Y-71321613D01*
X148936264Y-71343446D01*
X148943565Y-71359982D01*
X148949178Y-71408372D01*
X148950000Y-71412500D01*
X148950000Y-71912500D01*
X148949178Y-71916627D01*
X148943565Y-71965017D01*
X148936264Y-71981551D01*
X148931921Y-72003387D01*
X148916301Y-72026763D01*
X148907709Y-72046224D01*
X148894418Y-72059514D01*
X148880438Y-72080438D01*
X148859514Y-72094418D01*
X148846224Y-72107709D01*
X148826763Y-72116301D01*
X148803387Y-72131921D01*
X148781551Y-72136264D01*
X148765017Y-72143565D01*
X148716629Y-72149178D01*
X148712500Y-72150000D01*
X148237500Y-72150000D01*
X148233373Y-72149179D01*
X148184982Y-72143565D01*
X148168446Y-72136264D01*
X148146613Y-72131921D01*
X148123238Y-72116302D01*
X148103775Y-72107709D01*
X148090482Y-72094416D01*
X148069562Y-72080438D01*
X148055583Y-72059517D01*
X148042290Y-72046224D01*
X148033695Y-72026759D01*
X148018079Y-72003387D01*
X148013736Y-71981555D01*
X148006434Y-71965017D01*
X148000818Y-71916616D01*
X148000000Y-71912500D01*
X148000000Y-71412500D01*
X148000818Y-71408385D01*
X148006434Y-71359982D01*
X148013736Y-71343442D01*
X148018079Y-71321613D01*
X148033694Y-71298242D01*
X148042290Y-71278775D01*
X148055585Y-71265479D01*
X148069562Y-71244562D01*
X148090479Y-71230585D01*
X148103775Y-71217290D01*
X148123242Y-71208694D01*
X148146613Y-71193079D01*
X148168442Y-71188736D01*
X148184982Y-71181434D01*
X148233384Y-71175818D01*
X148237500Y-71175000D01*
X148712500Y-71175000D01*
X148716615Y-71175818D01*
G37*
G36*
X125616615Y-70960818D02*
G01*
X125665017Y-70966434D01*
X125681555Y-70973736D01*
X125703387Y-70978079D01*
X125726759Y-70993695D01*
X125746224Y-71002290D01*
X125759517Y-71015583D01*
X125780438Y-71029562D01*
X125794416Y-71050482D01*
X125807709Y-71063775D01*
X125816302Y-71083238D01*
X125831921Y-71106613D01*
X125836264Y-71128446D01*
X125843565Y-71144982D01*
X125849178Y-71193372D01*
X125850000Y-71197500D01*
X125850000Y-71697500D01*
X125849178Y-71701627D01*
X125843565Y-71750017D01*
X125836264Y-71766551D01*
X125831921Y-71788387D01*
X125816301Y-71811763D01*
X125807709Y-71831224D01*
X125794418Y-71844514D01*
X125780438Y-71865438D01*
X125759514Y-71879418D01*
X125746224Y-71892709D01*
X125726763Y-71901301D01*
X125703387Y-71916921D01*
X125681551Y-71921264D01*
X125665017Y-71928565D01*
X125616629Y-71934178D01*
X125612500Y-71935000D01*
X125137500Y-71935000D01*
X125133373Y-71934179D01*
X125084982Y-71928565D01*
X125068446Y-71921264D01*
X125046613Y-71916921D01*
X125023238Y-71901302D01*
X125003775Y-71892709D01*
X124990482Y-71879416D01*
X124969562Y-71865438D01*
X124955583Y-71844517D01*
X124942290Y-71831224D01*
X124933695Y-71811759D01*
X124918079Y-71788387D01*
X124913736Y-71766555D01*
X124906434Y-71750017D01*
X124900818Y-71701616D01*
X124900000Y-71697500D01*
X124900000Y-71197500D01*
X124900818Y-71193385D01*
X124906434Y-71144982D01*
X124913736Y-71128442D01*
X124918079Y-71106613D01*
X124933694Y-71083242D01*
X124942290Y-71063775D01*
X124955585Y-71050479D01*
X124969562Y-71029562D01*
X124990479Y-71015585D01*
X125003775Y-71002290D01*
X125023242Y-70993694D01*
X125046613Y-70978079D01*
X125068442Y-70973736D01*
X125084982Y-70966434D01*
X125133384Y-70960818D01*
X125137500Y-70960000D01*
X125612500Y-70960000D01*
X125616615Y-70960818D01*
G37*
G36*
X168111104Y-69742127D02*
G01*
X168184099Y-69790901D01*
X168232873Y-69863896D01*
X168250000Y-69950000D01*
X168250000Y-70400000D01*
X168232873Y-70486104D01*
X168184099Y-70559099D01*
X168111104Y-70607873D01*
X168025000Y-70625000D01*
X167075000Y-70625000D01*
X166988896Y-70607873D01*
X166915901Y-70559099D01*
X166867127Y-70486104D01*
X166850000Y-70400000D01*
X166850000Y-69950000D01*
X166867127Y-69863896D01*
X166915901Y-69790901D01*
X166988896Y-69742127D01*
X167075000Y-69725000D01*
X168025000Y-69725000D01*
X168111104Y-69742127D01*
G37*
G36*
X130258414Y-68943852D02*
G01*
X130412228Y-68974448D01*
X130557117Y-69034463D01*
X130687515Y-69121592D01*
X130798408Y-69232485D01*
X130885537Y-69362883D01*
X130945552Y-69507772D01*
X130976148Y-69661586D01*
X130976148Y-69818414D01*
X130945552Y-69972228D01*
X130885537Y-70117117D01*
X130798408Y-70247515D01*
X130687515Y-70358408D01*
X130557117Y-70445537D01*
X130412228Y-70505552D01*
X130258414Y-70536148D01*
X130180000Y-70540000D01*
X130178749Y-70540000D01*
X129381251Y-70540000D01*
X129380000Y-70540000D01*
X129301586Y-70536148D01*
X129147772Y-70505552D01*
X129002883Y-70445537D01*
X128872485Y-70358408D01*
X128761592Y-70247515D01*
X128674463Y-70117117D01*
X128614448Y-69972228D01*
X128583852Y-69818414D01*
X128583852Y-69661586D01*
X128614448Y-69507772D01*
X128674463Y-69362883D01*
X128761592Y-69232485D01*
X128872485Y-69121592D01*
X129002883Y-69034463D01*
X129147772Y-68974448D01*
X129301586Y-68943852D01*
X129380000Y-68940000D01*
X130180000Y-68940000D01*
X130258414Y-68943852D01*
G37*
G36*
X137878414Y-68943852D02*
G01*
X138032228Y-68974448D01*
X138177117Y-69034463D01*
X138307515Y-69121592D01*
X138418408Y-69232485D01*
X138505537Y-69362883D01*
X138565552Y-69507772D01*
X138596148Y-69661586D01*
X138596148Y-69818414D01*
X138565552Y-69972228D01*
X138505537Y-70117117D01*
X138418408Y-70247515D01*
X138307515Y-70358408D01*
X138177117Y-70445537D01*
X138032228Y-70505552D01*
X137878414Y-70536148D01*
X137800000Y-70540000D01*
X137798749Y-70540000D01*
X137001251Y-70540000D01*
X137000000Y-70540000D01*
X136921586Y-70536148D01*
X136767772Y-70505552D01*
X136622883Y-70445537D01*
X136492485Y-70358408D01*
X136381592Y-70247515D01*
X136294463Y-70117117D01*
X136234448Y-69972228D01*
X136203852Y-69818414D01*
X136203852Y-69661586D01*
X136234448Y-69507772D01*
X136294463Y-69362883D01*
X136381592Y-69232485D01*
X136492485Y-69121592D01*
X136622883Y-69034463D01*
X136767772Y-68974448D01*
X136921586Y-68943852D01*
X137000000Y-68940000D01*
X137800000Y-68940000D01*
X137878414Y-68943852D01*
G37*
G36*
X125616615Y-69135818D02*
G01*
X125665017Y-69141434D01*
X125681555Y-69148736D01*
X125703387Y-69153079D01*
X125726759Y-69168695D01*
X125746224Y-69177290D01*
X125759517Y-69190583D01*
X125780438Y-69204562D01*
X125794416Y-69225482D01*
X125807709Y-69238775D01*
X125816302Y-69258238D01*
X125831921Y-69281613D01*
X125836264Y-69303446D01*
X125843565Y-69319982D01*
X125849178Y-69368372D01*
X125850000Y-69372500D01*
X125850000Y-69872500D01*
X125849178Y-69876627D01*
X125843565Y-69925017D01*
X125836264Y-69941551D01*
X125831921Y-69963387D01*
X125816301Y-69986763D01*
X125807709Y-70006224D01*
X125794418Y-70019514D01*
X125780438Y-70040438D01*
X125759514Y-70054418D01*
X125746224Y-70067709D01*
X125726763Y-70076301D01*
X125703387Y-70091921D01*
X125681551Y-70096264D01*
X125665017Y-70103565D01*
X125616629Y-70109178D01*
X125612500Y-70110000D01*
X125137500Y-70110000D01*
X125133373Y-70109179D01*
X125084982Y-70103565D01*
X125068446Y-70096264D01*
X125046613Y-70091921D01*
X125023238Y-70076302D01*
X125003775Y-70067709D01*
X124990482Y-70054416D01*
X124969562Y-70040438D01*
X124955583Y-70019517D01*
X124942290Y-70006224D01*
X124933695Y-69986759D01*
X124918079Y-69963387D01*
X124913736Y-69941555D01*
X124906434Y-69925017D01*
X124900818Y-69876616D01*
X124900000Y-69872500D01*
X124900000Y-69372500D01*
X124900818Y-69368385D01*
X124906434Y-69319982D01*
X124913736Y-69303442D01*
X124918079Y-69281613D01*
X124933694Y-69258242D01*
X124942290Y-69238775D01*
X124955585Y-69225479D01*
X124969562Y-69204562D01*
X124990479Y-69190585D01*
X125003775Y-69177290D01*
X125023242Y-69168694D01*
X125046613Y-69153079D01*
X125068442Y-69148736D01*
X125084982Y-69141434D01*
X125133384Y-69135818D01*
X125137500Y-69135000D01*
X125612500Y-69135000D01*
X125616615Y-69135818D01*
G37*
G36*
X139966615Y-68650818D02*
G01*
X140015017Y-68656434D01*
X140031555Y-68663736D01*
X140053387Y-68668079D01*
X140076759Y-68683695D01*
X140096224Y-68692290D01*
X140109517Y-68705583D01*
X140130438Y-68719562D01*
X140144416Y-68740482D01*
X140157709Y-68753775D01*
X140166302Y-68773238D01*
X140181921Y-68796613D01*
X140186264Y-68818446D01*
X140193565Y-68834982D01*
X140199178Y-68883372D01*
X140200000Y-68887500D01*
X140200000Y-69362500D01*
X140199178Y-69366627D01*
X140193565Y-69415017D01*
X140186264Y-69431551D01*
X140181921Y-69453387D01*
X140166301Y-69476763D01*
X140157709Y-69496224D01*
X140144418Y-69509514D01*
X140130438Y-69530438D01*
X140109514Y-69544418D01*
X140096224Y-69557709D01*
X140076763Y-69566301D01*
X140053387Y-69581921D01*
X140031551Y-69586264D01*
X140015017Y-69593565D01*
X139966629Y-69599178D01*
X139962500Y-69600000D01*
X139362500Y-69600000D01*
X139358373Y-69599179D01*
X139309982Y-69593565D01*
X139293446Y-69586264D01*
X139271613Y-69581921D01*
X139248238Y-69566302D01*
X139228775Y-69557709D01*
X139215482Y-69544416D01*
X139194562Y-69530438D01*
X139180583Y-69509517D01*
X139167290Y-69496224D01*
X139158695Y-69476759D01*
X139143079Y-69453387D01*
X139138736Y-69431555D01*
X139131434Y-69415017D01*
X139125818Y-69366616D01*
X139125000Y-69362500D01*
X139125000Y-68887500D01*
X139125818Y-68883385D01*
X139131434Y-68834982D01*
X139138736Y-68818442D01*
X139143079Y-68796613D01*
X139158694Y-68773242D01*
X139167290Y-68753775D01*
X139180585Y-68740479D01*
X139194562Y-68719562D01*
X139215479Y-68705585D01*
X139228775Y-68692290D01*
X139248242Y-68683694D01*
X139271613Y-68668079D01*
X139293442Y-68663736D01*
X139309982Y-68656434D01*
X139358384Y-68650818D01*
X139362500Y-68650000D01*
X139962500Y-68650000D01*
X139966615Y-68650818D01*
G37*
G36*
X141691615Y-68650818D02*
G01*
X141740017Y-68656434D01*
X141756555Y-68663736D01*
X141778387Y-68668079D01*
X141801759Y-68683695D01*
X141821224Y-68692290D01*
X141834517Y-68705583D01*
X141855438Y-68719562D01*
X141869416Y-68740482D01*
X141882709Y-68753775D01*
X141891302Y-68773238D01*
X141906921Y-68796613D01*
X141911264Y-68818446D01*
X141918565Y-68834982D01*
X141924178Y-68883372D01*
X141925000Y-68887500D01*
X141925000Y-69362500D01*
X141924178Y-69366627D01*
X141918565Y-69415017D01*
X141911264Y-69431551D01*
X141906921Y-69453387D01*
X141891301Y-69476763D01*
X141882709Y-69496224D01*
X141869418Y-69509514D01*
X141855438Y-69530438D01*
X141834514Y-69544418D01*
X141821224Y-69557709D01*
X141801763Y-69566301D01*
X141778387Y-69581921D01*
X141756551Y-69586264D01*
X141740017Y-69593565D01*
X141691629Y-69599178D01*
X141687500Y-69600000D01*
X141087500Y-69600000D01*
X141083373Y-69599179D01*
X141034982Y-69593565D01*
X141018446Y-69586264D01*
X140996613Y-69581921D01*
X140973238Y-69566302D01*
X140953775Y-69557709D01*
X140940482Y-69544416D01*
X140919562Y-69530438D01*
X140905583Y-69509517D01*
X140892290Y-69496224D01*
X140883695Y-69476759D01*
X140868079Y-69453387D01*
X140863736Y-69431555D01*
X140856434Y-69415017D01*
X140850818Y-69366616D01*
X140850000Y-69362500D01*
X140850000Y-68887500D01*
X140850818Y-68883385D01*
X140856434Y-68834982D01*
X140863736Y-68818442D01*
X140868079Y-68796613D01*
X140883694Y-68773242D01*
X140892290Y-68753775D01*
X140905585Y-68740479D01*
X140919562Y-68719562D01*
X140940479Y-68705585D01*
X140953775Y-68692290D01*
X140973242Y-68683694D01*
X140996613Y-68668079D01*
X141018442Y-68663736D01*
X141034982Y-68656434D01*
X141083384Y-68650818D01*
X141087500Y-68650000D01*
X141687500Y-68650000D01*
X141691615Y-68650818D01*
G37*
G36*
X167858737Y-68478850D02*
G01*
X167972208Y-68509254D01*
X168073943Y-68567991D01*
X168157009Y-68651057D01*
X168215746Y-68752792D01*
X168246150Y-68866263D01*
X168246150Y-68983737D01*
X168215746Y-69097208D01*
X168157009Y-69198943D01*
X168073943Y-69282009D01*
X167972208Y-69340746D01*
X167858737Y-69371150D01*
X167800000Y-69375000D01*
X167798341Y-69375000D01*
X167301659Y-69375000D01*
X167300000Y-69375000D01*
X167241263Y-69371150D01*
X167127792Y-69340746D01*
X167026057Y-69282009D01*
X166942991Y-69198943D01*
X166884254Y-69097208D01*
X166853850Y-68983737D01*
X166853850Y-68866263D01*
X166884254Y-68752792D01*
X166942991Y-68651057D01*
X167026057Y-68567991D01*
X167127792Y-68509254D01*
X167241263Y-68478850D01*
X167300000Y-68475000D01*
X167800000Y-68475000D01*
X167858737Y-68478850D01*
G37*
G36*
X125616615Y-67350818D02*
G01*
X125665017Y-67356434D01*
X125681555Y-67363736D01*
X125703387Y-67368079D01*
X125726759Y-67383695D01*
X125746224Y-67392290D01*
X125759517Y-67405583D01*
X125780438Y-67419562D01*
X125794416Y-67440482D01*
X125807709Y-67453775D01*
X125816302Y-67473238D01*
X125831921Y-67496613D01*
X125836264Y-67518446D01*
X125843565Y-67534982D01*
X125849178Y-67583372D01*
X125850000Y-67587500D01*
X125850000Y-68087500D01*
X125849178Y-68091627D01*
X125843565Y-68140017D01*
X125836264Y-68156551D01*
X125831921Y-68178387D01*
X125816301Y-68201763D01*
X125807709Y-68221224D01*
X125794418Y-68234514D01*
X125780438Y-68255438D01*
X125759514Y-68269418D01*
X125746224Y-68282709D01*
X125726763Y-68291301D01*
X125703387Y-68306921D01*
X125681551Y-68311264D01*
X125665017Y-68318565D01*
X125616629Y-68324178D01*
X125612500Y-68325000D01*
X125137500Y-68325000D01*
X125133373Y-68324179D01*
X125084982Y-68318565D01*
X125068446Y-68311264D01*
X125046613Y-68306921D01*
X125023238Y-68291302D01*
X125003775Y-68282709D01*
X124990482Y-68269416D01*
X124969562Y-68255438D01*
X124955583Y-68234517D01*
X124942290Y-68221224D01*
X124933695Y-68201759D01*
X124918079Y-68178387D01*
X124913736Y-68156555D01*
X124906434Y-68140017D01*
X124900818Y-68091616D01*
X124900000Y-68087500D01*
X124900000Y-67587500D01*
X124900818Y-67583385D01*
X124906434Y-67534982D01*
X124913736Y-67518442D01*
X124918079Y-67496613D01*
X124933694Y-67473242D01*
X124942290Y-67453775D01*
X124955585Y-67440479D01*
X124969562Y-67419562D01*
X124990479Y-67405585D01*
X125003775Y-67392290D01*
X125023242Y-67383694D01*
X125046613Y-67368079D01*
X125068442Y-67363736D01*
X125084982Y-67356434D01*
X125133384Y-67350818D01*
X125137500Y-67350000D01*
X125612500Y-67350000D01*
X125616615Y-67350818D01*
G37*
G36*
X167858737Y-67228850D02*
G01*
X167972208Y-67259254D01*
X168073943Y-67317991D01*
X168157009Y-67401057D01*
X168215746Y-67502792D01*
X168246150Y-67616263D01*
X168246150Y-67733737D01*
X168215746Y-67847208D01*
X168157009Y-67948943D01*
X168073943Y-68032009D01*
X167972208Y-68090746D01*
X167858737Y-68121150D01*
X167800000Y-68125000D01*
X167798341Y-68125000D01*
X167301659Y-68125000D01*
X167300000Y-68125000D01*
X167241263Y-68121150D01*
X167127792Y-68090746D01*
X167026057Y-68032009D01*
X166942991Y-67948943D01*
X166884254Y-67847208D01*
X166853850Y-67733737D01*
X166853850Y-67616263D01*
X166884254Y-67502792D01*
X166942991Y-67401057D01*
X167026057Y-67317991D01*
X167127792Y-67259254D01*
X167241263Y-67228850D01*
X167300000Y-67225000D01*
X167800000Y-67225000D01*
X167858737Y-67228850D01*
G37*
G36*
X130734116Y-66400818D02*
G01*
X130785379Y-66406766D01*
X130802892Y-66414499D01*
X130825671Y-66419030D01*
X130850057Y-66435324D01*
X130870788Y-66444478D01*
X130884946Y-66458636D01*
X130906777Y-66473223D01*
X130921363Y-66495053D01*
X130935521Y-66509211D01*
X130944673Y-66529939D01*
X130960970Y-66554329D01*
X130965501Y-66577109D01*
X130973233Y-66594620D01*
X130979178Y-66645872D01*
X130980000Y-66650000D01*
X130980000Y-67750000D01*
X130979178Y-67754128D01*
X130973233Y-67805379D01*
X130965501Y-67822888D01*
X130960970Y-67845671D01*
X130944672Y-67870062D01*
X130935521Y-67890788D01*
X130921365Y-67904943D01*
X130906777Y-67926777D01*
X130884943Y-67941365D01*
X130870788Y-67955521D01*
X130850062Y-67964672D01*
X130825671Y-67980970D01*
X130802888Y-67985501D01*
X130785379Y-67993233D01*
X130734129Y-67999178D01*
X130730000Y-68000000D01*
X128830000Y-68000000D01*
X128825873Y-67999179D01*
X128774620Y-67993233D01*
X128757109Y-67985501D01*
X128734329Y-67980970D01*
X128709939Y-67964673D01*
X128689211Y-67955521D01*
X128675053Y-67941363D01*
X128653223Y-67926777D01*
X128638636Y-67904946D01*
X128624478Y-67890788D01*
X128615324Y-67870057D01*
X128599030Y-67845671D01*
X128594499Y-67822892D01*
X128586766Y-67805379D01*
X128580818Y-67754117D01*
X128580000Y-67750000D01*
X128580000Y-66650000D01*
X128580818Y-66645885D01*
X128586766Y-66594620D01*
X128594499Y-66577105D01*
X128599030Y-66554329D01*
X128615323Y-66529944D01*
X128624478Y-66509211D01*
X128638638Y-66495050D01*
X128653223Y-66473223D01*
X128675050Y-66458638D01*
X128689211Y-66444478D01*
X128709944Y-66435323D01*
X128734329Y-66419030D01*
X128757105Y-66414499D01*
X128774620Y-66406766D01*
X128825884Y-66400818D01*
X128830000Y-66400000D01*
X130730000Y-66400000D01*
X130734116Y-66400818D01*
G37*
G36*
X137878414Y-66403852D02*
G01*
X138032228Y-66434448D01*
X138177117Y-66494463D01*
X138307515Y-66581592D01*
X138418408Y-66692485D01*
X138505537Y-66822883D01*
X138565552Y-66967772D01*
X138596148Y-67121586D01*
X138596148Y-67278414D01*
X138565552Y-67432228D01*
X138505537Y-67577117D01*
X138418408Y-67707515D01*
X138307515Y-67818408D01*
X138177117Y-67905537D01*
X138032228Y-67965552D01*
X137878414Y-67996148D01*
X137800000Y-68000000D01*
X137798749Y-68000000D01*
X137001251Y-68000000D01*
X137000000Y-68000000D01*
X136921586Y-67996148D01*
X136767772Y-67965552D01*
X136622883Y-67905537D01*
X136492485Y-67818408D01*
X136381592Y-67707515D01*
X136294463Y-67577117D01*
X136234448Y-67432228D01*
X136203852Y-67278414D01*
X136203852Y-67121586D01*
X136234448Y-66967772D01*
X136294463Y-66822883D01*
X136381592Y-66692485D01*
X136492485Y-66581592D01*
X136622883Y-66494463D01*
X136767772Y-66434448D01*
X136921586Y-66403852D01*
X137000000Y-66400000D01*
X137800000Y-66400000D01*
X137878414Y-66403852D01*
G37*
G36*
X139966615Y-66140818D02*
G01*
X140015017Y-66146434D01*
X140031555Y-66153736D01*
X140053387Y-66158079D01*
X140076759Y-66173695D01*
X140096224Y-66182290D01*
X140109517Y-66195583D01*
X140130438Y-66209562D01*
X140144416Y-66230482D01*
X140157709Y-66243775D01*
X140166302Y-66263238D01*
X140181921Y-66286613D01*
X140186264Y-66308446D01*
X140193565Y-66324982D01*
X140199178Y-66373372D01*
X140200000Y-66377500D01*
X140200000Y-66852500D01*
X140199178Y-66856627D01*
X140193565Y-66905017D01*
X140186264Y-66921551D01*
X140181921Y-66943387D01*
X140166301Y-66966763D01*
X140157709Y-66986224D01*
X140144418Y-66999514D01*
X140130438Y-67020438D01*
X140109514Y-67034418D01*
X140096224Y-67047709D01*
X140076763Y-67056301D01*
X140053387Y-67071921D01*
X140031551Y-67076264D01*
X140015017Y-67083565D01*
X139966629Y-67089178D01*
X139962500Y-67090000D01*
X139362500Y-67090000D01*
X139358373Y-67089179D01*
X139309982Y-67083565D01*
X139293446Y-67076264D01*
X139271613Y-67071921D01*
X139248238Y-67056302D01*
X139228775Y-67047709D01*
X139215482Y-67034416D01*
X139194562Y-67020438D01*
X139180583Y-66999517D01*
X139167290Y-66986224D01*
X139158695Y-66966759D01*
X139143079Y-66943387D01*
X139138736Y-66921555D01*
X139131434Y-66905017D01*
X139125818Y-66856616D01*
X139125000Y-66852500D01*
X139125000Y-66377500D01*
X139125818Y-66373385D01*
X139131434Y-66324982D01*
X139138736Y-66308442D01*
X139143079Y-66286613D01*
X139158694Y-66263242D01*
X139167290Y-66243775D01*
X139180585Y-66230479D01*
X139194562Y-66209562D01*
X139215479Y-66195585D01*
X139228775Y-66182290D01*
X139248242Y-66173694D01*
X139271613Y-66158079D01*
X139293442Y-66153736D01*
X139309982Y-66146434D01*
X139358384Y-66140818D01*
X139362500Y-66140000D01*
X139962500Y-66140000D01*
X139966615Y-66140818D01*
G37*
G36*
X141691615Y-66140818D02*
G01*
X141740017Y-66146434D01*
X141756555Y-66153736D01*
X141778387Y-66158079D01*
X141801759Y-66173695D01*
X141821224Y-66182290D01*
X141834517Y-66195583D01*
X141855438Y-66209562D01*
X141869416Y-66230482D01*
X141882709Y-66243775D01*
X141891302Y-66263238D01*
X141906921Y-66286613D01*
X141911264Y-66308446D01*
X141918565Y-66324982D01*
X141924178Y-66373372D01*
X141925000Y-66377500D01*
X141925000Y-66852500D01*
X141924178Y-66856627D01*
X141918565Y-66905017D01*
X141911264Y-66921551D01*
X141906921Y-66943387D01*
X141891301Y-66966763D01*
X141882709Y-66986224D01*
X141869418Y-66999514D01*
X141855438Y-67020438D01*
X141834514Y-67034418D01*
X141821224Y-67047709D01*
X141801763Y-67056301D01*
X141778387Y-67071921D01*
X141756551Y-67076264D01*
X141740017Y-67083565D01*
X141691629Y-67089178D01*
X141687500Y-67090000D01*
X141087500Y-67090000D01*
X141083373Y-67089179D01*
X141034982Y-67083565D01*
X141018446Y-67076264D01*
X140996613Y-67071921D01*
X140973238Y-67056302D01*
X140953775Y-67047709D01*
X140940482Y-67034416D01*
X140919562Y-67020438D01*
X140905583Y-66999517D01*
X140892290Y-66986224D01*
X140883695Y-66966759D01*
X140868079Y-66943387D01*
X140863736Y-66921555D01*
X140856434Y-66905017D01*
X140850818Y-66856616D01*
X140850000Y-66852500D01*
X140850000Y-66377500D01*
X140850818Y-66373385D01*
X140856434Y-66324982D01*
X140863736Y-66308442D01*
X140868079Y-66286613D01*
X140883694Y-66263242D01*
X140892290Y-66243775D01*
X140905585Y-66230479D01*
X140919562Y-66209562D01*
X140940479Y-66195585D01*
X140953775Y-66182290D01*
X140973242Y-66173694D01*
X140996613Y-66158079D01*
X141018442Y-66153736D01*
X141034982Y-66146434D01*
X141083384Y-66140818D01*
X141087500Y-66140000D01*
X141687500Y-66140000D01*
X141691615Y-66140818D01*
G37*
G36*
X167858737Y-65978850D02*
G01*
X167972208Y-66009254D01*
X168073943Y-66067991D01*
X168157009Y-66151057D01*
X168215746Y-66252792D01*
X168246150Y-66366263D01*
X168246150Y-66483737D01*
X168215746Y-66597208D01*
X168157009Y-66698943D01*
X168073943Y-66782009D01*
X167972208Y-66840746D01*
X167858737Y-66871150D01*
X167800000Y-66875000D01*
X167798341Y-66875000D01*
X167301659Y-66875000D01*
X167300000Y-66875000D01*
X167241263Y-66871150D01*
X167127792Y-66840746D01*
X167026057Y-66782009D01*
X166942991Y-66698943D01*
X166884254Y-66597208D01*
X166853850Y-66483737D01*
X166853850Y-66366263D01*
X166884254Y-66252792D01*
X166942991Y-66151057D01*
X167026057Y-66067991D01*
X167127792Y-66009254D01*
X167241263Y-65978850D01*
X167300000Y-65975000D01*
X167800000Y-65975000D01*
X167858737Y-65978850D01*
G37*
G36*
X125616615Y-65525818D02*
G01*
X125665017Y-65531434D01*
X125681555Y-65538736D01*
X125703387Y-65543079D01*
X125726759Y-65558695D01*
X125746224Y-65567290D01*
X125759517Y-65580583D01*
X125780438Y-65594562D01*
X125794416Y-65615482D01*
X125807709Y-65628775D01*
X125816302Y-65648238D01*
X125831921Y-65671613D01*
X125836264Y-65693446D01*
X125843565Y-65709982D01*
X125849178Y-65758372D01*
X125850000Y-65762500D01*
X125850000Y-66262500D01*
X125849178Y-66266627D01*
X125843565Y-66315017D01*
X125836264Y-66331551D01*
X125831921Y-66353387D01*
X125816301Y-66376763D01*
X125807709Y-66396224D01*
X125794418Y-66409514D01*
X125780438Y-66430438D01*
X125759514Y-66444418D01*
X125746224Y-66457709D01*
X125726763Y-66466301D01*
X125703387Y-66481921D01*
X125681551Y-66486264D01*
X125665017Y-66493565D01*
X125616629Y-66499178D01*
X125612500Y-66500000D01*
X125137500Y-66500000D01*
X125133373Y-66499179D01*
X125084982Y-66493565D01*
X125068446Y-66486264D01*
X125046613Y-66481921D01*
X125023238Y-66466302D01*
X125003775Y-66457709D01*
X124990482Y-66444416D01*
X124969562Y-66430438D01*
X124955583Y-66409517D01*
X124942290Y-66396224D01*
X124933695Y-66376759D01*
X124918079Y-66353387D01*
X124913736Y-66331555D01*
X124906434Y-66315017D01*
X124900818Y-66266616D01*
X124900000Y-66262500D01*
X124900000Y-65762500D01*
X124900818Y-65758385D01*
X124906434Y-65709982D01*
X124913736Y-65693442D01*
X124918079Y-65671613D01*
X124933694Y-65648242D01*
X124942290Y-65628775D01*
X124955585Y-65615479D01*
X124969562Y-65594562D01*
X124990479Y-65580585D01*
X125003775Y-65567290D01*
X125023242Y-65558694D01*
X125046613Y-65543079D01*
X125068442Y-65538736D01*
X125084982Y-65531434D01*
X125133384Y-65525818D01*
X125137500Y-65525000D01*
X125612500Y-65525000D01*
X125616615Y-65525818D01*
G37*
G36*
X167858737Y-64728850D02*
G01*
X167972208Y-64759254D01*
X168073943Y-64817991D01*
X168157009Y-64901057D01*
X168215746Y-65002792D01*
X168246150Y-65116263D01*
X168246150Y-65233737D01*
X168215746Y-65347208D01*
X168157009Y-65448943D01*
X168073943Y-65532009D01*
X167972208Y-65590746D01*
X167858737Y-65621150D01*
X167800000Y-65625000D01*
X167798341Y-65625000D01*
X167301659Y-65625000D01*
X167300000Y-65625000D01*
X167241263Y-65621150D01*
X167127792Y-65590746D01*
X167026057Y-65532009D01*
X166942991Y-65448943D01*
X166884254Y-65347208D01*
X166853850Y-65233737D01*
X166853850Y-65116263D01*
X166884254Y-65002792D01*
X166942991Y-64901057D01*
X167026057Y-64817991D01*
X167127792Y-64759254D01*
X167241263Y-64728850D01*
X167300000Y-64725000D01*
X167800000Y-64725000D01*
X167858737Y-64728850D01*
G37*
G36*
X162041615Y-63500818D02*
G01*
X162090017Y-63506434D01*
X162106555Y-63513736D01*
X162128387Y-63518079D01*
X162151759Y-63533695D01*
X162171224Y-63542290D01*
X162184517Y-63555583D01*
X162205438Y-63569562D01*
X162219416Y-63590482D01*
X162232709Y-63603775D01*
X162241302Y-63623238D01*
X162256921Y-63646613D01*
X162261264Y-63668446D01*
X162268565Y-63684982D01*
X162274178Y-63733372D01*
X162275000Y-63737500D01*
X162275000Y-64237500D01*
X162274178Y-64241627D01*
X162268565Y-64290017D01*
X162261264Y-64306551D01*
X162256921Y-64328387D01*
X162241301Y-64351763D01*
X162232709Y-64371224D01*
X162219418Y-64384514D01*
X162205438Y-64405438D01*
X162184514Y-64419418D01*
X162171224Y-64432709D01*
X162151763Y-64441301D01*
X162128387Y-64456921D01*
X162106551Y-64461264D01*
X162090017Y-64468565D01*
X162041629Y-64474178D01*
X162037500Y-64475000D01*
X161562500Y-64475000D01*
X161558373Y-64474179D01*
X161509982Y-64468565D01*
X161493446Y-64461264D01*
X161471613Y-64456921D01*
X161448238Y-64441302D01*
X161428775Y-64432709D01*
X161415482Y-64419416D01*
X161394562Y-64405438D01*
X161380583Y-64384517D01*
X161367290Y-64371224D01*
X161358695Y-64351759D01*
X161343079Y-64328387D01*
X161338736Y-64306555D01*
X161331434Y-64290017D01*
X161325818Y-64241616D01*
X161325000Y-64237500D01*
X161325000Y-63737500D01*
X161325818Y-63733385D01*
X161331434Y-63684982D01*
X161338736Y-63668442D01*
X161343079Y-63646613D01*
X161358694Y-63623242D01*
X161367290Y-63603775D01*
X161380585Y-63590479D01*
X161394562Y-63569562D01*
X161415479Y-63555585D01*
X161428775Y-63542290D01*
X161448242Y-63533694D01*
X161471613Y-63518079D01*
X161493442Y-63513736D01*
X161509982Y-63506434D01*
X161558384Y-63500818D01*
X161562500Y-63500000D01*
X162037500Y-63500000D01*
X162041615Y-63500818D01*
G37*
G36*
X157466615Y-63500818D02*
G01*
X157515017Y-63506434D01*
X157531555Y-63513736D01*
X157553387Y-63518079D01*
X157576759Y-63533695D01*
X157596224Y-63542290D01*
X157609517Y-63555583D01*
X157630438Y-63569562D01*
X157644416Y-63590482D01*
X157657709Y-63603775D01*
X157666302Y-63623238D01*
X157681921Y-63646613D01*
X157686264Y-63668446D01*
X157693565Y-63684982D01*
X157699178Y-63733372D01*
X157700000Y-63737500D01*
X157700000Y-64212500D01*
X157699178Y-64216627D01*
X157693565Y-64265017D01*
X157686264Y-64281551D01*
X157681921Y-64303387D01*
X157666301Y-64326763D01*
X157657709Y-64346224D01*
X157644418Y-64359514D01*
X157630438Y-64380438D01*
X157609514Y-64394418D01*
X157596224Y-64407709D01*
X157576763Y-64416301D01*
X157553387Y-64431921D01*
X157531551Y-64436264D01*
X157515017Y-64443565D01*
X157466629Y-64449178D01*
X157462500Y-64450000D01*
X156887500Y-64450000D01*
X156883373Y-64449179D01*
X156834982Y-64443565D01*
X156818446Y-64436264D01*
X156796613Y-64431921D01*
X156773238Y-64416302D01*
X156753775Y-64407709D01*
X156740482Y-64394416D01*
X156719562Y-64380438D01*
X156705583Y-64359517D01*
X156692290Y-64346224D01*
X156683695Y-64326759D01*
X156668079Y-64303387D01*
X156663736Y-64281555D01*
X156656434Y-64265017D01*
X156650818Y-64216616D01*
X156650000Y-64212500D01*
X156650000Y-63737500D01*
X156650818Y-63733385D01*
X156656434Y-63684982D01*
X156663736Y-63668442D01*
X156668079Y-63646613D01*
X156683694Y-63623242D01*
X156692290Y-63603775D01*
X156705585Y-63590479D01*
X156719562Y-63569562D01*
X156740479Y-63555585D01*
X156753775Y-63542290D01*
X156773242Y-63533694D01*
X156796613Y-63518079D01*
X156818442Y-63513736D01*
X156834982Y-63506434D01*
X156883384Y-63500818D01*
X156887500Y-63500000D01*
X157462500Y-63500000D01*
X157466615Y-63500818D01*
G37*
G36*
X159216615Y-63500818D02*
G01*
X159265017Y-63506434D01*
X159281555Y-63513736D01*
X159303387Y-63518079D01*
X159326759Y-63533695D01*
X159346224Y-63542290D01*
X159359517Y-63555583D01*
X159380438Y-63569562D01*
X159394416Y-63590482D01*
X159407709Y-63603775D01*
X159416302Y-63623238D01*
X159431921Y-63646613D01*
X159436264Y-63668446D01*
X159443565Y-63684982D01*
X159449178Y-63733372D01*
X159450000Y-63737500D01*
X159450000Y-64212500D01*
X159449178Y-64216627D01*
X159443565Y-64265017D01*
X159436264Y-64281551D01*
X159431921Y-64303387D01*
X159416301Y-64326763D01*
X159407709Y-64346224D01*
X159394418Y-64359514D01*
X159380438Y-64380438D01*
X159359514Y-64394418D01*
X159346224Y-64407709D01*
X159326763Y-64416301D01*
X159303387Y-64431921D01*
X159281551Y-64436264D01*
X159265017Y-64443565D01*
X159216629Y-64449178D01*
X159212500Y-64450000D01*
X158637500Y-64450000D01*
X158633373Y-64449179D01*
X158584982Y-64443565D01*
X158568446Y-64436264D01*
X158546613Y-64431921D01*
X158523238Y-64416302D01*
X158503775Y-64407709D01*
X158490482Y-64394416D01*
X158469562Y-64380438D01*
X158455583Y-64359517D01*
X158442290Y-64346224D01*
X158433695Y-64326759D01*
X158418079Y-64303387D01*
X158413736Y-64281555D01*
X158406434Y-64265017D01*
X158400818Y-64216616D01*
X158400000Y-64212500D01*
X158400000Y-63737500D01*
X158400818Y-63733385D01*
X158406434Y-63684982D01*
X158413736Y-63668442D01*
X158418079Y-63646613D01*
X158433694Y-63623242D01*
X158442290Y-63603775D01*
X158455585Y-63590479D01*
X158469562Y-63569562D01*
X158490479Y-63555585D01*
X158503775Y-63542290D01*
X158523242Y-63533694D01*
X158546613Y-63518079D01*
X158568442Y-63513736D01*
X158584982Y-63506434D01*
X158633384Y-63500818D01*
X158637500Y-63500000D01*
X159212500Y-63500000D01*
X159216615Y-63500818D01*
G37*
G36*
X167858737Y-63478850D02*
G01*
X167972208Y-63509254D01*
X168073943Y-63567991D01*
X168157009Y-63651057D01*
X168215746Y-63752792D01*
X168246150Y-63866263D01*
X168246150Y-63983737D01*
X168215746Y-64097208D01*
X168157009Y-64198943D01*
X168073943Y-64282009D01*
X167972208Y-64340746D01*
X167858737Y-64371150D01*
X167800000Y-64375000D01*
X167798341Y-64375000D01*
X167301659Y-64375000D01*
X167300000Y-64375000D01*
X167241263Y-64371150D01*
X167127792Y-64340746D01*
X167026057Y-64282009D01*
X166942991Y-64198943D01*
X166884254Y-64097208D01*
X166853850Y-63983737D01*
X166853850Y-63866263D01*
X166884254Y-63752792D01*
X166942991Y-63651057D01*
X167026057Y-63567991D01*
X167127792Y-63509254D01*
X167241263Y-63478850D01*
X167300000Y-63475000D01*
X167800000Y-63475000D01*
X167858737Y-63478850D01*
G37*
G36*
X133739116Y-62170818D02*
G01*
X133790380Y-62176766D01*
X133807895Y-62184499D01*
X133830671Y-62189030D01*
X133855052Y-62205321D01*
X133875789Y-62214477D01*
X133889952Y-62228640D01*
X133911777Y-62243223D01*
X133926359Y-62265047D01*
X133940522Y-62279210D01*
X133949677Y-62299944D01*
X133965970Y-62324329D01*
X133970500Y-62347105D01*
X133978233Y-62364619D01*
X133984182Y-62415896D01*
X133984999Y-62420000D01*
X133984999Y-62422930D01*
X133985000Y-62422939D01*
X133985000Y-63009558D01*
X133985000Y-63320001D01*
X133984181Y-63324118D01*
X133978233Y-63375380D01*
X133970501Y-63392891D01*
X133965970Y-63415671D01*
X133949675Y-63440056D01*
X133940522Y-63460789D01*
X133926361Y-63474949D01*
X133911777Y-63496777D01*
X133889949Y-63511361D01*
X133875789Y-63525522D01*
X133855056Y-63534675D01*
X133830671Y-63550970D01*
X133807892Y-63555500D01*
X133790380Y-63563233D01*
X133739104Y-63569182D01*
X133735000Y-63569999D01*
X133732068Y-63569999D01*
X133732060Y-63570000D01*
X130887940Y-63570000D01*
X130887939Y-63569999D01*
X130884999Y-63570000D01*
X130880881Y-63569181D01*
X130829619Y-63563233D01*
X130812106Y-63555500D01*
X130789329Y-63550970D01*
X130764944Y-63534677D01*
X130744210Y-63525522D01*
X130730047Y-63511359D01*
X130708223Y-63496777D01*
X130693640Y-63474952D01*
X130679477Y-63460789D01*
X130670321Y-63440052D01*
X130654030Y-63415671D01*
X130649500Y-63392896D01*
X130641766Y-63375380D01*
X130635817Y-63324103D01*
X130635001Y-63320000D01*
X130635000Y-63317068D01*
X130635000Y-63317060D01*
X130635000Y-62422939D01*
X130635000Y-62422938D01*
X130635000Y-62419999D01*
X130635818Y-62415884D01*
X130641766Y-62364619D01*
X130649499Y-62347102D01*
X130654030Y-62324329D01*
X130670319Y-62299949D01*
X130679477Y-62279210D01*
X130693642Y-62265044D01*
X130708223Y-62243223D01*
X130730044Y-62228642D01*
X130744210Y-62214477D01*
X130764949Y-62205319D01*
X130789329Y-62189030D01*
X130812101Y-62184500D01*
X130829619Y-62176766D01*
X130880897Y-62170817D01*
X130885000Y-62170001D01*
X130887931Y-62170000D01*
X130887940Y-62170000D01*
X133732060Y-62170000D01*
X133735001Y-62170000D01*
X133739116Y-62170818D01*
G37*
G36*
X139091615Y-62300818D02*
G01*
X139140017Y-62306434D01*
X139156555Y-62313736D01*
X139178387Y-62318079D01*
X139201759Y-62333695D01*
X139221224Y-62342290D01*
X139234517Y-62355583D01*
X139255438Y-62369562D01*
X139269416Y-62390482D01*
X139282709Y-62403775D01*
X139291302Y-62423238D01*
X139306921Y-62446613D01*
X139311264Y-62468446D01*
X139318565Y-62484982D01*
X139324178Y-62533372D01*
X139325000Y-62537500D01*
X139325000Y-63012500D01*
X139324178Y-63016627D01*
X139318565Y-63065017D01*
X139311264Y-63081551D01*
X139306921Y-63103387D01*
X139291301Y-63126763D01*
X139282709Y-63146224D01*
X139269418Y-63159514D01*
X139255438Y-63180438D01*
X139234514Y-63194418D01*
X139221224Y-63207709D01*
X139201763Y-63216301D01*
X139178387Y-63231921D01*
X139156551Y-63236264D01*
X139140017Y-63243565D01*
X139091629Y-63249178D01*
X139087500Y-63250000D01*
X138487500Y-63250000D01*
X138483373Y-63249179D01*
X138434982Y-63243565D01*
X138418446Y-63236264D01*
X138396613Y-63231921D01*
X138373238Y-63216302D01*
X138353775Y-63207709D01*
X138340482Y-63194416D01*
X138319562Y-63180438D01*
X138305583Y-63159517D01*
X138292290Y-63146224D01*
X138283695Y-63126759D01*
X138268079Y-63103387D01*
X138263736Y-63081555D01*
X138256434Y-63065017D01*
X138250818Y-63016616D01*
X138250000Y-63012500D01*
X138250000Y-62537500D01*
X138250818Y-62533385D01*
X138256434Y-62484982D01*
X138263736Y-62468442D01*
X138268079Y-62446613D01*
X138283694Y-62423242D01*
X138292290Y-62403775D01*
X138305585Y-62390479D01*
X138319562Y-62369562D01*
X138340479Y-62355585D01*
X138353775Y-62342290D01*
X138373242Y-62333694D01*
X138396613Y-62318079D01*
X138418442Y-62313736D01*
X138434982Y-62306434D01*
X138483384Y-62300818D01*
X138487500Y-62300000D01*
X139087500Y-62300000D01*
X139091615Y-62300818D01*
G37*
G36*
X140816615Y-62300818D02*
G01*
X140865017Y-62306434D01*
X140881555Y-62313736D01*
X140903387Y-62318079D01*
X140926759Y-62333695D01*
X140946224Y-62342290D01*
X140959517Y-62355583D01*
X140980438Y-62369562D01*
X140994416Y-62390482D01*
X141007709Y-62403775D01*
X141016302Y-62423238D01*
X141031921Y-62446613D01*
X141036264Y-62468446D01*
X141043565Y-62484982D01*
X141049178Y-62533372D01*
X141050000Y-62537500D01*
X141050000Y-63012500D01*
X141049178Y-63016627D01*
X141043565Y-63065017D01*
X141036264Y-63081551D01*
X141031921Y-63103387D01*
X141016301Y-63126763D01*
X141007709Y-63146224D01*
X140994418Y-63159514D01*
X140980438Y-63180438D01*
X140959514Y-63194418D01*
X140946224Y-63207709D01*
X140926763Y-63216301D01*
X140903387Y-63231921D01*
X140881551Y-63236264D01*
X140865017Y-63243565D01*
X140816629Y-63249178D01*
X140812500Y-63250000D01*
X140212500Y-63250000D01*
X140208373Y-63249179D01*
X140159982Y-63243565D01*
X140143446Y-63236264D01*
X140121613Y-63231921D01*
X140098238Y-63216302D01*
X140078775Y-63207709D01*
X140065482Y-63194416D01*
X140044562Y-63180438D01*
X140030583Y-63159517D01*
X140017290Y-63146224D01*
X140008695Y-63126759D01*
X139993079Y-63103387D01*
X139988736Y-63081555D01*
X139981434Y-63065017D01*
X139975818Y-63016616D01*
X139975000Y-63012500D01*
X139975000Y-62537500D01*
X139975818Y-62533385D01*
X139981434Y-62484982D01*
X139988736Y-62468442D01*
X139993079Y-62446613D01*
X140008694Y-62423242D01*
X140017290Y-62403775D01*
X140030585Y-62390479D01*
X140044562Y-62369562D01*
X140065479Y-62355585D01*
X140078775Y-62342290D01*
X140098242Y-62333694D01*
X140121613Y-62318079D01*
X140143442Y-62313736D01*
X140159982Y-62306434D01*
X140208384Y-62300818D01*
X140212500Y-62300000D01*
X140812500Y-62300000D01*
X140816615Y-62300818D01*
G37*
G36*
X135757403Y-61473918D02*
G01*
X135806066Y-61506434D01*
X135838582Y-61555097D01*
X135850000Y-61612500D01*
X135850000Y-62637500D01*
X135838582Y-62694903D01*
X135806066Y-62743566D01*
X135757403Y-62776082D01*
X135700000Y-62787500D01*
X135400000Y-62787500D01*
X135342597Y-62776082D01*
X135293934Y-62743566D01*
X135261418Y-62694903D01*
X135250000Y-62637500D01*
X135250000Y-61612500D01*
X135261418Y-61555097D01*
X135293934Y-61506434D01*
X135342597Y-61473918D01*
X135400000Y-61462500D01*
X135700000Y-61462500D01*
X135757403Y-61473918D01*
G37*
G36*
X137657403Y-61473918D02*
G01*
X137706066Y-61506434D01*
X137738582Y-61555097D01*
X137750000Y-61612500D01*
X137750000Y-62637500D01*
X137738582Y-62694903D01*
X137706066Y-62743566D01*
X137657403Y-62776082D01*
X137600000Y-62787500D01*
X137300000Y-62787500D01*
X137242597Y-62776082D01*
X137193934Y-62743566D01*
X137161418Y-62694903D01*
X137150000Y-62637500D01*
X137150000Y-61612500D01*
X137161418Y-61555097D01*
X137193934Y-61506434D01*
X137242597Y-61473918D01*
X137300000Y-61462500D01*
X137600000Y-61462500D01*
X137657403Y-61473918D01*
G37*
G36*
X128054117Y-55775818D02*
G01*
X128105381Y-55781766D01*
X128122895Y-55789499D01*
X128145672Y-55794030D01*
X128170054Y-55810321D01*
X128190789Y-55819477D01*
X128204951Y-55833639D01*
X128226777Y-55848223D01*
X128241360Y-55870048D01*
X128255522Y-55884210D01*
X128264676Y-55904943D01*
X128280970Y-55929328D01*
X128285500Y-55952106D01*
X128293233Y-55969618D01*
X128299178Y-56020870D01*
X128300000Y-56024998D01*
X128300000Y-62525002D01*
X128299178Y-62529129D01*
X128293233Y-62580381D01*
X128285501Y-62597891D01*
X128280970Y-62620672D01*
X128264675Y-62645058D01*
X128255522Y-62665789D01*
X128241362Y-62679948D01*
X128226777Y-62701777D01*
X128204948Y-62716362D01*
X128190789Y-62730522D01*
X128170058Y-62739675D01*
X128145672Y-62755970D01*
X128122891Y-62760501D01*
X128105381Y-62768233D01*
X128054131Y-62774178D01*
X128050002Y-62775000D01*
X121549998Y-62775000D01*
X121545871Y-62774179D01*
X121494618Y-62768233D01*
X121477106Y-62760500D01*
X121454328Y-62755970D01*
X121429943Y-62739676D01*
X121409210Y-62730522D01*
X121395048Y-62716360D01*
X121373223Y-62701777D01*
X121358639Y-62679951D01*
X121344477Y-62665789D01*
X121335321Y-62645054D01*
X121319030Y-62620672D01*
X121314499Y-62597895D01*
X121306766Y-62580381D01*
X121300818Y-62529119D01*
X121300000Y-62525002D01*
X121300000Y-56024998D01*
X121300818Y-56020883D01*
X121306766Y-55969618D01*
X121314499Y-55952102D01*
X121319030Y-55929328D01*
X121335320Y-55904947D01*
X121344477Y-55884210D01*
X121358641Y-55870045D01*
X121373223Y-55848223D01*
X121395045Y-55833641D01*
X121409210Y-55819477D01*
X121429947Y-55810320D01*
X121454328Y-55794030D01*
X121477102Y-55789499D01*
X121494618Y-55781766D01*
X121545882Y-55775818D01*
X121549998Y-55775000D01*
X128050002Y-55775000D01*
X128054117Y-55775818D01*
G37*
G36*
X162041615Y-61675818D02*
G01*
X162090017Y-61681434D01*
X162106555Y-61688736D01*
X162128387Y-61693079D01*
X162151759Y-61708695D01*
X162171224Y-61717290D01*
X162184517Y-61730583D01*
X162205438Y-61744562D01*
X162219416Y-61765482D01*
X162232709Y-61778775D01*
X162241302Y-61798238D01*
X162256921Y-61821613D01*
X162261264Y-61843446D01*
X162268565Y-61859982D01*
X162274178Y-61908372D01*
X162275000Y-61912500D01*
X162275000Y-62412500D01*
X162274178Y-62416627D01*
X162268565Y-62465017D01*
X162261264Y-62481551D01*
X162256921Y-62503387D01*
X162241301Y-62526763D01*
X162232709Y-62546224D01*
X162219418Y-62559514D01*
X162205438Y-62580438D01*
X162184514Y-62594418D01*
X162171224Y-62607709D01*
X162151763Y-62616301D01*
X162128387Y-62631921D01*
X162106551Y-62636264D01*
X162090017Y-62643565D01*
X162041629Y-62649178D01*
X162037500Y-62650000D01*
X161562500Y-62650000D01*
X161558373Y-62649179D01*
X161509982Y-62643565D01*
X161493446Y-62636264D01*
X161471613Y-62631921D01*
X161448238Y-62616302D01*
X161428775Y-62607709D01*
X161415482Y-62594416D01*
X161394562Y-62580438D01*
X161380583Y-62559517D01*
X161367290Y-62546224D01*
X161358695Y-62526759D01*
X161343079Y-62503387D01*
X161338736Y-62481555D01*
X161331434Y-62465017D01*
X161325818Y-62416616D01*
X161325000Y-62412500D01*
X161325000Y-61912500D01*
X161325818Y-61908385D01*
X161331434Y-61859982D01*
X161338736Y-61843442D01*
X161343079Y-61821613D01*
X161358694Y-61798242D01*
X161367290Y-61778775D01*
X161380585Y-61765479D01*
X161394562Y-61744562D01*
X161415479Y-61730585D01*
X161428775Y-61717290D01*
X161448242Y-61708694D01*
X161471613Y-61693079D01*
X161493442Y-61688736D01*
X161509982Y-61681434D01*
X161558384Y-61675818D01*
X161562500Y-61675000D01*
X162037500Y-61675000D01*
X162041615Y-61675818D01*
G37*
G36*
X135757403Y-59198918D02*
G01*
X135806066Y-59231434D01*
X135838582Y-59280097D01*
X135850000Y-59337500D01*
X135850000Y-60362500D01*
X135838582Y-60419903D01*
X135806066Y-60468566D01*
X135757403Y-60501082D01*
X135700000Y-60512500D01*
X135400000Y-60512500D01*
X135342597Y-60501082D01*
X135293934Y-60468566D01*
X135261418Y-60419903D01*
X135250000Y-60362500D01*
X135250000Y-59337500D01*
X135261418Y-59280097D01*
X135293934Y-59231434D01*
X135342597Y-59198918D01*
X135400000Y-59187500D01*
X135700000Y-59187500D01*
X135757403Y-59198918D01*
G37*
G36*
X136707403Y-59198918D02*
G01*
X136756066Y-59231434D01*
X136788582Y-59280097D01*
X136800000Y-59337500D01*
X136800000Y-60362500D01*
X136788582Y-60419903D01*
X136756066Y-60468566D01*
X136707403Y-60501082D01*
X136650000Y-60512500D01*
X136350000Y-60512500D01*
X136292597Y-60501082D01*
X136243934Y-60468566D01*
X136211418Y-60419903D01*
X136200000Y-60362500D01*
X136200000Y-59337500D01*
X136211418Y-59280097D01*
X136243934Y-59231434D01*
X136292597Y-59198918D01*
X136350000Y-59187500D01*
X136650000Y-59187500D01*
X136707403Y-59198918D01*
G37*
G36*
X137657403Y-59198918D02*
G01*
X137706066Y-59231434D01*
X137738582Y-59280097D01*
X137750000Y-59337500D01*
X137750000Y-60362500D01*
X137738582Y-60419903D01*
X137706066Y-60468566D01*
X137657403Y-60501082D01*
X137600000Y-60512500D01*
X137300000Y-60512500D01*
X137242597Y-60501082D01*
X137193934Y-60468566D01*
X137161418Y-60419903D01*
X137150000Y-60362500D01*
X137150000Y-59337500D01*
X137161418Y-59280097D01*
X137193934Y-59231434D01*
X137242597Y-59198918D01*
X137300000Y-59187500D01*
X137600000Y-59187500D01*
X137657403Y-59198918D01*
G37*
G36*
X157454116Y-58815818D02*
G01*
X157505379Y-58821766D01*
X157522892Y-58829499D01*
X157545671Y-58834030D01*
X157570057Y-58850324D01*
X157590788Y-58859478D01*
X157604946Y-58873636D01*
X157626777Y-58888223D01*
X157641363Y-58910053D01*
X157655521Y-58924211D01*
X157664673Y-58944939D01*
X157680970Y-58969329D01*
X157685501Y-58992109D01*
X157693233Y-59009620D01*
X157699178Y-59060872D01*
X157700000Y-59065000D01*
X157700000Y-60015000D01*
X157699178Y-60019128D01*
X157693233Y-60070379D01*
X157685501Y-60087888D01*
X157680970Y-60110671D01*
X157664672Y-60135062D01*
X157655521Y-60155788D01*
X157641365Y-60169943D01*
X157626777Y-60191777D01*
X157604943Y-60206365D01*
X157590788Y-60220521D01*
X157570062Y-60229672D01*
X157545671Y-60245970D01*
X157522888Y-60250501D01*
X157505379Y-60258233D01*
X157454129Y-60264178D01*
X157450000Y-60265000D01*
X156775000Y-60265000D01*
X156770873Y-60264179D01*
X156719620Y-60258233D01*
X156702109Y-60250501D01*
X156679329Y-60245970D01*
X156654939Y-60229673D01*
X156634211Y-60220521D01*
X156620053Y-60206363D01*
X156598223Y-60191777D01*
X156583636Y-60169946D01*
X156569478Y-60155788D01*
X156560324Y-60135057D01*
X156544030Y-60110671D01*
X156539499Y-60087892D01*
X156531766Y-60070379D01*
X156525818Y-60019117D01*
X156525000Y-60015000D01*
X156525000Y-59065000D01*
X156525818Y-59060885D01*
X156531766Y-59009620D01*
X156539499Y-58992105D01*
X156544030Y-58969329D01*
X156560323Y-58944944D01*
X156569478Y-58924211D01*
X156583638Y-58910050D01*
X156598223Y-58888223D01*
X156620050Y-58873638D01*
X156634211Y-58859478D01*
X156654944Y-58850323D01*
X156679329Y-58834030D01*
X156702105Y-58829499D01*
X156719620Y-58821766D01*
X156770884Y-58815818D01*
X156775000Y-58815000D01*
X157450000Y-58815000D01*
X157454116Y-58815818D01*
G37*
G36*
X159529116Y-58815818D02*
G01*
X159580379Y-58821766D01*
X159597892Y-58829499D01*
X159620671Y-58834030D01*
X159645057Y-58850324D01*
X159665788Y-58859478D01*
X159679946Y-58873636D01*
X159701777Y-58888223D01*
X159716363Y-58910053D01*
X159730521Y-58924211D01*
X159739673Y-58944939D01*
X159755970Y-58969329D01*
X159760501Y-58992109D01*
X159768233Y-59009620D01*
X159774178Y-59060872D01*
X159775000Y-59065000D01*
X159775000Y-60015000D01*
X159774178Y-60019128D01*
X159768233Y-60070379D01*
X159760501Y-60087888D01*
X159755970Y-60110671D01*
X159739672Y-60135062D01*
X159730521Y-60155788D01*
X159716365Y-60169943D01*
X159701777Y-60191777D01*
X159679943Y-60206365D01*
X159665788Y-60220521D01*
X159645062Y-60229672D01*
X159620671Y-60245970D01*
X159597888Y-60250501D01*
X159580379Y-60258233D01*
X159529129Y-60264178D01*
X159525000Y-60265000D01*
X158850000Y-60265000D01*
X158845873Y-60264179D01*
X158794620Y-60258233D01*
X158777109Y-60250501D01*
X158754329Y-60245970D01*
X158729939Y-60229673D01*
X158709211Y-60220521D01*
X158695053Y-60206363D01*
X158673223Y-60191777D01*
X158658636Y-60169946D01*
X158644478Y-60155788D01*
X158635324Y-60135057D01*
X158619030Y-60110671D01*
X158614499Y-60087892D01*
X158606766Y-60070379D01*
X158600818Y-60019117D01*
X158600000Y-60015000D01*
X158600000Y-59065000D01*
X158600818Y-59060885D01*
X158606766Y-59009620D01*
X158614499Y-58992105D01*
X158619030Y-58969329D01*
X158635323Y-58944944D01*
X158644478Y-58924211D01*
X158658638Y-58910050D01*
X158673223Y-58888223D01*
X158695050Y-58873638D01*
X158709211Y-58859478D01*
X158729944Y-58850323D01*
X158754329Y-58834030D01*
X158777105Y-58829499D01*
X158794620Y-58821766D01*
X158845884Y-58815818D01*
X158850000Y-58815000D01*
X159525000Y-58815000D01*
X159529116Y-58815818D01*
G37*
G36*
X168504113Y-56675818D02*
G01*
X168555378Y-56681766D01*
X168572892Y-56689499D01*
X168595670Y-56694030D01*
X168620054Y-56710323D01*
X168640788Y-56719478D01*
X168654950Y-56733640D01*
X168676776Y-56748224D01*
X168691359Y-56770049D01*
X168705521Y-56784211D01*
X168714675Y-56804943D01*
X168730970Y-56829330D01*
X168735501Y-56852109D01*
X168743233Y-56869621D01*
X168749179Y-56920875D01*
X168750000Y-56925002D01*
X168750000Y-59924998D01*
X168749178Y-59929126D01*
X168743233Y-59980378D01*
X168735501Y-59997888D01*
X168730970Y-60020670D01*
X168714673Y-60045058D01*
X168705521Y-60065788D01*
X168691361Y-60079947D01*
X168676776Y-60101776D01*
X168654947Y-60116361D01*
X168640788Y-60130521D01*
X168620058Y-60139673D01*
X168595670Y-60155970D01*
X168572888Y-60160501D01*
X168555378Y-60168233D01*
X168504126Y-60174178D01*
X168499998Y-60175000D01*
X165500002Y-60175000D01*
X165495875Y-60174179D01*
X165444621Y-60168233D01*
X165427109Y-60160501D01*
X165404330Y-60155970D01*
X165379943Y-60139675D01*
X165359211Y-60130521D01*
X165345049Y-60116359D01*
X165323224Y-60101776D01*
X165308640Y-60079950D01*
X165294478Y-60065788D01*
X165285323Y-60045054D01*
X165269030Y-60020670D01*
X165264499Y-59997892D01*
X165256766Y-59980378D01*
X165250818Y-59929113D01*
X165250000Y-59924998D01*
X165250000Y-56925002D01*
X165250818Y-56920887D01*
X165256766Y-56869621D01*
X165264499Y-56852105D01*
X165269030Y-56829330D01*
X165285321Y-56804947D01*
X165294478Y-56784211D01*
X165308642Y-56770046D01*
X165323224Y-56748224D01*
X165345046Y-56733642D01*
X165359211Y-56719478D01*
X165379947Y-56710321D01*
X165404330Y-56694030D01*
X165427105Y-56689499D01*
X165444621Y-56681766D01*
X165495887Y-56675818D01*
X165500002Y-56675000D01*
X168499998Y-56675000D01*
X168504113Y-56675818D01*
G37*
G36*
X149941615Y-58550818D02*
G01*
X149990017Y-58556434D01*
X150006555Y-58563736D01*
X150028387Y-58568079D01*
X150051759Y-58583695D01*
X150071224Y-58592290D01*
X150084517Y-58605583D01*
X150105438Y-58619562D01*
X150119416Y-58640482D01*
X150132709Y-58653775D01*
X150141302Y-58673238D01*
X150156921Y-58696613D01*
X150161264Y-58718446D01*
X150168565Y-58734982D01*
X150174178Y-58783372D01*
X150175000Y-58787500D01*
X150175000Y-59262500D01*
X150174178Y-59266627D01*
X150168565Y-59315017D01*
X150161264Y-59331551D01*
X150156921Y-59353387D01*
X150141301Y-59376763D01*
X150132709Y-59396224D01*
X150119418Y-59409514D01*
X150105438Y-59430438D01*
X150084514Y-59444418D01*
X150071224Y-59457709D01*
X150051763Y-59466301D01*
X150028387Y-59481921D01*
X150006551Y-59486264D01*
X149990017Y-59493565D01*
X149941629Y-59499178D01*
X149937500Y-59500000D01*
X149337500Y-59500000D01*
X149333373Y-59499179D01*
X149284982Y-59493565D01*
X149268446Y-59486264D01*
X149246613Y-59481921D01*
X149223238Y-59466302D01*
X149203775Y-59457709D01*
X149190482Y-59444416D01*
X149169562Y-59430438D01*
X149155583Y-59409517D01*
X149142290Y-59396224D01*
X149133695Y-59376759D01*
X149118079Y-59353387D01*
X149113736Y-59331555D01*
X149106434Y-59315017D01*
X149100818Y-59266616D01*
X149100000Y-59262500D01*
X149100000Y-58787500D01*
X149100818Y-58783385D01*
X149106434Y-58734982D01*
X149113736Y-58718442D01*
X149118079Y-58696613D01*
X149133694Y-58673242D01*
X149142290Y-58653775D01*
X149155585Y-58640479D01*
X149169562Y-58619562D01*
X149190479Y-58605585D01*
X149203775Y-58592290D01*
X149223242Y-58583694D01*
X149246613Y-58568079D01*
X149268442Y-58563736D01*
X149284982Y-58556434D01*
X149333384Y-58550818D01*
X149337500Y-58550000D01*
X149937500Y-58550000D01*
X149941615Y-58550818D01*
G37*
G36*
X151666615Y-58550818D02*
G01*
X151715017Y-58556434D01*
X151731555Y-58563736D01*
X151753387Y-58568079D01*
X151776759Y-58583695D01*
X151796224Y-58592290D01*
X151809517Y-58605583D01*
X151830438Y-58619562D01*
X151844416Y-58640482D01*
X151857709Y-58653775D01*
X151866302Y-58673238D01*
X151881921Y-58696613D01*
X151886264Y-58718446D01*
X151893565Y-58734982D01*
X151899178Y-58783372D01*
X151900000Y-58787500D01*
X151900000Y-59262500D01*
X151899178Y-59266627D01*
X151893565Y-59315017D01*
X151886264Y-59331551D01*
X151881921Y-59353387D01*
X151866301Y-59376763D01*
X151857709Y-59396224D01*
X151844418Y-59409514D01*
X151830438Y-59430438D01*
X151809514Y-59444418D01*
X151796224Y-59457709D01*
X151776763Y-59466301D01*
X151753387Y-59481921D01*
X151731551Y-59486264D01*
X151715017Y-59493565D01*
X151666629Y-59499178D01*
X151662500Y-59500000D01*
X151062500Y-59500000D01*
X151058373Y-59499179D01*
X151009982Y-59493565D01*
X150993446Y-59486264D01*
X150971613Y-59481921D01*
X150948238Y-59466302D01*
X150928775Y-59457709D01*
X150915482Y-59444416D01*
X150894562Y-59430438D01*
X150880583Y-59409517D01*
X150867290Y-59396224D01*
X150858695Y-59376759D01*
X150843079Y-59353387D01*
X150838736Y-59331555D01*
X150831434Y-59315017D01*
X150825818Y-59266616D01*
X150825000Y-59262500D01*
X150825000Y-58787500D01*
X150825818Y-58783385D01*
X150831434Y-58734982D01*
X150838736Y-58718442D01*
X150843079Y-58696613D01*
X150858694Y-58673242D01*
X150867290Y-58653775D01*
X150880585Y-58640479D01*
X150894562Y-58619562D01*
X150915479Y-58605585D01*
X150928775Y-58592290D01*
X150948242Y-58583694D01*
X150971613Y-58568079D01*
X150993442Y-58563736D01*
X151009982Y-58556434D01*
X151058384Y-58550818D01*
X151062500Y-58550000D01*
X151662500Y-58550000D01*
X151666615Y-58550818D01*
G37*
G36*
X144541615Y-57550818D02*
G01*
X144590017Y-57556434D01*
X144606555Y-57563736D01*
X144628387Y-57568079D01*
X144651759Y-57583695D01*
X144671224Y-57592290D01*
X144684517Y-57605583D01*
X144705438Y-57619562D01*
X144719416Y-57640482D01*
X144732709Y-57653775D01*
X144741302Y-57673238D01*
X144756921Y-57696613D01*
X144761264Y-57718446D01*
X144768565Y-57734982D01*
X144774178Y-57783372D01*
X144775000Y-57787500D01*
X144775000Y-58287500D01*
X144774178Y-58291627D01*
X144768565Y-58340017D01*
X144761264Y-58356551D01*
X144756921Y-58378387D01*
X144741301Y-58401763D01*
X144732709Y-58421224D01*
X144719418Y-58434514D01*
X144705438Y-58455438D01*
X144684514Y-58469418D01*
X144671224Y-58482709D01*
X144651763Y-58491301D01*
X144628387Y-58506921D01*
X144606551Y-58511264D01*
X144590017Y-58518565D01*
X144541629Y-58524178D01*
X144537500Y-58525000D01*
X144062500Y-58525000D01*
X144058373Y-58524179D01*
X144009982Y-58518565D01*
X143993446Y-58511264D01*
X143971613Y-58506921D01*
X143948238Y-58491302D01*
X143928775Y-58482709D01*
X143915482Y-58469416D01*
X143894562Y-58455438D01*
X143880583Y-58434517D01*
X143867290Y-58421224D01*
X143858695Y-58401759D01*
X143843079Y-58378387D01*
X143838736Y-58356555D01*
X143831434Y-58340017D01*
X143825818Y-58291616D01*
X143825000Y-58287500D01*
X143825000Y-57787500D01*
X143825818Y-57783385D01*
X143831434Y-57734982D01*
X143838736Y-57718442D01*
X143843079Y-57696613D01*
X143858694Y-57673242D01*
X143867290Y-57653775D01*
X143880585Y-57640479D01*
X143894562Y-57619562D01*
X143915479Y-57605585D01*
X143928775Y-57592290D01*
X143948242Y-57583694D01*
X143971613Y-57568079D01*
X143993442Y-57563736D01*
X144009982Y-57556434D01*
X144058384Y-57550818D01*
X144062500Y-57550000D01*
X144537500Y-57550000D01*
X144541615Y-57550818D01*
G37*
G36*
X138041615Y-57475818D02*
G01*
X138090017Y-57481434D01*
X138106555Y-57488736D01*
X138128387Y-57493079D01*
X138151759Y-57508695D01*
X138171224Y-57517290D01*
X138184517Y-57530583D01*
X138205438Y-57544562D01*
X138219416Y-57565482D01*
X138232709Y-57578775D01*
X138241302Y-57598238D01*
X138256921Y-57621613D01*
X138261264Y-57643446D01*
X138268565Y-57659982D01*
X138274178Y-57708372D01*
X138275000Y-57712500D01*
X138275000Y-58212500D01*
X138274178Y-58216627D01*
X138268565Y-58265017D01*
X138261264Y-58281551D01*
X138256921Y-58303387D01*
X138241301Y-58326763D01*
X138232709Y-58346224D01*
X138219418Y-58359514D01*
X138205438Y-58380438D01*
X138184514Y-58394418D01*
X138171224Y-58407709D01*
X138151763Y-58416301D01*
X138128387Y-58431921D01*
X138106551Y-58436264D01*
X138090017Y-58443565D01*
X138041629Y-58449178D01*
X138037500Y-58450000D01*
X137562500Y-58450000D01*
X137558373Y-58449179D01*
X137509982Y-58443565D01*
X137493446Y-58436264D01*
X137471613Y-58431921D01*
X137448238Y-58416302D01*
X137428775Y-58407709D01*
X137415482Y-58394416D01*
X137394562Y-58380438D01*
X137380583Y-58359517D01*
X137367290Y-58346224D01*
X137358695Y-58326759D01*
X137343079Y-58303387D01*
X137338736Y-58281555D01*
X137331434Y-58265017D01*
X137325818Y-58216616D01*
X137325000Y-58212500D01*
X137325000Y-57712500D01*
X137325818Y-57708385D01*
X137331434Y-57659982D01*
X137338736Y-57643442D01*
X137343079Y-57621613D01*
X137358694Y-57598242D01*
X137367290Y-57578775D01*
X137380585Y-57565479D01*
X137394562Y-57544562D01*
X137415479Y-57530585D01*
X137428775Y-57517290D01*
X137448242Y-57508694D01*
X137471613Y-57493079D01*
X137493442Y-57488736D01*
X137509982Y-57481434D01*
X137558384Y-57475818D01*
X137562500Y-57475000D01*
X138037500Y-57475000D01*
X138041615Y-57475818D01*
G37*
G36*
X157454116Y-56750818D02*
G01*
X157505379Y-56756766D01*
X157522892Y-56764499D01*
X157545671Y-56769030D01*
X157570057Y-56785324D01*
X157590788Y-56794478D01*
X157604946Y-56808636D01*
X157626777Y-56823223D01*
X157641363Y-56845053D01*
X157655521Y-56859211D01*
X157664673Y-56879939D01*
X157680970Y-56904329D01*
X157685501Y-56927109D01*
X157693233Y-56944620D01*
X157699178Y-56995872D01*
X157700000Y-57000000D01*
X157700000Y-57950000D01*
X157699178Y-57954128D01*
X157693233Y-58005379D01*
X157685501Y-58022888D01*
X157680970Y-58045671D01*
X157664672Y-58070062D01*
X157655521Y-58090788D01*
X157641365Y-58104943D01*
X157626777Y-58126777D01*
X157604943Y-58141365D01*
X157590788Y-58155521D01*
X157570062Y-58164672D01*
X157545671Y-58180970D01*
X157522888Y-58185501D01*
X157505379Y-58193233D01*
X157454129Y-58199178D01*
X157450000Y-58200000D01*
X156775000Y-58200000D01*
X156770873Y-58199179D01*
X156719620Y-58193233D01*
X156702109Y-58185501D01*
X156679329Y-58180970D01*
X156654939Y-58164673D01*
X156634211Y-58155521D01*
X156620053Y-58141363D01*
X156598223Y-58126777D01*
X156583636Y-58104946D01*
X156569478Y-58090788D01*
X156560324Y-58070057D01*
X156544030Y-58045671D01*
X156539499Y-58022892D01*
X156531766Y-58005379D01*
X156525818Y-57954117D01*
X156525000Y-57950000D01*
X156525000Y-57000000D01*
X156525818Y-56995885D01*
X156531766Y-56944620D01*
X156539499Y-56927105D01*
X156544030Y-56904329D01*
X156560323Y-56879944D01*
X156569478Y-56859211D01*
X156583638Y-56845050D01*
X156598223Y-56823223D01*
X156620050Y-56808638D01*
X156634211Y-56794478D01*
X156654944Y-56785323D01*
X156679329Y-56769030D01*
X156702105Y-56764499D01*
X156719620Y-56756766D01*
X156770884Y-56750818D01*
X156775000Y-56750000D01*
X157450000Y-56750000D01*
X157454116Y-56750818D01*
G37*
G36*
X159529116Y-56750818D02*
G01*
X159580379Y-56756766D01*
X159597892Y-56764499D01*
X159620671Y-56769030D01*
X159645057Y-56785324D01*
X159665788Y-56794478D01*
X159679946Y-56808636D01*
X159701777Y-56823223D01*
X159716363Y-56845053D01*
X159730521Y-56859211D01*
X159739673Y-56879939D01*
X159755970Y-56904329D01*
X159760501Y-56927109D01*
X159768233Y-56944620D01*
X159774178Y-56995872D01*
X159775000Y-57000000D01*
X159775000Y-57950000D01*
X159774178Y-57954128D01*
X159768233Y-58005379D01*
X159760501Y-58022888D01*
X159755970Y-58045671D01*
X159739672Y-58070062D01*
X159730521Y-58090788D01*
X159716365Y-58104943D01*
X159701777Y-58126777D01*
X159679943Y-58141365D01*
X159665788Y-58155521D01*
X159645062Y-58164672D01*
X159620671Y-58180970D01*
X159597888Y-58185501D01*
X159580379Y-58193233D01*
X159529129Y-58199178D01*
X159525000Y-58200000D01*
X158850000Y-58200000D01*
X158845873Y-58199179D01*
X158794620Y-58193233D01*
X158777109Y-58185501D01*
X158754329Y-58180970D01*
X158729939Y-58164673D01*
X158709211Y-58155521D01*
X158695053Y-58141363D01*
X158673223Y-58126777D01*
X158658636Y-58104946D01*
X158644478Y-58090788D01*
X158635324Y-58070057D01*
X158619030Y-58045671D01*
X158614499Y-58022892D01*
X158606766Y-58005379D01*
X158600818Y-57954117D01*
X158600000Y-57950000D01*
X158600000Y-57000000D01*
X158600818Y-56995885D01*
X158606766Y-56944620D01*
X158614499Y-56927105D01*
X158619030Y-56904329D01*
X158635323Y-56879944D01*
X158644478Y-56859211D01*
X158658638Y-56845050D01*
X158673223Y-56823223D01*
X158695050Y-56808638D01*
X158709211Y-56794478D01*
X158729944Y-56785323D01*
X158754329Y-56769030D01*
X158777105Y-56764499D01*
X158794620Y-56756766D01*
X158845884Y-56750818D01*
X158850000Y-56750000D01*
X159525000Y-56750000D01*
X159529116Y-56750818D01*
G37*
G36*
X146341615Y-56550818D02*
G01*
X146390017Y-56556434D01*
X146406555Y-56563736D01*
X146428387Y-56568079D01*
X146451759Y-56583695D01*
X146471224Y-56592290D01*
X146484517Y-56605583D01*
X146505438Y-56619562D01*
X146519416Y-56640482D01*
X146532709Y-56653775D01*
X146541302Y-56673238D01*
X146556921Y-56696613D01*
X146561264Y-56718446D01*
X146568565Y-56734982D01*
X146574178Y-56783372D01*
X146575000Y-56787500D01*
X146575000Y-57262500D01*
X146574178Y-57266627D01*
X146568565Y-57315017D01*
X146561264Y-57331551D01*
X146556921Y-57353387D01*
X146541301Y-57376763D01*
X146532709Y-57396224D01*
X146519418Y-57409514D01*
X146505438Y-57430438D01*
X146484514Y-57444418D01*
X146471224Y-57457709D01*
X146451763Y-57466301D01*
X146428387Y-57481921D01*
X146406551Y-57486264D01*
X146390017Y-57493565D01*
X146341629Y-57499178D01*
X146337500Y-57500000D01*
X145837500Y-57500000D01*
X145833373Y-57499179D01*
X145784982Y-57493565D01*
X145768446Y-57486264D01*
X145746613Y-57481921D01*
X145723238Y-57466302D01*
X145703775Y-57457709D01*
X145690482Y-57444416D01*
X145669562Y-57430438D01*
X145655583Y-57409517D01*
X145642290Y-57396224D01*
X145633695Y-57376759D01*
X145618079Y-57353387D01*
X145613736Y-57331555D01*
X145606434Y-57315017D01*
X145600818Y-57266616D01*
X145600000Y-57262500D01*
X145600000Y-56787500D01*
X145600818Y-56783385D01*
X145606434Y-56734982D01*
X145613736Y-56718442D01*
X145618079Y-56696613D01*
X145633694Y-56673242D01*
X145642290Y-56653775D01*
X145655585Y-56640479D01*
X145669562Y-56619562D01*
X145690479Y-56605585D01*
X145703775Y-56592290D01*
X145723242Y-56583694D01*
X145746613Y-56568079D01*
X145768442Y-56563736D01*
X145784982Y-56556434D01*
X145833384Y-56550818D01*
X145837500Y-56550000D01*
X146337500Y-56550000D01*
X146341615Y-56550818D01*
G37*
G36*
X148166615Y-56550818D02*
G01*
X148215017Y-56556434D01*
X148231555Y-56563736D01*
X148253387Y-56568079D01*
X148276759Y-56583695D01*
X148296224Y-56592290D01*
X148309517Y-56605583D01*
X148330438Y-56619562D01*
X148344416Y-56640482D01*
X148357709Y-56653775D01*
X148366302Y-56673238D01*
X148381921Y-56696613D01*
X148386264Y-56718446D01*
X148393565Y-56734982D01*
X148399178Y-56783372D01*
X148400000Y-56787500D01*
X148400000Y-57262500D01*
X148399178Y-57266627D01*
X148393565Y-57315017D01*
X148386264Y-57331551D01*
X148381921Y-57353387D01*
X148366301Y-57376763D01*
X148357709Y-57396224D01*
X148344418Y-57409514D01*
X148330438Y-57430438D01*
X148309514Y-57444418D01*
X148296224Y-57457709D01*
X148276763Y-57466301D01*
X148253387Y-57481921D01*
X148231551Y-57486264D01*
X148215017Y-57493565D01*
X148166629Y-57499178D01*
X148162500Y-57500000D01*
X147662500Y-57500000D01*
X147658373Y-57499179D01*
X147609982Y-57493565D01*
X147593446Y-57486264D01*
X147571613Y-57481921D01*
X147548238Y-57466302D01*
X147528775Y-57457709D01*
X147515482Y-57444416D01*
X147494562Y-57430438D01*
X147480583Y-57409517D01*
X147467290Y-57396224D01*
X147458695Y-57376759D01*
X147443079Y-57353387D01*
X147438736Y-57331555D01*
X147431434Y-57315017D01*
X147425818Y-57266616D01*
X147425000Y-57262500D01*
X147425000Y-56787500D01*
X147425818Y-56783385D01*
X147431434Y-56734982D01*
X147438736Y-56718442D01*
X147443079Y-56696613D01*
X147458694Y-56673242D01*
X147467290Y-56653775D01*
X147480585Y-56640479D01*
X147494562Y-56619562D01*
X147515479Y-56605585D01*
X147528775Y-56592290D01*
X147548242Y-56583694D01*
X147571613Y-56568079D01*
X147593442Y-56563736D01*
X147609982Y-56556434D01*
X147658384Y-56550818D01*
X147662500Y-56550000D01*
X148162500Y-56550000D01*
X148166615Y-56550818D01*
G37*
G36*
X149941615Y-56550818D02*
G01*
X149990017Y-56556434D01*
X150006555Y-56563736D01*
X150028387Y-56568079D01*
X150051759Y-56583695D01*
X150071224Y-56592290D01*
X150084517Y-56605583D01*
X150105438Y-56619562D01*
X150119416Y-56640482D01*
X150132709Y-56653775D01*
X150141302Y-56673238D01*
X150156921Y-56696613D01*
X150161264Y-56718446D01*
X150168565Y-56734982D01*
X150174178Y-56783372D01*
X150175000Y-56787500D01*
X150175000Y-57262500D01*
X150174178Y-57266627D01*
X150168565Y-57315017D01*
X150161264Y-57331551D01*
X150156921Y-57353387D01*
X150141301Y-57376763D01*
X150132709Y-57396224D01*
X150119418Y-57409514D01*
X150105438Y-57430438D01*
X150084514Y-57444418D01*
X150071224Y-57457709D01*
X150051763Y-57466301D01*
X150028387Y-57481921D01*
X150006551Y-57486264D01*
X149990017Y-57493565D01*
X149941629Y-57499178D01*
X149937500Y-57500000D01*
X149337500Y-57500000D01*
X149333373Y-57499179D01*
X149284982Y-57493565D01*
X149268446Y-57486264D01*
X149246613Y-57481921D01*
X149223238Y-57466302D01*
X149203775Y-57457709D01*
X149190482Y-57444416D01*
X149169562Y-57430438D01*
X149155583Y-57409517D01*
X149142290Y-57396224D01*
X149133695Y-57376759D01*
X149118079Y-57353387D01*
X149113736Y-57331555D01*
X149106434Y-57315017D01*
X149100818Y-57266616D01*
X149100000Y-57262500D01*
X149100000Y-56787500D01*
X149100818Y-56783385D01*
X149106434Y-56734982D01*
X149113736Y-56718442D01*
X149118079Y-56696613D01*
X149133694Y-56673242D01*
X149142290Y-56653775D01*
X149155585Y-56640479D01*
X149169562Y-56619562D01*
X149190479Y-56605585D01*
X149203775Y-56592290D01*
X149223242Y-56583694D01*
X149246613Y-56568079D01*
X149268442Y-56563736D01*
X149284982Y-56556434D01*
X149333384Y-56550818D01*
X149337500Y-56550000D01*
X149937500Y-56550000D01*
X149941615Y-56550818D01*
G37*
G36*
X151666615Y-56550818D02*
G01*
X151715017Y-56556434D01*
X151731555Y-56563736D01*
X151753387Y-56568079D01*
X151776759Y-56583695D01*
X151796224Y-56592290D01*
X151809517Y-56605583D01*
X151830438Y-56619562D01*
X151844416Y-56640482D01*
X151857709Y-56653775D01*
X151866302Y-56673238D01*
X151881921Y-56696613D01*
X151886264Y-56718446D01*
X151893565Y-56734982D01*
X151899178Y-56783372D01*
X151900000Y-56787500D01*
X151900000Y-57262500D01*
X151899178Y-57266627D01*
X151893565Y-57315017D01*
X151886264Y-57331551D01*
X151881921Y-57353387D01*
X151866301Y-57376763D01*
X151857709Y-57396224D01*
X151844418Y-57409514D01*
X151830438Y-57430438D01*
X151809514Y-57444418D01*
X151796224Y-57457709D01*
X151776763Y-57466301D01*
X151753387Y-57481921D01*
X151731551Y-57486264D01*
X151715017Y-57493565D01*
X151666629Y-57499178D01*
X151662500Y-57500000D01*
X151062500Y-57500000D01*
X151058373Y-57499179D01*
X151009982Y-57493565D01*
X150993446Y-57486264D01*
X150971613Y-57481921D01*
X150948238Y-57466302D01*
X150928775Y-57457709D01*
X150915482Y-57444416D01*
X150894562Y-57430438D01*
X150880583Y-57409517D01*
X150867290Y-57396224D01*
X150858695Y-57376759D01*
X150843079Y-57353387D01*
X150838736Y-57331555D01*
X150831434Y-57315017D01*
X150825818Y-57266616D01*
X150825000Y-57262500D01*
X150825000Y-56787500D01*
X150825818Y-56783385D01*
X150831434Y-56734982D01*
X150838736Y-56718442D01*
X150843079Y-56696613D01*
X150858694Y-56673242D01*
X150867290Y-56653775D01*
X150880585Y-56640479D01*
X150894562Y-56619562D01*
X150915479Y-56605585D01*
X150928775Y-56592290D01*
X150948242Y-56583694D01*
X150971613Y-56568079D01*
X150993442Y-56563736D01*
X151009982Y-56556434D01*
X151058384Y-56550818D01*
X151062500Y-56550000D01*
X151662500Y-56550000D01*
X151666615Y-56550818D01*
G37*
G36*
X133739116Y-56070818D02*
G01*
X133790380Y-56076766D01*
X133807895Y-56084499D01*
X133830671Y-56089030D01*
X133855052Y-56105321D01*
X133875789Y-56114477D01*
X133889952Y-56128640D01*
X133911777Y-56143223D01*
X133926359Y-56165047D01*
X133940522Y-56179210D01*
X133949677Y-56199944D01*
X133965970Y-56224329D01*
X133970500Y-56247105D01*
X133978233Y-56264619D01*
X133984182Y-56315896D01*
X133984999Y-56320000D01*
X133984999Y-56322930D01*
X133985000Y-56322939D01*
X133985000Y-56784211D01*
X133985000Y-57220001D01*
X133984181Y-57224118D01*
X133978233Y-57275380D01*
X133970501Y-57292891D01*
X133965970Y-57315671D01*
X133949675Y-57340056D01*
X133940522Y-57360789D01*
X133926361Y-57374949D01*
X133911777Y-57396777D01*
X133889949Y-57411361D01*
X133875789Y-57425522D01*
X133855056Y-57434675D01*
X133830671Y-57450970D01*
X133807892Y-57455500D01*
X133790380Y-57463233D01*
X133739104Y-57469182D01*
X133735000Y-57469999D01*
X133732068Y-57469999D01*
X133732060Y-57470000D01*
X130887940Y-57470000D01*
X130887939Y-57469999D01*
X130884999Y-57470000D01*
X130880881Y-57469181D01*
X130829619Y-57463233D01*
X130812106Y-57455500D01*
X130789329Y-57450970D01*
X130764944Y-57434677D01*
X130744210Y-57425522D01*
X130730047Y-57411359D01*
X130708223Y-57396777D01*
X130693640Y-57374952D01*
X130679477Y-57360789D01*
X130670321Y-57340052D01*
X130654030Y-57315671D01*
X130649500Y-57292896D01*
X130641766Y-57275380D01*
X130635817Y-57224103D01*
X130635001Y-57220000D01*
X130635000Y-57217068D01*
X130635000Y-57217060D01*
X130635000Y-56322939D01*
X130635000Y-56322938D01*
X130635000Y-56319999D01*
X130635818Y-56315884D01*
X130641766Y-56264619D01*
X130649499Y-56247102D01*
X130654030Y-56224329D01*
X130670319Y-56199949D01*
X130679477Y-56179210D01*
X130693642Y-56165044D01*
X130708223Y-56143223D01*
X130730044Y-56128642D01*
X130744210Y-56114477D01*
X130764949Y-56105319D01*
X130789329Y-56089030D01*
X130812101Y-56084500D01*
X130829619Y-56076766D01*
X130880897Y-56070817D01*
X130885000Y-56070001D01*
X130887931Y-56070000D01*
X130887940Y-56070000D01*
X133732060Y-56070000D01*
X133735001Y-56070000D01*
X133739116Y-56070818D01*
G37*
G36*
X144541615Y-55725818D02*
G01*
X144590017Y-55731434D01*
X144606555Y-55738736D01*
X144628387Y-55743079D01*
X144651759Y-55758695D01*
X144671224Y-55767290D01*
X144684517Y-55780583D01*
X144705438Y-55794562D01*
X144719416Y-55815482D01*
X144732709Y-55828775D01*
X144741302Y-55848238D01*
X144756921Y-55871613D01*
X144761264Y-55893446D01*
X144768565Y-55909982D01*
X144774178Y-55958372D01*
X144775000Y-55962500D01*
X144775000Y-56462500D01*
X144774178Y-56466627D01*
X144768565Y-56515017D01*
X144761264Y-56531551D01*
X144756921Y-56553387D01*
X144741301Y-56576763D01*
X144732709Y-56596224D01*
X144719418Y-56609514D01*
X144705438Y-56630438D01*
X144684514Y-56644418D01*
X144671224Y-56657709D01*
X144651763Y-56666301D01*
X144628387Y-56681921D01*
X144606551Y-56686264D01*
X144590017Y-56693565D01*
X144541629Y-56699178D01*
X144537500Y-56700000D01*
X144062500Y-56700000D01*
X144058373Y-56699179D01*
X144009982Y-56693565D01*
X143993446Y-56686264D01*
X143971613Y-56681921D01*
X143948238Y-56666302D01*
X143928775Y-56657709D01*
X143915482Y-56644416D01*
X143894562Y-56630438D01*
X143880583Y-56609517D01*
X143867290Y-56596224D01*
X143858695Y-56576759D01*
X143843079Y-56553387D01*
X143838736Y-56531555D01*
X143831434Y-56515017D01*
X143825818Y-56466616D01*
X143825000Y-56462500D01*
X143825000Y-55962500D01*
X143825818Y-55958385D01*
X143831434Y-55909982D01*
X143838736Y-55893442D01*
X143843079Y-55871613D01*
X143858694Y-55848242D01*
X143867290Y-55828775D01*
X143880585Y-55815479D01*
X143894562Y-55794562D01*
X143915479Y-55780585D01*
X143928775Y-55767290D01*
X143948242Y-55758694D01*
X143971613Y-55743079D01*
X143993442Y-55738736D01*
X144009982Y-55731434D01*
X144058384Y-55725818D01*
X144062500Y-55725000D01*
X144537500Y-55725000D01*
X144541615Y-55725818D01*
G37*
G36*
X138041615Y-55650818D02*
G01*
X138090017Y-55656434D01*
X138106555Y-55663736D01*
X138128387Y-55668079D01*
X138151759Y-55683695D01*
X138171224Y-55692290D01*
X138184517Y-55705583D01*
X138205438Y-55719562D01*
X138219416Y-55740482D01*
X138232709Y-55753775D01*
X138241302Y-55773238D01*
X138256921Y-55796613D01*
X138261264Y-55818446D01*
X138268565Y-55834982D01*
X138274178Y-55883372D01*
X138275000Y-55887500D01*
X138275000Y-56387500D01*
X138274178Y-56391627D01*
X138268565Y-56440017D01*
X138261264Y-56456551D01*
X138256921Y-56478387D01*
X138241301Y-56501763D01*
X138232709Y-56521224D01*
X138219418Y-56534514D01*
X138205438Y-56555438D01*
X138184514Y-56569418D01*
X138171224Y-56582709D01*
X138151763Y-56591301D01*
X138128387Y-56606921D01*
X138106551Y-56611264D01*
X138090017Y-56618565D01*
X138041629Y-56624178D01*
X138037500Y-56625000D01*
X137562500Y-56625000D01*
X137558373Y-56624179D01*
X137509982Y-56618565D01*
X137493446Y-56611264D01*
X137471613Y-56606921D01*
X137448238Y-56591302D01*
X137428775Y-56582709D01*
X137415482Y-56569416D01*
X137394562Y-56555438D01*
X137380583Y-56534517D01*
X137367290Y-56521224D01*
X137358695Y-56501759D01*
X137343079Y-56478387D01*
X137338736Y-56456555D01*
X137331434Y-56440017D01*
X137325818Y-56391616D01*
X137325000Y-56387500D01*
X137325000Y-55887500D01*
X137325818Y-55883385D01*
X137331434Y-55834982D01*
X137338736Y-55818442D01*
X137343079Y-55796613D01*
X137358694Y-55773242D01*
X137367290Y-55753775D01*
X137380585Y-55740479D01*
X137394562Y-55719562D01*
X137415479Y-55705585D01*
X137428775Y-55692290D01*
X137448242Y-55683694D01*
X137471613Y-55668079D01*
X137493442Y-55663736D01*
X137509982Y-55656434D01*
X137558384Y-55650818D01*
X137562500Y-55650000D01*
X138037500Y-55650000D01*
X138041615Y-55650818D01*
G37*
G36*
X149941615Y-54650818D02*
G01*
X149990017Y-54656434D01*
X150006555Y-54663736D01*
X150028387Y-54668079D01*
X150051759Y-54683695D01*
X150071224Y-54692290D01*
X150084517Y-54705583D01*
X150105438Y-54719562D01*
X150119416Y-54740482D01*
X150132709Y-54753775D01*
X150141302Y-54773238D01*
X150156921Y-54796613D01*
X150161264Y-54818446D01*
X150168565Y-54834982D01*
X150174178Y-54883372D01*
X150175000Y-54887500D01*
X150175000Y-55362500D01*
X150174178Y-55366627D01*
X150168565Y-55415017D01*
X150161264Y-55431551D01*
X150156921Y-55453387D01*
X150141301Y-55476763D01*
X150132709Y-55496224D01*
X150119418Y-55509514D01*
X150105438Y-55530438D01*
X150084514Y-55544418D01*
X150071224Y-55557709D01*
X150051763Y-55566301D01*
X150028387Y-55581921D01*
X150006551Y-55586264D01*
X149990017Y-55593565D01*
X149941629Y-55599178D01*
X149937500Y-55600000D01*
X149337500Y-55600000D01*
X149333373Y-55599179D01*
X149284982Y-55593565D01*
X149268446Y-55586264D01*
X149246613Y-55581921D01*
X149223238Y-55566302D01*
X149203775Y-55557709D01*
X149190482Y-55544416D01*
X149169562Y-55530438D01*
X149155583Y-55509517D01*
X149142290Y-55496224D01*
X149133695Y-55476759D01*
X149118079Y-55453387D01*
X149113736Y-55431555D01*
X149106434Y-55415017D01*
X149100818Y-55366616D01*
X149100000Y-55362500D01*
X149100000Y-54887500D01*
X149100818Y-54883385D01*
X149106434Y-54834982D01*
X149113736Y-54818442D01*
X149118079Y-54796613D01*
X149133694Y-54773242D01*
X149142290Y-54753775D01*
X149155585Y-54740479D01*
X149169562Y-54719562D01*
X149190479Y-54705585D01*
X149203775Y-54692290D01*
X149223242Y-54683694D01*
X149246613Y-54668079D01*
X149268442Y-54663736D01*
X149284982Y-54656434D01*
X149333384Y-54650818D01*
X149337500Y-54650000D01*
X149937500Y-54650000D01*
X149941615Y-54650818D01*
G37*
G36*
X151666615Y-54650818D02*
G01*
X151715017Y-54656434D01*
X151731555Y-54663736D01*
X151753387Y-54668079D01*
X151776759Y-54683695D01*
X151796224Y-54692290D01*
X151809517Y-54705583D01*
X151830438Y-54719562D01*
X151844416Y-54740482D01*
X151857709Y-54753775D01*
X151866302Y-54773238D01*
X151881921Y-54796613D01*
X151886264Y-54818446D01*
X151893565Y-54834982D01*
X151899178Y-54883372D01*
X151900000Y-54887500D01*
X151900000Y-55362500D01*
X151899178Y-55366627D01*
X151893565Y-55415017D01*
X151886264Y-55431551D01*
X151881921Y-55453387D01*
X151866301Y-55476763D01*
X151857709Y-55496224D01*
X151844418Y-55509514D01*
X151830438Y-55530438D01*
X151809514Y-55544418D01*
X151796224Y-55557709D01*
X151776763Y-55566301D01*
X151753387Y-55581921D01*
X151731551Y-55586264D01*
X151715017Y-55593565D01*
X151666629Y-55599178D01*
X151662500Y-55600000D01*
X151062500Y-55600000D01*
X151058373Y-55599179D01*
X151009982Y-55593565D01*
X150993446Y-55586264D01*
X150971613Y-55581921D01*
X150948238Y-55566302D01*
X150928775Y-55557709D01*
X150915482Y-55544416D01*
X150894562Y-55530438D01*
X150880583Y-55509517D01*
X150867290Y-55496224D01*
X150858695Y-55476759D01*
X150843079Y-55453387D01*
X150838736Y-55431555D01*
X150831434Y-55415017D01*
X150825818Y-55366616D01*
X150825000Y-55362500D01*
X150825000Y-54887500D01*
X150825818Y-54883385D01*
X150831434Y-54834982D01*
X150838736Y-54818442D01*
X150843079Y-54796613D01*
X150858694Y-54773242D01*
X150867290Y-54753775D01*
X150880585Y-54740479D01*
X150894562Y-54719562D01*
X150915479Y-54705585D01*
X150928775Y-54692290D01*
X150948242Y-54683694D01*
X150971613Y-54668079D01*
X150993442Y-54663736D01*
X151009982Y-54656434D01*
X151058384Y-54650818D01*
X151062500Y-54650000D01*
X151662500Y-54650000D01*
X151666615Y-54650818D01*
G37*
G36*
X146341615Y-53750818D02*
G01*
X146390017Y-53756434D01*
X146406555Y-53763736D01*
X146428387Y-53768079D01*
X146451759Y-53783695D01*
X146471224Y-53792290D01*
X146484517Y-53805583D01*
X146505438Y-53819562D01*
X146519416Y-53840482D01*
X146532709Y-53853775D01*
X146541302Y-53873238D01*
X146556921Y-53896613D01*
X146561264Y-53918446D01*
X146568565Y-53934982D01*
X146574178Y-53983372D01*
X146575000Y-53987500D01*
X146575000Y-54487500D01*
X146574178Y-54491627D01*
X146568565Y-54540017D01*
X146561264Y-54556551D01*
X146556921Y-54578387D01*
X146541301Y-54601763D01*
X146532709Y-54621224D01*
X146519418Y-54634514D01*
X146505438Y-54655438D01*
X146484514Y-54669418D01*
X146471224Y-54682709D01*
X146451763Y-54691301D01*
X146428387Y-54706921D01*
X146406551Y-54711264D01*
X146390017Y-54718565D01*
X146341629Y-54724178D01*
X146337500Y-54725000D01*
X145862500Y-54725000D01*
X145858373Y-54724179D01*
X145809982Y-54718565D01*
X145793446Y-54711264D01*
X145771613Y-54706921D01*
X145748238Y-54691302D01*
X145728775Y-54682709D01*
X145715482Y-54669416D01*
X145694562Y-54655438D01*
X145680583Y-54634517D01*
X145667290Y-54621224D01*
X145658695Y-54601759D01*
X145643079Y-54578387D01*
X145638736Y-54556555D01*
X145631434Y-54540017D01*
X145625818Y-54491616D01*
X145625000Y-54487500D01*
X145625000Y-53987500D01*
X145625818Y-53983385D01*
X145631434Y-53934982D01*
X145638736Y-53918442D01*
X145643079Y-53896613D01*
X145658694Y-53873242D01*
X145667290Y-53853775D01*
X145680585Y-53840479D01*
X145694562Y-53819562D01*
X145715479Y-53805585D01*
X145728775Y-53792290D01*
X145748242Y-53783694D01*
X145771613Y-53768079D01*
X145793442Y-53763736D01*
X145809982Y-53756434D01*
X145858384Y-53750818D01*
X145862500Y-53750000D01*
X146337500Y-53750000D01*
X146341615Y-53750818D01*
G37*
G36*
X149519134Y-53323806D02*
G01*
X149535355Y-53334645D01*
X149546194Y-53350866D01*
X149550000Y-53370000D01*
X149550000Y-53940000D01*
X149546194Y-53959134D01*
X149535355Y-53975355D01*
X149519134Y-53986194D01*
X149500000Y-53990000D01*
X149300000Y-53990000D01*
X149280866Y-53986194D01*
X149264645Y-53975355D01*
X149253806Y-53959134D01*
X149250000Y-53940000D01*
X149250000Y-53370000D01*
X149253806Y-53350866D01*
X149264645Y-53334645D01*
X149280866Y-53323806D01*
X149300000Y-53320000D01*
X149500000Y-53320000D01*
X149519134Y-53323806D01*
G37*
G36*
X150019134Y-53323806D02*
G01*
X150035355Y-53334645D01*
X150046194Y-53350866D01*
X150050000Y-53370000D01*
X150050000Y-53940000D01*
X150046194Y-53959134D01*
X150035355Y-53975355D01*
X150019134Y-53986194D01*
X150000000Y-53990000D01*
X149800000Y-53990000D01*
X149780866Y-53986194D01*
X149764645Y-53975355D01*
X149753806Y-53959134D01*
X149750000Y-53940000D01*
X149750000Y-53370000D01*
X149753806Y-53350866D01*
X149764645Y-53334645D01*
X149780866Y-53323806D01*
X149800000Y-53320000D01*
X150000000Y-53320000D01*
X150019134Y-53323806D01*
G37*
G36*
X150519134Y-53323806D02*
G01*
X150535355Y-53334645D01*
X150546194Y-53350866D01*
X150550000Y-53370000D01*
X150550000Y-53940000D01*
X150546194Y-53959134D01*
X150535355Y-53975355D01*
X150519134Y-53986194D01*
X150500000Y-53990000D01*
X150300000Y-53990000D01*
X150280866Y-53986194D01*
X150264645Y-53975355D01*
X150253806Y-53959134D01*
X150250000Y-53940000D01*
X150250000Y-53370000D01*
X150253806Y-53350866D01*
X150264645Y-53334645D01*
X150280866Y-53323806D01*
X150300000Y-53320000D01*
X150500000Y-53320000D01*
X150519134Y-53323806D01*
G37*
G36*
X151019134Y-53323806D02*
G01*
X151035355Y-53334645D01*
X151046194Y-53350866D01*
X151050000Y-53370000D01*
X151050000Y-53940000D01*
X151046194Y-53959134D01*
X151035355Y-53975355D01*
X151019134Y-53986194D01*
X151000000Y-53990000D01*
X150800000Y-53990000D01*
X150780866Y-53986194D01*
X150764645Y-53975355D01*
X150753806Y-53959134D01*
X150750000Y-53940000D01*
X150750000Y-53370000D01*
X150753806Y-53350866D01*
X150764645Y-53334645D01*
X150780866Y-53323806D01*
X150800000Y-53320000D01*
X151000000Y-53320000D01*
X151019134Y-53323806D01*
G37*
G36*
X153821615Y-52150818D02*
G01*
X153870017Y-52156434D01*
X153886555Y-52163736D01*
X153908387Y-52168079D01*
X153931759Y-52183695D01*
X153951224Y-52192290D01*
X153964517Y-52205583D01*
X153985438Y-52219562D01*
X153999416Y-52240482D01*
X154012709Y-52253775D01*
X154021302Y-52273238D01*
X154036921Y-52296613D01*
X154041264Y-52318446D01*
X154048565Y-52334982D01*
X154054178Y-52383372D01*
X154055000Y-52387500D01*
X154055000Y-52987500D01*
X154054178Y-52991627D01*
X154048565Y-53040017D01*
X154041264Y-53056551D01*
X154036921Y-53078387D01*
X154021301Y-53101763D01*
X154012709Y-53121224D01*
X153999418Y-53134514D01*
X153985438Y-53155438D01*
X153964514Y-53169418D01*
X153951224Y-53182709D01*
X153931763Y-53191301D01*
X153908387Y-53206921D01*
X153886551Y-53211264D01*
X153870017Y-53218565D01*
X153821629Y-53224178D01*
X153817500Y-53225000D01*
X153342500Y-53225000D01*
X153338373Y-53224179D01*
X153289982Y-53218565D01*
X153273446Y-53211264D01*
X153251613Y-53206921D01*
X153228238Y-53191302D01*
X153208775Y-53182709D01*
X153195482Y-53169416D01*
X153174562Y-53155438D01*
X153160583Y-53134517D01*
X153147290Y-53121224D01*
X153138695Y-53101759D01*
X153123079Y-53078387D01*
X153118736Y-53056555D01*
X153111434Y-53040017D01*
X153105818Y-52991616D01*
X153105000Y-52987500D01*
X153105000Y-52387500D01*
X153105818Y-52383385D01*
X153111434Y-52334982D01*
X153118736Y-52318442D01*
X153123079Y-52296613D01*
X153138694Y-52273242D01*
X153147290Y-52253775D01*
X153160585Y-52240479D01*
X153174562Y-52219562D01*
X153195479Y-52205585D01*
X153208775Y-52192290D01*
X153228242Y-52183694D01*
X153251613Y-52168079D01*
X153273442Y-52163736D01*
X153289982Y-52156434D01*
X153338384Y-52150818D01*
X153342500Y-52150000D01*
X153817500Y-52150000D01*
X153821615Y-52150818D01*
G37*
G36*
X167341408Y-49708626D02*
G01*
X167562519Y-49767872D01*
X167774005Y-49855473D01*
X167972248Y-49969928D01*
X168153855Y-50109280D01*
X168315720Y-50271145D01*
X168455072Y-50452752D01*
X168569527Y-50650995D01*
X168657128Y-50862481D01*
X168716374Y-51083592D01*
X168746253Y-51310545D01*
X168746253Y-51539455D01*
X168716374Y-51766408D01*
X168657128Y-51987519D01*
X168569527Y-52199005D01*
X168455072Y-52397248D01*
X168315720Y-52578855D01*
X168153855Y-52740720D01*
X167972248Y-52880072D01*
X167774005Y-52994527D01*
X167562519Y-53082128D01*
X167341408Y-53141374D01*
X167114455Y-53171253D01*
X166885545Y-53171253D01*
X166658592Y-53141374D01*
X166437481Y-53082128D01*
X166225995Y-52994527D01*
X166027752Y-52880072D01*
X165846145Y-52740720D01*
X165684280Y-52578855D01*
X165544928Y-52397248D01*
X165430473Y-52199005D01*
X165342872Y-51987519D01*
X165283626Y-51766408D01*
X165253747Y-51539455D01*
X165253747Y-51310545D01*
X165283626Y-51083592D01*
X165342872Y-50862481D01*
X165430473Y-50650995D01*
X165544928Y-50452752D01*
X165684280Y-50271145D01*
X165846145Y-50109280D01*
X166027752Y-49969928D01*
X166225995Y-49855473D01*
X166437481Y-49767872D01*
X166658592Y-49708626D01*
X166885545Y-49678747D01*
X167114455Y-49678747D01*
X167341408Y-49708626D01*
G37*
G36*
X146341615Y-51925818D02*
G01*
X146390017Y-51931434D01*
X146406555Y-51938736D01*
X146428387Y-51943079D01*
X146451759Y-51958695D01*
X146471224Y-51967290D01*
X146484517Y-51980583D01*
X146505438Y-51994562D01*
X146519416Y-52015482D01*
X146532709Y-52028775D01*
X146541302Y-52048238D01*
X146556921Y-52071613D01*
X146561264Y-52093446D01*
X146568565Y-52109982D01*
X146574178Y-52158372D01*
X146575000Y-52162500D01*
X146575000Y-52662500D01*
X146574178Y-52666627D01*
X146568565Y-52715017D01*
X146561264Y-52731551D01*
X146556921Y-52753387D01*
X146541301Y-52776763D01*
X146532709Y-52796224D01*
X146519418Y-52809514D01*
X146505438Y-52830438D01*
X146484514Y-52844418D01*
X146471224Y-52857709D01*
X146451763Y-52866301D01*
X146428387Y-52881921D01*
X146406551Y-52886264D01*
X146390017Y-52893565D01*
X146341629Y-52899178D01*
X146337500Y-52900000D01*
X145862500Y-52900000D01*
X145858373Y-52899179D01*
X145809982Y-52893565D01*
X145793446Y-52886264D01*
X145771613Y-52881921D01*
X145748238Y-52866302D01*
X145728775Y-52857709D01*
X145715482Y-52844416D01*
X145694562Y-52830438D01*
X145680583Y-52809517D01*
X145667290Y-52796224D01*
X145658695Y-52776759D01*
X145643079Y-52753387D01*
X145638736Y-52731555D01*
X145631434Y-52715017D01*
X145625818Y-52666616D01*
X145625000Y-52662500D01*
X145625000Y-52162500D01*
X145625818Y-52158385D01*
X145631434Y-52109982D01*
X145638736Y-52093442D01*
X145643079Y-52071613D01*
X145658694Y-52048242D01*
X145667290Y-52028775D01*
X145680585Y-52015479D01*
X145694562Y-51994562D01*
X145715479Y-51980585D01*
X145728775Y-51967290D01*
X145748242Y-51958694D01*
X145771613Y-51943079D01*
X145793442Y-51938736D01*
X145809982Y-51931434D01*
X145858384Y-51925818D01*
X145862500Y-51925000D01*
X146337500Y-51925000D01*
X146341615Y-51925818D01*
G37*
G36*
X156979116Y-51425818D02*
G01*
X157030379Y-51431766D01*
X157047892Y-51439499D01*
X157070671Y-51444030D01*
X157095057Y-51460324D01*
X157115788Y-51469478D01*
X157129946Y-51483636D01*
X157151777Y-51498223D01*
X157166363Y-51520053D01*
X157180521Y-51534211D01*
X157189673Y-51554939D01*
X157205970Y-51579329D01*
X157210501Y-51602109D01*
X157218233Y-51619620D01*
X157224178Y-51670872D01*
X157225000Y-51675000D01*
X157225000Y-52375000D01*
X157224178Y-52379128D01*
X157218233Y-52430379D01*
X157210501Y-52447888D01*
X157205970Y-52470671D01*
X157189672Y-52495062D01*
X157180521Y-52515788D01*
X157166365Y-52529943D01*
X157151777Y-52551777D01*
X157129943Y-52566365D01*
X157115788Y-52580521D01*
X157095062Y-52589672D01*
X157070671Y-52605970D01*
X157047888Y-52610501D01*
X157030379Y-52618233D01*
X156979129Y-52624178D01*
X156975000Y-52625000D01*
X156425000Y-52625000D01*
X156420873Y-52624179D01*
X156369620Y-52618233D01*
X156352109Y-52610501D01*
X156329329Y-52605970D01*
X156304939Y-52589673D01*
X156284211Y-52580521D01*
X156270053Y-52566363D01*
X156248223Y-52551777D01*
X156233636Y-52529946D01*
X156219478Y-52515788D01*
X156210324Y-52495057D01*
X156194030Y-52470671D01*
X156189499Y-52447892D01*
X156181766Y-52430379D01*
X156175818Y-52379117D01*
X156175000Y-52375000D01*
X156175000Y-51675000D01*
X156175818Y-51670885D01*
X156181766Y-51619620D01*
X156189499Y-51602105D01*
X156194030Y-51579329D01*
X156210323Y-51554944D01*
X156219478Y-51534211D01*
X156233638Y-51520050D01*
X156248223Y-51498223D01*
X156270050Y-51483638D01*
X156284211Y-51469478D01*
X156304944Y-51460323D01*
X156329329Y-51444030D01*
X156352105Y-51439499D01*
X156369620Y-51431766D01*
X156420884Y-51425818D01*
X156425000Y-51425000D01*
X156975000Y-51425000D01*
X156979116Y-51425818D01*
G37*
G36*
X159279116Y-51425818D02*
G01*
X159330379Y-51431766D01*
X159347892Y-51439499D01*
X159370671Y-51444030D01*
X159395057Y-51460324D01*
X159415788Y-51469478D01*
X159429946Y-51483636D01*
X159451777Y-51498223D01*
X159466363Y-51520053D01*
X159480521Y-51534211D01*
X159489673Y-51554939D01*
X159505970Y-51579329D01*
X159510501Y-51602109D01*
X159518233Y-51619620D01*
X159524178Y-51670872D01*
X159525000Y-51675000D01*
X159525000Y-52375000D01*
X159524178Y-52379128D01*
X159518233Y-52430379D01*
X159510501Y-52447888D01*
X159505970Y-52470671D01*
X159489672Y-52495062D01*
X159480521Y-52515788D01*
X159466365Y-52529943D01*
X159451777Y-52551777D01*
X159429943Y-52566365D01*
X159415788Y-52580521D01*
X159395062Y-52589672D01*
X159370671Y-52605970D01*
X159347888Y-52610501D01*
X159330379Y-52618233D01*
X159279129Y-52624178D01*
X159275000Y-52625000D01*
X158725000Y-52625000D01*
X158720873Y-52624179D01*
X158669620Y-52618233D01*
X158652109Y-52610501D01*
X158629329Y-52605970D01*
X158604939Y-52589673D01*
X158584211Y-52580521D01*
X158570053Y-52566363D01*
X158548223Y-52551777D01*
X158533636Y-52529946D01*
X158519478Y-52515788D01*
X158510324Y-52495057D01*
X158494030Y-52470671D01*
X158489499Y-52447892D01*
X158481766Y-52430379D01*
X158475818Y-52379117D01*
X158475000Y-52375000D01*
X158475000Y-51675000D01*
X158475818Y-51670885D01*
X158481766Y-51619620D01*
X158489499Y-51602105D01*
X158494030Y-51579329D01*
X158510323Y-51554944D01*
X158519478Y-51534211D01*
X158533638Y-51520050D01*
X158548223Y-51498223D01*
X158570050Y-51483638D01*
X158584211Y-51469478D01*
X158604944Y-51460323D01*
X158629329Y-51444030D01*
X158652105Y-51439499D01*
X158669620Y-51431766D01*
X158720884Y-51425818D01*
X158725000Y-51425000D01*
X159275000Y-51425000D01*
X159279116Y-51425818D01*
G37*
G36*
X149519134Y-51843806D02*
G01*
X149535355Y-51854645D01*
X149546194Y-51870866D01*
X149550000Y-51890000D01*
X149550000Y-52460000D01*
X149546194Y-52479134D01*
X149535355Y-52495355D01*
X149519134Y-52506194D01*
X149500000Y-52510000D01*
X149300000Y-52510000D01*
X149280866Y-52506194D01*
X149264645Y-52495355D01*
X149253806Y-52479134D01*
X149250000Y-52460000D01*
X149250000Y-51890000D01*
X149253806Y-51870866D01*
X149264645Y-51854645D01*
X149280866Y-51843806D01*
X149300000Y-51840000D01*
X149500000Y-51840000D01*
X149519134Y-51843806D01*
G37*
G36*
X150019134Y-51843806D02*
G01*
X150035355Y-51854645D01*
X150046194Y-51870866D01*
X150050000Y-51890000D01*
X150050000Y-52460000D01*
X150046194Y-52479134D01*
X150035355Y-52495355D01*
X150019134Y-52506194D01*
X150000000Y-52510000D01*
X149800000Y-52510000D01*
X149780866Y-52506194D01*
X149764645Y-52495355D01*
X149753806Y-52479134D01*
X149750000Y-52460000D01*
X149750000Y-51890000D01*
X149753806Y-51870866D01*
X149764645Y-51854645D01*
X149780866Y-51843806D01*
X149800000Y-51840000D01*
X150000000Y-51840000D01*
X150019134Y-51843806D01*
G37*
G36*
X150519134Y-51843806D02*
G01*
X150535355Y-51854645D01*
X150546194Y-51870866D01*
X150550000Y-51890000D01*
X150550000Y-52460000D01*
X150546194Y-52479134D01*
X150535355Y-52495355D01*
X150519134Y-52506194D01*
X150500000Y-52510000D01*
X150300000Y-52510000D01*
X150280866Y-52506194D01*
X150264645Y-52495355D01*
X150253806Y-52479134D01*
X150250000Y-52460000D01*
X150250000Y-51890000D01*
X150253806Y-51870866D01*
X150264645Y-51854645D01*
X150280866Y-51843806D01*
X150300000Y-51840000D01*
X150500000Y-51840000D01*
X150519134Y-51843806D01*
G37*
G36*
X151019134Y-51843806D02*
G01*
X151035355Y-51854645D01*
X151046194Y-51870866D01*
X151050000Y-51890000D01*
X151050000Y-52460000D01*
X151046194Y-52479134D01*
X151035355Y-52495355D01*
X151019134Y-52506194D01*
X151000000Y-52510000D01*
X150800000Y-52510000D01*
X150780866Y-52506194D01*
X150764645Y-52495355D01*
X150753806Y-52479134D01*
X150750000Y-52460000D01*
X150750000Y-51890000D01*
X150753806Y-51870866D01*
X150764645Y-51854645D01*
X150780866Y-51843806D01*
X150800000Y-51840000D01*
X151000000Y-51840000D01*
X151019134Y-51843806D01*
G37*
G36*
X153821615Y-50425818D02*
G01*
X153870017Y-50431434D01*
X153886555Y-50438736D01*
X153908387Y-50443079D01*
X153931759Y-50458695D01*
X153951224Y-50467290D01*
X153964517Y-50480583D01*
X153985438Y-50494562D01*
X153999416Y-50515482D01*
X154012709Y-50528775D01*
X154021302Y-50548238D01*
X154036921Y-50571613D01*
X154041264Y-50593446D01*
X154048565Y-50609982D01*
X154054178Y-50658372D01*
X154055000Y-50662500D01*
X154055000Y-51262500D01*
X154054178Y-51266627D01*
X154048565Y-51315017D01*
X154041264Y-51331551D01*
X154036921Y-51353387D01*
X154021301Y-51376763D01*
X154012709Y-51396224D01*
X153999418Y-51409514D01*
X153985438Y-51430438D01*
X153964514Y-51444418D01*
X153951224Y-51457709D01*
X153931763Y-51466301D01*
X153908387Y-51481921D01*
X153886551Y-51486264D01*
X153870017Y-51493565D01*
X153821629Y-51499178D01*
X153817500Y-51500000D01*
X153342500Y-51500000D01*
X153338373Y-51499179D01*
X153289982Y-51493565D01*
X153273446Y-51486264D01*
X153251613Y-51481921D01*
X153228238Y-51466302D01*
X153208775Y-51457709D01*
X153195482Y-51444416D01*
X153174562Y-51430438D01*
X153160583Y-51409517D01*
X153147290Y-51396224D01*
X153138695Y-51376759D01*
X153123079Y-51353387D01*
X153118736Y-51331555D01*
X153111434Y-51315017D01*
X153105818Y-51266616D01*
X153105000Y-51262500D01*
X153105000Y-50662500D01*
X153105818Y-50658385D01*
X153111434Y-50609982D01*
X153118736Y-50593442D01*
X153123079Y-50571613D01*
X153138694Y-50548242D01*
X153147290Y-50528775D01*
X153160585Y-50515479D01*
X153174562Y-50494562D01*
X153195479Y-50480585D01*
X153208775Y-50467290D01*
X153228242Y-50458694D01*
X153251613Y-50443079D01*
X153273442Y-50438736D01*
X153289982Y-50431434D01*
X153338384Y-50425818D01*
X153342500Y-50425000D01*
X153817500Y-50425000D01*
X153821615Y-50425818D01*
G37*
G36*
X145741615Y-50350818D02*
G01*
X145790017Y-50356434D01*
X145806555Y-50363736D01*
X145828387Y-50368079D01*
X145851759Y-50383695D01*
X145871224Y-50392290D01*
X145884517Y-50405583D01*
X145905438Y-50419562D01*
X145919416Y-50440482D01*
X145932709Y-50453775D01*
X145941302Y-50473238D01*
X145956921Y-50496613D01*
X145961264Y-50518446D01*
X145968565Y-50534982D01*
X145974178Y-50583372D01*
X145975000Y-50587500D01*
X145975000Y-51062500D01*
X145974178Y-51066627D01*
X145968565Y-51115017D01*
X145961264Y-51131551D01*
X145956921Y-51153387D01*
X145941301Y-51176763D01*
X145932709Y-51196224D01*
X145919418Y-51209514D01*
X145905438Y-51230438D01*
X145884514Y-51244418D01*
X145871224Y-51257709D01*
X145851763Y-51266301D01*
X145828387Y-51281921D01*
X145806551Y-51286264D01*
X145790017Y-51293565D01*
X145741629Y-51299178D01*
X145737500Y-51300000D01*
X145237500Y-51300000D01*
X145233373Y-51299179D01*
X145184982Y-51293565D01*
X145168446Y-51286264D01*
X145146613Y-51281921D01*
X145123238Y-51266302D01*
X145103775Y-51257709D01*
X145090482Y-51244416D01*
X145069562Y-51230438D01*
X145055583Y-51209517D01*
X145042290Y-51196224D01*
X145033695Y-51176759D01*
X145018079Y-51153387D01*
X145013736Y-51131555D01*
X145006434Y-51115017D01*
X145000818Y-51066616D01*
X145000000Y-51062500D01*
X145000000Y-50587500D01*
X145000818Y-50583385D01*
X145006434Y-50534982D01*
X145013736Y-50518442D01*
X145018079Y-50496613D01*
X145033694Y-50473242D01*
X145042290Y-50453775D01*
X145055585Y-50440479D01*
X145069562Y-50419562D01*
X145090479Y-50405585D01*
X145103775Y-50392290D01*
X145123242Y-50383694D01*
X145146613Y-50368079D01*
X145168442Y-50363736D01*
X145184982Y-50356434D01*
X145233384Y-50350818D01*
X145237500Y-50350000D01*
X145737500Y-50350000D01*
X145741615Y-50350818D01*
G37*
G36*
X147566615Y-50350818D02*
G01*
X147615017Y-50356434D01*
X147631555Y-50363736D01*
X147653387Y-50368079D01*
X147676759Y-50383695D01*
X147696224Y-50392290D01*
X147709517Y-50405583D01*
X147730438Y-50419562D01*
X147744416Y-50440482D01*
X147757709Y-50453775D01*
X147766302Y-50473238D01*
X147781921Y-50496613D01*
X147786264Y-50518446D01*
X147793565Y-50534982D01*
X147799178Y-50583372D01*
X147800000Y-50587500D01*
X147800000Y-51062500D01*
X147799178Y-51066627D01*
X147793565Y-51115017D01*
X147786264Y-51131551D01*
X147781921Y-51153387D01*
X147766301Y-51176763D01*
X147757709Y-51196224D01*
X147744418Y-51209514D01*
X147730438Y-51230438D01*
X147709514Y-51244418D01*
X147696224Y-51257709D01*
X147676763Y-51266301D01*
X147653387Y-51281921D01*
X147631551Y-51286264D01*
X147615017Y-51293565D01*
X147566629Y-51299178D01*
X147562500Y-51300000D01*
X147062500Y-51300000D01*
X147058373Y-51299179D01*
X147009982Y-51293565D01*
X146993446Y-51286264D01*
X146971613Y-51281921D01*
X146948238Y-51266302D01*
X146928775Y-51257709D01*
X146915482Y-51244416D01*
X146894562Y-51230438D01*
X146880583Y-51209517D01*
X146867290Y-51196224D01*
X146858695Y-51176759D01*
X146843079Y-51153387D01*
X146838736Y-51131555D01*
X146831434Y-51115017D01*
X146825818Y-51066616D01*
X146825000Y-51062500D01*
X146825000Y-50587500D01*
X146825818Y-50583385D01*
X146831434Y-50534982D01*
X146838736Y-50518442D01*
X146843079Y-50496613D01*
X146858694Y-50473242D01*
X146867290Y-50453775D01*
X146880585Y-50440479D01*
X146894562Y-50419562D01*
X146915479Y-50405585D01*
X146928775Y-50392290D01*
X146948242Y-50383694D01*
X146971613Y-50368079D01*
X146993442Y-50363736D01*
X147009982Y-50356434D01*
X147058384Y-50350818D01*
X147062500Y-50350000D01*
X147562500Y-50350000D01*
X147566615Y-50350818D01*
G37*
G36*
X148854116Y-48025818D02*
G01*
X148905379Y-48031766D01*
X148922892Y-48039499D01*
X148945671Y-48044030D01*
X148970057Y-48060324D01*
X148990788Y-48069478D01*
X149004946Y-48083636D01*
X149026777Y-48098223D01*
X149041363Y-48120053D01*
X149055521Y-48134211D01*
X149064673Y-48154939D01*
X149080970Y-48179329D01*
X149085501Y-48202109D01*
X149093233Y-48219620D01*
X149099178Y-48270872D01*
X149100000Y-48275000D01*
X149100000Y-48975000D01*
X149099178Y-48979128D01*
X149093233Y-49030379D01*
X149085501Y-49047888D01*
X149080970Y-49070671D01*
X149064672Y-49095062D01*
X149055521Y-49115788D01*
X149041365Y-49129943D01*
X149026777Y-49151777D01*
X149004943Y-49166365D01*
X148990788Y-49180521D01*
X148970062Y-49189672D01*
X148945671Y-49205970D01*
X148922888Y-49210501D01*
X148905379Y-49218233D01*
X148854129Y-49224178D01*
X148850000Y-49225000D01*
X147950000Y-49225000D01*
X147945873Y-49224179D01*
X147894620Y-49218233D01*
X147877109Y-49210501D01*
X147854329Y-49205970D01*
X147829939Y-49189673D01*
X147809211Y-49180521D01*
X147795053Y-49166363D01*
X147773223Y-49151777D01*
X147758636Y-49129946D01*
X147744478Y-49115788D01*
X147735324Y-49095057D01*
X147719030Y-49070671D01*
X147714499Y-49047892D01*
X147706766Y-49030379D01*
X147700818Y-48979117D01*
X147700000Y-48975000D01*
X147700000Y-48275000D01*
X147700818Y-48270885D01*
X147706766Y-48219620D01*
X147714499Y-48202105D01*
X147719030Y-48179329D01*
X147735323Y-48154944D01*
X147744478Y-48134211D01*
X147758638Y-48120050D01*
X147773223Y-48098223D01*
X147795050Y-48083638D01*
X147809211Y-48069478D01*
X147829944Y-48060323D01*
X147854329Y-48044030D01*
X147877105Y-48039499D01*
X147894620Y-48031766D01*
X147945884Y-48025818D01*
X147950000Y-48025000D01*
X148850000Y-48025000D01*
X148854116Y-48025818D01*
G37*
G36*
X145041615Y-48050818D02*
G01*
X145090017Y-48056434D01*
X145106555Y-48063736D01*
X145128387Y-48068079D01*
X145151759Y-48083695D01*
X145171224Y-48092290D01*
X145184517Y-48105583D01*
X145205438Y-48119562D01*
X145219416Y-48140482D01*
X145232709Y-48153775D01*
X145241302Y-48173238D01*
X145256921Y-48196613D01*
X145261264Y-48218446D01*
X145268565Y-48234982D01*
X145274178Y-48283372D01*
X145275000Y-48287500D01*
X145275000Y-48787500D01*
X145274178Y-48791627D01*
X145268565Y-48840017D01*
X145261264Y-48856551D01*
X145256921Y-48878387D01*
X145241301Y-48901763D01*
X145232709Y-48921224D01*
X145219418Y-48934514D01*
X145205438Y-48955438D01*
X145184514Y-48969418D01*
X145171224Y-48982709D01*
X145151763Y-48991301D01*
X145128387Y-49006921D01*
X145106551Y-49011264D01*
X145090017Y-49018565D01*
X145041629Y-49024178D01*
X145037500Y-49025000D01*
X144562500Y-49025000D01*
X144558373Y-49024179D01*
X144509982Y-49018565D01*
X144493446Y-49011264D01*
X144471613Y-49006921D01*
X144448238Y-48991302D01*
X144428775Y-48982709D01*
X144415482Y-48969416D01*
X144394562Y-48955438D01*
X144380583Y-48934517D01*
X144367290Y-48921224D01*
X144358695Y-48901759D01*
X144343079Y-48878387D01*
X144338736Y-48856555D01*
X144331434Y-48840017D01*
X144325818Y-48791616D01*
X144325000Y-48787500D01*
X144325000Y-48287500D01*
X144325818Y-48283385D01*
X144331434Y-48234982D01*
X144338736Y-48218442D01*
X144343079Y-48196613D01*
X144358694Y-48173242D01*
X144367290Y-48153775D01*
X144380585Y-48140479D01*
X144394562Y-48119562D01*
X144415479Y-48105585D01*
X144428775Y-48092290D01*
X144448242Y-48083694D01*
X144471613Y-48068079D01*
X144493442Y-48063736D01*
X144509982Y-48056434D01*
X144558384Y-48050818D01*
X144562500Y-48050000D01*
X145037500Y-48050000D01*
X145041615Y-48050818D01*
G37*
G36*
X146641615Y-47950818D02*
G01*
X146690017Y-47956434D01*
X146706555Y-47963736D01*
X146728387Y-47968079D01*
X146751759Y-47983695D01*
X146771224Y-47992290D01*
X146784517Y-48005583D01*
X146805438Y-48019562D01*
X146819416Y-48040482D01*
X146832709Y-48053775D01*
X146841302Y-48073238D01*
X146856921Y-48096613D01*
X146861264Y-48118446D01*
X146868565Y-48134982D01*
X146874178Y-48183372D01*
X146875000Y-48187500D01*
X146875000Y-48787500D01*
X146874178Y-48791627D01*
X146868565Y-48840017D01*
X146861264Y-48856551D01*
X146856921Y-48878387D01*
X146841301Y-48901763D01*
X146832709Y-48921224D01*
X146819418Y-48934514D01*
X146805438Y-48955438D01*
X146784514Y-48969418D01*
X146771224Y-48982709D01*
X146751763Y-48991301D01*
X146728387Y-49006921D01*
X146706551Y-49011264D01*
X146690017Y-49018565D01*
X146641629Y-49024178D01*
X146637500Y-49025000D01*
X146162500Y-49025000D01*
X146158373Y-49024179D01*
X146109982Y-49018565D01*
X146093446Y-49011264D01*
X146071613Y-49006921D01*
X146048238Y-48991302D01*
X146028775Y-48982709D01*
X146015482Y-48969416D01*
X145994562Y-48955438D01*
X145980583Y-48934517D01*
X145967290Y-48921224D01*
X145958695Y-48901759D01*
X145943079Y-48878387D01*
X145938736Y-48856555D01*
X145931434Y-48840017D01*
X145925818Y-48791616D01*
X145925000Y-48787500D01*
X145925000Y-48187500D01*
X145925818Y-48183385D01*
X145931434Y-48134982D01*
X145938736Y-48118442D01*
X145943079Y-48096613D01*
X145958694Y-48073242D01*
X145967290Y-48053775D01*
X145980585Y-48040479D01*
X145994562Y-48019562D01*
X146015479Y-48005585D01*
X146028775Y-47992290D01*
X146048242Y-47983694D01*
X146071613Y-47968079D01*
X146093442Y-47963736D01*
X146109982Y-47956434D01*
X146158384Y-47950818D01*
X146162500Y-47950000D01*
X146637500Y-47950000D01*
X146641615Y-47950818D01*
G37*
G36*
X150321615Y-47950818D02*
G01*
X150370017Y-47956434D01*
X150386555Y-47963736D01*
X150408387Y-47968079D01*
X150431759Y-47983695D01*
X150451224Y-47992290D01*
X150464517Y-48005583D01*
X150485438Y-48019562D01*
X150499416Y-48040482D01*
X150512709Y-48053775D01*
X150521302Y-48073238D01*
X150536921Y-48096613D01*
X150541264Y-48118446D01*
X150548565Y-48134982D01*
X150554178Y-48183372D01*
X150555000Y-48187500D01*
X150555000Y-48787500D01*
X150554178Y-48791627D01*
X150548565Y-48840017D01*
X150541264Y-48856551D01*
X150536921Y-48878387D01*
X150521301Y-48901763D01*
X150512709Y-48921224D01*
X150499418Y-48934514D01*
X150485438Y-48955438D01*
X150464514Y-48969418D01*
X150451224Y-48982709D01*
X150431763Y-48991301D01*
X150408387Y-49006921D01*
X150386551Y-49011264D01*
X150370017Y-49018565D01*
X150321629Y-49024178D01*
X150317500Y-49025000D01*
X149842500Y-49025000D01*
X149838373Y-49024179D01*
X149789982Y-49018565D01*
X149773446Y-49011264D01*
X149751613Y-49006921D01*
X149728238Y-48991302D01*
X149708775Y-48982709D01*
X149695482Y-48969416D01*
X149674562Y-48955438D01*
X149660583Y-48934517D01*
X149647290Y-48921224D01*
X149638695Y-48901759D01*
X149623079Y-48878387D01*
X149618736Y-48856555D01*
X149611434Y-48840017D01*
X149605818Y-48791616D01*
X149605000Y-48787500D01*
X149605000Y-48187500D01*
X149605818Y-48183385D01*
X149611434Y-48134982D01*
X149618736Y-48118442D01*
X149623079Y-48096613D01*
X149638694Y-48073242D01*
X149647290Y-48053775D01*
X149660585Y-48040479D01*
X149674562Y-48019562D01*
X149695479Y-48005585D01*
X149708775Y-47992290D01*
X149728242Y-47983694D01*
X149751613Y-47968079D01*
X149773442Y-47963736D01*
X149789982Y-47956434D01*
X149838384Y-47950818D01*
X149842500Y-47950000D01*
X150317500Y-47950000D01*
X150321615Y-47950818D01*
G37*
G36*
X125313557Y-41812882D02*
G01*
X125650431Y-41879891D01*
X125979114Y-41979596D01*
X126296443Y-42111037D01*
X126599360Y-42272950D01*
X126884948Y-42463774D01*
X127150456Y-42681671D01*
X127393329Y-42924544D01*
X127611226Y-43190052D01*
X127802050Y-43475640D01*
X127963963Y-43778557D01*
X128095404Y-44095886D01*
X128195109Y-44424569D01*
X128262118Y-44761443D01*
X128295784Y-45103263D01*
X128295784Y-45446737D01*
X128262118Y-45788557D01*
X128195109Y-46125431D01*
X128095404Y-46454114D01*
X127963963Y-46771443D01*
X127802050Y-47074360D01*
X127611226Y-47359948D01*
X127393329Y-47625456D01*
X127150456Y-47868329D01*
X126884948Y-48086226D01*
X126599360Y-48277050D01*
X126296443Y-48438963D01*
X125979114Y-48570404D01*
X125650431Y-48670109D01*
X125313557Y-48737118D01*
X124971737Y-48770784D01*
X124628263Y-48770784D01*
X124286443Y-48737118D01*
X123949569Y-48670109D01*
X123620886Y-48570404D01*
X123303557Y-48438963D01*
X123000640Y-48277050D01*
X122715052Y-48086226D01*
X122449544Y-47868329D01*
X122206671Y-47625456D01*
X121988774Y-47359948D01*
X121797950Y-47074360D01*
X121636037Y-46771443D01*
X121504596Y-46454114D01*
X121404891Y-46125431D01*
X121337882Y-45788557D01*
X121304216Y-45446737D01*
X121304216Y-45103263D01*
X121337882Y-44761443D01*
X121404891Y-44424569D01*
X121504596Y-44095886D01*
X121636037Y-43778557D01*
X121797950Y-43475640D01*
X121988774Y-43190052D01*
X122206671Y-42924544D01*
X122449544Y-42681671D01*
X122715052Y-42463774D01*
X123000640Y-42272950D01*
X123303557Y-42111037D01*
X123620886Y-41979596D01*
X123949569Y-41879891D01*
X124286443Y-41812882D01*
X124628263Y-41779216D01*
X124971737Y-41779216D01*
X125313557Y-41812882D01*
G37*
G36*
X146641615Y-46225818D02*
G01*
X146690017Y-46231434D01*
X146706555Y-46238736D01*
X146728387Y-46243079D01*
X146751759Y-46258695D01*
X146771224Y-46267290D01*
X146784517Y-46280583D01*
X146805438Y-46294562D01*
X146819416Y-46315482D01*
X146832709Y-46328775D01*
X146841302Y-46348238D01*
X146856921Y-46371613D01*
X146861264Y-46393446D01*
X146868565Y-46409982D01*
X146874178Y-46458372D01*
X146875000Y-46462500D01*
X146875000Y-47062500D01*
X146874178Y-47066627D01*
X146868565Y-47115017D01*
X146861264Y-47131551D01*
X146856921Y-47153387D01*
X146841301Y-47176763D01*
X146832709Y-47196224D01*
X146819418Y-47209514D01*
X146805438Y-47230438D01*
X146784514Y-47244418D01*
X146771224Y-47257709D01*
X146751763Y-47266301D01*
X146728387Y-47281921D01*
X146706551Y-47286264D01*
X146690017Y-47293565D01*
X146641629Y-47299178D01*
X146637500Y-47300000D01*
X146162500Y-47300000D01*
X146158373Y-47299179D01*
X146109982Y-47293565D01*
X146093446Y-47286264D01*
X146071613Y-47281921D01*
X146048238Y-47266302D01*
X146028775Y-47257709D01*
X146015482Y-47244416D01*
X145994562Y-47230438D01*
X145980583Y-47209517D01*
X145967290Y-47196224D01*
X145958695Y-47176759D01*
X145943079Y-47153387D01*
X145938736Y-47131555D01*
X145931434Y-47115017D01*
X145925818Y-47066616D01*
X145925000Y-47062500D01*
X145925000Y-46462500D01*
X145925818Y-46458385D01*
X145931434Y-46409982D01*
X145938736Y-46393442D01*
X145943079Y-46371613D01*
X145958694Y-46348242D01*
X145967290Y-46328775D01*
X145980585Y-46315479D01*
X145994562Y-46294562D01*
X146015479Y-46280585D01*
X146028775Y-46267290D01*
X146048242Y-46258694D01*
X146071613Y-46243079D01*
X146093442Y-46238736D01*
X146109982Y-46231434D01*
X146158384Y-46225818D01*
X146162500Y-46225000D01*
X146637500Y-46225000D01*
X146641615Y-46225818D01*
G37*
G36*
X150321615Y-46225818D02*
G01*
X150370017Y-46231434D01*
X150386555Y-46238736D01*
X150408387Y-46243079D01*
X150431759Y-46258695D01*
X150451224Y-46267290D01*
X150464517Y-46280583D01*
X150485438Y-46294562D01*
X150499416Y-46315482D01*
X150512709Y-46328775D01*
X150521302Y-46348238D01*
X150536921Y-46371613D01*
X150541264Y-46393446D01*
X150548565Y-46409982D01*
X150554178Y-46458372D01*
X150555000Y-46462500D01*
X150555000Y-47062500D01*
X150554178Y-47066627D01*
X150548565Y-47115017D01*
X150541264Y-47131551D01*
X150536921Y-47153387D01*
X150521301Y-47176763D01*
X150512709Y-47196224D01*
X150499418Y-47209514D01*
X150485438Y-47230438D01*
X150464514Y-47244418D01*
X150451224Y-47257709D01*
X150431763Y-47266301D01*
X150408387Y-47281921D01*
X150386551Y-47286264D01*
X150370017Y-47293565D01*
X150321629Y-47299178D01*
X150317500Y-47300000D01*
X149842500Y-47300000D01*
X149838373Y-47299179D01*
X149789982Y-47293565D01*
X149773446Y-47286264D01*
X149751613Y-47281921D01*
X149728238Y-47266302D01*
X149708775Y-47257709D01*
X149695482Y-47244416D01*
X149674562Y-47230438D01*
X149660583Y-47209517D01*
X149647290Y-47196224D01*
X149638695Y-47176759D01*
X149623079Y-47153387D01*
X149618736Y-47131555D01*
X149611434Y-47115017D01*
X149605818Y-47066616D01*
X149605000Y-47062500D01*
X149605000Y-46462500D01*
X149605818Y-46458385D01*
X149611434Y-46409982D01*
X149618736Y-46393442D01*
X149623079Y-46371613D01*
X149638694Y-46348242D01*
X149647290Y-46328775D01*
X149660585Y-46315479D01*
X149674562Y-46294562D01*
X149695479Y-46280585D01*
X149708775Y-46267290D01*
X149728242Y-46258694D01*
X149751613Y-46243079D01*
X149773442Y-46238736D01*
X149789982Y-46231434D01*
X149838384Y-46225818D01*
X149842500Y-46225000D01*
X150317500Y-46225000D01*
X150321615Y-46225818D01*
G37*
G36*
X148854116Y-46025818D02*
G01*
X148905379Y-46031766D01*
X148922892Y-46039499D01*
X148945671Y-46044030D01*
X148970057Y-46060324D01*
X148990788Y-46069478D01*
X149004946Y-46083636D01*
X149026777Y-46098223D01*
X149041363Y-46120053D01*
X149055521Y-46134211D01*
X149064673Y-46154939D01*
X149080970Y-46179329D01*
X149085501Y-46202109D01*
X149093233Y-46219620D01*
X149099178Y-46270872D01*
X149100000Y-46275000D01*
X149100000Y-46975000D01*
X149099178Y-46979128D01*
X149093233Y-47030379D01*
X149085501Y-47047888D01*
X149080970Y-47070671D01*
X149064672Y-47095062D01*
X149055521Y-47115788D01*
X149041365Y-47129943D01*
X149026777Y-47151777D01*
X149004943Y-47166365D01*
X148990788Y-47180521D01*
X148970062Y-47189672D01*
X148945671Y-47205970D01*
X148922888Y-47210501D01*
X148905379Y-47218233D01*
X148854129Y-47224178D01*
X148850000Y-47225000D01*
X147950000Y-47225000D01*
X147945873Y-47224179D01*
X147894620Y-47218233D01*
X147877109Y-47210501D01*
X147854329Y-47205970D01*
X147829939Y-47189673D01*
X147809211Y-47180521D01*
X147795053Y-47166363D01*
X147773223Y-47151777D01*
X147758636Y-47129946D01*
X147744478Y-47115788D01*
X147735324Y-47095057D01*
X147719030Y-47070671D01*
X147714499Y-47047892D01*
X147706766Y-47030379D01*
X147700818Y-46979117D01*
X147700000Y-46975000D01*
X147700000Y-46275000D01*
X147700818Y-46270885D01*
X147706766Y-46219620D01*
X147714499Y-46202105D01*
X147719030Y-46179329D01*
X147735323Y-46154944D01*
X147744478Y-46134211D01*
X147758638Y-46120050D01*
X147773223Y-46098223D01*
X147795050Y-46083638D01*
X147809211Y-46069478D01*
X147829944Y-46060323D01*
X147854329Y-46044030D01*
X147877105Y-46039499D01*
X147894620Y-46031766D01*
X147945884Y-46025818D01*
X147950000Y-46025000D01*
X148850000Y-46025000D01*
X148854116Y-46025818D01*
G37*
G36*
X145041615Y-46225818D02*
G01*
X145090017Y-46231434D01*
X145106555Y-46238736D01*
X145128387Y-46243079D01*
X145151759Y-46258695D01*
X145171224Y-46267290D01*
X145184517Y-46280583D01*
X145205438Y-46294562D01*
X145219416Y-46315482D01*
X145232709Y-46328775D01*
X145241302Y-46348238D01*
X145256921Y-46371613D01*
X145261264Y-46393446D01*
X145268565Y-46409982D01*
X145274178Y-46458372D01*
X145275000Y-46462500D01*
X145275000Y-46962500D01*
X145274178Y-46966627D01*
X145268565Y-47015017D01*
X145261264Y-47031551D01*
X145256921Y-47053387D01*
X145241301Y-47076763D01*
X145232709Y-47096224D01*
X145219418Y-47109514D01*
X145205438Y-47130438D01*
X145184514Y-47144418D01*
X145171224Y-47157709D01*
X145151763Y-47166301D01*
X145128387Y-47181921D01*
X145106551Y-47186264D01*
X145090017Y-47193565D01*
X145041629Y-47199178D01*
X145037500Y-47200000D01*
X144562500Y-47200000D01*
X144558373Y-47199179D01*
X144509982Y-47193565D01*
X144493446Y-47186264D01*
X144471613Y-47181921D01*
X144448238Y-47166302D01*
X144428775Y-47157709D01*
X144415482Y-47144416D01*
X144394562Y-47130438D01*
X144380583Y-47109517D01*
X144367290Y-47096224D01*
X144358695Y-47076759D01*
X144343079Y-47053387D01*
X144338736Y-47031555D01*
X144331434Y-47015017D01*
X144325818Y-46966616D01*
X144325000Y-46962500D01*
X144325000Y-46462500D01*
X144325818Y-46458385D01*
X144331434Y-46409982D01*
X144338736Y-46393442D01*
X144343079Y-46371613D01*
X144358694Y-46348242D01*
X144367290Y-46328775D01*
X144380585Y-46315479D01*
X144394562Y-46294562D01*
X144415479Y-46280585D01*
X144428775Y-46267290D01*
X144448242Y-46258694D01*
X144471613Y-46243079D01*
X144493442Y-46238736D01*
X144509982Y-46231434D01*
X144558384Y-46225818D01*
X144562500Y-46225000D01*
X145037500Y-46225000D01*
X145041615Y-46225818D01*
G37*
G36*
X168579113Y-41950818D02*
G01*
X168630378Y-41956766D01*
X168647892Y-41964499D01*
X168670670Y-41969030D01*
X168695054Y-41985323D01*
X168715788Y-41994478D01*
X168729950Y-42008640D01*
X168751776Y-42023224D01*
X168766359Y-42045049D01*
X168780521Y-42059211D01*
X168789675Y-42079943D01*
X168805970Y-42104330D01*
X168810501Y-42127109D01*
X168818233Y-42144621D01*
X168824179Y-42195875D01*
X168825000Y-42200002D01*
X168825000Y-45199998D01*
X168824178Y-45204126D01*
X168818233Y-45255378D01*
X168810501Y-45272888D01*
X168805970Y-45295670D01*
X168789673Y-45320058D01*
X168780521Y-45340788D01*
X168766361Y-45354947D01*
X168751776Y-45376776D01*
X168729947Y-45391361D01*
X168715788Y-45405521D01*
X168695058Y-45414673D01*
X168670670Y-45430970D01*
X168647888Y-45435501D01*
X168630378Y-45443233D01*
X168579126Y-45449178D01*
X168574998Y-45450000D01*
X165575002Y-45450000D01*
X165570875Y-45449179D01*
X165519621Y-45443233D01*
X165502109Y-45435501D01*
X165479330Y-45430970D01*
X165454943Y-45414675D01*
X165434211Y-45405521D01*
X165420049Y-45391359D01*
X165398224Y-45376776D01*
X165383640Y-45354950D01*
X165369478Y-45340788D01*
X165360323Y-45320054D01*
X165344030Y-45295670D01*
X165339499Y-45272892D01*
X165331766Y-45255378D01*
X165325818Y-45204113D01*
X165325000Y-45199998D01*
X165325000Y-42200002D01*
X165325818Y-42195887D01*
X165331766Y-42144621D01*
X165339499Y-42127105D01*
X165344030Y-42104330D01*
X165360321Y-42079947D01*
X165369478Y-42059211D01*
X165383642Y-42045046D01*
X165398224Y-42023224D01*
X165420046Y-42008642D01*
X165434211Y-41994478D01*
X165454947Y-41985321D01*
X165479330Y-41969030D01*
X165502105Y-41964499D01*
X165519621Y-41956766D01*
X165570887Y-41950818D01*
X165575002Y-41950000D01*
X168574998Y-41950000D01*
X168579113Y-41950818D01*
G37*
D10*
X175820000Y-41750000D02*
G75*
G02*
X172720000Y-41750000I-1550000J0D01*
G01*
X172720000Y-41750000D02*
G75*
G02*
X175820000Y-41750000I1550000J0D01*
G01*
X175820000Y-102020000D02*
G75*
G02*
X172720000Y-102020000I-1550000J0D01*
G01*
X172720000Y-102020000D02*
G75*
G02*
X175820000Y-102020000I1550000J0D01*
G01*
X117910000Y-41750000D02*
G75*
G02*
X114810000Y-41750000I-1550000J0D01*
G01*
X114810000Y-41750000D02*
G75*
G02*
X117910000Y-41750000I1550000J0D01*
G01*
X117910000Y-102020000D02*
G75*
G02*
X114810000Y-102020000I-1550000J0D01*
G01*
X114810000Y-102020000D02*
G75*
G02*
X117910000Y-102020000I1550000J0D01*
G01*
X112810000Y-38200000D02*
X177825000Y-38200000D01*
X177825000Y-105575000D01*
X112810000Y-105575000D01*
X112810000Y-38200000D01*
M02*
