%TF.GenerationSoftware,KiCad,Pcbnew,9.0.7*%
%TF.CreationDate,2026-05-07T13:12:25-05:00*%
%TF.ProjectId,power_management_test,706f7765-725f-46d6-916e-6167656d656e,rev?*%
%TF.SameCoordinates,Original*%
%TF.FileFunction,Copper,L2,Bot*%
%TF.FilePolarity,Positive*%
%FSLAX46Y46*%
G04 Gerber Fmt 4.6, Leading zero omitted, Abs format (unit mm)*
G04 Created by KiCad (PCBNEW 9.0.7) date 2026-05-07 13:12:25*
%MOMM*%
%LPD*%
G01*
G04 APERTURE LIST*
G04 Aperture macros list*
%AMRoundRect*
0 Rectangle with rounded corners*
0 $1 Rounding radius*
0 $2 $3 $4 $5 $6 $7 $8 $9 X,Y pos of 4 corners*
0 Add a 4 corners polygon primitive as box body*
4,1,4,$2,$3,$4,$5,$6,$7,$8,$9,$2,$3,0*
0 Add four circle primitives for the rounded corners*
1,1,$1+$1,$2,$3*
1,1,$1+$1,$4,$5*
1,1,$1+$1,$6,$7*
1,1,$1+$1,$8,$9*
0 Add four rect primitives between the rounded corners*
20,1,$1+$1,$2,$3,$4,$5,0*
20,1,$1+$1,$4,$5,$6,$7,0*
20,1,$1+$1,$6,$7,$8,$9,0*
20,1,$1+$1,$8,$9,$2,$3,0*%
G04 Aperture macros list end*
%TA.AperFunction,Conductor*%
%ADD10C,0.254000*%
%TD*%
%TA.AperFunction,ComponentPad*%
%ADD11O,2.400000X1.600000*%
%TD*%
%TA.AperFunction,ComponentPad*%
%ADD12RoundRect,0.250000X-0.950000X-0.550000X0.950000X-0.550000X0.950000X0.550000X-0.950000X0.550000X0*%
%TD*%
%TA.AperFunction,ComponentPad*%
%ADD13RoundRect,0.250002X-1.499998X1.499998X-1.499998X-1.499998X1.499998X-1.499998X1.499998X1.499998X0*%
%TD*%
%TA.AperFunction,ComponentPad*%
%ADD14C,3.500000*%
%TD*%
%TA.AperFunction,ComponentPad*%
%ADD15RoundRect,0.250002X-1.499998X-1.499998X1.499998X-1.499998X1.499998X1.499998X-1.499998X1.499998X0*%
%TD*%
%TA.AperFunction,ComponentPad*%
%ADD16RoundRect,0.249998X-3.250002X3.250002X-3.250002X-3.250002X3.250002X-3.250002X3.250002X3.250002X0*%
%TD*%
%TA.AperFunction,ComponentPad*%
%ADD17C,7.000000*%
%TD*%
%TA.AperFunction,ComponentPad*%
%ADD18RoundRect,0.250002X1.499998X-1.499998X1.499998X1.499998X-1.499998X1.499998X-1.499998X-1.499998X0*%
%TD*%
%TA.AperFunction,ComponentPad*%
%ADD19RoundRect,0.225000X0.475000X-0.225000X0.475000X0.225000X-0.475000X0.225000X-0.475000X-0.225000X0*%
%TD*%
%TA.AperFunction,ComponentPad*%
%ADD20O,1.400000X0.900000*%
%TD*%
%TA.AperFunction,ComponentPad*%
%ADD21RoundRect,0.249998X3.250002X-3.250002X3.250002X3.250002X-3.250002X3.250002X-3.250002X-3.250002X0*%
%TD*%
%TA.AperFunction,ViaPad*%
%ADD22C,0.457200*%
%TD*%
%TA.AperFunction,Conductor*%
%ADD23C,0.762000*%
%TD*%
%TA.AperFunction,Conductor*%
%ADD24C,0.152400*%
%TD*%
%TA.AperFunction,Profile*%
%ADD25C,0.038100*%
%TD*%
G04 APERTURE END LIST*
D10*
%TO.N,GND*%
X158200000Y-46925000D02*
X158200000Y-59525000D01*
X158100000Y-59625000D01*
X146000000Y-59625000D01*
X144400000Y-58025000D01*
X144400000Y-45625000D01*
X145000000Y-45025000D01*
X156300000Y-45025000D01*
X158200000Y-46925000D01*
%TA.AperFunction,Conductor*%
G36*
X158200000Y-46925000D02*
G01*
X158200000Y-59525000D01*
X158100000Y-59625000D01*
X146000000Y-59625000D01*
X144400000Y-58025000D01*
X144400000Y-45625000D01*
X145000000Y-45025000D01*
X156300000Y-45025000D01*
X158200000Y-46925000D01*
G37*
%TD.AperFunction*%
X140425000Y-54225000D02*
X137125000Y-57525000D01*
X127475000Y-47875000D01*
X127475000Y-45275000D01*
X127475000Y-45025000D01*
X140425000Y-45025000D01*
X140425000Y-54225000D01*
%TA.AperFunction,Conductor*%
G36*
X140425000Y-54225000D02*
G01*
X137125000Y-57525000D01*
X127475000Y-47875000D01*
X127475000Y-45275000D01*
X127475000Y-45025000D01*
X140425000Y-45025000D01*
X140425000Y-54225000D01*
G37*
%TD.AperFunction*%
%TO.N,3V3*%
X143200000Y-58725000D02*
X144600000Y-60125000D01*
X144600000Y-60425000D01*
X144200000Y-60825000D01*
X140250000Y-60825000D01*
X143200000Y-57875000D01*
X143200000Y-58725000D01*
%TA.AperFunction,Conductor*%
G36*
X143200000Y-58725000D02*
G01*
X144600000Y-60125000D01*
X144600000Y-60425000D01*
X144200000Y-60825000D01*
X140250000Y-60825000D01*
X143200000Y-57875000D01*
X143200000Y-58725000D01*
G37*
%TD.AperFunction*%
%TO.N,GND*%
X156300000Y-45025000D02*
X155800000Y-45525000D01*
X127975000Y-45525000D01*
X127475000Y-45900000D01*
X127475000Y-45025000D01*
X127475000Y-43025000D01*
X154300000Y-43025000D01*
X156300000Y-45025000D01*
%TA.AperFunction,Conductor*%
G36*
X156300000Y-45025000D02*
G01*
X155800000Y-45525000D01*
X127975000Y-45525000D01*
X127475000Y-45900000D01*
X127475000Y-45025000D01*
X127475000Y-43025000D01*
X154300000Y-43025000D01*
X156300000Y-45025000D01*
G37*
%TD.AperFunction*%
X158275000Y-71875000D02*
X158275000Y-84475000D01*
X158175000Y-84575000D01*
X146075000Y-84575000D01*
X144475000Y-82975000D01*
X144475000Y-70575000D01*
X146945000Y-68105000D01*
X154505000Y-68105000D01*
X158275000Y-71875000D01*
%TA.AperFunction,Conductor*%
G36*
X158275000Y-71875000D02*
G01*
X158275000Y-84475000D01*
X158175000Y-84575000D01*
X146075000Y-84575000D01*
X144475000Y-82975000D01*
X144475000Y-70575000D01*
X146945000Y-68105000D01*
X154505000Y-68105000D01*
X158275000Y-71875000D01*
G37*
%TD.AperFunction*%
%TD*%
D11*
%TO.P,U504,8,V+*%
%TO.N,3V3*%
X137400000Y-67200000D03*
%TO.P,U504,7*%
%TO.N,/CURRENT_SENSE*%
X137400000Y-69740000D03*
%TO.P,U504,6,-*%
X137400000Y-72280000D03*
%TO.P,U504,5,+*%
%TO.N,Net-(U504B-+)*%
X137400000Y-74820000D03*
%TO.P,U504,4,V-*%
%TO.N,GND*%
X129780000Y-74820000D03*
%TO.P,U504,3,+*%
%TO.N,Net-(U504A-+)*%
X129780000Y-72280000D03*
%TO.P,U504,2,-*%
%TO.N,/VOLTAGE_SENSE*%
X129780000Y-69740000D03*
D12*
%TO.P,U504,1*%
X129780000Y-67200000D03*
%TD*%
D13*
%TO.P,J6,1,Pin_1*%
%TO.N,/VOLTAGE_SENSE*%
X132075000Y-81850000D03*
D14*
%TO.P,J6,2,Pin_2*%
X132075000Y-88850000D03*
%TD*%
D13*
%TO.P,J7,1,Pin_1*%
%TO.N,/CURRENT_SENSE*%
X138150000Y-81850000D03*
D14*
%TO.P,J7,2,Pin_2*%
X138150000Y-88850000D03*
%TD*%
D15*
%TO.P,J505,1,Pin_1*%
%TO.N,GND*%
X167075000Y-43700000D03*
%TD*%
D16*
%TO.P,J1,1,Pin_1*%
%TO.N,/V_bat*%
X124275000Y-82350000D03*
D17*
%TO.P,J1,2,Pin_2*%
%TO.N,GND*%
X124275000Y-96350000D03*
%TD*%
D18*
%TO.P,J2,1,Pin_1*%
%TO.N,3V3*%
X167000000Y-58425000D03*
D14*
%TO.P,J2,2,Pin_2*%
X167000000Y-51425000D03*
%TD*%
D18*
%TO.P,J3,1,Pin_1*%
%TO.N,5V*%
X167075000Y-83375000D03*
D14*
%TO.P,J3,2,Pin_2*%
X167075000Y-76375000D03*
%TD*%
D19*
%TO.P,J5,1,Pin_1*%
%TO.N,GND*%
X167550000Y-70175000D03*
D20*
%TO.P,J5,2,Pin_2*%
X167550000Y-68925000D03*
%TO.P,J5,3,Pin_3*%
%TO.N,/VOLTAGE_SENSE*%
X167550000Y-67675000D03*
%TO.P,J5,4,Pin_4*%
%TO.N,/CURRENT_SENSE*%
X167550000Y-66425000D03*
%TO.P,J5,5,Pin_5*%
%TO.N,5V*%
X167550000Y-65175000D03*
%TO.P,J5,6,Pin_6*%
X167550000Y-63925000D03*
%TD*%
D21*
%TO.P,J4,1,Pin_1*%
%TO.N,/V_bat_in*%
X124800000Y-59275000D03*
D17*
%TO.P,J4,2,Pin_2*%
%TO.N,GND*%
X124800000Y-45275000D03*
%TD*%
D22*
%TO.N,GND*%
X151437500Y-80075000D03*
X153575000Y-71275000D03*
X153775000Y-80075000D03*
X156325000Y-71275000D03*
X152500000Y-59025000D03*
X154975000Y-55175000D03*
X155050000Y-83975000D03*
X146100000Y-52412500D03*
X149200000Y-46712500D03*
X152625000Y-70425000D03*
X153555000Y-69670000D03*
X151625000Y-70425000D03*
X148400000Y-46712500D03*
X153775000Y-83975000D03*
X153575000Y-70425000D03*
X154450000Y-70425000D03*
X151475000Y-83975000D03*
X151362500Y-55125000D03*
X152605000Y-68820000D03*
X136500000Y-59850000D03*
X155390000Y-69660000D03*
X151650000Y-71275000D03*
X157275000Y-71250000D03*
X155000000Y-82000000D03*
X152500000Y-55125000D03*
X154450000Y-71275000D03*
X153700000Y-57040000D03*
X156350000Y-70425000D03*
X149900000Y-46762500D03*
X151400000Y-59025000D03*
X153700000Y-59025000D03*
X153555000Y-68820000D03*
X154975000Y-57050000D03*
X152605000Y-69670000D03*
X151605000Y-68820000D03*
X155375000Y-71275000D03*
X154975000Y-59025000D03*
X153800000Y-82000000D03*
X137800000Y-56137500D03*
X154430000Y-68820000D03*
X149975000Y-71712500D03*
X154430000Y-69670000D03*
X151362500Y-57025000D03*
X151630000Y-69670000D03*
X152575000Y-81975000D03*
X151437500Y-81975000D03*
X146175000Y-77362500D03*
X153700000Y-55125000D03*
X154950000Y-80125000D03*
X155400000Y-70425000D03*
X152575000Y-80075000D03*
X152625000Y-71275000D03*
X148475000Y-71662500D03*
X149275000Y-71662500D03*
X152500000Y-57025000D03*
X152575000Y-83975000D03*
%TO.N,3V3*%
X161600000Y-60725000D03*
X137450000Y-62125000D03*
X143612500Y-46712500D03*
%TO.N,5V*%
X161675000Y-85675000D03*
X143687500Y-71662500D03*
%TD*%
D23*
%TO.N,GND*%
X167075000Y-43700000D02*
X159925000Y-43700000D01*
X136500000Y-59850000D02*
X136500000Y-56975000D01*
X136500000Y-56975000D02*
X124800000Y-45275000D01*
X124800000Y-45275000D02*
X144250000Y-45275000D01*
X144250000Y-45275000D02*
X151300000Y-52325000D01*
X159925000Y-43700000D02*
X151300000Y-52325000D01*
%TO.N,3V3*%
X143200000Y-59025000D02*
X144900000Y-60725000D01*
X143612500Y-46712500D02*
X143200000Y-47125000D01*
X143200000Y-47125000D02*
X143200000Y-59025000D01*
X137400000Y-62175000D02*
X137450000Y-62125000D01*
X138850000Y-60725000D02*
X144900000Y-60725000D01*
X137400000Y-67200000D02*
X137400000Y-62175000D01*
X137450000Y-62125000D02*
X138850000Y-60725000D01*
X144900000Y-60725000D02*
X161600000Y-60725000D01*
%TO.N,5V*%
X143275000Y-72075000D02*
X143275000Y-83975000D01*
X143687500Y-71662500D02*
X143275000Y-72075000D01*
X143275000Y-83975000D02*
X144975000Y-85675000D01*
X144975000Y-85675000D02*
X161675000Y-85675000D01*
D24*
%TO.N,/CURRENT_SENSE*%
X135225000Y-78925000D02*
X138150000Y-81850000D01*
X137400000Y-72280000D02*
X135225000Y-74455000D01*
D23*
X138150000Y-88850000D02*
X138150000Y-81850000D01*
D24*
X140715000Y-66425000D02*
X137400000Y-69740000D01*
X135225000Y-74455000D02*
X135225000Y-78925000D01*
X167550000Y-66425000D02*
X140715000Y-66425000D01*
D23*
%TO.N,/VOLTAGE_SENSE*%
X132075000Y-88850000D02*
X132075000Y-81850000D01*
D24*
X130215000Y-70175000D02*
X135978926Y-70175000D01*
X141321074Y-67675000D02*
X167550000Y-67675000D01*
X129780000Y-69740000D02*
X130215000Y-70175000D01*
X135978926Y-70175000D02*
X136573526Y-70769600D01*
X136573526Y-70769600D02*
X138226474Y-70769600D01*
X138226474Y-70769600D02*
X141321074Y-67675000D01*
X129780000Y-69740000D02*
X132075000Y-72035000D01*
X132075000Y-72035000D02*
X132075000Y-81850000D01*
%TD*%
D25*
X175820000Y-41750000D02*
G75*
G02*
X172720000Y-41750000I-1550000J0D01*
G01*
X172720000Y-41750000D02*
G75*
G02*
X175820000Y-41750000I1550000J0D01*
G01*
X175820000Y-102020000D02*
G75*
G02*
X172720000Y-102020000I-1550000J0D01*
G01*
X172720000Y-102020000D02*
G75*
G02*
X175820000Y-102020000I1550000J0D01*
G01*
X117910000Y-41750000D02*
G75*
G02*
X114810000Y-41750000I-1550000J0D01*
G01*
X114810000Y-41750000D02*
G75*
G02*
X117910000Y-41750000I1550000J0D01*
G01*
X117910000Y-102020000D02*
G75*
G02*
X114810000Y-102020000I-1550000J0D01*
G01*
X114810000Y-102020000D02*
G75*
G02*
X117910000Y-102020000I1550000J0D01*
G01*
X112810000Y-38200000D02*
X177825000Y-38200000D01*
X177825000Y-105575000D01*
X112810000Y-105575000D01*
X112810000Y-38200000D01*
M02*
