M48
; DRILL file {KiCad 9.0.7} date 2026-05-07T13:12:39-0500
; FORMAT={-:-/ absolute / metric / decimal}
; #@! TF.CreationDate,2026-05-07T13:12:39-05:00
; #@! TF.GenerationSoftware,Kicad,Pcbnew,9.0.7
; #@! TF.FileFunction,Plated,1,2,PTH
FMAT,2
METRIC
; #@! TA.AperFunction,Plated,PTH,ViaDrill
T1C0.254
; #@! TA.AperFunction,Plated,PTH,ComponentDrill
T2C0.600
; #@! TA.AperFunction,Plated,PTH,ComponentDrill
T3C0.800
; #@! TA.AperFunction,Plated,PTH,ComponentDrill
T4C1.600
; #@! TA.AperFunction,Plated,PTH,ComponentDrill
T5C4.400
%
G90
G05
T1
X136.5Y-59.85
X137.45Y-62.125
X137.8Y-56.137
X143.612Y-46.712
X143.688Y-71.662
X146.1Y-52.412
X146.175Y-77.362
X148.4Y-46.712
X148.475Y-71.662
X149.2Y-46.712
X149.275Y-71.662
X149.9Y-46.762
X149.975Y-71.712
X151.362Y-55.125
X151.362Y-57.025
X151.4Y-59.025
X151.438Y-80.075
X151.438Y-81.975
X151.475Y-83.975
X151.605Y-68.82
X151.625Y-70.425
X151.63Y-69.67
X151.65Y-71.275
X152.5Y-55.125
X152.5Y-57.025
X152.5Y-59.025
X152.575Y-80.075
X152.575Y-81.975
X152.575Y-83.975
X152.605Y-68.82
X152.605Y-69.67
X152.625Y-70.425
X152.625Y-71.275
X153.555Y-68.82
X153.555Y-69.67
X153.575Y-70.425
X153.575Y-71.275
X153.7Y-55.125
X153.7Y-57.04
X153.7Y-59.025
X153.775Y-80.075
X153.775Y-83.975
X153.8Y-82.0
X154.43Y-68.82
X154.43Y-69.67
X154.45Y-70.425
X154.45Y-71.275
X154.95Y-80.125
X154.975Y-55.175
X154.975Y-57.05
X154.975Y-59.025
X155.0Y-82.0
X155.05Y-83.975
X155.375Y-71.275
X155.39Y-69.66
X155.4Y-70.425
X156.325Y-71.275
X156.35Y-70.425
X157.275Y-71.25
X161.6Y-60.725
X161.675Y-85.675
T2
X167.55Y-63.925
X167.55Y-65.175
X167.55Y-66.425
X167.55Y-67.675
X167.55Y-68.925
X167.55Y-70.175
T3
X129.78Y-67.2
X129.78Y-69.74
X129.78Y-72.28
X129.78Y-74.82
X137.4Y-67.2
X137.4Y-69.74
X137.4Y-72.28
X137.4Y-74.82
T4
X132.075Y-81.85
X132.075Y-88.85
X138.15Y-81.85
X138.15Y-88.85
X167.0Y-51.425
X167.0Y-58.425
X167.075Y-43.7
X167.075Y-76.375
X167.075Y-83.375
T5
X124.275Y-82.35
X124.275Y-96.35
X124.8Y-45.275
X124.8Y-59.275
M30
