%TF.GenerationSoftware,KiCad,Pcbnew,9.0.7*%
%TF.CreationDate,2026-05-07T13:12:25-05:00*%
%TF.ProjectId,power_management_test,706f7765-725f-46d6-916e-6167656d656e,rev?*%
%TF.SameCoordinates,Original*%
%TF.FileFunction,Paste,Top*%
%TF.FilePolarity,Positive*%
%FSLAX46Y46*%
G04 Gerber Fmt 4.6, Leading zero omitted, Abs format (unit mm)*
G04 Created by KiCad (PCBNEW 9.0.7) date 2026-05-07 13:12:25*
%MOMM*%
%LPD*%
G01*
G04 APERTURE LIST*
G04 Aperture macros list*
%AMRoundRect*
0 Rectangle with rounded corners*
0 $1 Rounding radius*
0 $2 $3 $4 $5 $6 $7 $8 $9 X,Y pos of 4 corners*
0 Add a 4 corners polygon primitive as box body*
4,1,4,$2,$3,$4,$5,$6,$7,$8,$9,$2,$3,0*
0 Add four circle primitives for the rounded corners*
1,1,$1+$1,$2,$3*
1,1,$1+$1,$4,$5*
1,1,$1+$1,$6,$7*
1,1,$1+$1,$8,$9*
0 Add four rect primitives between the rounded corners*
20,1,$1+$1,$2,$3,$4,$5,0*
20,1,$1+$1,$4,$5,$6,$7,0*
20,1,$1+$1,$6,$7,$8,$9,0*
20,1,$1+$1,$8,$9,$2,$3,0*%
G04 Aperture macros list end*
%ADD10RoundRect,0.237500X0.237500X-0.300000X0.237500X0.300000X-0.237500X0.300000X-0.237500X-0.300000X0*%
%ADD11RoundRect,0.237500X0.237500X-0.250000X0.237500X0.250000X-0.237500X0.250000X-0.237500X-0.250000X0*%
%ADD12RoundRect,0.237500X-0.287500X-0.237500X0.287500X-0.237500X0.287500X0.237500X-0.287500X0.237500X0*%
%ADD13RoundRect,0.237500X-0.237500X0.250000X-0.237500X-0.250000X0.237500X-0.250000X0.237500X0.250000X0*%
%ADD14RoundRect,0.237500X-0.300000X-0.237500X0.300000X-0.237500X0.300000X0.237500X-0.300000X0.237500X0*%
%ADD15RoundRect,0.249999X-1.425001X0.450001X-1.425001X-0.450001X1.425001X-0.450001X1.425001X0.450001X0*%
%ADD16RoundRect,0.250000X0.337500X0.475000X-0.337500X0.475000X-0.337500X-0.475000X0.337500X-0.475000X0*%
%ADD17RoundRect,0.237500X0.250000X0.237500X-0.250000X0.237500X-0.250000X-0.237500X0.250000X-0.237500X0*%
%ADD18RoundRect,0.250000X-0.337500X-0.475000X0.337500X-0.475000X0.337500X0.475000X-0.337500X0.475000X0*%
%ADD19RoundRect,0.250000X-0.275000X-0.350000X0.275000X-0.350000X0.275000X0.350000X-0.275000X0.350000X0*%
%ADD20RoundRect,0.050000X0.100000X-0.285000X0.100000X0.285000X-0.100000X0.285000X-0.100000X-0.285000X0*%
%ADD21RoundRect,0.237500X-0.237500X0.300000X-0.237500X-0.300000X0.237500X-0.300000X0.237500X0.300000X0*%
%ADD22RoundRect,0.250000X-0.450000X0.350000X-0.450000X-0.350000X0.450000X-0.350000X0.450000X0.350000X0*%
%ADD23RoundRect,0.150000X-0.150000X0.512500X-0.150000X-0.512500X0.150000X-0.512500X0.150000X0.512500X0*%
%TA.AperFunction,Profile*%
%ADD24C,0.038100*%
%TD*%
G04 APERTURE END LIST*
D10*
%TO.C,C508*%
X146400000Y-48487500D03*
X146400000Y-46762500D03*
%TD*%
%TO.C,C511*%
X149975000Y-73437500D03*
X149975000Y-71712500D03*
%TD*%
D11*
%TO.C,R506*%
X144800000Y-48537500D03*
X144800000Y-46712500D03*
%TD*%
D12*
%TO.C,D2*%
X157175000Y-63975000D03*
X158925000Y-63975000D03*
%TD*%
D13*
%TO.C,R511*%
X148475000Y-71662500D03*
X148475000Y-73487500D03*
%TD*%
D12*
%TO.C,D1*%
X157375000Y-88950000D03*
X159125000Y-88950000D03*
%TD*%
D14*
%TO.C,C510*%
X149712500Y-83975000D03*
X151437500Y-83975000D03*
%TD*%
D15*
%TO.C,R515*%
X132310000Y-56770000D03*
X132310000Y-62870000D03*
%TD*%
D16*
%TO.C,C513*%
X159262500Y-82425000D03*
X157187500Y-82425000D03*
%TD*%
D11*
%TO.C,R508*%
X146175000Y-79187500D03*
X146175000Y-77362500D03*
%TD*%
%TO.C,R516*%
X137800000Y-57962500D03*
X137800000Y-56137500D03*
%TD*%
D17*
%TO.C,R510*%
X147387500Y-75775000D03*
X145562500Y-75775000D03*
%TD*%
D18*
%TO.C,C509*%
X149672500Y-80590000D03*
X151747500Y-80590000D03*
%TD*%
D11*
%TO.C,R512*%
X144875000Y-73487500D03*
X144875000Y-71662500D03*
%TD*%
D16*
%TO.C,C514*%
X159262500Y-84510000D03*
X157187500Y-84510000D03*
%TD*%
D14*
%TO.C,C518*%
X139662500Y-69125000D03*
X141387500Y-69125000D03*
%TD*%
D11*
%TO.C,R503*%
X144300000Y-58037500D03*
X144300000Y-56212500D03*
%TD*%
D10*
%TO.C,C515*%
X146475000Y-73437500D03*
X146475000Y-71712500D03*
%TD*%
D19*
%TO.C,L502*%
X156775000Y-76975000D03*
X159075000Y-76975000D03*
%TD*%
D20*
%TO.C,U502*%
X149475000Y-78605000D03*
X149975000Y-78605000D03*
X150475000Y-78605000D03*
X150975000Y-78605000D03*
X150975000Y-77125000D03*
X150475000Y-77125000D03*
X149975000Y-77125000D03*
X149475000Y-77125000D03*
%TD*%
D14*
%TO.C,C503*%
X149637500Y-59025000D03*
X151362500Y-59025000D03*
%TD*%
D21*
%TO.C,C505*%
X153580000Y-50962500D03*
X153580000Y-52687500D03*
%TD*%
D14*
%TO.C,C502*%
X149637500Y-57025000D03*
X151362500Y-57025000D03*
%TD*%
D11*
%TO.C,R517*%
X161700000Y-88962500D03*
X161700000Y-87137500D03*
%TD*%
D14*
%TO.C,C517*%
X139662500Y-66615000D03*
X141387500Y-66615000D03*
%TD*%
D17*
%TO.C,R504*%
X147312500Y-50825000D03*
X145487500Y-50825000D03*
%TD*%
D11*
%TO.C,R518*%
X161800000Y-63987500D03*
X161800000Y-62162500D03*
%TD*%
%TO.C,R502*%
X146100000Y-54237500D03*
X146100000Y-52412500D03*
%TD*%
D16*
%TO.C,C506*%
X159187500Y-57475000D03*
X157112500Y-57475000D03*
%TD*%
D22*
%TO.C,R505*%
X148400000Y-46625000D03*
X148400000Y-48625000D03*
%TD*%
D21*
%TO.C,C512*%
X153655000Y-75912500D03*
X153655000Y-77637500D03*
%TD*%
D13*
%TO.C,R514*%
X125375000Y-69622500D03*
X125375000Y-71447500D03*
%TD*%
D17*
%TO.C,R507*%
X147987500Y-81975000D03*
X146162500Y-81975000D03*
%TD*%
D23*
%TO.C,U503*%
X137450000Y-59850000D03*
X136500000Y-59850000D03*
X135550000Y-59850000D03*
X135550000Y-62125000D03*
X137450000Y-62125000D03*
%TD*%
D13*
%TO.C,R513*%
X125375000Y-66012500D03*
X125375000Y-67837500D03*
%TD*%
D14*
%TO.C,C516*%
X138787500Y-62775000D03*
X140512500Y-62775000D03*
%TD*%
D19*
%TO.C,L501*%
X156700000Y-52025000D03*
X159000000Y-52025000D03*
%TD*%
D20*
%TO.C,U501*%
X149400000Y-53655000D03*
X149900000Y-53655000D03*
X150400000Y-53655000D03*
X150900000Y-53655000D03*
X150900000Y-52175000D03*
X150400000Y-52175000D03*
X149900000Y-52175000D03*
X149400000Y-52175000D03*
%TD*%
D14*
%TO.C,C501*%
X149637500Y-55125000D03*
X151362500Y-55125000D03*
%TD*%
D17*
%TO.C,R501*%
X147912500Y-57025000D03*
X146087500Y-57025000D03*
%TD*%
D11*
%TO.C,R509*%
X144375000Y-82987500D03*
X144375000Y-81162500D03*
%TD*%
D10*
%TO.C,C504*%
X150080000Y-48487500D03*
X150080000Y-46762500D03*
%TD*%
D16*
%TO.C,C507*%
X159187500Y-59540000D03*
X157112500Y-59540000D03*
%TD*%
D24*
X175820000Y-41750000D02*
G75*
G02*
X172720000Y-41750000I-1550000J0D01*
G01*
X172720000Y-41750000D02*
G75*
G02*
X175820000Y-41750000I1550000J0D01*
G01*
X175820000Y-102020000D02*
G75*
G02*
X172720000Y-102020000I-1550000J0D01*
G01*
X172720000Y-102020000D02*
G75*
G02*
X175820000Y-102020000I1550000J0D01*
G01*
X117910000Y-41750000D02*
G75*
G02*
X114810000Y-41750000I-1550000J0D01*
G01*
X114810000Y-41750000D02*
G75*
G02*
X117910000Y-41750000I1550000J0D01*
G01*
X117910000Y-102020000D02*
G75*
G02*
X114810000Y-102020000I-1550000J0D01*
G01*
X114810000Y-102020000D02*
G75*
G02*
X117910000Y-102020000I1550000J0D01*
G01*
X112810000Y-38200000D02*
X177825000Y-38200000D01*
X177825000Y-105575000D01*
X112810000Y-105575000D01*
X112810000Y-38200000D01*
M02*
