%TF.GenerationSoftware,KiCad,Pcbnew,9.0.7*%
%TF.CreationDate,2026-05-07T13:12:25-05:00*%
%TF.ProjectId,power_management_test,706f7765-725f-46d6-916e-6167656d656e,rev?*%
%TF.SameCoordinates,Original*%
%TF.FileFunction,AssemblyDrawing,Bot*%
%FSLAX46Y46*%
G04 Gerber Fmt 4.6, Leading zero omitted, Abs format (unit mm)*
G04 Created by KiCad (PCBNEW 9.0.7) date 2026-05-07 13:12:25*
%MOMM*%
%LPD*%
G01*
G04 APERTURE LIST*
%ADD10C,0.066667*%
%ADD11C,0.100000*%
%ADD12C,0.100000*%
%TD*%
%ADD13C,0.097222*%
%ADD14C,0.194444*%
%ADD15C,0.038889*%
%TA.AperFunction,Profile*%
%ADD16C,0.038100*%
%TD*%
G04 APERTURE END LIST*
D10*
X137323809Y-67109485D02*
X137247619Y-67071390D01*
X137247619Y-67071390D02*
X137209524Y-67033294D01*
X137209524Y-67033294D02*
X137171428Y-66957104D01*
X137171428Y-66957104D02*
X137171428Y-66919009D01*
X137171428Y-66919009D02*
X137209524Y-66842818D01*
X137209524Y-66842818D02*
X137247619Y-66804723D01*
X137247619Y-66804723D02*
X137323809Y-66766628D01*
X137323809Y-66766628D02*
X137476190Y-66766628D01*
X137476190Y-66766628D02*
X137552381Y-66804723D01*
X137552381Y-66804723D02*
X137590476Y-66842818D01*
X137590476Y-66842818D02*
X137628571Y-66919009D01*
X137628571Y-66919009D02*
X137628571Y-66957104D01*
X137628571Y-66957104D02*
X137590476Y-67033294D01*
X137590476Y-67033294D02*
X137552381Y-67071390D01*
X137552381Y-67071390D02*
X137476190Y-67109485D01*
X137476190Y-67109485D02*
X137323809Y-67109485D01*
X137323809Y-67109485D02*
X137247619Y-67147580D01*
X137247619Y-67147580D02*
X137209524Y-67185675D01*
X137209524Y-67185675D02*
X137171428Y-67261866D01*
X137171428Y-67261866D02*
X137171428Y-67414247D01*
X137171428Y-67414247D02*
X137209524Y-67490437D01*
X137209524Y-67490437D02*
X137247619Y-67528533D01*
X137247619Y-67528533D02*
X137323809Y-67566628D01*
X137323809Y-67566628D02*
X137476190Y-67566628D01*
X137476190Y-67566628D02*
X137552381Y-67528533D01*
X137552381Y-67528533D02*
X137590476Y-67490437D01*
X137590476Y-67490437D02*
X137628571Y-67414247D01*
X137628571Y-67414247D02*
X137628571Y-67261866D01*
X137628571Y-67261866D02*
X137590476Y-67185675D01*
X137590476Y-67185675D02*
X137552381Y-67147580D01*
X137552381Y-67147580D02*
X137476190Y-67109485D01*
D11*
X137000000Y-68000000D02*
X137800000Y-68000000D01*
X137800000Y-66400000D02*
G75*
G02*
X137800000Y-68000000I0J-800000D01*
G01*
X137800000Y-66400000D02*
X137000000Y-66400000D01*
X137000000Y-66400000D02*
G75*
G03*
X137000000Y-68000000I0J-800000D01*
G01*
D10*
X137133333Y-69306628D02*
X137666667Y-69306628D01*
X137666667Y-69306628D02*
X137323809Y-70106628D01*
D11*
X137000000Y-70540000D02*
X137800000Y-70540000D01*
X137800000Y-68940000D02*
G75*
G02*
X137800000Y-70540000I0J-800000D01*
G01*
X137800000Y-68940000D02*
X137000000Y-68940000D01*
X137000000Y-68940000D02*
G75*
G03*
X137000000Y-70540000I0J-800000D01*
G01*
D10*
X137552381Y-71846628D02*
X137400000Y-71846628D01*
X137400000Y-71846628D02*
X137323809Y-71884723D01*
X137323809Y-71884723D02*
X137285714Y-71922818D01*
X137285714Y-71922818D02*
X137209524Y-72037104D01*
X137209524Y-72037104D02*
X137171428Y-72189485D01*
X137171428Y-72189485D02*
X137171428Y-72494247D01*
X137171428Y-72494247D02*
X137209524Y-72570437D01*
X137209524Y-72570437D02*
X137247619Y-72608533D01*
X137247619Y-72608533D02*
X137323809Y-72646628D01*
X137323809Y-72646628D02*
X137476190Y-72646628D01*
X137476190Y-72646628D02*
X137552381Y-72608533D01*
X137552381Y-72608533D02*
X137590476Y-72570437D01*
X137590476Y-72570437D02*
X137628571Y-72494247D01*
X137628571Y-72494247D02*
X137628571Y-72303771D01*
X137628571Y-72303771D02*
X137590476Y-72227580D01*
X137590476Y-72227580D02*
X137552381Y-72189485D01*
X137552381Y-72189485D02*
X137476190Y-72151390D01*
X137476190Y-72151390D02*
X137323809Y-72151390D01*
X137323809Y-72151390D02*
X137247619Y-72189485D01*
X137247619Y-72189485D02*
X137209524Y-72227580D01*
X137209524Y-72227580D02*
X137171428Y-72303771D01*
D11*
X137000000Y-73080000D02*
X137800000Y-73080000D01*
X137800000Y-71480000D02*
G75*
G02*
X137800000Y-73080000I0J-800000D01*
G01*
X137800000Y-71480000D02*
X137000000Y-71480000D01*
X137000000Y-71480000D02*
G75*
G03*
X137000000Y-73080000I0J-800000D01*
G01*
D10*
X137590476Y-74386628D02*
X137209524Y-74386628D01*
X137209524Y-74386628D02*
X137171428Y-74767580D01*
X137171428Y-74767580D02*
X137209524Y-74729485D01*
X137209524Y-74729485D02*
X137285714Y-74691390D01*
X137285714Y-74691390D02*
X137476190Y-74691390D01*
X137476190Y-74691390D02*
X137552381Y-74729485D01*
X137552381Y-74729485D02*
X137590476Y-74767580D01*
X137590476Y-74767580D02*
X137628571Y-74843771D01*
X137628571Y-74843771D02*
X137628571Y-75034247D01*
X137628571Y-75034247D02*
X137590476Y-75110437D01*
X137590476Y-75110437D02*
X137552381Y-75148533D01*
X137552381Y-75148533D02*
X137476190Y-75186628D01*
X137476190Y-75186628D02*
X137285714Y-75186628D01*
X137285714Y-75186628D02*
X137209524Y-75148533D01*
X137209524Y-75148533D02*
X137171428Y-75110437D01*
D11*
X137000000Y-75620000D02*
X137800000Y-75620000D01*
X137800000Y-74020000D02*
G75*
G02*
X137800000Y-75620000I0J-800000D01*
G01*
X137800000Y-74020000D02*
X137000000Y-74020000D01*
X137000000Y-74020000D02*
G75*
G03*
X137000000Y-75620000I0J-800000D01*
G01*
D10*
X129932381Y-74653294D02*
X129932381Y-75186628D01*
X129741905Y-74348533D02*
X129551428Y-74919961D01*
X129551428Y-74919961D02*
X130046667Y-74919961D01*
D11*
X129380000Y-75620000D02*
X130180000Y-75620000D01*
X130180000Y-74020000D02*
G75*
G02*
X130180000Y-75620000I0J-800000D01*
G01*
X130180000Y-74020000D02*
X129380000Y-74020000D01*
X129380000Y-74020000D02*
G75*
G03*
X129380000Y-75620000I0J-800000D01*
G01*
D10*
X129513333Y-71846628D02*
X130008571Y-71846628D01*
X130008571Y-71846628D02*
X129741905Y-72151390D01*
X129741905Y-72151390D02*
X129856190Y-72151390D01*
X129856190Y-72151390D02*
X129932381Y-72189485D01*
X129932381Y-72189485D02*
X129970476Y-72227580D01*
X129970476Y-72227580D02*
X130008571Y-72303771D01*
X130008571Y-72303771D02*
X130008571Y-72494247D01*
X130008571Y-72494247D02*
X129970476Y-72570437D01*
X129970476Y-72570437D02*
X129932381Y-72608533D01*
X129932381Y-72608533D02*
X129856190Y-72646628D01*
X129856190Y-72646628D02*
X129627619Y-72646628D01*
X129627619Y-72646628D02*
X129551428Y-72608533D01*
X129551428Y-72608533D02*
X129513333Y-72570437D01*
D11*
X129380000Y-73080000D02*
X130180000Y-73080000D01*
X130180000Y-71480000D02*
G75*
G02*
X130180000Y-73080000I0J-800000D01*
G01*
X130180000Y-71480000D02*
X129380000Y-71480000D01*
X129380000Y-71480000D02*
G75*
G03*
X129380000Y-73080000I0J-800000D01*
G01*
D10*
X129551428Y-69382818D02*
X129589524Y-69344723D01*
X129589524Y-69344723D02*
X129665714Y-69306628D01*
X129665714Y-69306628D02*
X129856190Y-69306628D01*
X129856190Y-69306628D02*
X129932381Y-69344723D01*
X129932381Y-69344723D02*
X129970476Y-69382818D01*
X129970476Y-69382818D02*
X130008571Y-69459009D01*
X130008571Y-69459009D02*
X130008571Y-69535199D01*
X130008571Y-69535199D02*
X129970476Y-69649485D01*
X129970476Y-69649485D02*
X129513333Y-70106628D01*
X129513333Y-70106628D02*
X130008571Y-70106628D01*
D11*
X129380000Y-70540000D02*
X130180000Y-70540000D01*
X130180000Y-68940000D02*
G75*
G02*
X130180000Y-70540000I0J-800000D01*
G01*
X130180000Y-68940000D02*
X129380000Y-68940000D01*
X129380000Y-68940000D02*
G75*
G03*
X129380000Y-70540000I0J-800000D01*
G01*
D10*
X130008571Y-67566628D02*
X129551428Y-67566628D01*
X129780000Y-67566628D02*
X129780000Y-66766628D01*
X129780000Y-66766628D02*
X129703809Y-66880913D01*
X129703809Y-66880913D02*
X129627619Y-66957104D01*
X129627619Y-66957104D02*
X129551428Y-66995199D01*
D11*
D12*
%TO.C,U504*%
D11*
X128580000Y-66650000D02*
X128599030Y-66554329D01*
X128653223Y-66473223D01*
X128734329Y-66419030D01*
X128830000Y-66400000D01*
X130730000Y-66400000D01*
X130825671Y-66419030D01*
X130906777Y-66473223D01*
X130960970Y-66554329D01*
X130980000Y-66650000D01*
X130980000Y-67750000D01*
X130960970Y-67845671D01*
X130906777Y-67926777D01*
X130825671Y-67980970D01*
X130730000Y-68000000D01*
X128830000Y-68000000D01*
X128734329Y-67980970D01*
X128653223Y-67926777D01*
X128599030Y-67845671D01*
X128580000Y-67750000D01*
X128580000Y-66650000D01*
%TD*%
D13*
X132408333Y-82384666D02*
X131741667Y-82384666D01*
X132075000Y-82384666D02*
X132075000Y-81218000D01*
X132075000Y-81218000D02*
X131963889Y-81384667D01*
X131963889Y-81384667D02*
X131852778Y-81495778D01*
X131852778Y-81495778D02*
X131741667Y-81551333D01*
D11*
D12*
%TO.C,J6*%
D11*
X133574998Y-80100000D02*
X133670670Y-80119030D01*
X133751776Y-80173224D01*
X133805970Y-80254330D01*
X133825000Y-80350002D01*
X133825000Y-83349998D01*
X133805970Y-83445670D01*
X133751776Y-83526776D01*
X133670670Y-83580970D01*
X133574998Y-83600000D01*
X130575002Y-83600000D01*
X130479330Y-83580970D01*
X130398224Y-83526776D01*
X130344030Y-83445670D01*
X130325000Y-83349998D01*
X130325000Y-80350002D01*
X130344030Y-80254330D01*
X130398224Y-80173224D01*
X130479330Y-80119030D01*
X130575002Y-80100000D01*
X133574998Y-80100000D01*
D13*
X131741667Y-88329111D02*
X131797222Y-88273556D01*
X131797222Y-88273556D02*
X131908333Y-88218000D01*
X131908333Y-88218000D02*
X132186111Y-88218000D01*
X132186111Y-88218000D02*
X132297222Y-88273556D01*
X132297222Y-88273556D02*
X132352777Y-88329111D01*
X132352777Y-88329111D02*
X132408333Y-88440222D01*
X132408333Y-88440222D02*
X132408333Y-88551333D01*
X132408333Y-88551333D02*
X132352777Y-88718000D01*
X132352777Y-88718000D02*
X131686111Y-89384666D01*
X131686111Y-89384666D02*
X132408333Y-89384666D01*
D11*
X133825000Y-88850000D02*
G75*
G02*
X130325000Y-88850000I-1750000J0D01*
G01*
X130325000Y-88850000D02*
G75*
G02*
X133825000Y-88850000I1750000J0D01*
G01*
%TD*%
D13*
X138483333Y-82384666D02*
X137816667Y-82384666D01*
X138150000Y-82384666D02*
X138150000Y-81218000D01*
X138150000Y-81218000D02*
X138038889Y-81384667D01*
X138038889Y-81384667D02*
X137927778Y-81495778D01*
X137927778Y-81495778D02*
X137816667Y-81551333D01*
D11*
D12*
%TO.C,J7*%
D11*
X139649998Y-80100000D02*
X139745670Y-80119030D01*
X139826776Y-80173224D01*
X139880970Y-80254330D01*
X139900000Y-80350002D01*
X139900000Y-83349998D01*
X139880970Y-83445670D01*
X139826776Y-83526776D01*
X139745670Y-83580970D01*
X139649998Y-83600000D01*
X136650002Y-83600000D01*
X136554330Y-83580970D01*
X136473224Y-83526776D01*
X136419030Y-83445670D01*
X136400000Y-83349998D01*
X136400000Y-80350002D01*
X136419030Y-80254330D01*
X136473224Y-80173224D01*
X136554330Y-80119030D01*
X136650002Y-80100000D01*
X139649998Y-80100000D01*
D13*
X137816667Y-88329111D02*
X137872222Y-88273556D01*
X137872222Y-88273556D02*
X137983333Y-88218000D01*
X137983333Y-88218000D02*
X138261111Y-88218000D01*
X138261111Y-88218000D02*
X138372222Y-88273556D01*
X138372222Y-88273556D02*
X138427777Y-88329111D01*
X138427777Y-88329111D02*
X138483333Y-88440222D01*
X138483333Y-88440222D02*
X138483333Y-88551333D01*
X138483333Y-88551333D02*
X138427777Y-88718000D01*
X138427777Y-88718000D02*
X137761111Y-89384666D01*
X137761111Y-89384666D02*
X138483333Y-89384666D01*
D11*
X139900000Y-88850000D02*
G75*
G02*
X136400000Y-88850000I-1750000J0D01*
G01*
X136400000Y-88850000D02*
G75*
G02*
X139900000Y-88850000I1750000J0D01*
G01*
%TD*%
D13*
X167408333Y-44234666D02*
X166741667Y-44234666D01*
X167075000Y-44234666D02*
X167075000Y-43068000D01*
X167075000Y-43068000D02*
X166963889Y-43234667D01*
X166963889Y-43234667D02*
X166852778Y-43345778D01*
X166852778Y-43345778D02*
X166741667Y-43401333D01*
D11*
D12*
%TO.C,J505*%
D11*
X165325000Y-42200002D02*
X165344030Y-42104330D01*
X165398224Y-42023224D01*
X165479330Y-41969030D01*
X165575002Y-41950000D01*
X168574998Y-41950000D01*
X168670670Y-41969030D01*
X168751776Y-42023224D01*
X168805970Y-42104330D01*
X168825000Y-42200002D01*
X168825000Y-45199998D01*
X168805970Y-45295670D01*
X168751776Y-45376776D01*
X168670670Y-45430970D01*
X168574998Y-45450000D01*
X165575002Y-45450000D01*
X165479330Y-45430970D01*
X165398224Y-45376776D01*
X165344030Y-45295670D01*
X165325000Y-45199998D01*
X165325000Y-42200002D01*
%TD*%
D14*
X124941666Y-83419333D02*
X123608333Y-83419333D01*
X124274999Y-83419333D02*
X124274999Y-81086000D01*
X124274999Y-81086000D02*
X124052777Y-81419333D01*
X124052777Y-81419333D02*
X123830555Y-81641555D01*
X123830555Y-81641555D02*
X123608333Y-81752666D01*
D11*
D12*
%TO.C,J1*%
D11*
X127525002Y-78850000D02*
X127620672Y-78869030D01*
X127701777Y-78923223D01*
X127755970Y-79004328D01*
X127775000Y-79099998D01*
X127775000Y-85600002D01*
X127755970Y-85695672D01*
X127701777Y-85776777D01*
X127620672Y-85830970D01*
X127525002Y-85850000D01*
X121024998Y-85850000D01*
X120929328Y-85830970D01*
X120848223Y-85776777D01*
X120794030Y-85695672D01*
X120775000Y-85600002D01*
X120775000Y-79099998D01*
X120794030Y-79004328D01*
X120848223Y-78923223D01*
X120929328Y-78869030D01*
X121024998Y-78850000D01*
X127525002Y-78850000D01*
D14*
X123608333Y-95308222D02*
X123719444Y-95197111D01*
X123719444Y-95197111D02*
X123941666Y-95086000D01*
X123941666Y-95086000D02*
X124497222Y-95086000D01*
X124497222Y-95086000D02*
X124719444Y-95197111D01*
X124719444Y-95197111D02*
X124830555Y-95308222D01*
X124830555Y-95308222D02*
X124941666Y-95530444D01*
X124941666Y-95530444D02*
X124941666Y-95752666D01*
X124941666Y-95752666D02*
X124830555Y-96085999D01*
X124830555Y-96085999D02*
X123497222Y-97419333D01*
X123497222Y-97419333D02*
X124941666Y-97419333D01*
D11*
X127775000Y-96350000D02*
G75*
G02*
X120775000Y-96350000I-3500000J0D01*
G01*
X120775000Y-96350000D02*
G75*
G02*
X127775000Y-96350000I3500000J0D01*
G01*
%TD*%
D13*
X167333333Y-58959666D02*
X166666667Y-58959666D01*
X167000000Y-58959666D02*
X167000000Y-57793000D01*
X167000000Y-57793000D02*
X166888889Y-57959667D01*
X166888889Y-57959667D02*
X166777778Y-58070778D01*
X166777778Y-58070778D02*
X166666667Y-58126333D01*
D11*
D12*
%TO.C,J2*%
D11*
X165500002Y-60175000D02*
X165404330Y-60155970D01*
X165323224Y-60101776D01*
X165269030Y-60020670D01*
X165250000Y-59924998D01*
X165250000Y-56925002D01*
X165269030Y-56829330D01*
X165323224Y-56748224D01*
X165404330Y-56694030D01*
X165500002Y-56675000D01*
X168499998Y-56675000D01*
X168595670Y-56694030D01*
X168676776Y-56748224D01*
X168730970Y-56829330D01*
X168750000Y-56925002D01*
X168750000Y-59924998D01*
X168730970Y-60020670D01*
X168676776Y-60101776D01*
X168595670Y-60155970D01*
X168499998Y-60175000D01*
X165500002Y-60175000D01*
D13*
X166666667Y-50904111D02*
X166722222Y-50848556D01*
X166722222Y-50848556D02*
X166833333Y-50793000D01*
X166833333Y-50793000D02*
X167111111Y-50793000D01*
X167111111Y-50793000D02*
X167222222Y-50848556D01*
X167222222Y-50848556D02*
X167277777Y-50904111D01*
X167277777Y-50904111D02*
X167333333Y-51015222D01*
X167333333Y-51015222D02*
X167333333Y-51126333D01*
X167333333Y-51126333D02*
X167277777Y-51293000D01*
X167277777Y-51293000D02*
X166611111Y-51959666D01*
X166611111Y-51959666D02*
X167333333Y-51959666D01*
D11*
X168750000Y-51425000D02*
G75*
G02*
X165250000Y-51425000I-1750000J0D01*
G01*
X165250000Y-51425000D02*
G75*
G02*
X168750000Y-51425000I1750000J0D01*
G01*
%TD*%
D13*
X167408333Y-83909666D02*
X166741667Y-83909666D01*
X167075000Y-83909666D02*
X167075000Y-82743000D01*
X167075000Y-82743000D02*
X166963889Y-82909667D01*
X166963889Y-82909667D02*
X166852778Y-83020778D01*
X166852778Y-83020778D02*
X166741667Y-83076333D01*
D11*
D12*
%TO.C,J3*%
D11*
X165575002Y-85125000D02*
X165479330Y-85105970D01*
X165398224Y-85051776D01*
X165344030Y-84970670D01*
X165325000Y-84874998D01*
X165325000Y-81875002D01*
X165344030Y-81779330D01*
X165398224Y-81698224D01*
X165479330Y-81644030D01*
X165575002Y-81625000D01*
X168574998Y-81625000D01*
X168670670Y-81644030D01*
X168751776Y-81698224D01*
X168805970Y-81779330D01*
X168825000Y-81875002D01*
X168825000Y-84874998D01*
X168805970Y-84970670D01*
X168751776Y-85051776D01*
X168670670Y-85105970D01*
X168574998Y-85125000D01*
X165575002Y-85125000D01*
D13*
X166741667Y-75854111D02*
X166797222Y-75798556D01*
X166797222Y-75798556D02*
X166908333Y-75743000D01*
X166908333Y-75743000D02*
X167186111Y-75743000D01*
X167186111Y-75743000D02*
X167297222Y-75798556D01*
X167297222Y-75798556D02*
X167352777Y-75854111D01*
X167352777Y-75854111D02*
X167408333Y-75965222D01*
X167408333Y-75965222D02*
X167408333Y-76076333D01*
X167408333Y-76076333D02*
X167352777Y-76243000D01*
X167352777Y-76243000D02*
X166686111Y-76909666D01*
X166686111Y-76909666D02*
X167408333Y-76909666D01*
D11*
X168825000Y-76375000D02*
G75*
G02*
X165325000Y-76375000I-1750000J0D01*
G01*
X165325000Y-76375000D02*
G75*
G02*
X168825000Y-76375000I1750000J0D01*
G01*
%TD*%
D15*
X167683333Y-70388866D02*
X167416666Y-70388866D01*
X167549999Y-70388866D02*
X167549999Y-69922200D01*
X167549999Y-69922200D02*
X167505555Y-69988866D01*
X167505555Y-69988866D02*
X167461111Y-70033311D01*
X167461111Y-70033311D02*
X167416666Y-70055533D01*
D11*
D12*
%TO.C,J5*%
D11*
X167075000Y-70625000D02*
X166988896Y-70607873D01*
X166915901Y-70559099D01*
X166867127Y-70486104D01*
X166850000Y-70400000D01*
X166850000Y-69950000D01*
X166867127Y-69863896D01*
X166915901Y-69790901D01*
X166988896Y-69742127D01*
X167075000Y-69725000D01*
X168025000Y-69725000D01*
X168111104Y-69742127D01*
X168184099Y-69790901D01*
X168232873Y-69863896D01*
X168250000Y-69950000D01*
X168250000Y-70400000D01*
X168232873Y-70486104D01*
X168184099Y-70559099D01*
X168111104Y-70607873D01*
X168025000Y-70625000D01*
X167075000Y-70625000D01*
D15*
X167416666Y-68716644D02*
X167438888Y-68694422D01*
X167438888Y-68694422D02*
X167483333Y-68672200D01*
X167483333Y-68672200D02*
X167594444Y-68672200D01*
X167594444Y-68672200D02*
X167638888Y-68694422D01*
X167638888Y-68694422D02*
X167661110Y-68716644D01*
X167661110Y-68716644D02*
X167683333Y-68761088D01*
X167683333Y-68761088D02*
X167683333Y-68805533D01*
X167683333Y-68805533D02*
X167661110Y-68872199D01*
X167661110Y-68872199D02*
X167394444Y-69138866D01*
X167394444Y-69138866D02*
X167683333Y-69138866D01*
D11*
X167300000Y-69375000D02*
X167800000Y-69375000D01*
X167800000Y-68475000D02*
G75*
G02*
X167800000Y-69375000I0J-450000D01*
G01*
X167800000Y-68475000D02*
X167300000Y-68475000D01*
X167300000Y-68475000D02*
G75*
G03*
X167300000Y-69375000I0J-450000D01*
G01*
D15*
X167394444Y-67422200D02*
X167683333Y-67422200D01*
X167683333Y-67422200D02*
X167527777Y-67599977D01*
X167527777Y-67599977D02*
X167594444Y-67599977D01*
X167594444Y-67599977D02*
X167638888Y-67622199D01*
X167638888Y-67622199D02*
X167661110Y-67644422D01*
X167661110Y-67644422D02*
X167683333Y-67688866D01*
X167683333Y-67688866D02*
X167683333Y-67799977D01*
X167683333Y-67799977D02*
X167661110Y-67844421D01*
X167661110Y-67844421D02*
X167638888Y-67866644D01*
X167638888Y-67866644D02*
X167594444Y-67888866D01*
X167594444Y-67888866D02*
X167461111Y-67888866D01*
X167461111Y-67888866D02*
X167416666Y-67866644D01*
X167416666Y-67866644D02*
X167394444Y-67844421D01*
D11*
X167300000Y-68125000D02*
X167800000Y-68125000D01*
X167800000Y-67225000D02*
G75*
G02*
X167800000Y-68125000I0J-450000D01*
G01*
X167800000Y-67225000D02*
X167300000Y-67225000D01*
X167300000Y-67225000D02*
G75*
G03*
X167300000Y-68125000I0J-450000D01*
G01*
D15*
X167638888Y-66327755D02*
X167638888Y-66638866D01*
X167527777Y-66149978D02*
X167416666Y-66483310D01*
X167416666Y-66483310D02*
X167705555Y-66483310D01*
D11*
X167300000Y-66875000D02*
X167800000Y-66875000D01*
X167800000Y-65975000D02*
G75*
G02*
X167800000Y-66875000I0J-450000D01*
G01*
X167800000Y-65975000D02*
X167300000Y-65975000D01*
X167300000Y-65975000D02*
G75*
G03*
X167300000Y-66875000I0J-450000D01*
G01*
D15*
X167661110Y-64922200D02*
X167438888Y-64922200D01*
X167438888Y-64922200D02*
X167416666Y-65144422D01*
X167416666Y-65144422D02*
X167438888Y-65122199D01*
X167438888Y-65122199D02*
X167483333Y-65099977D01*
X167483333Y-65099977D02*
X167594444Y-65099977D01*
X167594444Y-65099977D02*
X167638888Y-65122199D01*
X167638888Y-65122199D02*
X167661110Y-65144422D01*
X167661110Y-65144422D02*
X167683333Y-65188866D01*
X167683333Y-65188866D02*
X167683333Y-65299977D01*
X167683333Y-65299977D02*
X167661110Y-65344421D01*
X167661110Y-65344421D02*
X167638888Y-65366644D01*
X167638888Y-65366644D02*
X167594444Y-65388866D01*
X167594444Y-65388866D02*
X167483333Y-65388866D01*
X167483333Y-65388866D02*
X167438888Y-65366644D01*
X167438888Y-65366644D02*
X167416666Y-65344421D01*
D11*
X167300000Y-65625000D02*
X167800000Y-65625000D01*
X167800000Y-64725000D02*
G75*
G02*
X167800000Y-65625000I0J-450000D01*
G01*
X167800000Y-64725000D02*
X167300000Y-64725000D01*
X167300000Y-64725000D02*
G75*
G03*
X167300000Y-65625000I0J-450000D01*
G01*
D15*
X167638888Y-63672200D02*
X167549999Y-63672200D01*
X167549999Y-63672200D02*
X167505555Y-63694422D01*
X167505555Y-63694422D02*
X167483333Y-63716644D01*
X167483333Y-63716644D02*
X167438888Y-63783311D01*
X167438888Y-63783311D02*
X167416666Y-63872199D01*
X167416666Y-63872199D02*
X167416666Y-64049977D01*
X167416666Y-64049977D02*
X167438888Y-64094421D01*
X167438888Y-64094421D02*
X167461111Y-64116644D01*
X167461111Y-64116644D02*
X167505555Y-64138866D01*
X167505555Y-64138866D02*
X167594444Y-64138866D01*
X167594444Y-64138866D02*
X167638888Y-64116644D01*
X167638888Y-64116644D02*
X167661110Y-64094421D01*
X167661110Y-64094421D02*
X167683333Y-64049977D01*
X167683333Y-64049977D02*
X167683333Y-63938866D01*
X167683333Y-63938866D02*
X167661110Y-63894422D01*
X167661110Y-63894422D02*
X167638888Y-63872199D01*
X167638888Y-63872199D02*
X167594444Y-63849977D01*
X167594444Y-63849977D02*
X167505555Y-63849977D01*
X167505555Y-63849977D02*
X167461111Y-63872199D01*
X167461111Y-63872199D02*
X167438888Y-63894422D01*
X167438888Y-63894422D02*
X167416666Y-63938866D01*
D11*
X167300000Y-64375000D02*
X167800000Y-64375000D01*
X167800000Y-63475000D02*
G75*
G02*
X167800000Y-64375000I0J-450000D01*
G01*
X167800000Y-63475000D02*
X167300000Y-63475000D01*
X167300000Y-63475000D02*
G75*
G03*
X167300000Y-64375000I0J-450000D01*
G01*
%TD*%
D14*
X125466666Y-60344333D02*
X124133333Y-60344333D01*
X124799999Y-60344333D02*
X124799999Y-58011000D01*
X124799999Y-58011000D02*
X124577777Y-58344333D01*
X124577777Y-58344333D02*
X124355555Y-58566555D01*
X124355555Y-58566555D02*
X124133333Y-58677666D01*
D11*
D12*
%TO.C,J4*%
D11*
X121549998Y-62775000D02*
X121454328Y-62755970D01*
X121373223Y-62701777D01*
X121319030Y-62620672D01*
X121300000Y-62525002D01*
X121300000Y-56024998D01*
X121319030Y-55929328D01*
X121373223Y-55848223D01*
X121454328Y-55794030D01*
X121549998Y-55775000D01*
X128050002Y-55775000D01*
X128145672Y-55794030D01*
X128226777Y-55848223D01*
X128280970Y-55929328D01*
X128300000Y-56024998D01*
X128300000Y-62525002D01*
X128280970Y-62620672D01*
X128226777Y-62701777D01*
X128145672Y-62755970D01*
X128050002Y-62775000D01*
X121549998Y-62775000D01*
D14*
X124133333Y-44233222D02*
X124244444Y-44122111D01*
X124244444Y-44122111D02*
X124466666Y-44011000D01*
X124466666Y-44011000D02*
X125022222Y-44011000D01*
X125022222Y-44011000D02*
X125244444Y-44122111D01*
X125244444Y-44122111D02*
X125355555Y-44233222D01*
X125355555Y-44233222D02*
X125466666Y-44455444D01*
X125466666Y-44455444D02*
X125466666Y-44677666D01*
X125466666Y-44677666D02*
X125355555Y-45010999D01*
X125355555Y-45010999D02*
X124022222Y-46344333D01*
X124022222Y-46344333D02*
X125466666Y-46344333D01*
D11*
X128300000Y-45275000D02*
G75*
G02*
X121300000Y-45275000I-3500000J0D01*
G01*
X121300000Y-45275000D02*
G75*
G02*
X128300000Y-45275000I3500000J0D01*
G01*
%TD*%
D16*
X175820000Y-41750000D02*
G75*
G02*
X172720000Y-41750000I-1550000J0D01*
G01*
X172720000Y-41750000D02*
G75*
G02*
X175820000Y-41750000I1550000J0D01*
G01*
X175820000Y-102020000D02*
G75*
G02*
X172720000Y-102020000I-1550000J0D01*
G01*
X172720000Y-102020000D02*
G75*
G02*
X175820000Y-102020000I1550000J0D01*
G01*
X117910000Y-41750000D02*
G75*
G02*
X114810000Y-41750000I-1550000J0D01*
G01*
X114810000Y-41750000D02*
G75*
G02*
X117910000Y-41750000I1550000J0D01*
G01*
X117910000Y-102020000D02*
G75*
G02*
X114810000Y-102020000I-1550000J0D01*
G01*
X114810000Y-102020000D02*
G75*
G02*
X117910000Y-102020000I1550000J0D01*
G01*
X112810000Y-38200000D02*
X177825000Y-38200000D01*
X177825000Y-105575000D01*
X112810000Y-105575000D01*
X112810000Y-38200000D01*
M02*
